<svg width="659" height="463" viewBox="0 0 659 463" fill="none" xmlns="http://www.w3.org/2000/svg">
<path d="M655.1 258.1C654.8 258.1 654.4 258.3 654.3 258.6C654 259.4 653.7 260 653.3 260.3C653.3 260.3 653.2 260.4 653.1 260.4C652.5 260.8 651.8 261 651.1 261H8.8C8.1 261 7.4 260.8 6.8 260.4C6.7 260.4 6.7 260.3 6.6 260.3C6.2 260 5.9 259.4 5.6 258.6C5.5 258.3 5.2 258.1 4.8 258.1C4.3 258.1 4 258.5 4 258.9V273.2C4 273.7 4.4 274 4.8 274C5.2 274 5.5 273.8 5.6 273.5C5.9 272.7 6.2 272.1 6.6 271.8C6.7 271.7 6.8 271.6 7 271.6C7.6 271.3 8.2 271.1 8.8 271.1H136C138 271.1 139.7 272.8 139.7 274.8V346.2C139.7 347.5 140.4 348.7 141.5 349.4L328.1 457.5C329.2 458.2 330.7 458.2 331.8 457.5L518.4 349.3C519.5 348.6 520.2 347.4 520.2 346.1V274.7C520.2 272.7 521.9 271 523.9 271H651.1C651.7 271 652.4 271.2 652.9 271.5C653 271.6 653.2 271.7 653.3 271.7C653.7 272 654 272.6 654.3 273.4C654.4 273.7 654.7 273.9 655.1 273.9C655.6 273.9 655.9 273.5 655.9 273.1V259C655.9 258.5 655.6 258.1 655.1 258.1Z" fill="white"/>
<path d="M655.1 112.4C654.8 112.4 654.4 112.6 654.3 112.9C654 113.7 653.7 114.3 653.3 114.6C653 114.9 652.4 115.1 652.1 115.3C652 115.3 651.9 115.4 651.8 115.4H521.1C520.6 115.4 520.3 115 520.3 114.6V4.49995C520.3 3.99995 519.9 3.69995 519.5 3.69995H140.7C140.2 3.69995 139.9 4.09995 139.9 4.49995V114.6C139.9 115.1 139.5 115.4 139.1 115.4H8.1C8 115.4 7.9 115.4 7.8 115.3C7.5 115.2 6.9 114.9 6.6 114.6C6.2 114.3 5.9 113.7 5.6 112.9C5.5 112.6 5.2 112.4 4.8 112.4C4.3 112.4 4 112.8 4 113.2V127.5C4 128 4.4 128.3 4.8 128.3C5.2 128.3 5.5 128.1 5.6 127.8C5.9 127 6.2 126.4 6.6 126.1C6.9 125.8 7.5 125.6 7.8 125.4C7.9 125.4 8 125.3 8.1 125.3H651.8C651.9 125.3 652 125.3 652.1 125.4C652.4 125.5 653 125.8 653.3 126.1C653.7 126.4 654 127 654.3 127.8C654.4 128.1 654.7 128.3 655.1 128.3C655.6 128.3 655.9 127.9 655.9 127.5V113.2C655.9 112.8 655.6 112.4 655.1 112.4Z" fill="white"/>
<path fill-rule="evenodd" clip-rule="evenodd" d="M207.9 38.2L216.4 54.9L235.3 57.5999L221.6 70.5999L224.9 89L207.9 80.3L191 89L194.2 70.5999L180.5 57.5999L199.5 54.9L207.9 38.2Z" fill="#25F0F9"/>
<path fill-rule="evenodd" clip-rule="evenodd" d="M451.9 38.2L460.4 54.9L479.3 57.5999L465.6 70.5999L468.9 89L451.9 80.3L435 89L438.2 70.5999L424.5 57.5999L443.5 54.9L451.9 38.2Z" fill="#25F0F9"/>
<path d="M306.3 47.7999C306.1 47.9999 305.7 48.0999 305.2 48.0999H278.4C277.9 48.0999 277.6 47.9999 277.3 47.7999C277.1 47.5999 276.8 47.1999 276.7 46.5999H275.9V54.8999H276.7C276.9 54.2999 277.1 53.8999 277.3 53.6999C277.5 53.4999 277.9 53.3999 278.4 53.3999H288.3V77.6999C288.3 78.1999 288.2 78.5999 288 78.7999C287.8 78.9999 287.4 79.2999 286.8 79.3999V80.0999H296.8V79.3999C296.2 79.1999 295.8 78.9999 295.6 78.7999C295.4 78.4999 295.3 78.1999 295.3 77.6999V53.3999H305.2C305.7 53.3999 306.1 53.4999 306.3 53.6999C306.5 53.8999 306.8 54.2999 306.9 54.8999H307.7V46.5999H306.9C306.7 47.1999 306.5 47.4999 306.3 47.7999Z" fill="#122C50"/>
<path d="M328 47.4998C320.6 47.5998 315.3 50.1998 312.1 55.2998C310.5 57.9998 309.6 60.8998 309.6 64.0998C309.6 66.2998 310 68.3998 310.8 70.3998C311.7 72.6998 313 74.5998 314.8 76.1998C318.1 79.1998 322.5 80.6998 328 80.6998C335.4 80.6998 340.7 78.0998 343.9 72.8998C345.6 70.1998 346.4 67.3998 346.4 64.2998C346.4 59.2998 344.7 55.1998 341.2 52.0998C338 48.9998 333.6 47.4998 328 47.4998ZM338.5 68.4998C337.9 70.0998 336.9 71.3998 335.7 72.4998C333.7 74.2998 331.1 75.1998 328.1 75.1998C325 75.1998 322.5 74.2998 320.4 72.4998C318 70.3998 316.8 67.5998 316.8 64.0998C316.8 60.5998 318 57.7998 320.4 55.6998C322.4 53.8998 325 52.9998 328 52.9998C331.1 52.9998 333.6 53.8998 335.7 55.6998C338.1 57.7998 339.3 60.5998 339.3 64.1998C339.4 65.6998 339.1 67.0998 338.5 68.4998Z" fill="#122C50"/>
<path d="M383.1 53.2999C382.5 51.9999 381.6 50.9999 380.6 50.1999C379.6 49.3999 378.3 48.8999 377 48.5999C375.6 48.2999 373.8 48.0999 371.5 48.0999H351.5V48.8999C352.1 49.0999 352.5 49.2999 352.7 49.4999C352.9 49.7999 353 50.0999 353 50.5999V77.6999C353 78.1999 352.9 78.4999 352.7 78.7999C352.5 78.9999 352.1 79.2999 351.5 79.3999V80.0999H361.5V79.3999C361 79.2999 360.6 79.0999 360.3 78.7999C360.1 78.4999 360 78.1999 360 77.6999V67.0999H371.5C374.5 67.0999 376.8 66.7999 378.4 66.1999C380 65.5999 381.4 64.5999 382.4 63.1999C383.6 61.5999 384.1 59.6999 384.1 57.4999C384 56.0999 383.7 54.6999 383.1 53.2999ZM376.4 59.6999C376.1 60.2999 375.6 60.7999 375.1 61.0999C374.2 61.5999 372.7 61.7999 370.6 61.7999H359.9V53.2999H370.6C372.7 53.2999 374.2 53.4999 375.1 53.9999C375.6 54.2999 376.1 54.7999 376.4 55.3999C376.7 55.9999 376.9 56.7999 376.9 57.4999C376.9 58.3999 376.7 59.0999 376.4 59.6999Z" fill="#122C50"/>
<path fill-rule="evenodd" clip-rule="evenodd" d="M329 355.3L337.5 372L356.4 374.7L342.7 387.7L345.9 406L329 397.4L312.1 406L315.3 387.7L301.6 374.7L320.5 372L329 355.3Z" fill="#25F0F9"/>
<path d="M200.399 303.9L204.899 297.2L204.299 296.8C203.899 297.2 203.499 297.4 203.199 297.4C202.899 297.4 202.099 297 200.799 296.3C198.099 294.7 195.799 293.7 193.999 293.2C192.199 292.7 189.999 292.4 187.499 292.4C180.599 292.4 175.499 294.5 172.099 298.8C169.799 301.7 168.699 305 168.699 308.9C168.699 311.7 169.299 314.3 170.599 316.7C171.699 318.8 173.199 320.5 175.099 321.9C178.299 324.3 182.499 325.5 187.499 325.5C189.999 325.5 192.199 325.2 193.999 324.7C195.799 324.2 198.099 323.1 200.799 321.6C202.099 320.8 202.899 320.5 203.199 320.5C203.499 320.5 203.799 320.7 204.299 321.1L204.899 320.7L200.399 314L199.799 314.4C199.799 314.6 199.799 314.8 199.799 315C199.799 315.5 199.599 315.9 199.199 316.3C198.799 316.7 198.099 317.2 197.099 317.7C194.299 319.3 191.399 320 188.299 320C184.599 320 181.699 319.1 179.599 317.3C176.999 315.2 175.799 312.4 175.799 308.9C175.799 305.4 177.099 302.7 179.599 300.5C181.799 298.7 184.699 297.8 188.299 297.8C191.399 297.8 194.299 298.6 197.099 300.1C198.099 300.7 198.799 301.1 199.199 301.5C199.599 301.9 199.799 302.3 199.799 302.8C199.799 303 199.799 303.2 199.799 303.4L200.399 303.9Z" fill="#122C50"/>
<path d="M226 292.4C218.6 292.5 213.3 295.1 210.1 300.2C208.5 302.9 207.6 305.8 207.6 309C207.6 311.2 208 313.3 208.8 315.3C209.7 317.6 211 319.5 212.8 321.1C216.1 324.1 220.5 325.6 226 325.6C233.4 325.6 238.7 323 241.9 317.8C243.6 315.1 244.4 312.3 244.4 309.2C244.4 304.2 242.7 300.1 239.2 297C236 293.9 231.6 292.4 226 292.4ZM236.5 313.4C235.9 315 234.9 316.3 233.7 317.4C231.7 319.2 229.1 320.1 226.1 320.1C223 320.1 220.5 319.2 218.4 317.4C216 315.3 214.8 312.5 214.8 309C214.8 305.5 216 302.7 218.4 300.6C220.4 298.8 223 297.9 226 297.9C229.1 297.9 231.6 298.8 233.7 300.6C236.1 302.7 237.3 305.5 237.3 309.1C237.4 310.5 237.1 312 236.5 313.4Z" fill="#122C50"/>
<path d="M278 293.7C278.8 293.8 279.2 294.1 279.2 294.8C279.2 295.1 279 295.7 278.6 296.4L269.8 312.7L261 296C260.8 295.6 260.7 295.2 260.7 294.9C260.7 294.2 261.1 293.8 261.8 293.6V292.9H249.5V293.6C250.1 293.8 250.5 294 250.7 294.2C250.9 294.5 251 294.8 251 295.3V322.4C251 322.9 250.9 323.3 250.7 323.5C250.5 323.7 250.1 324 249.5 324.1V324.9H258.9V324.1C258.3 323.9 257.9 323.7 257.7 323.5C257.5 323.3 257.4 322.9 257.4 322.4V302.8L269.2 324.9L281.7 302.8V322.4C281.7 322.9 281.6 323.3 281.4 323.5C281.2 323.8 280.8 324 280.2 324.1V324.9H290.2V324.1C289.6 323.9 289.2 323.7 289 323.5C288.8 323.3 288.7 322.9 288.7 322.4V295.3C288.7 294.8 288.8 294.5 289 294.2C289.2 294 289.6 293.7 290.2 293.6V292.9H278V293.7Z" fill="#122C50"/>
<path d="M328 302.4C328 300.9 327.7 299.5 327.1 298.1C326.5 296.8 325.6 295.8 324.6 295C323.6 294.2 322.3 293.7 321 293.4C319.6 293.1 317.8 292.9 315.5 292.9H295.5V293.6C296.1 293.8 296.5 294 296.7 294.2C296.9 294.5 297 294.8 297 295.3V322.4C297 322.9 296.9 323.2 296.7 323.5C296.5 323.8 296.1 324 295.5 324.1V324.9H305.5V324.1C305 324 304.6 323.8 304.3 323.5C304.1 323.2 304 322.9 304 322.4V311.9H315.5C318.5 311.9 320.8 311.6 322.4 311C324 310.4 325.4 309.4 326.4 308C327.4 306.5 328 304.6 328 302.4ZM320.4 304.5C320.1 305.1 319.6 305.6 319.1 305.9C318.2 306.4 316.7 306.6 314.6 306.6H303.9V298.1H314.6C316.7 298.1 318.2 298.3 319.1 298.8C319.6 299.1 320.1 299.6 320.4 300.2C320.7 300.8 320.9 301.6 320.9 302.3C320.9 303.2 320.7 303.9 320.4 304.5Z" fill="#122C50"/>
<path d="M361.799 321.2L349.599 296.5C349.299 295.9 349.199 295.4 349.199 295C349.199 294.3 349.699 293.9 350.599 293.6V292.9H339.299V293.6C340.199 293.9 340.699 294.4 340.699 295.1C340.699 295.6 340.499 296.2 340.099 297L328.299 321.6C327.899 322.5 327.499 323.1 327.199 323.4C326.899 323.7 326.399 323.9 325.799 324.1V324.9H336.399V324.1C335.399 323.8 334.799 323.4 334.799 322.7C334.799 322.3 334.899 321.8 335.199 321.2L337.399 316.7H351.899L354.099 321.2C354.399 321.8 354.599 322.3 354.599 322.7C354.599 323.5 354.099 324 352.999 324.2V325H364.799V324.2C364.099 324.1 363.599 323.8 363.199 323.4C362.799 323 362.399 322.3 361.799 321.2ZM339.399 312.4L344.699 301L349.899 312.4H339.399Z" fill="#122C50"/>
<path d="M394.098 293.7C394.698 293.9 395.098 294.1 395.298 294.3C395.498 294.6 395.598 294.9 395.598 295.4V314.4L377.998 296C377.598 295.5 377.298 295.1 377.298 294.8C377.298 294.3 377.598 293.9 378.298 293.7V293H367.398V293.7C367.998 293.9 368.398 294.1 368.598 294.3C368.798 294.6 368.898 294.9 368.898 295.4V322.5C368.898 323 368.798 323.4 368.598 323.6C368.398 323.8 367.998 324.1 367.398 324.2V325H376.798V324.2C376.198 324 375.798 323.8 375.598 323.6C375.398 323.4 375.298 323 375.298 322.5V303L393.198 321.5C393.998 322.3 394.298 322.8 394.298 323.1C394.298 323.6 393.998 324 393.298 324.1V324.9H403.398V324.1C402.798 323.9 402.398 323.7 402.198 323.5C401.998 323.3 401.898 322.9 401.898 322.4V295.3C401.898 294.8 401.998 294.5 402.198 294.2C402.398 294 402.798 293.7 403.398 293.6V292.9H393.998V293.7H394.098Z" fill="#122C50"/>
<path d="M409.398 293.7C409.998 293.9 410.398 294.1 410.598 294.3C410.798 294.6 410.898 294.9 410.898 295.4V322.5C410.898 323 410.798 323.4 410.598 323.6C410.398 323.8 409.998 324.1 409.398 324.2V325H419.398V324.2C418.898 324.1 418.498 323.9 418.198 323.6C417.998 323.3 417.898 323 417.898 322.5V295.4C417.898 294.9 417.998 294.6 418.198 294.3C418.398 294 418.798 293.8 419.398 293.7V293H409.398V293.7Z" fill="#122C50"/>
<path d="M455.598 319.3C455.398 319.5 454.998 319.6 454.498 319.6H433.898V310.8H446.898C447.398 310.8 447.698 310.9 447.998 311.1C448.198 311.3 448.498 311.7 448.598 312.3H449.298V304.2H448.598C448.398 304.8 448.198 305.2 447.998 305.4C447.698 305.6 447.398 305.7 446.898 305.7H433.898V298.1H453.898C454.398 298.1 454.698 298.2 454.998 298.4C455.298 298.6 455.498 299 455.598 299.6H456.298V291.3H455.598C455.398 291.9 455.198 292.2 454.998 292.5C454.798 292.7 454.398 292.8 453.898 292.8H425.398V293.5C425.998 293.7 426.398 293.9 426.598 294.1C426.798 294.4 426.898 294.7 426.898 295.2V322.3C426.898 322.8 426.798 323.2 426.598 323.4C426.398 323.6 425.998 323.9 425.398 324V324.8H454.498C454.998 324.8 455.298 324.9 455.598 325.1C455.898 325.3 456.098 325.7 456.198 326.3H456.898V318H456.198C455.998 318.7 455.798 319.1 455.598 319.3Z" fill="#122C50"/>
<path d="M487.7 308C486.7 307.3 485.5 306.7 484.1 306.3C482.7 305.9 481 305.6 478.8 305.3L475.1 304.9C472.6 304.6 471 304.4 470.3 304.2C468.8 303.8 468.1 302.9 468.1 301.7C468.1 301 468.4 300.3 469 299.7C469.6 299.1 470.3 298.6 471.2 298.3C472.5 297.9 473.9 297.7 475.6 297.7C479.3 297.7 482.6 298.7 485.4 300.6C486.3 301.2 486.8 301.8 486.8 302.3C486.8 302.4 486.8 302.5 486.8 302.7L487.5 303.1L491.3 295.6L490.6 295.2C490.2 295.6 489.8 295.7 489.5 295.7C489.3 295.7 488.7 295.5 487.8 295.2C485.2 294.1 483 293.3 481.2 292.9C479.4 292.5 477.5 292.3 475.5 292.3C470.6 292.3 467 293.5 464.5 295.8C462.6 297.6 461.7 299.8 461.7 302.5C461.7 304.1 462.1 305.6 462.8 306.9C463.6 308.3 464.7 309.4 466.2 310.1C467.2 310.6 468.2 311 469.2 311.2C470.2 311.4 471.9 311.7 474.3 311.9L477.9 312.3C480.3 312.6 481.9 312.9 482.7 313.2C483.8 313.7 484.4 314.4 484.4 315.5C484.4 316.2 484.2 316.9 483.7 317.5C483.2 318.1 482.6 318.7 481.8 319.1C480.3 319.8 478.6 320.2 476.5 320.2C474.6 320.2 472.6 319.9 470.5 319.2C468.4 318.5 466.8 317.8 465.8 316.9C465.1 316.3 464.8 315.7 464.8 315C464.8 314.9 464.8 314.8 464.8 314.7L464.1 314.4L460.6 322.3L461.3 322.7C461.7 322.4 462.1 322.2 462.3 322.2C462.5 322.2 463 322.4 463.9 322.8C468 324.8 472.2 325.8 476.4 325.8C478.8 325.8 481 325.5 483 324.9C485.8 324.1 487.8 323 489.1 321.4C490.6 319.7 491.3 317.7 491.3 315.4C491.3 314 491 312.6 490.4 311.4C489.6 309.8 488.8 308.8 487.7 308Z" fill="#122C50"/>
<path d="M65.2004 183.5L72.4004 169.4L71.2004 168.7C70.4004 169.4 69.7004 169.7 69.0004 169.7C68.6004 169.7 67.6004 169.4 65.9004 168.7C60.9004 166.6 56.8004 165.2 53.5004 164.4C50.2004 163.6 46.6004 163.2 42.8004 163.2C33.7004 163.2 26.8004 165.4 22.2004 169.8C18.7004 173.1 17.0004 177.3 17.0004 182.4C17.0004 185.5 17.7004 188.2 19.1004 190.6C20.6004 193.2 22.7004 195.2 25.4004 196.5C27.3004 197.4 29.1004 198.1 31.0004 198.5C32.9004 198.9 36.1004 199.4 40.6004 199.8L47.4004 200.5C51.9004 201 55.0004 201.5 56.5004 202.1C58.6004 202.9 59.7004 204.4 59.7004 206.4C59.7004 207.7 59.2004 209 58.3004 210.2C57.4004 211.4 56.2004 212.4 54.7004 213.1C51.9004 214.4 48.6004 215.1 44.7004 215.1C41.1004 215.1 37.3004 214.5 33.4004 213.3C29.4004 212.1 26.5004 210.6 24.6004 208.9C23.3004 207.8 22.7004 206.6 22.7004 205.3C22.7004 205.2 22.7004 205 22.7004 204.7L21.4004 204.1L14.9004 218.8L16.2004 219.5C17.0004 218.9 17.6004 218.5 18.0004 218.5C18.3004 218.5 19.3004 218.9 20.9004 219.6C28.6004 223.4 36.5004 225.3 44.4004 225.3C48.8004 225.3 53.0004 224.8 56.8004 223.7C62.0004 222.3 65.8004 220.1 68.3004 217.1C71.0004 213.8 72.4004 210.1 72.4004 205.9C72.4004 203.2 71.8004 200.7 70.7004 198.4C69.5004 196.1 68.0004 194.2 66.0004 192.7C64.0004 191.3 61.8004 190.3 59.3004 189.5C56.8004 188.7 53.4004 188.1 49.3004 187.7L42.4004 187C37.8004 186.5 34.8004 186.1 33.3004 185.7C30.6004 184.9 29.2004 183.3 29.2004 181.1C29.2004 179.7 29.7004 178.5 30.8004 177.3C31.9004 176.1 33.3004 175.3 35.0004 174.7C37.4004 173.9 40.1004 173.6 43.2004 173.6C50.2004 173.6 56.4004 175.4 61.6004 179.1C63.3004 180.2 64.1004 181.3 64.1004 182.3C64.1004 182.5 64.1004 182.7 64.1004 183L65.2004 183.5Z" fill="white"/>
<path d="M150.101 171.8C144.001 166.1 135.701 163.3 125.201 163.3C111.201 163.5 101.301 168.3 95.4008 177.8C92.3008 182.8 90.8008 188.3 90.8008 194.3C90.8008 198.4 91.5008 202.3 93.0008 206C94.7008 210.2 97.2008 213.8 100.501 216.9C106.601 222.6 114.901 225.4 125.301 225.4C139.101 225.4 149.101 220.5 155.201 210.8C158.301 205.8 159.901 200.5 159.901 194.7C159.801 185.3 156.601 177.7 150.101 171.8ZM144.901 202.7C143.701 205.6 142.001 208.1 139.701 210.1C135.901 213.5 131.101 215.2 125.401 215.2C119.601 215.2 114.801 213.5 111.001 210.1C106.501 206.1 104.201 200.8 104.201 194.3C104.201 187.8 106.501 182.6 111.001 178.5C114.801 175.1 119.601 173.4 125.301 173.4C131.101 173.5 135.901 175.2 139.701 178.5C144.201 182.4 146.501 187.7 146.501 194.5C146.501 197.4 146.001 200.1 144.901 202.7Z" fill="white"/>
<path d="M233 163.7C232.5 164.1 231.9 164.3 231 164.3H177.9V165.7C179 166 179.7 166.4 180.1 166.8C180.5 167.3 180.7 168 180.7 168.9V219.7C180.7 220.6 180.5 221.3 180.1 221.8C179.7 222.3 179 222.6 177.9 222.9V224.3H196.6V222.9C195.6 222.6 194.8 222.3 194.4 221.8C194 221.3 193.8 220.6 193.8 219.7V198.1H218.1C219 198.1 219.7 198.3 220.2 198.7C220.7 199.1 221 199.8 221.3 200.9H222.7V185.7H221.3C221 186.7 220.6 187.5 220.2 187.9C219.7 188.3 219 188.5 218.1 188.5H193.8V174.2H231C231.9 174.2 232.6 174.4 233 174.8C233.5 175.2 233.8 175.9 234.1 177H235.5V161.5H234.1C233.8 162.6 233.4 163.3 233 163.7Z" fill="white"/>
<path d="M305.701 163.7C305.201 164.1 304.501 164.3 303.601 164.3H253.301C252.401 164.3 251.801 164.1 251.301 163.7C250.801 163.3 250.501 162.6 250.101 161.5H248.701V177H250.101C250.401 175.9 250.801 175.2 251.201 174.8C251.701 174.4 252.301 174.2 253.201 174.2H272.001V219.7C272.001 220.6 271.801 221.3 271.401 221.8C271.001 222.3 270.301 222.6 269.201 222.9V224.3H287.901V222.9C286.801 222.6 286.101 222.2 285.701 221.8C285.301 221.3 285.101 220.6 285.101 219.7V174.2H303.701C304.601 174.2 305.301 174.4 305.801 174.8C306.301 175.2 306.601 175.9 306.901 177H308.301V161.5H306.901C306.601 162.6 306.201 163.3 305.701 163.7Z" fill="white"/>
<path d="M405.7 165.7C407.8 166.1 408.9 167 408.9 168.2C408.9 169 408.6 170.1 408 171.7L396.2 203L384 171.3C383.5 170 383.3 169.1 383.3 168.7C383.3 167.3 384.3 166.4 386.3 165.8V164.4H364.5V165.8C366.5 166.2 367.4 167 367.4 168.4C367.4 168.8 367.1 169.7 366.6 171.1L353.6 203L341.7 171.3C341.2 170 341 169.1 341 168.4C341 167.1 341.9 166.2 343.8 165.8V164.4H323V165.8C324.3 166.1 325.3 166.6 326 167.4C326.7 168.2 327.5 169.7 328.3 171.9L345.5 216.2C346.3 218.4 346.7 219.7 346.7 220.1C346.7 221.7 345.7 222.7 343.8 223.1V224.5H363.1V223.1C360.9 222.5 359.8 221.6 359.8 220.2C359.8 219.7 360.2 218.6 361 216.9L374.7 182.2L387.9 216.2C388.8 218.3 389.3 219.6 389.3 220.2C389.3 221.8 388.3 222.8 386.2 223.1V224.5H405.8V223.1C403.7 222.7 402.7 221.9 402.7 220.4C402.7 219.7 403.1 218.3 403.9 216.2L421.1 171.9C422 169.6 422.7 168.1 423.3 167.5C423.9 166.9 424.9 166.3 426.3 165.9V164.5H405.7V165.7V165.7Z" fill="white"/>
<path d="M497.3 217.5L474.4 171.3C473.8 170.2 473.6 169.2 473.6 168.4C473.6 167.2 474.5 166.3 476.2 165.8V164.4H454.9V165.8C456.6 166.4 457.4 167.4 457.4 168.7C457.4 169.6 457 170.8 456.3 172.2L434.2 218.3C433.4 220 432.7 221.1 432.1 221.7C431.5 222.3 430.6 222.7 429.4 222.9V224.3H449.2V222.9C447.2 222.4 446.3 221.5 446.3 220.2C446.3 219.5 446.6 218.6 447.1 217.4L451.1 209H478.4L482.5 217.4C483.1 218.6 483.4 219.5 483.4 220.1C483.4 221.6 482.4 222.5 480.5 222.8V224.2H502.6V222.8C501.4 222.6 500.4 222.1 499.7 221.4C499.1 220.8 498.3 219.4 497.3 217.5ZM455.2 200.8L465.1 179.4L474.8 200.8H455.2Z" fill="white"/>
<path d="M567.9 215.9L556.3 199.3C567.2 197.6 572.6 191.9 572.6 182.1C572.6 179.2 572.1 176.5 571 174C569.9 171.4 568.1 169.3 565.8 167.8C563.8 166.5 561.5 165.6 558.8 165C556.1 164.5 552.5 164.2 547.9 164.2H510.4V165.6C511.5 165.9 512.2 166.3 512.6 166.7C513 167.2 513.2 167.9 513.2 168.8V219.6C513.2 220.5 513 221.2 512.6 221.6C512.2 222.1 511.5 222.4 510.4 222.7V224.1H529.1V222.7C528.1 222.4 527.3 222.1 526.9 221.6C526.5 221.1 526.3 220.4 526.3 219.6V199.7H542.3L554.4 217.4C555.8 219.4 556.5 220.7 556.5 221.2C556.5 222 555.8 222.5 554.3 222.8V224.2H576V222.8C574.6 222.7 573.5 222.2 572.5 221.4C571.5 220.7 570 218.8 567.9 215.9ZM552.8 189.7C551.6 189.9 549.5 190 546.5 190H526.3V174.3H546.5C549.5 174.3 551.7 174.4 552.9 174.5C554.1 174.7 555.2 175 556.3 175.6C558.5 176.8 559.6 179 559.6 182.1C559.6 185.2 558.5 187.4 556.3 188.6C555.2 189.1 554.1 189.5 552.8 189.7Z" fill="white"/>
<path d="M643.7 211.6C643.4 212.7 643 213.4 642.6 213.8C642.1 214.2 641.5 214.4 640.6 214.4H602V198H626.3C627.2 198 627.9 198.2 628.3 198.6C628.8 199 629.1 199.7 629.4 200.8H630.8V185.6H629.4C629.1 186.7 628.7 187.4 628.3 187.8C627.8 188.2 627.2 188.4 626.3 188.4H602V174.2H639.5C640.4 174.2 641.1 174.4 641.5 174.8C642 175.2 642.3 175.9 642.6 177H644V161.5H642.6C642.3 162.5 641.9 163.3 641.5 163.7C641 164.1 640.4 164.3 639.5 164.3H586.1V165.7C587.2 166 587.9 166.4 588.3 166.8C588.7 167.3 588.9 168 588.9 168.9V219.7C588.9 220.6 588.7 221.3 588.3 221.8C587.9 222.3 587.2 222.6 586.1 222.9V224.3H640.6C641.5 224.3 642.2 224.5 642.6 224.9C643.1 225.3 643.4 226 643.7 227.1H645.1V211.6H643.7V211.6Z" fill="white"/>
</svg>
