<svg xmlns="http://www.w3.org/2000/svg" width="80" height="50" viewBox="0 0 80 50" fill="none"><path d="M38.9065 44.9319C38.8145 44.9542 38.7896 44.9686 38.7751 44.9633C37.4621 44.4783 37.4621 44.477 37.4621 43.0915C37.4621 36.9343 37.4656 30.7776 37.4726 24.6213C37.4726 24.0904 37.4096 23.8492 36.7819 23.8859C35.7315 23.9475 35.7315 23.9017 35.7315 24.9713V43.3681C34.5327 43.0942 34.3174 42.8281 34.3174 41.6746C34.3174 36.3476 34.3082 31.0205 34.3305 25.6935C34.3305 25.139 34.1821 24.9909 33.6398 25.0158C32.3727 25.0735 32.5605 24.8638 32.5592 26.0894C32.5513 31.0022 32.5513 35.9146 32.5592 40.8265V41.5959C32.0931 41.3338 31.7911 41.01 31.3775 40.8527C31.0282 40.7216 31.1437 40.3717 31.1437 40.1043C31.1437 36.1522 31.1437 32.2002 31.1306 28.2495C31.1306 27.9716 31.3236 27.526 30.9612 27.4368C30.4901 27.3444 30.0053 27.3471 29.5353 27.4447C29.3147 27.4827 29.4131 27.8301 29.4131 28.0372C29.4079 31.4653 29.4079 34.893 29.4131 38.3203V39.2116C28.6424 38.5077 27.848 38.1459 27.915 36.9466C28.0371 34.7694 27.9347 32.5817 27.9609 30.3927C27.9675 29.8683 27.848 29.6665 27.2808 29.6861C26.1896 29.7255 26.1883 29.6927 26.1883 30.8016V35.6174C25.4254 34.5046 25.0066 33.3078 25.0197 31.9722C25.0473 30.1816 25.0893 28.3924 25.084 26.5979C25.0643 23.1086 25.0289 19.6154 25 16.1235C25 15.316 25.2915 14.9018 26.0386 14.5689C28.3089 13.5596 30.5214 12.4585 32.6038 11.0652C34.0372 10.0781 35.4174 9.01625 36.7386 7.88389C37.7365 7.05416 38.6557 6.12613 39.5853 5.21251C39.8663 4.93594 39.9529 4.91496 40.2563 5.23479C41.9632 7.03843 43.7831 8.72279 45.8314 10.1437C48.3971 11.9224 51.1453 13.3748 53.9723 14.6737C54.575 14.9503 54.6958 15.4419 54.6984 16.0147C54.6984 17.3897 54.6984 18.7673 54.6984 20.141C54.6984 23.8964 54.6787 27.6518 54.7076 31.4059C54.7446 32.92 54.3336 34.4114 53.5259 35.6935C53.2974 35.4746 53.3946 35.2229 53.3946 35.004C53.3867 31.533 53.3775 28.0568 53.3946 24.5911C53.3946 24.0668 53.3 23.8663 52.7262 23.8899C51.6233 23.9344 51.622 23.899 51.622 24.9817C51.622 28.9324 51.5524 32.8871 51.6627 36.8352C51.6968 38.066 51.0784 38.6191 50.1776 39.2903V38.4959C50.1776 34.5229 50.1671 30.5486 50.1908 26.5757C50.1908 26.0409 50.0594 25.8036 49.5106 25.8967C49.3801 25.9171 49.2472 25.9171 49.1167 25.8967C48.6112 25.8193 48.4602 26.0028 48.4602 26.5311C48.4825 31.0061 48.468 35.4824 48.4812 39.9574C48.4812 40.4883 48.4733 40.9248 47.8417 41.1162C47.5791 41.1974 47.3638 41.4622 47.1104 41.6562C46.9699 41.3796 47.0329 41.1398 47.0329 40.9117C47.0329 36.6333 47.0211 32.3536 47.0408 28.0752C47.0408 27.5509 46.9515 27.3477 46.375 27.37C45.2695 27.4133 45.2681 27.3779 45.2681 28.4907V42.0468C45.2769 42.3652 45.1709 42.6762 44.9695 42.9232C44.7681 43.1703 44.4845 43.337 44.1704 43.393C43.9551 43.4402 43.8921 43.372 43.896 43.1754C43.896 43.0221 43.896 42.87 43.896 42.7166C43.896 37.3686 43.8842 32.0193 43.9118 26.6713C43.9118 26.0409 43.7647 25.7813 43.1239 25.8967C43.0158 25.9157 42.9052 25.9157 42.797 25.8967C42.2271 25.8036 42.1037 26.0749 42.1208 26.5966C42.1562 27.7082 42.1313 28.825 42.1313 29.9365V43.7561C42.1313 44.38 41.4511 45.0328 40.8524 44.9987C40.6935 44.9909 40.6817 44.8925 40.6751 44.7864C40.6659 44.612 40.6751 44.4364 40.6751 44.2621C40.6751 38.1276 40.6672 31.9931 40.6883 25.8587C40.6883 25.2374 40.595 24.9568 39.882 25.0093C38.917 25.0801 38.913 25.025 38.913 25.9911V44.9319H38.9065Z" fill="black"></path></svg>