<svg xmlns="http://www.w3.org/2000/svg" width="724" height="167" viewBox="0 0 724 167" fill="none"><path d="M130.045 138.293C129.794 138.709 116.145 166.917 73.0197 166.917C54.5135 166.917 0 158.097 0 83.4584C0 16.1425 47.3958 0 66.4881 0C51.5827 7.48879 42.8739 18.6387 42.8739 63.1554V88.4509C42.8739 94.9412 43.2926 102.68 44.3812 110.834C46.056 125.063 54.0949 144.95 70.9262 150.774C105.678 163.422 129.627 138.709 130.045 138.293ZM127.701 59.2446V63.8211C127.701 63.8211 119.662 25.5451 88.0925 2.32984C88.0925 2.32984 122.006 19.7205 127.282 0L127.701 59.2446Z" fill="url(#paint0_linear_1501_2678)"></path><path d="M151.064 167L154.665 164.504V2.57951L151.064 0.083252H195.864L192.515 2.41309V167H151.064V167ZM215.292 167H266.204V116.159C262.687 153.603 225.843 165.502 215.292 167Z" fill="url(#paint1_linear_1501_2678)"></path><path d="M344.079 0.083252C339.641 2.99556 321.386 9.73546 320.046 48.594C320.046 48.594 319.376 67.3991 319.376 83.5416C319.376 100.1 320.046 117.657 320.046 117.657C321.302 157.597 337.548 162.59 343.828 167C329.509 167 276.67 155.517 276.67 83.5416C276.754 10.3179 329.592 0.083252 344.079 0.083252ZM359.906 0.083252C364.93 3.4116 382.599 9.73546 383.938 48.594C383.938 48.594 384.608 67.3991 384.608 83.5416C384.608 100.1 383.938 117.657 383.938 117.657C382.431 157.597 366.437 162.59 360.157 167C374.476 167 427.315 155.517 427.315 83.5416C427.231 10.3179 374.392 0.083252 359.906 0.083252Z" fill="url(#paint2_linear_1501_2678)"></path><path d="M489.952 167H448.25L451.851 164.504V2.57951L448.25 0.083252H489.952V167ZM587.004 83.5416C587.004 155.517 530.565 167 516.245 167C522.526 162.59 541.534 157.597 542.79 117.657C542.79 117.657 543.628 100.1 543.628 83.5416C543.628 67.3991 542.79 48.594 542.79 48.594C541.702 9.65225 520.935 3.66123 516.245 0.083252C530.816 0.083252 587.004 10.3179 587.004 83.5416Z" fill="url(#paint3_linear_1501_2678)"></path><path d="M649.725 167H608.023L611.373 164.504V2.57951L608.023 0.083252H649.725V167ZM662.118 81.2118C684.644 77.0514 689.919 55.6667 689.919 55.6667V107.173C689.668 105.509 684.644 85.2058 662.118 81.2118ZM666.556 0.083252H717.302V48.8436C715.543 38.5257 706.751 3.4116 666.556 0.083252ZM724.001 115.078V166.917H666.556C678.28 165.253 719.981 156.266 724.001 115.078Z" fill="url(#paint4_linear_1501_2678)"></path><defs><linearGradient id="paint0_linear_1501_2678" x1="-0.0233629" y1="83.5091" x2="130.052" y2="83.5091" gradientUnits="userSpaceOnUse"><stop stop-color="#BD955D"></stop><stop offset="0.2784" stop-color="#966F40"></stop><stop offset="0.4275" stop-color="#C99B61"></stop><stop offset="0.5589" stop-color="#F0BD7A"></stop><stop offset="0.6275" stop-color="#FFCA84"></stop><stop offset="0.7079" stop-color="#EDBB79"></stop><stop offset="0.8674" stop-color="#C0945B"></stop><stop offset="1" stop-color="#966F40"></stop></linearGradient><linearGradient id="paint1_linear_1501_2678" x1="151.093" y1="83.5092" x2="266.224" y2="83.5092" gradientUnits="userSpaceOnUse"><stop stop-color="#BD955D"></stop><stop offset="0.2784" stop-color="#966F40"></stop><stop offset="0.4275" stop-color="#C99B61"></stop><stop offset="0.5589" stop-color="#F0BD7A"></stop><stop offset="0.6275" stop-color="#FFCA84"></stop><stop offset="0.7079" stop-color="#EDBB79"></stop><stop offset="0.8674" stop-color="#C0945B"></stop><stop offset="1" stop-color="#966F40"></stop></linearGradient><linearGradient id="paint2_linear_1501_2678" x1="276.743" y1="83.5092" x2="427.233" y2="83.5092" gradientUnits="userSpaceOnUse"><stop stop-color="#BD955D"></stop><stop offset="0.2784" stop-color="#966F40"></stop><stop offset="0.4275" stop-color="#C99B61"></stop><stop offset="0.5589" stop-color="#F0BD7A"></stop><stop offset="0.6275" stop-color="#FFCA84"></stop><stop offset="0.7079" stop-color="#EDBB79"></stop><stop offset="0.8674" stop-color="#C0945B"></stop><stop offset="1" stop-color="#966F40"></stop></linearGradient><linearGradient id="paint3_linear_1501_2678" x1="448.275" y1="83.5092" x2="586.979" y2="83.5092" gradientUnits="userSpaceOnUse"><stop stop-color="#BD955D"></stop><stop offset="0.2784" stop-color="#966F40"></stop><stop offset="0.4275" stop-color="#C99B61"></stop><stop offset="0.5589" stop-color="#F0BD7A"></stop><stop offset="0.6275" stop-color="#FFCA84"></stop><stop offset="0.7079" stop-color="#EDBB79"></stop><stop offset="0.8674" stop-color="#C0945B"></stop><stop offset="1" stop-color="#966F40"></stop></linearGradient><linearGradient id="paint4_linear_1501_2678" x1="608.02" y1="83.5092" x2="723.993" y2="83.5092" gradientUnits="userSpaceOnUse"><stop stop-color="#BD955D"></stop><stop offset="0.2784" stop-color="#966F40"></stop><stop offset="0.4275" stop-color="#C99B61"></stop><stop offset="0.5589" stop-color="#F0BD7A"></stop><stop offset="0.6275" stop-color="#FFCA84"></stop><stop offset="0.7079" stop-color="#EDBB79"></stop><stop offset="0.8674" stop-color="#C0945B"></stop><stop offset="1" stop-color="#966F40"></stop></linearGradient></defs></svg>