<svg xmlns="http://www.w3.org/2000/svg" width="80" height="50" viewBox="0 0 80 50" fill="none"><path fill-rule="evenodd" clip-rule="evenodd" d="M52.1495 5.00001C54.3172 5.00001 56.2798 5.87863 57.7004 7.29858C59.1211 8.71853 60 10.6807 60 12.8474V36.924C60 39.091 59.1213 41.0529 57.7006 42.4731C56.9724 43.2029 56.1072 43.7816 55.1545 44.176C54.2018 44.5705 53.1806 44.7728 52.1495 44.7714H27.8505C25.6828 44.7714 23.7202 43.8928 22.2996 42.4728C20.8789 41.0529 20 39.0908 20 36.924V12.8474C20 10.6804 20.8787 8.71853 22.2994 7.29836C23.0276 6.56857 23.8928 5.98982 24.8455 5.59539C25.7982 5.20096 26.8194 4.99863 27.8505 5.00001H52.1495Z" fill="black"></path><path fill-rule="evenodd" clip-rule="evenodd" d="M47.288 13.5952H42.5182C42.1684 12.5058 41.1511 11.7664 40.0018 11.7664C38.8526 11.7664 37.8352 12.5058 37.4855 13.5952H32.7122C30.8329 13.5952 29.3095 15.111 29.3095 16.981V34.6214C29.3095 36.4914 30.8329 38.0073 32.7122 38.0073H47.288C49.1673 38.0073 50.6907 36.4914 50.6907 34.6214V16.981C50.6907 15.111 49.1673 13.5952 47.288 13.5952ZM37.7234 14.2107C37.7952 14.2125 37.8654 14.1892 37.9218 14.1448C37.9783 14.1004 38.0175 14.0377 38.0327 13.9675C38.2352 13.0427 39.058 12.383 40.0094 12.383C40.9607 12.383 41.7835 13.0425 41.9861 13.9675C42.0012 14.0377 42.0404 14.1004 42.0969 14.1448C42.1533 14.1892 42.2235 14.2125 42.2953 14.2107H43.9595V16.2269C43.9595 16.7369 43.544 17.1504 43.0315 17.1504H36.984C36.4715 17.1504 36.056 16.7369 36.056 16.2269V14.2107H37.7234ZM50.072 34.6214C50.072 36.1515 48.8256 37.3917 47.288 37.3917H32.7122C31.1746 37.3917 29.9282 36.1515 29.9282 34.6214V16.981C29.9282 15.4509 31.1746 14.2107 32.7122 14.2107H35.4375V16.2269C35.4375 17.077 36.13 17.7659 36.9842 17.7659H43.0162C43.8704 17.7659 44.563 17.0768 44.563 16.2269V14.2107H47.2882C48.8258 14.2107 50.0722 15.4509 50.0722 16.981L50.072 34.6214ZM46.6816 23.6544H41.2372C41.1967 23.6543 41.1566 23.6622 41.1191 23.6776C41.0816 23.693 41.0476 23.7157 41.0189 23.7443C40.9901 23.7728 40.9673 23.8068 40.9517 23.8442C40.9362 23.8816 40.9281 23.9217 40.928 23.9622C40.9281 24.0028 40.9362 24.0429 40.9517 24.0803C40.9673 24.1177 40.9901 24.1516 41.0189 24.1802C41.0476 24.2088 41.0816 24.2315 41.1191 24.2469C41.1566 24.2623 41.1967 24.2702 41.2372 24.2701H46.6816C46.7221 24.2702 46.7623 24.2623 46.7997 24.2469C46.8372 24.2315 46.8713 24.2088 46.9 24.1802C46.9287 24.1516 46.9515 24.1177 46.9671 24.0803C46.9827 24.0429 46.9908 24.0028 46.9908 23.9622C46.9908 23.9217 46.9827 23.8816 46.9671 23.8442C46.9515 23.8068 46.9287 23.7728 46.9 23.7443C46.8713 23.7157 46.8372 23.693 46.7997 23.6776C46.7623 23.6622 46.7221 23.6543 46.6816 23.6544ZM38.6391 23.6544H33.1947C33.1542 23.6543 33.1141 23.6622 33.0766 23.6776C33.0391 23.693 33.0051 23.7157 32.9763 23.7443C32.9476 23.7728 32.9248 23.8068 32.9092 23.8442C32.8936 23.8816 32.8856 23.9217 32.8855 23.9622C32.8856 24.0028 32.8936 24.0429 32.9092 24.0803C32.9248 24.1177 32.9476 24.1516 32.9763 24.1802C33.0051 24.2088 33.0391 24.2315 33.0766 24.2469C33.1141 24.2623 33.1542 24.2702 33.1947 24.2701H38.6391C38.6796 24.2702 38.7197 24.2623 38.7572 24.2469C38.7947 24.2315 38.8288 24.2088 38.8575 24.1802C38.8862 24.1516 38.909 24.1177 38.9246 24.0803C38.9402 24.0429 38.9482 24.0028 38.9483 23.9622C38.9482 23.9217 38.9402 23.8816 38.9246 23.8442C38.909 23.8068 38.8862 23.7728 38.8575 23.7443C38.8288 23.7157 38.7947 23.693 38.7572 23.6776C38.7197 23.6622 38.6796 23.6543 38.6391 23.6544ZM46.6971 31.1033H41.2375C41.197 31.1032 41.1568 31.1111 41.1193 31.1265C41.0819 31.1419 41.0478 31.1646 41.0191 31.1932C40.9904 31.2218 40.9676 31.2557 40.952 31.2931C40.9364 31.3305 40.9283 31.3706 40.9282 31.4112C40.9283 31.4517 40.9364 31.4918 40.952 31.5292C40.9676 31.5666 40.9904 31.6006 41.0191 31.6291C41.0478 31.6577 41.0819 31.6804 41.1193 31.6958C41.1568 31.7112 41.197 31.7191 41.2375 31.719H46.6971C46.7377 31.7191 46.7778 31.7112 46.8153 31.6958C46.8527 31.6804 46.8868 31.6577 46.9155 31.6291C46.9442 31.6006 46.967 31.5666 46.9826 31.5292C46.9982 31.4918 47.0063 31.4517 47.0064 31.4112C47.0063 31.3706 46.9982 31.3305 46.9826 31.2931C46.967 31.2557 46.9442 31.2218 46.9155 31.1932C46.8868 31.1646 46.8527 31.1419 46.8153 31.1265C46.7778 31.1111 46.7377 31.1032 46.6971 31.1033ZM38.6544 31.1033H33.1947C33.1542 31.1032 33.1141 31.1111 33.0766 31.1265C33.0391 31.1419 33.0051 31.1646 32.9763 31.1932C32.9476 31.2218 32.9248 31.2557 32.9092 31.2931C32.8936 31.3305 32.8856 31.3706 32.8855 31.4112C32.8856 31.4517 32.8936 31.4918 32.9092 31.5292C32.9248 31.5666 32.9476 31.6006 32.9763 31.6291C33.0051 31.6577 33.0391 31.6804 33.0766 31.6958C33.1141 31.7112 33.1542 31.7191 33.1947 31.719H38.6544C38.6949 31.7191 38.7351 31.7112 38.7725 31.6958C38.81 31.6804 38.8441 31.6577 38.8728 31.6291C38.9015 31.6006 38.9243 31.5666 38.9399 31.5292C38.9555 31.4918 38.9636 31.4517 38.9637 31.4112C38.9636 31.3706 38.9555 31.3305 38.9399 31.2931C38.9243 31.2557 38.9015 31.2218 38.8728 31.1932C38.8441 31.1646 38.81 31.1419 38.7725 31.1265C38.7351 31.1111 38.6949 31.1032 38.6544 31.1033Z" fill="white"></path></svg>