<svg xmlns="http://www.w3.org/2000/svg" width="80" height="50" viewBox="0 0 80 50" fill="none"><path fill-rule="evenodd" clip-rule="evenodd" d="M39.6842 5H40.4802L40.7407 5.01447L40.7425 5.01457L41.2762 5.04266L41.5214 5.0699L41.7785 5.08343L42.0717 5.1143L42.3169 5.15517L42.5758 5.18242L43.0973 5.26933L43.3561 5.32383L43.6047 5.36526L43.8816 5.4268L44.1268 5.49492L44.3721 5.54941L45.1382 5.76223L45.6486 5.93234L46.126 6.10085L46.3712 6.19622L46.6085 6.27997L46.8686 6.38708L47.1003 6.49607L47.3386 6.59422L47.5701 6.70995L47.8017 6.81895L48.0326 6.9344L48.2774 7.064L48.9457 7.4399L49.1622 7.5698L49.3925 7.71377L49.9813 8.10632L50.4039 8.3176L50.649 8.43295L51.1119 8.6933L51.3162 8.81591L51.5391 8.94127L51.7767 9.08979L51.9811 9.22603L52.1991 9.36227L52.4223 9.51112L53.0547 9.97485L53.2454 10.1247L53.4603 10.2823L54.0595 10.7959L54.2502 10.9729L54.4496 11.1438L55.0056 11.6999L55.3688 12.091L55.5322 12.2681L55.7235 12.474L55.8946 12.6879L56.0665 12.8884L56.2163 13.0928L56.3798 13.2835L56.6988 13.7185L56.8565 13.9478L56.9902 14.1486L56.9951 14.1558L57.1426 14.3702L57.2862 14.5857L57.4348 14.8233L57.5682 15.0605L57.6841 15.2795L57.8162 15.4909L57.9567 15.7406L58.069 15.9793L58.1882 16.2045L58.3037 16.4353L58.4222 16.6872L58.5201 16.925L58.6291 17.1702L58.8311 17.6608L58.9178 17.921L58.9995 18.1525L59.163 18.643L59.25 18.8893L59.4642 19.6606L59.6319 20.4153L59.6898 20.6902L59.8146 21.4387L59.815 21.4413L59.8154 21.4439L59.8585 21.7167L59.9165 22.2388L59.9301 22.4977L59.9572 22.742L59.9719 23.0059L59.9854 23.263L59.9855 23.2648L60 23.5252V24.3086L59.9855 24.569L59.9854 24.5708L59.9718 24.8297L59.9436 25.337L59.9413 25.3575L59.9573 25.5095L59.9864 26.032V26.2773L60 26.5225V27.0606L59.9864 27.3058V27.5647L59.9709 27.8438L59.9437 28.0882L59.9301 28.347L59.874 28.8516L59.8736 28.8552L59.8448 29.1289L59.7609 29.6324L59.7601 29.6376L59.7171 29.9101L59.662 30.1579L59.6211 30.4031L59.5596 30.68L59.4915 30.9253L59.437 31.1704L59.2241 31.9366L59.1358 32.2017L59.0541 32.4332L58.9673 32.6935L58.872 32.9251L58.7902 33.1703L58.5882 33.6609L58.4731 33.9199L58.3582 34.1641L58.2492 34.3821L58.0248 34.8588L57.8951 35.0894L57.7725 35.321L57.6391 35.5582L57.5029 35.7762L57.3803 35.9941L57.2294 36.2355L57.0769 36.4572L56.9382 36.6652L56.7806 36.8945L56.3194 37.5234L56.1616 37.7242L55.99 37.9388L55.6483 38.3374L55.4712 38.5281L55.3077 38.7189L55.1146 38.9269L54.5672 39.4742L54.3592 39.6674L54.1685 39.8308L53.9777 40.008L53.5771 40.3514L53.3803 40.506L53.3761 40.5093L53.1738 40.6712L52.9729 40.829L52.545 41.1428L52.3217 41.2917L52.1037 41.4279L51.8993 41.5642L51.6814 41.7004L51.4652 41.8445L50.778 42.231L50.56 42.34L50.3357 42.4662L50.0763 42.5883L49.9794 42.6307L49.5151 42.9402L49.2972 43.0764L49.081 43.2205L48.1758 43.7297L47.938 43.8486L47.7064 43.9576L47.4884 44.0666L47.2365 44.1851L47.0048 44.2805L46.759 44.3962L46.5132 44.483L46.2905 44.5747L46.0306 44.6757L45.7848 44.7625L45.5395 44.8442L45.2933 44.9312L44.2767 45.2135L43.522 45.3812L43.2471 45.4391L42.7438 45.523L42.7413 45.5234L42.7387 45.5238L42.4659 45.5669L42.2049 45.5959L41.689 45.6502L41.6854 45.6506L41.426 45.6794L41.1512 45.6939L41.1494 45.694L40.9059 45.7075L40.9042 45.7076L40.3704 45.7357H39.5752L39.2984 45.7211L39.055 45.7076L38.5195 45.6794L38.2601 45.6506L38.2565 45.6502L37.9995 45.6232L37.7385 45.5942L37.4631 45.5507L37.2205 45.5102L37.2153 45.5094L36.959 45.4689L36.695 45.4249L36.4405 45.3683L36.4338 45.3669L36.1783 45.3131L35.6688 45.1999L34.8975 44.9857L34.6659 44.9039L34.4206 44.8358L34.1601 44.7438L33.9149 44.6485L33.6776 44.5647L33.4369 44.4656L33.1855 44.3679L32.9482 44.264L32.7227 44.1579L32.491 44.0625L32.2256 43.9376L32.0013 43.8114L31.7903 43.7059L31.5455 43.5763L31.3132 43.4457L31.1088 43.323L30.886 43.1977L30.6484 43.0492L30.0288 42.6362L29.855 42.5543L29.3991 42.3264L28.5018 41.8217L28.2642 41.6732L28.0597 41.5369L27.8418 41.4007L27.6185 41.2518L27.4142 41.1019L27.2098 40.9657L26.9756 40.794L26.7849 40.6305L26.5805 40.4806L25.7907 39.8036L25.5827 39.6105L25.4056 39.4334L25.2148 39.2563L24.8359 38.8774L24.6651 38.678L24.488 38.4873L23.9828 37.8979L23.8111 37.6833L23.663 37.4947L23.6596 37.4905L23.4914 37.2803L23.3284 37.058L23.1708 36.8287L23.0271 36.6132L22.8982 36.4069L22.7483 36.2025L22.5925 35.9532L22.4699 35.7353L22.3295 35.5106L22.2002 35.2665L22.0706 35.0359L21.9616 34.8043L21.8389 34.5864L21.4961 33.8577L21.2973 33.375L21.2019 33.1297L21.1008 32.8842L21.0141 32.6241L20.9323 32.3924L20.7622 31.8821L20.5494 31.1159L20.4949 30.8707L20.4224 30.6097L20.3789 30.3486L20.2699 29.8581L20.2259 29.5941L20.1824 29.3188L20.1262 28.8125L20.0991 28.5554L20.0987 28.5519L20.0427 28.0473L20.0282 27.7724L20.0281 27.7706L20.0136 27.5102V27.2641L20 27.0052V26.4825L20.0136 26.2237V25.9775L20.0291 25.6984L20.0564 25.4532L20.0617 25.3576L20.0428 25.1871L20.0282 24.925L20.0281 24.9232L20.0136 24.6483V24.4039L20 24.1587V23.6206L20.0281 23.1149L20.0282 23.1131L20.0417 22.8561L20.0418 22.8543L20.0564 22.5922L20.0835 22.3478L20.098 22.0722L20.1418 21.8094L20.1688 21.5668L20.2123 21.2914L20.3375 20.5404L20.3953 20.2654L20.454 20.0012L20.5222 19.756L20.5767 19.5108L20.7228 18.9847L20.8045 18.7531L20.8712 18.513L20.9596 18.2479L21.0464 18.0021L21.1474 17.7422L21.2428 17.5106L21.3382 17.2653L21.5369 16.7826L21.7675 16.2927L21.8935 16.0546L22.0025 15.8366L22.1321 15.5918L22.3881 15.1367L22.5244 14.9187L22.647 14.7007L22.7978 14.4594L22.9528 14.2339L23.089 14.0296L23.2467 13.8003L23.7156 13.1609L23.8874 12.9604L24.0509 12.756L24.5561 12.1667L24.7492 11.9587L24.9263 11.7816L25.1034 11.5909L25.4823 11.212L25.6731 11.0485L25.8502 10.8714L26.2574 10.5223L26.4618 10.3588L26.6623 10.1869L26.8772 10.0293L27.0679 9.87948L27.4959 9.56562L27.7192 9.41677L27.9372 9.28053L28.1415 9.14429L28.3595 9.00805L28.5757 8.86395L29.2629 8.4774L29.5007 8.35846L29.7324 8.24947L30.0187 8.10632L30.5257 7.76827L30.7437 7.63202L30.9599 7.48792L31.6471 7.10138L31.872 6.9889L32.1036 6.86628L32.3345 6.75083L32.5864 6.63231L32.8113 6.53972L33.0292 6.43073L33.2871 6.32453L33.5324 6.22916L33.7729 6.13011L34.0245 6.04134L34.2697 5.9596L34.5013 5.87785L34.7664 5.78948L35.7778 5.50854L36.5452 5.33801L36.7938 5.29658L37.0526 5.24208L37.3289 5.19604L37.5877 5.16879L37.833 5.12792L38.1067 5.09912L38.1102 5.09874L38.3696 5.0699L38.6302 5.05619L38.8882 5.02903L39.1655 5.01362H39.4253L39.6842 5ZM25.0151 13.5152L24.9954 13.5382L24.8319 13.7426L24.6768 13.9236L24.2465 14.5103L24.1044 14.717L23.9682 14.9214L23.8234 15.1319L23.7018 15.3265L23.5792 15.5445L23.4429 15.7625L23.2085 16.1793L23.0928 16.3977L22.9839 16.6157L22.8647 16.8409L22.6592 17.2774L22.4766 17.721L22.3812 17.9663L22.2858 18.1979L22.2329 18.3339L22.2366 18.3278L22.3456 18.137L22.4764 17.919L22.5991 17.7282L22.7217 17.5239L22.8575 17.3125L23.0088 17.1008L23.145 16.9236L23.2813 16.7329L23.7053 16.1816L23.8208 16.0452L23.897 15.8548L23.9787 15.6368L24.0693 15.4103L24.1688 15.1971L24.2642 14.9791L24.5603 14.3445L24.9023 13.7033L25.0151 13.5152ZM22.9713 19.5427L22.9698 19.5457L22.8608 19.75L22.7591 19.9534L22.6704 20.1435L22.3963 20.7702L22.3145 21.0018L22.2168 21.2252L22.1486 21.4069L22.0822 21.6328L22.0005 21.8644L21.7373 22.759L21.6876 22.9705L21.6331 23.2157L21.5786 23.4474L21.5278 23.6757L21.4903 23.8883L21.4893 23.894L21.3704 24.6075L21.2924 25.3098L21.2916 25.3236L21.2924 25.3306L21.306 25.5758L21.3568 26.0329L21.4348 26.5011L21.4358 26.5068L21.4762 26.7356L21.5551 27.209L21.6058 27.4246L21.6603 27.6698L21.7101 27.8813L22.0413 29.0075L22.1157 29.2181L22.1974 29.4361L22.2737 29.6522L22.3666 29.8647L22.4484 30.0827L22.7216 30.7072L22.82 30.9039L22.9696 31.1846L22.9589 31.0134L22.9317 30.809L22.9181 30.591L22.8883 30.3677V30.1294L22.861 29.7207V29.0532L22.8747 28.8488V28.6444L22.9034 28.2139L22.9184 28.003L22.9457 27.7986L22.9593 27.6079L22.9894 27.3821L23.0163 27.1942L23.0171 27.1885L23.0467 26.9659L23.0882 26.7724L23.1154 26.5817L23.2026 26.1747L23.2481 25.9776L23.3026 25.7868L23.3435 25.6097L23.404 25.3978L23.4109 25.3755L23.3707 25.235L23.3299 25.0579L23.2754 24.8671L23.2299 24.67L23.1018 24.0723L23.0746 23.8815L23.0331 23.688L23.0034 23.4655L23.0027 23.4598L22.9731 23.2533L22.9593 23.0597L22.9319 22.8539L22.9171 22.6322L22.9169 22.6293L22.9034 22.4401L22.861 21.8052V20.9333L22.8895 20.5067L22.8896 20.5042L22.9032 20.2875L22.9181 20.0642L22.9453 19.8462L22.9589 19.6418L22.9713 19.5427ZM24.2118 27.4953L24.2044 27.547L24.2036 27.5526L24.1797 27.7327L24.166 27.9234L24.1388 28.1278L24.1267 28.2969L24.1265 28.2998L24.1008 28.6853V28.8896L24.0872 29.094V29.6799L24.1144 30.0886V30.2863L24.1392 30.4716L24.1528 30.6896L24.18 30.894L24.1924 31.0921L24.2295 31.2778L24.2589 31.513L24.2596 31.518L24.284 31.7013L24.3585 32.0987L24.413 32.303L24.4548 32.5257L24.5037 32.7213L24.5582 32.9257L24.6626 33.3435L24.7251 33.531L24.856 33.9497L24.9128 34.0917L25.4566 34.6849L26.0644 35.2928L26.2074 35.4238L26.3709 35.5601L26.5344 35.7099L26.6776 35.8293L26.8547 35.9655L27.0063 36.0919L27.1835 36.2145L27.347 36.3508L27.5111 36.4644L27.6614 36.5771L27.8286 36.68L28.0057 36.8026L28.5079 37.1116L28.685 37.207L28.8542 37.3111L29.0291 37.3986L29.1977 37.4894L29.3664 37.5673L29.5572 37.6626L29.895 37.8185L30.0858 37.9003L30.2457 37.9741L30.2665 37.9816L30.2393 37.9427L29.9532 37.4931L29.846 37.3399L29.676 37.0283L29.5748 36.8692L29.4974 36.7145L29.3285 36.4048L29.1877 36.0951L29.1196 35.9589L29.0369 35.7769L28.9824 35.6271L28.9183 35.4861L28.855 35.3277L28.746 35.0279L28.6821 34.8682L28.6412 34.7183L28.5867 34.5821L28.5386 34.4058L28.4978 34.2696L28.4569 34.1197L28.4084 33.9581L28.3811 33.8082L28.3418 33.6771L28.2534 33.2349L28.2261 33.085L28.1947 32.9279L28.1811 32.8053L28.1532 32.6658L28.1233 32.3668L28.1096 32.2442L28.1092 32.24L27.6679 31.909L27.555 31.8122L27.4611 31.73L27.3521 31.6483L27.2103 31.5242L27.115 31.4289L26.8816 31.2247L26.7862 31.1157L26.6926 31.0338L26.5548 30.8959L26.4594 30.7869L26.3504 30.6779L26.2448 30.5572L26.2416 30.5536L26.1342 30.4328L26.0256 30.3086L25.9317 30.1879L25.8227 30.0653L25.5148 29.6694L25.4194 29.5332L25.324 29.4105L25.2075 29.244L25.1257 29.1078L25.0303 28.9715L24.9417 28.8237L24.8395 28.6632L24.7539 28.5063L24.6722 28.37L24.5943 28.2272L24.4869 28.0585L24.4057 27.8798L24.3339 27.7363L24.2421 27.5679L24.2118 27.4953ZM29.474 33.0859L29.5328 33.3801L29.5753 33.5215L29.6025 33.6714L29.6358 33.7822L29.6766 33.932L29.7175 34.0683L29.7512 34.1918L29.8057 34.328L29.8466 34.4779L29.8916 34.5906L30.0006 34.8903L30.0463 35.0044L30.1184 35.1631L30.1729 35.313L30.2265 35.4308L30.2946 35.567L30.4263 35.8568L30.5843 36.1466L30.6432 36.2643L30.7327 36.4049L30.8897 36.6928L30.9732 36.8121L31.2593 37.2616L31.3438 37.3823L31.4528 37.5322L31.5481 37.6684L31.6456 37.8024L31.7436 37.925L31.8663 38.0749L31.9662 38.1998L32.3509 38.6273L32.531 38.6658L32.6906 38.7027L33.0192 38.7532L33.2099 38.7805L33.5444 38.8319L33.7215 38.8456L33.8986 38.8728L34.0544 38.8848L34.1944 38.8965H34.3696L34.5467 38.9101H34.7258L34.8893 38.9237H35.1789L35.3423 38.9101H35.5078L35.6575 38.8986L35.6614 38.8983L35.8464 38.8828H35.9711L36.1093 38.8598L36.4318 38.8329L36.5816 38.8057L36.7451 38.7921L37.2893 38.6931L37.4392 38.6522L37.5891 38.625L37.7337 38.5855L37.8624 38.5598L37.9784 38.525L38.1282 38.4841L38.5034 38.3716L38.5741 38.3433L38.5654 38.3371L38.47 38.2826L38.3746 38.2145L38.2793 38.16L38.1401 38.0605L38.0822 38.0123L37.9868 37.9578L37.8234 37.8216L37.728 37.7671L37.5278 37.6003L37.4596 37.5457L37.2962 37.4095L37.2063 37.3376L37.1338 37.2652L37.0782 37.2188L36.9883 37.1469L36.9202 37.0788L36.8521 37.0243L36.7359 36.9081L36.7028 36.8667L36.6613 36.8336L36.4362 36.6084L36.4031 36.567L36.3616 36.5338L36.2046 36.3768L36.1229 36.2747L36.1024 36.2474L35.939 36.0839L35.8981 36.0294L35.8027 35.934L35.7618 35.8795L35.7073 35.8251L35.6665 35.7706L35.6256 35.7297L35.5847 35.6752L35.5439 35.6343L35.503 35.5798L35.4212 35.4981L35.3804 35.4436L35.2048 35.268L35.1955 35.2541L35.1816 35.2448L34.9636 35.0269L34.9228 34.9996L34.8547 34.9315L34.7729 34.877L34.7457 34.8497L34.7282 34.8381L34.7146 34.8336L34.6329 34.7791L34.592 34.7655L34.5103 34.711L34.4694 34.6973L34.4285 34.6701L34.3468 34.6429L34.3059 34.6156L34.2198 34.5869L34.1729 34.5635L34.1336 34.5536L34.0928 34.54L34.0383 34.5264L33.9974 34.5128L33.8884 34.4855L33.8475 34.4719L33.6166 34.4142H33.5485L33.4349 34.3858L33.3668 34.3722L33.3123 34.3585L33.2442 34.3449L33.1897 34.3313L32.672 34.2277L32.6131 34.2042L32.587 34.1998L32.5189 34.1862L32.3815 34.1633L32.3134 34.1361L32.1499 34.1088L32.0818 34.0816L32.018 34.0709L31.8613 34.0187L31.7659 34.0051L31.4809 33.9101L31.3855 33.8828L31.3038 33.8556L31.0711 33.7891L30.9893 33.7482L30.9114 33.726L30.816 33.6851L30.7206 33.6578L30.1257 33.4029L29.9838 33.3497L29.8761 33.2881L29.7964 33.254L29.6561 33.1838L29.5607 33.1293L29.474 33.0859ZM39.5706 39.2816L39.4619 39.3252L39.3143 39.3908L39.1497 39.4401L39.0529 39.4724L38.9081 39.5303L38.4658 39.663L38.3159 39.7039L38.1594 39.7508L38.0156 39.7796L37.8605 39.8219L37.7107 39.8491L37.5608 39.89L36.9061 40.009L36.7426 40.0227L36.5927 40.0499L36.2613 40.0775L36.0725 40.109H35.8974L35.7574 40.1207L35.5549 40.1362H35.3933L35.2299 40.1499H34.8383L34.6748 40.1362H34.4996L34.3225 40.1226H34.1434L33.9584 40.1072L33.9554 40.107L34.0839 40.2121L34.2234 40.3168L34.3869 40.4258L34.5504 40.5484L34.6905 40.6418L34.8676 40.7507L35.0311 40.8597L35.5379 41.1716L35.6912 41.2542L35.8819 41.3495L36.059 41.4449L36.6069 41.7188L36.79 41.7973L36.9944 41.8927L37.1527 41.9605L37.357 42.0286L37.5643 42.1175L37.745 42.1897L38.1311 42.3185L38.3492 42.3866L38.5367 42.4491L38.7364 42.499L38.9408 42.5535L39.5724 42.7114L40.0159 42.7946L40.1688 42.7659L40.3868 42.7114L40.6048 42.6705L40.8003 42.6217L41.0047 42.5672L41.2101 42.5158L41.4235 42.4491L41.6223 42.3961L41.8143 42.3321L42.0324 42.2639L42.2141 42.2034L42.4124 42.1241L42.6031 42.0559L42.9943 41.8995L43.1616 41.8278L43.3523 41.7324L43.543 41.6507L43.9001 41.4721L44.0772 41.3768L44.2521 41.2893L44.4213 41.1852L44.5984 41.0899L45.1051 40.778L45.2452 40.6846L45.4176 40.5553L45.5837 40.4531L45.7249 40.3376L45.8992 40.2214L46.0387 40.1168L46.0622 40.0975L45.9482 40.107L45.5685 40.1362H45.3933L45.2299 40.1499H44.8383L44.6748 40.1362H44.4977L44.3342 40.1226H44.1707L43.816 40.0931L43.6411 40.0772L43.4799 40.0503L43.3119 40.0363L43.162 40.009L42.9985 39.9954L42.4937 39.9036L42.3438 39.8628L42.1863 39.8341L42.0501 39.7933L41.9002 39.766L41.7386 39.7175L41.5887 39.6766L41.0102 39.5031L40.8654 39.4451L40.7427 39.4043L40.6065 39.3498L40.4729 39.3052L40.2276 39.1962L40.105 39.1554L39.9962 39.107L39.9892 39.1104L39.7042 39.2371L39.5706 39.2816ZM41.4176 38.3452L41.9263 38.4978L42.0761 38.5386L42.187 38.5719L42.3368 38.5991L42.4731 38.64L42.6153 38.6659L42.7652 38.7067L43.1595 38.7784L43.323 38.7921L43.4729 38.8193L43.6318 38.8325L43.7976 38.8602L43.9201 38.8713L43.9247 38.8717L44.2217 38.8965H44.3852L44.5487 38.9101H44.7258L44.8893 38.9237H45.1789L45.3423 38.9101H45.5214L45.8483 38.885L45.8522 38.8846L46.0137 38.8712L46.3467 38.8456L46.5238 38.8183L46.7009 38.8047L46.8373 38.7837L47.028 38.7428L47.3775 38.6891L47.5371 38.6522L47.6446 38.6292L48.0065 38.2271L48.1065 38.1021L48.2291 37.9522L48.3272 37.8297L48.4362 37.6798L48.5333 37.5584L48.6286 37.4086L48.7376 37.2723L48.9178 36.9892L49.0013 36.8699L49.0766 36.7319L49.1719 36.582L49.2498 36.4392L49.3316 36.303L49.4784 36.0339L49.5465 35.884L49.6336 35.7242L49.6918 35.6079L49.8135 35.3402L49.8719 35.1797L49.94 35.0435L50.0402 34.7677L50.0947 34.6315L50.1373 34.5145L50.1807 34.3553L50.2352 34.219L50.2689 34.0955L50.3097 33.9593L50.3506 33.8094L50.3915 33.6732L50.4248 33.5512L50.4535 33.4073L50.4944 33.2711L50.5305 33.0905L50.4801 33.1157L50.3568 33.1862L50.2478 33.227L50.1647 33.2745L50.0537 33.3221L49.9447 33.3766L49.3202 33.6442L49.2249 33.6715L49.1295 33.7123L49.0341 33.7396L48.951 33.7752L48.8325 33.8147L48.6417 33.8692L48.4782 33.9237L48.3829 33.951L48.1864 34.0165L48.1046 34.0301L47.9412 34.0846L47.8594 34.0982L47.7777 34.1254L47.6582 34.1454L47.6372 34.1495L47.5555 34.1768L47.4402 34.1998L47.3585 34.2135L47.1509 34.255L47.0828 34.2822L46.8318 34.3324H46.7648L46.7149 34.3449L46.6468 34.3585L46.5923 34.3722L46.5242 34.3858L46.0707 34.4991L46.0299 34.5128L45.9209 34.54L45.88 34.5536L45.8255 34.5673L45.7759 34.5838L45.7486 34.602L45.6669 34.6292L45.626 34.6565L45.5442 34.6837L45.5034 34.711L45.4625 34.7246L45.3808 34.7791L45.3671 34.7836L45.2309 34.8745L45.2173 34.879L45.1998 34.8906L45.159 34.9315L45.1181 34.9587L45.0909 34.986L45.05 35.0132L44.6454 35.4178L44.6424 35.4224L44.5651 35.5253L44.388 35.7024L44.3063 35.8114L44.2109 35.9068L44.17 35.9613L44.1156 36.0158L44.0747 36.0703L44.0202 36.1248L43.9793 36.1793L43.7 36.4585L43.6455 36.5267L43.2978 36.8744L43.2563 36.9076L43.2019 36.9757L43.107 37.0515L42.9519 37.2067L42.8701 37.2612L42.8209 37.3104L42.7311 37.3823L42.6754 37.4287L42.5841 37.52L42.479 37.59L42.3156 37.7263L42.2338 37.7808L42.1597 37.8426L42.0377 37.9297L41.9559 37.9842L41.7652 38.1204L41.6834 38.1749L41.5709 38.2553L41.4591 38.3192L41.4176 38.3452ZM51.8767 32.3941L51.8468 32.693L51.8124 32.8651L51.7917 32.9584L51.7793 33.0828L51.7466 33.2621L51.6854 33.5682L51.6446 33.7044L51.6188 33.833L51.5704 34.0107L51.5295 34.147L51.4886 34.2968L51.4478 34.4331L51.3997 34.6093L51.3452 34.7455L51.3069 34.886L51.2404 35.0688L51.1859 35.205L51.0682 35.5288L51.0001 35.665L50.9495 35.8042L50.7987 36.136L50.7206 36.2921L50.6443 36.432L50.5762 36.5819L50.396 36.9123L50.3142 37.0485L50.2286 37.2055L50.1332 37.3553L50.045 37.517L49.9378 37.6702L49.7488 37.9672L49.8157 37.9363L50.0008 37.8652L50.173 37.7913L50.3339 37.7171L50.5246 37.6218L50.6933 37.5439L51.039 37.3577L51.2139 37.2703L51.3831 37.1661L51.5603 37.0708L51.8853 36.8707L52.0624 36.7481L52.2296 36.6452L52.3799 36.5325L52.7212 36.2962L52.8847 36.16L53.0618 36.0374L53.5201 35.6555L53.8471 35.3557L54.0003 35.228L54.3034 34.9249L54.4571 34.7841L54.8804 34.3222L55.0303 34.1451L55.0982 34.071L55.1304 33.9906L55.1931 33.7898L55.2613 33.5854L55.3223 33.39L55.3737 33.1845L55.4282 32.9801L55.5372 32.5442L55.587 32.3575L55.6651 31.9406L55.7053 31.7399L55.7067 31.7326L55.7428 31.5402L55.768 31.3384L55.7683 31.3359L55.7949 31.1365L55.7956 31.1315L55.8225 30.916L55.8228 30.9135L55.8472 30.7305L55.8596 30.5327L55.8597 30.5314L55.8731 30.3296L55.8733 30.3271L55.8868 30.1104L55.8869 30.1091L55.9128 29.7208V28.9305L55.8735 28.3407L55.8733 28.3378L55.8598 28.1485L55.8474 27.9629L55.8236 27.7843L55.8228 27.7786L55.7833 27.5019L55.7033 27.6618L55.6306 27.8217L55.5435 27.9815L55.4617 28.145L55.3687 28.3155L55.2763 28.4695L55.1809 28.6194L55.0992 28.7556L55.0038 28.9055L54.9152 29.0533L54.7244 29.3258L54.6347 29.4752L54.5261 29.6149L54.4192 29.7676L54.2999 29.9018L54.0153 30.2678L53.9067 30.3919L53.7993 30.5127L53.7961 30.5163L53.6905 30.6371L53.5815 30.746L53.4861 30.855L53.3482 30.9929L53.2546 31.0748L53.1593 31.1838L52.9259 31.388L52.8305 31.4834L52.5798 31.7028L52.4872 31.7722L52.3918 31.8676L52.0091 32.1546L51.9171 32.2121L51.8943 32.2316L51.8904 32.2714L51.8767 32.3941ZM51.9482 30.6261L51.9924 30.5875L52.0877 30.4921L52.2903 30.3148L52.3857 30.2059L52.5101 30.097L52.5902 30.0169L52.6856 29.9079L52.7946 29.7989L52.8781 29.7035L52.9855 29.5827L52.9886 29.5791L53.0692 29.487L53.3568 29.1173L53.4555 29.0062L53.5393 28.8865L53.6214 28.7809L53.6952 28.6579L53.8859 28.3854L53.9607 28.2608L54.0561 28.1109L54.1378 27.9747L54.2332 27.8248L54.3043 27.7063L54.3748 27.5771L54.4565 27.4136L54.5328 27.2737L54.5964 27.1338L54.6738 26.979L54.7461 26.8054L54.8279 26.6556L54.8804 26.5295L54.9485 26.3524L55.0848 26.0255L55.1423 25.8759L55.1927 25.7121L55.2539 25.5286L55.3097 25.3834L55.224 25.1051L55.1559 24.9279L55.1039 24.7589L54.9758 24.4514L54.9077 24.2743L54.787 23.9848L54.7053 23.8349L54.6329 23.6613L54.5655 23.5265L54.1681 22.7978L54.097 22.6793L54.0016 22.5294L53.9268 22.4048L53.6619 22.0263L53.5665 21.9037L53.4712 21.7675L53.0272 21.1967L52.9308 21.1003L52.8252 20.9795L52.822 20.9759L52.7146 20.8551L52.6445 20.7751L52.5356 20.6797L52.4267 20.5553L52.3466 20.4752L52.2376 20.3798L52.1422 20.2845L51.9482 20.1147V20.2289L51.9346 20.3379V20.4427L51.921 20.5653V20.6785L51.902 20.8307L51.8883 20.9261L51.8475 21.253L51.8202 21.4438L51.8014 21.5944L51.7727 21.6949L51.7454 21.8857L51.7182 21.981L51.7095 22.042L51.6889 22.165L51.6617 22.2604L51.6481 22.3421L51.6208 22.4375L51.605 22.5324L51.5505 22.6959L51.5369 22.7777L51.4793 22.9506L51.4656 23.0187L51.4111 23.1822L51.394 23.2681L51.3525 23.3717L51.343 23.4002L51.3258 23.486L51.2986 23.5542L51.285 23.6223L51.2273 23.7664L51.2254 23.7702L51.2168 23.813L51.1841 23.8948L51.1705 23.9493L51.1433 24.0174L51.1296 24.0719L51.1024 24.14L51.0689 24.2739L51.0417 24.3284L51.0144 24.4374L50.9872 24.4919L50.9297 24.7219L50.916 24.7628L50.9024 24.8173L50.8992 24.827V24.8951L50.8719 24.9769V25.0314L50.8583 25.0723V25.1267L50.8447 25.1676V25.263L50.8311 25.3039V25.3406H50.8188L50.8097 25.3678H50.8311V25.4695L50.8447 25.524V25.6057L50.8583 25.6602V25.6875L50.8856 25.7965V25.8269L50.8888 25.8366L50.9264 25.9872V26.0281L50.9395 26.0803L50.9736 26.1484L51.028 26.3664L51.0619 26.4341L51.0846 26.5477L51.1098 26.598L51.1296 26.6774L51.1569 26.7455L51.1705 26.8001L51.2032 26.8818L51.2163 26.9473L51.2663 27.0472L51.285 27.1406L51.3432 27.2862L51.3568 27.3679L51.3803 27.4267L51.3975 27.5126L51.407 27.5411L51.4522 27.654L51.4688 27.7537L51.4751 27.7727L51.5203 27.8856L51.5369 27.9853L51.5937 28.1556L51.6073 28.2509L51.6323 28.3259L51.6481 28.4208L51.6753 28.5162L51.6889 28.5979L51.7182 28.7002L51.7454 28.8909L51.7727 28.9863L51.8066 29.2238L51.815 29.2912L51.8423 29.3866L51.8611 29.5372L51.8747 29.6325L51.8937 29.7847V29.8937L51.9346 30.2207V30.3297L51.9482 30.4387V30.6261ZM50.7084 25.3678L50.6267 25.3406H49.6049V25.1049L49.6185 25.064V24.9686L49.6322 24.9278V24.8733L49.6458 24.8324V24.8155L49.673 24.7065V24.6657L49.7107 24.5151L49.7243 24.4742L49.7379 24.4198L49.7515 24.3789L49.8303 24.0639L49.8575 24.0094L49.8848 23.9005L49.912 23.846L49.933 23.7619L49.9603 23.6938L49.9739 23.6393L50.0012 23.5712L50.0148 23.5167L50.0366 23.4622L50.0553 23.3687L50.1052 23.2688L50.1183 23.2033L50.1456 23.1352L50.1556 23.0848L50.2007 22.9498L50.2137 22.9172L50.2238 22.8669L50.2783 22.7034L50.2919 22.6353L50.3432 22.4812L50.3569 22.3995L50.4113 22.236L50.4228 22.1674L50.45 22.072L50.4636 21.9903L50.4909 21.8949L50.4976 21.8545L50.5162 21.7247L50.5434 21.6293L50.5707 21.4386L50.5964 21.3484L50.6049 21.281L50.6321 21.0903L50.673 20.7633L50.6866 20.6678L50.6948 20.6022V20.4974L50.7085 20.3748V20.2616L50.7221 20.1526V19.9252L50.7357 19.8026V19.5026L50.7221 19.38V19.1801L50.4346 19.0004L50.3393 18.9459L50.2303 18.8778L50.1602 18.8378L49.9422 18.7288L49.8469 18.6743L49.7692 18.6354L49.6582 18.5878L49.5751 18.5404L49.4661 18.4995L49.3584 18.438L49.2129 18.3756L49.1039 18.3347L48.9359 18.2627L48.8231 18.2305L48.7414 18.1896L48.6634 18.1674L48.5681 18.1265L48.4972 18.1063L48.3787 18.0667L48.2833 18.0259L48.2384 18.0109L48.143 17.9837L48.0943 17.9674L48.0257 17.956L47.8842 17.9155L47.8354 17.8993L47.7537 17.8857L47.5902 17.8312L47.5461 17.8238L47.4309 17.8008L47.3492 17.7735L47.3282 17.7693L47.1908 17.7464L47.1227 17.7192L47.0965 17.7148L46.5276 17.601L46.4731 17.5874L46.405 17.5738L46.3505 17.5602L46.2824 17.5465L46.1779 17.5204H46.1098L45.8503 17.4556L45.8094 17.4419L45.6459 17.4011L45.605 17.3874L45.5505 17.3738L45.446 17.339L45.3915 17.3117L45.3734 17.3057L45.3189 17.2921L45.1778 17.245L45.137 17.2178L45.0552 17.1905L45.0143 17.1633L44.9735 17.1497L44.9326 17.1224L44.8917 17.1088L44.81 17.0543L44.7097 17.0209L44.623 16.9342L44.5004 16.8525L44.4732 16.8252L44.3914 16.7707L44.3642 16.7435L44.2309 16.6546L44.1966 16.6031L44.1053 16.5119L44.0645 16.4846L43.9377 16.3579L43.9105 16.317L43.747 16.1535L43.7197 16.1127L43.6501 16.043L43.6093 15.9885L43.5275 15.9068L43.4866 15.8523L43.3913 15.7569L43.3359 15.6831L43.2814 15.6423L43.2142 15.5526L43.1597 15.4981L43.1188 15.4436L43.0643 15.3891L43.0234 15.3346L42.8667 15.1779L42.8122 15.1098L42.506 14.8036L42.4112 14.7277L42.3567 14.6596L42.3153 14.6265L42.1791 14.4902L42.1327 14.4531L42.0248 14.3633L41.98 14.3184L41.8982 14.2639L41.8069 14.1725L41.7716 14.1432L41.6899 14.0887L41.5264 13.9524L41.4447 13.8979L41.3553 13.8235L41.2866 13.7744L41.2048 13.7199L41.1267 13.664L41.0114 13.5982L40.9057 13.5101L40.8681 13.4832L40.7591 13.4288L40.6498 13.3507L40.5709 13.3056L40.4763 13.2465L40.3782 13.1974L40.2575 13.1285L40.163 13.0694L40.0925 13.0341L39.9946 12.9906L39.8643 13.0558L39.7553 13.1239L39.6463 13.1784L39.5517 13.2375L39.4311 13.3064L39.3499 13.347L39.2684 13.4052L39.1731 13.4597L38.9823 13.5959L38.887 13.6504L38.8354 13.6872L38.7298 13.7753L38.6344 13.8298L38.4872 13.9524L38.4055 14.0069L38.242 14.1432L38.1835 14.1822L38.1386 14.227L38.0308 14.3169L37.9627 14.3714L37.881 14.4395L37.8346 14.4766L37.6983 14.6128L37.6569 14.646L37.6024 14.7141L37.5076 14.7899L37.2014 15.0962L37.1469 15.1643L36.9902 15.321L36.9493 15.3755L36.8403 15.4845L36.7995 15.5389L36.745 15.5934L36.7041 15.6479L36.6087 15.7433L36.5679 15.7978L36.527 15.8387L36.4861 15.8932L36.4452 15.934L36.4044 15.9885L36.2818 16.1112L36.2409 16.1656L36.1713 16.2353L36.1097 16.3277L36.0198 16.3876L35.9598 16.4775L35.8674 16.5391L35.7584 16.6481L35.7176 16.6753L35.6494 16.7435L35.6086 16.7707L35.5813 16.798L35.4587 16.8797L35.4315 16.907L35.2718 17.0134L35.2309 17.027L35.1857 17.0572L35.1584 17.0708L35.0402 17.1497L34.9584 17.1769L34.9175 17.2042L34.8085 17.2405L34.7813 17.2587L34.5993 17.3193L34.5448 17.3329L34.5361 17.3359L34.4888 17.3674L34.3541 17.4011L34.3132 17.4147L34.0537 17.4796H34.0117L33.9493 17.492L33.7313 17.5465L33.6631 17.5602L33.6087 17.5738L33.5405 17.5874L33.486 17.601L32.849 17.7285L32.8228 17.7328L32.7547 17.7601L32.5912 17.7873L32.5231 17.8146L32.4234 17.8312L32.3417 17.8584L32.26 17.872L32.0965 17.9265L32.0015 17.9424L31.9524 17.9564L31.7889 18.0109L31.6935 18.0381L31.6118 18.0654L31.5409 18.0856L31.4578 18.1212L31.3761 18.1485L31.2685 18.1946L31.1731 18.2219L30.9824 18.3036L30.887 18.3309L30.7642 18.3835L30.6565 18.445L30.5146 18.4982L30.4645 18.5197L30.3568 18.5813L30.2478 18.6221L30.1804 18.6606L30.0714 18.7151L29.976 18.7696L29.8779 18.8187L29.7833 18.8778L29.6627 18.9467L29.5645 18.9958L29.4963 19.0385L29.4009 19.1066L29.2782 19.1833L29.2779 19.1859V19.4345L29.2643 19.5571V19.8434L29.2779 19.966V20.1934L29.2916 20.3024V20.425L29.3188 20.643V20.752L29.327 20.8178L29.3406 20.9132L29.3543 21.0222L29.3679 21.1175L29.3763 21.1849L29.4021 21.2751L29.4224 21.4173L29.436 21.5262L29.443 21.5748L29.4682 21.6633L29.4887 21.7864L29.4975 21.8473L29.5227 21.9358L29.5364 22.0175L29.5504 22.0667L29.5887 22.1815L29.6023 22.2632L29.6295 22.345L29.6432 22.4267L29.6976 22.5902L29.7113 22.6719L29.7176 22.6909L29.7628 22.8039L29.7764 22.8856L29.7999 22.9445L29.8171 23.0304L29.8266 23.0588L29.8681 23.1624L29.8812 23.228L29.9311 23.3279L29.9498 23.4213L29.9771 23.4894L29.9856 23.5322L30.0129 23.5867L30.0265 23.6548L30.0471 23.6961L30.067 23.7755L30.0942 23.8436L30.1152 23.9277L30.1425 23.9822L30.2212 24.2971L30.2348 24.338L30.2621 24.447L30.2757 24.4879L30.2893 24.5424L30.303 24.5832L30.3406 24.7338V24.7643L30.3678 24.846V24.9414L30.3815 24.9823V25.0776L30.3951 25.1185V25.6444L30.3815 25.6853V25.7807L30.3678 25.8216V25.8384L30.3542 25.8929V25.9338L30.3166 26.0843L30.3134 26.094V26.1245L30.2757 26.2751L30.2621 26.316L30.2076 26.5339L30.1727 26.6385L30.1561 26.6718L30.1215 26.8103L30.0942 26.8784L30.0744 26.9579L30.0537 26.9991L30.0401 27.0672L30.0129 27.1217L29.9992 27.1898L29.972 27.2443L29.9634 27.2871L29.9307 27.3689L29.9171 27.4234L29.8681 27.546L29.858 27.5964L29.8307 27.6781L29.8136 27.764L29.7721 27.8677L29.7626 27.8961L29.749 27.9642L29.704 28.0993L29.6947 28.1226L29.684 28.1864L29.6295 28.3499L29.6159 28.4316L29.5909 28.5066L29.5773 28.6019L29.5501 28.6837L29.5364 28.779L29.5092 28.8608L29.4975 28.9429L29.4702 29.0382L29.443 29.229L29.4157 29.3244L29.3815 29.5636L29.3543 29.7817L29.3406 29.8771L29.3052 30.1608V30.2698L29.2873 30.4125L29.2779 30.4972V30.733L29.2643 30.842V31.2467L29.2779 31.3693V31.5056L29.2833 31.5539L29.36 31.6018L29.4554 31.67L29.5237 31.7126L29.6496 31.7756L29.745 31.8437L29.9352 31.9388L30.0306 31.9933L30.1395 32.0478L30.2349 32.1023L30.3126 32.1411L30.4236 32.1887L30.5066 32.2362L30.5827 32.2647L31.1322 32.5002L31.2276 32.5275L31.323 32.5683L31.4357 32.6006L31.5175 32.6414L31.6662 32.6839L31.748 32.7112L31.8434 32.7384L32.0488 32.8069L32.1442 32.8205L32.3144 32.8773L32.4141 32.8939L32.4822 32.9211L32.6457 32.9484L32.7138 32.9756L32.74 32.98L32.8081 32.9936L32.9455 33.0165L33.0228 33.0475L33.4588 33.1347L33.5133 33.1483L33.5814 33.1619L33.6359 33.1755L33.6983 33.188H33.7392L33.8811 33.2164L34.1906 33.2938L34.2315 33.3074L34.3405 33.3346L34.3813 33.3483L34.4359 33.3619L34.4767 33.3755L34.5312 33.3891L34.6358 33.424L34.6902 33.4512L34.8494 33.5043L34.8903 33.5315L34.972 33.5588L35.0129 33.586L35.0538 33.5997L35.1355 33.6542L35.1764 33.6678L35.2581 33.7223L35.3584 33.7557L35.4451 33.8424L35.5268 33.8969L35.5541 33.9241L35.6358 33.9786L35.7039 34.0467L35.7448 34.074L35.8538 34.183L35.9462 34.2446L35.9898 34.31L36.0037 34.3192L36.1304 34.4459L36.1576 34.4868L36.309 34.6382L36.3499 34.6927L36.4316 34.7744L36.4725 34.8289L36.5134 34.8698L36.5542 34.9243L36.5951 34.9651L36.636 35.0196L36.6905 35.0741L36.7314 35.1286L36.8267 35.224L36.8676 35.2785L37.0311 35.442L37.0924 35.5237L37.1196 35.5578L37.1806 35.6188L37.2754 35.6946L37.3513 35.7894L37.4803 35.9185L37.5751 35.9943L37.651 36.0891L37.6711 36.1092L37.7392 36.1637L37.8073 36.2319L37.8537 36.269L37.9615 36.3588L38.0253 36.4226L38.0717 36.4597L38.2351 36.5959L38.3033 36.6504L38.43 36.7561L38.5254 36.8105L38.6889 36.9468L38.7843 37.0013L38.8899 37.0893L38.9415 37.1261L39.0368 37.1806L39.1322 37.2488L39.2276 37.3033L39.309 37.3614L39.418 37.4159L39.5134 37.4841L39.7144 37.5846L39.8234 37.6527L40.006 37.744L40.1085 37.6799L40.3265 37.5709L40.4355 37.5028L40.5275 37.4568L40.609 37.3986L40.7207 37.3347L40.8297 37.2666L40.9087 37.2215L40.9868 37.1657L41.0686 37.1112L41.2593 36.9749L41.3411 36.9204L41.4098 36.8714L41.4992 36.7969L41.5809 36.7424L41.7444 36.6062L41.8029 36.5672L41.8477 36.5223L41.9556 36.4325L42.0019 36.3953L42.089 36.3083L42.1707 36.2538L42.288 36.1365L42.3295 36.1033L42.384 36.0352L42.4788 35.9594L42.7305 35.7077L42.785 35.6395L43.0507 35.3739L43.0915 35.3194L43.146 35.2649L43.1869 35.2104L43.2414 35.1559L43.2823 35.1014L43.3776 35.006L43.4594 34.897L43.6365 34.7199L43.641 34.7139L43.6925 34.6367L43.8969 34.4323L43.9584 34.3399L44.0238 34.2963L44.0674 34.2309L44.1598 34.1693L44.2688 34.0603L44.3097 34.0331L44.3369 34.0059L44.3778 33.9786L44.4187 33.9377L44.4596 33.9105L44.4868 33.8832L44.6465 33.7768L44.6601 33.7722L44.7964 33.6814L44.8372 33.6678L44.919 33.6133L44.9598 33.5997L45.0007 33.5724L45.0825 33.5452L45.1233 33.5179L45.2051 33.4907L45.266 33.4501L45.4007 33.4164L45.4824 33.3891L45.5369 33.3755L45.5778 33.3619L45.6868 33.3346L45.7276 33.321L46.2551 33.1892L46.3232 33.1755L46.3777 33.1619L46.4458 33.1483L46.5003 33.1347L46.6423 33.1063H46.7104L46.7319 33.102L46.8 33.0747L47.1374 33.0072L47.2192 32.9936L47.2402 32.9894L47.3219 32.9622L47.4371 32.9391L47.4812 32.9318L47.5629 32.9045L47.6447 32.8909L47.8082 32.8364L47.8899 32.8228L48.0204 32.7793L48.1158 32.7521L48.2793 32.6976L48.47 32.6431L48.5149 32.6281L48.6226 32.582L48.7179 32.5547L48.8133 32.5138L48.9087 32.4866L49.4286 32.2638L49.5376 32.2093L49.6173 32.1751L49.725 32.1136L49.834 32.0727L49.9013 32.0342L50.0103 31.9797L50.0804 31.9396L50.2039 31.8625L50.2959 31.8165L50.3913 31.7484L50.5172 31.6854L50.5855 31.6427L50.6808 31.5746L50.7193 31.5506L50.7221 31.5226V31.2739L50.7357 31.1513V30.865L50.7221 30.7424V30.515L50.7085 30.406V30.297L50.6676 29.9701V29.8611L50.6594 29.7953L50.6457 29.6999L50.6373 29.6325L50.6101 29.5371L50.5912 29.3866L50.5707 29.2426L50.5434 29.1472L50.5162 28.9565L50.4909 28.868L50.4773 28.7863L50.45 28.6909L50.4386 28.6224L50.4091 28.5338L50.3955 28.4384L50.3432 28.2818L50.3326 28.2179L50.3233 28.1946L50.2751 28.0502L50.2645 27.9863L50.2551 27.963L50.2101 27.828L50.2001 27.7776L50.1691 27.7002L50.1555 27.6185L50.1047 27.4915L50.0961 27.4487L50.0942 27.4448L50.0366 27.3008L50.0229 27.2327L50.0012 27.1782L49.9875 27.1237L49.9603 27.0555L49.9529 27.026L49.9256 26.9715L49.8922 26.8375L49.8918 26.8356L49.8711 26.7944L49.8166 26.5764L49.8 26.5431L49.7652 26.4386L49.7379 26.3296L49.7003 26.2167V26.1485L49.697 26.1388L49.6594 25.9883V25.9578L49.6322 25.8761V25.8112L49.6185 25.7567V25.6749L49.6049 25.6204V25.3678H50.7084ZM28.0518 30.6312V30.4293L28.0696 30.2687L28.079 30.1934V30.0844L28.1253 29.7143L28.1389 29.6189L28.1662 29.4009L28.2137 29.068L28.241 28.9727L28.2682 28.7819L28.2955 28.6866L28.311 28.5779L28.3382 28.4962L28.3519 28.4008L28.3791 28.3191L28.3927 28.2237L28.4222 28.1351L28.4359 28.0534L28.4904 27.8899L28.507 27.7902L28.5521 27.6773L28.5616 27.6489L28.5753 27.5808L28.6203 27.4457L28.6333 27.4131L28.6434 27.3628L28.6706 27.281L28.6878 27.1951L28.7477 27.0453L28.7614 26.9908L28.7832 26.9363L28.8019 26.8429L28.8291 26.7884L28.8427 26.7202L28.87 26.6657L28.8836 26.5976L28.9175 26.5299L28.9249 26.5003L28.9521 26.4322L28.9992 26.2438L29.0333 26.1757L29.084 25.9729L29.0872 25.9632V25.9327L29.1248 25.7821L29.1281 25.7725V25.742L29.1417 25.6875V25.6226L29.1553 25.5817V25.4863L29.1689 25.4455V25.3175L29.1553 25.2766V25.1812L29.1417 25.1404V25.0346L29.1144 24.9256V24.8951L29.1112 24.8854L29.0976 24.8309L29.084 24.7901L29.0567 24.6811L29.0431 24.6402L28.9856 24.4102L28.9583 24.3557L28.9249 24.2218L28.8976 24.1536L28.8902 24.1241L28.8563 24.0563L28.8427 23.9882L28.8155 23.9337L28.7968 23.8403L28.7695 23.7722L28.761 23.7294L28.759 23.7255L28.7014 23.5814L28.6878 23.5133L28.6748 23.4807L28.6297 23.3457L28.6197 23.2953L28.5887 23.2179L28.5751 23.1362L28.5658 23.1129L28.5176 22.9684L28.504 22.8867L28.4495 22.7232L28.4359 22.6414L28.4086 22.5597L28.395 22.4779L28.3787 22.4292L28.3383 22.2876L28.3247 22.2059L28.2955 22.1036L28.2769 21.9739L28.2702 21.9334L28.241 21.8312L28.2207 21.689L28.207 21.58L28.2001 21.5314L28.1714 21.4309L28.1525 21.2803L28.1389 21.1849L28.1253 21.0759L28.1117 20.9806L28.0926 20.8284V20.7194L28.0654 20.5014V20.3788L28.0518 20.2698V20.1041L27.994 20.1618L27.7914 20.3391L27.6961 20.4481L27.5717 20.5569L27.4915 20.6371L27.3962 20.7461L27.2872 20.8551L27.1918 20.964L27.0954 21.0605L27.0126 21.167L26.904 21.2911L26.8067 21.4005L26.5425 21.7402L26.4471 21.8765L26.3517 21.9991L26.2776 22.105L26.1958 22.2413L26.0123 22.5034L25.9306 22.6533L25.8352 22.7895L25.4481 23.4992L25.3763 23.6428L25.3082 23.7926L25.2308 23.9474L24.9697 24.574L24.9096 24.7303L24.8551 24.8937L24.7896 25.0642L24.693 25.3781L24.7598 25.5953L24.828 25.7588L24.885 25.944L24.9425 26.0935L25.2036 26.7202L25.2853 26.8837L25.3492 27.037L25.4208 27.1684L25.5126 27.3518L25.5676 27.4728L25.6509 27.6038L25.7365 27.7608L25.8183 27.897L25.8962 28.0398L25.9848 28.179L26.0596 28.3037L26.1549 28.4399L26.2367 28.5762L26.3108 28.6821L26.4062 28.8047L26.5016 28.941L26.7659 29.2807L26.8749 29.4034L26.9717 29.5279L27.0522 29.6199L27.0554 29.6235L27.1628 29.7443L27.2463 29.8398L27.3553 29.9488L27.4507 30.0578L27.5308 30.1379L27.6552 30.2467L27.7506 30.3557L27.9531 30.533L28.0485 30.6284L28.0518 30.6312ZM24.2105 23.2445L24.2695 23.1147L24.3612 22.9313L24.7915 22.1424L24.8869 22.0061L24.9686 21.8563L25.1666 21.5734L25.2483 21.4372L25.3649 21.2707L25.4603 21.148L25.5556 21.0118L25.8636 20.6159L25.9843 20.48L26.0664 20.3862L26.1744 20.2474L26.2959 20.1259L26.3913 20.0169L26.5003 19.9079L26.5957 19.7989L26.7335 19.661L26.8271 19.5792L26.9225 19.4702L27.1559 19.266L27.2676 19.1542L27.393 19.0602L27.502 18.9648L27.7036 18.8136L27.7989 18.7182L27.9636 18.5947L28.0726 18.5266L28.1038 18.5032L28.1096 18.4506L28.1395 18.1517L28.1668 18.0154L28.1804 17.8792L28.3539 17.0116L28.4024 16.834L28.4372 16.718L28.4629 16.5893L28.5114 16.4116L28.5595 16.2511L28.614 16.1013L28.6549 15.965L28.7732 15.6397L28.8277 15.5034L28.9415 15.1904L29.0137 15.0317L29.0682 14.8954L29.2928 14.4012L29.3746 14.2649L29.4375 14.1265L29.6994 13.6463L29.7918 13.4924L29.9758 13.2033L30.064 13.0415L30.1821 12.8728L30.2632 12.7613L30.1355 12.816L29.9584 12.8841L29.8034 12.9506L29.6337 13.0419L29.4482 13.1276L29.2574 13.2229L29.0888 13.3008L28.9438 13.3788L28.7667 13.4878L28.5809 13.5879L28.4055 13.6881L28.0692 13.895L27.9195 13.9949L27.4021 14.353L27.2386 14.4756L27.0745 14.5893L26.9228 14.7157L26.7457 14.8519L26.439 15.1075L25.9691 15.5383L25.8192 15.6882L25.6655 15.829L25.3748 16.1462L25.2113 16.3097L25.0802 16.4526L24.9518 16.6068L24.913 16.6526L24.8989 16.6979L24.8151 16.9213L24.7524 17.1094L24.6913 17.3049L24.6354 17.5285L24.5673 17.7328L24.5229 17.9102L24.4812 18.1329L24.4267 18.3373L24.3867 18.5506L24.3361 18.7528L24.3113 18.939L24.2667 19.1766L24.2295 19.3626L24.18 19.7587L24.1664 19.9631L24.1392 20.1811L24.1269 20.3652L24.1267 20.3678L24.1132 20.5845L24.0872 20.9741V21.7643L24.1265 22.3541L24.1267 22.357L24.1402 22.5463L24.1526 22.7319L24.1797 22.9349L24.1931 23.1227L24.2105 23.2445ZM31.9076 12.6071L31.8091 12.7426L31.5911 13.015L31.3846 13.2989L31.2893 13.4351L31.1803 13.585L31.1077 13.6887L31.0324 13.8267L30.8349 14.1371L30.7638 14.2556L30.5353 14.6745L30.4619 14.8359L30.3802 14.9721L30.1961 15.3771L30.1416 15.5133L30.0775 15.6543L29.9734 15.9407L29.9189 16.077L29.8192 16.351L29.7784 16.4873L29.7239 16.6371L29.6903 16.7492L29.657 16.8712L29.6282 17.015L29.5813 17.1715L29.548 17.2935L29.4783 17.6418L29.4926 17.6336L29.6016 17.5791L29.725 17.5087L29.834 17.4678L29.917 17.4203L30.0576 17.3601L30.1337 17.3315L30.2167 17.2841L30.4754 17.1732L30.5708 17.146L30.7615 17.0642L30.8569 17.037L30.94 17.0014L31.0217 16.9741L31.1294 16.928L31.2493 16.8937L31.331 16.8665L31.4264 16.8392L31.5899 16.7847L31.7314 16.7443L31.8 16.7329L31.9635 16.6784L32.0452 16.6648L32.127 16.6375L32.1908 16.6269L32.2589 16.5996L32.4224 16.5724L32.4905 16.5451L32.6279 16.5222L33.217 16.4044L33.2715 16.3908L33.3396 16.3772L33.3941 16.3635L33.4622 16.3499L33.6802 16.2954L33.7252 16.2864L33.8242 16.2534H33.9027L33.9702 16.2365L33.9789 16.2336L34.0262 16.2021L34.1609 16.1684L34.2018 16.1548L34.2415 16.1449L34.2987 16.1067L34.3859 16.0849L34.4149 16.0656L34.4966 16.0384L34.5418 16.0082L34.5691 15.9946L34.6874 15.9157L34.701 15.9112L34.8002 15.8451L34.8274 15.8178L34.8683 15.7906L34.9364 15.7225L34.9773 15.6952L35.3123 15.3602L35.3531 15.3057L35.4757 15.1831L35.5166 15.1286L35.5575 15.0878L35.5984 15.0333L35.6392 14.9924L35.6801 14.9379L35.7755 14.8425L35.8163 14.788L35.8708 14.7335L35.9117 14.679L36.0207 14.57L36.0616 14.5156L36.2319 14.3453L36.2863 14.2771L36.6886 13.8749L36.73 13.8417L36.7845 13.7736L36.8793 13.6978L37.0156 13.5616L37.1054 13.4897L37.1872 13.4216L37.2553 13.3671L37.3109 13.3207L37.4023 13.2293L37.5073 13.1593L37.6708 13.023L37.7526 12.9685L37.9324 12.8187L38.0277 12.7642L38.0856 12.716L38.2248 12.6166L38.3201 12.5621L38.5109 12.4259L38.5666 12.394L38.5579 12.3914L38.4216 12.3369L38.0465 12.2243L37.9245 12.191L37.7882 12.1638L37.6384 12.1229L37.5021 12.0957L37.3574 12.0562L36.9384 11.98L36.7749 11.9528L36.6498 11.93L36.4863 11.9164L36.3364 11.8892L35.574 11.8256H35.247L35.0835 11.812H34.7919L34.6148 11.8256H34.4397L34.2997 11.8373L33.6125 11.8901L32.9238 11.9961L32.7555 12.0201L32.422 12.0971L32.3435 12.1139L32.2637 12.2114L31.9076 12.6071ZM33.9447 10.6348L34.1998 10.6152L34.2037 10.6149L34.3887 10.5995H34.5677L34.7448 10.5858H35.1345L35.298 10.5995H35.625L36.4974 10.6722L36.6472 10.6994L36.8107 10.713L36.9854 10.7448L37.1488 10.772L37.6289 10.8593L37.784 10.9016L37.9202 10.9289L38.0701 10.9697L38.2063 10.997L38.384 11.0454L38.8263 11.1781L38.9626 11.2326L39.0815 11.2683L39.23 11.3178L39.3663 11.3723L39.4999 11.4168L39.9982 11.6383L40.1061 11.5844L40.252 11.5195L40.4157 11.4541L40.5274 11.4168L40.6585 11.3586L40.7947 11.3177L40.9174 11.2632L41.6432 11.0454L41.7931 11.0046L41.9547 10.9561L42.1122 10.9274L42.2621 10.8866L42.4327 10.8555L42.5494 10.8322L42.7181 10.79L42.9145 10.7543L43.0644 10.7407L43.1918 10.7175L43.3845 10.6854L43.5685 10.6701L43.5731 10.6697L43.7206 10.6563L44.4023 10.5995H44.5677L44.7449 10.5858H45.1189L45.296 10.5995H45.6366L46.0408 10.6305L45.9433 10.5508L45.6403 10.3236L45.3133 10.1056L45.1588 9.98966L44.9962 9.88959L44.8474 9.79042L44.6801 9.70035L44.4964 9.5873L44.3211 9.48708L44.1589 9.39979L43.9682 9.30442L43.7911 9.20904L43.6248 9.1259L43.434 9.04415L43.25 8.95213L43.0624 8.87708L42.8716 8.79534L42.6673 8.71359L42.4766 8.63185L42.2958 8.55957L41.9097 8.43086L41.6917 8.36274L41.4997 8.29872L41.318 8.25029L41.0875 8.19265L40.887 8.12999L40.6865 8.0924L40.4685 8.0379L40.2505 7.99703L40.0325 7.94253L40.0318 7.94239L39.8645 7.97375L39.6329 8.01463L39.4408 8.05064L39.2542 8.10042L38.8308 8.20627L38.6174 8.27296L38.4186 8.32597L38.2265 8.38999L38.0086 8.45811L37.8268 8.5187L37.6285 8.59802L37.4377 8.66614L37.0466 8.82259L36.8793 8.89429L36.6886 8.98965L36.4979 9.0714L35.9501 9.34529L35.7729 9.44066L35.598 9.52811L35.2607 9.73573L35.0972 9.8311L34.9403 9.92765L34.7723 10.0439L34.4551 10.2554L34.1381 10.4932L33.9882 10.6022L33.9447 10.6348ZM43.4284 7.69993L43.5316 7.74417L43.7527 7.83261L43.9502 7.93133L44.1409 8.01307L44.3561 8.12065L44.5332 8.21602L44.7239 8.31138L44.916 8.41482L45.1221 8.53259L45.2926 8.63753L45.4796 8.73819L45.6578 8.857L45.8494 8.97492L46.0218 9.10423L46.3488 9.32222L46.6997 9.58542L46.8496 9.70804L47.0131 9.83066L47.4964 10.2261L47.6326 10.3623L47.7825 10.4849L48.2242 10.9267L48.2949 11.0052L48.4563 11.0424L48.6288 11.0955L48.8195 11.1364L49.0353 11.2028L49.226 11.2709L49.4032 11.3254L49.6137 11.4006L49.7908 11.4687L49.9816 11.5368L50.1764 11.6118L50.3855 11.7014L50.7397 11.8649L50.9305 11.9466L51.1324 12.0398L51.3179 12.1397L51.5086 12.2351L51.8866 12.4386L52.0637 12.5476L52.2409 12.643L52.4471 12.7699L52.6242 12.8925L52.8013 13.0015L53.1787 13.2628L53.3422 13.3854L53.5193 13.508L53.5762 13.5507L53.5196 13.4563L53.3918 13.2775L53.2556 13.0731L52.8608 12.5203L52.7265 12.3494L52.5766 12.1723L52.4349 11.9919L52.2714 11.8148L52.1215 11.6241L51.6642 11.1287L51.4871 10.9652L51.3236 10.7881L50.9957 10.4854L50.805 10.3219L50.6279 10.1584L50.4556 10.0108L50.2649 9.86092L50.0742 9.69743L49.7218 9.42056L49.5259 9.28997L49.3614 9.16931L49.2152 9.10054L49.0111 9.01123L48.5479 8.82049L48.3443 8.73143L47.4544 8.41735L47.0113 8.28702L46.7823 8.22341L46.5462 8.16785L46.3146 8.09974L46.119 8.05373L45.8738 8.01286L45.6394 7.95769L45.4306 7.92081L45.4248 7.91983L45.1998 7.88236L44.9653 7.85477L44.7357 7.81425L44.508 7.78895L44.2922 7.76356L44.0626 7.75005L43.8173 7.7228L43.4284 7.69993ZM42.7694 6.45777L42.4106 6.39797L42.1518 6.37072L41.9065 6.32985L41.682 6.30621L41.4214 6.29249L41.1762 6.26525L40.6762 6.23893L40.6744 6.23884L40.4462 6.22616H39.7164L39.4575 6.23978H39.1996L38.9865 6.25162L38.7267 6.27896L38.4696 6.29249L38.2403 6.31797L37.9981 6.34347L37.7529 6.38434L37.494 6.41159L37.2798 6.44729L37.23 6.45777H37.4567L37.6883 6.47139H37.9199L38.6528 6.5145L38.8863 6.54371L38.8908 6.54424L39.3518 6.59846L39.5873 6.6279L39.8189 6.66877L40.0301 6.69518L40.3163 6.64152L40.7959 6.58512L40.8003 6.58458L41.0161 6.55759L41.2677 6.52799L41.4993 6.51437L41.7488 6.48501H41.9847L42.4479 6.45777H42.7694ZM31.7993 8.67916L31.5677 8.77453L31.3361 8.85627L31.1252 8.94311L30.921 9.03242L30.7036 9.13472L30.6353 9.16889L30.5967 9.19459L30.4116 9.33034L30.2101 9.48867L30.0167 9.61764L29.8441 9.76555L29.6534 9.91541L29.4711 10.0717L29.2954 10.2203L29.1133 10.3764L28.9534 10.5239L28.7763 10.701L28.6082 10.8562L28.4448 11.0333L28.2677 11.1968L27.9663 11.5233L27.8237 11.6918L27.6602 11.8825L27.5188 12.0497L27.0847 12.6021L26.5622 13.3337L26.4473 13.5252L26.4391 13.5378L26.5216 13.4808L26.6851 13.3581L27.2304 12.9806L27.4076 12.8625L27.7798 12.6334L27.9859 12.5156L28.1542 12.425L28.3314 12.316L28.5407 12.2033L28.7262 12.1177L28.917 12.0223L29.0856 11.9444L29.2702 11.8451L29.4966 11.748L29.6738 11.6799L29.8645 11.5981L30.0593 11.5232L30.25 11.4551L30.4272 11.387L30.6377 11.3118L31.0109 11.197L31.2016 11.1425L31.3788 11.088L31.5906 11.0274L31.7004 11.0021L32.0155 10.687L32.1773 10.5399L32.3027 10.427L32.4491 10.2806L32.6103 10.1487L32.7602 10.0125L33.0823 9.74891L33.2597 9.61582L33.4096 9.50684L33.7466 9.2541L34.0832 9.02966L34.2695 8.9007L34.4669 8.77926L34.6304 8.68388L35.0014 8.45554L35.208 8.35225L35.3851 8.25689L35.9817 7.95857L36.1725 7.87683L36.3632 7.78146L36.5289 7.71043L36.5157 7.71117H36.303L36.0883 7.73643L35.8431 7.75005L35.1816 7.82787L34.9364 7.86874L34.7077 7.89565L34.5068 7.93111L34.2615 7.9856L34.0337 8.02581L33.8152 8.07722L33.57 8.13171L33.3585 8.18148L32.4639 8.4446L31.7993 8.67916ZM54.9828 13.5082L55.0432 13.6216L55.1658 13.8259L55.3988 14.2627L55.4942 14.4671L55.6031 14.6714L55.7086 14.8973L55.8108 15.1311L55.8898 15.3286L55.988 15.5389L56.0758 15.773L56.1639 15.9933L56.1782 16.039L56.3219 16.2089L56.6097 16.583L56.746 16.7738L56.8822 16.9509L57.0335 17.1627L57.1561 17.3534L57.2979 17.5519L57.4282 17.7691L57.5508 17.9598L57.6817 18.1779L57.752 18.301L57.6812 18.0885L57.5017 17.6527L57.3927 17.4075L57.2999 17.182L57.2004 16.9707L57.0979 16.7656L56.9719 16.5275L56.8662 16.303L56.7615 16.1168L56.621 15.8921L56.4918 15.648L56.38 15.4491L56.256 15.2509L56.1297 15.0612L56.1248 15.054L55.9773 14.8396L55.8436 14.6389L55.8387 14.6316L55.699 14.4286L55.4186 14.0462L55.2551 13.8554L55.1052 13.6511L54.9828 13.5082ZM58.2116 22.5801L58.0101 21.8947L57.9467 21.6921L57.789 21.2452L57.7151 21.0481L57.6237 20.8391L57.522 20.5923L57.451 20.4029L57.3498 20.213L57.2512 19.9877L57.1455 19.7763L57.0535 19.5793L57.0226 19.5212L57.0246 19.5375L57.0252 19.5425L57.0547 19.7632L57.0683 19.9812L57.0956 20.1855L57.1104 20.4224L57.1105 20.425L57.1253 20.6472V20.8528L57.139 21.0708V21.7234L57.1253 21.9278V22.1321L57.0952 22.5843L57.068 22.775L57.0543 22.9794L57.0246 23.1873L57.0238 23.193L56.997 23.3945L56.9429 23.7731L56.9421 23.7788L56.9124 24.0014L56.8655 24.2204L56.8246 24.3974L56.6974 24.9912L56.5884 25.3454L56.5853 25.3598L56.6702 25.6355L56.7565 26.0386L56.7974 26.2156L56.9254 26.8133L56.9561 27.0278L56.9829 27.2294L56.9837 27.235L57.0378 27.6137L57.0681 27.8409L57.0829 28.0626L57.0831 28.0655L57.0966 28.2548L57.139 28.8897V29.7616L57.1104 30.1906L57.0968 30.4074L57.0967 30.4086L57.0833 30.6105L57.0831 30.613L57.0683 30.8499L57.0389 31.0706L57.0382 31.0756L57.0198 31.2228L57.108 31.0338L57.2135 30.836L57.3057 30.6254L57.4147 30.4074L57.4971 30.2189L57.5789 30.0009L57.6718 29.7885L57.7481 29.5723L57.8299 29.3543L57.9116 29.1228L57.9876 28.9201L58.1844 28.251L58.248 28.0221L58.3035 27.786L58.3659 27.5738L58.404 27.3452L58.4615 27.1013L58.4632 27.0939L58.5124 26.8721L58.5511 26.6402L58.589 26.4251L58.616 26.1827L58.6568 25.9375L58.6804 25.7257L58.694 25.4804L58.708 25.3542L58.6282 24.6357L58.6277 24.6317L58.6027 24.4187L58.4858 23.7174L58.435 23.5018L58.3814 23.2603L58.3797 23.2529L58.2752 22.809L58.2116 22.5801ZM57.7272 32.4849L57.619 32.6532L57.4963 32.8576L57.3737 33.0483L57.2511 33.2527L57.1093 33.4732L56.964 33.6622L56.6915 34.0437L56.2674 34.5949L56.1617 34.7198L56.1167 34.84L56.035 35.0443L55.9532 35.2624L55.8653 35.482L55.7631 35.7158L55.5623 36.146L55.3443 36.5547L55.2424 36.7731L55.1113 36.9915L55.0023 37.1959L54.9803 37.2326L55.0455 37.1566L55.1991 36.9646L55.2025 36.9603L55.3427 36.7818L55.7807 36.1845L55.9204 35.9815L55.9253 35.9742L56.0591 35.7734L56.2038 35.563L56.3255 35.3682L56.4481 35.1503L56.5844 34.9323L56.6961 34.7335L56.8188 34.5019L56.9343 34.2965L57.1459 33.8468L57.255 33.6287L57.358 33.4099L57.4608 33.1784L57.6403 32.7425L57.7221 32.4973L57.7272 32.4849ZM51.5878 39.6842L52.2169 39.0026L52.3668 38.8119L52.5303 38.6348L52.6564 38.4742L52.7991 38.2744L52.949 38.0973L53.0648 37.9351L53.2011 37.7307L53.4651 37.3611L53.5715 37.1837L53.4641 37.2732L53.097 37.5274L52.9202 37.66L52.7332 37.7751L52.5561 37.8977L52.1727 38.1336L51.9956 38.229L51.8106 38.3428L51.604 38.4461L51.2414 38.6414L51.0558 38.727L50.8651 38.8224L50.6716 38.9117L50.4625 39.0013L50.2933 39.0664L50.1094 39.1513L49.8998 39.2261L49.7227 39.2942L49.532 39.3623L49.3363 39.4376L49.1254 39.4979L48.9482 39.5524L48.7575 39.6069L48.5653 39.666L48.3821 39.7083L48.2852 39.736L48.2815 39.7393L48.1697 39.8635L47.8642 40.169L47.7143 40.2917L47.5781 40.4279L47.417 40.5597L47.2671 40.696L46.7951 41.0822L46.6076 41.2227L46.455 41.3245L46.2964 41.4542L46.1083 41.57L45.9537 41.686L45.7668 41.8106L45.2109 42.1527L45.0338 42.248L44.8487 42.3619L44.6421 42.4652L44.465 42.5606L44.0592 42.7635L43.8684 42.8453L43.6777 42.9406L43.4751 43.0274L43.7388 43.0119L43.7398 43.0118L43.9851 42.9982L44.1969 42.9858L44.4107 42.9606L44.4126 42.9604L44.6403 42.9351L44.87 42.8945L45.1045 42.867L45.3294 42.8295L45.3352 42.8285L45.7793 42.7501L46.004 42.7002L46.0114 42.6985L46.6869 42.5395L46.9161 42.4759L47.359 42.3456L47.5906 42.2639L47.8222 42.1957L48.2552 42.0429L48.4661 41.9561L48.6841 41.8607L49.1328 41.676L49.3448 41.57L49.389 41.5506L49.4442 41.5138L49.6293 41.3781L49.82 41.2283L50.0243 41.0784L50.3786 40.8L50.5461 40.6454L50.7369 40.4819L50.914 40.3184L51.0954 40.1629L51.2509 40.0074L51.428 39.8439L51.5878 39.6842ZM42.7558 44.2779H42.5988L42.3536 44.2643H42.1198L41.885 44.2496L41.8827 44.2495L41.4039 44.2213L41.1723 44.1941L40.9385 44.1803L40.6852 44.1487L40.4536 44.1078L40.2356 44.0805L40.0114 44.041L39.9415 44.0533L39.7235 44.0806L39.4919 44.1214L39.2564 44.1509L39.027 44.1778L39.0226 44.1784L38.7891 44.2076L37.8246 44.2643H37.593L37.3613 44.2779H37.2779L37.4143 44.2995L37.6569 44.3399L37.6621 44.3408L37.9019 44.3786L38.1296 44.4039L38.1331 44.4043L38.3902 44.4314L38.6195 44.4568L39.1194 44.4831L39.1212 44.4832L39.3647 44.4968L39.6074 44.5095H40.3381L40.8379 44.4832L40.8397 44.4831L41.0832 44.4696L41.0849 44.4695L41.326 44.4568L41.5553 44.4314L42.0713 44.3771L42.0748 44.3767L42.3025 44.3514L42.5423 44.3135L42.5474 44.3127L42.7558 44.2779ZM33.4783 42.5776L33.7198 42.6312L34.1699 42.7371L34.3787 42.774L34.3845 42.775L34.6268 42.8154L35.0736 42.8942L35.2993 42.9193L35.3013 42.9195L35.7625 42.9738L35.7665 42.9742L35.9919 42.9993L36.4373 43.0255L36.5379 43.0311L36.4934 43.012L36.289 42.9166L36.0907 42.8316L35.4941 42.5333L35.317 42.4379L35.1262 42.3426L34.9254 42.2344L34.3695 41.8923L34.206 41.7833L34.0289 41.6743L33.842 41.5497L33.6785 41.4271L33.515 41.3181L33.3275 41.1775L33.0278 40.9323L32.8643 40.8097L32.6808 40.6595L32.5445 40.5233L32.4071 40.4109L32.259 40.2776L32.0972 40.1305L31.803 39.8363L31.7157 39.7392L31.715 39.7391L31.6996 39.7355L31.5089 39.681L31.3318 39.6402L31.1199 39.5796L30.9238 39.5193L30.7331 39.4512L30.5489 39.3945L30.359 39.3215L30.1683 39.2533L29.9912 39.1852L29.7816 39.1104L29.5873 39.0207L29.3965 38.9389L29.0259 38.7679L28.8352 38.6725L28.6497 38.5869L28.4641 38.487L28.2575 38.3837L28.0725 38.2698L27.8954 38.1745L27.3349 37.8296L27.1578 37.7069L26.9708 37.5918L26.794 37.4593L26.604 37.3277L26.4405 37.1915L26.4232 37.1795L26.5077 37.3203L26.7717 37.6899L26.9079 37.8942L27.0303 38.0655L27.1734 38.2477L27.3077 38.4223L27.5924 38.7846L27.7483 38.9536L27.9042 39.1378L27.9067 39.1408L28.0523 39.3107L28.385 39.6433L28.5401 39.8114L28.7082 39.9665L28.8853 40.1437L29.2223 40.4547L29.3945 40.6023L29.5941 40.7591L29.7637 40.9157L29.9484 41.0511L30.3299 41.3509L30.515 41.4866L30.6353 41.5668L30.8263 41.6623L31.0434 41.7517L31.2613 41.847L31.4723 41.9339L31.7039 42.0157L31.9355 42.1111L32.1369 42.1821L32.3685 42.2502L32.6001 42.332L33.2631 42.527L33.4709 42.5759L33.4783 42.5776ZM24.9924 37.1917L24.9704 37.155L24.5195 36.3095L24.3187 35.8792L24.2233 35.6613L24.1238 35.448L24.0393 35.2368L23.9367 35.0023L23.8634 34.7823L23.8358 34.7086L23.8007 34.663L23.6508 34.4859L23.363 34.1118L23.2268 33.921L23.0905 33.7439L22.9393 33.5322L22.8167 33.3414L22.6804 33.1507L22.5446 32.9394L22.4091 32.7136L22.3046 32.5176L22.235 32.4094L22.2507 32.4564L22.3403 32.6741L22.4357 32.9193L22.6184 33.363L22.9294 34.024L23.0521 34.242L23.1611 34.4736L23.2766 34.679L23.3926 34.8981L23.5247 35.1094L23.6473 35.3274L23.764 35.5141L23.9138 35.7185L24.0573 35.9481L24.1862 36.1413L24.3283 36.348L24.465 36.5344L24.6221 36.7308L24.7703 36.9195L24.7736 36.9237L24.9273 37.1157L24.9924 37.1917ZM55.7818 23.2305L55.7819 23.2296L55.7827 23.2239L55.8096 23.0224L55.834 22.8517L55.8476 22.6473L55.8748 22.4566L55.8992 22.0913V21.887L55.9128 21.6826V21.1091L55.8992 20.8911V20.688L55.8869 20.504L55.8868 20.5027L55.8745 20.3049L55.8472 20.1006L55.8336 19.8826L55.8089 19.6971L55.7568 19.2808L55.7196 19.0948L55.6386 18.6625L55.6372 18.6552L55.597 18.4545L55.5588 18.2508L55.51 18.0555L55.4554 17.8509L55.4041 17.6455L55.3374 17.4321L55.2829 17.2277L55.2204 17.0276L55.1577 16.8395L55.083 16.6405L54.9486 16.4816L54.6661 16.1734L54.3527 15.8601L54.2119 15.7064L53.7517 15.2846L53.5882 15.1484L53.4247 14.9985L53.1181 14.743L52.9534 14.6163L52.8022 14.5029L52.6251 14.3803L52.4616 14.2577L52.1305 14.0285L51.9534 13.9195L51.7763 13.7969L51.6284 13.7058L51.4513 13.6104L51.2742 13.5014L50.9437 13.3235L50.7529 13.2281L50.5843 13.1373L50.432 13.067L50.2412 12.9853L49.887 12.8218L49.7309 12.7549L49.777 12.8183L49.8833 12.9701L50.0856 13.288L50.1673 13.4242L50.2695 13.5847L50.5298 14.0621L50.5979 14.1983L50.6851 14.3582L50.8259 14.6679L50.894 14.8041L50.9767 14.986L51.0312 15.1359L51.0953 15.2769L51.1587 15.4353L51.277 15.7607L51.3179 15.8969L51.375 16.0541L51.4205 16.2209L51.4541 16.3329L51.5185 16.5099L51.5492 16.6635L51.584 16.7795L51.6325 16.9572L51.6854 17.222L51.7279 17.3634L51.7656 17.5712L51.7787 17.7021L51.7988 17.8025L51.8326 17.9544L51.8605 18.2334L51.887 18.3664L51.902 18.5007L51.9915 18.5678L52.0868 18.6496L52.5417 18.9907L52.6534 19.1025L52.9804 19.3886L53.0758 19.4839L53.1847 19.5793L53.3226 19.7172L53.4045 19.8108L53.5135 19.9061L53.6326 20.0423L53.6358 20.0459L53.7432 20.1667L53.8267 20.2621L53.9482 20.3837L54.458 21.0391L54.5534 21.1753L54.6487 21.2979L54.956 21.7369L55.0447 21.8847L55.1401 22.0346L55.2325 22.1886L55.6525 22.9585L55.7485 23.1507L55.7818 23.2305ZM50.5337 17.6502L50.4944 17.5191L50.4384 17.239L50.4051 17.117L50.3582 16.9605L50.3344 16.8416L50.2898 16.7189L50.2416 16.5584L50.2054 16.4255L50.1535 16.2829L50.1127 16.1467L50.013 15.8726L49.9674 15.7586L49.8952 15.5998L49.8407 15.4499L49.7872 15.3321L49.7191 15.1959L49.5873 14.9062L49.511 14.7663L49.4429 14.63L49.2128 14.2082L49.1242 14.0689L49.0425 13.9327L48.8633 13.6512L48.7789 13.5305L48.6619 13.3697L48.5741 13.2318L48.477 13.1104L48.368 12.9605L48.161 12.7017L48.0384 12.5518L47.9384 12.4269L47.6476 12.1037L47.4625 12.061L47.2717 12.0338L47.0914 11.9921L46.6055 11.9174L46.4284 11.9038L46.2513 11.8765L45.5895 11.8256H45.2489L45.0718 11.812H44.7919L44.6148 11.8256H44.4533L43.8293 11.8776L43.8248 11.878L43.6772 11.8914L43.5365 11.9032L43.4022 11.9255L43.2299 11.9569L43.08 11.9705L42.9767 11.9893L42.8185 12.0288L42.6626 12.06L42.5336 12.0835L42.3837 12.1243L42.2415 12.1502L42.1306 12.1834L41.9808 12.2243L41.4253 12.391L41.5025 12.4296L41.6556 12.5389L41.7134 12.5871L41.7889 12.6302L41.9015 12.7106L41.9832 12.7651L42.1052 12.8523L42.1793 12.914L42.2611 12.9685L42.4245 13.1048L42.5063 13.1593L42.6346 13.2662L42.6794 13.311L42.7612 13.3655L42.8525 13.4569L42.9082 13.5033L42.9981 13.5752L43.1343 13.7114L43.2291 13.7873L43.2836 13.8554L43.325 13.8885L43.7273 14.2908L43.7818 14.3589L43.9521 14.5292L43.9929 14.5837L44.0474 14.6382L44.0883 14.6927L44.1428 14.7472L44.1573 14.7664L44.2118 14.8073L44.3199 14.9515L44.4153 15.0469L44.4561 15.1014L44.5379 15.1831L44.5788 15.2376L44.6726 15.3315L44.6999 15.3724L44.8634 15.5358L44.8726 15.5497L44.8865 15.559L44.9955 15.668L45.0879 15.7296L45.1151 15.7704L45.1454 15.7906L45.1726 15.8178L45.2544 15.8723L45.2816 15.8996L45.3399 15.9384L45.3535 15.943L45.4353 15.9975L45.4761 16.0111L45.517 16.0383L45.5579 16.052L45.5987 16.0792L45.6805 16.1065L45.7095 16.1258L45.7165 16.1276L45.8619 16.176L45.9088 16.1995L45.9481 16.2093L45.989 16.2229L46.1525 16.2638L46.1933 16.2774L46.2608 16.2943H46.3005L46.4424 16.3227L46.5514 16.3499L46.6196 16.3635L46.6741 16.3772L46.7422 16.3908L46.7967 16.4044L47.3176 16.5086L47.455 16.5315L47.5231 16.5587L47.5492 16.5631L47.6645 16.5861L47.7462 16.6134L47.7672 16.6176L47.8867 16.6375L48.0501 16.692L48.1319 16.7056L48.2466 16.7439L48.2958 16.7579L48.3907 16.7737L48.5055 16.812L48.6009 16.8392L48.7194 16.8788L48.8148 16.9196L48.8597 16.9346L48.9796 16.9689L49.075 17.0097L49.1878 17.042L49.2695 17.0828L49.3475 17.1051L49.5609 17.1966L49.6699 17.2375L49.9059 17.3386L49.9889 17.386L50.0979 17.4269L50.2056 17.4885L50.2853 17.5226L50.4256 17.5928L50.521 17.6473L50.5344 17.654L50.5337 17.6502Z" fill="black"></path></svg>