<svg xmlns="http://www.w3.org/2000/svg" width="80" height="50" viewBox="0 0 80 50" fill="none"><path d="M46.7534 31.8901C48.0503 31.7608 49.0553 30.6745 49.0553 29.3543C49.0553 29.3021 49.0538 29.2498 49.0509 29.1975V29.2048C48.9827 27.8062 47.8397 26.6981 46.4353 26.6836H46.3409C44.9351 26.7358 43.8154 27.8875 43.8154 29.3006C43.8154 29.3326 43.8154 29.3645 43.8168 29.3979V29.3936C43.8546 30.0805 44.1363 30.6963 44.5749 31.161L44.5735 31.1596C42.8496 34.375 40.2151 36.9107 37.0157 38.4661L36.9155 38.5097C35.1843 39.4682 33.1192 40.0317 30.9218 40.0317C30.3656 40.0317 29.8166 39.9954 29.2807 39.9257L29.3446 39.9329C27.368 39.7427 25.6659 38.7072 24.5854 37.1968L24.5723 37.1765C23.7925 36.08 23.3263 34.7148 23.3263 33.2393C23.3263 32.0237 23.6429 30.8822 24.1991 29.8917L24.1817 29.9266C24.9761 28.422 26.0595 27.1701 27.368 26.2058L27.3985 26.1854C27.1502 25.5275 26.928 24.7346 26.7711 23.9198L26.7552 23.824C19.954 28.6877 20.6439 35.3407 22.709 38.485C24.5142 40.7883 27.2969 42.2552 30.4222 42.2552C30.5645 42.2552 30.7054 42.2523 30.8463 42.2465H30.826C30.8768 42.2479 30.9378 42.2479 30.9988 42.2479C31.9384 42.2479 32.8519 42.139 33.7291 41.9342L33.6478 41.9502C39.4686 40.8842 44.2351 37.1329 46.6808 32.0542L46.7272 31.9467L46.7534 31.8901Z" fill="black"></path><path d="M54.9443 26.1593C51.4544 22.18 46.3612 19.682 40.6827 19.682C40.5099 19.682 40.3356 19.6849 40.1642 19.6893H40.1904H39.409C38.998 18.8658 38.1601 18.3096 37.1928 18.3096C37.1638 18.3096 37.1362 18.3096 37.1071 18.311H37.1115H37.0549C35.6519 18.3314 34.522 19.4729 34.522 20.8787C34.522 20.9208 34.5235 20.9615 34.5249 21.0021V20.9963C34.5903 22.3949 35.7333 23.5059 37.1391 23.5204H37.2538C38.2908 23.4798 39.1665 22.8349 39.5441 21.9316L39.5499 21.9142H40.3995C44.1087 21.9185 47.5507 23.0572 50.3972 25.0047L50.3362 24.9655C52.5597 26.3887 54.2763 28.4336 55.2624 30.8546L55.2929 30.9388C55.6705 31.726 55.8898 32.6496 55.8898 33.6241C55.8898 34.6553 55.6443 35.6283 55.2072 36.4881L55.2232 36.4518C54.0947 38.7551 51.7681 40.312 49.0785 40.312C48.9797 40.312 48.8824 40.3105 48.7851 40.3062H48.7996C47.1484 40.2713 45.59 39.9082 44.177 39.2794L44.2525 39.3099C43.702 39.7688 42.7842 40.524 42.1176 40.9844C43.8807 41.85 45.9488 42.3772 48.1345 42.428H48.1519C48.2376 42.4309 48.3378 42.4323 48.438 42.4323C52.1443 42.4323 55.3902 40.4645 57.1896 37.5177L57.2157 37.4727C57.7124 36.2949 58 34.9268 58 33.4905C58 30.6149 56.8439 28.0095 54.9719 26.1143L54.9734 26.1157L54.9516 26.1622L54.9443 26.1593Z" fill="black"></path><path d="M31.2195 32.7194C31.2834 34.1194 32.4293 35.2333 33.838 35.2435H33.931C35.3368 35.1956 36.4594 34.0424 36.4594 32.6293C36.4594 31.1916 35.299 30.0239 33.8627 30.0137H33.7654C33.7509 30.0123 33.7334 30.0123 33.7175 30.0123C33.6115 30.0123 33.5098 30.0283 33.4139 30.0602L33.4212 30.0588C31.8672 27.5303 30.9479 24.4674 30.9479 21.1895C30.9479 20.6609 30.9712 20.1381 31.0191 19.6225L31.0147 19.6893C31.1469 16.9212 32.1635 14.4131 33.7843 12.4176L33.7668 12.4409C35.2061 10.8854 37.2335 9.89498 39.4947 9.82236H39.5078C44.4631 9.72941 46.5297 15.9046 46.6894 18.359L48.987 19.0459C48.4525 11.5216 43.7732 7.57129 39.2987 7.57129C34.7501 7.80801 30.9755 10.868 29.6815 15.0231L29.6612 15.0986C29.0251 16.9314 28.6562 19.043 28.6562 21.2404C28.6562 24.9989 29.7323 28.5063 31.5913 31.4704L31.5448 31.3905C31.3371 31.7042 31.2137 32.0891 31.2137 32.503C31.2137 32.58 31.2181 32.6555 31.2268 32.7296L31.2253 32.7208L31.2195 32.7194Z" fill="black"></path></svg>