<?xml version="1.0" encoding="utf-8"?>
<!-- Generator: Adobe Illustrator 26.2.1, SVG Export Plug-In . SVG Version: 6.00 Build 0)  -->
<svg version="1.1" id="Layer_1" xmlns="http://www.w3.org/2000/svg" xmlns:xlink="http://www.w3.org/1999/xlink" x="0px" y="0px"
	 viewBox="0 0 20 20" style="enable-background:new 0 0 20 20;" xml:space="preserve">
<style type="text/css">
	.st0{fill-rule:evenodd;clip-rule:evenodd;fill:#9EB5CD;}
</style>
<path class="st0" d="M8.7,5.1L5.9,2.3c0,0,0,0,0,0c0,0,0,0-0.1,0c0,0,0,0,0,0c0,0-0.1,0-0.1-0.1C5.5,2.1,5.4,2.1,5.2,2
	C4.9,2,4.4,2,4,2.4L2.6,3.8c0,0.1-0.1,0.1-0.1,0.2c0,0.1-0.1,0.2-0.2,0.4C2.2,4.6,2.1,5.1,2,5.7C2,6.8,2.2,8.5,3.5,10.4l0,0
	c0,0,0,0,0,0.1c0,0.1,0.1,0.1,0.1,0.2c0.1,0.2,0.3,0.5,0.5,0.8c0.5,0.7,1.1,1.5,2,2.4c0.8,0.8,1.7,1.4,2.3,1.9
	c0.3,0.2,0.6,0.4,0.8,0.5c0.1,0.1,0.2,0.1,0.2,0.1c0,0,0,0,0.1,0l0,0c2,1.3,3.6,1.5,4.8,1.4c0.6,0,1-0.2,1.4-0.3
	c0.2-0.1,0.3-0.1,0.4-0.2c0,0,0.1,0,0.1-0.1c0,0,0,0,0,0l0,0l1.4-1.4c0.4-0.4,0.4-0.9,0.4-1.2c0-0.2-0.1-0.3-0.1-0.4
	c0-0.1,0-0.1-0.1-0.1c0,0,0,0,0,0l0,0l0,0l0,0l0,0l0-0.1l-2.8-2.8l0,0c-0.5-0.4-1-0.5-1.4-0.3c-0.2,0.1-0.3,0.1-0.4,0.2
	c0,0-0.1,0.1-0.1,0.1c0,0,0,0,0,0l0,0l0,0l0,0l0,0l0,0l-1.5,1.5c-0.1-0.1-0.3-0.1-0.4-0.3c-0.3-0.2-0.6-0.5-0.9-0.7
	c-0.3-0.3-0.6-0.5-0.8-0.7c-0.1-0.1-0.2-0.2-0.2-0.2c0,0,0,0,0,0c0,0,0,0,0,0C9,10.8,9,10.8,8.9,10.7c-0.2-0.2-0.4-0.5-0.7-0.8
	C7.9,9.6,7.7,9.3,7.5,9C7.3,8.8,7.3,8.7,7.2,8.6L8.7,7l0,0l0,0c0,0,0,0,0,0c0,0,0.1-0.1,0.1-0.1C8.9,6.8,9,6.6,9,6.5
	C9.2,6.1,9.1,5.6,8.7,5.1L8.7,5.1z M8.5,11.5C8.5,11.5,8.5,11.6,8.5,11.5L8.5,11.5L8.5,11.5L8.5,11.5L8.5,11.5
	c0.1,0.1,0.2,0.2,0.3,0.3C9,12,9.2,12.2,9.6,12.5c0.3,0.3,0.7,0.5,1,0.8c0.3,0.2,0.7,0.4,1,0.5l0.2,0l1.8-1.8l0,0c0,0,0,0,0.1,0
	c0,0,0.1-0.1,0.2-0.1c0.1,0,0.3-0.1,0.5,0.2l2.7,2.7c0,0,0,0,0,0c0,0.1,0.1,0.2,0.1,0.3c0,0.2,0,0.4-0.1,0.5l0,0
	c-0.1,0.1-0.2,0.3-0.4,0.4c-0.3,0.3-0.6,0.7-1,0.9c-0.1,0-0.2,0.1-0.3,0.1c-0.2,0.1-0.6,0.2-1.1,0.2c-1,0.1-2.4-0.1-4.3-1.3l0,0l0,0
	l0,0l0,0c0,0,0,0-0.1,0c0,0-0.1-0.1-0.2-0.1c-0.2-0.1-0.5-0.3-0.8-0.5c-0.6-0.4-1.4-1-2.2-1.8l0,0c0,0,0,0,0,0c0,0-0.1-0.1-0.1-0.1
	l0,0c-0.8-0.8-1.4-1.5-1.8-2.2c-0.2-0.3-0.4-0.6-0.5-0.8c-0.1-0.1-0.1-0.2-0.1-0.2c0,0,0,0,0-0.1l0,0l0,0l0,0l0,0
	C3,8.1,2.8,6.7,2.9,5.7c0-0.5,0.1-0.9,0.2-1.1c0-0.1,0.1-0.2,0.1-0.3c0,0,0,0,0,0L4.6,3l0,0C4.7,2.9,4.8,2.8,5,2.9
	c0.1,0,0.2,0,0.3,0.1c0,0,0,0,0,0l2.7,2.7c0.2,0.2,0.2,0.4,0.1,0.5c0,0.1-0.1,0.1-0.1,0.2c0,0,0,0,0,0.1l0,0L6.2,8.3l0,0.2
	c0.1,0.3,0.3,0.6,0.5,1c0.2,0.3,0.5,0.7,0.8,1c0.3,0.3,0.5,0.6,0.7,0.8C8.3,11.3,8.4,11.4,8.5,11.5C8.4,11.5,8.4,11.5,8.5,11.5
	L8.5,11.5L8.5,11.5L8.5,11.5C8.5,11.5,8.5,11.5,8.5,11.5z"/>
</svg>
