<svg width="32" height="32" viewBox="0 0 32 32" fill="none" xmlns="http://www.w3.org/2000/svg">
<path d="M16.8389 26.0355C14.1482 28.6661 9.82208 28.6556 7.14646 25.9987C4.47161 23.3433 4.46107 19.0465 7.11047 16.3746L7.10824 16.3731L16.8404 6.70921L18.0575 5.5011C20.0732 3.49963 23.3405 3.49963 25.3562 5.5011C27.3719 7.50256 27.3719 10.7474 25.3562 12.7496L14.6282 23.2916L14.6244 23.2886C13.3024 24.5544 11.1951 24.5454 9.88883 23.2549C8.58252 21.9636 8.57429 19.8819 9.85507 18.577L9.8513 18.5725L11.0459 17.3937L17.0188 11.4943L18.2126 12.6746L11.0459 19.7528C10.3859 20.4038 10.3859 21.4604 11.0459 22.112C11.7058 22.7636 12.7759 22.7636 13.435 22.112L24.1397 11.5399L24.1367 11.5377L24.1772 11.5032C25.5211 10.1691 25.5211 8.0049 24.1772 6.6709C22.8334 5.33691 20.6557 5.33682 19.3119 6.6709L19.2759 6.71144L19.2737 6.70989L18.0573 7.91723L8.32458 17.5812C6.30889 19.5826 6.30889 22.8274 8.32458 24.8289C10.3403 26.8304 13.6084 26.8304 15.6225 24.8289L24.1383 16.3731L25.3547 15.1657L26.571 16.3731L25.3547 17.5812L16.8404 26.037C16.8404 26.0369 16.8389 26.0355 16.8389 26.0355Z" fill="#315EB8"/>
</svg>
