<svg xmlns="http://www.w3.org/2000/svg" width="80" height="50" viewBox="0 0 80 50" fill="none"><path d="M48.4404 28.4975V21.3857H49.3815V27.6582H52.884V28.4975H48.4404Z" fill="black"></path><path d="M54.0931 28.4975V22.225H51.75V21.3857H57.3871V22.225H55.0342V28.4975H54.0931Z" fill="black"></path><path d="M57.1924 28.4975V21.3857H62.3346V22.225H58.1335V24.4031H62.0678V25.2375H58.1335V27.6582H62.4996V28.4975H57.1924Z" fill="black"></path><path d="M17.5 28.4974L20.2312 21.3857H21.2451L24.1557 28.4974H23.0836L22.2541 26.3435H19.2804L18.4993 28.4974H17.5ZM19.552 25.5771H21.963L21.2208 23.6075C20.9944 23.0092 20.8262 22.5177 20.7163 22.1328C20.6257 22.5888 20.498 23.0416 20.333 23.4911L19.552 25.5771Z" fill="black"></path><path d="M28.1385 28.4974V27.8474C27.8118 28.3584 27.3316 28.6139 26.6977 28.6139C26.287 28.6139 25.9086 28.5007 25.5625 28.2743C25.2197 28.0479 24.9529 27.7326 24.7621 27.3283C24.5745 26.9208 24.4807 26.4535 24.4807 25.9264C24.4807 25.4121 24.5664 24.9464 24.7378 24.5292C24.9093 24.1088 25.1664 23.787 25.5092 23.5639C25.852 23.3407 26.2352 23.2292 26.6589 23.2292C26.9694 23.2292 27.2459 23.2955 27.4884 23.428C27.731 23.5574 27.9283 23.7272 28.0803 23.9374V21.3857H28.9486V28.4974H28.1385ZM25.3782 25.9264C25.3782 26.5861 25.5173 27.0793 25.7954 27.4059C26.0735 27.7326 26.4018 27.8959 26.7802 27.8959C27.1618 27.8959 27.4852 27.7407 27.7504 27.4302C28.0188 27.1165 28.153 26.6395 28.153 25.9991C28.153 25.2941 28.0172 24.7766 27.7455 24.4468C27.4739 24.1169 27.1391 23.952 26.7414 23.952C26.3533 23.952 26.0282 24.1104 25.7663 24.4274C25.5076 24.7443 25.3782 25.244 25.3782 25.9264Z" fill="black"></path><path d="M30.3263 28.4974V23.3456H31.1073V24.0684C31.2691 23.8161 31.4841 23.614 31.7525 23.462C32.021 23.3068 32.3266 23.2292 32.6694 23.2292C33.051 23.2292 33.3631 23.3084 33.6057 23.4669C33.8515 23.6253 34.0245 23.8469 34.1247 24.1315C34.5322 23.5299 35.0626 23.2292 35.7159 23.2292C36.2269 23.2292 36.6198 23.3715 36.8947 23.656C37.1696 23.9374 37.3071 24.3724 37.3071 24.961V28.4974H36.4387V25.2521C36.4387 24.9028 36.4096 24.6521 36.3514 24.5001C36.2964 24.3449 36.1945 24.2204 36.0458 24.1266C35.897 24.0328 35.7224 23.9859 35.5219 23.9859C35.1596 23.9859 34.8589 24.1072 34.6195 24.3498C34.3802 24.5891 34.2606 24.9739 34.2606 25.5043V28.4974H33.3874V25.1502C33.3874 24.7621 33.3162 24.471 33.1739 24.277C33.0316 24.0829 32.7988 23.9859 32.4754 23.9859C32.2296 23.9859 32.0016 24.0506 31.7914 24.18C31.5844 24.3093 31.434 24.4985 31.3402 24.7475C31.2464 24.9966 31.1995 25.3555 31.1995 25.8245V28.4974H30.3263Z" fill="black"></path><path d="M38.6072 22.3899V21.3857H39.4804V22.3899H38.6072ZM38.6072 28.4974V23.3456H39.4804V28.4974H38.6072Z" fill="black"></path><path d="M40.8144 28.4974V23.3456H41.6003V24.0781C41.9787 23.5121 42.5252 23.2292 43.24 23.2292C43.5504 23.2292 43.835 23.2857 44.0938 23.3989C44.3557 23.5089 44.5514 23.6544 44.6807 23.8355C44.8101 24.0166 44.9007 24.2317 44.9524 24.4807C44.9847 24.6424 45.0009 24.9254 45.0009 25.3297V28.4974H44.1277V25.3636C44.1277 25.0079 44.0938 24.7427 44.0258 24.5681C43.9579 24.3902 43.8366 24.2495 43.662 24.146C43.4906 24.0393 43.2885 23.9859 43.0556 23.9859C42.6837 23.9859 42.3619 24.104 42.0903 24.3401C41.8218 24.5761 41.6876 25.0241 41.6876 25.6838V28.4974H40.8144Z" fill="black"></path><path fill-rule="evenodd" clip-rule="evenodd" d="M64.3 18.1346H15.7V32.1126H64.3V18.1346ZM15 17.4346V32.8126H65V17.4346H15Z" fill="black"></path></svg>