<svg xmlns="http://www.w3.org/2000/svg" width="98" height="122" viewBox="0 0 98 122" fill="none"><g clip-path="url(#clip0_162_11065)"><path d="M75.6167 9.7448C76.3167 13.5448 73.8167 17.2448 70.0167 18.0448C66.2167 18.7448 62.5167 16.2448 61.8167 12.4448C61.1167 8.6448 63.6167 4.9448 67.4167 4.1448C71.2167 3.4448 74.8167 5.9448 75.6167 9.7448Z" fill="#1A98D5"></path><path d="M18.9175 28.445C19.6175 32.245 17.1175 35.945 13.3175 36.745C9.51746 37.445 5.81746 34.945 5.11746 31.145C4.41746 27.345 6.91746 23.645 10.7175 22.845C14.4175 22.145 18.1175 24.645 18.9175 28.445Z" fill="#F39222"></path><path d="M33.3159 85.6452C34.0159 89.4452 31.5159 93.1452 27.7159 93.9452C23.9159 94.6452 20.2159 92.1452 19.5159 88.3452C18.8159 84.5452 21.3159 80.8452 25.1159 80.0452C28.9159 79.3452 32.6159 81.8452 33.3159 85.6452Z" fill="#722E7E"></path><path d="M34.6167 12.3446C35.3167 16.1446 32.8167 19.8446 29.0167 20.6446C25.2167 21.3446 21.5167 18.8446 20.8167 15.0446C20.1167 11.2446 22.6167 7.54459 26.4167 6.74459C30.1167 5.94459 33.8167 8.54459 34.6167 12.3446Z" fill="#DEDE2A"></path><path d="M55.8159 5.74498C56.5159 9.54498 54.0159 13.245 50.2159 14.045C46.4159 14.745 42.7159 12.245 42.0159 8.44498C41.3159 4.64498 43.8159 0.94498 47.6159 0.14498C51.4159 -0.65502 55.1159 1.94498 55.8159 5.74498Z" fill="#67B548"></path><path d="M13.9175 48.3454C14.6175 52.1454 12.1175 55.8454 8.31746 56.6454C4.51746 57.3454 0.817459 54.8454 0.117459 51.0454C-0.582541 47.2454 1.91746 43.5454 5.71746 42.7454C9.51746 42.0454 13.1175 44.5454 13.9175 48.3454Z" fill="#DB2329"></path><path d="M18.6167 70.3454C19.3167 74.1454 16.8167 77.8454 13.0167 78.6454C9.21668 79.3454 5.51668 76.8454 4.81668 73.0454C4.11668 69.2454 6.61668 65.5454 10.4167 64.7454C14.2167 64.0454 17.9167 66.5454 18.6167 70.3454Z" fill="#AE276E"></path><path d="M96.6156 110.545L80.9156 92.0447C83.9156 90.7447 86.5156 88.8447 88.8156 86.4447C96.9156 77.9447 96.9156 65.9447 96.8156 63.9447V49.6447C96.8156 45.9447 93.8156 42.8447 90.0156 42.8447H49.7156C46.0156 42.8447 42.9156 45.8447 42.9156 49.6447C42.9156 53.3447 45.9156 56.4447 49.7156 56.4447H83.2156V64.0447V64.3447C83.2156 64.4447 83.4156 72.4447 78.9156 77.0447C76.5156 79.6447 73.0156 80.8447 68.2156 80.8447H47.8156C44.1156 80.8447 41.0156 83.8447 41.0156 87.6447V87.8447V114.245C41.0156 117.945 44.0156 121.045 47.8156 121.045C51.5156 121.045 54.6156 118.045 54.6156 114.245V94.4447H65.2156L85.3156 118.045C86.6156 119.945 88.7156 121.045 90.9156 121.045C92.2156 121.045 93.5156 120.645 94.7156 119.845C97.9156 117.845 98.7156 113.645 96.6156 110.545Z" fill="black"></path></g><defs><clipPath id="clip0_162_11065"><rect width="97.7829" height="121.045" fill="white"></rect></clipPath></defs></svg>