<svg xmlns="http://www.w3.org/2000/svg" width="991.672" height="144" viewBox="0 0 26238 3810" preserveAspectRatio="xMidYMid" fill-rule="evenodd" stroke-width="28.222" stroke-linejoin="round"><defs class="ClipPathGroup"><clipPath id="a"><path d="M0 0h26238v3810H0z"></path></clipPath></defs><g class="SlideGroup"><g class="Slide" clip-path="url(#a)"><g class="Page"><g class="com.sun.star.drawing.ClosedBezierShape"><path class="BoundingBox" fill="none" d="M281 750h14803v2419H281z"></path><path d="M1940 2878L1311 750h-94L579 2878l-298 34v43h689v-43l-315-34 162-519h706l162 519-255 34v43h689v-43l-179-34zM834 2291l323-1073 332 1073H834zm13845 638c-77-93-77-221-94-340-25-230-51-537-306-613l-25-9 25-8c128-51 230-136 298-239 68-102 111-229 111-366 0-238-145-408-434-502-154-51-307-76-460-76h-774v34l221 42v2035l-221 42v51h723v-51l-221-42v-826h332c187 0 297 25 332 77 42 59 68 144 76 246 26 307 111 571 409 707 127 60 289 77 408 77 9 0 0-52 0-52-153 0-306-76-400-187zm-528-1064c-76 51-153 68-229 68h-409V861h9c187 0 298 8 323 8 187 17 323 68 400 145 85 76 119 196 119 357 0 145-25 256-68 332-25 68-76 120-145 162zM3991 2853c-42-94-34-213-42-324-9-111-26-230-86-332-17-34-34-76-68-111-42-51-76-85-161-110l-26-9 26-8c127-51 229-136 298-239 68-102 110-229 110-366 0-238-144-408-434-502-153-51-306-76-459-76h-621c-43 0-154-26-154 34l222 42v2035l-222 42v51h724v-51l-222-42v-826h332c187 0 298 25 332 77 43 59 68 144 77 246 25 307 110 571 408 707 128 60 289 77 409 77 8 0 0-52 0-52-162 0-366-102-443-263zm-468-988c-76 51-153 68-230 68h-408V861h8c188 0 298 8 324 8 187 17 323 68 400 145 85 76 119 196 119 357 0 145-26 256-68 332-26 68-77 120-145 162zM4595 835l179 34v2026l-179 43v42h647v-42l-187-43V869l187-34v-34h-647v34zm2613 468l34-34c8-17 17-42 34-85 59-128 93-204 119-221 59-60 136-85 213-94h323v2018l-221 42v43h706v-43l-213-42V878h332c85 0 153 34 213 93 25 17 68 102 128 239 8 34 25 51 25 68l43 34V793H7199v510h9zm3463-213c-68-85-162-161-264-221-127-76-255-110-391-119h-17c-128 9-247 43-366 119-102 60-187 136-255 221-34 43-60 86-85 128-256 451-239 1056 85 1464 68 94 161 162 272 222 111 59 230 85 349 93h17c127-8 255-34 374-93 119-60 213-128 281-222 51-59 94-127 136-204 43-85 77-170 102-255 17-43 26-94 34-137 26-170 9-349-34-519-51-170-127-332-238-477zm-102 1277c-34 154-77 307-187 409-94 94-221 145-358 145-127 0-263-60-349-162-93-102-136-247-170-383s-51-273-51-409c-8-144 0-281 26-425 42-239 110-520 349-630 110-51 238-60 357-17 128 51 238 153 298 281 68 127 93 264 111 400 34 264 25 527-26 791zm1966 324c-119 153-256 230-417 230-205 0-366-111-451-290-102-204-128-434-128-655 0-281 17-588 162-834 93-171 238-247 417-247 110 0 204 25 289 76 77 51 136 119 187 205l9 8c68 119 110 204 119 273 0 8 8 17 8 17h9V861l-43-9-76 26c-17 8-26 8-34 8-17 0-60-8-128-34l-102-34h8c-76-25-153-34-229-34-153 0-290 43-426 136-85 60-153 128-212 205-9 17-18 25-35 42-161 238-238 528-221 809 17 255 102 511 256 715 76 102 170 179 280 230 111 59 230 85 358 85 127 0 246-43 340-119 85-68 179-188 289-358-17-77-34-136-42-170-43 111-102 221-187 332z"></path></g><g class="com.sun.star.drawing.ClosedBezierShape"><path class="BoundingBox" fill="none" d="M5651 755h20270v2236H5651z"></path><path d="M16593 2887l-630-2102h-93l-630 2110-298 34v43h689v-43l-314-34 153-510h698l153 510-256 34v43h690v-43l-162-42zm-1089-587l323-1064 324 1064h-647zm1106-996l34-34c9-17 17-43 34-85 60-128 94-204 119-221 60-60 136-85 213-94h323v2017l-221 42v43h706v-43l-212-42V879h331c86 0 154 34 213 93 26 17 68 102 128 238 8 35 25 52 25 69l43 34V793h-1744v511h8zm4765 1583l-1004-1328 851-689 272-42v-26h-646v26l272 42-859 681V870l170-34v-34h-647v26l196 42v2025l-196 34v43h647v-43l-170-34V1755l833 1132-153 42v43h647v-43l-213-34v-8zm324-2051l170 34v2025l-170 43v42h646v-42l-195-43V870l195-34v-34h-646v34zm2433 247c-76-119-212-196-400-247-93-25-187-34-272-34h-800v51l204 34v2008l-204 34v43h868c238 0 443-111 613-332 110-145 187-315 221-493 43-188 51-375 9-554-52-178-137-357-239-510zm-76 1047c-9 178-43 365-145 519-94 153-238 229-425 229-9 0-128-8-349-17h-9V853h358c212 0 357 102 459 315 60 128 85 272 102 408 17 188 17 375 9 554zm1719-196c-77-85-247-162-511-238l-17-9c-170-51-298-111-383-179-77-68-111-170-111-272 0-136 34-238 103-298 68-93 187-136 357-127 162 8 306 76 425 204 77 76 111 153 111 230h51V759h-8c0 34-17 60-43 77l-17 9c-17 8-43 17-68 17-9 0-43-9-102-34-51-26-102-35-153-52-111-34-290-17-341-8-59 8-127 25-178 51-103 43-188 119-247 213-34 59-60 119-60 178-25 264 17 434 119 528 103 85 264 170 477 238 162 51 281 111 366 179 102 85 153 204 153 340 0 145-43 247-111 332-68 77-161 119-289 119-85 0-179-17-272-59-94-43-170-94-230-162-68-76-102-144-102-221h-51v485h34v-17c0-26 8-60 25-85 26-26 43-43 77-43h26c42 17 93 34 161 60 119 42 204 68 264 76h51c204-8 366-76 485-221 102-127 153-272 153-442 0-145-42-281-144-383zM6339 1696l-17-9c-170-51-298-111-383-179-76-68-110-170-110-272 0-136 34-238 102-298 68-93 187-136 357-127 162 8 307 76 426 204 76 76 110 153 110 230h51V759h-8c0 34-17 60-43 77l-17 9c-17 8-42 17-68 17-8 0-42-9-102-34-51-26-102-35-153-52-111-34-289-17-340-8-60 8-128 25-179 51-102 43-187 119-247 213-34 59-59 119-59 178-26 264 17 434 119 528 102 85 263 170 476 238 162 51 281 111 366 179 102 85 153 204 153 340 0 145-42 247-110 332-68 77-162 119-290 119-85 0-178-17-272-59-94-43-170-94-230-162-68-76-102-144-102-221h-51v485h34v-17c0-26 9-60 26-85 25-26 42-43 76-43h26c42 17 93 34 161 60 120 42 205 68 264 76h51c205-8 366-76 485-221 102-127 153-272 153-442 0-162-51-298-144-400-77-68-247-153-511-221z"></path></g></g></g></g></svg>