<svg xmlns="http://www.w3.org/2000/svg" width="157" height="134" viewBox="0 0 157 134" fill="none"><path d="M78.4337 10.2002C56.2619 10.2002 38.2238 28.1306 38.2238 50.1699C38.2238 72.2091 56.2619 90.1395 78.4337 90.1395C100.605 90.1395 118.644 72.2091 118.644 50.1699C118.644 28.1306 100.605 10.2002 78.4337 10.2002ZM78.4337 88.1461C57.3677 88.1461 40.2292 71.1099 40.2292 50.1699C40.2292 29.2298 57.3677 12.1936 78.4337 12.1936C99.4996 12.1936 116.638 29.2294 116.638 50.1699C116.638 71.1103 99.4996 88.1461 78.4337 88.1461Z" fill="url(#paint0_linear_1040_2278)"></path><path d="M95.4519 29.0703C92.7044 29.0703 90.5065 31.2552 90.5065 33.9862C90.5065 36.7173 92.7044 38.9021 95.4519 38.9021C98.1994 38.9021 100.397 36.7173 100.397 33.9862C100.397 31.2552 98.1994 29.0703 95.4519 29.0703ZM95.4519 37.8097C93.3089 37.8097 91.6055 36.1164 91.6055 33.9862C91.6055 31.856 93.3089 30.1627 95.4519 30.1627C97.5949 30.1627 99.2984 31.856 99.2984 33.9862C99.2984 36.1164 97.5949 37.8097 95.4519 37.8097Z" fill="url(#paint1_linear_1040_2278)"></path><path d="M95.4519 45.4566C94.243 45.4566 93.144 45.8936 92.2648 46.6037L82.4289 36.8265C83.0334 36.0618 83.3631 35.0786 83.3631 33.9862C83.3631 31.2552 81.1651 29.0703 78.4176 29.0703C75.6701 29.0703 73.4722 31.2552 73.4722 33.9862C73.4722 36.7173 75.6701 38.9021 78.4176 38.9021C79.6814 38.9021 80.8354 38.4105 81.7146 37.6458L91.5505 47.423C90.8911 48.2423 90.5065 49.2801 90.5065 50.3725C90.5065 53.1036 92.7044 55.2884 95.4519 55.2884C98.1994 55.2884 100.397 53.1036 100.397 50.3725C100.397 47.6415 98.1994 45.4566 95.4519 45.4566ZM78.4176 37.8097C76.2746 37.8097 74.5712 36.1164 74.5712 33.9862C74.5712 31.856 76.2746 30.1627 78.4176 30.1627C80.5606 30.1627 82.2641 31.856 82.2641 33.9862C82.2641 36.1164 80.5606 37.8097 78.4176 37.8097ZM95.4519 54.196C93.3089 54.196 91.6055 52.5027 91.6055 50.3725C91.6055 48.2423 93.3089 46.549 95.4519 46.549C97.5949 46.549 99.2984 48.2423 99.2984 50.3725C99.2984 52.5027 97.5949 54.196 95.4519 54.196Z" fill="url(#paint2_linear_1040_2278)"></path><path d="M78.4176 55.2883C81.1651 55.2883 83.3631 53.1035 83.3631 50.3724C83.3631 47.6414 81.1651 45.4565 78.4176 45.4565C75.6701 45.4565 73.4722 47.6414 73.4722 50.3724C73.4722 53.1035 75.6701 55.2883 78.4176 55.2883ZM78.4176 46.549C80.5606 46.549 82.2641 48.2422 82.2641 50.3724C82.2641 52.5027 80.5606 54.1959 78.4176 54.1959C76.2746 54.1959 74.5712 52.5027 74.5712 50.3724C74.5712 48.2422 76.2746 46.549 78.4176 46.549Z" fill="url(#paint3_linear_1040_2278)"></path><path d="M61.3833 71.6748C64.1308 71.6748 66.3288 69.49 66.3288 66.7589C66.3288 64.0279 64.1308 61.843 61.3833 61.843C58.6358 61.843 56.4379 64.0279 56.4379 66.7589C56.4379 69.49 58.6358 71.6748 61.3833 71.6748ZM61.3833 62.9354C63.5263 62.9354 65.2298 64.6287 65.2298 66.7589C65.2298 68.8891 63.5263 70.5824 61.3833 70.5824C59.2403 70.5824 57.5369 68.8891 57.5369 66.7589C57.5369 64.6287 59.2403 62.9354 61.3833 62.9354Z" fill="url(#paint4_linear_1040_2278)"></path><path d="M95.4519 61.8429C92.9242 61.8429 90.8362 63.7547 90.5614 66.2126H83.3081C83.0334 63.7547 80.9453 61.8429 78.4176 61.8429C76.6592 61.8429 75.1206 62.7715 74.2415 64.137L64.3506 54.3052C65.5595 53.4313 66.3288 51.9565 66.3288 50.3725C66.3288 47.86 64.4055 45.7844 61.9328 45.5112V38.8475C64.4055 38.5744 66.3288 36.4988 66.3288 33.9862C66.3288 31.2552 64.1308 29.0703 61.3833 29.0703C58.6358 29.0703 56.4379 31.2552 56.4379 33.9862C56.4379 36.4988 58.3611 38.5744 60.8338 38.8475V45.4566C58.3611 45.7297 56.4379 47.8053 56.4379 50.3179C56.4379 53.049 58.6358 55.2338 61.3833 55.2338C62.0977 55.2338 62.757 55.0699 63.3615 54.8514L73.7469 65.1748C73.5821 65.6664 73.4722 66.2126 73.4722 66.7588C73.4722 69.4899 75.6701 71.6747 78.4176 71.6747C80.9453 71.6747 83.0334 69.763 83.3081 67.305H90.5065C90.7812 69.763 92.8693 71.6747 95.397 71.6747C98.1444 71.6747 100.342 69.4899 100.342 66.7588C100.342 64.0278 98.1994 61.8429 95.4519 61.8429ZM57.5369 33.9862C57.5369 31.856 59.2403 30.1627 61.3833 30.1627C63.5263 30.1627 65.2298 31.856 65.2298 33.9862C65.2298 36.1164 63.5263 37.8097 61.3833 37.8097C59.2403 37.8097 57.5369 36.1164 57.5369 33.9862ZM57.5369 50.3725C57.5369 48.2423 59.2403 46.549 61.3833 46.549C63.5263 46.549 65.2298 48.2423 65.2298 50.3725C65.2298 52.5027 63.5263 54.196 61.3833 54.196C59.2403 54.196 57.5369 52.5027 57.5369 50.3725ZM78.4176 70.5823C76.2746 70.5823 74.5712 68.8891 74.5712 66.7588C74.5712 64.6286 76.2746 62.9354 78.4176 62.9354C80.5606 62.9354 82.2641 64.6286 82.2641 66.7588C82.2641 68.8891 80.5606 70.5823 78.4176 70.5823ZM95.4519 70.5823C93.3089 70.5823 91.6055 68.8891 91.6055 66.7588C91.6055 64.6286 93.3089 62.9354 95.4519 62.9354C97.5949 62.9354 99.2984 64.6286 99.2984 66.7588C99.2984 68.8891 97.5949 70.5823 95.4519 70.5823Z" fill="url(#paint5_linear_1040_2278)"></path><path d="M3.84897 121.089C3.13583 119.908 2.70794 118.746 2.56531 117.604C2.56531 109.405 2.56531 105.313 2.56531 105.328H4.22933V112.559C4.93456 111.701 5.72298 111.061 6.59461 110.639C7.46623 110.218 8.42105 110.007 9.45907 110.007C11.2974 110.007 12.8703 110.673 14.1777 112.004C15.4852 113.335 16.1389 114.95 16.1389 116.848C16.1389 118.715 15.4812 120.31 14.1658 121.633C12.8504 122.956 11.2657 123.618 9.41143 123.618C8.34963 123.618 7.35321 123.415 6.42215 123.009C5.4911 122.604 4.63332 121.964 3.84882 121.089L3.84897 121.089ZM9.26887 122.023C10.2118 122.023 11.0775 121.792 11.8659 121.332C12.6543 120.871 13.2823 120.231 13.7499 119.412C14.2174 118.593 14.4512 117.718 14.4511 116.789C14.4511 115.875 14.2154 114.999 13.7439 114.16C13.2725 113.321 12.6386 112.671 11.8422 112.211C11.0459 111.75 10.196 111.519 9.29273 111.519C8.37356 111.519 7.50194 111.75 6.67785 112.211C5.85377 112.671 5.21986 113.298 4.77613 114.089C4.33239 114.881 4.11052 115.765 4.11051 116.742C4.11051 118.246 4.60972 119.502 5.60813 120.51C6.60653 121.519 7.8268 122.023 9.26894 122.023L9.26887 122.023ZM19.4788 118.585V116.517C19.6214 114.753 19.9939 113.461 20.5961 112.642C21.0953 111.894 21.749 111.299 22.5572 110.858C23.0881 110.519 23.8449 110.338 24.8274 110.314C25.4613 110.314 26.1032 110.432 26.7529 110.669C27.4027 110.905 27.9058 111.22 28.2624 111.614C28.6189 112.008 28.9795 112.598 29.344 113.386C29.5421 112.882 29.9581 112.291 30.592 111.614C30.901 111.354 31.3012 111.098 31.7925 110.846C32.1253 110.633 32.8978 110.456 34.1102 110.314C35.0135 110.314 35.8812 110.539 36.7132 110.988C37.5452 111.437 38.1296 112.069 38.4663 112.884C38.803 113.699 38.9714 114.914 38.9714 116.529V123.606H37.2598V116.529C37.2598 115.143 37.1608 114.19 36.9627 113.67C36.7646 113.15 36.4239 112.73 35.9405 112.411C35.4572 112.092 34.8748 111.933 34.1934 111.933C32.9097 112.02 31.8122 112.638 30.901 113.788C30.5444 114.276 30.275 115.359 30.0928 117.037V123.606H28.4168V116.966C28.4168 115.406 28.2425 114.345 27.8938 113.782C27.5452 113.219 27.1292 112.77 26.6458 112.435C26.1624 112.1 25.5602 111.933 24.8391 111.933C24.0626 111.933 23.395 112.13 22.8364 112.524C22.2777 112.917 21.8399 113.506 21.523 114.29C21.206 115.074 21.0793 116.348 21.1426 118.112V123.606H19.4786V118.585L19.4788 118.585ZM43.0721 105.316C43.4524 105.316 43.7793 105.45 44.0526 105.718C44.326 105.986 44.4627 106.309 44.4627 106.687C44.4627 107.065 44.326 107.39 44.0526 107.662C43.7793 107.933 43.4524 108.069 43.0721 108.069C42.6917 108.069 42.3668 107.933 42.0974 107.662C41.828 107.39 41.6933 107.065 41.6933 106.687C41.6933 106.309 41.828 105.986 42.0974 105.718C42.3668 105.45 42.6917 105.316 43.0721 105.316L43.0721 105.316ZM42.24 110.645H43.916V123.605H42.24V110.645V110.645ZM60.0807 110.007C62.0854 110.007 63.7494 110.728 65.0727 112.169C66.293 113.484 66.9031 115.048 66.9031 116.86C66.919 121.333 66.919 123.606 66.9031 123.677H65.1321V120.735C64.205 122.452 62.5212 123.413 60.0806 123.618C58.0838 123.618 56.4535 122.942 55.1896 121.591C53.9258 120.241 53.2939 118.663 53.2939 116.86C53.2939 115.064 53.8921 113.504 55.0886 112.181C56.4119 110.732 58.0759 110.007 60.0807 110.007L60.0807 110.007ZM60.0807 111.638C58.694 111.638 57.5015 112.15 56.503 113.174C55.5046 114.198 55.0054 115.434 55.0054 116.884C55.0054 117.821 55.2609 118.723 55.772 119.589C56.2831 120.456 57.1488 121.188 58.3691 121.787C61.4277 122.464 63.6028 121.082 64.8944 117.64C64.9657 116.537 64.8469 115.482 64.5378 114.473C64.316 114.016 64.0109 113.583 63.6226 113.174C62.648 112.15 61.4673 111.638 60.0806 111.638L60.0807 111.638ZM69.8984 105.636H71.5862V123.607H69.8984V105.636ZM74.7953 105.636H76.4831V123.607H74.7953V105.636ZM80.5361 105.316C80.9165 105.316 81.2433 105.45 81.5167 105.718C81.7901 105.986 81.9267 106.309 81.9267 106.687C81.9267 107.065 81.7901 107.39 81.5167 107.662C81.2433 107.933 80.9165 108.069 80.5361 108.069C80.1558 108.069 79.8309 107.933 79.5615 107.662C79.2921 107.39 79.1574 107.065 79.1574 106.687C79.1574 106.309 79.2921 105.986 79.5615 105.718C79.8309 105.45 80.1558 105.316 80.5361 105.316V105.316ZM79.7041 110.645H81.3801V123.605H79.7041V110.645V110.645ZM91.0075 110.007C93.0123 110.007 94.6763 110.728 95.9996 112.169C97.2198 113.484 97.83 115.048 97.83 116.86C97.8458 121.333 97.8458 123.606 97.83 123.677H96.059V120.735C95.1319 122.452 93.4481 123.413 91.0075 123.618C89.0107 123.618 87.3804 122.942 86.1165 121.591C84.8526 120.241 84.2207 118.663 84.2207 116.86C84.2207 115.064 84.819 113.504 86.0155 112.181C87.3388 110.732 89.0028 110.007 91.0075 110.007V110.007ZM91.0075 111.638C89.6208 111.638 88.4283 112.15 87.4299 113.174C86.4315 114.198 85.9323 115.434 85.9322 116.884C85.9322 117.821 86.1878 118.723 86.6989 119.589C87.21 120.456 88.0757 121.188 89.2959 121.787C92.3546 122.464 94.5297 121.082 95.8213 117.64C95.8926 116.537 95.7737 115.482 95.4647 114.473C95.2428 114.016 94.9377 113.583 94.5495 113.174C93.5748 112.15 92.3942 111.638 91.0075 111.638L91.0075 111.638ZM101.075 118.691L101.051 117.309C101.027 116.631 101.055 116.056 101.134 115.584C101.309 114.095 101.689 113.004 102.275 112.311C102.846 111.704 103.428 111.236 104.022 110.905C105.005 110.488 106.126 110.291 107.386 110.314C108.369 110.314 109.278 110.56 110.114 111.053C110.95 111.545 111.546 112.207 111.903 113.038C112.259 113.869 112.438 115.17 112.438 116.942V123.606H110.774V117.427C110.774 115.93 110.71 114.93 110.583 114.426C110.385 113.567 109.993 112.959 109.407 112.6C108.82 112.242 107.953 112.063 106.804 112.063C105.789 112.063 104.886 112.354 104.094 112.937C103.301 113.52 102.933 114.316 102.988 115.324C102.838 115.97 102.762 117.147 102.762 118.856V123.606H101.075V118.691L101.075 118.691ZM128.662 113.032L127.331 113.859C126.182 112.331 124.613 111.567 122.624 111.567C121.031 111.567 119.71 112.075 118.66 113.091C117.61 114.107 117.085 115.343 117.085 116.801C117.085 117.746 117.327 118.638 117.81 119.477C118.294 120.315 118.955 120.963 119.795 121.42C120.635 121.877 121.578 122.105 122.624 122.105C124.549 122.105 126.118 121.349 127.331 119.837L128.662 120.699C128.036 121.629 127.198 122.348 126.148 122.856C125.098 123.364 123.9 123.618 122.553 123.618C120.5 123.618 118.795 122.968 117.436 121.668C116.077 120.369 115.397 118.789 115.397 116.93C115.397 115.67 115.716 114.503 116.354 113.427C116.992 112.352 117.864 111.513 118.969 110.911C120.074 110.308 121.317 110.007 122.695 110.007C123.551 110.007 124.381 110.137 125.185 110.397C125.99 110.657 126.673 110.997 127.236 111.419C127.798 111.84 128.274 112.378 128.662 113.032L128.662 113.032ZM142.842 118.998L144.244 119.743C143.792 120.648 143.262 121.377 142.651 121.928C142.041 122.48 141.356 122.899 140.595 123.186C139.834 123.474 138.975 123.618 138.016 123.618C135.892 123.618 134.232 122.927 133.036 121.544C131.839 120.162 131.241 118.6 131.241 116.86C131.241 115.213 131.748 113.748 132.762 112.465C134.046 110.826 135.77 110.007 137.933 110.007C140.144 110.007 141.915 110.846 143.246 112.524C144.189 113.705 144.664 115.178 144.672 116.942H132.965C132.996 118.455 133.48 119.693 134.415 120.658C135.35 121.623 136.503 122.105 137.873 122.105C138.539 122.105 139.185 121.989 139.811 121.757C140.437 121.524 140.97 121.219 141.409 120.841C141.849 120.463 142.327 119.849 142.842 118.998L142.842 118.998ZM142.842 115.513C142.62 114.623 142.295 113.912 141.867 113.38C141.439 112.849 140.873 112.419 140.167 112.092C139.462 111.765 138.721 111.602 137.945 111.602C136.669 111.602 135.571 112.012 134.652 112.831C133.987 113.429 133.484 114.323 133.143 115.513H142.842L142.842 115.513ZM154.347 111.755L153.277 112.866C152.374 111.999 151.498 111.566 150.651 111.566C150.104 111.566 149.636 111.743 149.248 112.098C148.86 112.452 148.666 112.874 148.666 113.362C148.666 113.772 148.828 114.165 149.153 114.543C149.47 114.945 150.139 115.406 151.162 115.926C152.414 116.564 153.261 117.182 153.705 117.781C154.141 118.387 154.359 119.068 154.359 119.825C154.359 120.88 153.984 121.776 153.236 122.512C152.487 123.249 151.55 123.617 150.425 123.617C149.672 123.617 148.953 123.458 148.267 123.139C147.582 122.82 147.017 122.373 146.574 121.798L147.631 120.604C148.487 121.565 149.395 122.046 150.353 122.046C151.019 122.046 151.587 121.831 152.059 121.402C152.53 120.973 152.766 120.47 152.766 119.896C152.766 119.415 152.612 118.99 152.303 118.62C151.994 118.249 151.292 117.785 150.199 117.225C149.018 116.635 148.218 116.04 147.798 115.441C147.37 114.859 147.156 114.189 147.156 113.433C147.156 112.448 147.495 111.631 148.172 110.981C148.85 110.332 149.7 110.007 150.722 110.007C151.918 110.007 153.127 110.589 154.347 111.755L154.347 111.755Z" fill="#7D4D8D"></path><defs><linearGradient id="paint0_linear_1040_2278" x1="38.2238" y1="10.2002" x2="118.644" y2="10.2002" gradientUnits="userSpaceOnUse"><stop stop-color="#6D7CFF"></stop><stop offset="1" stop-color="#FF51FF"></stop></linearGradient><linearGradient id="paint1_linear_1040_2278" x1="90.5065" y1="29.0703" x2="100.397" y2="29.0703" gradientUnits="userSpaceOnUse"><stop stop-color="#6D7CFF"></stop><stop offset="1" stop-color="#FF51FF"></stop></linearGradient><linearGradient id="paint2_linear_1040_2278" x1="73.4722" y1="29.0703" x2="100.397" y2="29.0703" gradientUnits="userSpaceOnUse"><stop stop-color="#6D7CFF"></stop><stop offset="1" stop-color="#FF51FF"></stop></linearGradient><linearGradient id="paint3_linear_1040_2278" x1="73.4722" y1="45.4565" x2="83.3631" y2="45.4565" gradientUnits="userSpaceOnUse"><stop stop-color="#6D7CFF"></stop><stop offset="1" stop-color="#FF51FF"></stop></linearGradient><linearGradient id="paint4_linear_1040_2278" x1="56.4379" y1="61.843" x2="66.3288" y2="61.843" gradientUnits="userSpaceOnUse"><stop stop-color="#6D7CFF"></stop><stop offset="1" stop-color="#FF51FF"></stop></linearGradient><linearGradient id="paint5_linear_1040_2278" x1="56.4379" y1="29.0703" x2="100.342" y2="29.0703" gradientUnits="userSpaceOnUse"><stop stop-color="#6D7CFF"></stop><stop offset="1" stop-color="#FF51FF"></stop></linearGradient></defs></svg>