<svg xmlns="http://www.w3.org/2000/svg" width="80" height="50" viewBox="0 0 80 50" fill="none"><path d="M25 41.9966C25 30.9259 25 20.0168 25 9.13848C25.1167 9.06924 25.1866 9 25.2489 9C31.3072 9.04616 37.3655 8.96153 43.4082 9.20003C46.7679 9.33081 49.7854 10.631 50.8275 14.1853C51.9396 17.9704 51.2552 21.6786 47.2889 23.7481C47.1567 23.8173 47.0556 23.9481 46.9312 24.0635C52.5229 26.433 54.5993 32.103 51.683 37.0498C49.8165 40.2117 46.7368 41.5965 43.2682 41.7735C38.0576 42.0427 32.8237 41.9427 27.6053 41.9966C26.7809 42.0043 25.9488 41.9966 25 41.9966ZM32.2715 36.1958C35.5379 36.1958 38.7342 36.3728 41.9072 36.1343C44.3726 35.9496 45.5547 34.3648 45.578 32.0414C45.6091 29.5104 44.4737 27.7794 42.055 27.5255C39.1153 27.2101 36.1367 27.3178 33.1814 27.2562C32.8781 27.2562 32.5826 27.3101 32.2715 27.3408C32.2715 30.3797 32.2715 33.3339 32.2715 36.1958ZM32.2482 22.3017C35.1257 22.3017 37.8554 22.3633 40.5774 22.2786C42.6383 22.2094 44.0148 20.84 44.2015 18.9321C44.4037 16.8549 43.416 15.1008 41.4717 14.8931C38.4387 14.5623 35.3668 14.5853 32.2482 14.4546C32.2482 17.2164 32.2482 19.7014 32.2482 22.3017Z" fill="black"></path></svg>