<svg xmlns="http://www.w3.org/2000/svg" width="80" height="50" viewBox="0 0 80 50" fill="none"><path d="M32.4223 6.97367V5.07372H35.1796V3H30.3602V8.87362H35.1796V6.97367H32.4223ZM40.138 5.07372H42.0727V3H37.2417V5.07372C37.8905 5.72249 38.2264 6.03528 39.1648 6.97367C38.6203 6.97367 37.2417 6.97367 37.2417 6.97367V8.87362H42.0727V6.97367L40.138 5.07372ZM46.9847 5.07372H48.9078V3H44.0885V5.07372C44.7256 5.72249 45.0616 6.03528 46 6.97367C45.4555 6.97367 44.0885 6.97367 44.0885 6.97367V8.87362H48.9078V6.97367L46.9847 5.07372ZM24 11.6656L26.931 43.5592L39.6282 47L52.337 43.5592L55.268 11.6656H24ZM48.9889 21.9995L39.6398 26.0195H39.6166H48.6414L47.6103 37.9752L39.6398 40.3038L31.623 37.9289L31.1016 31.9163H35.0753L35.3302 35.0326L39.5935 36.1101L44.0305 34.8589L44.3318 29.831L30.8468 29.7962L30.5455 26.0195L39.6282 22.2312V22.2196L40.1496 21.9995H30.1864L29.7114 18.1532H49.3597H49.3712L48.9889 21.9995Z" fill="black"></path></svg>