<svg xmlns="http://www.w3.org/2000/svg" width="293" height="56" viewBox="0 0 293 56" fill="none"><path d="M96.0934 12.104C96.652 12.104 97.2105 12.4788 97.4587 12.9787L104.347 29.2229H101.058L99.8789 26.5363H88.2743L87.0952 29.2229H83.7441L90.8186 12.9162C91.0668 12.3539 91.5633 12.0415 92.1218 12.0415H96.0934V12.104ZM90.9427 23.7873H96.9622C97.7069 23.7873 98.2034 23.0376 97.9551 22.3503L95.3488 15.8526C95.1005 15.2903 94.6041 14.9155 93.9835 14.9155C93.425 14.9155 92.8665 15.2903 92.6183 15.7902L89.9498 22.2878C89.7016 22.9751 90.198 23.7873 90.9427 23.7873Z" fill="#3F3F3F"></path><path d="M73.0707 12.1044C77.9111 12.1044 82.2551 15.4157 82.2551 20.6638C82.2551 25.9119 77.849 29.2857 73.0707 29.2857H65.9341C65.1274 29.2857 64.5068 28.661 64.5068 27.8487V13.6038C64.5068 12.7916 65.1274 12.1669 65.9341 12.1669H73.0707V12.1044ZM67.6097 24.9123C67.6097 25.7245 68.2302 26.3493 69.037 26.3493H73.0086C76.67 26.3493 79.0902 24.0376 79.0902 20.6638C79.0902 17.29 76.6079 14.9784 73.0086 14.9784H69.037C68.2302 14.9784 67.6097 15.6031 67.6097 16.4153V24.9123Z" fill="#3F3F3F"></path><path d="M110.49 12.6042L118.806 22.0383C119.675 23.038 121.35 22.4132 121.35 21.0387V12.1044H124.453V29.2857H121.971C121.537 29.2857 121.164 29.0983 120.854 28.7859L112.538 19.3518C111.669 18.3521 109.994 18.9769 109.994 20.3514V29.3482H106.891V12.1669H109.373C109.808 12.1044 110.18 12.2918 110.49 12.6042Z" fill="#3F3F3F"></path><path d="M142.823 17.4148C141.458 15.5405 139.534 14.4784 136.741 14.4784C132.894 14.4784 130.473 16.915 130.473 20.6637C130.473 24.2874 133.018 26.849 136.741 26.849C139.596 26.849 141.395 25.7868 142.823 23.9125L145.305 25.3495C143.505 28.0985 140.713 29.6605 136.803 29.6605C131.404 29.6605 127.309 26.2242 127.309 20.6637C127.309 15.1031 131.466 11.6669 136.803 11.6669C140.651 11.6669 143.505 13.1663 145.243 15.9778L142.823 17.4148Z" fill="#3F3F3F"></path><path d="M163.363 12.104V14.978H152.689C151.883 14.978 151.262 15.6027 151.262 16.4149V17.602C151.262 18.4142 151.883 19.039 152.689 19.039H162.122V21.8505H152.689C151.883 21.8505 151.262 22.4753 151.262 23.2875V24.8494C151.262 25.6616 151.883 26.2864 152.689 26.2864H163.798V29.1604H149.524C148.718 29.1604 148.097 28.5356 148.097 27.7234V13.4785C148.097 12.6663 148.718 12.0415 149.524 12.0415H163.363V12.104Z" fill="#3F3F3F"></path><path d="M186.2 12.1044C190.11 12.1044 193.15 14.7284 193.15 18.727C193.15 22.7256 190.11 25.2872 186.2 25.2872H180.801C179.994 25.2872 179.374 25.9119 179.374 26.7242V29.2233H176.209V13.5414C176.209 12.7291 176.83 12.1044 177.636 12.1044H186.2ZM179.312 20.9137C179.312 21.7259 179.932 22.3507 180.739 22.3507H186.014C188.372 22.3507 189.986 20.9762 189.986 18.6645C189.986 16.3529 188.372 14.9159 186.014 14.9159H180.739C179.932 14.9159 179.312 15.5406 179.312 16.3529V20.9137Z" fill="#3F3F3F"></path><path d="M198.984 12.1044V24.9748C198.984 25.787 199.604 26.4118 200.411 26.4118H211.209V29.2857H197.246C196.439 29.2857 195.819 28.661 195.819 27.8487V12.1669H198.984V12.1044Z" fill="#3F3F3F"></path><path d="M225.606 12.104C226.165 12.104 226.723 12.4788 226.971 12.9787L233.86 29.2229H230.571L229.392 26.5363H217.787L216.608 29.2229H213.257L220.331 12.9162C220.58 12.3539 221.076 12.0415 221.635 12.0415H225.606V12.104ZM220.455 23.7873H226.475C227.22 23.7873 227.716 23.0376 227.468 22.3503L224.861 15.8526C224.613 15.2903 224.117 14.9155 223.496 14.9155C222.938 14.9155 222.379 15.2903 222.131 15.7902L219.463 22.2878C219.152 22.9751 219.711 23.7873 220.455 23.7873Z" fill="#3F3F3F"></path><path d="M240.314 12.9166L248.629 22.2882C249.436 23.1629 250.926 22.6006 250.926 21.4135V12.1044H254.028V29.2857H252.043C251.298 29.2857 250.615 28.9734 250.119 28.4111L241.865 19.1019C241.059 18.1647 239.569 18.7895 239.569 19.9766V29.3482H236.466V12.1669H238.576C239.197 12.1044 239.817 12.4168 240.314 12.9166Z" fill="#3F3F3F"></path><path d="M272.583 12.104V14.978H261.91C261.103 14.978 260.482 15.6027 260.482 16.4149V17.602C260.482 18.4142 261.103 19.039 261.91 19.039H271.342V21.8505H261.91C261.103 21.8505 260.482 22.4753 260.482 23.2875V24.8494C260.482 25.6616 261.103 26.2864 261.91 26.2864H273.018V29.1604H258.745C257.938 29.1604 257.317 28.5356 257.317 27.7234V13.4785C257.317 12.6663 257.938 12.0415 258.745 12.0415H272.583V12.104Z" fill="#3F3F3F"></path><path d="M293 12.1044V14.9784H287.229C286.422 14.9784 285.801 15.6031 285.801 16.4153V29.2857H282.637V16.4153C282.637 15.6031 282.016 14.9784 281.209 14.9784H275.438V12.1044H293Z" fill="#3F3F3F"></path><path d="M65.0033 43.5309C65.81 43.031 66.6788 42.7811 67.6097 42.7811C69.5955 42.7811 70.5263 43.6558 70.5263 45.2802V48.0917C70.5263 48.8415 70.8366 49.0914 71.209 49.0914C71.3331 49.0914 71.4572 49.0914 71.5813 49.0289L71.6434 49.5287C71.5193 49.5912 71.3331 49.6537 71.0849 49.6537C70.4643 49.6537 70.0299 49.3413 69.9678 48.3416C69.4093 49.1539 68.4164 49.6537 67.0512 49.6537C65.4997 49.6537 64.5068 48.8415 64.5068 47.467C64.5068 46.2174 65.4997 45.3427 67.3614 45.3427C68.2302 45.3427 69.1611 45.5302 69.9058 45.8425V45.2802C69.9058 43.9682 69.1611 43.2809 67.6717 43.2809C66.8029 43.2809 65.9962 43.4684 65.2515 43.9057L65.0033 43.5309ZM69.9058 46.4673C69.2231 46.1549 68.2923 45.9675 67.4235 45.9675C65.81 45.9675 65.1895 46.6547 65.1895 47.5919C65.1895 48.5291 65.9341 49.1538 67.2373 49.1538C68.5405 49.1538 69.9058 48.3416 69.9058 47.0296V46.4673V46.4673Z" fill="#3F3F3F"></path><path d="M73.8149 40.1569V49.591H73.1323V40.1569H73.8149Z" fill="#3F3F3F"></path><path d="M76.5454 40.1569V49.591H75.8628V40.1569H76.5454Z" fill="#3F3F3F"></path><path d="M83.3094 42.9057V42.2185C83.3094 40.7815 83.9921 39.7194 85.7297 39.7194C86.4743 39.7194 87.157 39.9068 87.7155 40.2817L87.3431 40.7815C86.9087 40.4691 86.3502 40.2817 85.7917 40.2817C84.4885 40.2817 83.9921 40.9689 83.9921 42.2185V42.9682H86.3502V43.5305H83.9921V49.5908H83.3094V43.5305H82.1304V42.9682L83.3094 42.9057Z" fill="#3F3F3F"></path><path d="M94.5423 46.2799C94.5423 48.2167 93.053 49.7786 90.943 49.7786C88.7711 49.7786 87.3438 48.2792 87.3438 46.2799C87.3438 44.3431 88.8331 42.7811 90.943 42.7811C93.115 42.7811 94.5423 44.2181 94.5423 46.2799ZM88.0884 46.2799C88.0884 47.9668 89.2054 49.2163 91.0051 49.2163C92.7427 49.2163 93.9218 48.0292 93.9218 46.2799C93.9218 44.6555 92.7427 43.3434 91.0051 43.3434C89.2054 43.3434 88.0884 44.593 88.0884 46.2799Z" fill="#3F3F3F"></path><path d="M96.8382 42.9058L96.9003 44.8426C97.4588 43.4056 98.4517 42.7184 99.817 42.7184C100.562 42.7184 101.244 42.9058 101.741 43.3432L101.368 43.843C100.872 43.4681 100.313 43.2807 99.6308 43.2807C98.3276 43.2807 97.4588 44.2179 96.9624 45.9048V49.5285H96.3418V42.8433H96.8382V42.9058Z" fill="#3F3F3F"></path><path d="M113.718 40.1569V49.591H113.221L113.097 47.7791C112.601 49.0912 111.422 49.7784 110.057 49.7784C108.071 49.7784 106.83 48.5289 106.83 46.2797C106.83 44.0929 108.381 42.7809 110.305 42.7809C111.422 42.7809 112.291 43.0933 113.035 43.6556V40.1569H113.718V40.1569ZM113.097 44.2804C112.291 43.6556 111.422 43.3432 110.491 43.3432C108.691 43.3432 107.512 44.4053 107.512 46.2797C107.512 48.154 108.691 49.1536 110.119 49.1536C111.546 49.1536 112.539 48.279 113.035 46.842V44.2804H113.097Z" fill="#3F3F3F"></path><path d="M115.952 43.5309C116.759 43.031 117.628 42.7811 118.558 42.7811C120.544 42.7811 121.475 43.6558 121.475 45.2802V48.0917C121.475 48.8415 121.785 49.0914 122.158 49.0914C122.282 49.0914 122.406 49.0914 122.53 49.0289L122.592 49.5287C122.468 49.5912 122.282 49.6537 122.034 49.6537C121.413 49.6537 120.979 49.3413 120.917 48.3416C120.358 49.1539 119.365 49.6537 118 49.6537C116.448 49.6537 115.456 48.8415 115.456 47.467C115.456 46.2174 116.448 45.3427 118.31 45.3427C119.179 45.3427 120.11 45.5302 120.855 45.8425V45.2802C120.855 43.9682 120.11 43.2809 118.62 43.2809C117.752 43.2809 116.945 43.4684 116.2 43.9057L115.952 43.5309ZM120.855 46.4673C120.172 46.1549 119.241 45.9675 118.372 45.9675C116.759 45.9675 116.138 46.6547 116.138 47.5919C116.138 48.5291 116.883 49.1538 118.186 49.1538C119.489 49.1538 120.855 48.3416 120.855 47.0296V46.4673Z" fill="#3F3F3F"></path><path d="M124.515 42.9058L124.639 44.8426C125.136 43.5306 126.129 42.7184 127.68 42.7184C129.293 42.7184 130.348 43.7805 130.348 45.5299V49.5285H129.666V45.6548C129.666 44.0304 128.859 43.2807 127.494 43.2807C126.129 43.2807 125.198 44.3428 124.639 45.8423V49.466H123.957V42.7809H124.515V42.9058Z" fill="#3F3F3F"></path><path d="M137.858 44.1554C137.299 43.6555 136.555 43.3432 135.562 43.3432C134.01 43.3432 132.707 44.4053 132.707 46.1547C132.707 47.9665 133.824 49.0911 135.562 49.0911C136.555 49.0911 137.361 48.7787 137.982 48.1539L138.354 48.5913C137.61 49.341 136.679 49.7159 135.5 49.7159C133.266 49.7159 131.962 48.2164 131.962 46.2171C131.962 44.0929 133.514 42.7184 135.5 42.7184C136.679 42.7184 137.61 43.0933 138.23 43.718L137.858 44.1554Z" fill="#3F3F3F"></path><path d="M140.402 46.4671C140.464 48.1539 141.643 49.0911 143.319 49.0911C144.25 49.0911 145.057 48.9037 145.801 48.3414L146.112 48.8412C145.305 49.4035 144.374 49.7159 143.257 49.7159C141.085 49.7159 139.72 48.4039 139.72 46.2171C139.72 44.2179 141.147 42.7184 143.257 42.7184C145.057 42.7184 146.298 43.9679 146.298 45.7798C146.298 46.0297 146.298 46.2796 146.236 46.4671H140.402V46.4671ZM145.677 45.9048C145.677 44.3428 144.87 43.3432 143.195 43.3432C141.643 43.3432 140.589 44.3428 140.402 45.9048H145.677Z" fill="#3F3F3F"></path><path d="M148.903 49.0283C148.903 49.4032 148.593 49.6531 148.221 49.6531C147.848 49.6531 147.538 49.4032 147.538 49.0283C147.538 48.6534 147.848 48.4035 148.221 48.4035C148.593 48.341 148.903 48.6534 148.903 49.0283Z" fill="#3F3F3F"></path><path d="M151.821 49.0283C151.821 49.4032 151.511 49.6531 151.138 49.6531C150.766 49.6531 150.456 49.4032 150.456 49.0283C150.456 48.6534 150.766 48.4035 151.138 48.4035C151.511 48.341 151.821 48.6534 151.821 49.0283Z" fill="#3F3F3F"></path><path d="M154.738 49.0283C154.738 49.4032 154.428 49.6531 154.055 49.6531C153.683 49.6531 153.373 49.4032 153.373 49.0283C153.373 48.6534 153.683 48.4035 154.055 48.4035C154.428 48.341 154.738 48.6534 154.738 49.0283Z" fill="#3F3F3F"></path><path d="M1.89332 38.1228C1.05278 39.0614 0.477662 40.2234 0.300704 41.5642C-0.451365 47.7765 0.433422 54.4805 0.521901 56H4.01681C4.41497 56 4.76888 55.7319 4.85736 55.3296C5.38823 53.1397 8.75042 44.1117 17.1559 35.7094C9.32554 35.6647 4.14953 36.9608 1.89332 38.1228Z" fill="#3F3F3F"></path><path d="M17.9962 0.223468L8.75015 0.804473C7.33449 0.893859 6.49394 2.32404 7.11329 3.66484L8.44047 6.56989C8.66167 7.06151 8.70591 7.64252 8.52895 8.13415L5.07828 19.3968C4.94556 19.799 5.34371 20.1566 5.74187 20.0225L10.2985 18.3242C10.5197 18.2348 10.7409 18.056 10.8294 17.8325L17.0229 5.58664C17.1999 5.27379 17.5095 5.05032 17.8635 5.05032C20.916 4.82685 36.0901 4.51401 31.5777 15.732C29.1445 21.7655 16.492 26.4136 11.493 28.4248C9.23678 29.3187 6.93633 30.7042 5.29947 32.5813C7.51144 31.7768 17.5095 29.274 25.9593 29.3634C32.4182 27.3969 42.3721 22.8829 43.4338 13.2739C45.1591 -2.27935 21.0929 0.0446958 17.9962 0.223468Z" fill="#3F3F3F"></path></svg>