<svg xmlns="http://www.w3.org/2000/svg" width="299" height="385" viewBox="0 0 299 385" fill="none"><path d="M164.712 146.278C164.988 146.278 165.264 146.464 165.386 146.711L168.79 154.737H167.165L166.582 153.409H160.849L160.266 154.737H158.61L162.106 146.68C162.228 146.402 162.474 146.248 162.75 146.248H164.712V146.278ZM162.167 152.051H165.141C165.509 152.051 165.754 151.681 165.632 151.341L164.344 148.131C164.221 147.853 163.976 147.668 163.669 147.668C163.393 147.668 163.118 147.853 162.995 148.1L161.676 151.31C161.554 151.65 161.799 152.051 162.167 152.051Z" fill="white"></path><path d="M153.338 146.279C155.729 146.279 157.875 147.915 157.875 150.508C157.875 153.101 155.699 154.768 153.338 154.768H149.812C149.413 154.768 149.106 154.459 149.106 154.058V147.02C149.106 146.618 149.413 146.31 149.812 146.31H153.338V146.279ZM150.639 152.607C150.639 153.008 150.946 153.317 151.345 153.317H153.307C155.116 153.317 156.312 152.175 156.312 150.508C156.312 148.841 155.085 147.699 153.307 147.699H151.345C150.946 147.699 150.639 148.007 150.639 148.409V152.607Z" fill="white"></path><path d="M171.826 146.526L175.935 151.187C176.364 151.681 177.192 151.372 177.192 150.693V146.279H178.725V154.768H177.498C177.284 154.768 177.1 154.675 176.947 154.521L172.838 149.86C172.409 149.366 171.581 149.674 171.581 150.353V154.799H170.048V146.31H171.274C171.489 146.279 171.673 146.371 171.826 146.526Z" fill="white"></path><path d="M187.8 148.902C187.125 147.976 186.175 147.452 184.795 147.452C182.894 147.452 181.698 148.655 181.698 150.508C181.698 152.298 182.956 153.564 184.795 153.564C186.206 153.564 187.095 153.039 187.8 152.113L189.026 152.823C188.137 154.181 186.758 154.953 184.826 154.953C182.158 154.953 180.135 153.255 180.135 150.508C180.135 147.76 182.189 146.062 184.826 146.062C186.727 146.062 188.137 146.803 188.996 148.192L187.8 148.902Z" fill="white"></path><path d="M197.949 146.278V147.698H192.675C192.277 147.698 191.97 148.007 191.97 148.408V148.995C191.97 149.396 192.277 149.705 192.675 149.705H197.336V151.094H192.675C192.277 151.094 191.97 151.403 191.97 151.804V152.576C191.97 152.977 192.277 153.286 192.675 153.286H198.163V154.706H191.111C190.713 154.706 190.406 154.397 190.406 153.996V146.958C190.406 146.556 190.713 146.248 191.111 146.248H197.949V146.278Z" fill="white"></path><path d="M209.232 146.279C211.164 146.279 212.666 147.575 212.666 149.551C212.666 151.527 211.164 152.792 209.232 152.792H206.565C206.166 152.792 205.86 153.101 205.86 153.502V154.737H204.296V146.989C204.296 146.587 204.603 146.279 205.001 146.279H209.232ZM205.829 150.631C205.829 151.033 206.136 151.341 206.534 151.341H209.14C210.305 151.341 211.103 150.662 211.103 149.52C211.103 148.378 210.305 147.668 209.14 147.668H206.534C206.136 147.668 205.829 147.977 205.829 148.378V150.631Z" fill="white"></path><path d="M215.548 146.279V152.638C215.548 153.039 215.855 153.348 216.253 153.348H221.588V154.768H214.69C214.291 154.768 213.984 154.459 213.984 154.058V146.31H215.548V146.279Z" fill="white"></path><path d="M228.702 146.278C228.978 146.278 229.254 146.464 229.377 146.711L232.78 154.737H231.155L230.572 153.409H224.839L224.256 154.737H222.601L226.096 146.68C226.219 146.402 226.464 146.248 226.74 146.248H228.702V146.278ZM226.157 152.051H229.131C229.499 152.051 229.745 151.681 229.622 151.341L228.334 148.131C228.212 147.853 227.966 147.668 227.66 147.668C227.384 147.668 227.108 147.853 226.985 148.1L225.667 151.31C225.513 151.65 225.789 152.051 226.157 152.051Z" fill="white"></path><path d="M235.968 146.68L240.077 151.31C240.476 151.743 241.211 151.465 241.211 150.878V146.279H242.744V154.768H241.763C241.395 154.768 241.058 154.613 240.813 154.336L236.735 149.736C236.336 149.273 235.6 149.582 235.6 150.168V154.799H234.067V146.31H235.11C235.416 146.279 235.723 146.433 235.968 146.68Z" fill="white"></path><path d="M251.913 146.278V147.698H246.639C246.24 147.698 245.934 148.007 245.934 148.408V148.995C245.934 149.396 246.24 149.705 246.639 149.705H251.299V151.094H246.639C246.24 151.094 245.934 151.403 245.934 151.804V152.576C245.934 152.977 246.24 153.286 246.639 153.286H252.127V154.706H245.075C244.677 154.706 244.37 154.397 244.37 153.996V146.958C244.37 146.556 244.677 146.248 245.075 146.248H251.913V146.278Z" fill="white"></path><path d="M262 146.279V147.699H259.149C258.75 147.699 258.444 148.007 258.444 148.409V154.768H256.88V148.409C256.88 148.007 256.573 147.699 256.175 147.699H253.323V146.279H262Z" fill="white"></path><path d="M149.352 161.806C149.75 161.559 150.18 161.436 150.639 161.436C151.621 161.436 152.081 161.868 152.081 162.67V164.059C152.081 164.43 152.234 164.553 152.418 164.553C152.479 164.553 152.54 164.553 152.602 164.522L152.632 164.769C152.571 164.8 152.479 164.831 152.357 164.831C152.05 164.831 151.835 164.677 151.805 164.183C151.529 164.584 151.038 164.831 150.364 164.831C149.597 164.831 149.106 164.43 149.106 163.751C149.106 163.133 149.597 162.701 150.517 162.701C150.946 162.701 151.406 162.794 151.774 162.948V162.67C151.774 162.022 151.406 161.682 150.67 161.682C150.241 161.682 149.842 161.775 149.474 161.991L149.352 161.806ZM151.774 163.257C151.437 163.102 150.977 163.01 150.548 163.01C149.75 163.01 149.444 163.349 149.444 163.812C149.444 164.275 149.812 164.584 150.456 164.584C151.099 164.584 151.774 164.183 151.774 163.535V163.257Z" fill="white"></path><path d="M153.705 160.139V164.8H153.368V160.139H153.705Z" fill="white"></path><path d="M155.054 160.139V164.8H154.717V160.139H155.054Z" fill="white"></path><path d="M158.396 161.497V161.158C158.396 160.448 158.733 159.923 159.592 159.923C159.96 159.923 160.297 160.015 160.573 160.201L160.389 160.448C160.174 160.293 159.898 160.201 159.622 160.201C158.979 160.201 158.733 160.54 158.733 161.158V161.528H159.898V161.806H158.733V164.8H158.396V161.806H157.813V161.528L158.396 161.497Z" fill="white"></path><path d="M163.946 163.164C163.946 164.121 163.21 164.893 162.168 164.893C161.095 164.893 160.39 164.152 160.39 163.164C160.39 162.207 161.126 161.436 162.168 161.436C163.241 161.436 163.946 162.146 163.946 163.164ZM160.758 163.164C160.758 163.998 161.309 164.615 162.199 164.615C163.057 164.615 163.64 164.029 163.64 163.164C163.64 162.362 163.057 161.713 162.199 161.713C161.309 161.713 160.758 162.331 160.758 163.164Z" fill="white"></path><path d="M165.081 161.497L165.112 162.454C165.388 161.744 165.878 161.404 166.553 161.404C166.921 161.404 167.258 161.497 167.503 161.713L167.319 161.96C167.074 161.775 166.798 161.682 166.461 161.682C165.817 161.682 165.388 162.145 165.143 162.979V164.769H164.836V161.466H165.081V161.497Z" fill="white"></path><path d="M173.42 160.139V164.8H173.175L173.113 163.905C172.868 164.553 172.286 164.893 171.611 164.893C170.63 164.893 170.017 164.276 170.017 163.164C170.017 162.084 170.783 161.436 171.734 161.436C172.286 161.436 172.715 161.59 173.083 161.868V160.139H173.42ZM173.113 162.177C172.715 161.868 172.286 161.713 171.826 161.713C170.936 161.713 170.354 162.238 170.354 163.164C170.354 164.09 170.936 164.584 171.642 164.584C172.347 164.584 172.837 164.152 173.083 163.442V162.177H173.113Z" fill="white"></path><path d="M174.525 161.806C174.923 161.559 175.352 161.436 175.812 161.436C176.793 161.436 177.253 161.868 177.253 162.67V164.059C177.253 164.43 177.407 164.553 177.591 164.553C177.652 164.553 177.713 164.553 177.775 164.522L177.805 164.769C177.744 164.8 177.652 164.831 177.529 164.831C177.223 164.831 177.008 164.677 176.977 164.183C176.702 164.584 176.211 164.831 175.536 164.831C174.77 164.831 174.279 164.43 174.279 163.751C174.279 163.133 174.77 162.701 175.69 162.701C176.119 162.701 176.579 162.794 176.947 162.948V162.67C176.947 162.022 176.579 161.682 175.843 161.682C175.414 161.682 175.015 161.775 174.647 161.991L174.525 161.806ZM176.947 163.257C176.61 163.102 176.15 163.01 175.72 163.01C174.923 163.01 174.617 163.349 174.617 163.812C174.617 164.275 174.985 164.584 175.628 164.584C176.272 164.584 176.947 164.183 176.947 163.535V163.257Z" fill="white"></path><path d="M178.754 161.497L178.816 162.454C179.061 161.806 179.552 161.404 180.318 161.404C181.115 161.404 181.637 161.929 181.637 162.793V164.769H181.299V162.855C181.299 162.053 180.901 161.682 180.226 161.682C179.552 161.682 179.092 162.207 178.816 162.948V164.738H178.479V161.435H178.754V161.497Z" fill="white"></path><path d="M185.347 162.114C185.071 161.867 184.703 161.713 184.213 161.713C183.446 161.713 182.803 162.238 182.803 163.102C182.803 163.997 183.354 164.553 184.213 164.553C184.703 164.553 185.102 164.399 185.409 164.09L185.593 164.306C185.225 164.676 184.765 164.862 184.182 164.862C183.078 164.862 182.435 164.121 182.435 163.133C182.435 162.083 183.201 161.404 184.182 161.404C184.765 161.404 185.225 161.59 185.531 161.898L185.347 162.114Z" fill="white"></path><path d="M186.605 163.256C186.636 164.09 187.218 164.553 188.046 164.553C188.506 164.553 188.904 164.46 189.272 164.183L189.426 164.429C189.027 164.707 188.567 164.862 188.015 164.862C186.942 164.862 186.268 164.213 186.268 163.133C186.268 162.145 186.973 161.404 188.015 161.404C188.904 161.404 189.518 162.022 189.518 162.917C189.518 163.04 189.518 163.164 189.487 163.256H186.605ZM189.211 162.979C189.211 162.207 188.812 161.713 187.985 161.713C187.218 161.713 186.697 162.207 186.605 162.979H189.211Z" fill="white"></path><path d="M190.804 164.522C190.804 164.707 190.651 164.831 190.467 164.831C190.283 164.831 190.13 164.707 190.13 164.522C190.13 164.337 190.283 164.213 190.467 164.213C190.651 164.183 190.804 164.337 190.804 164.522Z" fill="white"></path><path d="M192.247 164.522C192.247 164.707 192.093 164.831 191.91 164.831C191.726 164.831 191.572 164.707 191.572 164.522C191.572 164.337 191.726 164.213 191.91 164.213C192.093 164.183 192.247 164.337 192.247 164.522Z" fill="white"></path><path d="M193.687 164.522C193.687 164.707 193.534 164.831 193.35 164.831C193.166 164.831 193.013 164.707 193.013 164.522C193.013 164.337 193.166 164.213 193.35 164.213C193.534 164.183 193.687 164.337 193.687 164.522Z" fill="white"></path><path d="M118.171 159.134C117.756 159.598 117.471 160.172 117.384 160.834C117.012 163.904 117.449 167.216 117.493 167.967H119.22C119.417 167.967 119.592 167.834 119.635 167.635C119.898 166.553 121.559 162.093 125.712 157.941C121.843 157.919 119.286 158.56 118.171 159.134Z" fill="white"></path><path d="M126.127 140.409L121.559 140.696C120.859 140.74 120.444 141.447 120.75 142.109L121.405 143.544C121.515 143.787 121.537 144.074 121.449 144.317L119.744 149.882C119.679 150.081 119.875 150.257 120.072 150.191L122.324 149.352C122.433 149.308 122.542 149.219 122.586 149.109L125.646 143.059C125.733 142.904 125.886 142.794 126.061 142.794C127.569 142.683 135.067 142.529 132.837 148.071C131.635 151.052 125.384 153.349 122.914 154.342C121.799 154.784 120.662 155.469 119.854 156.396C120.946 155.999 125.886 154.762 130.061 154.806C133.252 153.835 138.17 151.604 138.695 146.857C139.547 139.172 127.657 140.32 126.127 140.409Z" fill="white"></path><g opacity="0.07"><path d="M13.0051 261.863C7.2315 268.31 3.28105 276.292 2.06554 285.502C-3.10038 328.174 2.97717 374.223 3.58492 384.661H27.5912C30.3262 384.661 32.7571 382.819 33.3649 380.056C37.0114 365.013 60.1061 303 117.843 245.286C64.0565 244.979 28.5029 253.881 13.0051 261.863Z" fill="white"></path><path d="M123.618 1.53497L60.1077 5.52585C50.3836 6.13984 44.6099 15.9637 48.8642 25.1735L57.9806 45.1281C59.4999 48.505 59.8038 52.4959 58.5883 55.8729L34.8858 133.235C33.9742 135.998 36.7091 138.454 39.444 137.533L70.7434 125.868C72.2627 125.254 73.7822 124.025 74.3899 122.49L116.933 38.3742C118.148 36.2253 120.275 34.6903 122.706 34.6903C143.674 33.1553 247.904 31.0064 216.908 108.062C200.195 149.506 113.286 181.433 78.9481 195.248C63.4504 201.388 47.6487 210.905 36.4052 223.799C51.5991 218.273 120.275 201.081 178.316 201.695C222.682 188.187 291.054 157.181 298.348 91.1775C310.199 -15.6567 144.89 0.306994 123.618 1.53497Z" fill="white"></path></g><path fill-rule="evenodd" clip-rule="evenodd" d="M139.415 100.028H247.212V133.039H245.295V101.946H141.333V133.039H139.415V100.028Z" fill="white"></path><path fill-rule="evenodd" clip-rule="evenodd" d="M139.415 208.1H247.212V175.089H245.295V206.182H141.333V175.089H139.415V208.1Z" fill="white"></path></svg>