<svg xmlns="http://www.w3.org/2000/svg" width="80" height="50" viewBox="0 0 80 50" fill="none"><g clip-path="url(#clip0_790_1811)"><path d="M39.9995 45.9953V37.8516C48.6247 37.8516 55.3138 29.3084 52.0051 20.2427C50.7759 16.8726 48.1125 14.2195 44.7424 12.9902C35.6665 9.702 27.1232 16.3706 27.1232 24.9753H19C19 11.2488 32.286 0.544153 46.6887 5.04113C52.9783 7.01816 58.0079 12.0068 59.9542 18.2964C64.4614 32.7195 53.767 45.9953 39.9995 45.9953ZM31.9275 37.8824H40.0303V29.7899H31.9275V37.8824ZM25.6891 44.1105H31.9275V37.8824H25.6891V44.1105ZM20.4751 37.8824H25.6891V32.6683H20.4751V37.8824Z" fill="black"></path></g><defs><clipPath id="clip0_790_1811"><rect width="80" height="50" fill="white"></rect></clipPath></defs></svg>