<svg xmlns="http://www.w3.org/2000/svg" width="80" height="50" viewBox="0 0 80 50" fill="none"><path d="M61.7814 20.57C61.2814 20.3 60.8014 19.98 60.2714 19.79C59.1314 19.4 57.9414 19.39 56.7414 19.52C56.5314 19.55 56.3114 19.56 56.0714 19.58C55.5814 17.18 54.2914 15.46 52.1414 14.32C50.3414 17.02 49.7014 19.77 51.3014 22.8C51.1114 22.89 50.9414 22.98 50.7714 23.05C49.7914 23.42 48.7814 23.58 47.7314 23.58C38.1114 23.59 28.4814 23.59 18.8514 23.59C18.7114 23.59 18.5714 23.58 18.4314 23.59C17.5814 23.61 17.0114 24.18 17.0014 25.05C16.9714 27.94 17.4214 30.75 18.5314 33.43C19.2014 35.04 20.1014 36.5 21.3814 37.7C22.9014 39.13 24.7414 39.89 26.7214 40.32C31.5214 41.37 36.3014 41.21 41.0114 39.76C44.6314 38.64 47.7414 36.67 50.2714 33.77C52.0414 31.74 53.3614 29.43 54.4314 26.96C54.6614 26.41 54.8914 25.87 55.1214 25.31C55.3014 25.31 55.4514 25.31 55.6114 25.31C56.7614 25.29 57.8714 25.09 58.9114 24.56C60.3514 23.82 61.4114 22.72 61.9514 21.14C62.0414 20.88 62.0114 20.7 61.7814 20.57ZM37.8614 17.53C39.0814 17.54 40.3014 17.54 41.5214 17.53C41.9314 17.53 42.0414 17.41 42.0514 16.99C42.0614 15.9 42.0514 14.81 42.0514 13.73C42.0414 13.3 41.9414 13.2 41.5214 13.2C40.9214 13.19 40.3214 13.19 39.7114 13.19C39.0914 13.19 38.4714 13.19 37.8514 13.2C37.4214 13.2 37.3514 13.28 37.3414 13.73C37.3314 14.81 37.3314 15.9 37.3414 16.99C37.3514 17.42 37.4514 17.53 37.8614 17.53ZM26.7914 17.53C28.0114 17.54 29.2314 17.54 30.4514 17.53C30.8714 17.53 30.9714 17.42 30.9714 16.99C30.9814 15.91 30.9814 14.82 30.9714 13.73C30.9714 13.27 30.8914 13.2 30.4114 13.2C29.8214 13.19 29.2414 13.19 28.6514 13.19C28.0314 13.19 27.4114 13.19 26.7914 13.2C26.3714 13.2 26.2714 13.3 26.2714 13.72C26.2614 14.81 26.2614 15.9 26.2614 16.99C26.2714 17.41 26.3814 17.53 26.7914 17.53ZM32.3514 17.53C33.5714 17.54 34.7914 17.54 36.0114 17.53C36.4314 17.53 36.5314 17.42 36.5314 16.99C36.5414 15.9 36.5414 14.82 36.5314 13.73C36.5314 13.29 36.4514 13.21 36.0214 13.2C35.4214 13.19 34.8214 13.2 34.2114 13.2C33.6014 13.2 32.9814 13.19 32.3614 13.2C31.9214 13.2 31.8414 13.28 31.8414 13.73C31.8314 14.81 31.8314 15.9 31.8414 16.98C31.8414 17.42 31.9414 17.53 32.3514 17.53ZM21.2714 22.73C22.5314 22.72 23.7814 22.72 25.0414 22.72C25.3414 22.72 25.4814 22.58 25.4814 22.28C25.4814 21.14 25.4814 20 25.4814 18.86C25.4914 18.52 25.3314 18.38 25.0114 18.39C24.3914 18.4 23.7714 18.39 23.1514 18.39C22.5314 18.39 21.9114 18.38 21.2914 18.39C20.9014 18.4 20.7914 18.49 20.7914 18.89C20.7814 20.01 20.7814 21.13 20.7914 22.25C20.7914 22.57 20.9514 22.73 21.2714 22.73ZM37.8214 12.32C38.4414 12.31 39.0614 12.31 39.6814 12.31C40.2814 12.31 40.8814 12.32 41.4814 12.31C41.9614 12.31 42.0414 12.23 42.0514 11.72C42.0514 10.67 42.0514 9.62 42.0514 8.57C42.0414 8.1 41.9614 8.01 41.5114 8C40.2914 8 39.0714 8 37.8514 8C37.4414 8.01 37.3514 8.09 37.3414 8.49C37.3314 9.61 37.3414 10.73 37.3414 11.85C37.3414 12.19 37.4914 12.32 37.8214 12.32ZM30.4314 18.39C29.2214 18.39 28.0214 18.39 26.8114 18.39C26.3614 18.4 26.2714 18.49 26.2614 18.95C26.2614 20.02 26.2614 21.09 26.2614 22.16C26.2714 22.62 26.3714 22.72 26.8214 22.72C27.4214 22.73 28.0214 22.72 28.6214 22.72C29.2314 22.72 29.8314 22.73 30.4314 22.72C30.8814 22.72 30.9714 22.63 30.9714 22.16C30.9814 21.09 30.9814 20.02 30.9714 18.95C30.9714 18.48 30.8914 18.4 30.4314 18.39ZM41.5514 18.39C40.3114 18.39 39.0814 18.39 37.8414 18.39C37.4414 18.4 37.3514 18.48 37.3414 18.89C37.3314 20 37.3314 21.1 37.3414 22.21C37.3514 22.64 37.4414 22.71 37.8814 22.72C38.4614 22.73 39.0514 22.72 39.6314 22.72C40.2714 22.72 40.9114 22.73 41.5414 22.72C41.9314 22.71 42.0414 22.61 42.0414 22.22C42.0614 21.11 42.0514 20.01 42.0414 18.9C42.0414 18.5 41.9314 18.4 41.5514 18.39ZM36.0014 18.39C35.4014 18.39 34.7914 18.39 34.1914 18.39C33.5714 18.39 32.9614 18.38 32.3414 18.39C31.9414 18.4 31.8514 18.49 31.8414 18.89C31.8314 19.99 31.8314 21.1 31.8414 22.2C31.8414 22.6 31.9514 22.72 32.3214 22.72C33.5614 22.73 34.8014 22.73 36.0414 22.72C36.4314 22.72 36.5314 22.62 36.5314 22.22C36.5414 21.11 36.5414 20.01 36.5314 18.91C36.5314 18.47 36.4414 18.4 36.0014 18.39ZM43.4114 22.72C44.6114 22.73 45.8214 22.73 47.0214 22.72C47.4814 22.72 47.5714 22.64 47.5814 22.17C47.5914 21.09 47.5914 20 47.5814 18.92C47.5714 18.47 47.4914 18.4 47.0514 18.39C46.4514 18.38 45.8514 18.39 45.2514 18.39C44.6514 18.39 44.0414 18.39 43.4414 18.39C42.9714 18.4 42.9014 18.46 42.9014 18.94C42.8914 20.02 42.8914 21.11 42.9014 22.19C42.9014 22.63 42.9814 22.72 43.4114 22.72Z" fill="black"></path></svg>