<svg xmlns="http://www.w3.org/2000/svg" width="80" height="50" viewBox="0 0 80 50" fill="none"><path d="M16 16H22.6908C24.1996 16 25.3498 16.1146 26.1413 16.3438C27.2049 16.6548 28.116 17.2074 28.8746 18.0014C29.6331 18.7954 30.2102 19.7694 30.606 20.9236C31.0018 22.0696 31.1996 23.4857 31.1996 25.1719C31.1996 26.6535 31.0141 27.9304 30.6431 29.0027C30.1896 30.3124 29.5424 31.3724 28.7014 32.1828C28.0665 32.7967 27.2091 33.2756 26.129 33.6194C25.321 33.8731 24.2409 34 22.8887 34H16V16ZM19.6608 19.045V30.9673H22.394C23.4164 30.9673 24.1543 30.91 24.6078 30.7954C25.2014 30.648 25.692 30.3984 26.0795 30.0464C26.4753 29.6944 26.7968 29.1173 27.0442 28.3151C27.2915 27.5048 27.4152 26.4038 27.4152 25.0123C27.4152 23.6207 27.2915 22.5525 27.0442 21.8076C26.7968 21.0628 26.4505 20.4816 26.0053 20.0641C25.5601 19.6467 24.9953 19.3643 24.311 19.2169C23.7998 19.1023 22.798 19.045 21.3057 19.045H19.6608Z" fill="black"></path><path d="M38.9417 34L32.4611 16H36.4311L41.0194 29.322L45.4594 16H49.3428L42.8498 34H38.9417Z" fill="black"></path><path d="M51.2102 34V16H64.6537V19.045H54.871V23.0355H63.9735V26.0682H54.871V30.9673H65V34H51.2102Z" fill="black"></path></svg>