<svg xmlns="http://www.w3.org/2000/svg" width="80" height="50" viewBox="0 0 80 50" fill="none"><path d="M48.9508 19.2295C52.3049 19.2295 54.9983 21.9738 54.9983 25.3278C54.9983 28.6819 52.3049 31.4262 48.9508 31.4262H21.9148C21.3049 29.4951 21 27.4623 21 25.3278C21 23.1934 21.3049 21.1606 21.9148 19.2295H48.9508Z" fill="black"></path><path d="M50.78 33.459H37.5669C37.1603 34.3737 36.703 35.2377 36.1948 36.0508C35.4325 37.3213 34.5177 38.4393 33.5013 39.5065C33.1456 39.8623 32.7899 40.1672 32.4341 40.5229C31.7226 41.1836 30.9095 41.7426 30.0964 42.3016C33.298 44.436 37.1603 45.6557 41.2767 45.6557C48.3406 45.6557 54.5406 42.0475 58.1997 36.6098C56.3193 34.6787 53.6767 33.459 50.78 33.459Z" fill="black"></path><path d="M36.1948 36.0508C36.703 35.2377 37.1603 34.3737 37.5669 33.459H22.6768C24.2522 37.0672 26.844 40.1672 30.1472 42.3016C30.9604 41.7426 31.7226 41.1836 32.4849 40.5229C32.8407 40.218 33.1964 39.8623 33.5522 39.5065C34.5177 38.4901 35.4325 37.3213 36.1948 36.0508Z" fill="black"></path><path fill-rule="evenodd" clip-rule="evenodd" d="M30.0964 8.35409C33.2981 6.21967 37.1604 5 41.2767 5C48.3407 5 54.5407 8.60819 58.1997 14.0459C56.3194 15.977 53.6767 17.1967 50.78 17.1967H37.5161L22.626 17.1968C24.2522 13.5886 26.844 10.4885 30.0964 8.35409Z" fill="black"></path></svg>