<svg xmlns="http://www.w3.org/2000/svg" width="100" height="60" viewBox="0 0 100 60" fill="none"><path fill-rule="evenodd" clip-rule="evenodd" d="M21.2072 25.591C20.9572 26.7022 20.824 27.976 20.824 29.424C20.824 30.869 20.9566 32.1613 21.2084 33.3101C21.459 34.4221 21.806 35.3186 22.2216 36.0313C22.6304 36.7013 23.0713 37.1723 23.5252 37.4973C23.9557 37.7568 24.4225 37.888 24.968 37.888C25.527 37.888 25.9728 37.7506 26.3632 37.4981C26.8503 37.1715 27.3061 36.7002 27.7144 36.0312C28.13 35.3185 28.477 34.422 28.7277 33.3099C28.9794 32.1612 29.112 30.8689 29.112 29.424C29.112 27.976 28.9788 26.7022 28.7288 25.591L28.7265 25.5808C28.4731 24.4264 28.1251 23.5413 27.7224 22.878L27.7144 22.8648L27.7066 22.8514C27.2954 22.1499 26.8512 21.7035 26.404 21.424L26.3623 21.3979L26.3219 21.3698C25.9334 21.0996 25.5029 20.96 24.968 20.96C24.4326 20.96 23.971 21.1004 23.5334 21.3921L23.525 21.3977L23.5165 21.4032C23.0918 21.6802 22.6513 22.1318 22.2294 22.8514L22.2216 22.8648L22.2136 22.878C21.8109 23.5413 21.4629 24.4264 21.2095 25.5808L21.2072 25.591ZM29.432 37.056C28.888 37.952 28.232 38.656 27.464 39.168C26.728 39.648 25.896 39.888 24.968 39.888C24.04 39.888 23.192 39.648 22.424 39.168C21.688 38.656 21.048 37.952 20.504 37.056C19.96 36.128 19.544 35.024 19.256 33.744C18.968 32.432 18.824 30.992 18.824 29.424C18.824 27.856 18.968 26.432 19.256 25.152C19.544 23.84 19.96 22.736 20.504 21.84C21.048 20.912 21.688 20.208 22.424 19.728C23.192 19.216 24.04 18.96 24.968 18.96C25.896 18.96 26.728 19.216 27.464 19.728C28.232 20.208 28.888 20.912 29.432 21.84C29.976 22.736 30.392 23.84 30.68 25.152C30.968 26.432 31.112 27.856 31.112 29.424C31.112 30.992 30.968 32.432 30.68 33.744C30.392 35.024 29.976 36.128 29.432 37.056ZM10.9045 39.6057L10.9004 39.5963C9.60717 36.6866 9 33.2749 9 29.424C9 25.5731 9.60717 22.1614 10.9004 19.2517L10.9045 19.2423L10.9088 19.233C12.2276 16.3459 14.106 14.0509 16.5713 12.4421C19.0376 10.8005 21.8596 10 24.968 10C28.1834 10 31.0645 10.7902 33.5203 12.4498C35.9586 14.0655 37.7884 16.3692 39.0398 19.2612C40.3302 22.1689 40.936 25.5773 40.936 29.424C40.936 33.2707 40.3302 36.6791 39.0398 39.5868C37.7881 42.4795 35.9602 44.7946 33.5291 46.4402L33.5203 46.4462L33.5115 46.452C31.0558 48.0766 28.1781 48.848 24.968 48.848C21.8654 48.848 19.0467 48.0667 16.5802 46.4597L16.5714 46.454L16.5626 46.4481C14.1043 44.8093 12.2279 42.5026 10.9088 39.615L10.9045 39.6057ZM37.208 38.784C38.36 36.192 38.936 33.072 38.936 29.424C38.936 25.776 38.36 22.656 37.208 20.064C36.088 17.472 34.488 15.488 32.408 14.112C30.328 12.704 27.848 12 24.968 12C22.216 12 19.784 12.704 17.672 14.112C15.56 15.488 13.912 17.472 12.728 20.064C11.576 22.656 11 25.776 11 29.424C11 33.072 11.576 36.192 12.728 38.784C13.912 41.376 15.56 43.376 17.672 44.784C19.784 46.16 22.216 46.848 24.968 46.848C27.848 46.848 30.328 46.16 32.408 44.784C34.488 43.376 36.088 41.376 37.208 38.784ZM63.7092 31.44C63.2292 30.576 62.5572 29.904 61.6932 29.424C60.8612 28.944 59.9172 28.704 58.8612 28.704C57.7732 28.704 56.7972 28.944 55.9332 29.424C55.1012 29.904 54.4292 30.576 53.9172 31.44C53.4372 32.304 53.1972 33.296 53.1972 34.416C53.1972 35.568 53.4372 36.576 53.9172 37.44C54.4292 38.272 55.1012 38.928 55.9332 39.408C56.7972 39.856 57.7732 40.08 58.8612 40.08C59.9172 40.08 60.8612 39.856 61.6932 39.408C62.5572 38.928 63.2292 38.272 63.7092 37.44C64.2212 36.576 64.4772 35.568 64.4772 34.416C64.4772 33.296 64.2212 32.304 63.7092 31.44ZM60.7336 37.6532C61.2844 37.3448 61.6855 36.9456 61.9769 36.4406L61.9827 36.4304L61.9887 36.4204C62.2922 35.9082 62.4772 35.2629 62.4772 34.416C62.4772 33.6124 62.2973 32.9804 61.9887 32.4596L61.9745 32.4356L61.9609 32.4113C61.6623 31.8738 61.2595 31.4709 60.722 31.1723L60.7078 31.1645L60.6938 31.1564C60.1953 30.8688 59.6022 30.704 58.8612 30.704C58.0849 30.704 57.4533 30.8707 56.9186 31.1645C56.4117 31.4601 55.9919 31.8706 55.6524 32.4351C55.3664 32.9599 55.1972 33.6023 55.1972 34.416C55.1972 35.2637 55.3675 35.9154 55.6447 36.4306C55.9735 36.9522 56.3852 37.3516 56.8936 37.6528C57.4329 37.9241 58.0748 38.08 58.8612 38.08C59.6201 38.08 60.2282 37.9228 60.7336 37.6532ZM59.1032 23.8889C59.9236 23.6437 60.9274 23.5207 62.1144 23.52C62.118 23.52 62.1216 23.52 62.1252 23.52C63.3732 23.52 64.6052 23.776 65.8212 24.288C67.0692 24.768 68.1892 25.488 69.1812 26.448C70.2052 27.376 71.0052 28.512 71.5812 29.856C72.1892 31.2 72.4932 32.72 72.4932 34.416C72.4932 37.168 71.8692 39.488 70.6213 41.376C69.4052 43.232 67.7572 44.64 65.6772 45.6C63.6292 46.528 61.3572 46.992 58.8612 46.992C56.3332 46.992 54.0292 46.528 51.9492 45.6C49.9012 44.64 48.2532 43.232 47.0052 41.376C45.7892 39.488 45.1812 37.168 45.1812 34.416C45.1812 32.624 45.5492 30.96 46.2852 29.424C47.0532 27.888 47.9812 26.448 49.0692 25.104L58.7652 12.768H69.0373L59.1032 23.8889ZM63.7889 21.6455L73.5056 10.768H57.7934L47.5055 23.8571C46.331 25.3095 45.3274 26.8676 44.4964 28.5296L44.4889 28.5446L44.4816 28.5598C43.6096 30.3796 43.1812 32.3408 43.1812 34.416C43.1812 37.4651 43.8573 40.182 45.3238 42.459L45.3345 42.4756L45.3456 42.492C46.7983 44.6524 48.728 46.2989 51.1004 47.4109L51.1173 47.4188L51.1344 47.4265C53.4977 48.4809 56.0835 48.992 58.8612 48.992C61.6104 48.992 64.1681 48.4796 66.5027 47.4217L66.5154 47.4159C68.9226 46.3049 70.8638 44.6539 72.2918 42.4757C73.7974 40.1965 74.4932 37.4732 74.4932 34.416C74.4932 32.4853 74.1475 30.6842 73.4117 29.05C72.7341 27.4754 71.7815 26.1119 70.5487 24.9882C69.3832 23.866 68.0538 23.0084 66.5686 22.4327C65.6597 22.0526 64.7321 21.7884 63.7889 21.6455ZM79.9084 47.4942C78.6714 46.2572 78.0266 44.7093 78.0266 42.96C78.0266 41.2107 78.6714 39.6628 79.9084 38.4258C81.1669 37.1673 82.7563 36.544 84.5386 36.544C86.3541 36.544 87.9871 37.1482 89.2433 38.4527C90.4396 39.6951 91.0506 41.2346 91.0506 42.96C91.0506 44.6854 90.4396 46.2249 89.2433 47.4673C87.9871 48.7718 86.3541 49.376 84.5386 49.376C82.7563 49.376 81.1669 48.7527 79.9084 47.4942ZM81.3226 46.08C80.4586 45.216 80.0266 44.176 80.0266 42.96C80.0266 41.744 80.4586 40.704 81.3226 39.84C82.1866 38.976 83.2586 38.544 84.5386 38.544C85.8826 38.544 86.9706 38.976 87.8026 39.84C88.6346 40.704 89.0506 41.744 89.0506 42.96C89.0506 44.176 88.6346 45.216 87.8026 46.08C86.9706 46.944 85.8826 47.376 84.5386 47.376C83.2586 47.376 82.1866 46.944 81.3226 46.08Z" fill="#1B5AB8"></path></svg>