<svg xmlns="http://www.w3.org/2000/svg" width="100" height="60" viewBox="0 0 100 60" fill="none"><path fill-rule="evenodd" clip-rule="evenodd" d="M22.2072 25.591C21.9572 26.7022 21.824 27.976 21.824 29.424C21.824 30.869 21.9566 32.1613 22.2084 33.3101C22.459 34.4221 22.806 35.3186 23.2216 36.0313C23.6304 36.7013 24.0713 37.1723 24.5252 37.4973C24.9557 37.7568 25.4225 37.888 25.968 37.888C26.527 37.888 26.9728 37.7506 27.3632 37.4981C27.8503 37.1715 28.3061 36.7002 28.7144 36.0312C29.13 35.3185 29.477 34.422 29.7277 33.3099C29.9794 32.1612 30.112 30.8689 30.112 29.424C30.112 27.976 29.9788 26.7022 29.7288 25.591L29.7265 25.5808C29.4731 24.4264 29.1251 23.5413 28.7224 22.878L28.7144 22.8648L28.7066 22.8514C28.2954 22.1499 27.8512 21.7035 27.404 21.424L27.3623 21.3979L27.3219 21.3698C26.9334 21.0996 26.5029 20.96 25.968 20.96C25.4326 20.96 24.971 21.1004 24.5334 21.3921L24.525 21.3977L24.5165 21.4032C24.0918 21.6802 23.6513 22.1318 23.2294 22.8514L23.2216 22.8648L23.2136 22.878C22.8109 23.5413 22.4629 24.4264 22.2095 25.5808L22.2072 25.591ZM30.432 37.056C29.888 37.952 29.232 38.656 28.464 39.168C27.728 39.648 26.896 39.888 25.968 39.888C25.04 39.888 24.192 39.648 23.424 39.168C22.688 38.656 22.048 37.952 21.504 37.056C20.96 36.128 20.544 35.024 20.256 33.744C19.968 32.432 19.824 30.992 19.824 29.424C19.824 27.856 19.968 26.432 20.256 25.152C20.544 23.84 20.96 22.736 21.504 21.84C22.048 20.912 22.688 20.208 23.424 19.728C24.192 19.216 25.04 18.96 25.968 18.96C26.896 18.96 27.728 19.216 28.464 19.728C29.232 20.208 29.888 20.912 30.432 21.84C30.976 22.736 31.392 23.84 31.68 25.152C31.968 26.432 32.112 27.856 32.112 29.424C32.112 30.992 31.968 32.432 31.68 33.744C31.392 35.024 30.976 36.128 30.432 37.056ZM11.9045 39.6057L11.9004 39.5963C10.6072 36.6866 10 33.2749 10 29.424C10 25.5731 10.6072 22.1614 11.9004 19.2517L11.9045 19.2423L11.9088 19.233C13.2276 16.3459 15.106 14.0509 17.5713 12.4421C20.0376 10.8005 22.8596 10 25.968 10C29.1834 10 32.0645 10.7902 34.5203 12.4498C36.9586 14.0655 38.7884 16.3692 40.0398 19.2612C41.3302 22.1689 41.936 25.5773 41.936 29.424C41.936 33.2707 41.3302 36.6791 40.0398 39.5868C38.7881 42.4795 36.9602 44.7946 34.5291 46.4402L34.5203 46.4462L34.5115 46.452C32.0558 48.0766 29.1781 48.848 25.968 48.848C22.8654 48.848 20.0467 48.0667 17.5802 46.4597L17.5714 46.454L17.5626 46.4481C15.1043 44.8093 13.2279 42.5026 11.9088 39.615L11.9045 39.6057ZM38.208 38.784C39.36 36.192 39.936 33.072 39.936 29.424C39.936 25.776 39.36 22.656 38.208 20.064C37.088 17.472 35.488 15.488 33.408 14.112C31.328 12.704 28.848 12 25.968 12C23.216 12 20.784 12.704 18.672 14.112C16.56 15.488 14.912 17.472 13.728 20.064C12.576 22.656 12 25.776 12 29.424C12 33.072 12.576 36.192 13.728 38.784C14.912 41.376 16.56 43.376 18.672 44.784C20.784 46.16 23.216 46.848 25.968 46.848C28.848 46.848 31.328 46.16 33.408 44.784C35.488 43.376 37.088 41.376 38.208 38.784ZM52.7092 12.624H72.1012V19.632H58.6612L56.7412 25.632C57.5016 25.279 58.2851 25.0181 59.0916 24.8494C59.2354 24.8194 59.38 24.7922 59.5252 24.768C60.5172 24.576 61.5412 24.48 62.5972 24.48C64.3892 24.48 66.0532 24.912 67.5892 25.776C69.1572 26.64 70.4212 27.888 71.3812 29.52C72.3412 31.152 72.8212 33.136 72.8212 35.472C72.8212 37.456 72.4212 39.168 71.6213 40.608C70.8532 42.048 69.7972 43.232 68.4532 44.16C67.1412 45.088 65.6852 45.776 64.0852 46.224C62.5172 46.64 60.9172 46.848 59.2852 46.848C57.2372 46.848 55.3812 46.64 53.7172 46.224C52.0532 45.84 50.5812 45.328 49.3012 44.688C48.0212 44.016 46.8532 43.28 45.7972 42.48L48.9652 35.808C49.5041 36.2539 50.0483 36.6621 50.5979 37.0325C50.9948 37.3 51.3946 37.5479 51.7972 37.776C52.7892 38.288 53.7812 38.704 54.7732 39.024C55.7652 39.312 56.6612 39.456 57.4612 39.456C58.8372 39.456 60.0052 39.28 60.9652 38.928C61.9252 38.576 62.6612 38.032 63.1732 37.296C63.6852 36.56 63.9412 35.664 63.9412 34.608C63.9412 33.488 63.6212 32.592 62.9812 31.92C62.3732 31.216 61.5732 30.704 60.5812 30.384C59.6212 30.064 58.5812 29.904 57.4612 29.904C56.5972 29.904 55.6372 29.968 54.5812 30.096C53.5572 30.192 52.4852 30.4 51.3652 30.72C51.0131 30.8132 50.6576 30.9215 50.2988 31.0449C49.5489 31.3027 48.7844 31.6264 48.0052 32.016L52.7092 12.624ZM55.3589 37.1114C56.2067 37.3554 56.9017 37.456 57.4612 37.456C58.6784 37.456 59.5989 37.2988 60.2767 37.0503C60.9071 36.8191 61.2861 36.5066 61.5314 36.1539C61.7711 35.8094 61.9412 35.3301 61.9412 34.608C61.9412 33.8889 61.7481 33.5251 61.533 33.2993L61.4994 33.2641L61.4676 33.2272C61.1272 32.8331 60.6536 32.5088 59.9672 32.2874L59.958 32.2844L59.9488 32.2814C59.2133 32.0362 58.3891 31.904 57.4612 31.904C56.6935 31.904 55.8155 31.961 54.8219 32.0815L54.795 32.0847L54.7679 32.0873C53.8816 32.1704 52.9314 32.3526 51.9147 32.6431L51.8959 32.6484L51.877 32.6534C51.0874 32.8624 50.2599 33.1643 49.3938 33.5666L50.2404 34.2672C51.075 34.9579 51.9116 35.5392 52.7495 36.0168C53.6293 36.4686 54.499 36.8322 55.3589 37.1114ZM47.3296 34.5899L45.0459 35.7317L51.1364 10.624H74.1012V21.632H60.1212L59.7815 22.6935C60.7018 22.5506 61.6409 22.48 62.5972 22.48C64.7237 22.48 66.7236 22.9961 68.5621 24.0285C70.4594 25.0758 71.9755 26.5856 73.1051 28.506C74.2837 30.5096 74.8213 32.8623 74.8213 35.472C74.8213 37.7203 74.3678 39.7754 73.378 41.5641C72.4625 43.2751 71.1976 44.6928 69.6013 45.7977C68.0979 46.8599 66.4347 47.6431 64.6245 48.1499L64.6113 48.1536L64.5981 48.1571C62.8618 48.6178 61.0893 48.848 59.2852 48.848C57.1113 48.848 55.0949 48.6282 53.25 48.1687C51.4675 47.7562 49.8476 47.1972 48.4068 46.4769L48.3891 46.468L48.3716 46.4588C47.0029 45.7403 45.7407 44.9463 44.5895 44.0742L43.2928 43.0918L47.3296 34.5899ZM79.7365 47.4942C78.4995 46.2572 77.8548 44.7093 77.8548 42.96C77.8548 41.2107 78.4995 39.6628 79.7365 38.4258C80.995 37.1673 82.5844 36.544 84.3667 36.544C86.1823 36.544 87.8152 37.1482 89.0714 38.4527C90.2677 39.6951 90.8787 41.2346 90.8787 42.96C90.8787 44.6854 90.2677 46.2249 89.0714 47.4673C87.8152 48.7718 86.1823 49.376 84.3667 49.376C82.5844 49.376 80.995 48.7527 79.7365 47.4942ZM81.1507 46.08C80.2868 45.216 79.8548 44.176 79.8548 42.96C79.8548 41.744 80.2868 40.704 81.1507 39.84C82.0147 38.976 83.0867 38.544 84.3667 38.544C85.7107 38.544 86.7988 38.976 87.6308 39.84C88.4627 40.704 88.8787 41.744 88.8787 42.96C88.8787 44.176 88.4627 45.216 87.6308 46.08C86.7988 46.944 85.7107 47.376 84.3667 47.376C83.0867 47.376 82.0147 46.944 81.1507 46.08Z" fill="#1B5AB8"></path></svg>