<svg xmlns="http://www.w3.org/2000/svg" width="100" height="60" viewBox="0 0 100 60" fill="none"><path fill-rule="evenodd" clip-rule="evenodd" d="M21.2072 25.639C20.9572 26.7502 20.824 28.024 20.824 29.472C20.824 30.917 20.9566 32.2093 21.2084 33.3581C21.459 34.4701 21.806 35.3666 22.2216 36.0793C22.6304 36.7493 23.0713 37.2203 23.5252 37.5453C23.9557 37.8048 24.4225 37.936 24.968 37.936C25.527 37.936 25.9728 37.7986 26.3632 37.5461C26.8503 37.2195 27.3061 36.7482 27.7144 36.0792C28.13 35.3665 28.477 34.47 28.7277 33.3579C28.9794 32.2092 29.112 30.9169 29.112 29.472C29.112 28.024 28.9788 26.7502 28.7288 25.639L28.7265 25.6288C28.4731 24.4744 28.1251 23.5893 27.7224 22.926L27.7144 22.9128L27.7066 22.8994C27.2954 22.1979 26.8512 21.7515 26.404 21.472L26.3623 21.4459L26.3219 21.4178C25.9334 21.1476 25.5029 21.008 24.968 21.008C24.4326 21.008 23.971 21.1484 23.5334 21.4401L23.525 21.4457L23.5165 21.4512C23.0918 21.7282 22.6513 22.1798 22.2294 22.8994L22.2216 22.9128L22.2136 22.926C21.8109 23.5893 21.4629 24.4744 21.2095 25.6288L21.2072 25.639ZM29.432 37.104C28.888 38 28.232 38.704 27.464 39.216C26.728 39.696 25.896 39.936 24.968 39.936C24.04 39.936 23.192 39.696 22.424 39.216C21.688 38.704 21.048 38 20.504 37.104C19.96 36.176 19.544 35.072 19.256 33.792C18.968 32.48 18.824 31.04 18.824 29.472C18.824 27.904 18.968 26.48 19.256 25.2C19.544 23.888 19.96 22.784 20.504 21.888C21.048 20.96 21.688 20.256 22.424 19.776C23.192 19.264 24.04 19.008 24.968 19.008C25.896 19.008 26.728 19.264 27.464 19.776C28.232 20.256 28.888 20.96 29.432 21.888C29.976 22.784 30.392 23.888 30.68 25.2C30.968 26.48 31.112 27.904 31.112 29.472C31.112 31.04 30.968 32.48 30.68 33.792C30.392 35.072 29.976 36.176 29.432 37.104ZM10.9045 39.6537L10.9004 39.6443C9.60717 36.7346 9 33.3229 9 29.472C9 25.6211 9.60717 22.2094 10.9004 19.2997L10.9045 19.2903L10.9088 19.281C12.2276 16.3939 14.106 14.0989 16.5713 12.4901C19.0376 10.8485 21.8596 10.048 24.968 10.048C28.1834 10.048 31.0645 10.8382 33.5203 12.4978C35.9586 14.1135 37.7884 16.4172 39.0398 19.3092C40.3302 22.2169 40.936 25.6253 40.936 29.472C40.936 33.3187 40.3302 36.7271 39.0398 39.6348C37.7881 42.5275 35.9602 44.8426 33.5291 46.4882L33.5203 46.4942L33.5115 46.5C31.0558 48.1246 28.1781 48.896 24.968 48.896C21.8654 48.896 19.0467 48.1147 16.5802 46.5077L16.5714 46.502L16.5626 46.4961C14.1043 44.8573 12.2279 42.5506 10.9088 39.663L10.9045 39.6537ZM37.208 38.832C38.36 36.24 38.936 33.12 38.936 29.472C38.936 25.824 38.36 22.704 37.208 20.112C36.088 17.52 34.488 15.536 32.408 14.16C30.328 12.752 27.848 12.048 24.968 12.048C22.216 12.048 19.784 12.752 17.672 14.16C15.56 15.536 13.912 17.52 12.728 20.112C11.576 22.704 11 25.824 11 29.472C11 33.12 11.576 36.24 12.728 38.832C13.912 41.424 15.56 43.424 17.672 44.832C19.784 46.208 22.216 46.896 24.968 46.896C27.848 46.896 30.328 46.208 32.408 44.832C34.488 43.424 36.088 41.424 37.208 38.832ZM39.0287 48.272L57.2554 29.4027C58.1224 28.442 58.8558 27.5853 59.4595 26.8306L59.4745 26.8119L59.4898 26.7936C60.0631 26.1111 60.4381 25.4986 60.6631 24.9588L60.6707 24.9406L60.6786 24.9225C60.9161 24.3828 61.0372 23.8098 61.0372 23.184C61.0372 22.9277 60.9901 22.6531 60.8766 22.3502C60.7841 22.1037 60.6517 21.8989 60.471 21.7182L60.4428 21.6899L60.4156 21.6606C60.2564 21.4881 60.0392 21.332 59.7204 21.208L59.6762 21.1909L59.633 21.1716C59.3622 21.0513 58.9772 20.96 58.4292 20.96C57.7641 20.96 57.2367 21.1189 56.7873 21.4024C56.3769 21.6801 56.0273 22.0814 55.7542 22.6796C55.4959 23.3154 55.3412 24.1105 55.3412 25.104V27.104H43.3732V25.104C43.3732 22.4195 43.9304 19.9176 45.0724 17.6336C46.2425 15.2933 48.0027 13.4298 50.3003 12.0586L50.3124 12.0514C52.6992 10.6496 55.5152 10 58.6692 10C60.9458 10 63.0403 10.3492 64.9158 11.0966C66.7244 11.786 68.2905 12.7516 69.5657 14.0201C70.821 15.2065 71.7962 16.5542 72.4546 18.0648C73.1014 19.5486 73.4372 21.0838 73.4372 22.656C73.4372 24.8246 72.9 26.8537 71.8208 28.7037L71.8162 28.7117L71.8115 28.7196C70.7997 30.4179 69.4931 31.9518 67.9117 33.3245L63.9957 36.832H74.2053V48.272H39.0287ZM58.7652 38.832L66.5892 31.824C68.0292 30.576 69.1972 29.2 70.0932 27.696C70.9892 26.16 71.4372 24.48 71.4372 22.656C71.4372 21.376 71.1652 20.112 70.6213 18.864C70.0772 17.616 69.2612 16.48 68.1732 15.456C67.1172 14.4 65.7892 13.568 64.1892 12.96C62.5892 12.32 60.7492 12 58.6692 12C55.7892 12 53.3412 12.592 51.3252 13.776C49.3412 14.96 47.8532 16.544 46.8612 18.528C46.1518 19.9469 45.696 21.4723 45.4939 23.104C45.4135 23.7538 45.3732 24.4205 45.3732 25.104H53.3412C53.3412 23.888 53.5332 22.816 53.9172 21.888C54.3332 20.96 54.9252 20.24 55.6932 19.728C56.4932 19.216 57.4052 18.96 58.4292 18.96C59.1972 18.96 59.8692 19.088 60.4452 19.344C61.0212 19.568 61.5012 19.888 61.8852 20.304C62.2692 20.688 62.5572 21.136 62.7492 21.648C62.9412 22.16 63.0372 22.672 63.0372 23.184C63.0372 24.08 62.8612 24.928 62.5092 25.728C62.1892 26.496 61.6932 27.28 61.0212 28.08C60.3812 28.88 59.6132 29.776 58.7172 30.768L43.7412 46.272H72.2052V38.832H58.7652ZM79.299 47.5422C78.062 46.3052 77.4173 44.7573 77.4173 43.008C77.4173 41.2587 78.062 39.7108 79.299 38.4738C80.5575 37.2153 82.1469 36.592 83.9292 36.592C85.7448 36.592 87.3777 37.1962 88.6339 38.5007C89.8302 39.7431 90.4412 41.2826 90.4412 43.008C90.4412 44.7334 89.8302 46.2729 88.6339 47.5153C87.3777 48.8198 85.7448 49.424 83.9292 49.424C82.1469 49.424 80.5575 48.8007 79.299 47.5422ZM80.7132 46.128C79.8493 45.264 79.4173 44.224 79.4173 43.008C79.4173 41.792 79.8493 40.752 80.7132 39.888C81.5772 39.024 82.6492 38.592 83.9292 38.592C85.2732 38.592 86.3613 39.024 87.1933 39.888C88.0252 40.752 88.4412 41.792 88.4412 43.008C88.4412 44.224 88.0252 45.264 87.1933 46.128C86.3613 46.992 85.2732 47.424 83.9292 47.424C82.6492 47.424 81.5772 46.992 80.7132 46.128Z" fill="#1B5AB8"></path></svg>