<svg xmlns="http://www.w3.org/2000/svg" width="100" height="60" viewBox="0 0 100 60" fill="none"><path fill-rule="evenodd" clip-rule="evenodd" d="M20.2072 25.591C19.9572 26.7022 19.824 27.976 19.824 29.424C19.824 30.869 19.9566 32.1613 20.2084 33.3101C20.459 34.4221 20.806 35.3186 21.2216 36.0313C21.6304 36.7013 22.0713 37.1723 22.5252 37.4973C22.9557 37.7568 23.4225 37.888 23.968 37.888C24.527 37.888 24.9728 37.7506 25.3632 37.4981C25.8503 37.1715 26.3061 36.7002 26.7144 36.0312C27.13 35.3185 27.477 34.422 27.7277 33.3099C27.9794 32.1612 28.112 30.8689 28.112 29.424C28.112 27.976 27.9788 26.7022 27.7288 25.591L27.7265 25.5808C27.4731 24.4264 27.1251 23.5413 26.7224 22.878L26.7144 22.8648L26.7066 22.8514C26.2954 22.1499 25.8512 21.7035 25.404 21.424L25.3623 21.3979L25.3219 21.3698C24.9334 21.0996 24.5029 20.96 23.968 20.96C23.4326 20.96 22.971 21.1004 22.5334 21.3921L22.525 21.3977L22.5165 21.4032C22.0918 21.6802 21.6513 22.1318 21.2294 22.8514L21.2216 22.8648L21.2136 22.878C20.8109 23.5413 20.4629 24.4264 20.2095 25.5808L20.2072 25.591ZM28.432 37.056C27.888 37.952 27.232 38.656 26.464 39.168C25.728 39.648 24.896 39.888 23.968 39.888C23.04 39.888 22.192 39.648 21.424 39.168C20.688 38.656 20.048 37.952 19.504 37.056C18.96 36.128 18.544 35.024 18.256 33.744C17.968 32.432 17.824 30.992 17.824 29.424C17.824 27.856 17.968 26.432 18.256 25.152C18.544 23.84 18.96 22.736 19.504 21.84C20.048 20.912 20.688 20.208 21.424 19.728C22.192 19.216 23.04 18.96 23.968 18.96C24.896 18.96 25.728 19.216 26.464 19.728C27.232 20.208 27.888 20.912 28.432 21.84C28.976 22.736 29.392 23.84 29.68 25.152C29.968 26.432 30.112 27.856 30.112 29.424C30.112 30.992 29.968 32.432 29.68 33.744C29.392 35.024 28.976 36.128 28.432 37.056ZM9.90454 39.6057L9.90038 39.5963C8.60717 36.6866 8 33.2749 8 29.424C8 25.5731 8.60717 22.1614 9.90038 19.2517L9.90454 19.2423L9.90881 19.233C11.2276 16.3459 13.106 14.0509 15.5713 12.4421C18.0376 10.8005 20.8596 10 23.968 10C27.1834 10 30.0645 10.7902 32.5203 12.4498C34.9586 14.0655 36.7884 16.3692 38.0398 19.2612C39.3302 22.1689 39.936 25.5773 39.936 29.424C39.936 33.2707 39.3302 36.6791 38.0398 39.5868C36.7881 42.4795 34.9602 44.7946 32.5291 46.4402L32.5203 46.4462L32.5115 46.452C30.0558 48.0766 27.1781 48.848 23.968 48.848C20.8654 48.848 18.0467 48.0667 15.5802 46.4597L15.5714 46.454L15.5626 46.4481C13.1043 44.8093 11.2279 42.5026 9.90881 39.615L9.90454 39.6057ZM36.208 38.784C37.36 36.192 37.936 33.072 37.936 29.424C37.936 25.776 37.36 22.656 36.208 20.064C35.088 17.472 33.488 15.488 31.408 14.112C29.328 12.704 26.848 12 23.968 12C21.216 12 18.784 12.704 16.672 14.112C14.56 15.488 12.912 17.472 11.728 20.064C10.576 22.656 10 25.776 10 29.424C10 33.072 10.576 36.192 11.728 38.784C12.912 41.376 14.56 43.376 16.672 44.784C18.784 46.16 21.216 46.848 23.968 46.848C26.848 46.848 29.328 46.16 31.408 44.784C33.488 43.376 35.088 41.376 36.208 38.784ZM38.5966 42.272L60.9041 10.624H69.9892V31.36H75.2692V42.272H69.9892V48.224H57.5412V42.272H38.5966ZM59.5412 40.272V46.224H67.9892V40.272H73.2692V33.36H67.9892V12.624H61.9412L42.4532 40.272H59.5412ZM60.4532 34.416V24.384L53.2052 34.416H60.4532ZM58.4532 32.416V30.5673L57.1176 32.416H58.4532ZM80.3147 47.4942C79.0776 46.2572 78.4329 44.7093 78.4329 42.96C78.4329 41.2107 79.0776 39.6628 80.3147 38.4258C81.5731 37.1673 83.1625 36.544 84.9449 36.544C86.7604 36.544 88.3933 37.1482 89.6495 38.4527C90.8459 39.6951 91.4569 41.2346 91.4569 42.96C91.4569 44.6854 90.8459 46.2249 89.6495 47.4673C88.3933 48.7718 86.7604 49.376 84.9449 49.376C83.1625 49.376 81.5731 48.7527 80.3147 47.4942ZM81.7289 46.08C80.8649 45.216 80.4329 44.176 80.4329 42.96C80.4329 41.744 80.8649 40.704 81.7289 39.84C82.5929 38.976 83.6649 38.544 84.9449 38.544C86.2889 38.544 87.3769 38.976 88.2089 39.84C89.0409 40.704 89.4569 41.744 89.4569 42.96C89.4569 44.176 89.0409 45.216 88.2089 46.08C87.3769 46.944 86.2889 47.376 84.9449 47.376C83.6649 47.376 82.5929 46.944 81.7289 46.08Z" fill="#1B5AB8"></path></svg>