<svg xmlns="http://www.w3.org/2000/svg" width="100" height="60" viewBox="0 0 100 60" fill="none"><path fill-rule="evenodd" clip-rule="evenodd" d="M22.2873 25.8147C22.0373 26.9259 21.9041 28.1997 21.9041 29.6476C21.9041 31.0926 22.0367 32.3849 22.2884 33.5337C22.5391 34.6457 22.8861 35.5422 23.3017 36.2549C23.7105 36.9249 24.1514 37.3959 24.6052 37.7209C25.0358 37.9804 25.5026 38.1116 26.0481 38.1116C26.607 38.1116 27.0529 37.9743 27.4433 37.7218C27.9304 37.3951 28.3861 36.9238 28.7945 36.2549C29.2101 35.5422 29.5571 34.6456 29.8077 33.5336C30.0594 32.3848 30.1921 31.0926 30.1921 29.6476C30.1921 28.1997 30.0589 26.9259 29.8089 25.8147L29.8066 25.8045C29.5532 24.65 29.2052 23.7649 28.8025 23.1016L28.7945 23.0884L28.7867 23.0751C28.3754 22.3735 27.9313 21.9271 27.4841 21.6476L27.4423 21.6215L27.402 21.5934C27.0135 21.3232 26.583 21.1836 26.0481 21.1836C25.5127 21.1836 25.0511 21.324 24.6135 21.6157L24.6051 21.6213L24.5966 21.6269C24.1719 21.9039 23.7313 22.3554 23.3095 23.0751L23.3017 23.0884L23.2937 23.1016C22.8909 23.7649 22.543 24.65 22.2896 25.8044L22.2873 25.8147ZM30.5121 37.2796C29.9681 38.1756 29.3121 38.8796 28.5441 39.3916C27.8081 39.8716 26.9761 40.1116 26.0481 40.1116C25.1201 40.1116 24.2721 39.8716 23.5041 39.3916C22.7681 38.8796 22.1281 38.1756 21.5841 37.2796C21.0401 36.3516 20.6241 35.2476 20.3361 33.9676C20.0481 32.6556 19.9041 31.2156 19.9041 29.6476C19.9041 28.0796 20.0481 26.6556 20.3361 25.3756C20.6241 24.0636 21.0401 22.9596 21.5841 22.0636C22.1281 21.1356 22.7681 20.4316 23.5041 19.9516C24.2721 19.4396 25.1201 19.1836 26.0481 19.1836C26.9761 19.1836 27.8081 19.4396 28.5441 19.9516C29.3121 20.4316 29.9681 21.1356 30.5121 22.0636C31.0561 22.9596 31.4721 24.0636 31.7601 25.3756C32.0481 26.6556 32.1921 28.0796 32.1921 29.6476C32.1921 31.2156 32.0481 32.6556 31.7601 33.9676C31.4721 35.2476 31.0561 36.3516 30.5121 37.2796ZM11.9846 39.8293L11.9805 39.8199C10.6872 36.9102 10.0801 33.4986 10.0801 29.6476C10.0801 25.7967 10.6872 22.3851 11.9805 19.4754L11.9846 19.466L11.9889 19.4566C13.3077 16.5695 15.1861 14.2745 17.6514 12.6657C20.1177 11.0241 22.9397 10.2236 26.0481 10.2236C29.2635 10.2236 32.1446 11.0139 34.6004 12.6734C37.0387 14.2891 38.8685 16.5929 40.1199 19.4849C41.4102 22.3925 42.0161 25.8009 42.0161 29.6476C42.0161 33.4944 41.4102 36.9028 40.1199 39.8104C38.8682 42.7031 37.0403 45.0182 34.6092 46.6639L34.6004 46.6698L34.5916 46.6757C32.1359 48.3002 29.2582 49.0716 26.0481 49.0716C22.9455 49.0716 20.1268 48.2903 17.6603 46.6834L17.6515 46.6776L17.6427 46.6717C15.1844 45.0329 13.3079 42.7263 11.9889 39.8386L11.9846 39.8293ZM38.2881 39.0076C39.4401 36.4156 40.0161 33.2956 40.0161 29.6476C40.0161 25.9996 39.4401 22.8796 38.2881 20.2876C37.1681 17.6956 35.5681 15.7116 33.4881 14.3356C31.4081 12.9276 28.9281 12.2236 26.0481 12.2236C23.2961 12.2236 20.8641 12.9276 18.7521 14.3356C16.6401 15.7116 14.9921 17.6956 13.8081 20.2876C12.6561 22.8796 12.0801 25.9996 12.0801 29.6476C12.0801 33.2956 12.6561 36.4156 13.8081 39.0076C14.9921 41.5996 16.6401 43.5996 18.7521 45.0076C20.8641 46.3836 23.2961 47.0716 26.0481 47.0716C28.9281 47.0716 31.4081 46.3836 33.4881 45.0076C35.5681 43.5996 37.1681 41.5996 38.2881 39.0076ZM55.0613 24.6876H45.6053V22.6876C45.6053 20.3653 46.172 18.2225 47.3396 16.3153L47.3455 16.3057C48.543 14.3743 50.219 12.8833 52.3143 11.8331C54.4329 10.7388 56.834 10.2236 59.4613 10.2236C62.2001 10.2236 64.6535 10.6733 66.7481 11.6635C68.7863 12.627 70.4258 13.9745 71.5559 15.7442C72.699 17.484 73.2693 19.4319 73.2693 21.5356C73.2693 23.946 72.4461 26.0626 70.7726 27.7407C70.4473 28.0737 70.1004 28.3857 69.7331 28.6776C71.0109 29.5275 72.0586 30.5911 72.8363 31.876C73.7951 33.46 74.2293 35.2896 74.2293 37.2796C74.2293 39.6159 73.5896 41.7508 72.2822 43.6129L72.2763 43.6212L72.2704 43.6295C70.9721 45.4392 69.1623 46.8141 66.9428 47.7965L66.9302 47.8021L66.9175 47.8075C64.6558 48.7715 62.0224 49.2156 59.0773 49.2156C56.8609 49.2156 54.8063 48.8813 52.9429 48.1732C51.1126 47.4777 49.5135 46.4899 48.1798 45.1942L48.1694 45.1841L48.1591 45.1739C46.9006 43.9153 45.91 42.479 45.2 40.872L45.192 40.854L45.1844 40.8359C44.5075 39.2187 44.1653 37.5324 44.1653 35.7916V33.7916H56.1333V35.7916C56.1333 36.5843 56.306 37.0938 56.5285 37.4351C56.7949 37.8435 57.1294 38.1285 57.5653 38.3231C58.1488 38.568 58.7438 38.6876 59.3653 38.6876C60.1311 38.6876 60.6944 38.5721 61.1041 38.4045L61.1182 38.3987L61.1325 38.3932C61.4943 38.2516 61.7325 38.0505 61.9124 37.7737C62.076 37.5221 62.2133 37.1369 62.2133 36.5116C62.2133 36.0887 62.129 35.7592 61.9925 35.4861C61.8772 35.2555 61.6763 35.0063 61.308 34.7542L61.2576 34.7198L61.2094 34.6823C60.9033 34.4442 60.4394 34.2097 59.7443 34.0359C59.0477 33.8618 58.1621 33.7596 57.0613 33.7596H55.0613V24.6876ZM56.7733 40.1596C55.9733 39.8076 55.3333 39.2636 54.8533 38.5276C54.3733 37.7916 54.1333 36.8796 54.1333 35.7916H46.1653C46.1653 36.4684 46.2262 37.1351 46.348 37.7916C46.4911 38.563 46.7182 39.3203 47.0293 40.0636C47.6373 41.4396 48.4853 42.6716 49.5733 43.7596C50.6933 44.8476 52.0533 45.6956 53.6533 46.3036C55.2533 46.9116 57.0613 47.2156 59.0773 47.2156C61.8293 47.2156 64.1813 46.7996 66.1333 45.9676C68.0853 45.1036 69.5893 43.9356 70.6453 42.4636C71.7013 40.9596 72.2293 39.2316 72.2293 37.2796C72.2293 35.5836 71.8613 34.1276 71.1253 32.9116C70.3893 31.6956 69.3333 30.7036 67.9573 29.9356C67.932 29.9209 67.9066 29.9063 67.8811 29.8917C67.1387 29.4673 66.3274 29.1072 65.447 28.8115C66.3235 28.4724 67.1114 28.0701 67.8108 27.6046C68.3829 27.2239 68.8957 26.8009 69.3493 26.3356C70.6293 25.0556 71.2693 23.4556 71.2693 21.5356C71.2693 19.8076 70.8053 18.2396 69.8773 16.8316C68.9813 15.4236 67.6533 14.3036 65.8933 13.4716C64.1333 12.6396 61.9893 12.2236 59.4613 12.2236C57.0933 12.2236 55.0133 12.6876 53.2213 13.6156C51.4293 14.5116 50.0373 15.7596 49.0453 17.3596C48.4201 18.3808 47.9985 19.4901 47.7805 20.6876C47.6637 21.329 47.6053 21.9957 47.6053 22.6876H55.0453C55.0453 21.5036 55.4613 20.5436 56.2933 19.8076C57.1253 19.0716 58.1813 18.7036 59.4613 18.7036C60.3253 18.7036 61.0293 18.8476 61.5733 19.1356C62.1173 19.3916 62.5333 19.7756 62.8213 20.2876C63.1093 20.7996 63.2533 21.3756 63.2533 22.0156C63.2533 22.6236 63.1093 23.1996 62.8213 23.7436C62.5333 24.2876 62.1013 24.7676 61.5253 25.1836C61.2272 25.4116 60.8955 25.6155 60.5301 25.7954C60.2288 25.9438 59.9045 26.0759 59.5573 26.1916C58.8213 26.4156 57.9893 26.5276 57.0613 26.5276V31.7596C58.1786 31.7596 59.1609 31.8542 60.008 32.0433C60.0828 32.06 60.1566 32.0775 60.2293 32.0956C61.1253 32.3196 61.8613 32.6556 62.4373 33.1036C63.0453 33.5196 63.4933 34.0156 63.7813 34.5916C64.0693 35.1676 64.2133 35.8076 64.2133 36.5116C64.2133 37.4396 64.0053 38.2236 63.5893 38.8636C63.1733 39.5036 62.5973 39.9676 61.8613 40.2556C61.1573 40.5436 60.3253 40.6876 59.3653 40.6876C58.4693 40.6876 57.6053 40.5116 56.7733 40.1596ZM58.9505 24.2857C58.4419 24.4374 57.819 24.5276 57.0613 24.5276H57.0453V22.6876C57.0453 22.0339 57.2466 21.6346 57.6185 21.3056C58.0296 20.9419 58.5904 20.7036 59.4613 20.7036C60.1232 20.7036 60.4746 20.8169 60.6376 20.9032L60.6791 20.9252L60.7217 20.9453C60.899 21.0287 60.999 21.1275 61.0782 21.2682C61.1829 21.4544 61.2533 21.6875 61.2533 22.0156C61.2533 22.2932 61.1911 22.5484 61.0537 22.8079C60.93 23.0416 60.7199 23.2982 60.3543 23.5623L60.3322 23.5783L60.3104 23.5949C59.9757 23.8509 59.5332 24.0889 58.9505 24.2857ZM77.9885 47.7178C76.7515 46.4808 76.1067 44.9329 76.1067 43.1836C76.1067 41.4343 76.7515 39.8865 77.9885 38.6494C79.247 37.3909 80.8364 36.7676 82.6187 36.7676C84.4342 36.7676 86.0671 37.3718 87.3233 38.6764C88.5197 39.9187 89.1307 41.4582 89.1307 43.1836C89.1307 44.909 88.5197 46.4486 87.3233 47.6909C86.0671 48.9954 84.4342 49.5996 82.6187 49.5996C80.8364 49.5996 79.247 48.9763 77.9885 47.7178ZM79.4027 46.3036C78.5387 45.4396 78.1067 44.3996 78.1067 43.1836C78.1067 41.9676 78.5387 40.9276 79.4027 40.0636C80.2667 39.1996 81.3387 38.7676 82.6187 38.7676C83.9627 38.7676 85.0507 39.1996 85.8827 40.0636C86.7147 40.9276 87.1307 41.9676 87.1307 43.1836C87.1307 44.3996 86.7147 45.4396 85.8827 46.3036C85.0507 47.1676 83.9627 47.5996 82.6187 47.5996C81.3387 47.5996 80.2667 47.1676 79.4027 46.3036Z" fill="#1B5AB8"></path></svg>