<svg xmlns="http://www.w3.org/2000/svg" width="100" height="60" viewBox="0 0 100 60" fill="none"><path fill-rule="evenodd" clip-rule="evenodd" d="M25.2072 25.591C24.9572 26.7022 24.824 27.976 24.824 29.424C24.824 30.869 24.9566 32.1613 25.2084 33.3101C25.459 34.4221 25.806 35.3186 26.2216 36.0313C26.6304 36.7013 27.0713 37.1723 27.5252 37.4973C27.9557 37.7568 28.4225 37.888 28.968 37.888C29.527 37.888 29.9728 37.7506 30.3632 37.4981C30.8503 37.1715 31.3061 36.7002 31.7144 36.0312C32.13 35.3185 32.477 34.422 32.7277 33.3099C32.9794 32.1612 33.112 30.8689 33.112 29.424C33.112 27.976 32.9788 26.7022 32.7288 25.591L32.7265 25.5808C32.4731 24.4264 32.1251 23.5413 31.7224 22.878L31.7144 22.8648L31.7066 22.8514C31.2954 22.1499 30.8512 21.7035 30.404 21.424L30.3623 21.3979L30.3219 21.3698C29.9334 21.0996 29.5029 20.96 28.968 20.96C28.4326 20.96 27.971 21.1004 27.5334 21.3921L27.525 21.3977L27.5165 21.4032C27.0918 21.6802 26.6513 22.1318 26.2294 22.8514L26.2216 22.8648L26.2136 22.878C25.8109 23.5413 25.4629 24.4264 25.2095 25.5808L25.2072 25.591ZM33.432 37.056C32.888 37.952 32.232 38.656 31.464 39.168C30.728 39.648 29.896 39.888 28.968 39.888C28.04 39.888 27.192 39.648 26.424 39.168C25.688 38.656 25.048 37.952 24.504 37.056C23.96 36.128 23.544 35.024 23.256 33.744C22.968 32.432 22.824 30.992 22.824 29.424C22.824 27.856 22.968 26.432 23.256 25.152C23.544 23.84 23.96 22.736 24.504 21.84C25.048 20.912 25.688 20.208 26.424 19.728C27.192 19.216 28.04 18.96 28.968 18.96C29.896 18.96 30.728 19.216 31.464 19.728C32.232 20.208 32.888 20.912 33.432 21.84C33.976 22.736 34.392 23.84 34.68 25.152C34.968 26.432 35.112 27.856 35.112 29.424C35.112 30.992 34.968 32.432 34.68 33.744C34.392 35.024 33.976 36.128 33.432 37.056ZM14.9045 39.6057L14.9004 39.5963C13.6072 36.6866 13 33.2749 13 29.424C13 25.5731 13.6072 22.1614 14.9004 19.2517L14.9045 19.2423L14.9088 19.233C16.2276 16.3459 18.106 14.0509 20.5713 12.4421C23.0376 10.8005 25.8596 10 28.968 10C32.1834 10 35.0645 10.7902 37.5203 12.4498C39.9586 14.0655 41.7884 16.3692 43.0398 19.2612C44.3302 22.1689 44.936 25.5773 44.936 29.424C44.936 33.2707 44.3302 36.6791 43.0398 39.5868C41.7881 42.4795 39.9602 44.7946 37.5291 46.4402L37.5203 46.4462L37.5115 46.452C35.0558 48.0766 32.1781 48.848 28.968 48.848C25.8654 48.848 23.0467 48.0667 20.5802 46.4597L20.5714 46.454L20.5626 46.4481C18.1043 44.8093 16.2279 42.5026 14.9088 39.615L14.9045 39.6057ZM41.208 38.784C42.36 36.192 42.936 33.072 42.936 29.424C42.936 25.776 42.36 22.656 41.208 20.064C40.088 17.472 38.488 15.488 36.408 14.112C34.328 12.704 31.848 12 28.968 12C26.216 12 23.784 12.704 21.672 14.112C19.56 15.488 17.912 17.472 16.728 20.064C15.576 22.656 15 25.776 15 29.424C15 33.072 15.576 36.192 16.728 38.784C17.912 41.376 19.56 43.376 21.672 44.784C23.784 46.16 26.216 46.848 28.968 46.848C31.848 46.848 34.328 46.16 36.408 44.784C38.488 43.376 40.088 41.376 41.208 38.784ZM46.2212 22.208V10.624H78.8159L60.6605 48.224H47.3745L60.4785 22.208H46.2212ZM63.7252 20.208L50.6212 46.224H59.4052L75.6292 12.624H48.2212V20.208H63.7252ZM75.9397 47.4942C74.7026 46.2572 74.0579 44.7093 74.0579 42.96C74.0579 41.2107 74.7026 39.6628 75.9397 38.4258C77.1981 37.1673 78.7875 36.544 80.5699 36.544C82.3854 36.544 84.0183 37.1482 85.2745 38.4527C86.4709 39.6951 87.0819 41.2346 87.0819 42.96C87.0819 44.6854 86.4709 46.2249 85.2745 47.4673C84.0183 48.7718 82.3854 49.376 80.5699 49.376C78.7875 49.376 77.1981 48.7527 75.9397 47.4942ZM77.3539 46.08C76.4899 45.216 76.0579 44.176 76.0579 42.96C76.0579 41.744 76.4899 40.704 77.3539 39.84C78.2179 38.976 79.2899 38.544 80.5699 38.544C81.9139 38.544 83.0019 38.976 83.8339 39.84C84.6659 40.704 85.0819 41.744 85.0819 42.96C85.0819 44.176 84.6659 45.216 83.8339 46.08C83.0019 46.944 81.9139 47.376 80.5699 47.376C79.2899 47.376 78.2179 46.944 77.3539 46.08Z" fill="#1B5AB8"></path></svg>