<svg xmlns="http://www.w3.org/2000/svg" width="100" height="60" viewBox="0 0 100 60" fill="none"><path fill-rule="evenodd" clip-rule="evenodd" d="M25.2072 26.0363C24.9572 27.1475 24.824 28.4213 24.824 29.8693C24.824 31.3143 24.9566 32.6066 25.2084 33.7554C25.459 34.8674 25.806 35.7639 26.2216 36.4766C26.6304 37.1466 27.0713 37.6176 27.5252 37.9426C27.9557 38.2021 28.4225 38.3333 28.968 38.3333C29.527 38.3333 29.9728 38.1959 30.3632 37.9434C30.8503 37.6168 31.3061 37.1455 31.7144 36.4765C32.13 35.7638 32.477 34.8673 32.7277 33.7552C32.9794 32.6065 33.112 31.3142 33.112 29.8693C33.112 28.4213 32.9788 27.1475 32.7288 26.0363L32.7265 26.0261C32.4731 24.8717 32.1251 23.9866 31.7224 23.3233L31.7144 23.3101L31.7066 23.2968C31.2954 22.5952 30.8512 22.1488 30.404 21.8693L30.3623 21.8432L30.3219 21.8151C29.9334 21.5449 29.5029 21.4053 28.968 21.4053C28.4326 21.4053 27.971 21.5457 27.5334 21.8374L27.525 21.843L27.5165 21.8485C27.0918 22.1255 26.6513 22.5771 26.2294 23.2968L26.2216 23.3101L26.2136 23.3233C25.8109 23.9866 25.4629 24.8717 25.2095 26.0261L25.2072 26.0363ZM33.432 37.5013C32.888 38.3973 32.232 39.1013 31.464 39.6133C30.728 40.0933 29.896 40.3333 28.968 40.3333C28.04 40.3333 27.192 40.0933 26.424 39.6133C25.688 39.1013 25.048 38.3973 24.504 37.5013C23.96 36.5733 23.544 35.4693 23.256 34.1893C22.968 32.8773 22.824 31.4373 22.824 29.8693C22.824 28.3013 22.968 26.8773 23.256 25.5973C23.544 24.2853 23.96 23.1813 24.504 22.2853C25.048 21.3573 25.688 20.6533 26.424 20.1733C27.192 19.6613 28.04 19.4053 28.968 19.4053C29.896 19.4053 30.728 19.6613 31.464 20.1733C32.232 20.6533 32.888 21.3573 33.432 22.2853C33.976 23.1813 34.392 24.2853 34.68 25.5973C34.968 26.8773 35.112 28.3013 35.112 29.8693C35.112 31.4373 34.968 32.8773 34.68 34.1893C34.392 35.4693 33.976 36.5733 33.432 37.5013ZM14.9045 40.051L14.9004 40.0416C13.6072 37.1319 13 33.7202 13 29.8693C13 26.0184 13.6072 22.6068 14.9004 19.697L14.9045 19.6877L14.9088 19.6783C16.2276 16.7912 18.106 14.4962 20.5713 12.8874C23.0376 11.2458 25.8596 10.4453 28.968 10.4453C32.1834 10.4453 35.0645 11.2355 37.5203 12.8951C39.9586 14.5108 41.7884 16.8145 43.0398 19.7065C44.3302 22.6142 44.936 26.0226 44.936 29.8693C44.936 33.7161 44.3302 37.1244 43.0398 40.0321C41.7881 42.9248 39.9602 45.2399 37.5291 46.8855L37.5203 46.8915L37.5115 46.8974C35.0558 48.5219 32.1781 49.2933 28.968 49.2933C25.8654 49.2933 23.0467 48.512 20.5802 46.905L20.5714 46.8993L20.5626 46.8934C18.1043 45.2546 16.2279 42.948 14.9088 40.0603L14.9045 40.051ZM41.208 39.2293C42.36 36.6373 42.936 33.5173 42.936 29.8693C42.936 26.2213 42.36 23.1013 41.208 20.5093C40.088 17.9173 38.488 15.9333 36.408 14.5573C34.328 13.1493 31.848 12.4453 28.968 12.4453C26.216 12.4453 23.784 13.1493 21.672 14.5573C19.56 15.9333 17.912 17.9173 16.728 20.5093C15.576 23.1013 15 26.2213 15 29.8693C15 33.5173 15.576 36.6373 16.728 39.2293C17.912 41.8213 19.56 43.8213 21.672 45.2293C23.784 46.6053 26.216 47.2933 28.968 47.2933C31.848 47.2933 34.328 46.6053 36.408 45.2293C38.488 43.8213 40.088 41.8213 41.208 39.2293ZM48.0452 25.3233V14.0735L68.1732 10V48.6693H56.3492V23.2593L48.0452 25.3233ZM58.3492 20.7013V46.6693H66.1732V12.4453L50.0452 15.7093V22.7653L58.3492 20.7013ZM76.2209 47.9395C74.9839 46.7025 74.3391 45.1546 74.3391 43.4053C74.3391 41.656 74.9839 40.1081 76.2209 38.8711C77.4794 37.6126 79.0688 36.9893 80.8511 36.9893C82.6666 36.9893 84.2996 37.5935 85.5558 38.898C86.7521 40.1404 87.3631 41.6799 87.3631 43.4053C87.3631 45.1307 86.7521 46.6702 85.5558 47.9126C84.2996 49.2171 82.6666 49.8213 80.8511 49.8213C79.0688 49.8213 77.4794 49.198 76.2209 47.9395ZM77.6351 46.5253C76.7711 45.6613 76.3391 44.6213 76.3391 43.4053C76.3391 42.1893 76.7711 41.1493 77.6351 40.2853C78.4991 39.4213 79.5711 38.9893 80.8511 38.9893C82.1951 38.9893 83.2831 39.4213 84.1151 40.2853C84.9471 41.1493 85.3631 42.1893 85.3631 43.4053C85.3631 44.6213 84.9471 45.6613 84.1151 46.5253C83.2831 47.3893 82.1951 47.8213 80.8511 47.8213C79.5711 47.8213 78.4991 47.3893 77.6351 46.5253Z" fill="#1B5AB8"></path></svg>