<svg xmlns="http://www.w3.org/2000/svg" width="100" height="60" viewBox="0 0 100 60" fill="none"><path fill-rule="evenodd" clip-rule="evenodd" d="M22.2873 26.1032L22.2873 26.1032C22.0373 27.2144 21.9041 28.4882 21.9041 29.9362C21.9041 31.3812 22.0367 32.6735 22.2884 33.8222C22.5391 34.9342 22.8861 35.8308 23.3017 36.5434C23.7105 37.2134 24.1514 37.6844 24.6052 38.0094C25.0358 38.2689 25.5026 38.4002 26.0481 38.4002C26.607 38.4002 27.0529 38.2628 27.4433 38.0103C27.9304 37.6836 28.3861 37.2123 28.7945 36.5434C29.2101 35.8307 29.5571 34.9341 29.8077 33.8221C30.0594 32.6733 30.1921 31.3811 30.1921 29.9362C30.1921 28.4882 30.0589 27.2144 29.8089 26.1032L29.8066 26.093L29.8066 26.093C29.5532 24.9386 29.2052 24.0534 28.8025 23.3901L28.7945 23.3769L28.7867 23.3636C28.3754 22.6621 27.9313 22.2157 27.4841 21.9362L27.4423 21.9101L27.402 21.882C27.0135 21.6117 26.583 21.4722 26.0481 21.4722C25.5127 21.4722 25.0511 21.6125 24.6135 21.9043L24.6051 21.9099L24.5966 21.9154C24.1719 22.1924 23.7313 22.644 23.3095 23.3636L23.3017 23.3769L23.2937 23.3901C22.8909 24.0534 22.543 24.9386 22.2896 26.093L22.2873 26.1032ZM30.5121 37.5682C29.9681 38.4642 29.3121 39.1682 28.5441 39.6802C27.8081 40.1602 26.9761 40.4002 26.0481 40.4002C25.1201 40.4002 24.2721 40.1602 23.5041 39.6802C22.7681 39.1682 22.1281 38.4642 21.5841 37.5682C21.0401 36.6402 20.6241 35.5362 20.3361 34.2562C20.0481 32.9442 19.9041 31.5042 19.9041 29.9362C19.9041 28.3682 20.0481 26.9442 20.3361 25.6642C20.6241 24.3522 21.0401 23.2482 21.5841 22.3522C22.1281 21.4242 22.7681 20.7202 23.5041 20.2402C24.2721 19.7282 25.1201 19.4722 26.0481 19.4722C26.9761 19.4722 27.8081 19.7282 28.5441 20.2402C29.3121 20.7202 29.9681 21.4242 30.5121 22.3522C31.0561 23.2482 31.4721 24.3522 31.7601 25.6642C32.0481 26.9442 32.1921 28.3682 32.1921 29.9362C32.1921 31.5042 32.0481 32.9442 31.7601 34.2562C31.4721 35.5362 31.0561 36.6402 30.5121 37.5682ZM11.9846 40.1178L11.9805 40.1084C10.6872 37.1987 10.0801 33.7871 10.0801 29.9362C10.0801 26.0852 10.6872 22.6736 11.9805 19.7639L11.9846 19.7545L11.9889 19.7452C13.3077 16.8581 15.1861 14.563 17.6514 12.9542C20.1177 11.3126 22.9397 10.5122 26.0481 10.5122C29.2635 10.5122 32.1446 11.3024 34.6004 12.962C37.0387 14.5776 38.8685 16.8814 40.1199 19.7734C41.4102 22.681 42.0161 26.0894 42.0161 29.9362C42.0161 33.7829 41.4102 37.1913 40.1199 40.0989C38.8682 42.9916 37.0403 45.3067 34.6092 46.9524L34.6004 46.9583L34.5916 46.9642C32.1359 48.5887 29.2582 49.3602 26.0481 49.3602C22.9455 49.3602 20.1268 48.5789 17.6603 46.9719L17.6515 46.9661L17.6427 46.9603C15.1844 45.3214 13.3079 43.0148 11.9889 40.1272L11.9846 40.1178ZM38.2881 39.2962C39.4401 36.7042 40.0161 33.5842 40.0161 29.9362C40.0161 26.2882 39.4401 23.1682 38.2881 20.5762C37.1681 17.9842 35.5681 16.0002 33.4881 14.6242C31.4081 13.2162 28.9281 12.5122 26.0481 12.5122C23.2961 12.5122 20.8641 13.2162 18.7521 14.6242C16.6401 16.0002 14.9921 17.9842 13.8081 20.5762C12.6561 23.1682 12.0801 26.2882 12.0801 29.9362C12.0801 33.5842 12.6561 36.7042 13.8081 39.2962C14.9921 41.8882 16.6401 43.8882 18.7521 45.2962C20.8641 46.6722 23.2961 47.3602 26.0481 47.3602C28.9281 47.3602 31.4081 46.6722 33.4881 45.2962C35.5681 43.8882 37.1681 41.8882 38.2881 39.2962ZM46.7852 26.2806L46.769 26.2515C45.9385 24.7565 45.5573 23.0674 45.5573 21.2482C45.5573 18.9773 46.1819 16.9278 47.5167 15.2176L47.5207 15.2125C48.8081 13.574 50.4777 12.3616 52.4757 11.5683C54.4632 10.7601 56.6074 10.3682 58.8853 10.3682C61.1856 10.3682 63.3317 10.7568 65.2953 11.5684C67.314 12.3573 68.9899 13.5666 70.2522 15.2152C71.6173 16.9214 72.2613 18.9718 72.2613 21.2482C72.2613 23.0807 71.8583 24.7804 70.9853 26.2803C70.4474 27.2198 69.7756 28.0542 68.9799 28.7826C70.2127 29.6552 71.2297 30.7537 72.0186 32.0656C73.0122 33.6849 73.4613 35.565 73.4613 37.6162C73.4613 39.454 73.0563 41.169 72.2038 42.7115C71.3831 44.1966 70.2545 45.4536 68.8483 46.4797C67.4676 47.4872 65.9151 48.2405 64.2083 48.7489C62.5081 49.2554 60.731 49.5042 58.8853 49.5042C57.0678 49.5042 55.307 49.2543 53.6104 48.7489C51.9035 48.2405 50.351 47.4872 48.9704 46.4797C47.5641 45.4536 46.4356 44.1966 45.6148 42.7115C44.7624 41.169 44.3573 39.454 44.3573 37.6162C44.3573 35.5651 44.8064 33.6849 45.8 32.0657C46.5875 30.7561 47.593 29.6555 48.8086 28.7797C48.0266 28.0564 47.356 27.232 46.8023 26.3092L46.7852 26.2806ZM50.5957 27.685C50.7763 27.8329 50.9635 27.9753 51.1573 28.1122C51.6203 28.4253 52.1064 28.7038 52.6157 28.9474C51.89 29.2459 51.1959 29.6074 50.5333 30.0322C50.518 30.0416 50.5028 30.051 50.4875 30.0605C49.2606 30.8253 48.2679 31.8399 47.5093 33.1042C46.7413 34.3522 46.3573 35.8562 46.3573 37.6162C46.3573 39.1522 46.6933 40.5282 47.3653 41.7442C48.0373 42.9602 48.9653 44.0002 50.1493 44.8642C51.3333 45.7282 52.6773 46.3842 54.1813 46.8322C55.6853 47.2802 57.2533 47.5042 58.8853 47.5042C60.5493 47.5042 62.1333 47.2802 63.6373 46.8322C65.1413 46.3842 66.4853 45.7282 67.6693 44.8642C68.8533 44.0002 69.7813 42.9602 70.4533 41.7442C71.1253 40.5282 71.4613 39.1522 71.4613 37.6162C71.4613 35.8562 71.0773 34.3522 70.3093 33.1042C69.5506 31.8397 68.5421 30.825 67.2837 30.0602C67.2683 30.0508 67.2528 30.0415 67.2373 30.0322C66.5748 29.6074 65.8806 29.2459 65.1549 28.9474C65.6642 28.7038 66.1504 28.4253 66.6133 28.1122C66.8108 27.9767 67.0009 27.8358 67.1835 27.6894C68.0362 27.0057 68.7262 26.2026 69.2533 25.2802C69.9253 24.1282 70.2613 22.7842 70.2613 21.2482C70.2613 19.3602 69.7333 17.7602 68.6773 16.4482C67.6533 15.1042 66.2773 14.0962 64.5493 13.4242C62.8533 12.7202 60.9653 12.3682 58.8853 12.3682C56.8373 12.3682 54.9493 12.7202 53.2213 13.4242C51.5253 14.0962 50.1493 15.1042 49.0933 16.4482C48.0693 17.7602 47.5573 19.3602 47.5573 21.2482C47.5573 22.7842 47.8773 24.1282 48.5173 25.2802C49.0696 26.2006 49.7624 27.0022 50.5957 27.685ZM60.8053 25.3762C61.3813 25.0562 61.8293 24.6082 62.1493 24.0322C62.4693 23.4562 62.6293 22.7842 62.6293 22.0162C62.6293 21.2802 62.4693 20.6242 62.1493 20.0482C61.8613 19.4402 61.4293 18.9762 60.8533 18.6562C60.3093 18.3362 59.6533 18.1762 58.8853 18.1762C58.1813 18.1762 57.5413 18.3362 56.9653 18.6562C56.3893 18.9762 55.9413 19.4402 55.6213 20.0482C55.3333 20.6242 55.1893 21.2802 55.1893 22.0162C55.1893 22.7842 55.3493 23.4562 55.6693 24.0322C55.9893 24.6082 56.4213 25.0562 56.9653 25.3762C57.2754 25.5484 57.604 25.6743 57.9511 25.7538C58.2489 25.8221 58.5603 25.8562 58.8853 25.8562C59.2234 25.8562 59.5412 25.8224 59.8387 25.7549C60.189 25.6754 60.5112 25.5492 60.8053 25.3762ZM57.9586 23.6399C58.2123 23.7762 58.5082 23.8562 58.8853 23.8562C59.3247 23.8562 59.6025 23.7634 59.7913 23.6523L59.8125 23.6398L59.834 23.6278C60.0836 23.4892 60.2624 23.3104 60.401 23.0609C60.5305 22.8279 60.6293 22.5009 60.6293 22.0162C60.6293 21.5795 60.5373 21.2648 60.401 21.0195L60.3696 20.9628L60.3419 20.9043C60.2286 20.6652 60.0849 20.5172 59.882 20.4045L59.8605 20.3925L59.8393 20.38C59.663 20.2763 59.3739 20.1762 58.8853 20.1762C58.4972 20.1762 58.1952 20.2608 57.9366 20.4045C57.7206 20.5245 57.5463 20.6924 57.4013 20.9606C57.2756 21.2193 57.1893 21.5568 57.1893 22.0162C57.1893 22.5009 57.2882 22.8279 57.4176 23.0609C57.5675 23.3306 57.7452 23.5098 57.9586 23.6399ZM60.3202 32.215C59.8718 32.0718 59.3935 32.0002 58.8853 32.0002C58.3951 32.0002 57.9229 32.0723 57.4687 32.2165C57.1817 32.3076 56.9019 32.4275 56.6293 32.5762C55.9573 32.9602 55.4133 33.4882 54.9973 34.1602C54.6133 34.8322 54.4213 35.5682 54.4213 36.3682C54.4213 37.3602 54.6133 38.1922 54.9973 38.8642C55.4133 39.5362 55.9573 40.0482 56.6293 40.4002C57.3333 40.7522 58.0853 40.9282 58.8853 40.9282C59.7173 40.9282 60.4693 40.7522 61.1413 40.4002C61.8453 40.0482 62.3893 39.5362 62.7733 38.8642C63.1893 38.1922 63.3973 37.3602 63.3973 36.3682C63.3973 35.5682 63.1893 34.8322 62.7733 34.1602C62.3893 33.4882 61.8453 32.9602 61.1413 32.5762C60.8798 32.4267 60.6061 32.3063 60.3202 32.215ZM57.5412 38.62C57.9577 38.825 58.3974 38.9282 58.8853 38.9282C59.426 38.9282 59.8546 38.8164 60.2133 38.6285L60.23 38.6197L60.2469 38.6113C60.6041 38.4327 60.8522 38.1949 61.0368 37.8719L61.0543 37.8414L61.0728 37.8115C61.2487 37.5272 61.3973 37.0825 61.3973 36.3682C61.3973 35.9353 61.2905 35.5646 61.0728 35.2129L61.0543 35.183L61.0368 35.1524C60.8435 34.8142 60.5746 34.5452 60.1836 34.332L60.1662 34.3225L60.149 34.3126C59.8018 34.1142 59.3962 34.0002 58.8853 34.0002C58.4274 34.0002 58.01 34.1048 57.6046 34.3225C57.2458 34.5309 56.9542 34.809 56.7169 35.1825C56.5226 35.5337 56.4213 35.9169 56.4213 36.3682C56.4213 37.0846 56.5556 37.5458 56.7178 37.8432C56.9457 38.2007 57.2168 38.4467 57.5412 38.62ZM78.2697 48.0064C77.0327 46.7693 76.388 45.2215 76.388 43.4722C76.388 41.7229 77.0327 40.175 78.2697 38.938C79.5282 37.6795 81.1176 37.0562 82.8999 37.0562C84.7155 37.0562 86.3484 37.6604 87.6046 38.9649C88.8009 40.2072 89.4119 41.7468 89.4119 43.4722C89.4119 45.1976 88.8009 46.7371 87.6046 47.9794C86.3484 49.284 84.7155 49.8882 82.8999 49.8882C81.1176 49.8882 79.5282 49.2649 78.2697 48.0064ZM79.684 46.5922C78.82 45.7282 78.388 44.6882 78.388 43.4722C78.388 42.2562 78.82 41.2162 79.684 40.3522C80.548 39.4882 81.6199 39.0562 82.8999 39.0562C84.2439 39.0562 85.332 39.4882 86.164 40.3522C86.9959 41.2162 87.4119 42.2562 87.4119 43.4722C87.4119 44.6882 86.9959 45.7282 86.164 46.5922C85.332 47.4562 84.2439 47.8882 82.8999 47.8882C81.6199 47.8882 80.548 47.4562 79.684 46.5922Z" fill="#1B5AB8"></path></svg>