<svg xmlns="http://www.w3.org/2000/svg" width="100" height="60" viewBox="0 0 100 60" fill="none"><path fill-rule="evenodd" clip-rule="evenodd" d="M23.2072 25.735C22.9572 26.8462 22.824 28.12 22.824 29.568C22.824 31.013 22.9566 32.3053 23.2084 33.4541C23.459 34.566 23.806 35.4626 24.2216 36.1753C24.6304 36.8453 25.0713 37.3163 25.5252 37.6413C25.9557 37.9008 26.4225 38.032 26.968 38.032C27.527 38.032 27.9728 37.8946 28.3632 37.6421C28.8503 37.3155 29.3061 36.8442 29.7144 36.1752C30.13 35.4625 30.477 34.5659 30.7277 33.4539C30.9794 32.3052 31.112 31.0129 31.112 29.568C31.112 28.12 30.9788 26.8462 30.7288 25.735L30.7265 25.7248C30.4731 24.5704 30.1251 23.6853 29.7224 23.022L29.7144 23.0088L29.7066 22.9954C29.2954 22.2939 28.8512 21.8475 28.404 21.568L28.3623 21.5419L28.3219 21.5138C27.9334 21.2436 27.5029 21.104 26.968 21.104C26.4326 21.104 25.971 21.2444 25.5334 21.5361L25.525 21.5417L25.5165 21.5472C25.0918 21.8242 24.6513 22.2758 24.2294 22.9954L24.2216 23.0088L24.2136 23.022C23.8109 23.6853 23.4629 24.5704 23.2095 25.7248L23.2072 25.735ZM31.432 37.2C30.888 38.096 30.232 38.8 29.464 39.312C28.728 39.792 27.896 40.032 26.968 40.032C26.04 40.032 25.192 39.792 24.424 39.312C23.688 38.8 23.048 38.096 22.504 37.2C21.96 36.272 21.544 35.168 21.256 33.888C20.968 32.576 20.824 31.136 20.824 29.568C20.824 28 20.968 26.576 21.256 25.296C21.544 23.984 21.96 22.88 22.504 21.984C23.048 21.056 23.688 20.352 24.424 19.872C25.192 19.36 26.04 19.104 26.968 19.104C27.896 19.104 28.728 19.36 29.464 19.872C30.232 20.352 30.888 21.056 31.432 21.984C31.976 22.88 32.392 23.984 32.68 25.296C32.968 26.576 33.112 28 33.112 29.568C33.112 31.136 32.968 32.576 32.68 33.888C32.392 35.168 31.976 36.272 31.432 37.2ZM12.9045 39.7497L12.9004 39.7403C11.6072 36.8306 11 33.4189 11 29.568C11 25.7171 11.6072 22.3054 12.9004 19.3957L12.9045 19.3863L12.9088 19.377C14.2276 16.4899 16.106 14.1949 18.5713 12.5861C21.0376 10.9445 23.8596 10.144 26.968 10.144C30.1834 10.144 33.0645 10.9342 35.5203 12.5938C37.9586 14.2095 39.7884 16.5132 41.0398 19.4052C42.3302 22.3129 42.936 25.7213 42.936 29.568C42.936 33.4147 42.3302 36.8231 41.0398 39.7308C39.7881 42.6235 37.9602 44.9386 35.5291 46.5842L35.5203 46.5902L35.5115 46.596C33.0558 48.2206 30.1781 48.992 26.968 48.992C23.8654 48.992 21.0467 48.2107 18.5802 46.6037L18.5714 46.598L18.5626 46.5921C16.1043 44.9533 14.2279 42.6466 12.9088 39.759L12.9045 39.7497ZM39.208 38.928C40.36 36.336 40.936 33.216 40.936 29.568C40.936 25.92 40.36 22.8 39.208 20.208C38.088 17.616 36.488 15.632 34.408 14.256C32.328 12.848 29.848 12.144 26.968 12.144C24.216 12.144 21.784 12.848 19.672 14.256C17.56 15.632 15.912 17.616 14.728 20.208C13.576 22.8 13 25.92 13 29.568C13 33.216 13.576 36.336 14.728 38.928C15.912 41.52 17.56 43.52 19.672 44.928C21.784 46.304 24.216 46.992 26.968 46.992C29.848 46.992 32.328 46.304 34.408 44.928C36.488 43.52 38.088 41.52 39.208 38.928ZM63.9745 26.5564L63.9887 26.5324C64.2973 26.0116 64.4772 25.3796 64.4772 24.576C64.4772 23.727 64.2915 23.1123 64.0059 22.6482L63.9826 22.6102L63.9609 22.5713C63.6687 22.0452 63.282 21.6716 62.7726 21.4075L62.7327 21.3868L62.6938 21.3644C62.1953 21.0768 61.6022 20.912 60.8612 20.912C60.0781 20.912 59.4422 21.0816 58.9045 21.3803L58.893 21.3867L58.8814 21.3929C58.3928 21.6561 57.9817 22.0431 57.644 22.6092C57.3745 23.0808 57.1972 23.7108 57.1972 24.576C57.1972 25.3897 57.3664 26.0321 57.6525 26.5569C57.9919 27.1214 58.4117 27.532 58.9187 27.8275C59.4533 28.1213 60.0849 28.288 60.8612 28.288C61.6022 28.288 62.1953 28.1232 62.6938 27.8356L62.7078 27.8275L62.722 27.8197C63.2595 27.5211 63.6623 27.1182 63.9609 26.5807L63.9745 26.5564ZM57.9332 29.568C57.1012 29.088 56.4292 28.416 55.9172 27.552C55.4372 26.688 55.1972 25.696 55.1972 24.576C55.1972 23.424 55.4372 22.432 55.9172 21.6C56.4292 20.736 57.1012 20.08 57.9332 19.632C58.7972 19.152 59.7732 18.912 60.8612 18.912C61.9172 18.912 62.8612 19.152 63.6932 19.632C64.5572 20.08 65.2292 20.736 65.7092 21.6C66.2212 22.432 66.4772 23.424 66.4772 24.576C66.4772 25.696 66.2212 26.688 65.7092 27.552C65.2292 28.416 64.5572 29.088 63.6932 29.568C62.8612 30.048 61.9172 30.288 60.8612 30.288C59.7732 30.288 58.7972 30.048 57.9332 29.568ZM57.5973 35.4719C57.5813 35.472 57.5653 35.472 57.5492 35.472C56.3012 35.472 55.0532 35.232 53.8052 34.752C52.5892 34.24 51.4852 33.52 50.4932 32.592C49.5012 31.632 48.7012 30.48 48.0932 29.136C47.4852 27.792 47.1812 26.272 47.1812 24.576C47.1812 21.792 47.7892 19.472 49.0052 17.616C50.2532 15.76 51.9012 14.368 53.9492 13.44C56.0292 12.48 58.3332 12 60.8612 12C63.3572 12 65.6292 12.48 67.6772 13.44C69.7572 14.368 71.4052 15.76 72.6213 17.616C73.8692 19.472 74.4932 21.792 74.4932 24.576C74.4932 26.368 74.1092 28.032 73.3412 29.568C72.6052 31.104 71.6932 32.544 70.6052 33.888L60.9092 46.224H50.6372L60.655 35.0588C60.6277 35.0688 60.6005 35.0786 60.5732 35.088C59.7838 35.3406 58.7918 35.4686 57.5973 35.4719ZM55.9061 37.3569C54.9561 37.2236 54.0156 36.9757 53.0873 36.6187L53.058 36.6074L53.0291 36.5953C51.5889 35.9888 50.2863 35.1371 49.1269 34.0525L49.1146 34.041L49.1024 34.0292C47.9171 32.8822 46.9757 31.5181 46.271 29.9603C45.5296 28.3213 45.1812 26.5139 45.1812 24.576C45.1812 21.5016 45.8544 18.7757 47.3323 16.5199L47.3389 16.5099L47.3456 16.5C48.8006 14.3362 50.7359 12.7017 53.1172 11.6213C55.4845 10.5298 58.0765 10 60.8612 10C63.6134 10 66.1737 10.5296 68.5093 11.6212C70.918 12.6995 72.8598 14.3346 74.2877 16.5101C75.8017 18.7667 76.4932 21.4967 76.4932 24.576C76.4932 26.6587 76.0456 28.6255 75.1378 30.447C74.3367 32.1159 73.3461 33.6791 72.169 35.1349L61.8811 48.224H46.1558L55.9061 37.3569ZM78.5334 47.6382C77.2964 46.4012 76.6516 44.8533 76.6516 43.104C76.6516 41.3547 77.2964 39.8068 78.5334 38.5698C79.7919 37.3113 81.3813 36.688 83.1636 36.688C84.9791 36.688 86.6121 37.2922 87.8683 38.5967C89.0646 39.8391 89.6756 41.3786 89.6756 43.104C89.6756 44.8294 89.0646 46.3689 87.8683 47.6113C86.6121 48.9158 84.9791 49.52 83.1636 49.52C81.3813 49.52 79.7919 48.8967 78.5334 47.6382ZM79.9476 46.224C79.0836 45.36 78.6516 44.32 78.6516 43.104C78.6516 41.888 79.0836 40.848 79.9476 39.984C80.8116 39.12 81.8836 38.688 83.1636 38.688C84.5076 38.688 85.5956 39.12 86.4276 39.984C87.2596 40.848 87.6756 41.888 87.6756 43.104C87.6756 44.32 87.2596 45.36 86.4276 46.224C85.5956 47.088 84.5076 47.52 83.1636 47.52C81.8836 47.52 80.8116 47.088 79.9476 46.224Z" fill="#1B5AB8"></path></svg>