<svg xmlns="http://www.w3.org/2000/svg" width="80" height="50" viewBox="0 0 80 50" fill="none"><path d="M34.0008 42.9997C37.3127 42.9997 40.0007 40.3117 40.0007 36.9998V31H34.0008C30.6889 31 28.001 33.6879 28.001 36.9998C28.001 40.3117 30.6889 42.9997 34.0008 42.9997Z" fill="black"></path><path d="M28.001 24.9998C28.001 21.6879 30.6889 19 34.0008 19H40.0007V30.9997H34.0008C30.6889 30.9997 28.001 28.3117 28.001 24.9998Z" fill="black"></path><path d="M28 12.9998C28 9.68793 30.6879 7 33.9998 7H39.9997V18.9997H33.9998C30.6879 18.9997 28 16.3117 28 12.9998Z" fill="black"></path><path d="M40 7.00098H45.9998C49.3117 7.00098 51.9997 9.6889 51.9997 13.0008C51.9997 16.3127 49.3117 19.0007 45.9998 19.0007H40V7.00098Z" fill="black"></path><path d="M51.9997 24.9998C51.9997 28.3117 49.3117 30.9997 45.9998 30.9997C42.6879 30.9997 40 28.3117 40 24.9998C40 21.6879 42.6879 19 45.9998 19C49.3117 19 51.9997 21.6879 51.9997 24.9998Z" fill="black"></path></svg>