<svg width="116" height="63" viewBox="0 0 116 63" fill="none" xmlns="http://www.w3.org/2000/svg">
<path d="M56.0874 25.8505L59.6129 36.0631L61.8564 27.4462L76.5994 6.38284L56.0874 25.8505Z" fill="white"/>
<path d="M66.6639 30.3185L62.4974 28.4037L61.2154 36.3822L66.6639 30.3185Z" fill="white"/>
<path d="M80.7659 1.91486L62.1769 27.4116L75.3581 33.1908L80.7659 1.91486Z" fill="white"/>
<path d="M77.8814 3.51057L45.1904 22.0208L55.7786 25.5314L77.8814 3.51057Z" fill="white"/>
<path fill-rule="evenodd" clip-rule="evenodd" d="M81.6428 0.0655755C81.9887 0.21447 82.1837 0.583233 82.1111 0.951445L75.7012 33.504C75.6549 33.7388 75.5052 33.9406 75.2934 34.0537C75.0816 34.1667 74.83 34.1791 74.608 34.0875L61.4675 28.662C61.2416 28.5688 61.0709 28.3779 61.0038 28.1437C60.9368 27.9095 60.9809 27.6577 61.1234 27.4599L80.6739 0.33274C80.8936 0.0278937 81.2969 -0.0833194 81.6428 0.0655755ZM63.0142 27.5732L74.3171 32.2399L79.8306 4.23966L63.0142 27.5732Z" fill="#3D9AE7"/>
<path fill-rule="evenodd" clip-rule="evenodd" d="M81.9597 0.310964C82.2055 0.628607 82.1763 1.07854 81.8915 1.36208L56.9253 26.2226L59.8808 34.8251L60.9829 27.8019C61.0207 27.5604 61.1677 27.3496 61.3815 27.2297C61.5954 27.1099 61.8526 27.0942 62.0796 27.1873L67.5281 29.4213C67.7674 29.5194 67.9444 29.7267 68.0033 29.9777C68.0621 30.2287 67.9955 30.4926 67.8245 30.6861L60.7735 38.6647C60.5848 38.8782 60.2962 38.9756 60.0159 38.9202C59.7357 38.8648 59.5064 38.665 59.4139 38.3958L55.3758 26.6422L44.2141 22.9374C43.9155 22.8383 43.7028 22.5742 43.6705 22.2624C43.6382 21.9506 43.7922 21.6489 44.0642 21.4911L80.9216 0.108524C81.2696 -0.0933344 81.7139 -0.00667921 81.9597 0.310964ZM55.7891 25.0973L76.3885 4.58517L46.402 21.9816L55.7891 25.0973ZM61.3885 35.5534L65.8798 30.4711L62.4092 29.0481L61.3885 35.5534Z" fill="#3D9AE7"/>
<path fill-rule="evenodd" clip-rule="evenodd" d="M56.4301 40.729C55.3279 41.415 54.2422 41.9902 53.1779 42.467L52.5204 41.0118C53.5166 40.5655 54.5383 40.0247 55.5808 39.3758L56.4301 40.729ZM37.238 42.977C35.8408 42.3659 34.7314 41.6384 33.9895 40.9587L35.0745 39.7844C35.6641 40.3246 36.6166 40.9624 37.8825 41.516L37.238 42.977ZM48.9725 43.8951C46.2392 44.5305 43.7324 44.5469 41.5567 44.2137L41.8003 42.6365C43.7835 42.9402 46.0836 42.928 48.6082 42.3412L48.9725 43.8951Z" fill="#3D9AE7"/>
<path d="M14.7994 48.7943C15.1105 48.8386 15.3216 48.9326 15.4327 49.0765C15.5549 49.2203 15.616 49.4084 15.616 49.6407C15.616 50.4041 15.2049 50.7581 14.3827 50.7028L13.7994 50.653C13.1439 50.5977 12.4884 50.5534 11.8328 50.5203C11.1884 50.4871 10.5107 50.4705 9.79959 50.4705H9.04962C8.9163 52.1079 8.77741 53.6015 8.63298 54.9512L11.4995 54.9014C11.9106 54.9014 12.1828 54.9734 12.3162 55.1172C12.4606 55.261 12.5328 55.4546 12.5328 55.698C12.5328 56.0742 12.4217 56.3729 12.1995 56.5942C11.9773 56.8044 11.6606 56.9095 11.2495 56.9095H8.39965L8.29966 57.6231C8.06633 59.4486 7.56635 60.7486 6.79972 61.523C6.04419 62.2975 4.99979 62.6847 3.66651 62.6847C2.91099 62.6847 2.21657 62.5243 1.58327 62.2034C0.949961 61.8715 0.483313 61.4732 0.183326 61.0086C0.0611086 60.8205 0 60.5937 0 60.3281C0 60.0626 0.0611086 59.8303 0.183326 59.6311C0.316654 59.432 0.477758 59.3324 0.666639 59.3324C0.799967 59.3324 0.927739 59.3767 1.04996 59.4652C1.18328 59.5537 1.34994 59.7252 1.54994 59.9796C2.08325 60.6766 2.74433 61.0251 3.53319 61.0251C4.16649 61.0251 4.69425 60.7707 5.11645 60.2618C5.54977 59.7418 5.82754 58.9286 5.94975 57.8222L6.04975 56.9095H5.24978C4.99424 56.9095 4.77202 56.8376 4.58314 56.6937C4.40537 56.5499 4.31649 56.3452 4.31649 56.0797C4.31649 55.7367 4.40537 55.4767 4.58314 55.2997C4.76091 55.1116 5.02201 55.0176 5.36644 55.0176C5.67754 55.0176 5.98308 55.0121 6.28307 55.001C6.4164 53.784 6.56084 52.307 6.71639 50.57C5.51644 50.6807 4.67203 50.8743 4.18316 51.1509C3.69429 51.4275 3.44986 51.8368 3.44986 52.3789C3.44986 52.7551 3.56096 53.1147 3.78318 53.4576C3.84984 53.5572 3.88317 53.6568 3.88317 53.7564C3.88317 53.9555 3.77207 54.1325 3.54985 54.2874C3.32764 54.4312 3.07765 54.5032 2.79988 54.5032C2.4999 54.5032 2.24435 54.4146 2.03325 54.2376C1.89992 54.127 1.77215 53.9002 1.64993 53.5572C1.52771 53.2142 1.46661 52.8325 1.46661 52.4121C1.46661 51.0402 2.17213 50.0445 3.58318 49.425C5.00535 48.8054 7.07748 48.4956 9.79959 48.4956C11.6884 48.4956 13.355 48.5952 14.7994 48.7943Z" fill="black"/>
<path d="M21.0183 57.4571C21.1627 57.4571 21.2738 57.529 21.3516 57.6729C21.4294 57.8167 21.4682 57.9993 21.4682 58.2205C21.4682 58.7516 21.3071 59.0669 20.9849 59.1665C20.3183 59.3988 19.585 59.5316 18.785 59.5648C18.5739 60.4941 18.1573 61.2409 17.5351 61.8051C16.9129 62.3583 16.2074 62.6349 15.4185 62.6349C14.7519 62.6349 14.1797 62.4745 13.7019 62.1536C13.2353 61.8328 12.8797 61.4068 12.6353 60.8758C12.3908 60.3447 12.2686 59.7694 12.2686 59.1499C12.2686 58.309 12.4297 57.5622 12.7519 56.9095C13.0742 56.2457 13.5186 55.7312 14.0852 55.3661C14.6519 54.9899 15.2796 54.8019 15.9685 54.8019C16.8129 54.8019 17.4906 55.0951 18.0017 55.6814C18.5239 56.2567 18.8295 56.9703 18.9184 57.8222C19.4406 57.789 20.0628 57.6784 20.7849 57.4903C20.8738 57.4682 20.9516 57.4571 21.0183 57.4571ZM15.5518 60.8758C15.9074 60.8758 16.2129 60.732 16.4685 60.4443C16.7351 60.1567 16.9129 59.7418 17.0018 59.1996C16.6573 58.9673 16.3907 58.6631 16.2018 58.2869C16.024 57.9107 15.9351 57.5125 15.9351 57.092C15.9351 56.915 15.9518 56.738 15.9851 56.561H15.9018C15.4574 56.561 15.0852 56.7767 14.7852 57.2082C14.4963 57.6286 14.3519 58.2261 14.3519 59.0005C14.3519 59.609 14.4685 60.0737 14.7019 60.3945C14.9463 60.7154 15.2296 60.8758 15.5518 60.8758Z" fill="black"/>
<path d="M21.2211 62.6349C20.7989 62.6349 20.4989 62.4136 20.3212 61.9711C20.1545 61.5285 20.0712 60.8205 20.0712 59.8469C20.0712 58.4086 20.2767 57.0422 20.6878 55.7478C20.7878 55.427 20.9489 55.1946 21.1711 55.0508C21.4044 54.8959 21.7267 54.8185 22.1378 54.8185C22.36 54.8185 22.5155 54.8461 22.6044 54.9014C22.6933 54.9568 22.7377 55.0619 22.7377 55.2168C22.7377 55.3938 22.6544 55.7921 22.4877 56.4116C22.3766 56.8542 22.2877 57.2414 22.2211 57.5733C22.1544 57.9052 22.0989 58.3146 22.0544 58.8014C22.4211 57.8499 22.8322 57.0754 23.2877 56.478C23.7432 55.8806 24.1877 55.4546 24.621 55.2002C25.0654 54.9457 25.4709 54.8185 25.8376 54.8185C26.5598 54.8185 26.9209 55.178 26.9209 55.8972C26.9209 56.3286 26.7987 57.1086 26.5542 58.2371C26.3431 59.1997 26.2376 59.8358 26.2376 60.1456C26.2376 60.5881 26.3987 60.8094 26.7209 60.8094C26.9431 60.8094 27.2042 60.6766 27.5042 60.4111C27.8153 60.1345 28.2264 59.692 28.7375 59.0835C28.8708 58.9286 29.0208 58.8511 29.1875 58.8511C29.3319 58.8511 29.443 58.9175 29.5208 59.0503C29.6097 59.1831 29.6541 59.3656 29.6541 59.5979C29.6541 60.0405 29.5486 60.3835 29.3375 60.6269C28.8597 61.2132 28.3431 61.6945 27.7875 62.0707C27.2431 62.4468 26.6209 62.6349 25.9209 62.6349C25.3543 62.6349 24.9265 62.4745 24.6376 62.1536C24.3488 61.8217 24.2043 61.346 24.2043 60.7264C24.2043 60.4166 24.2821 59.8635 24.4377 59.0669C24.5821 58.3699 24.6543 57.8886 24.6543 57.6231C24.6543 57.4461 24.5932 57.3576 24.471 57.3576C24.3266 57.3576 24.121 57.5456 23.8543 57.9218C23.5988 58.2869 23.3321 58.7737 23.0544 59.3822C22.7877 59.9907 22.5711 60.6324 22.4044 61.3073C22.2822 61.8273 22.1378 62.1813 21.9711 62.3694C21.8155 62.5464 21.5656 62.6349 21.2211 62.6349Z" fill="black"/>
<path d="M31.4056 63C30.8278 63 30.3834 62.8672 30.0723 62.6017C29.7723 62.3362 29.6223 62.0375 29.6223 61.7056C29.6223 61.4179 29.7279 61.169 29.939 60.9588C30.1501 60.7486 30.4612 60.6435 30.8723 60.6435C31.0167 60.6435 31.1834 60.66 31.3723 60.6932C31.5723 60.7154 31.7223 60.732 31.8222 60.743C31.8111 60.4554 31.7445 60.1843 31.6223 59.9298C31.5111 59.6754 31.3667 59.432 31.1889 59.1996C31.0112 58.9563 30.8445 58.746 30.689 58.569C30.3445 59.2218 30.0001 59.7639 29.6557 60.1954C29.3224 60.6269 28.9557 61.0362 28.5557 61.4234C28.3557 61.6226 28.1446 61.7222 27.9224 61.7222C27.7446 61.7222 27.6002 61.6613 27.4891 61.5396C27.378 61.4068 27.3224 61.2464 27.3224 61.0583C27.3224 60.8371 27.4002 60.6324 27.5558 60.4443L27.7724 60.1788C28.3835 59.4265 28.8446 58.8069 29.1557 58.3201C29.3446 57.9992 29.5668 57.5733 29.8223 57.0422C30.0779 56.5001 30.3279 55.9414 30.5723 55.3661C30.7834 54.8793 31.2223 54.6359 31.8889 54.6359C32.2 54.6359 32.4167 54.6636 32.5389 54.7189C32.6611 54.7742 32.7222 54.8627 32.7222 54.9844C32.7222 55.0508 32.7 55.1559 32.6555 55.2997C32.6111 55.4436 32.55 55.5874 32.4722 55.7312C32.2722 56.1295 32.1722 56.4669 32.1722 56.7435C32.1722 56.9095 32.2278 57.092 32.3389 57.2912C32.4611 57.4903 32.6444 57.7393 32.8889 58.038C33.2444 58.5026 33.5111 58.9009 33.6888 59.2328C33.8777 59.5537 33.9722 59.9077 33.9722 60.2949C33.9722 60.4056 33.961 60.5605 33.9388 60.7596C34.4832 60.5494 35.1221 59.9907 35.8554 59.0835C35.9887 58.9286 36.1387 58.8511 36.3054 58.8511C36.4498 58.8511 36.5609 58.9175 36.6387 59.0503C36.7276 59.1831 36.772 59.3656 36.772 59.5979C36.772 60.0184 36.6665 60.3613 36.4554 60.6269C35.8999 61.3128 35.3665 61.783 34.8555 62.0375C34.3555 62.2809 33.7333 62.4136 32.9889 62.4358C32.5444 62.8119 32.0167 63 31.4056 63Z" fill="black"/>
<path d="M42.8511 58.8511C42.9955 58.8511 43.1066 58.9175 43.1844 59.0503C43.2733 59.1831 43.3177 59.3656 43.3177 59.5979C43.3177 60.0405 43.2122 60.3835 43.0011 60.6269C42.59 61.1247 42.0067 61.5839 41.2512 62.0043C40.5067 62.4247 39.7068 62.6349 38.8513 62.6349C37.6846 62.6349 36.7791 62.3196 36.1347 61.689C35.4903 61.0583 35.1681 60.1954 35.1681 59.1001C35.1681 58.3367 35.3292 57.6286 35.6514 56.9759C35.9736 56.3121 36.418 55.7865 36.9847 55.3993C37.5624 55.0121 38.2124 54.8185 38.9346 54.8185C39.579 54.8185 40.0956 55.0121 40.4845 55.3993C40.8734 55.7755 41.0678 56.2899 41.0678 56.9427C41.0678 57.7061 40.7901 58.3643 40.2345 58.9175C39.6901 59.4596 38.7624 59.8911 37.4513 60.212C37.7291 60.7209 38.2568 60.9754 39.0346 60.9754C39.5346 60.9754 40.1012 60.8039 40.7345 60.4609C41.3789 60.1069 41.9345 59.6477 42.4011 59.0835C42.5344 58.9286 42.6844 58.8511 42.8511 58.8511ZM38.6513 56.4448C38.2402 56.4448 37.8902 56.6827 37.6013 57.1584C37.3235 57.6342 37.1847 58.2095 37.1847 58.8843V58.9175C37.8402 58.7626 38.3568 58.5303 38.7346 58.2205C39.1124 57.9107 39.3012 57.5512 39.3012 57.1418C39.3012 56.9316 39.2401 56.7657 39.1179 56.644C39.0068 56.5112 38.8513 56.4448 38.6513 56.4448Z" fill="black"/>
<path d="M43.144 62.6349C42.7218 62.6349 42.4219 62.4136 42.2441 61.9711C42.0774 61.5285 41.9941 60.8205 41.9941 59.8469C41.9941 58.4086 42.1996 57.0422 42.6107 55.7478C42.7107 55.427 42.8718 55.1946 43.094 55.0508C43.3274 54.8959 43.6496 54.8185 44.0607 54.8185C44.2829 54.8185 44.4384 54.8461 44.5273 54.9014C44.6162 54.9568 44.6606 55.0619 44.6606 55.2168C44.6606 55.3938 44.5773 55.7921 44.4107 56.4116C44.2995 56.8542 44.2107 57.2414 44.144 57.5733C44.0773 57.9052 44.0218 58.3146 43.9773 58.8014C44.344 57.8499 44.7551 57.0754 45.2106 56.478C45.6662 55.8806 46.1106 55.4546 46.5439 55.2002C46.9883 54.9457 47.3939 54.8185 47.7605 54.8185C48.1161 54.8185 48.3827 54.9125 48.5605 55.1006C48.7494 55.2776 48.8438 55.5431 48.8438 55.8972C48.8438 56.1848 48.7827 56.7269 48.6605 57.5235C48.5494 58.1984 48.4605 58.8401 48.3938 59.4486C48.3272 60.046 48.2938 60.7154 48.2938 61.4566C48.2938 61.877 48.2049 62.1813 48.0272 62.3694C47.8605 62.5464 47.5827 62.6349 47.1939 62.6349C46.8272 62.6349 46.5606 62.5409 46.3939 62.3528C46.2272 62.1647 46.1439 61.8826 46.1439 61.5064C46.1439 61.0639 46.2217 60.3337 46.3772 59.3158C46.5106 58.4307 46.5772 57.8665 46.5772 57.6231C46.5772 57.4461 46.5161 57.3576 46.3939 57.3576C46.2495 57.3576 46.0439 57.5456 45.7773 57.9218C45.5217 58.2869 45.2551 58.7737 44.9773 59.3822C44.7106 59.9907 44.494 60.6324 44.3273 61.3073C44.2051 61.8273 44.0607 62.1813 43.894 62.3694C43.7385 62.5464 43.4885 62.6349 43.144 62.6349Z" fill="black"/>
<path d="M68.0434 55.3827C68.2989 55.3827 68.4823 55.438 68.5934 55.5487C68.7156 55.6593 68.7767 55.8031 68.7767 55.9801C68.7767 56.2678 68.6878 56.5223 68.51 56.7435C68.3434 56.9648 68.0767 57.081 67.7101 57.092C66.8212 57.1142 66.0324 57.0478 65.3435 56.8929C64.5547 58.5414 63.5991 59.9133 62.477 61.0086C61.3659 62.0928 60.2493 62.6349 59.1271 62.6349C57.9716 62.6349 57.1105 61.9656 56.5439 60.6269C55.9772 59.2882 55.6939 57.4793 55.6939 55.2002C55.6939 53.253 55.8328 51.5049 56.1106 49.956C56.2106 49.3807 56.3494 48.9935 56.5272 48.7943C56.7161 48.5841 57.0327 48.479 57.4772 48.479C58.2105 48.479 58.5771 48.7943 58.5771 49.425C58.5771 49.4913 58.566 49.613 58.5438 49.7901C58.2105 51.7815 58.0438 53.5849 58.0438 55.2002C58.0438 56.8929 58.1827 58.1818 58.4605 59.0669C58.7493 59.9409 59.1771 60.3779 59.7437 60.3779C60.3215 60.3779 60.9493 59.9796 61.627 59.1831C62.3047 58.3865 62.9269 57.3852 63.4936 56.1793C62.8158 55.7589 62.3047 55.2168 61.9603 54.5529C61.6159 53.8781 61.4437 53.1036 61.4437 52.2296C61.4437 51.3556 61.577 50.6198 61.8437 50.0224C62.1214 49.4139 62.4936 48.9603 62.9603 48.6616C63.438 48.3629 63.9658 48.2135 64.5435 48.2135C65.2546 48.2135 65.8157 48.468 66.2268 48.9769C66.649 49.4858 66.8601 50.1828 66.8601 51.0679C66.8601 52.3402 66.5823 53.7287 66.0268 55.2333C66.6157 55.3329 67.2879 55.3827 68.0434 55.3827ZM63.1269 52.1134C63.1269 53.1976 63.4769 53.9998 64.1769 54.5197C64.6102 53.2806 64.8269 52.2572 64.8269 51.4496C64.8269 50.9849 64.7658 50.6475 64.6435 50.4373C64.5213 50.216 64.3547 50.1054 64.1436 50.1054C63.8436 50.1054 63.5991 50.2824 63.4103 50.6364C63.2214 50.9794 63.1269 51.4717 63.1269 52.1134Z" fill="black"/>
<path d="M74.588 58.8511C74.7325 58.8511 74.8436 58.9175 74.9214 59.0503C75.0103 59.1831 75.0547 59.3656 75.0547 59.5979C75.0547 60.0405 74.9491 60.3835 74.738 60.6269C74.327 61.1247 73.7436 61.5839 72.9881 62.0043C72.2437 62.4247 71.4437 62.6349 70.5882 62.6349C69.4216 62.6349 68.5161 62.3196 67.8717 61.689C67.2272 61.0583 66.905 60.1954 66.905 59.1001C66.905 58.3367 67.0661 57.6286 67.3883 56.9759C67.7106 56.3121 68.155 55.7865 68.7216 55.3993C69.2994 55.0121 69.9494 54.8185 70.6715 54.8185C71.316 54.8185 71.8326 55.0121 72.2215 55.3993C72.6104 55.7755 72.8048 56.2899 72.8048 56.9427C72.8048 57.7061 72.527 58.3643 71.9715 58.9175C71.4271 59.4596 70.4993 59.8911 69.1883 60.212C69.466 60.7209 69.9938 60.9754 70.7715 60.9754C71.2715 60.9754 71.8382 60.8039 72.4715 60.4609C73.1159 60.1069 73.6714 59.6477 74.1381 59.0835C74.2714 58.9286 74.4214 58.8511 74.588 58.8511ZM70.3882 56.4448C69.9771 56.4448 69.6271 56.6827 69.3383 57.1584C69.0605 57.6342 68.9216 58.2095 68.9216 58.8843V58.9175C69.5771 58.7626 70.0938 58.5303 70.4716 58.2205C70.8493 57.9107 71.0382 57.5512 71.0382 57.1418C71.0382 56.9316 70.9771 56.7657 70.8549 56.644C70.7438 56.5112 70.5882 56.4448 70.3882 56.4448Z" fill="black"/>
<path d="M74.881 62.6349C74.4588 62.6349 74.1588 62.4136 73.981 61.9711C73.8144 61.5285 73.7311 60.8205 73.7311 59.8469C73.7311 58.4086 73.9366 57.0422 74.3477 55.7478C74.4477 55.427 74.6088 55.1946 74.831 55.0508C75.0643 54.8959 75.3865 54.8185 75.7976 54.8185C76.0198 54.8185 76.1754 54.8461 76.2643 54.9014C76.3532 54.9568 76.3976 55.0619 76.3976 55.2168C76.3976 55.3938 76.3143 55.7921 76.1476 56.4116C76.0365 56.8542 75.9476 57.2414 75.881 57.5733C75.8143 57.9052 75.7587 58.3146 75.7143 58.8014C76.081 57.8499 76.492 57.0754 76.9476 56.478C77.4031 55.8806 77.8476 55.4546 78.2809 55.2002C78.7253 54.9457 79.1308 54.8185 79.4975 54.8185C80.2197 54.8185 80.5808 55.178 80.5808 55.8972C80.5808 56.3286 80.4586 57.1086 80.2141 58.2371C80.003 59.1997 79.8975 59.8358 79.8975 60.1456C79.8975 60.5881 80.0586 60.8094 80.3808 60.8094C80.603 60.8094 80.8641 60.6766 81.1641 60.4111C81.4752 60.1345 81.8863 59.692 82.3974 59.0835C82.5307 58.9286 82.6807 58.8511 82.8473 58.8511C82.9918 58.8511 83.1029 58.9175 83.1807 59.0503C83.2696 59.1831 83.314 59.3656 83.314 59.5979C83.314 60.0405 83.2084 60.3835 82.9973 60.6269C82.5196 61.2132 82.0029 61.6945 81.4474 62.0707C80.903 62.4468 80.2808 62.6349 79.5808 62.6349C79.0142 62.6349 78.5864 62.4745 78.2975 62.1536C78.0087 61.8217 77.8642 61.346 77.8642 60.7264C77.8642 60.4166 77.942 59.8635 78.0975 59.0669C78.242 58.3699 78.3142 57.8886 78.3142 57.6231C78.3142 57.4461 78.2531 57.3576 78.1309 57.3576C77.9864 57.3576 77.7809 57.5456 77.5142 57.9218C77.2587 58.2869 76.992 58.7737 76.7143 59.3822C76.4476 59.9907 76.231 60.6324 76.0643 61.3073C75.9421 61.8273 75.7976 62.1813 75.631 62.3694C75.4754 62.5464 75.2254 62.6349 74.881 62.6349Z" fill="black"/>
<path d="M89.3986 58.8511C89.5431 58.8511 89.6542 58.9175 89.7319 59.0503C89.8208 59.1831 89.8653 59.3656 89.8653 59.5979C89.8653 60.0405 89.7597 60.3835 89.5486 60.6269C89.0709 61.2132 88.5487 61.6945 87.982 62.0707C87.4154 62.4468 86.7654 62.6349 86.0321 62.6349C83.7655 62.6349 82.6322 61.0473 82.6322 57.872C82.6322 57.3852 82.6489 56.8929 82.6822 56.395H82.0323C81.6989 56.395 81.4712 56.3342 81.349 56.2125C81.2379 56.0908 81.1823 55.8972 81.1823 55.6316C81.1823 55.0121 81.4323 54.7023 81.9323 54.7023H82.8822C83.0711 53.4853 83.36 52.3734 83.7489 51.3666C84.1377 50.3598 84.6044 49.5577 85.1488 48.9603C85.7043 48.3629 86.2988 48.0641 86.9321 48.0641C87.3987 48.0641 87.7654 48.2688 88.032 48.6782C88.2987 49.0875 88.432 49.602 88.432 50.2215C88.432 51.9364 87.7098 53.43 86.2654 54.7023H88.132C88.3098 54.7023 88.4376 54.741 88.5153 54.8185C88.5931 54.8959 88.632 55.0397 88.632 55.2499C88.632 56.0133 88.0042 56.395 86.7487 56.395H84.7155C84.6933 56.9482 84.6822 57.3797 84.6822 57.6895C84.6822 58.8401 84.8155 59.6477 85.0821 60.1124C85.3599 60.5771 85.7932 60.8094 86.3821 60.8094C86.8598 60.8094 87.2821 60.6656 87.6487 60.3779C88.0154 60.0903 88.4487 59.6588 88.9486 59.0835C89.082 58.9286 89.232 58.8511 89.3986 58.8511ZM86.4821 49.6573C86.3154 49.6573 86.1265 49.8675 85.9154 50.2879C85.7155 50.6973 85.521 51.2726 85.3321 52.0138C85.1544 52.744 85.0044 53.5572 84.8822 54.4534C85.5377 53.8891 86.0265 53.2585 86.3488 52.5615C86.6821 51.8534 86.8487 51.2117 86.8487 50.6364C86.8487 49.9837 86.7265 49.6573 86.4821 49.6573Z" fill="black"/>
<path d="M90.2082 62.6349C89.7083 62.6349 89.2972 62.4081 88.9749 61.9545C88.6639 61.4898 88.5083 60.9145 88.5083 60.2286C88.5083 59.3988 88.5639 58.6409 88.675 57.955C88.7861 57.258 88.9694 56.5223 89.2249 55.7478C89.336 55.4159 89.4916 55.178 89.6916 55.0342C89.8916 54.8904 90.2082 54.8185 90.6416 54.8185C90.886 54.8185 91.0526 54.8572 91.1415 54.9346C91.2415 55.0121 91.2915 55.1282 91.2915 55.2831C91.2915 55.3716 91.2304 55.6704 91.1082 56.1793C90.9971 56.5886 90.9082 56.9593 90.8415 57.2912C90.6193 58.4529 90.5082 59.2273 90.5082 59.6145C90.5082 59.8469 90.536 60.0128 90.5916 60.1124C90.6471 60.2009 90.736 60.2452 90.8582 60.2452C91.0249 60.2452 91.2304 60.0792 91.4749 59.7473C91.7304 59.4154 91.997 58.912 92.2748 58.2371C92.5637 57.5622 92.8415 56.7325 93.1081 55.7478C93.197 55.4159 93.3303 55.178 93.5081 55.0342C93.697 54.8904 93.9747 54.8185 94.3414 54.8185C94.5969 54.8185 94.7747 54.8517 94.8747 54.918C94.9747 54.9734 95.0247 55.084 95.0247 55.2499C95.0247 55.5265 94.8858 56.2844 94.6081 57.5235C94.297 58.9397 94.1414 59.8137 94.1414 60.1456C94.1414 60.3558 94.1858 60.5218 94.2747 60.6435C94.3636 60.7541 94.4803 60.8094 94.6247 60.8094C94.8469 60.8094 95.108 60.6766 95.408 60.4111C95.7191 60.1345 96.1302 59.692 96.6413 59.0835C96.7746 58.9286 96.9246 58.8511 97.0913 58.8511C97.2357 58.8511 97.3468 58.9175 97.4246 59.0503C97.5135 59.1831 97.5579 59.3656 97.5579 59.5979C97.5579 60.0405 97.4524 60.3835 97.2413 60.6269C96.7635 61.2132 96.2469 61.6945 95.6913 62.0707C95.1469 62.4468 94.5247 62.6349 93.8248 62.6349C93.2914 62.6349 92.897 62.4302 92.6415 62.0209C92.397 61.6115 92.2748 61.0362 92.2748 60.2949C92.0859 61.0473 91.8026 61.6281 91.4249 62.0375C91.0471 62.4358 90.6415 62.6349 90.2082 62.6349Z" fill="black"/>
<path d="M97.3898 62.6349C96.9676 62.6349 96.6676 62.4136 96.4899 61.9711C96.3232 61.5285 96.2399 60.8205 96.2399 59.8469C96.2399 58.4086 96.4454 57.0422 96.8565 55.7478C96.9565 55.427 97.1176 55.1946 97.3398 55.0508C97.5732 54.8959 97.8954 54.8185 98.3065 54.8185C98.5287 54.8185 98.6842 54.8461 98.7731 54.9014C98.862 54.9568 98.9064 55.0619 98.9064 55.2168C98.9064 55.3938 98.8231 55.7921 98.6565 56.4116C98.5453 56.8542 98.4565 57.2414 98.3898 57.5733C98.3231 57.9052 98.2676 58.3146 98.2231 58.8014C98.5898 57.8499 99.0009 57.0754 99.4564 56.478C99.9119 55.8806 100.356 55.4546 100.79 55.2002C101.234 54.9457 101.64 54.8185 102.006 54.8185C102.729 54.8185 103.09 55.178 103.09 55.8972C103.09 56.041 103.04 56.3895 102.94 56.9427C102.851 57.3852 102.806 57.6618 102.806 57.7724C102.806 58.1597 102.945 58.3533 103.223 58.3533C103.534 58.3533 103.934 58.1099 104.423 57.6231C104.567 57.4793 104.717 57.4073 104.873 57.4073C105.017 57.4073 105.128 57.4737 105.206 57.6065C105.295 57.7282 105.34 57.8941 105.34 58.1044C105.34 58.5137 105.228 58.8346 105.006 59.0669C104.695 59.3877 104.328 59.6643 103.906 59.8967C103.495 60.1179 103.056 60.2286 102.59 60.2286C102.001 60.2286 101.551 60.0792 101.24 59.7805C100.94 59.4818 100.79 59.078 100.79 58.569C100.79 58.4031 100.806 58.2371 100.84 58.0712C100.862 57.8499 100.873 57.7005 100.873 57.6231C100.873 57.4461 100.812 57.3576 100.69 57.3576C100.523 57.3576 100.301 57.5456 100.023 57.9218C99.7564 58.2869 99.4897 58.7737 99.2231 59.3822C98.9564 59.9907 98.7398 60.6324 98.5731 61.3073C98.4509 61.8273 98.3065 62.1813 98.1398 62.3694C97.9843 62.5464 97.7343 62.6349 97.3898 62.6349Z" fill="black"/>
<path d="M111.224 58.8511C111.368 58.8511 111.479 58.9175 111.557 59.0503C111.646 59.1831 111.691 59.3656 111.691 59.5979C111.691 60.0405 111.585 60.3835 111.374 60.6269C110.963 61.1247 110.379 61.5839 109.624 62.0043C108.88 62.4247 108.08 62.6349 107.224 62.6349C106.057 62.6349 105.152 62.3196 104.508 61.689C103.863 61.0583 103.541 60.1954 103.541 59.1001C103.541 58.3367 103.702 57.6286 104.024 56.9759C104.346 56.3121 104.791 55.7865 105.357 55.3993C105.935 55.0121 106.585 54.8185 107.307 54.8185C107.952 54.8185 108.468 55.0121 108.857 55.3993C109.246 55.7755 109.441 56.2899 109.441 56.9427C109.441 57.7061 109.163 58.3643 108.607 58.9175C108.063 59.4596 107.135 59.8911 105.824 60.212C106.102 60.7209 106.63 60.9754 107.407 60.9754C107.907 60.9754 108.474 60.8039 109.107 60.4609C109.752 60.1069 110.307 59.6477 110.774 59.0835C110.907 58.9286 111.057 58.8511 111.224 58.8511ZM107.024 56.4448C106.613 56.4448 106.263 56.6827 105.974 57.1584C105.696 57.6342 105.557 58.2095 105.557 58.8843V58.9175C106.213 58.7626 106.73 58.5303 107.107 58.2205C107.485 57.9107 107.674 57.5512 107.674 57.1418C107.674 56.9316 107.613 56.7657 107.491 56.644C107.38 56.5112 107.224 56.4448 107.024 56.4448Z" fill="black"/>
<path d="M113.433 63C112.856 63 112.411 62.8672 112.1 62.6017C111.8 62.3362 111.65 62.0375 111.65 61.7056C111.65 61.4179 111.756 61.169 111.967 60.9588C112.178 60.7486 112.489 60.6435 112.9 60.6435C113.045 60.6435 113.211 60.66 113.4 60.6932C113.6 60.7154 113.75 60.732 113.85 60.743C113.839 60.4554 113.772 60.1843 113.65 59.9298C113.539 59.6754 113.395 59.432 113.217 59.1996C113.039 58.9563 112.872 58.746 112.717 58.569C112.372 59.2218 112.028 59.7639 111.684 60.1954C111.35 60.6269 110.984 61.0362 110.584 61.4234C110.384 61.6226 110.172 61.7222 109.95 61.7222C109.772 61.7222 109.628 61.6613 109.517 61.5396C109.406 61.4068 109.35 61.2464 109.35 61.0583C109.35 60.8371 109.428 60.6324 109.584 60.4443L109.8 60.1788C110.411 59.4265 110.872 58.8069 111.184 58.3201C111.384 57.9992 111.584 57.6176 111.784 57.175C111.995 56.7325 112.267 56.1295 112.6 55.3661C112.811 54.8793 113.25 54.6359 113.917 54.6359C114.228 54.6359 114.445 54.6636 114.567 54.7189C114.689 54.7742 114.75 54.8627 114.75 54.9844C114.75 55.0508 114.728 55.1559 114.683 55.2997C114.639 55.4436 114.578 55.5874 114.5 55.7312C114.3 56.1295 114.2 56.4669 114.2 56.7435C114.2 56.9095 114.256 57.092 114.367 57.2912C114.489 57.4903 114.672 57.7393 114.917 58.038C115.272 58.5026 115.539 58.9009 115.717 59.2328C115.906 59.5537 116 59.9077 116 60.2949C116 60.7596 115.889 61.2022 115.667 61.6226C115.456 62.0319 115.156 62.3638 114.767 62.6183C114.378 62.8728 113.933 63 113.433 63Z" fill="black"/>
</svg>
