<svg xmlns="http://www.w3.org/2000/svg" width="80" height="50" viewBox="0 0 80 50" fill="none"><path d="M44.4348 4L49.2818 6.78731L30.1937 17.7641L25.3467 14.9768L44.4348 4Z" fill="black"></path><path d="M49.4764 7.37305L30.5085 18.2758L30.5078 23.7921L49.4758 12.8893L49.4764 7.37305Z" fill="black"></path><path d="M41.8489 18.1377L30.5485 24.6333L30.5479 30.1497L41.8483 23.654L41.8489 18.1377Z" fill="black"></path><path d="M37.5174 26.8584L30.5221 30.8795L30.5215 36.396L37.5168 32.3749L37.5174 26.8584Z" fill="black"></path><path d="M25.0019 15.5088L29.8774 18.3111L29.8755 23.8287L25 21.0264L25.0019 15.5088Z" fill="black"></path><path d="M25.0488 21.8281L29.8651 24.5965L29.8632 30.114L25.0469 27.3457L25.0488 21.8281Z" fill="black"></path><path d="M25.0459 28.1104L29.8639 30.8797L29.8619 36.7612L25.0439 33.9919L25.0459 28.1104Z" fill="black"></path><path d="M35.7825 45.9999L30.9355 43.2126L49.807 32.3604L54.6539 35.1477L35.7825 45.9999Z" fill="black"></path><path d="M30.5508 42.7357L49.4902 31.8493L49.4908 26.333L30.5514 37.2194L30.5508 42.7357Z" fill="black"></path><path d="M38.1504 31.9866L49.4508 25.491L49.4514 19.9746L38.151 26.4702L38.1504 31.9866Z" fill="black"></path><path d="M42.4824 23.266L49.4777 19.245L49.4783 13.7285L42.483 17.7496L42.4824 23.266Z" fill="black"></path><path d="M54.9985 34.6529L50.123 31.8506L50.1249 26.333L55.0004 29.1353L54.9985 34.6529Z" fill="black"></path><path d="M54.9521 28.2976L50.1357 25.5293L50.1376 20.0117L54.9539 22.78L54.9521 28.2976Z" fill="black"></path><path d="M54.9537 22.0158L50.1357 19.2465L50.1377 13.4707L54.9557 16.24L54.9537 22.0158Z" fill="black"></path></svg>