<svg xmlns="http://www.w3.org/2000/svg" width="32" height="32" viewBox="0 0 32 32" fill="none"><path d="M13.44 6.81V8.22H10.5C10.3969 7.92399 10.2282 7.65512 10.0065 7.43347C9.7849 7.21182 9.51601 7.04312 9.22 6.94V4H7.81V6.94C7.51398 7.04312 7.2451 7.21182 7.02345 7.43347C6.8018 7.65512 6.63312 7.92399 6.53 8.22H5V9.63H6.53C6.63312 9.92602 6.8018 10.1949 7.02345 10.4166C7.2451 10.6382 7.51398 10.8069 7.81 10.91V26.6H5V28H26.09V26.6H20.79C21.0378 26.1713 21.1689 25.6852 21.17 25.19C20.9111 23.9371 20.3746 22.7582 19.6 21.74L18.82 20.56L18.06 22.75C18.0341 22.8227 17.9916 22.8884 17.9361 22.942C17.8805 22.9956 17.8132 23.0356 17.7396 23.0588C17.666 23.0821 17.588 23.088 17.5117 23.076C17.4355 23.0641 17.363 23.0347 17.3 22.99L16.72 22.58L16.31 23.17C15.8609 23.7449 15.596 24.442 15.55 25.17C15.5511 25.6652 15.6822 26.1514 15.93 26.58H9.22V10.91C9.51601 10.8069 9.7849 10.6382 10.0065 10.4166C10.2282 10.1949 10.3969 9.92602 10.5 9.63H13.44V11.03H16.25V11.51L11.81 17.51L13.81 19.51H22.81L24.81 17.51L20.37 11.51V11.03H23.18V6.81H20.47V5.41H21.17V4H15.55V5.41H16.25V6.81H13.44ZM17 25.19C17.018 24.9288 17.0967 24.6754 17.23 24.45C17.5619 24.5221 17.907 24.5048 18.23 24.4C18.6365 24.2828 18.9899 24.0284 19.23 23.68C19.5282 24.1419 19.7415 24.6532 19.86 25.19C19.86 25.564 19.7114 25.9226 19.447 26.187C19.1826 26.4515 18.824 26.6 18.45 26.6C18.076 26.6 17.7174 26.4515 17.453 26.187C17.1886 25.9226 17.04 25.564 17.04 25.19H17ZM8.52 9.63C8.37917 9.63199 8.24092 9.59206 8.12286 9.51526C8.00479 9.43846 7.91223 9.32828 7.85696 9.19873C7.80168 9.06918 7.78619 8.9261 7.81245 8.78772C7.8387 8.64934 7.90552 8.5219 8.00441 8.4216C8.10329 8.3213 8.22977 8.2527 8.36777 8.22449C8.50576 8.19627 8.64903 8.20972 8.77934 8.26315C8.90966 8.31658 9.02115 8.40757 9.09961 8.52454C9.17808 8.6415 9.21999 8.77917 9.22 8.92001C9.22002 9.1066 9.14659 9.28568 9.01559 9.41855C8.8846 9.55142 8.70657 9.62738 8.52 9.63V9.63ZM14.84 9.63V8.22H16.25V9.63H14.84ZM19.41 12.44L20.41 13.85H16.27L17.27 12.44H19.41ZM22.29 18.16H14.43L13.66 17.39L15.23 15.25H21.49L23.06 17.39L22.29 18.16ZM21.88 8.22V9.63H20.47V8.22H21.88ZM19.06 5.41V11.03H17.66V5.41H19.06Z" fill="#1B5AB8"></path></svg>