<svg xmlns="http://www.w3.org/2000/svg" width="32" height="32" viewBox="0 0 32 32" fill="none"><path d="M23.5099 19.88C23.2821 19.8808 23.0559 19.9179 22.8399 19.99V10.1C22.8399 6.92001 20.7399 4.61001 17.8399 4.61001H17.1299C16.9755 4.14464 16.6794 3.73921 16.2831 3.45051C15.8868 3.1618 15.4102 3.00429 14.9199 3.00001C14.3798 2.99822 13.8561 3.18575 13.4399 3.53001L7.49988 3.00001L7.37988 4.56001L12.5799 5.00001V6.43001H8.81988V8.00001H12.5799V9.11001C11.8197 9.52148 11.1849 10.131 10.743 10.8739C10.3012 11.6169 10.0685 12.4656 10.0699 13.33V29H19.7599V13.33C19.7612 12.4656 19.5286 11.6169 19.0867 10.8739C18.6448 10.131 18.0101 9.52148 17.2499 9.11001V6.11001H17.8499C19.8499 6.11001 21.3099 7.74001 21.3099 10.11V29H25.7199V22.09C25.7199 21.5039 25.487 20.9418 25.0726 20.5273C24.6581 20.1129 24.096 19.88 23.5099 19.88V19.88ZM14.9199 4.53001C15.0801 4.53001 15.2367 4.57752 15.3699 4.66652C15.5031 4.75553 15.6069 4.88203 15.6682 5.03004C15.7295 5.17805 15.7456 5.34091 15.7143 5.49804C15.6831 5.65516 15.6059 5.79949 15.4926 5.91277C15.3794 6.02605 15.235 6.10319 15.0779 6.13445C14.9208 6.1657 14.7579 6.14966 14.6099 6.08836C14.4619 6.02705 14.3354 5.92323 14.2464 5.79002C14.1574 5.65682 14.1099 5.50022 14.1099 5.34001C14.1085 5.23327 14.1286 5.12734 14.1688 5.02846C14.209 4.92958 14.2686 4.83975 14.3441 4.76426C14.4196 4.68878 14.5094 4.62917 14.6083 4.58893C14.7072 4.5487 14.8131 4.52867 14.9199 4.53001V4.53001ZM11.5999 16.69H18.2299V21.21H11.5999V16.69ZM18.2299 27.47H11.5999V22.74H18.2299V27.47ZM18.2299 13.33V15.16H11.5999V13.33C11.5999 12.4618 11.9441 11.6291 12.557 11.0142C13.17 10.3994 14.0017 10.0527 14.8699 10.05H14.9999C15.8619 10.0606 16.6849 10.4111 17.2898 11.0254C17.8947 11.6396 18.2326 12.4679 18.2299 13.33V13.33ZM14.9999 8.52001H14.8699C14.6154 8.5197 14.3612 8.53977 14.1099 8.58001V7.58001C14.628 7.77954 15.2018 7.77954 15.7199 7.58001V8.58001C15.4818 8.54149 15.2411 8.52143 14.9999 8.52001V8.52001ZM24.2299 27.52H22.8399V22.09C22.8282 21.9945 22.837 21.8976 22.8656 21.8057C22.8942 21.7138 22.942 21.629 23.0058 21.5569C23.0696 21.4849 23.148 21.4272 23.2357 21.3876C23.3235 21.3481 23.4186 21.3277 23.5149 21.3277C23.6111 21.3277 23.7063 21.3481 23.794 21.3876C23.8818 21.4272 23.9602 21.4849 24.024 21.5569C24.0878 21.629 24.1356 21.7138 24.1642 21.8057C24.1928 21.8976 24.2015 21.9945 24.1899 22.09V27.47L24.2299 27.52Z" fill="#1B5AB8"></path><path d="M13.6602 18.1895H16.1702V19.7195H13.6602V18.1895Z" fill="#1B5AB8"></path></svg>