<svg xmlns="http://www.w3.org/2000/svg" width="80" height="50" viewBox="0 0 80 50" fill="none"><g clip-path="url(#clip0_790_1802)"><path d="M62.8694 28.0176C62.3571 26.4704 61.8553 24.9232 61.3535 23.376C61.019 22.341 60.674 21.3165 60.3395 20.292C60.3395 20.2816 60.329 20.2711 60.329 20.2607C60.3081 20.1979 60.2977 20.1352 60.2767 20.0829C58.9073 15.8595 57.5273 11.636 56.1578 7.42301C55.8547 6.50305 55.5619 5.58309 55.2588 4.66312C55.1124 4.2136 54.757 3.9627 54.3179 4.00452C53.8997 4.05679 53.6593 4.31814 53.5338 4.71539C52.0912 9.15839 50.6381 13.6014 49.1954 18.0444C48.9549 18.7971 48.7145 19.5393 48.4845 20.2816L48.4636 20.2711L48.4531 20.2816C48.38 20.2711 48.3068 20.2711 48.2336 20.2711C42.7347 20.2711 37.2463 20.2711 31.7579 20.2711C31.6847 20.2711 31.622 20.2711 31.5488 20.2711C31.5384 20.2607 31.5279 20.2607 31.5175 20.2607C31.4966 20.1979 31.4861 20.1248 31.4652 20.062C30.1689 16.0895 28.8726 12.1169 27.5867 8.1548C27.2104 6.99439 26.8236 5.83399 26.4472 4.67358C26.3427 4.35996 26.165 4.12996 25.8409 4.04633C25.3286 3.89997 24.9 4.16133 24.7223 4.72585C23.3319 9.00158 21.9311 13.2773 20.5407 17.553C20.2479 18.4521 19.9657 19.3616 19.673 20.2607C19.6521 20.3025 19.6312 20.3443 19.6207 20.3861C18.7739 22.9683 17.9376 25.5504 17.1013 28.1326C16.8399 28.9376 17.0908 29.6798 17.7808 30.1712C20.3525 32.032 22.9137 33.8928 25.4855 35.7537C29.5626 38.7017 33.6292 41.6602 37.7063 44.6083C37.9886 44.8174 38.4486 45.1415 38.8876 45.4551C39.5567 45.936 40.4662 45.936 41.1353 45.4551C42.9752 44.117 46.6028 41.493 48.5368 40.0921C53.0739 36.7991 57.6214 33.506 62.1585 30.213C62.953 29.638 63.1725 28.948 62.8694 28.0176Z" fill="black"></path></g><defs><clipPath id="clip0_790_1802"><rect width="80" height="50" fill="white"></rect></clipPath></defs></svg>