<svg width="137" height="50" viewBox="0 0 137 50" fill="none" xmlns="http://www.w3.org/2000/svg">
<path d="M52.2875 17.3515C50.9812 19.014 48.9525 19.7254 46.8707 19.7254C41.2392 19.7254 37.7703 15.3927 37.7703 10.0474C37.7703 2.8733 42.8663 0 47.1638 0C52.0221 0 55.0917 2.61106 55.9457 7.04187H50.3142C50.215 6.387 49.8805 5.78928 49.372 5.358C48.8634 4.92672 48.2148 4.69069 47.5446 4.69306C43.5148 4.69306 43.6487 8.88671 43.6487 10.1797C43.6487 11.9447 44.3688 15.0301 47.9462 15.0301C49.3056 15.0301 50.695 14.346 50.9881 12.9481H48.3916V8.91407H56.1857V19.2762H52.4745L52.2875 17.3515ZM58.8284 0.45608H70.0106C73.3479 0.45608 76.2283 2.2804 76.2283 5.83554C76.2283 7.78528 75.3213 9.8422 73.3733 10.556C74.9751 11.1625 75.9629 12.9025 76.1752 15.249C76.256 16.1612 76.2837 18.4142 76.8168 19.283H70.9453C70.679 18.3363 70.5181 17.3636 70.4652 16.3824C70.3037 14.59 70.1444 12.7178 67.8226 12.7178H64.6999V19.2762H58.8284V0.45608ZM64.6999 8.68376H67.7695C68.8635 8.68376 70.3591 8.49904 70.3591 6.80927C70.3591 5.62346 69.6898 4.93706 67.4487 4.93706H64.6999V8.68376ZM78.3378 0.45608H94.1129V5.27456H84.2093V7.62109H93.2105V12.1044H84.2093V14.4509H94.3968V19.2762H78.3378V0.45608ZM96.8617 0.45608H112.63V5.27456H102.729V7.62109H111.73V12.1044H102.729V14.4509H112.923V19.2762H96.8617V0.45608ZM115.545 0.45608H121.416V6.93469H121.47L126.709 0.45608H133.933L127.02 7.8058L135.054 19.2762H127.74L123.044 11.9447L121.428 13.712V19.2762H115.545V0.45608ZM48.7309 28.0124C48.6409 27.4286 48.1862 25.6568 46.1183 25.6568C43.778 25.6568 43.0279 27.9007 43.0279 30.0556C43.0279 32.2106 43.778 34.4568 46.1183 34.4568C47.8008 34.4568 48.4586 33.2892 48.754 31.7842H53.6608C53.6608 35.0178 51.0043 38.4521 46.2544 38.4521C41.0061 38.4521 38.0288 34.792 38.0288 30.0556C38.0288 25.0046 41.2599 21.6592 46.2544 21.6592C50.7089 21.682 53.1622 23.9943 53.5938 28.0124H48.7309ZM60.0216 22.0423H64.9076L70.8138 38.0826H65.6346L64.9422 35.8022H59.7931L59.0684 38.0826H54.0462L60.0216 22.0423ZM63.9452 32.3452L62.4911 27.4081H62.445L60.8779 32.3452H63.9452ZM71.6977 22.0423H80.0596C84.4678 22.0423 86.0119 25.2349 86.0119 27.5153C86.0119 31.392 83.3761 33.2163 79.651 33.2163H76.6968V38.0826H71.6977V22.0423ZM76.6968 29.4171H78.6286C79.9234 29.4171 81.2874 29.3259 81.2874 27.7091C81.2874 26.2519 80.1496 26.1607 78.924 26.1607H76.6968V29.4171ZM87.4728 22.0423H92.4696V38.0826H87.4728V22.0423ZM98.5973 26.1493H94.0529V22.0446H108.132V26.1493H103.596V38.0826H98.5973V26.1493ZM112.57 22.0423H117.456L123.362 38.0826H118.183L117.491 35.8022H112.344L111.617 38.0826H106.595L112.57 22.0423ZM116.493 32.3452L115.039 27.4081H114.993L113.426 32.3452H116.493ZM124.246 22.0423H129.247V33.962H136.425V38.0667H124.246V22.0423ZM39.6143 40.6663H43.6603L44.9781 46.0298H45.0058L46.3237 40.6663H50.3696V49.7879H47.6785V43.9364H47.6531L46.0513 49.7834H43.9303L42.3285 43.9364H42.3032V49.7834H39.6143V40.6663ZM54.2585 40.6663H57.0281L60.3886 49.7879H57.4505L57.0628 48.4858H54.1293L53.7162 49.7879H50.8612L54.2585 40.6663ZM56.495 46.527L55.6687 43.7175H55.6433L54.7501 46.5201L56.495 46.527ZM60.9171 40.6663H63.8252L66.514 45.5441H66.5394V40.6663H69.2259V49.7879H66.4701L63.6313 44.803H63.6059V49.7834H60.9171V40.6663ZM73.1448 40.6663H75.9144L79.2748 49.7879H76.3368L75.949 48.4858H73.0156L72.6024 49.7879H69.7452L73.1448 40.6663ZM75.3813 46.527L74.5481 43.7175H74.5227L73.6364 46.5201L75.3813 46.527ZM86.5496 48.8507C85.9149 49.6557 84.934 49.9909 83.9254 49.9909C81.1974 49.9909 79.5172 47.8975 79.5172 45.3047C79.5172 41.8316 81.9867 40.4406 84.0662 40.4406C86.4204 40.4406 87.9067 41.7039 88.3199 43.8612H85.5918C85.5445 43.5431 85.3826 43.2526 85.1358 43.0431C84.889 42.8336 84.5739 42.7192 84.2486 42.721C82.296 42.721 82.3606 44.7505 82.3606 45.3754C82.3606 46.2328 82.7114 47.7264 84.4378 47.7264C85.0956 47.7264 85.7695 47.3935 85.9103 46.7162H84.6571V44.7642H88.4306V49.7811H86.635L86.5496 48.8507ZM89.7162 40.6663H97.3556V43.0037H92.5504V44.1439H96.9056V46.3149H92.5504V47.4551H97.4872V49.7902H89.7162V40.6663ZM98.6758 40.6663H102.719L104.04 46.0298H104.065L105.383 40.6663H109.429V49.7879H106.74V43.9364H106.715L105.11 49.7834H102.992L101.39 43.9364H101.362V49.7834H98.6758V40.6663ZM110.76 40.6663H118.4V43.0037H113.604V44.1439H117.959V46.3149H113.604V47.4551H118.541V49.7902H110.76V40.6663ZM119.745 40.6663H122.654L125.34 45.5441H125.368V40.6663H128.054V49.7879H125.285L122.455 44.8075H122.43V49.7879H119.745V40.6663ZM131.572 43.0037H128.987V40.6663H137V43.0037H134.415V49.7834H131.572V43.0037ZM27.9128 44.8531C29.5549 43.7295 30.995 42.342 32.1734 40.7484C33.7382 38.6535 34.5214 36.0615 34.5229 32.9723C34.5229 29.9515 33.4559 27.2051 31.3217 24.7332C30.3382 23.6596 29.1874 22.7481 27.9128 22.0332V14.2092C29.6461 12.9481 30.4516 10.8296 30.0316 8.50816C29.7246 7.01906 29.3969 6.24373 28.0952 5.06248L27.8644 4.87777V2.23251H32.7273V0.519931H0V2.23251H4.82832V6.47405C2.46186 8.79397 1.27863 11.5571 1.27863 14.7633C1.30232 16.8352 1.88384 18.8635 2.96346 20.6399C3.48256 21.5354 4.10867 22.3661 4.82832 23.1141V35.5742H4.92294C3.12271 36.8261 2.27799 38.9811 2.70727 41.3436C3.01424 42.8327 3.34197 43.608 4.64368 44.7916L4.82832 44.9444V47.7812H0.0346199V49.4846H32.785V47.7743H27.9128V44.8531ZM26.9689 47.7721H25.0348V46.4312C25.5933 46.1917 26.1057 45.9409 26.5511 45.6969C26.6942 45.6171 26.8304 45.5327 26.9689 45.4506V47.7721ZM9.23196 44.6388C9.4824 44.6094 9.72961 44.5575 9.97052 44.4837V46.0458C9.3866 45.9386 8.81652 45.8178 8.26491 45.6627V44.6365C8.58625 44.6715 8.91046 44.6722 9.23196 44.6388ZM12.724 37.2913C12.283 36.5046 11.6637 35.8295 10.9145 35.3188V26.8517C12.3624 27.4431 14.0634 28.0512 16.0175 28.676C17.9379 29.2488 19.8075 29.9764 21.6074 30.8515V45.608C20.0705 46.308 18.3926 46.6535 16.7006 46.6182C14.7647 46.615 12.8313 46.4786 10.9145 46.21V44.0755C11.3204 43.838 11.687 43.5403 12.0015 43.193C13.5756 41.2478 13.8295 39.2069 12.7332 37.2913H12.724ZM24.0885 5.1765C23.8903 5.17267 23.6921 5.18257 23.4953 5.20615C23.1565 5.24624 22.824 5.32742 22.5052 5.44787V3.64864C23.0378 3.71403 23.5664 3.80843 24.0885 3.93141V5.1765ZM20.0057 12.5536C20.4103 13.2658 20.9605 13.8871 21.6213 14.3779V19.3104C20.7788 19.0345 19.8949 18.7654 18.9601 18.5077C15.075 17.445 12.4478 16.317 11.0784 15.1236C11.0207 15.0711 10.9699 15.0187 10.9145 14.9663V6.20496C12.3293 4.97355 13.0124 4.41257 16.9707 3.69652C18.4862 3.4668 20.0239 3.41398 21.552 3.53918V5.90167H21.6028C21.2827 6.11555 20.9905 6.36752 20.7327 6.65192C19.1563 8.5971 18.9094 10.6381 20.0057 12.5536ZM24.0885 43.925L24.0493 43.9683C23.5919 44.3942 23.0916 44.7724 22.556 45.0971L22.5352 31.3418C23.0835 31.6547 23.6032 32.0141 24.0885 32.4159V43.925ZM25.0348 33.3691C26.0136 34.5277 26.5401 35.9944 26.5188 37.5034C26.4813 39.3426 25.9706 41.1421 25.0348 42.7324V33.3691ZM24.0885 20.1998C23.5877 19.9991 23.0591 19.8053 22.5168 19.616V14.9161C22.7814 15.0407 23.0563 15.143 23.3384 15.2217C23.5875 15.2865 23.8414 15.3315 24.0977 15.3562L24.0885 20.1998ZM9.97975 13.8899C9.40278 13.0712 9.07812 12.1049 9.04501 11.1078C8.99193 9.71221 9.23658 8.37134 9.97975 7.26535V13.8899ZM22.5052 2.40126V2.23251H24.0885V2.89611C23.5721 2.69749 23.0433 2.53219 22.5052 2.40126ZM10.9237 2.85734V2.23251H13.5848C12.6826 2.37494 11.7929 2.58613 10.9237 2.86418V2.85734ZM9.97975 3.19256C9.38669 3.42057 8.8079 3.68328 8.24645 3.97929V2.23251H9.97975V3.19256ZM7.30248 34.5389C6.76775 34.635 6.25097 34.8111 5.76998 35.0611V23.9921C6.25203 24.394 6.76435 24.7592 7.30248 25.0844V34.5389ZM8.24645 25.6271C8.76652 25.8977 9.34428 26.1736 9.97975 26.4549V34.8171C9.79381 34.7413 9.60345 34.6766 9.40968 34.6233C9.03311 34.5234 8.64552 34.4698 8.25568 34.4637L8.24645 25.6271ZM9.97975 47.446V47.7721H8.27414V46.8599C8.97347 47.1358 9.59893 47.3342 9.97975 47.446ZM10.9237 47.6877L11.3553 47.7721H10.9237V47.6877ZM21.6166 47.5919V47.7721H20.8481C21.1066 47.715 21.3628 47.6603 21.6166 47.5919ZM22.5583 47.3297C23.0891 47.1723 23.6038 46.999 24.0885 46.8143V47.7721H22.5606L22.5583 47.3297ZM25.0348 20.5897V15.363H25.1548C25.7898 15.2822 26.4046 15.0874 26.9689 14.7884V21.511C26.3665 21.2077 25.7249 20.8884 25.0348 20.5897ZM28.6999 6.99854C29.1429 7.67946 29.4139 8.45553 29.4903 9.26149C29.5666 10.0675 29.4459 10.8797 29.1384 11.63C28.8287 12.4172 28.3191 13.1123 27.6585 13.6483C26.998 14.1844 26.2088 14.5432 25.3671 14.6903C24.7612 14.8028 24.1381 14.7875 23.5387 14.6452C22.9392 14.5029 22.377 14.237 21.889 13.8648C21.3874 13.4952 20.9671 13.0286 20.6537 12.4935C20.3402 11.9584 20.1402 11.3659 20.0657 10.7521C19.8995 8.80006 20.8596 6.97346 22.4498 6.20952C22.8116 6.05184 23.1951 5.94809 23.5877 5.90167C24.3571 5.80533 25.1379 5.94647 25.8229 6.30573C26.508 6.66499 27.0639 7.2248 27.4143 7.90842C28.1667 9.39752 27.9475 10.971 26.8327 12.1158C26.3306 12.5987 25.6819 12.9055 24.9863 12.9891C24.5825 13.0395 24.1725 13.0077 23.7815 12.8956C23.3095 12.7648 22.8808 12.5133 22.5384 12.1666C22.196 11.8199 21.9521 11.3903 21.8313 10.9208C21.5174 9.66889 22.0459 8.37362 23.0822 7.84457C23.3065 7.73637 23.5476 7.66621 23.7954 7.63705C24.0943 7.6025 24.3972 7.62747 24.6862 7.71051C24.9751 7.79354 25.2444 7.93295 25.4779 8.1205C25.7179 8.34811 25.8971 8.63096 25.9994 8.94376C26.1017 9.25655 26.124 9.58953 26.0641 9.91289C26.0214 10.1912 25.9049 10.4533 25.7266 10.6728C25.5483 10.8922 25.3144 11.0612 25.0486 11.1625C24.8225 11.2512 24.5757 11.275 24.3365 11.2315C24.0973 11.1879 23.8754 11.0787 23.6961 10.9163C23.5696 10.7468 23.4898 10.5478 23.4647 10.3387C23.4396 10.1296 23.4701 9.91759 23.553 9.72362C23.6316 9.61591 23.7429 9.53574 23.8707 9.49474C23.9985 9.45373 24.1363 9.45403 24.2639 9.49558C24.3978 9.59135 24.5432 9.7487 24.5362 9.82395C24.5293 9.89921 24.5039 10.0953 24.4416 10.1022H24.4139C24.3626 10.1026 24.312 10.0909 24.2662 10.068C24.2745 10.0751 24.2815 10.0836 24.287 10.093L23.9339 10.2664L23.9454 10.2914C23.9869 10.3644 24.2685 10.857 24.7878 10.7954C25.0281 10.7562 25.2487 10.64 25.4156 10.4647C25.8287 10.0794 25.7849 9.21509 25.3302 8.69288C25.1899 8.5044 25.0082 8.34983 24.7987 8.24081C24.5892 8.13179 24.3574 8.07116 24.1208 8.06349C23.8498 8.0705 23.5835 8.13526 23.3401 8.25333C23.0967 8.3714 22.882 8.54 22.7106 8.74761C21.9951 9.58451 22.1982 10.5719 22.4937 11.256V11.2811C22.7142 11.6947 23.0555 12.0331 23.4733 12.2523C23.8911 12.4715 24.3661 12.5614 24.8363 12.5103C25.0396 12.4863 25.239 12.4364 25.4294 12.362C25.8414 12.201 26.2118 11.9509 26.5133 11.6301C26.8148 11.3093 27.0399 10.9259 27.172 10.5081C27.2972 10.0963 27.3303 9.66253 27.2689 9.23686C27.2075 8.81119 27.0532 8.40381 26.8165 8.04296C26.579 7.67299 26.269 7.35369 25.9047 7.10384C25.5405 6.85398 25.1293 6.67862 24.6955 6.58807C24.2576 6.49582 23.8054 6.49086 23.3655 6.57349C22.9256 6.65611 22.5068 6.82465 22.1336 7.06923C21.6745 7.40436 21.3007 7.84058 21.0419 8.34328C20.7831 8.84598 20.6464 9.40135 20.6427 9.96534C20.6164 10.5817 20.7329 11.1958 20.9833 11.761C21.2336 12.3261 21.6113 12.8273 22.0875 13.2263C22.9876 13.9629 24.227 14.2046 25.7803 13.9469H25.8103C27.9751 13.2993 29.2884 10.8524 28.7391 8.49448C28.3329 6.82523 27.2897 6.21408 25.9695 5.57785C25.6709 5.4573 25.3619 5.36343 25.0463 5.29736V4.19593C25.5498 4.35989 26.027 4.5941 26.4634 4.89145C27.355 5.42493 28.1182 6.14398 28.6999 6.99854ZM26.9065 4.26206C26.2987 3.90949 25.6741 3.58606 25.0348 3.29289V2.23251H26.9065V4.26206ZM7.30248 2.23251V4.52887C6.76816 4.86217 6.25625 5.22932 5.76998 5.62802V2.23251H7.30248ZM4.03898 42.8464C3.59497 42.1642 3.32318 41.3867 3.24647 40.5791C3.16976 39.7716 3.29037 38.9577 3.59816 38.2058C3.90833 37.4187 4.41848 36.7239 5.07944 36.1883C5.74039 35.6527 6.52985 35.2943 7.37172 35.1478C7.97757 35.0361 8.60047 35.0523 9.19952 35.1954C9.79857 35.3384 10.3602 35.6051 10.8476 35.9778C11.3494 36.3477 11.7698 36.8147 12.0833 37.3502C12.3967 37.8857 12.5967 38.4786 12.6709 39.0929C12.837 41.0426 11.8769 42.8715 10.2844 43.6354C9.92317 43.7924 9.54058 43.8961 9.14887 43.9433C8.37955 44.0386 7.5992 43.897 6.91433 43.5379C6.22947 43.1787 5.67347 42.6195 5.32223 41.9365C4.56982 40.4474 4.78908 38.8717 5.90384 37.7292C6.40584 37.2457 7.05442 36.9381 7.75023 36.8535C8.15336 36.8055 8.56213 36.8373 8.95269 36.947C9.42498 37.0781 9.85394 37.3299 10.1963 37.677C10.5387 38.0241 10.7825 38.4543 10.9029 38.9241C11.2168 40.176 10.6906 41.4713 9.65432 42.0004C9.42966 42.1075 9.18875 42.1776 8.94115 42.2079C8.64272 42.243 8.34019 42.2189 8.05129 42.1371C7.76238 42.0553 7.4929 41.9173 7.25863 41.7313C7.01839 41.5033 6.8391 41.2201 6.7368 40.9069C6.63449 40.5937 6.61237 40.2603 6.6724 39.9366C6.71514 39.6583 6.83159 39.3962 7.00993 39.1767C7.18827 38.9573 7.42217 38.7883 7.68792 38.6869C7.91401 38.5983 8.16079 38.5744 8.39999 38.618C8.63918 38.6616 8.86113 38.7708 9.0404 38.9332C9.16696 39.1027 9.2467 39.3017 9.27179 39.5108C9.29688 39.7199 9.26645 39.9319 9.18349 40.1259C9.10443 40.233 8.99312 40.3128 8.86547 40.3537C8.73781 40.3947 8.60033 40.3948 8.47263 40.3539C8.33877 40.2581 8.19337 40.0985 8.20029 40.0255C8.20721 39.9526 8.2326 39.7542 8.29492 39.7473C8.304 39.745 8.31353 39.745 8.32261 39.7473C8.37378 39.748 8.42418 39.7597 8.47032 39.7815C8.46204 39.7744 8.45502 39.7659 8.44955 39.7565L8.80037 39.5831L8.78883 39.5581C8.74959 39.4828 8.46802 38.9902 7.94641 39.0518C7.70719 39.0937 7.48792 39.2104 7.32094 39.3848C6.90781 39.7701 6.94936 40.6344 7.40403 41.1566C7.54489 41.345 7.72705 41.4995 7.93689 41.6085C8.14672 41.7175 8.37879 41.7782 8.61573 41.786C8.88765 41.7775 9.15448 41.7109 9.39789 41.5908C9.64131 41.4708 9.85555 41.3001 10.0259 41.0905C10.7391 40.2559 10.5383 39.2662 10.2429 38.5935L10.229 38.5684C10.0093 38.1546 9.66845 37.8158 9.25101 37.5962C8.83357 37.3765 8.35885 37.2862 7.88871 37.337C7.68543 37.3626 7.48617 37.4131 7.29556 37.4875C6.88345 37.6477 6.51296 37.8973 6.21139 38.2177C5.90982 38.5382 5.68484 38.9214 5.55302 39.3391C5.42779 39.7509 5.39472 40.1847 5.45609 40.6104C5.51747 41.036 5.67182 41.4434 5.90845 41.8043C6.14677 42.1759 6.45808 42.4965 6.82398 42.7472C7.18988 42.9979 7.60294 43.1735 8.03873 43.2637C8.48039 43.3554 8.9362 43.3584 9.37907 43.2727C9.82194 43.1869 10.2428 43.014 10.6168 42.7643C11.0744 42.4298 11.4472 41.995 11.7059 41.4941C11.9646 40.9931 12.1022 40.4397 12.1077 39.8773C12.1344 39.26 12.0179 38.6449 11.7671 38.0789C11.5163 37.5129 11.1378 37.0111 10.6606 36.6118C9.7628 35.8775 8.52341 35.6358 6.96782 35.8935H6.94013C4.77062 36.5479 3.46199 38.9948 4.00667 41.3527C4.41057 43.0197 5.45609 43.6331 6.77626 44.2671C6.95428 44.3404 7.1361 44.4043 7.32094 44.4586V45.3708C6.96777 45.2437 6.62317 45.0944 6.28927 44.9238C5.38252 44.4182 4.61104 43.706 4.03898 42.8464ZM5.76998 45.608C6.2606 45.9406 6.78135 46.2276 7.32556 46.4654V47.7652H5.76998V45.608Z" fill="#3F4658"/>
</svg>
