<svg xmlns="http://www.w3.org/2000/svg" width="16" height="607" viewBox="0 0 16 607" fill="none"><circle cx="8.5" cy="7.5" r="7.5" fill="#1B5AB8"></circle><path d="M7.64642 606.354C7.84168 606.549 8.15826 606.549 8.35353 606.354L11.5355 603.172C11.7308 602.976 11.7308 602.66 11.5355 602.464C11.3402 602.269 11.0237 602.269 10.8284 602.464L7.99997 605.293L5.17155 602.464C4.97628 602.269 4.6597 602.269 4.46444 602.464C4.26918 602.66 4.26918 602.976 4.46444 603.172L7.64642 606.354ZM7.5 6L7.5 7L8.5 7L8.5 6L7.5 6ZM7.5 9L7.5 11L8.5 11L8.5 9L7.5 9ZM7.5 13L7.5 15L8.5 15L8.5 13L7.5 13ZM7.5 17L7.5 19L8.5 19L8.5 17L7.5 17ZM7.5 21L7.5 23L8.5 23L8.5 21L7.5 21ZM7.5 25L7.5 27L8.5 27L8.5 25L7.5 25ZM7.5 29L7.5 31L8.5 31L8.5 29L7.5 29ZM7.5 33L7.5 35L8.5 35L8.5 33L7.5 33ZM7.5 37L7.5 39L8.5 39L8.5 37L7.5 37ZM7.5 41L7.5 43L8.5 43L8.5 41L7.5 41ZM7.5 45L7.5 47L8.5 47L8.5 45L7.5 45ZM7.5 49L7.5 51L8.5 51L8.5 49L7.5 49ZM7.5 53L7.5 55L8.5 55L8.5 53L7.5 53ZM7.5 57L7.5 59L8.5 59L8.5 57L7.5 57ZM7.5 61L7.5 63L8.5 63L8.5 61L7.5 61ZM7.5 65L7.5 67L8.5 67L8.5 65L7.5 65ZM7.5 69L7.5 71L8.5 71L8.5 69L7.5 69ZM7.5 73L7.5 75L8.5 75L8.5 73L7.5 73ZM7.5 77L7.5 79L8.5 79L8.5 77L7.5 77ZM7.5 81L7.5 83L8.5 83L8.5 81L7.5 81ZM7.5 85L7.5 87L8.5 87L8.5 85L7.5 85ZM7.5 89L7.5 91L8.5 91L8.5 89L7.5 89ZM7.5 93L7.5 95L8.5 95L8.5 93L7.5 93ZM7.5 97L7.5 99L8.5 99L8.5 97L7.5 97ZM7.5 101L7.5 103L8.5 103L8.5 101L7.5 101ZM7.5 105L7.5 107L8.5 107L8.5 105L7.5 105ZM7.5 109L7.5 111L8.5 111L8.5 109L7.5 109ZM7.5 113L7.5 115L8.5 115L8.5 113L7.5 113ZM7.5 117L7.5 119L8.5 119L8.5 117L7.5 117ZM7.49999 121L7.49999 123L8.49999 123L8.49999 121L7.49999 121ZM7.49999 125L7.49999 127L8.49999 127L8.49999 125L7.49999 125ZM7.49999 129L7.49999 131L8.49999 131L8.49999 129L7.49999 129ZM7.49999 133L7.49999 135L8.49999 135L8.49999 133L7.49999 133ZM7.49999 137L7.49999 139L8.49999 139L8.49999 137L7.49999 137ZM7.49999 141L7.49999 143L8.49999 143L8.49999 141L7.49999 141ZM7.49999 145L7.49999 147L8.49999 147L8.49999 145L7.49999 145ZM7.49999 149L7.49999 151L8.49999 151L8.49999 149L7.49999 149ZM7.49999 153L7.49999 155L8.49999 155L8.49999 153L7.49999 153ZM7.49999 157L7.49999 159L8.49999 159L8.49999 157L7.49999 157ZM7.49999 161L7.49999 163L8.49999 163L8.49999 161L7.49999 161ZM7.49999 165L7.49999 167L8.49999 167L8.49999 165L7.49999 165ZM7.49999 169L7.49999 171L8.49999 171L8.49999 169L7.49999 169ZM7.49999 173L7.49999 175L8.49999 175L8.49999 173L7.49999 173ZM7.49999 177L7.49999 179L8.49999 179L8.49999 177L7.49999 177ZM7.49999 181L7.49999 183L8.49999 183L8.49999 181L7.49999 181ZM7.49999 185L7.49999 187L8.49999 187L8.49999 185L7.49999 185ZM7.49999 189L7.49999 191L8.49999 191L8.49999 189L7.49999 189ZM7.49999 193L7.49999 195L8.49999 195L8.49999 193L7.49999 193ZM7.49999 197L7.49999 199L8.49999 199L8.49999 197L7.49999 197ZM7.49999 201L7.49999 203L8.49999 203L8.49999 201L7.49999 201ZM7.49999 205L7.49999 207L8.49999 207L8.49999 205L7.49999 205ZM7.49999 209L7.49999 211L8.49999 211L8.49999 209L7.49999 209ZM7.49999 213L7.49999 215L8.49999 215L8.49999 213L7.49999 213ZM7.49999 217L7.49999 219L8.49999 219L8.49999 217L7.49999 217ZM7.49999 221L7.49999 223L8.49999 223L8.49999 221L7.49999 221ZM7.49999 225L7.49999 227L8.49999 227L8.49999 225L7.49999 225ZM7.49999 229L7.49999 231L8.49999 231L8.49999 229L7.49999 229ZM7.49999 233L7.49999 235L8.49999 235L8.49999 233L7.49999 233ZM7.49999 237L7.49999 239L8.49999 239L8.49999 237L7.49999 237ZM7.49999 241L7.49999 243L8.49999 243L8.49999 241L7.49999 241ZM7.49999 245L7.49999 247L8.49999 247L8.49999 245L7.49999 245ZM7.49999 249L7.49999 251L8.49999 251L8.49999 249L7.49999 249ZM7.49999 253L7.49999 255L8.49999 255L8.49999 253L7.49999 253ZM7.49999 257L7.49999 259L8.49999 259L8.49999 257L7.49999 257ZM7.49999 261L7.49999 263L8.49999 263L8.49999 261L7.49999 261ZM7.49999 265L7.49999 267L8.49999 267L8.49999 265L7.49999 265ZM7.49999 269L7.49999 271L8.49999 271L8.49999 269L7.49999 269ZM7.49999 273L7.49999 275L8.49999 275L8.49999 273L7.49999 273ZM7.49999 277L7.49999 279L8.49999 279L8.49999 277L7.49999 277ZM7.49999 281L7.49999 283L8.49999 283L8.49999 281L7.49999 281ZM7.49999 285L7.49999 287L8.49999 287L8.49999 285L7.49999 285ZM7.49999 289L7.49999 291L8.49999 291L8.49999 289L7.49999 289ZM7.49999 293L7.49999 295L8.49999 295L8.49999 293L7.49999 293ZM7.49999 297L7.49999 299L8.49999 299L8.49999 297L7.49999 297ZM7.49999 301L7.49999 303L8.49999 303L8.49999 301L7.49999 301ZM7.49999 305L7.49999 307L8.49999 307L8.49999 305L7.49999 305ZM7.49999 309L7.49999 311L8.49999 311L8.49999 309L7.49999 309ZM7.49999 313L7.49999 315L8.49999 315L8.49999 313L7.49999 313ZM7.49999 317L7.49999 319L8.49999 319L8.49999 317L7.49999 317ZM7.49999 321L7.49999 323L8.49999 323L8.49999 321L7.49999 321ZM7.49999 325L7.49999 327L8.49999 327L8.49999 325L7.49999 325ZM7.49999 329L7.49999 331L8.49999 331L8.49999 329L7.49999 329ZM7.49999 333L7.49999 335L8.49999 335L8.49999 333L7.49999 333ZM7.49999 337L7.49999 339L8.49999 339L8.49999 337L7.49999 337ZM7.49999 341L7.49999 343L8.49999 343L8.49999 341L7.49999 341ZM7.49999 345L7.49999 347L8.49999 347L8.49999 345L7.49999 345ZM7.49999 349L7.49998 351L8.49998 351L8.49999 349L7.49999 349ZM7.49998 353L7.49998 355L8.49998 355L8.49998 353L7.49998 353ZM7.49998 357L7.49998 359L8.49998 359L8.49998 357L7.49998 357ZM7.49998 361L7.49998 363L8.49998 363L8.49998 361L7.49998 361ZM7.49998 365L7.49998 367L8.49998 367L8.49998 365L7.49998 365ZM7.49998 369L7.49998 371L8.49998 371L8.49998 369L7.49998 369ZM7.49998 373L7.49998 375L8.49998 375L8.49998 373L7.49998 373ZM7.49998 377L7.49998 379L8.49998 379L8.49998 377L7.49998 377ZM7.49998 381L7.49998 383L8.49998 383L8.49998 381L7.49998 381ZM7.49998 385L7.49998 387L8.49998 387L8.49998 385L7.49998 385ZM7.49998 389L7.49998 391L8.49998 391L8.49998 389L7.49998 389ZM7.49998 393L7.49998 395L8.49998 395L8.49998 393L7.49998 393ZM7.49998 397L7.49998 399L8.49998 399L8.49998 397L7.49998 397ZM7.49998 401L7.49998 403L8.49998 403L8.49998 401L7.49998 401ZM7.49998 405L7.49998 407L8.49998 407L8.49998 405L7.49998 405ZM7.49998 409L7.49998 411L8.49998 411L8.49998 409L7.49998 409ZM7.49998 413L7.49998 415L8.49998 415L8.49998 413L7.49998 413ZM7.49998 417L7.49998 419L8.49998 419L8.49998 417L7.49998 417ZM7.49998 421L7.49998 423L8.49998 423L8.49998 421L7.49998 421ZM7.49998 425L7.49998 427L8.49998 427L8.49998 425L7.49998 425ZM7.49998 429L7.49998 431L8.49998 431L8.49998 429L7.49998 429ZM7.49998 433L7.49998 435L8.49998 435L8.49998 433L7.49998 433ZM7.49998 437L7.49998 439L8.49998 439L8.49998 437L7.49998 437ZM7.49998 441L7.49998 443L8.49998 443L8.49998 441L7.49998 441ZM7.49998 445L7.49998 447L8.49998 447L8.49998 445L7.49998 445ZM7.49998 449L7.49998 451L8.49998 451L8.49998 449L7.49998 449ZM7.49998 453L7.49998 455L8.49998 455L8.49998 453L7.49998 453ZM7.49998 457L7.49998 459L8.49998 459L8.49998 457L7.49998 457ZM7.49998 461L7.49998 463L8.49998 463L8.49998 461L7.49998 461ZM7.49998 465L7.49998 467L8.49998 467L8.49998 465L7.49998 465ZM7.49998 469L7.49998 471L8.49998 471L8.49998 469L7.49998 469ZM7.49998 473L7.49998 475L8.49998 475L8.49998 473L7.49998 473ZM7.49998 477L7.49998 479L8.49998 479L8.49998 477L7.49998 477ZM7.49998 481L7.49998 483L8.49998 483L8.49998 481L7.49998 481ZM7.49998 485L7.49998 487L8.49998 487L8.49998 485L7.49998 485ZM7.49998 489L7.49998 491L8.49998 491L8.49998 489L7.49998 489ZM7.49998 493L7.49998 495L8.49998 495L8.49998 493L7.49998 493ZM7.49998 497L7.49998 499L8.49998 499L8.49998 497L7.49998 497ZM7.49998 501L7.49998 503L8.49998 503L8.49998 501L7.49998 501ZM7.49998 505L7.49998 507L8.49998 507L8.49998 505L7.49998 505ZM7.49998 509L7.49998 511L8.49998 511L8.49998 509L7.49998 509ZM7.49998 513L7.49998 515L8.49998 515L8.49998 513L7.49998 513ZM7.49998 517L7.49998 519L8.49998 519L8.49998 517L7.49998 517ZM7.49998 521L7.49998 523L8.49998 523L8.49998 521L7.49998 521ZM7.49998 525L7.49998 527L8.49998 527L8.49998 525L7.49998 525ZM7.49998 529L7.49998 531L8.49998 531L8.49998 529L7.49998 529ZM7.49998 533L7.49998 535L8.49998 535L8.49998 533L7.49998 533ZM7.49998 537L7.49998 539L8.49998 539L8.49998 537L7.49998 537ZM7.49998 541L7.49998 543L8.49998 543L8.49998 541L7.49998 541ZM7.49998 545L7.49998 547L8.49998 547L8.49998 545L7.49998 545ZM7.49998 549L7.49998 551L8.49998 551L8.49998 549L7.49998 549ZM7.49998 553L7.49998 555L8.49998 555L8.49998 553L7.49998 553ZM7.49998 557L7.49998 559L8.49998 559L8.49998 557L7.49998 557ZM7.49998 561L7.49998 563L8.49998 563L8.49998 561L7.49998 561ZM7.49998 565L7.49998 567L8.49998 567L8.49998 565L7.49998 565ZM7.49998 569L7.49998 571L8.49998 571L8.49998 569L7.49998 569ZM7.49998 573L7.49998 575L8.49998 575L8.49998 573L7.49998 573ZM7.49998 577L7.49997 579L8.49997 579L8.49998 577L7.49998 577ZM7.49997 581L7.49997 583L8.49997 583L8.49997 581L7.49997 581ZM7.49997 585L7.49997 587L8.49997 587L8.49997 585L7.49997 585ZM7.49997 589L7.49997 591L8.49997 591L8.49997 589L7.49997 589ZM7.49997 593L7.49997 595L8.49997 595L8.49997 593L7.49997 593ZM7.49997 597L7.49997 599L8.49997 599L8.49997 597L7.49997 597ZM7.49997 601L7.49997 603L8.49997 603L8.49997 601L7.49997 601ZM7.49997 605L7.49997 606L8.49997 606L8.49997 605L7.49997 605ZM7.29287 606.707C7.68339 607.098 8.31656 607.098 8.70708 606.707L15.071 600.343C15.4616 599.953 15.4616 599.319 15.071 598.929C14.6805 598.538 14.0474 598.538 13.6568 598.929L7.99997 604.586L2.34312 598.929C1.9526 598.538 1.31943 598.538 0.928906 598.929C0.538382 599.319 0.538382 599.953 0.928906 600.343L7.29287 606.707ZM7 6L7 7L9 7L9 6L7 6ZM7 9L7 11L9 11L9 9L7 9ZM7 13L7 15L9 15L9 13L7 13ZM7 17L7 19L9 19L9 17L7 17ZM7 21L7 23L9 23L9 21L7 21ZM7 25L7 27L9 27L9 25L7 25ZM7 29L7 31L9 31L9 29L7 29ZM7 33L7 35L9 35L9 33L7 33ZM7 37L7 39L9 39L9 37L7 37ZM7 41L7 43L9 43L9 41L7 41ZM7 45L7 47L9 47L9 45L7 45ZM7 49L7 51L9 51L9 49L7 49ZM7 53L7 55L9 55L9 53L7 53ZM7 57L7 59L9 59L9 57L7 57ZM7 61L7 63L9 63L9 61L7 61ZM7 65L7 67L9 67L9 65L7 65ZM7 69L7 71L9 71L9 69L7 69ZM7 73L7 75L9 75L9 73L7 73ZM7 77L7 79L9 79L9 77L7 77ZM7 81L7 83L9 83L9 81L7 81ZM7 85L7 87L9 87L9 85L7 85ZM7 89L7 91L9 91L9 89L7 89ZM7 93L7 95L9 95L9 93L7 93ZM7 97L7 99L9 99L9 97L7 97ZM7 101L7 103L9 103L9 101L7 101ZM7 105L7 107L9 107L9 105L7 105ZM7 109L7 111L9 111L9 109L7 109ZM7 113L7 115L9 115L9 113L7 113ZM7 117L7 119L9 119L9 117L7 117ZM6.99999 121L6.99999 123L8.99999 123L8.99999 121L6.99999 121ZM6.99999 125L6.99999 127L8.99999 127L8.99999 125L6.99999 125ZM6.99999 129L6.99999 131L8.99999 131L8.99999 129L6.99999 129ZM6.99999 133L6.99999 135L8.99999 135L8.99999 133L6.99999 133ZM6.99999 137L6.99999 139L8.99999 139L8.99999 137L6.99999 137ZM6.99999 141L6.99999 143L8.99999 143L8.99999 141L6.99999 141ZM6.99999 145L6.99999 147L8.99999 147L8.99999 145L6.99999 145ZM6.99999 149L6.99999 151L8.99999 151L8.99999 149L6.99999 149ZM6.99999 153L6.99999 155L8.99999 155L8.99999 153L6.99999 153ZM6.99999 157L6.99999 159L8.99999 159L8.99999 157L6.99999 157ZM6.99999 161L6.99999 163L8.99999 163L8.99999 161L6.99999 161ZM6.99999 165L6.99999 167L8.99999 167L8.99999 165L6.99999 165ZM6.99999 169L6.99999 171L8.99999 171L8.99999 169L6.99999 169ZM6.99999 173L6.99999 175L8.99999 175L8.99999 173L6.99999 173ZM6.99999 177L6.99999 179L8.99999 179L8.99999 177L6.99999 177ZM6.99999 181L6.99999 183L8.99999 183L8.99999 181L6.99999 181ZM6.99999 185L6.99999 187L8.99999 187L8.99999 185L6.99999 185ZM6.99999 189L6.99999 191L8.99999 191L8.99999 189L6.99999 189ZM6.99999 193L6.99999 195L8.99999 195L8.99999 193L6.99999 193ZM6.99999 197L6.99999 199L8.99999 199L8.99999 197L6.99999 197ZM6.99999 201L6.99999 203L8.99999 203L8.99999 201L6.99999 201ZM6.99999 205L6.99999 207L8.99999 207L8.99999 205L6.99999 205ZM6.99999 209L6.99999 211L8.99999 211L8.99999 209L6.99999 209ZM6.99999 213L6.99999 215L8.99999 215L8.99999 213L6.99999 213ZM6.99999 217L6.99999 219L8.99999 219L8.99999 217L6.99999 217ZM6.99999 221L6.99999 223L8.99999 223L8.99999 221L6.99999 221ZM6.99999 225L6.99999 227L8.99999 227L8.99999 225L6.99999 225ZM6.99999 229L6.99999 231L8.99999 231L8.99999 229L6.99999 229ZM6.99999 233L6.99999 235L8.99999 235L8.99999 233L6.99999 233ZM6.99999 237L6.99999 239L8.99999 239L8.99999 237L6.99999 237ZM6.99999 241L6.99999 243L8.99999 243L8.99999 241L6.99999 241ZM6.99999 245L6.99999 247L8.99999 247L8.99999 245L6.99999 245ZM6.99999 249L6.99999 251L8.99999 251L8.99999 249L6.99999 249ZM6.99999 253L6.99999 255L8.99999 255L8.99999 253L6.99999 253ZM6.99999 257L6.99999 259L8.99999 259L8.99999 257L6.99999 257ZM6.99999 261L6.99999 263L8.99999 263L8.99999 261L6.99999 261ZM6.99999 265L6.99999 267L8.99999 267L8.99999 265L6.99999 265ZM6.99999 269L6.99999 271L8.99999 271L8.99999 269L6.99999 269ZM6.99999 273L6.99999 275L8.99999 275L8.99999 273L6.99999 273ZM6.99999 277L6.99999 279L8.99999 279L8.99999 277L6.99999 277ZM6.99999 281L6.99999 283L8.99999 283L8.99999 281L6.99999 281ZM6.99999 285L6.99999 287L8.99999 287L8.99999 285L6.99999 285ZM6.99999 289L6.99999 291L8.99999 291L8.99999 289L6.99999 289ZM6.99999 293L6.99999 295L8.99999 295L8.99999 293L6.99999 293ZM6.99999 297L6.99999 299L8.99999 299L8.99999 297L6.99999 297ZM6.99999 301L6.99999 303L8.99999 303L8.99999 301L6.99999 301ZM6.99999 305L6.99999 307L8.99999 307L8.99999 305L6.99999 305ZM6.99999 309L6.99999 311L8.99999 311L8.99999 309L6.99999 309ZM6.99999 313L6.99999 315L8.99999 315L8.99999 313L6.99999 313ZM6.99999 317L6.99999 319L8.99999 319L8.99999 317L6.99999 317ZM6.99999 321L6.99999 323L8.99999 323L8.99999 321L6.99999 321ZM6.99999 325L6.99999 327L8.99999 327L8.99999 325L6.99999 325ZM6.99999 329L6.99999 331L8.99999 331L8.99999 329L6.99999 329ZM6.99999 333L6.99999 335L8.99999 335L8.99999 333L6.99999 333ZM6.99999 337L6.99999 339L8.99999 339L8.99999 337L6.99999 337ZM6.99999 341L6.99999 343L8.99999 343L8.99999 341L6.99999 341ZM6.99999 345L6.99999 347L8.99999 347L8.99999 345L6.99999 345ZM6.99999 349L6.99998 351L8.99998 351L8.99999 349L6.99999 349ZM6.99998 353L6.99998 355L8.99998 355L8.99998 353L6.99998 353ZM6.99998 357L6.99998 359L8.99998 359L8.99998 357L6.99998 357ZM6.99998 361L6.99998 363L8.99998 363L8.99998 361L6.99998 361ZM6.99998 365L6.99998 367L8.99998 367L8.99998 365L6.99998 365ZM6.99998 369L6.99998 371L8.99998 371L8.99998 369L6.99998 369ZM6.99998 373L6.99998 375L8.99998 375L8.99998 373L6.99998 373ZM6.99998 377L6.99998 379L8.99998 379L8.99998 377L6.99998 377ZM6.99998 381L6.99998 383L8.99998 383L8.99998 381L6.99998 381ZM6.99998 385L6.99998 387L8.99998 387L8.99998 385L6.99998 385ZM6.99998 389L6.99998 391L8.99998 391L8.99998 389L6.99998 389ZM6.99998 393L6.99998 395L8.99998 395L8.99998 393L6.99998 393ZM6.99998 397L6.99998 399L8.99998 399L8.99998 397L6.99998 397ZM6.99998 401L6.99998 403L8.99998 403L8.99998 401L6.99998 401ZM6.99998 405L6.99998 407L8.99998 407L8.99998 405L6.99998 405ZM6.99998 409L6.99998 411L8.99998 411L8.99998 409L6.99998 409ZM6.99998 413L6.99998 415L8.99998 415L8.99998 413L6.99998 413ZM6.99998 417L6.99998 419L8.99998 419L8.99998 417L6.99998 417ZM6.99998 421L6.99998 423L8.99998 423L8.99998 421L6.99998 421ZM6.99998 425L6.99998 427L8.99998 427L8.99998 425L6.99998 425ZM6.99998 429L6.99998 431L8.99998 431L8.99998 429L6.99998 429ZM6.99998 433L6.99998 435L8.99998 435L8.99998 433L6.99998 433ZM6.99998 437L6.99998 439L8.99998 439L8.99998 437L6.99998 437ZM6.99998 441L6.99998 443L8.99998 443L8.99998 441L6.99998 441ZM6.99998 445L6.99998 447L8.99998 447L8.99998 445L6.99998 445ZM6.99998 449L6.99998 451L8.99998 451L8.99998 449L6.99998 449ZM6.99998 453L6.99998 455L8.99998 455L8.99998 453L6.99998 453ZM6.99998 457L6.99998 459L8.99998 459L8.99998 457L6.99998 457ZM6.99998 461L6.99998 463L8.99998 463L8.99998 461L6.99998 461ZM6.99998 465L6.99998 467L8.99998 467L8.99998 465L6.99998 465ZM6.99998 469L6.99998 471L8.99998 471L8.99998 469L6.99998 469ZM6.99998 473L6.99998 475L8.99998 475L8.99998 473L6.99998 473ZM6.99998 477L6.99998 479L8.99998 479L8.99998 477L6.99998 477ZM6.99998 481L6.99998 483L8.99998 483L8.99998 481L6.99998 481ZM6.99998 485L6.99998 487L8.99998 487L8.99998 485L6.99998 485ZM6.99998 489L6.99998 491L8.99998 491L8.99998 489L6.99998 489ZM6.99998 493L6.99998 495L8.99998 495L8.99998 493L6.99998 493ZM6.99998 497L6.99998 499L8.99998 499L8.99998 497L6.99998 497ZM6.99998 501L6.99998 503L8.99998 503L8.99998 501L6.99998 501ZM6.99998 505L6.99998 507L8.99998 507L8.99998 505L6.99998 505ZM6.99998 509L6.99998 511L8.99998 511L8.99998 509L6.99998 509ZM6.99998 513L6.99998 515L8.99998 515L8.99998 513L6.99998 513ZM6.99998 517L6.99998 519L8.99998 519L8.99998 517L6.99998 517ZM6.99998 521L6.99998 523L8.99998 523L8.99998 521L6.99998 521ZM6.99998 525L6.99998 527L8.99998 527L8.99998 525L6.99998 525ZM6.99998 529L6.99998 531L8.99998 531L8.99998 529L6.99998 529ZM6.99998 533L6.99998 535L8.99998 535L8.99998 533L6.99998 533ZM6.99998 537L6.99998 539L8.99998 539L8.99998 537L6.99998 537ZM6.99998 541L6.99998 543L8.99998 543L8.99998 541L6.99998 541ZM6.99998 545L6.99998 547L8.99998 547L8.99998 545L6.99998 545ZM6.99998 549L6.99998 551L8.99998 551L8.99998 549L6.99998 549ZM6.99998 553L6.99998 555L8.99998 555L8.99998 553L6.99998 553ZM6.99998 557L6.99998 559L8.99998 559L8.99998 557L6.99998 557ZM6.99998 561L6.99998 563L8.99998 563L8.99998 561L6.99998 561ZM6.99998 565L6.99998 567L8.99998 567L8.99998 565L6.99998 565ZM6.99998 569L6.99998 571L8.99998 571L8.99998 569L6.99998 569ZM6.99998 573L6.99998 575L8.99998 575L8.99998 573L6.99998 573ZM6.99998 577L6.99997 579L8.99997 579L8.99998 577L6.99998 577ZM6.99997 581L6.99997 583L8.99997 583L8.99997 581L6.99997 581ZM6.99997 585L6.99997 587L8.99997 587L8.99997 585L6.99997 585ZM6.99997 589L6.99997 591L8.99997 591L8.99997 589L6.99997 589ZM6.99997 593L6.99997 595L8.99997 595L8.99997 593L6.99997 593ZM6.99997 597L6.99997 599L8.99997 599L8.99997 597L6.99997 597ZM6.99997 601L6.99997 603L8.99997 603L8.99997 601L6.99997 601ZM6.99997 605L6.99997 606L8.99997 606L8.99997 605L6.99997 605Z" fill="#1B5AB8"></path></svg>