<svg xmlns="http://www.w3.org/2000/svg" width="16" height="808" viewBox="0 0 16 808" fill="none"><circle cx="8.5" cy="7.5" r="7.5" fill="#1B5AB8"></circle><path d="M7.64641 807.354C7.84167 807.549 8.15826 807.549 8.35352 807.354L11.5355 804.172C11.7308 803.976 11.7308 803.66 11.5355 803.464C11.3402 803.269 11.0237 803.269 10.8284 803.464L7.99997 806.293L5.17154 803.464C4.97628 803.269 4.65969 803.269 4.46443 803.464C4.26917 803.66 4.26917 803.976 4.46443 804.172L7.64641 807.354ZM7.5 7L7.5 8L8.5 8L8.5 7L7.5 7ZM7.5 10L7.5 12L8.5 12L8.5 10L7.5 10ZM7.5 14L7.5 16L8.5 16L8.5 14L7.5 14ZM7.5 18L7.5 20L8.5 20L8.5 18L7.5 18ZM7.5 22L7.5 24L8.5 24L8.5 22L7.5 22ZM7.5 26L7.5 28L8.5 28L8.5 26L7.5 26ZM7.5 30L7.5 32L8.5 32L8.5 30L7.5 30ZM7.5 34L7.5 36L8.5 36L8.5 34L7.5 34ZM7.5 38L7.5 40L8.5 40L8.5 38L7.5 38ZM7.5 42L7.5 44L8.5 44L8.5 42L7.5 42ZM7.5 46L7.5 48L8.5 48L8.5 46L7.5 46ZM7.5 50L7.5 52L8.5 52L8.5 50L7.5 50ZM7.5 54L7.5 56L8.5 56L8.5 54L7.5 54ZM7.5 58L7.5 60L8.5 60L8.5 58L7.5 58ZM7.5 62L7.5 64L8.5 64L8.5 62L7.5 62ZM7.5 66L7.5 68L8.5 68L8.5 66L7.5 66ZM7.5 70L7.5 72L8.5 72L8.5 70L7.5 70ZM7.5 74L7.5 76L8.5 76L8.5 74L7.5 74ZM7.5 78L7.5 80L8.5 80L8.5 78L7.5 78ZM7.5 82L7.5 84L8.5 84L8.5 82L7.5 82ZM7.5 86L7.5 88L8.5 88L8.5 86L7.5 86ZM7.5 90L7.5 92L8.5 92L8.5 90L7.5 90ZM7.5 94L7.5 96L8.5 96L8.5 94L7.5 94ZM7.5 98L7.5 100L8.5 100L8.5 98L7.5 98ZM7.5 102L7.5 104L8.5 104L8.5 102L7.5 102ZM7.5 106L7.5 108L8.5 108L8.5 106L7.5 106ZM7.5 110L7.5 112L8.5 112L8.5 110L7.5 110ZM7.5 114L7.5 116L8.5 116L8.5 114L7.5 114ZM7.5 118L7.5 120L8.5 120L8.5 118L7.5 118ZM7.49999 122L7.49999 124L8.49999 124L8.49999 122L7.49999 122ZM7.49999 126L7.49999 128L8.49999 128L8.49999 126L7.49999 126ZM7.49999 130L7.49999 132L8.49999 132L8.49999 130L7.49999 130ZM7.49999 134L7.49999 136L8.49999 136L8.49999 134L7.49999 134ZM7.49999 138L7.49999 140L8.49999 140L8.49999 138L7.49999 138ZM7.49999 142L7.49999 144L8.49999 144L8.49999 142L7.49999 142ZM7.49999 146L7.49999 148L8.49999 148L8.49999 146L7.49999 146ZM7.49999 150L7.49999 152L8.49999 152L8.49999 150L7.49999 150ZM7.49999 154L7.49999 156L8.49999 156L8.49999 154L7.49999 154ZM7.49999 158L7.49999 160L8.49999 160L8.49999 158L7.49999 158ZM7.49999 162L7.49999 164L8.49999 164L8.49999 162L7.49999 162ZM7.49999 166L7.49999 168L8.49999 168L8.49999 166L7.49999 166ZM7.49999 170L7.49999 172L8.49999 172L8.49999 170L7.49999 170ZM7.49999 174L7.49999 176L8.49999 176L8.49999 174L7.49999 174ZM7.49999 178L7.49999 180L8.49999 180L8.49999 178L7.49999 178ZM7.49999 182L7.49999 184L8.49999 184L8.49999 182L7.49999 182ZM7.49999 186L7.49999 188L8.49999 188L8.49999 186L7.49999 186ZM7.49999 190L7.49999 192L8.49999 192L8.49999 190L7.49999 190ZM7.49999 194L7.49999 196L8.49999 196L8.49999 194L7.49999 194ZM7.49999 198L7.49999 200L8.49999 200L8.49999 198L7.49999 198ZM7.49999 202L7.49999 204L8.49999 204L8.49999 202L7.49999 202ZM7.49999 206L7.49999 208L8.49999 208L8.49999 206L7.49999 206ZM7.49999 210L7.49999 212L8.49999 212L8.49999 210L7.49999 210ZM7.49999 214L7.49999 216L8.49999 216L8.49999 214L7.49999 214ZM7.49999 218L7.49999 220L8.49999 220L8.49999 218L7.49999 218ZM7.49999 222L7.49999 224L8.49999 224L8.49999 222L7.49999 222ZM7.49999 226L7.49999 228L8.49999 228L8.49999 226L7.49999 226ZM7.49999 230L7.49999 232L8.49999 232L8.49999 230L7.49999 230ZM7.49999 234L7.49999 236L8.49999 236L8.49999 234L7.49999 234ZM7.49999 238L7.49999 240L8.49999 240L8.49999 238L7.49999 238ZM7.49999 242L7.49999 244L8.49999 244L8.49999 242L7.49999 242ZM7.49999 246L7.49999 248L8.49999 248L8.49999 246L7.49999 246ZM7.49999 250L7.49999 252L8.49999 252L8.49999 250L7.49999 250ZM7.49999 254L7.49999 256L8.49999 256L8.49999 254L7.49999 254ZM7.49999 258L7.49999 260L8.49999 260L8.49999 258L7.49999 258ZM7.49999 262L7.49999 264L8.49999 264L8.49999 262L7.49999 262ZM7.49999 266L7.49999 268L8.49999 268L8.49999 266L7.49999 266ZM7.49999 270L7.49999 272L8.49999 272L8.49999 270L7.49999 270ZM7.49999 274L7.49999 276L8.49999 276L8.49999 274L7.49999 274ZM7.49999 278L7.49999 280L8.49999 280L8.49999 278L7.49999 278ZM7.49999 282L7.49999 284L8.49999 284L8.49999 282L7.49999 282ZM7.49999 286L7.49999 288L8.49999 288L8.49999 286L7.49999 286ZM7.49999 290L7.49999 292L8.49999 292L8.49999 290L7.49999 290ZM7.49999 294L7.49999 296L8.49999 296L8.49999 294L7.49999 294ZM7.49999 298L7.49999 300L8.49999 300L8.49999 298L7.49999 298ZM7.49999 302L7.49999 304L8.49999 304L8.49999 302L7.49999 302ZM7.49999 306L7.49999 308L8.49999 308L8.49999 306L7.49999 306ZM7.49999 310L7.49999 312L8.49999 312L8.49999 310L7.49999 310ZM7.49999 314L7.49999 316L8.49999 316L8.49999 314L7.49999 314ZM7.49999 318L7.49999 320L8.49999 320L8.49999 318L7.49999 318ZM7.49999 322L7.49999 324L8.49999 324L8.49999 322L7.49999 322ZM7.49999 326L7.49999 328L8.49999 328L8.49999 326L7.49999 326ZM7.49999 330L7.49999 332L8.49999 332L8.49999 330L7.49999 330ZM7.49999 334L7.49999 336L8.49999 336L8.49999 334L7.49999 334ZM7.49999 338L7.49999 340L8.49999 340L8.49999 338L7.49999 338ZM7.49999 342L7.49999 344L8.49999 344L8.49999 342L7.49999 342ZM7.49999 346L7.49999 348L8.49999 348L8.49999 346L7.49999 346ZM7.49999 350L7.49998 352L8.49998 352L8.49999 350L7.49999 350ZM7.49998 354L7.49998 356L8.49998 356L8.49998 354L7.49998 354ZM7.49998 358L7.49998 360L8.49998 360L8.49998 358L7.49998 358ZM7.49998 362L7.49998 364L8.49998 364L8.49998 362L7.49998 362ZM7.49998 366L7.49998 368L8.49998 368L8.49998 366L7.49998 366ZM7.49998 370L7.49998 372L8.49998 372L8.49998 370L7.49998 370ZM7.49998 374L7.49998 376L8.49998 376L8.49998 374L7.49998 374ZM7.49998 378L7.49998 380L8.49998 380L8.49998 378L7.49998 378ZM7.49998 382L7.49998 384L8.49998 384L8.49998 382L7.49998 382ZM7.49998 386L7.49998 388L8.49998 388L8.49998 386L7.49998 386ZM7.49998 390L7.49998 392L8.49998 392L8.49998 390L7.49998 390ZM7.49998 394L7.49998 396L8.49998 396L8.49998 394L7.49998 394ZM7.49998 398L7.49998 400L8.49998 400L8.49998 398L7.49998 398ZM7.49998 402L7.49998 404L8.49998 404L8.49998 402L7.49998 402ZM7.49998 406L7.49998 408L8.49998 408L8.49998 406L7.49998 406ZM7.49998 410L7.49998 412L8.49998 412L8.49998 410L7.49998 410ZM7.49998 414L7.49998 416L8.49998 416L8.49998 414L7.49998 414ZM7.49998 418L7.49998 420L8.49998 420L8.49998 418L7.49998 418ZM7.49998 422L7.49998 424L8.49998 424L8.49998 422L7.49998 422ZM7.49998 426L7.49998 428L8.49998 428L8.49998 426L7.49998 426ZM7.49998 430L7.49998 432L8.49998 432L8.49998 430L7.49998 430ZM7.49998 434L7.49998 436L8.49998 436L8.49998 434L7.49998 434ZM7.49998 438L7.49998 440L8.49998 440L8.49998 438L7.49998 438ZM7.49998 442L7.49998 444L8.49998 444L8.49998 442L7.49998 442ZM7.49998 446L7.49998 448L8.49998 448L8.49998 446L7.49998 446ZM7.49998 450L7.49998 452L8.49998 452L8.49998 450L7.49998 450ZM7.49998 454L7.49998 456L8.49998 456L8.49998 454L7.49998 454ZM7.49998 458L7.49998 460L8.49998 460L8.49998 458L7.49998 458ZM7.49998 462L7.49998 464L8.49998 464L8.49998 462L7.49998 462ZM7.49998 466L7.49998 468L8.49998 468L8.49998 466L7.49998 466ZM7.49998 470L7.49998 472L8.49998 472L8.49998 470L7.49998 470ZM7.49998 474L7.49998 476L8.49998 476L8.49998 474L7.49998 474ZM7.49998 478L7.49998 480L8.49998 480L8.49998 478L7.49998 478ZM7.49998 482L7.49998 484L8.49998 484L8.49998 482L7.49998 482ZM7.49998 486L7.49998 488L8.49998 488L8.49998 486L7.49998 486ZM7.49998 490L7.49998 492L8.49998 492L8.49998 490L7.49998 490ZM7.49998 494L7.49998 496L8.49998 496L8.49998 494L7.49998 494ZM7.49998 498L7.49998 500L8.49998 500L8.49998 498L7.49998 498ZM7.49998 502L7.49998 504L8.49998 504L8.49998 502L7.49998 502ZM7.49998 506L7.49998 508L8.49998 508L8.49998 506L7.49998 506ZM7.49998 510L7.49998 512L8.49998 512L8.49998 510L7.49998 510ZM7.49998 514L7.49998 516L8.49998 516L8.49998 514L7.49998 514ZM7.49998 518L7.49998 520L8.49998 520L8.49998 518L7.49998 518ZM7.49998 522L7.49998 524L8.49998 524L8.49998 522L7.49998 522ZM7.49998 526L7.49998 528L8.49998 528L8.49998 526L7.49998 526ZM7.49998 530L7.49998 532L8.49998 532L8.49998 530L7.49998 530ZM7.49998 534L7.49998 536L8.49998 536L8.49998 534L7.49998 534ZM7.49998 538L7.49998 540L8.49998 540L8.49998 538L7.49998 538ZM7.49998 542L7.49998 544L8.49998 544L8.49998 542L7.49998 542ZM7.49998 546L7.49998 548L8.49998 548L8.49998 546L7.49998 546ZM7.49998 550L7.49998 552L8.49998 552L8.49998 550L7.49998 550ZM7.49998 554L7.49998 556L8.49998 556L8.49998 554L7.49998 554ZM7.49998 558L7.49998 560L8.49998 560L8.49998 558L7.49998 558ZM7.49998 562L7.49998 564L8.49998 564L8.49998 562L7.49998 562ZM7.49998 566L7.49998 568L8.49998 568L8.49998 566L7.49998 566ZM7.49998 570L7.49998 572L8.49998 572L8.49998 570L7.49998 570ZM7.49998 574L7.49998 576L8.49998 576L8.49998 574L7.49998 574ZM7.49998 578L7.49997 580L8.49997 580L8.49998 578L7.49998 578ZM7.49997 582L7.49997 584L8.49997 584L8.49997 582L7.49997 582ZM7.49997 586L7.49997 588L8.49997 588L8.49997 586L7.49997 586ZM7.49997 590L7.49997 592L8.49997 592L8.49997 590L7.49997 590ZM7.49997 594L7.49997 596L8.49997 596L8.49997 594L7.49997 594ZM7.49997 598L7.49997 600L8.49997 600L8.49997 598L7.49997 598ZM7.49997 602L7.49997 604L8.49997 604L8.49997 602L7.49997 602ZM7.49997 606L7.49997 608L8.49997 608L8.49997 606L7.49997 606ZM7.49997 610L7.49997 612L8.49997 612L8.49997 610L7.49997 610ZM7.49997 614L7.49997 616L8.49997 616L8.49997 614L7.49997 614ZM7.49997 618L7.49997 620L8.49997 620L8.49997 618L7.49997 618ZM7.49997 622L7.49997 624L8.49997 624L8.49997 622L7.49997 622ZM7.49997 626L7.49997 628L8.49997 628L8.49997 626L7.49997 626ZM7.49997 630L7.49997 632L8.49997 632L8.49997 630L7.49997 630ZM7.49997 634L7.49997 636L8.49997 636L8.49997 634L7.49997 634ZM7.49997 638L7.49997 640L8.49997 640L8.49997 638L7.49997 638ZM7.49997 642L7.49997 644L8.49997 644L8.49997 642L7.49997 642ZM7.49997 646L7.49997 648L8.49997 648L8.49997 646L7.49997 646ZM7.49997 650L7.49997 652L8.49997 652L8.49997 650L7.49997 650ZM7.49997 654L7.49997 656L8.49997 656L8.49997 654L7.49997 654ZM7.49997 658L7.49997 660L8.49997 660L8.49997 658L7.49997 658ZM7.49997 662L7.49997 664L8.49997 664L8.49997 662L7.49997 662ZM7.49997 666L7.49997 668L8.49997 668L8.49997 666L7.49997 666ZM7.49997 670L7.49997 672L8.49997 672L8.49997 670L7.49997 670ZM7.49997 674L7.49997 676L8.49997 676L8.49997 674L7.49997 674ZM7.49997 678L7.49997 680L8.49997 680L8.49997 678L7.49997 678ZM7.49997 682L7.49997 684L8.49997 684L8.49997 682L7.49997 682ZM7.49997 686L7.49997 688L8.49997 688L8.49997 686L7.49997 686ZM7.49997 690L7.49997 692L8.49997 692L8.49997 690L7.49997 690ZM7.49997 694L7.49997 696L8.49997 696L8.49997 694L7.49997 694ZM7.49997 698L7.49997 700L8.49997 700L8.49997 698L7.49997 698ZM7.49997 702L7.49997 704L8.49997 704L8.49997 702L7.49997 702ZM7.49997 706L7.49997 708L8.49997 708L8.49997 706L7.49997 706ZM7.49997 710L7.49997 712L8.49997 712L8.49997 710L7.49997 710ZM7.49997 714L7.49997 716L8.49997 716L8.49997 714L7.49997 714ZM7.49997 718L7.49997 720L8.49997 720L8.49997 718L7.49997 718ZM7.49997 722L7.49997 724L8.49997 724L8.49997 722L7.49997 722ZM7.49997 726L7.49997 728L8.49997 728L8.49997 726L7.49997 726ZM7.49997 730L7.49997 732L8.49997 732L8.49997 730L7.49997 730ZM7.49997 734L7.49997 736L8.49997 736L8.49997 734L7.49997 734ZM7.49997 738L7.49997 740L8.49997 740L8.49997 738L7.49997 738ZM7.49997 742L7.49997 744L8.49997 744L8.49997 742L7.49997 742ZM7.49997 746L7.49997 748L8.49997 748L8.49997 746L7.49997 746ZM7.49997 750L7.49997 752L8.49997 752L8.49997 750L7.49997 750ZM7.49997 754L7.49997 756L8.49997 756L8.49997 754L7.49997 754ZM7.49997 758L7.49997 760L8.49997 760L8.49997 758L7.49997 758ZM7.49997 762L7.49997 764L8.49997 764L8.49997 762L7.49997 762ZM7.49997 766L7.49997 768L8.49997 768L8.49997 766L7.49997 766ZM7.49997 770L7.49997 772L8.49997 772L8.49997 770L7.49997 770ZM7.49997 774L7.49997 776L8.49997 776L8.49997 774L7.49997 774ZM7.49997 778L7.49997 780L8.49997 780L8.49997 778L7.49997 778ZM7.49997 782L7.49997 784L8.49997 784L8.49997 782L7.49997 782ZM7.49997 786L7.49997 788L8.49997 788L8.49997 786L7.49997 786ZM7.49997 790L7.49997 792L8.49997 792L8.49997 790L7.49997 790ZM7.49997 794L7.49997 796L8.49997 796L8.49997 794L7.49997 794ZM7.49997 798L7.49997 800L8.49997 800L8.49997 798L7.49997 798ZM7.49997 802L7.49997 804L8.49997 804L8.49997 802L7.49997 802ZM7.49997 806L7.49997 807L8.49997 807L8.49997 806L7.49997 806ZM7.29286 807.707C7.68338 808.098 8.31655 808.098 8.70707 807.707L15.071 801.343C15.4616 800.953 15.4616 800.319 15.071 799.929C14.6805 799.538 14.0473 799.538 13.6568 799.929L7.99997 805.586L2.34311 799.929C1.95259 799.538 1.31942 799.538 0.928898 799.929C0.538373 800.319 0.538373 800.953 0.928897 801.343L7.29286 807.707ZM7 7L7 8L9 8L9 7L7 7ZM7 10L7 12L9 12L9 10L7 10ZM7 14L7 16L9 16L9 14L7 14ZM7 18L7 20L9 20L9 18L7 18ZM7 22L7 24L9 24L9 22L7 22ZM7 26L7 28L9 28L9 26L7 26ZM7 30L7 32L9 32L9 30L7 30ZM7 34L7 36L9 36L9 34L7 34ZM7 38L7 40L9 40L9 38L7 38ZM7 42L7 44L9 44L9 42L7 42ZM7 46L7 48L9 48L9 46L7 46ZM7 50L7 52L9 52L9 50L7 50ZM7 54L7 56L9 56L9 54L7 54ZM7 58L7 60L9 60L9 58L7 58ZM7 62L7 64L9 64L9 62L7 62ZM7 66L7 68L9 68L9 66L7 66ZM7 70L7 72L9 72L9 70L7 70ZM7 74L7 76L9 76L9 74L7 74ZM7 78L7 80L9 80L9 78L7 78ZM7 82L7 84L9 84L9 82L7 82ZM7 86L7 88L9 88L9 86L7 86ZM7 90L7 92L9 92L9 90L7 90ZM7 94L7 96L9 96L9 94L7 94ZM7 98L7 100L9 100L9 98L7 98ZM7 102L7 104L9 104L9 102L7 102ZM7 106L7 108L9 108L9 106L7 106ZM7 110L7 112L9 112L9 110L7 110ZM7 114L7 116L9 116L9 114L7 114ZM7 118L7 120L9 120L9 118L7 118ZM6.99999 122L6.99999 124L8.99999 124L8.99999 122L6.99999 122ZM6.99999 126L6.99999 128L8.99999 128L8.99999 126L6.99999 126ZM6.99999 130L6.99999 132L8.99999 132L8.99999 130L6.99999 130ZM6.99999 134L6.99999 136L8.99999 136L8.99999 134L6.99999 134ZM6.99999 138L6.99999 140L8.99999 140L8.99999 138L6.99999 138ZM6.99999 142L6.99999 144L8.99999 144L8.99999 142L6.99999 142ZM6.99999 146L6.99999 148L8.99999 148L8.99999 146L6.99999 146ZM6.99999 150L6.99999 152L8.99999 152L8.99999 150L6.99999 150ZM6.99999 154L6.99999 156L8.99999 156L8.99999 154L6.99999 154ZM6.99999 158L6.99999 160L8.99999 160L8.99999 158L6.99999 158ZM6.99999 162L6.99999 164L8.99999 164L8.99999 162L6.99999 162ZM6.99999 166L6.99999 168L8.99999 168L8.99999 166L6.99999 166ZM6.99999 170L6.99999 172L8.99999 172L8.99999 170L6.99999 170ZM6.99999 174L6.99999 176L8.99999 176L8.99999 174L6.99999 174ZM6.99999 178L6.99999 180L8.99999 180L8.99999 178L6.99999 178ZM6.99999 182L6.99999 184L8.99999 184L8.99999 182L6.99999 182ZM6.99999 186L6.99999 188L8.99999 188L8.99999 186L6.99999 186ZM6.99999 190L6.99999 192L8.99999 192L8.99999 190L6.99999 190ZM6.99999 194L6.99999 196L8.99999 196L8.99999 194L6.99999 194ZM6.99999 198L6.99999 200L8.99999 200L8.99999 198L6.99999 198ZM6.99999 202L6.99999 204L8.99999 204L8.99999 202L6.99999 202ZM6.99999 206L6.99999 208L8.99999 208L8.99999 206L6.99999 206ZM6.99999 210L6.99999 212L8.99999 212L8.99999 210L6.99999 210ZM6.99999 214L6.99999 216L8.99999 216L8.99999 214L6.99999 214ZM6.99999 218L6.99999 220L8.99999 220L8.99999 218L6.99999 218ZM6.99999 222L6.99999 224L8.99999 224L8.99999 222L6.99999 222ZM6.99999 226L6.99999 228L8.99999 228L8.99999 226L6.99999 226ZM6.99999 230L6.99999 232L8.99999 232L8.99999 230L6.99999 230ZM6.99999 234L6.99999 236L8.99999 236L8.99999 234L6.99999 234ZM6.99999 238L6.99999 240L8.99999 240L8.99999 238L6.99999 238ZM6.99999 242L6.99999 244L8.99999 244L8.99999 242L6.99999 242ZM6.99999 246L6.99999 248L8.99999 248L8.99999 246L6.99999 246ZM6.99999 250L6.99999 252L8.99999 252L8.99999 250L6.99999 250ZM6.99999 254L6.99999 256L8.99999 256L8.99999 254L6.99999 254ZM6.99999 258L6.99999 260L8.99999 260L8.99999 258L6.99999 258ZM6.99999 262L6.99999 264L8.99999 264L8.99999 262L6.99999 262ZM6.99999 266L6.99999 268L8.99999 268L8.99999 266L6.99999 266ZM6.99999 270L6.99999 272L8.99999 272L8.99999 270L6.99999 270ZM6.99999 274L6.99999 276L8.99999 276L8.99999 274L6.99999 274ZM6.99999 278L6.99999 280L8.99999 280L8.99999 278L6.99999 278ZM6.99999 282L6.99999 284L8.99999 284L8.99999 282L6.99999 282ZM6.99999 286L6.99999 288L8.99999 288L8.99999 286L6.99999 286ZM6.99999 290L6.99999 292L8.99999 292L8.99999 290L6.99999 290ZM6.99999 294L6.99999 296L8.99999 296L8.99999 294L6.99999 294ZM6.99999 298L6.99999 300L8.99999 300L8.99999 298L6.99999 298ZM6.99999 302L6.99999 304L8.99999 304L8.99999 302L6.99999 302ZM6.99999 306L6.99999 308L8.99999 308L8.99999 306L6.99999 306ZM6.99999 310L6.99999 312L8.99999 312L8.99999 310L6.99999 310ZM6.99999 314L6.99999 316L8.99999 316L8.99999 314L6.99999 314ZM6.99999 318L6.99999 320L8.99999 320L8.99999 318L6.99999 318ZM6.99999 322L6.99999 324L8.99999 324L8.99999 322L6.99999 322ZM6.99999 326L6.99999 328L8.99999 328L8.99999 326L6.99999 326ZM6.99999 330L6.99999 332L8.99999 332L8.99999 330L6.99999 330ZM6.99999 334L6.99999 336L8.99999 336L8.99999 334L6.99999 334ZM6.99999 338L6.99999 340L8.99999 340L8.99999 338L6.99999 338ZM6.99999 342L6.99999 344L8.99999 344L8.99999 342L6.99999 342ZM6.99999 346L6.99999 348L8.99999 348L8.99999 346L6.99999 346ZM6.99999 350L6.99998 352L8.99998 352L8.99999 350L6.99999 350ZM6.99998 354L6.99998 356L8.99998 356L8.99998 354L6.99998 354ZM6.99998 358L6.99998 360L8.99998 360L8.99998 358L6.99998 358ZM6.99998 362L6.99998 364L8.99998 364L8.99998 362L6.99998 362ZM6.99998 366L6.99998 368L8.99998 368L8.99998 366L6.99998 366ZM6.99998 370L6.99998 372L8.99998 372L8.99998 370L6.99998 370ZM6.99998 374L6.99998 376L8.99998 376L8.99998 374L6.99998 374ZM6.99998 378L6.99998 380L8.99998 380L8.99998 378L6.99998 378ZM6.99998 382L6.99998 384L8.99998 384L8.99998 382L6.99998 382ZM6.99998 386L6.99998 388L8.99998 388L8.99998 386L6.99998 386ZM6.99998 390L6.99998 392L8.99998 392L8.99998 390L6.99998 390ZM6.99998 394L6.99998 396L8.99998 396L8.99998 394L6.99998 394ZM6.99998 398L6.99998 400L8.99998 400L8.99998 398L6.99998 398ZM6.99998 402L6.99998 404L8.99998 404L8.99998 402L6.99998 402ZM6.99998 406L6.99998 408L8.99998 408L8.99998 406L6.99998 406ZM6.99998 410L6.99998 412L8.99998 412L8.99998 410L6.99998 410ZM6.99998 414L6.99998 416L8.99998 416L8.99998 414L6.99998 414ZM6.99998 418L6.99998 420L8.99998 420L8.99998 418L6.99998 418ZM6.99998 422L6.99998 424L8.99998 424L8.99998 422L6.99998 422ZM6.99998 426L6.99998 428L8.99998 428L8.99998 426L6.99998 426ZM6.99998 430L6.99998 432L8.99998 432L8.99998 430L6.99998 430ZM6.99998 434L6.99998 436L8.99998 436L8.99998 434L6.99998 434ZM6.99998 438L6.99998 440L8.99998 440L8.99998 438L6.99998 438ZM6.99998 442L6.99998 444L8.99998 444L8.99998 442L6.99998 442ZM6.99998 446L6.99998 448L8.99998 448L8.99998 446L6.99998 446ZM6.99998 450L6.99998 452L8.99998 452L8.99998 450L6.99998 450ZM6.99998 454L6.99998 456L8.99998 456L8.99998 454L6.99998 454ZM6.99998 458L6.99998 460L8.99998 460L8.99998 458L6.99998 458ZM6.99998 462L6.99998 464L8.99998 464L8.99998 462L6.99998 462ZM6.99998 466L6.99998 468L8.99998 468L8.99998 466L6.99998 466ZM6.99998 470L6.99998 472L8.99998 472L8.99998 470L6.99998 470ZM6.99998 474L6.99998 476L8.99998 476L8.99998 474L6.99998 474ZM6.99998 478L6.99998 480L8.99998 480L8.99998 478L6.99998 478ZM6.99998 482L6.99998 484L8.99998 484L8.99998 482L6.99998 482ZM6.99998 486L6.99998 488L8.99998 488L8.99998 486L6.99998 486ZM6.99998 490L6.99998 492L8.99998 492L8.99998 490L6.99998 490ZM6.99998 494L6.99998 496L8.99998 496L8.99998 494L6.99998 494ZM6.99998 498L6.99998 500L8.99998 500L8.99998 498L6.99998 498ZM6.99998 502L6.99998 504L8.99998 504L8.99998 502L6.99998 502ZM6.99998 506L6.99998 508L8.99998 508L8.99998 506L6.99998 506ZM6.99998 510L6.99998 512L8.99998 512L8.99998 510L6.99998 510ZM6.99998 514L6.99998 516L8.99998 516L8.99998 514L6.99998 514ZM6.99998 518L6.99998 520L8.99998 520L8.99998 518L6.99998 518ZM6.99998 522L6.99998 524L8.99998 524L8.99998 522L6.99998 522ZM6.99998 526L6.99998 528L8.99998 528L8.99998 526L6.99998 526ZM6.99998 530L6.99998 532L8.99998 532L8.99998 530L6.99998 530ZM6.99998 534L6.99998 536L8.99998 536L8.99998 534L6.99998 534ZM6.99998 538L6.99998 540L8.99998 540L8.99998 538L6.99998 538ZM6.99998 542L6.99998 544L8.99998 544L8.99998 542L6.99998 542ZM6.99998 546L6.99998 548L8.99998 548L8.99998 546L6.99998 546ZM6.99998 550L6.99998 552L8.99998 552L8.99998 550L6.99998 550ZM6.99998 554L6.99998 556L8.99998 556L8.99998 554L6.99998 554ZM6.99998 558L6.99998 560L8.99998 560L8.99998 558L6.99998 558ZM6.99998 562L6.99998 564L8.99998 564L8.99998 562L6.99998 562ZM6.99998 566L6.99998 568L8.99998 568L8.99998 566L6.99998 566ZM6.99998 570L6.99998 572L8.99998 572L8.99998 570L6.99998 570ZM6.99998 574L6.99998 576L8.99998 576L8.99998 574L6.99998 574ZM6.99998 578L6.99997 580L8.99997 580L8.99998 578L6.99998 578ZM6.99997 582L6.99997 584L8.99997 584L8.99997 582L6.99997 582ZM6.99997 586L6.99997 588L8.99997 588L8.99997 586L6.99997 586ZM6.99997 590L6.99997 592L8.99997 592L8.99997 590L6.99997 590ZM6.99997 594L6.99997 596L8.99997 596L8.99997 594L6.99997 594ZM6.99997 598L6.99997 600L8.99997 600L8.99997 598L6.99997 598ZM6.99997 602L6.99997 604L8.99997 604L8.99997 602L6.99997 602ZM6.99997 606L6.99997 608L8.99997 608L8.99997 606L6.99997 606ZM6.99997 610L6.99997 612L8.99997 612L8.99997 610L6.99997 610ZM6.99997 614L6.99997 616L8.99997 616L8.99997 614L6.99997 614ZM6.99997 618L6.99997 620L8.99997 620L8.99997 618L6.99997 618ZM6.99997 622L6.99997 624L8.99997 624L8.99997 622L6.99997 622ZM6.99997 626L6.99997 628L8.99997 628L8.99997 626L6.99997 626ZM6.99997 630L6.99997 632L8.99997 632L8.99997 630L6.99997 630ZM6.99997 634L6.99997 636L8.99997 636L8.99997 634L6.99997 634ZM6.99997 638L6.99997 640L8.99997 640L8.99997 638L6.99997 638ZM6.99997 642L6.99997 644L8.99997 644L8.99997 642L6.99997 642ZM6.99997 646L6.99997 648L8.99997 648L8.99997 646L6.99997 646ZM6.99997 650L6.99997 652L8.99997 652L8.99997 650L6.99997 650ZM6.99997 654L6.99997 656L8.99997 656L8.99997 654L6.99997 654ZM6.99997 658L6.99997 660L8.99997 660L8.99997 658L6.99997 658ZM6.99997 662L6.99997 664L8.99997 664L8.99997 662L6.99997 662ZM6.99997 666L6.99997 668L8.99997 668L8.99997 666L6.99997 666ZM6.99997 670L6.99997 672L8.99997 672L8.99997 670L6.99997 670ZM6.99997 674L6.99997 676L8.99997 676L8.99997 674L6.99997 674ZM6.99997 678L6.99997 680L8.99997 680L8.99997 678L6.99997 678ZM6.99997 682L6.99997 684L8.99997 684L8.99997 682L6.99997 682ZM6.99997 686L6.99997 688L8.99997 688L8.99997 686L6.99997 686ZM6.99997 690L6.99997 692L8.99997 692L8.99997 690L6.99997 690ZM6.99997 694L6.99997 696L8.99997 696L8.99997 694L6.99997 694ZM6.99997 698L6.99997 700L8.99997 700L8.99997 698L6.99997 698ZM6.99997 702L6.99997 704L8.99997 704L8.99997 702L6.99997 702ZM6.99997 706L6.99997 708L8.99997 708L8.99997 706L6.99997 706ZM6.99997 710L6.99997 712L8.99997 712L8.99997 710L6.99997 710ZM6.99997 714L6.99997 716L8.99997 716L8.99997 714L6.99997 714ZM6.99997 718L6.99997 720L8.99997 720L8.99997 718L6.99997 718ZM6.99997 722L6.99997 724L8.99997 724L8.99997 722L6.99997 722ZM6.99997 726L6.99997 728L8.99997 728L8.99997 726L6.99997 726ZM6.99997 730L6.99997 732L8.99997 732L8.99997 730L6.99997 730ZM6.99997 734L6.99997 736L8.99997 736L8.99997 734L6.99997 734ZM6.99997 738L6.99997 740L8.99997 740L8.99997 738L6.99997 738ZM6.99997 742L6.99997 744L8.99997 744L8.99997 742L6.99997 742ZM6.99997 746L6.99997 748L8.99997 748L8.99997 746L6.99997 746ZM6.99997 750L6.99997 752L8.99997 752L8.99997 750L6.99997 750ZM6.99997 754L6.99997 756L8.99997 756L8.99997 754L6.99997 754ZM6.99997 758L6.99997 760L8.99997 760L8.99997 758L6.99997 758ZM6.99997 762L6.99997 764L8.99997 764L8.99997 762L6.99997 762ZM6.99997 766L6.99997 768L8.99997 768L8.99997 766L6.99997 766ZM6.99997 770L6.99997 772L8.99997 772L8.99997 770L6.99997 770ZM6.99997 774L6.99997 776L8.99997 776L8.99997 774L6.99997 774ZM6.99997 778L6.99997 780L8.99997 780L8.99997 778L6.99997 778ZM6.99997 782L6.99997 784L8.99997 784L8.99997 782L6.99997 782ZM6.99997 786L6.99997 788L8.99997 788L8.99997 786L6.99997 786ZM6.99997 790L6.99997 792L8.99997 792L8.99997 790L6.99997 790ZM6.99997 794L6.99997 796L8.99997 796L8.99997 794L6.99997 794ZM6.99997 798L6.99997 800L8.99997 800L8.99997 798L6.99997 798ZM6.99997 802L6.99997 804L8.99997 804L8.99997 802L6.99997 802ZM6.99997 806L6.99997 807L8.99997 807L8.99997 806L6.99997 806Z" fill="#1B5AB8"></path></svg>