<svg xmlns="http://www.w3.org/2000/svg" width="16" height="1107" viewBox="0 0 16 1107" fill="none"><circle cx="8.5" cy="7.5" r="7.5" fill="#1B5AB8"></circle><path d="M7.6464 1106.35C7.84166 1106.55 8.15824 1106.55 8.35351 1106.35L11.5355 1103.17C11.7307 1102.98 11.7307 1102.66 11.5355 1102.46C11.3402 1102.27 11.0236 1102.27 10.8284 1102.46L7.99995 1105.29L5.17152 1102.46C4.97626 1102.27 4.65968 1102.27 4.46442 1102.46C4.26916 1102.66 4.26916 1102.98 4.46442 1103.17L7.6464 1106.35ZM7.5 6L7.5 7L8.5 7L8.5 6L7.5 6ZM7.5 9L7.5 11L8.5 11L8.5 9L7.5 9ZM7.5 13L7.5 15L8.5 15L8.5 13L7.5 13ZM7.5 17L7.5 19L8.5 19L8.5 17L7.5 17ZM7.5 21L7.5 23L8.5 23L8.5 21L7.5 21ZM7.5 25L7.5 27L8.5 27L8.5 25L7.5 25ZM7.5 29L7.5 31L8.5 31L8.5 29L7.5 29ZM7.5 33L7.5 35L8.5 35L8.5 33L7.5 33ZM7.5 37L7.5 39L8.5 39L8.5 37L7.5 37ZM7.5 41L7.5 43L8.5 43L8.5 41L7.5 41ZM7.5 45L7.5 47L8.5 47L8.5 45L7.5 45ZM7.5 49L7.5 51L8.5 51L8.5 49L7.5 49ZM7.5 53L7.5 55L8.5 55L8.5 53L7.5 53ZM7.5 57L7.5 59L8.5 59L8.5 57L7.5 57ZM7.5 61L7.5 63L8.5 63L8.5 61L7.5 61ZM7.5 65L7.5 67L8.5 67L8.5 65L7.5 65ZM7.5 69L7.5 71L8.5 71L8.5 69L7.5 69ZM7.5 73L7.5 75L8.5 75L8.5 73L7.5 73ZM7.5 77L7.5 79L8.5 79L8.5 77L7.5 77ZM7.5 81L7.5 83L8.5 83L8.5 81L7.5 81ZM7.5 85L7.5 87L8.5 87L8.5 85L7.5 85ZM7.5 89L7.5 91L8.5 91L8.5 89L7.5 89ZM7.5 93L7.5 95L8.5 95L8.5 93L7.5 93ZM7.5 97L7.5 99L8.5 99L8.5 97L7.5 97ZM7.5 101L7.5 103L8.5 103L8.5 101L7.5 101ZM7.5 105L7.5 107L8.5 107L8.5 105L7.5 105ZM7.5 109L7.5 111L8.5 111L8.5 109L7.5 109ZM7.5 113L7.5 115L8.5 115L8.5 113L7.5 113ZM7.5 117L7.5 119L8.5 119L8.5 117L7.5 117ZM7.49999 121L7.49999 123L8.49999 123L8.49999 121L7.49999 121ZM7.49999 125L7.49999 127L8.49999 127L8.49999 125L7.49999 125ZM7.49999 129L7.49999 131L8.49999 131L8.49999 129L7.49999 129ZM7.49999 133L7.49999 135L8.49999 135L8.49999 133L7.49999 133ZM7.49999 137L7.49999 139L8.49999 139L8.49999 137L7.49999 137ZM7.49999 141L7.49999 143L8.49999 143L8.49999 141L7.49999 141ZM7.49999 145L7.49999 147L8.49999 147L8.49999 145L7.49999 145ZM7.49999 149L7.49999 151L8.49999 151L8.49999 149L7.49999 149ZM7.49999 153L7.49999 155L8.49999 155L8.49999 153L7.49999 153ZM7.49999 157L7.49999 159L8.49999 159L8.49999 157L7.49999 157ZM7.49999 161L7.49999 163L8.49999 163L8.49999 161L7.49999 161ZM7.49999 165L7.49999 167L8.49999 167L8.49999 165L7.49999 165ZM7.49999 169L7.49999 171L8.49999 171L8.49999 169L7.49999 169ZM7.49999 173L7.49999 175L8.49999 175L8.49999 173L7.49999 173ZM7.49999 177L7.49999 179L8.49999 179L8.49999 177L7.49999 177ZM7.49999 181L7.49999 183L8.49999 183L8.49999 181L7.49999 181ZM7.49999 185L7.49999 187L8.49999 187L8.49999 185L7.49999 185ZM7.49999 189L7.49999 191L8.49999 191L8.49999 189L7.49999 189ZM7.49999 193L7.49999 195L8.49999 195L8.49999 193L7.49999 193ZM7.49999 197L7.49999 199L8.49999 199L8.49999 197L7.49999 197ZM7.49999 201L7.49999 203L8.49999 203L8.49999 201L7.49999 201ZM7.49999 205L7.49999 207L8.49999 207L8.49999 205L7.49999 205ZM7.49999 209L7.49999 211L8.49999 211L8.49999 209L7.49999 209ZM7.49999 213L7.49999 215L8.49999 215L8.49999 213L7.49999 213ZM7.49999 217L7.49999 219L8.49999 219L8.49999 217L7.49999 217ZM7.49999 221L7.49999 223L8.49999 223L8.49999 221L7.49999 221ZM7.49999 225L7.49999 227L8.49999 227L8.49999 225L7.49999 225ZM7.49999 229L7.49999 231L8.49999 231L8.49999 229L7.49999 229ZM7.49999 233L7.49999 235L8.49999 235L8.49999 233L7.49999 233ZM7.49999 237L7.49999 239L8.49999 239L8.49999 237L7.49999 237ZM7.49999 241L7.49999 243L8.49999 243L8.49999 241L7.49999 241ZM7.49999 245L7.49999 247L8.49999 247L8.49999 245L7.49999 245ZM7.49999 249L7.49999 251L8.49999 251L8.49999 249L7.49999 249ZM7.49999 253L7.49999 255L8.49999 255L8.49999 253L7.49999 253ZM7.49999 257L7.49999 259L8.49999 259L8.49999 257L7.49999 257ZM7.49999 261L7.49999 263L8.49999 263L8.49999 261L7.49999 261ZM7.49999 265L7.49999 267L8.49999 267L8.49999 265L7.49999 265ZM7.49999 269L7.49999 271L8.49999 271L8.49999 269L7.49999 269ZM7.49999 273L7.49999 275L8.49999 275L8.49999 273L7.49999 273ZM7.49999 277L7.49999 279L8.49999 279L8.49999 277L7.49999 277ZM7.49999 281L7.49999 283L8.49999 283L8.49999 281L7.49999 281ZM7.49999 285L7.49999 287L8.49999 287L8.49999 285L7.49999 285ZM7.49999 289L7.49999 291L8.49999 291L8.49999 289L7.49999 289ZM7.49999 293L7.49999 295L8.49999 295L8.49999 293L7.49999 293ZM7.49999 297L7.49999 299L8.49999 299L8.49999 297L7.49999 297ZM7.49999 301L7.49999 303L8.49999 303L8.49999 301L7.49999 301ZM7.49999 305L7.49999 307L8.49999 307L8.49999 305L7.49999 305ZM7.49999 309L7.49999 311L8.49999 311L8.49999 309L7.49999 309ZM7.49999 313L7.49999 315L8.49999 315L8.49999 313L7.49999 313ZM7.49999 317L7.49999 319L8.49999 319L8.49999 317L7.49999 317ZM7.49999 321L7.49999 323L8.49999 323L8.49999 321L7.49999 321ZM7.49999 325L7.49999 327L8.49999 327L8.49999 325L7.49999 325ZM7.49999 329L7.49999 331L8.49999 331L8.49999 329L7.49999 329ZM7.49999 333L7.49999 335L8.49999 335L8.49999 333L7.49999 333ZM7.49999 337L7.49999 339L8.49999 339L8.49999 337L7.49999 337ZM7.49999 341L7.49999 343L8.49999 343L8.49999 341L7.49999 341ZM7.49999 345L7.49999 347L8.49999 347L8.49999 345L7.49999 345ZM7.49999 349L7.49998 351L8.49998 351L8.49999 349L7.49999 349ZM7.49998 353L7.49998 355L8.49998 355L8.49998 353L7.49998 353ZM7.49998 357L7.49998 359L8.49998 359L8.49998 357L7.49998 357ZM7.49998 361L7.49998 363L8.49998 363L8.49998 361L7.49998 361ZM7.49998 365L7.49998 367L8.49998 367L8.49998 365L7.49998 365ZM7.49998 369L7.49998 371L8.49998 371L8.49998 369L7.49998 369ZM7.49998 373L7.49998 375L8.49998 375L8.49998 373L7.49998 373ZM7.49998 377L7.49998 379L8.49998 379L8.49998 377L7.49998 377ZM7.49998 381L7.49998 383L8.49998 383L8.49998 381L7.49998 381ZM7.49998 385L7.49998 387L8.49998 387L8.49998 385L7.49998 385ZM7.49998 389L7.49998 391L8.49998 391L8.49998 389L7.49998 389ZM7.49998 393L7.49998 395L8.49998 395L8.49998 393L7.49998 393ZM7.49998 397L7.49998 399L8.49998 399L8.49998 397L7.49998 397ZM7.49998 401L7.49998 403L8.49998 403L8.49998 401L7.49998 401ZM7.49998 405L7.49998 407L8.49998 407L8.49998 405L7.49998 405ZM7.49998 409L7.49998 411L8.49998 411L8.49998 409L7.49998 409ZM7.49998 413L7.49998 415L8.49998 415L8.49998 413L7.49998 413ZM7.49998 417L7.49998 419L8.49998 419L8.49998 417L7.49998 417ZM7.49998 421L7.49998 423L8.49998 423L8.49998 421L7.49998 421ZM7.49998 425L7.49998 427L8.49998 427L8.49998 425L7.49998 425ZM7.49998 429L7.49998 431L8.49998 431L8.49998 429L7.49998 429ZM7.49998 433L7.49998 435L8.49998 435L8.49998 433L7.49998 433ZM7.49998 437L7.49998 439L8.49998 439L8.49998 437L7.49998 437ZM7.49998 441L7.49998 443L8.49998 443L8.49998 441L7.49998 441ZM7.49998 445L7.49998 447L8.49998 447L8.49998 445L7.49998 445ZM7.49998 449L7.49998 451L8.49998 451L8.49998 449L7.49998 449ZM7.49998 453L7.49998 455L8.49998 455L8.49998 453L7.49998 453ZM7.49998 457L7.49998 459L8.49998 459L8.49998 457L7.49998 457ZM7.49998 461L7.49998 463L8.49998 463L8.49998 461L7.49998 461ZM7.49998 465L7.49998 467L8.49998 467L8.49998 465L7.49998 465ZM7.49998 469L7.49998 471L8.49998 471L8.49998 469L7.49998 469ZM7.49998 473L7.49998 475L8.49998 475L8.49998 473L7.49998 473ZM7.49998 477L7.49998 479L8.49998 479L8.49998 477L7.49998 477ZM7.49998 481L7.49998 483L8.49998 483L8.49998 481L7.49998 481ZM7.49998 485L7.49998 487L8.49998 487L8.49998 485L7.49998 485ZM7.49998 489L7.49998 491L8.49998 491L8.49998 489L7.49998 489ZM7.49998 493L7.49998 495L8.49998 495L8.49998 493L7.49998 493ZM7.49998 497L7.49998 499L8.49998 499L8.49998 497L7.49998 497ZM7.49998 501L7.49998 503L8.49998 503L8.49998 501L7.49998 501ZM7.49998 505L7.49998 507L8.49998 507L8.49998 505L7.49998 505ZM7.49998 509L7.49998 511L8.49998 511L8.49998 509L7.49998 509ZM7.49998 513L7.49998 515L8.49998 515L8.49998 513L7.49998 513ZM7.49998 517L7.49998 519L8.49998 519L8.49998 517L7.49998 517ZM7.49998 521L7.49998 523L8.49998 523L8.49998 521L7.49998 521ZM7.49998 525L7.49998 527L8.49998 527L8.49998 525L7.49998 525ZM7.49998 529L7.49998 531L8.49998 531L8.49998 529L7.49998 529ZM7.49998 533L7.49998 535L8.49998 535L8.49998 533L7.49998 533ZM7.49998 537L7.49998 539L8.49998 539L8.49998 537L7.49998 537ZM7.49998 541L7.49998 543L8.49998 543L8.49998 541L7.49998 541ZM7.49998 545L7.49998 547L8.49998 547L8.49998 545L7.49998 545ZM7.49998 549L7.49998 551L8.49998 551L8.49998 549L7.49998 549ZM7.49998 553L7.49998 555L8.49998 555L8.49998 553L7.49998 553ZM7.49998 557L7.49998 559L8.49998 559L8.49998 557L7.49998 557ZM7.49998 561L7.49998 563L8.49998 563L8.49998 561L7.49998 561ZM7.49998 565L7.49998 567L8.49998 567L8.49998 565L7.49998 565ZM7.49998 569L7.49998 571L8.49998 571L8.49998 569L7.49998 569ZM7.49998 573L7.49998 575L8.49998 575L8.49998 573L7.49998 573ZM7.49998 577L7.49997 579L8.49997 579L8.49998 577L7.49998 577ZM7.49997 581L7.49997 583L8.49997 583L8.49997 581L7.49997 581ZM7.49997 585L7.49997 587L8.49997 587L8.49997 585L7.49997 585ZM7.49997 589L7.49997 591L8.49997 591L8.49997 589L7.49997 589ZM7.49997 593L7.49997 595L8.49997 595L8.49997 593L7.49997 593ZM7.49997 597L7.49997 599L8.49997 599L8.49997 597L7.49997 597ZM7.49997 601L7.49997 603L8.49997 603L8.49997 601L7.49997 601ZM7.49997 605L7.49997 607L8.49997 607L8.49997 605L7.49997 605ZM7.49997 609L7.49997 611L8.49997 611L8.49997 609L7.49997 609ZM7.49997 613L7.49997 615L8.49997 615L8.49997 613L7.49997 613ZM7.49997 617L7.49997 619L8.49997 619L8.49997 617L7.49997 617ZM7.49997 621L7.49997 623L8.49997 623L8.49997 621L7.49997 621ZM7.49997 625L7.49997 627L8.49997 627L8.49997 625L7.49997 625ZM7.49997 629L7.49997 631L8.49997 631L8.49997 629L7.49997 629ZM7.49997 633L7.49997 635L8.49997 635L8.49997 633L7.49997 633ZM7.49997 637L7.49997 639L8.49997 639L8.49997 637L7.49997 637ZM7.49997 641L7.49997 643L8.49997 643L8.49997 641L7.49997 641ZM7.49997 645L7.49997 647L8.49997 647L8.49997 645L7.49997 645ZM7.49997 649L7.49997 651L8.49997 651L8.49997 649L7.49997 649ZM7.49997 653L7.49997 655L8.49997 655L8.49997 653L7.49997 653ZM7.49997 657L7.49997 659L8.49997 659L8.49997 657L7.49997 657ZM7.49997 661L7.49997 663L8.49997 663L8.49997 661L7.49997 661ZM7.49997 665L7.49997 667L8.49997 667L8.49997 665L7.49997 665ZM7.49997 669L7.49997 671L8.49997 671L8.49997 669L7.49997 669ZM7.49997 673L7.49997 675L8.49997 675L8.49997 673L7.49997 673ZM7.49997 677L7.49997 679L8.49997 679L8.49997 677L7.49997 677ZM7.49997 681L7.49997 683L8.49997 683L8.49997 681L7.49997 681ZM7.49997 685L7.49997 687L8.49997 687L8.49997 685L7.49997 685ZM7.49997 689L7.49997 691L8.49997 691L8.49997 689L7.49997 689ZM7.49997 693L7.49997 695L8.49997 695L8.49997 693L7.49997 693ZM7.49997 697L7.49997 699L8.49997 699L8.49997 697L7.49997 697ZM7.49997 701L7.49997 703L8.49997 703L8.49997 701L7.49997 701ZM7.49997 705L7.49997 707L8.49997 707L8.49997 705L7.49997 705ZM7.49997 709L7.49997 711L8.49997 711L8.49997 709L7.49997 709ZM7.49997 713L7.49997 715L8.49997 715L8.49997 713L7.49997 713ZM7.49997 717L7.49997 719L8.49997 719L8.49997 717L7.49997 717ZM7.49997 721L7.49997 723L8.49997 723L8.49997 721L7.49997 721ZM7.49997 725L7.49997 727L8.49997 727L8.49997 725L7.49997 725ZM7.49997 729L7.49997 731L8.49997 731L8.49997 729L7.49997 729ZM7.49997 733L7.49997 735L8.49997 735L8.49997 733L7.49997 733ZM7.49997 737L7.49997 739L8.49997 739L8.49997 737L7.49997 737ZM7.49997 741L7.49997 743L8.49997 743L8.49997 741L7.49997 741ZM7.49997 745L7.49997 747L8.49997 747L8.49997 745L7.49997 745ZM7.49997 749L7.49997 751L8.49997 751L8.49997 749L7.49997 749ZM7.49997 753L7.49997 755L8.49997 755L8.49997 753L7.49997 753ZM7.49997 757L7.49997 759L8.49997 759L8.49997 757L7.49997 757ZM7.49997 761L7.49997 763L8.49997 763L8.49997 761L7.49997 761ZM7.49997 765L7.49997 767L8.49997 767L8.49997 765L7.49997 765ZM7.49997 769L7.49997 771L8.49997 771L8.49997 769L7.49997 769ZM7.49997 773L7.49997 775L8.49997 775L8.49997 773L7.49997 773ZM7.49997 777L7.49997 779L8.49997 779L8.49997 777L7.49997 777ZM7.49997 781L7.49997 783L8.49997 783L8.49997 781L7.49997 781ZM7.49997 785L7.49997 787L8.49997 787L8.49997 785L7.49997 785ZM7.49997 789L7.49997 791L8.49997 791L8.49997 789L7.49997 789ZM7.49997 793L7.49997 795L8.49997 795L8.49997 793L7.49997 793ZM7.49997 797L7.49997 799L8.49997 799L8.49997 797L7.49997 797ZM7.49997 801L7.49997 803L8.49997 803L8.49997 801L7.49997 801ZM7.49997 805L7.49996 807L8.49996 807L8.49997 805L7.49997 805ZM7.49996 809L7.49996 811L8.49996 811L8.49996 809L7.49996 809ZM7.49996 813L7.49996 815L8.49996 815L8.49996 813L7.49996 813ZM7.49996 817L7.49996 819L8.49996 819L8.49996 817L7.49996 817ZM7.49996 821L7.49996 823L8.49996 823L8.49996 821L7.49996 821ZM7.49996 825L7.49996 827L8.49996 827L8.49996 825L7.49996 825ZM7.49996 829L7.49996 831L8.49996 831L8.49996 829L7.49996 829ZM7.49996 833L7.49996 835L8.49996 835L8.49996 833L7.49996 833ZM7.49996 837L7.49996 839L8.49996 839L8.49996 837L7.49996 837ZM7.49996 841L7.49996 843L8.49996 843L8.49996 841L7.49996 841ZM7.49996 845L7.49996 847L8.49996 847L8.49996 845L7.49996 845ZM7.49996 849L7.49996 851L8.49996 851L8.49996 849L7.49996 849ZM7.49996 853L7.49996 855L8.49996 855L8.49996 853L7.49996 853ZM7.49996 857L7.49996 859L8.49996 859L8.49996 857L7.49996 857ZM7.49996 861L7.49996 863L8.49996 863L8.49996 861L7.49996 861ZM7.49996 865L7.49996 867L8.49996 867L8.49996 865L7.49996 865ZM7.49996 869L7.49996 871L8.49996 871L8.49996 869L7.49996 869ZM7.49996 873L7.49996 875L8.49996 875L8.49996 873L7.49996 873ZM7.49996 877L7.49996 879L8.49996 879L8.49996 877L7.49996 877ZM7.49996 881L7.49996 883L8.49996 883L8.49996 881L7.49996 881ZM7.49996 885L7.49996 887L8.49996 887L8.49996 885L7.49996 885ZM7.49996 889L7.49996 891L8.49996 891L8.49996 889L7.49996 889ZM7.49996 893L7.49996 895L8.49996 895L8.49996 893L7.49996 893ZM7.49996 897L7.49996 899L8.49996 899L8.49996 897L7.49996 897ZM7.49996 901L7.49996 903L8.49996 903L8.49996 901L7.49996 901ZM7.49996 905L7.49996 907L8.49996 907L8.49996 905L7.49996 905ZM7.49996 909L7.49996 911L8.49996 911L8.49996 909L7.49996 909ZM7.49996 913L7.49996 915L8.49996 915L8.49996 913L7.49996 913ZM7.49996 917L7.49996 919L8.49996 919L8.49996 917L7.49996 917ZM7.49996 921L7.49996 923L8.49996 923L8.49996 921L7.49996 921ZM7.49996 925L7.49996 927L8.49996 927L8.49996 925L7.49996 925ZM7.49996 929L7.49996 931L8.49996 931L8.49996 929L7.49996 929ZM7.49996 933L7.49996 935L8.49996 935L8.49996 933L7.49996 933ZM7.49996 937L7.49996 939L8.49996 939L8.49996 937L7.49996 937ZM7.49996 941L7.49996 943L8.49996 943L8.49996 941L7.49996 941ZM7.49996 945L7.49996 947L8.49996 947L8.49996 945L7.49996 945ZM7.49996 949L7.49996 951L8.49996 951L8.49996 949L7.49996 949ZM7.49996 953L7.49996 955L8.49996 955L8.49996 953L7.49996 953ZM7.49996 957L7.49996 959L8.49996 959L8.49996 957L7.49996 957ZM7.49996 961L7.49996 963L8.49996 963L8.49996 961L7.49996 961ZM7.49996 965L7.49996 967L8.49996 967L8.49996 965L7.49996 965ZM7.49996 969L7.49996 971L8.49996 971L8.49996 969L7.49996 969ZM7.49996 973L7.49996 975L8.49996 975L8.49996 973L7.49996 973ZM7.49996 977L7.49996 979L8.49996 979L8.49996 977L7.49996 977ZM7.49996 981L7.49996 983L8.49996 983L8.49996 981L7.49996 981ZM7.49996 985L7.49996 987L8.49996 987L8.49996 985L7.49996 985ZM7.49996 989L7.49996 991L8.49996 991L8.49996 989L7.49996 989ZM7.49996 993L7.49996 995L8.49996 995L8.49996 993L7.49996 993ZM7.49996 997L7.49996 999L8.49996 999L8.49996 997L7.49996 997ZM7.49996 1001L7.49996 1003L8.49996 1003L8.49996 1001L7.49996 1001ZM7.49996 1005L7.49996 1007L8.49996 1007L8.49996 1005L7.49996 1005ZM7.49996 1009L7.49996 1011L8.49996 1011L8.49996 1009L7.49996 1009ZM7.49996 1013L7.49996 1015L8.49996 1015L8.49996 1013L7.49996 1013ZM7.49996 1017L7.49996 1019L8.49996 1019L8.49996 1017L7.49996 1017ZM7.49996 1021L7.49996 1023L8.49996 1023L8.49996 1021L7.49996 1021ZM7.49996 1025L7.49996 1027L8.49996 1027L8.49996 1025L7.49996 1025ZM7.49996 1029L7.49996 1031L8.49996 1031L8.49996 1029L7.49996 1029ZM7.49996 1033L7.49996 1035L8.49996 1035L8.49996 1033L7.49996 1033ZM7.49995 1037L7.49995 1039L8.49995 1039L8.49995 1037L7.49995 1037ZM7.49995 1041L7.49995 1043L8.49995 1043L8.49995 1041L7.49995 1041ZM7.49995 1045L7.49995 1047L8.49995 1047L8.49995 1045L7.49995 1045ZM7.49995 1049L7.49995 1051L8.49995 1051L8.49995 1049L7.49995 1049ZM7.49995 1053L7.49995 1055L8.49995 1055L8.49995 1053L7.49995 1053ZM7.49995 1057L7.49995 1059L8.49995 1059L8.49995 1057L7.49995 1057ZM7.49995 1061L7.49995 1063L8.49995 1063L8.49995 1061L7.49995 1061ZM7.49995 1065L7.49995 1067L8.49995 1067L8.49995 1065L7.49995 1065ZM7.49995 1069L7.49995 1071L8.49995 1071L8.49995 1069L7.49995 1069ZM7.49995 1073L7.49995 1075L8.49995 1075L8.49995 1073L7.49995 1073ZM7.49995 1077L7.49995 1079L8.49995 1079L8.49995 1077L7.49995 1077ZM7.49995 1081L7.49995 1083L8.49995 1083L8.49995 1081L7.49995 1081ZM7.49995 1085L7.49995 1087L8.49995 1087L8.49995 1085L7.49995 1085ZM7.49995 1089L7.49995 1091L8.49995 1091L8.49995 1089L7.49995 1089ZM7.49995 1093L7.49995 1095L8.49995 1095L8.49995 1093L7.49995 1093ZM7.49995 1097L7.49995 1099L8.49995 1099L8.49995 1097L7.49995 1097ZM7.49995 1101L7.49995 1103L8.49995 1103L8.49995 1101L7.49995 1101ZM7.49995 1105L7.49995 1106L8.49995 1106L8.49995 1105L7.49995 1105ZM7.29285 1106.71C7.68337 1107.1 8.31653 1107.1 8.70706 1106.71L15.071 1100.34C15.4615 1099.95 15.4615 1099.32 15.071 1098.93C14.6805 1098.54 14.0473 1098.54 13.6568 1098.93L7.99995 1104.59L2.3431 1098.93C1.95257 1098.54 1.31941 1098.54 0.928884 1098.93C0.53836 1099.32 0.53836 1099.95 0.928884 1100.34L7.29285 1106.71ZM7 6L7 7L9 7L9 6L7 6ZM7 9L7 11L9 11L9 9L7 9ZM7 13L7 15L9 15L9 13L7 13ZM7 17L7 19L9 19L9 17L7 17ZM7 21L7 23L9 23L9 21L7 21ZM7 25L7 27L9 27L9 25L7 25ZM7 29L7 31L9 31L9 29L7 29ZM7 33L7 35L9 35L9 33L7 33ZM7 37L7 39L9 39L9 37L7 37ZM7 41L7 43L9 43L9 41L7 41ZM7 45L7 47L9 47L9 45L7 45ZM7 49L7 51L9 51L9 49L7 49ZM7 53L7 55L9 55L9 53L7 53ZM7 57L7 59L9 59L9 57L7 57ZM7 61L7 63L9 63L9 61L7 61ZM7 65L7 67L9 67L9 65L7 65ZM7 69L7 71L9 71L9 69L7 69ZM7 73L7 75L9 75L9 73L7 73ZM7 77L7 79L9 79L9 77L7 77ZM7 81L7 83L9 83L9 81L7 81ZM7 85L7 87L9 87L9 85L7 85ZM7 89L7 91L9 91L9 89L7 89ZM7 93L7 95L9 95L9 93L7 93ZM7 97L7 99L9 99L9 97L7 97ZM7 101L7 103L9 103L9 101L7 101ZM7 105L7 107L9 107L9 105L7 105ZM7 109L7 111L9 111L9 109L7 109ZM7 113L7 115L9 115L9 113L7 113ZM7 117L7 119L9 119L9 117L7 117ZM6.99999 121L6.99999 123L8.99999 123L8.99999 121L6.99999 121ZM6.99999 125L6.99999 127L8.99999 127L8.99999 125L6.99999 125ZM6.99999 129L6.99999 131L8.99999 131L8.99999 129L6.99999 129ZM6.99999 133L6.99999 135L8.99999 135L8.99999 133L6.99999 133ZM6.99999 137L6.99999 139L8.99999 139L8.99999 137L6.99999 137ZM6.99999 141L6.99999 143L8.99999 143L8.99999 141L6.99999 141ZM6.99999 145L6.99999 147L8.99999 147L8.99999 145L6.99999 145ZM6.99999 149L6.99999 151L8.99999 151L8.99999 149L6.99999 149ZM6.99999 153L6.99999 155L8.99999 155L8.99999 153L6.99999 153ZM6.99999 157L6.99999 159L8.99999 159L8.99999 157L6.99999 157ZM6.99999 161L6.99999 163L8.99999 163L8.99999 161L6.99999 161ZM6.99999 165L6.99999 167L8.99999 167L8.99999 165L6.99999 165ZM6.99999 169L6.99999 171L8.99999 171L8.99999 169L6.99999 169ZM6.99999 173L6.99999 175L8.99999 175L8.99999 173L6.99999 173ZM6.99999 177L6.99999 179L8.99999 179L8.99999 177L6.99999 177ZM6.99999 181L6.99999 183L8.99999 183L8.99999 181L6.99999 181ZM6.99999 185L6.99999 187L8.99999 187L8.99999 185L6.99999 185ZM6.99999 189L6.99999 191L8.99999 191L8.99999 189L6.99999 189ZM6.99999 193L6.99999 195L8.99999 195L8.99999 193L6.99999 193ZM6.99999 197L6.99999 199L8.99999 199L8.99999 197L6.99999 197ZM6.99999 201L6.99999 203L8.99999 203L8.99999 201L6.99999 201ZM6.99999 205L6.99999 207L8.99999 207L8.99999 205L6.99999 205ZM6.99999 209L6.99999 211L8.99999 211L8.99999 209L6.99999 209ZM6.99999 213L6.99999 215L8.99999 215L8.99999 213L6.99999 213ZM6.99999 217L6.99999 219L8.99999 219L8.99999 217L6.99999 217ZM6.99999 221L6.99999 223L8.99999 223L8.99999 221L6.99999 221ZM6.99999 225L6.99999 227L8.99999 227L8.99999 225L6.99999 225ZM6.99999 229L6.99999 231L8.99999 231L8.99999 229L6.99999 229ZM6.99999 233L6.99999 235L8.99999 235L8.99999 233L6.99999 233ZM6.99999 237L6.99999 239L8.99999 239L8.99999 237L6.99999 237ZM6.99999 241L6.99999 243L8.99999 243L8.99999 241L6.99999 241ZM6.99999 245L6.99999 247L8.99999 247L8.99999 245L6.99999 245ZM6.99999 249L6.99999 251L8.99999 251L8.99999 249L6.99999 249ZM6.99999 253L6.99999 255L8.99999 255L8.99999 253L6.99999 253ZM6.99999 257L6.99999 259L8.99999 259L8.99999 257L6.99999 257ZM6.99999 261L6.99999 263L8.99999 263L8.99999 261L6.99999 261ZM6.99999 265L6.99999 267L8.99999 267L8.99999 265L6.99999 265ZM6.99999 269L6.99999 271L8.99999 271L8.99999 269L6.99999 269ZM6.99999 273L6.99999 275L8.99999 275L8.99999 273L6.99999 273ZM6.99999 277L6.99999 279L8.99999 279L8.99999 277L6.99999 277ZM6.99999 281L6.99999 283L8.99999 283L8.99999 281L6.99999 281ZM6.99999 285L6.99999 287L8.99999 287L8.99999 285L6.99999 285ZM6.99999 289L6.99999 291L8.99999 291L8.99999 289L6.99999 289ZM6.99999 293L6.99999 295L8.99999 295L8.99999 293L6.99999 293ZM6.99999 297L6.99999 299L8.99999 299L8.99999 297L6.99999 297ZM6.99999 301L6.99999 303L8.99999 303L8.99999 301L6.99999 301ZM6.99999 305L6.99999 307L8.99999 307L8.99999 305L6.99999 305ZM6.99999 309L6.99999 311L8.99999 311L8.99999 309L6.99999 309ZM6.99999 313L6.99999 315L8.99999 315L8.99999 313L6.99999 313ZM6.99999 317L6.99999 319L8.99999 319L8.99999 317L6.99999 317ZM6.99999 321L6.99999 323L8.99999 323L8.99999 321L6.99999 321ZM6.99999 325L6.99999 327L8.99999 327L8.99999 325L6.99999 325ZM6.99999 329L6.99999 331L8.99999 331L8.99999 329L6.99999 329ZM6.99999 333L6.99999 335L8.99999 335L8.99999 333L6.99999 333ZM6.99999 337L6.99999 339L8.99999 339L8.99999 337L6.99999 337ZM6.99999 341L6.99999 343L8.99999 343L8.99999 341L6.99999 341ZM6.99999 345L6.99999 347L8.99999 347L8.99999 345L6.99999 345ZM6.99999 349L6.99998 351L8.99998 351L8.99999 349L6.99999 349ZM6.99998 353L6.99998 355L8.99998 355L8.99998 353L6.99998 353ZM6.99998 357L6.99998 359L8.99998 359L8.99998 357L6.99998 357ZM6.99998 361L6.99998 363L8.99998 363L8.99998 361L6.99998 361ZM6.99998 365L6.99998 367L8.99998 367L8.99998 365L6.99998 365ZM6.99998 369L6.99998 371L8.99998 371L8.99998 369L6.99998 369ZM6.99998 373L6.99998 375L8.99998 375L8.99998 373L6.99998 373ZM6.99998 377L6.99998 379L8.99998 379L8.99998 377L6.99998 377ZM6.99998 381L6.99998 383L8.99998 383L8.99998 381L6.99998 381ZM6.99998 385L6.99998 387L8.99998 387L8.99998 385L6.99998 385ZM6.99998 389L6.99998 391L8.99998 391L8.99998 389L6.99998 389ZM6.99998 393L6.99998 395L8.99998 395L8.99998 393L6.99998 393ZM6.99998 397L6.99998 399L8.99998 399L8.99998 397L6.99998 397ZM6.99998 401L6.99998 403L8.99998 403L8.99998 401L6.99998 401ZM6.99998 405L6.99998 407L8.99998 407L8.99998 405L6.99998 405ZM6.99998 409L6.99998 411L8.99998 411L8.99998 409L6.99998 409ZM6.99998 413L6.99998 415L8.99998 415L8.99998 413L6.99998 413ZM6.99998 417L6.99998 419L8.99998 419L8.99998 417L6.99998 417ZM6.99998 421L6.99998 423L8.99998 423L8.99998 421L6.99998 421ZM6.99998 425L6.99998 427L8.99998 427L8.99998 425L6.99998 425ZM6.99998 429L6.99998 431L8.99998 431L8.99998 429L6.99998 429ZM6.99998 433L6.99998 435L8.99998 435L8.99998 433L6.99998 433ZM6.99998 437L6.99998 439L8.99998 439L8.99998 437L6.99998 437ZM6.99998 441L6.99998 443L8.99998 443L8.99998 441L6.99998 441ZM6.99998 445L6.99998 447L8.99998 447L8.99998 445L6.99998 445ZM6.99998 449L6.99998 451L8.99998 451L8.99998 449L6.99998 449ZM6.99998 453L6.99998 455L8.99998 455L8.99998 453L6.99998 453ZM6.99998 457L6.99998 459L8.99998 459L8.99998 457L6.99998 457ZM6.99998 461L6.99998 463L8.99998 463L8.99998 461L6.99998 461ZM6.99998 465L6.99998 467L8.99998 467L8.99998 465L6.99998 465ZM6.99998 469L6.99998 471L8.99998 471L8.99998 469L6.99998 469ZM6.99998 473L6.99998 475L8.99998 475L8.99998 473L6.99998 473ZM6.99998 477L6.99998 479L8.99998 479L8.99998 477L6.99998 477ZM6.99998 481L6.99998 483L8.99998 483L8.99998 481L6.99998 481ZM6.99998 485L6.99998 487L8.99998 487L8.99998 485L6.99998 485ZM6.99998 489L6.99998 491L8.99998 491L8.99998 489L6.99998 489ZM6.99998 493L6.99998 495L8.99998 495L8.99998 493L6.99998 493ZM6.99998 497L6.99998 499L8.99998 499L8.99998 497L6.99998 497ZM6.99998 501L6.99998 503L8.99998 503L8.99998 501L6.99998 501ZM6.99998 505L6.99998 507L8.99998 507L8.99998 505L6.99998 505ZM6.99998 509L6.99998 511L8.99998 511L8.99998 509L6.99998 509ZM6.99998 513L6.99998 515L8.99998 515L8.99998 513L6.99998 513ZM6.99998 517L6.99998 519L8.99998 519L8.99998 517L6.99998 517ZM6.99998 521L6.99998 523L8.99998 523L8.99998 521L6.99998 521ZM6.99998 525L6.99998 527L8.99998 527L8.99998 525L6.99998 525ZM6.99998 529L6.99998 531L8.99998 531L8.99998 529L6.99998 529ZM6.99998 533L6.99998 535L8.99998 535L8.99998 533L6.99998 533ZM6.99998 537L6.99998 539L8.99998 539L8.99998 537L6.99998 537ZM6.99998 541L6.99998 543L8.99998 543L8.99998 541L6.99998 541ZM6.99998 545L6.99998 547L8.99998 547L8.99998 545L6.99998 545ZM6.99998 549L6.99998 551L8.99998 551L8.99998 549L6.99998 549ZM6.99998 553L6.99998 555L8.99998 555L8.99998 553L6.99998 553ZM6.99998 557L6.99998 559L8.99998 559L8.99998 557L6.99998 557ZM6.99998 561L6.99998 563L8.99998 563L8.99998 561L6.99998 561ZM6.99998 565L6.99998 567L8.99998 567L8.99998 565L6.99998 565ZM6.99998 569L6.99998 571L8.99998 571L8.99998 569L6.99998 569ZM6.99998 573L6.99998 575L8.99998 575L8.99998 573L6.99998 573ZM6.99998 577L6.99997 579L8.99997 579L8.99998 577L6.99998 577ZM6.99997 581L6.99997 583L8.99997 583L8.99997 581L6.99997 581ZM6.99997 585L6.99997 587L8.99997 587L8.99997 585L6.99997 585ZM6.99997 589L6.99997 591L8.99997 591L8.99997 589L6.99997 589ZM6.99997 593L6.99997 595L8.99997 595L8.99997 593L6.99997 593ZM6.99997 597L6.99997 599L8.99997 599L8.99997 597L6.99997 597ZM6.99997 601L6.99997 603L8.99997 603L8.99997 601L6.99997 601ZM6.99997 605L6.99997 607L8.99997 607L8.99997 605L6.99997 605ZM6.99997 609L6.99997 611L8.99997 611L8.99997 609L6.99997 609ZM6.99997 613L6.99997 615L8.99997 615L8.99997 613L6.99997 613ZM6.99997 617L6.99997 619L8.99997 619L8.99997 617L6.99997 617ZM6.99997 621L6.99997 623L8.99997 623L8.99997 621L6.99997 621ZM6.99997 625L6.99997 627L8.99997 627L8.99997 625L6.99997 625ZM6.99997 629L6.99997 631L8.99997 631L8.99997 629L6.99997 629ZM6.99997 633L6.99997 635L8.99997 635L8.99997 633L6.99997 633ZM6.99997 637L6.99997 639L8.99997 639L8.99997 637L6.99997 637ZM6.99997 641L6.99997 643L8.99997 643L8.99997 641L6.99997 641ZM6.99997 645L6.99997 647L8.99997 647L8.99997 645L6.99997 645ZM6.99997 649L6.99997 651L8.99997 651L8.99997 649L6.99997 649ZM6.99997 653L6.99997 655L8.99997 655L8.99997 653L6.99997 653ZM6.99997 657L6.99997 659L8.99997 659L8.99997 657L6.99997 657ZM6.99997 661L6.99997 663L8.99997 663L8.99997 661L6.99997 661ZM6.99997 665L6.99997 667L8.99997 667L8.99997 665L6.99997 665ZM6.99997 669L6.99997 671L8.99997 671L8.99997 669L6.99997 669ZM6.99997 673L6.99997 675L8.99997 675L8.99997 673L6.99997 673ZM6.99997 677L6.99997 679L8.99997 679L8.99997 677L6.99997 677ZM6.99997 681L6.99997 683L8.99997 683L8.99997 681L6.99997 681ZM6.99997 685L6.99997 687L8.99997 687L8.99997 685L6.99997 685ZM6.99997 689L6.99997 691L8.99997 691L8.99997 689L6.99997 689ZM6.99997 693L6.99997 695L8.99997 695L8.99997 693L6.99997 693ZM6.99997 697L6.99997 699L8.99997 699L8.99997 697L6.99997 697ZM6.99997 701L6.99997 703L8.99997 703L8.99997 701L6.99997 701ZM6.99997 705L6.99997 707L8.99997 707L8.99997 705L6.99997 705ZM6.99997 709L6.99997 711L8.99997 711L8.99997 709L6.99997 709ZM6.99997 713L6.99997 715L8.99997 715L8.99997 713L6.99997 713ZM6.99997 717L6.99997 719L8.99997 719L8.99997 717L6.99997 717ZM6.99997 721L6.99997 723L8.99997 723L8.99997 721L6.99997 721ZM6.99997 725L6.99997 727L8.99997 727L8.99997 725L6.99997 725ZM6.99997 729L6.99997 731L8.99997 731L8.99997 729L6.99997 729ZM6.99997 733L6.99997 735L8.99997 735L8.99997 733L6.99997 733ZM6.99997 737L6.99997 739L8.99997 739L8.99997 737L6.99997 737ZM6.99997 741L6.99997 743L8.99997 743L8.99997 741L6.99997 741ZM6.99997 745L6.99997 747L8.99997 747L8.99997 745L6.99997 745ZM6.99997 749L6.99997 751L8.99997 751L8.99997 749L6.99997 749ZM6.99997 753L6.99997 755L8.99997 755L8.99997 753L6.99997 753ZM6.99997 757L6.99997 759L8.99997 759L8.99997 757L6.99997 757ZM6.99997 761L6.99997 763L8.99997 763L8.99997 761L6.99997 761ZM6.99997 765L6.99997 767L8.99997 767L8.99997 765L6.99997 765ZM6.99997 769L6.99997 771L8.99997 771L8.99997 769L6.99997 769ZM6.99997 773L6.99997 775L8.99997 775L8.99997 773L6.99997 773ZM6.99997 777L6.99997 779L8.99997 779L8.99997 777L6.99997 777ZM6.99997 781L6.99997 783L8.99997 783L8.99997 781L6.99997 781ZM6.99997 785L6.99997 787L8.99997 787L8.99997 785L6.99997 785ZM6.99997 789L6.99997 791L8.99997 791L8.99997 789L6.99997 789ZM6.99997 793L6.99997 795L8.99997 795L8.99997 793L6.99997 793ZM6.99997 797L6.99997 799L8.99997 799L8.99997 797L6.99997 797ZM6.99997 801L6.99997 803L8.99997 803L8.99997 801L6.99997 801ZM6.99997 805L6.99996 807L8.99996 807L8.99997 805L6.99997 805ZM6.99996 809L6.99996 811L8.99996 811L8.99996 809L6.99996 809ZM6.99996 813L6.99996 815L8.99996 815L8.99996 813L6.99996 813ZM6.99996 817L6.99996 819L8.99996 819L8.99996 817L6.99996 817ZM6.99996 821L6.99996 823L8.99996 823L8.99996 821L6.99996 821ZM6.99996 825L6.99996 827L8.99996 827L8.99996 825L6.99996 825ZM6.99996 829L6.99996 831L8.99996 831L8.99996 829L6.99996 829ZM6.99996 833L6.99996 835L8.99996 835L8.99996 833L6.99996 833ZM6.99996 837L6.99996 839L8.99996 839L8.99996 837L6.99996 837ZM6.99996 841L6.99996 843L8.99996 843L8.99996 841L6.99996 841ZM6.99996 845L6.99996 847L8.99996 847L8.99996 845L6.99996 845ZM6.99996 849L6.99996 851L8.99996 851L8.99996 849L6.99996 849ZM6.99996 853L6.99996 855L8.99996 855L8.99996 853L6.99996 853ZM6.99996 857L6.99996 859L8.99996 859L8.99996 857L6.99996 857ZM6.99996 861L6.99996 863L8.99996 863L8.99996 861L6.99996 861ZM6.99996 865L6.99996 867L8.99996 867L8.99996 865L6.99996 865ZM6.99996 869L6.99996 871L8.99996 871L8.99996 869L6.99996 869ZM6.99996 873L6.99996 875L8.99996 875L8.99996 873L6.99996 873ZM6.99996 877L6.99996 879L8.99996 879L8.99996 877L6.99996 877ZM6.99996 881L6.99996 883L8.99996 883L8.99996 881L6.99996 881ZM6.99996 885L6.99996 887L8.99996 887L8.99996 885L6.99996 885ZM6.99996 889L6.99996 891L8.99996 891L8.99996 889L6.99996 889ZM6.99996 893L6.99996 895L8.99996 895L8.99996 893L6.99996 893ZM6.99996 897L6.99996 899L8.99996 899L8.99996 897L6.99996 897ZM6.99996 901L6.99996 903L8.99996 903L8.99996 901L6.99996 901ZM6.99996 905L6.99996 907L8.99996 907L8.99996 905L6.99996 905ZM6.99996 909L6.99996 911L8.99996 911L8.99996 909L6.99996 909ZM6.99996 913L6.99996 915L8.99996 915L8.99996 913L6.99996 913ZM6.99996 917L6.99996 919L8.99996 919L8.99996 917L6.99996 917ZM6.99996 921L6.99996 923L8.99996 923L8.99996 921L6.99996 921ZM6.99996 925L6.99996 927L8.99996 927L8.99996 925L6.99996 925ZM6.99996 929L6.99996 931L8.99996 931L8.99996 929L6.99996 929ZM6.99996 933L6.99996 935L8.99996 935L8.99996 933L6.99996 933ZM6.99996 937L6.99996 939L8.99996 939L8.99996 937L6.99996 937ZM6.99996 941L6.99996 943L8.99996 943L8.99996 941L6.99996 941ZM6.99996 945L6.99996 947L8.99996 947L8.99996 945L6.99996 945ZM6.99996 949L6.99996 951L8.99996 951L8.99996 949L6.99996 949ZM6.99996 953L6.99996 955L8.99996 955L8.99996 953L6.99996 953ZM6.99996 957L6.99996 959L8.99996 959L8.99996 957L6.99996 957ZM6.99996 961L6.99996 963L8.99996 963L8.99996 961L6.99996 961ZM6.99996 965L6.99996 967L8.99996 967L8.99996 965L6.99996 965ZM6.99996 969L6.99996 971L8.99996 971L8.99996 969L6.99996 969ZM6.99996 973L6.99996 975L8.99996 975L8.99996 973L6.99996 973ZM6.99996 977L6.99996 979L8.99996 979L8.99996 977L6.99996 977ZM6.99996 981L6.99996 983L8.99996 983L8.99996 981L6.99996 981ZM6.99996 985L6.99996 987L8.99996 987L8.99996 985L6.99996 985ZM6.99996 989L6.99996 991L8.99996 991L8.99996 989L6.99996 989ZM6.99996 993L6.99996 995L8.99996 995L8.99996 993L6.99996 993ZM6.99996 997L6.99996 999L8.99996 999L8.99996 997L6.99996 997ZM6.99996 1001L6.99996 1003L8.99996 1003L8.99996 1001L6.99996 1001ZM6.99996 1005L6.99996 1007L8.99996 1007L8.99996 1005L6.99996 1005ZM6.99996 1009L6.99996 1011L8.99996 1011L8.99996 1009L6.99996 1009ZM6.99996 1013L6.99996 1015L8.99996 1015L8.99996 1013L6.99996 1013ZM6.99996 1017L6.99996 1019L8.99996 1019L8.99996 1017L6.99996 1017ZM6.99996 1021L6.99996 1023L8.99996 1023L8.99996 1021L6.99996 1021ZM6.99996 1025L6.99996 1027L8.99996 1027L8.99996 1025L6.99996 1025ZM6.99996 1029L6.99996 1031L8.99996 1031L8.99996 1029L6.99996 1029ZM6.99996 1033L6.99996 1035L8.99996 1035L8.99996 1033L6.99996 1033ZM6.99995 1037L6.99995 1039L8.99995 1039L8.99995 1037L6.99995 1037ZM6.99995 1041L6.99995 1043L8.99995 1043L8.99995 1041L6.99995 1041ZM6.99995 1045L6.99995 1047L8.99995 1047L8.99995 1045L6.99995 1045ZM6.99995 1049L6.99995 1051L8.99995 1051L8.99995 1049L6.99995 1049ZM6.99995 1053L6.99995 1055L8.99995 1055L8.99995 1053L6.99995 1053ZM6.99995 1057L6.99995 1059L8.99995 1059L8.99995 1057L6.99995 1057ZM6.99995 1061L6.99995 1063L8.99995 1063L8.99995 1061L6.99995 1061ZM6.99995 1065L6.99995 1067L8.99995 1067L8.99995 1065L6.99995 1065ZM6.99995 1069L6.99995 1071L8.99995 1071L8.99995 1069L6.99995 1069ZM6.99995 1073L6.99995 1075L8.99995 1075L8.99995 1073L6.99995 1073ZM6.99995 1077L6.99995 1079L8.99995 1079L8.99995 1077L6.99995 1077ZM6.99995 1081L6.99995 1083L8.99995 1083L8.99995 1081L6.99995 1081ZM6.99995 1085L6.99995 1087L8.99995 1087L8.99995 1085L6.99995 1085ZM6.99995 1089L6.99995 1091L8.99995 1091L8.99995 1089L6.99995 1089ZM6.99995 1093L6.99995 1095L8.99995 1095L8.99995 1093L6.99995 1093ZM6.99995 1097L6.99995 1099L8.99995 1099L8.99995 1097L6.99995 1097ZM6.99995 1101L6.99995 1103L8.99995 1103L8.99995 1101L6.99995 1101ZM6.99995 1105L6.99995 1106L8.99995 1106L8.99995 1105L6.99995 1105Z" fill="#1B5AB8"></path></svg>