<svg xmlns="http://www.w3.org/2000/svg" width="16" height="708" viewBox="0 0 16 708" fill="none"><circle cx="8.5" cy="7.5" r="7.5" fill="#1B5AB8"></circle><path d="M7.64641 706.426C7.84167 706.621 8.15826 706.621 8.35352 706.426L11.5355 703.244C11.7308 703.049 11.7308 702.732 11.5355 702.537C11.3402 702.341 11.0237 702.341 10.8284 702.537L7.99996 705.365L5.17154 702.537C4.97628 702.341 4.65969 702.341 4.46443 702.537C4.26917 702.732 4.26917 703.049 4.46443 703.244L7.64641 706.426ZM7.5 6.07227L7.5 7.07227L8.5 7.07227L8.5 6.07227L7.5 6.07227ZM7.5 9.07227L7.5 11.0723L8.5 11.0723L8.5 9.07227L7.5 9.07227ZM7.5 13.0723L7.5 15.0723L8.5 15.0723L8.5 13.0723L7.5 13.0723ZM7.5 17.0723L7.5 19.0723L8.5 19.0723L8.5 17.0723L7.5 17.0723ZM7.5 21.0723L7.5 23.0723L8.5 23.0723L8.5 21.0723L7.5 21.0723ZM7.5 25.0723L7.5 27.0723L8.5 27.0723L8.5 25.0723L7.5 25.0723ZM7.5 29.0723L7.5 31.0723L8.5 31.0723L8.5 29.0723L7.5 29.0723ZM7.5 33.0723L7.5 35.0723L8.5 35.0723L8.5 33.0723L7.5 33.0723ZM7.5 37.0723L7.5 39.0723L8.5 39.0723L8.5 37.0723L7.5 37.0723ZM7.5 41.0723L7.5 43.0723L8.5 43.0723L8.5 41.0723L7.5 41.0723ZM7.5 45.0723L7.5 47.0723L8.5 47.0723L8.5 45.0723L7.5 45.0723ZM7.5 49.0723L7.5 51.0723L8.5 51.0723L8.5 49.0723L7.5 49.0723ZM7.5 53.0723L7.5 55.0723L8.5 55.0723L8.5 53.0723L7.5 53.0723ZM7.5 57.0723L7.5 59.0723L8.5 59.0723L8.5 57.0723L7.5 57.0723ZM7.5 61.0723L7.5 63.0723L8.5 63.0723L8.5 61.0723L7.5 61.0723ZM7.5 65.0723L7.5 67.0723L8.5 67.0723L8.5 65.0723L7.5 65.0723ZM7.5 69.0723L7.5 71.0723L8.5 71.0723L8.5 69.0723L7.5 69.0723ZM7.5 73.0723L7.5 75.0723L8.5 75.0723L8.5 73.0723L7.5 73.0723ZM7.5 77.0723L7.5 79.0723L8.5 79.0723L8.5 77.0723L7.5 77.0723ZM7.5 81.0723L7.5 83.0723L8.5 83.0723L8.5 81.0723L7.5 81.0723ZM7.5 85.0723L7.5 87.0723L8.5 87.0723L8.5 85.0723L7.5 85.0723ZM7.5 89.0723L7.5 91.0723L8.5 91.0723L8.5 89.0723L7.5 89.0723ZM7.5 93.0723L7.5 95.0723L8.5 95.0723L8.5 93.0723L7.5 93.0723ZM7.5 97.0723L7.5 99.0723L8.5 99.0723L8.5 97.0723L7.5 97.0723ZM7.5 101.072L7.5 103.072L8.5 103.072L8.5 101.072L7.5 101.072ZM7.5 105.072L7.49999 107.072L8.49999 107.072L8.5 105.072L7.5 105.072ZM7.49999 109.072L7.49999 111.072L8.49999 111.072L8.49999 109.072L7.49999 109.072ZM7.49999 113.072L7.49999 115.072L8.49999 115.072L8.49999 113.072L7.49999 113.072ZM7.49999 117.072L7.49999 119.072L8.49999 119.072L8.49999 117.072L7.49999 117.072ZM7.49999 121.072L7.49999 123.072L8.49999 123.072L8.49999 121.072L7.49999 121.072ZM7.49999 125.072L7.49999 127.072L8.49999 127.072L8.49999 125.072L7.49999 125.072ZM7.49999 129.072L7.49999 131.072L8.49999 131.072L8.49999 129.072L7.49999 129.072ZM7.49999 133.072L7.49999 135.072L8.49999 135.072L8.49999 133.072L7.49999 133.072ZM7.49999 137.072L7.49999 139.072L8.49999 139.072L8.49999 137.072L7.49999 137.072ZM7.49999 141.072L7.49999 143.072L8.49999 143.072L8.49999 141.072L7.49999 141.072ZM7.49999 145.072L7.49999 147.072L8.49999 147.072L8.49999 145.072L7.49999 145.072ZM7.49999 149.072L7.49999 151.072L8.49999 151.072L8.49999 149.072L7.49999 149.072ZM7.49999 153.072L7.49999 155.072L8.49999 155.072L8.49999 153.072L7.49999 153.072ZM7.49999 157.072L7.49999 159.072L8.49999 159.072L8.49999 157.072L7.49999 157.072ZM7.49999 161.072L7.49999 163.072L8.49999 163.072L8.49999 161.072L7.49999 161.072ZM7.49999 165.072L7.49999 167.072L8.49999 167.072L8.49999 165.072L7.49999 165.072ZM7.49999 169.072L7.49999 171.072L8.49999 171.072L8.49999 169.072L7.49999 169.072ZM7.49999 173.072L7.49999 175.072L8.49999 175.072L8.49999 173.072L7.49999 173.072ZM7.49999 177.072L7.49999 179.072L8.49999 179.072L8.49999 177.072L7.49999 177.072ZM7.49999 181.072L7.49999 183.072L8.49999 183.072L8.49999 181.072L7.49999 181.072ZM7.49999 185.072L7.49999 187.072L8.49999 187.072L8.49999 185.072L7.49999 185.072ZM7.49999 189.072L7.49999 191.072L8.49999 191.072L8.49999 189.072L7.49999 189.072ZM7.49999 193.072L7.49999 195.072L8.49999 195.072L8.49999 193.072L7.49999 193.072ZM7.49999 197.072L7.49999 199.072L8.49999 199.072L8.49999 197.072L7.49999 197.072ZM7.49999 201.072L7.49999 203.072L8.49999 203.072L8.49999 201.072L7.49999 201.072ZM7.49999 205.072L7.49999 207.072L8.49999 207.072L8.49999 205.072L7.49999 205.072ZM7.49999 209.072L7.49999 211.072L8.49999 211.072L8.49999 209.072L7.49999 209.072ZM7.49999 213.072L7.49999 215.072L8.49999 215.072L8.49999 213.072L7.49999 213.072ZM7.49999 217.072L7.49999 219.072L8.49999 219.072L8.49999 217.072L7.49999 217.072ZM7.49999 221.072L7.49999 223.072L8.49999 223.072L8.49999 221.072L7.49999 221.072ZM7.49999 225.072L7.49999 227.072L8.49999 227.072L8.49999 225.072L7.49999 225.072ZM7.49999 229.072L7.49999 231.072L8.49999 231.072L8.49999 229.072L7.49999 229.072ZM7.49999 233.072L7.49999 235.072L8.49999 235.072L8.49999 233.072L7.49999 233.072ZM7.49999 237.072L7.49999 239.072L8.49999 239.072L8.49999 237.072L7.49999 237.072ZM7.49999 241.072L7.49999 243.072L8.49999 243.072L8.49999 241.072L7.49999 241.072ZM7.49999 245.072L7.49999 247.072L8.49999 247.072L8.49999 245.072L7.49999 245.072ZM7.49999 249.072L7.49999 251.072L8.49999 251.072L8.49999 249.072L7.49999 249.072ZM7.49999 253.072L7.49999 255.072L8.49999 255.072L8.49999 253.072L7.49999 253.072ZM7.49999 257.072L7.49999 259.072L8.49999 259.072L8.49999 257.072L7.49999 257.072ZM7.49999 261.072L7.49999 263.072L8.49999 263.072L8.49999 261.072L7.49999 261.072ZM7.49999 265.072L7.49999 267.072L8.49999 267.072L8.49999 265.072L7.49999 265.072ZM7.49999 269.072L7.49999 271.072L8.49999 271.072L8.49999 269.072L7.49999 269.072ZM7.49999 273.072L7.49999 275.072L8.49999 275.072L8.49999 273.072L7.49999 273.072ZM7.49999 277.072L7.49999 279.072L8.49999 279.072L8.49999 277.072L7.49999 277.072ZM7.49999 281.072L7.49999 283.072L8.49999 283.072L8.49999 281.072L7.49999 281.072ZM7.49999 285.072L7.49999 287.072L8.49999 287.072L8.49999 285.072L7.49999 285.072ZM7.49999 289.072L7.49999 291.072L8.49999 291.072L8.49999 289.072L7.49999 289.072ZM7.49999 293.072L7.49999 295.072L8.49999 295.072L8.49999 293.072L7.49999 293.072ZM7.49999 297.072L7.49999 299.072L8.49999 299.072L8.49999 297.072L7.49999 297.072ZM7.49999 301.072L7.49999 303.072L8.49999 303.072L8.49999 301.072L7.49999 301.072ZM7.49998 305.072L7.49998 307.072L8.49998 307.072L8.49998 305.072L7.49998 305.072ZM7.49998 309.072L7.49998 311.072L8.49998 311.072L8.49998 309.072L7.49998 309.072ZM7.49998 313.072L7.49998 315.072L8.49998 315.072L8.49998 313.072L7.49998 313.072ZM7.49998 317.072L7.49998 319.072L8.49998 319.072L8.49998 317.072L7.49998 317.072ZM7.49998 321.072L7.49998 323.072L8.49998 323.072L8.49998 321.072L7.49998 321.072ZM7.49998 325.072L7.49998 327.072L8.49998 327.072L8.49998 325.072L7.49998 325.072ZM7.49998 329.072L7.49998 331.072L8.49998 331.072L8.49998 329.072L7.49998 329.072ZM7.49998 333.072L7.49998 335.072L8.49998 335.072L8.49998 333.072L7.49998 333.072ZM7.49998 337.072L7.49998 339.072L8.49998 339.072L8.49998 337.072L7.49998 337.072ZM7.49998 341.072L7.49998 343.072L8.49998 343.072L8.49998 341.072L7.49998 341.072ZM7.49998 345.072L7.49998 347.072L8.49998 347.072L8.49998 345.072L7.49998 345.072ZM7.49998 349.072L7.49998 351.072L8.49998 351.072L8.49998 349.072L7.49998 349.072ZM7.49998 353.072L7.49998 355.072L8.49998 355.072L8.49998 353.072L7.49998 353.072ZM7.49998 357.072L7.49998 359.072L8.49998 359.072L8.49998 357.072L7.49998 357.072ZM7.49998 361.072L7.49998 363.072L8.49998 363.072L8.49998 361.072L7.49998 361.072ZM7.49998 365.072L7.49998 367.072L8.49998 367.072L8.49998 365.072L7.49998 365.072ZM7.49998 369.072L7.49998 371.072L8.49998 371.072L8.49998 369.072L7.49998 369.072ZM7.49998 373.072L7.49998 375.072L8.49998 375.072L8.49998 373.072L7.49998 373.072ZM7.49998 377.072L7.49998 379.072L8.49998 379.072L8.49998 377.072L7.49998 377.072ZM7.49998 381.072L7.49998 383.072L8.49998 383.072L8.49998 381.072L7.49998 381.072ZM7.49998 385.072L7.49998 387.072L8.49998 387.072L8.49998 385.072L7.49998 385.072ZM7.49998 389.072L7.49998 391.072L8.49998 391.072L8.49998 389.072L7.49998 389.072ZM7.49998 393.072L7.49998 395.072L8.49998 395.072L8.49998 393.072L7.49998 393.072ZM7.49998 397.072L7.49998 399.072L8.49998 399.072L8.49998 397.072L7.49998 397.072ZM7.49998 401.072L7.49998 403.072L8.49998 403.072L8.49998 401.072L7.49998 401.072ZM7.49998 405.072L7.49998 407.072L8.49998 407.072L8.49998 405.072L7.49998 405.072ZM7.49998 409.072L7.49998 411.072L8.49998 411.072L8.49998 409.072L7.49998 409.072ZM7.49998 413.072L7.49998 415.072L8.49998 415.072L8.49998 413.072L7.49998 413.072ZM7.49998 417.072L7.49998 419.072L8.49998 419.072L8.49998 417.072L7.49998 417.072ZM7.49998 421.072L7.49998 423.072L8.49998 423.072L8.49998 421.072L7.49998 421.072ZM7.49998 425.072L7.49998 427.072L8.49998 427.072L8.49998 425.072L7.49998 425.072ZM7.49998 429.072L7.49998 431.072L8.49998 431.072L8.49998 429.072L7.49998 429.072ZM7.49998 433.072L7.49998 435.072L8.49998 435.072L8.49998 433.072L7.49998 433.072ZM7.49998 437.072L7.49998 439.072L8.49998 439.072L8.49998 437.072L7.49998 437.072ZM7.49998 441.072L7.49998 443.072L8.49998 443.072L8.49998 441.072L7.49998 441.072ZM7.49998 445.072L7.49998 447.072L8.49998 447.072L8.49998 445.072L7.49998 445.072ZM7.49998 449.072L7.49998 451.072L8.49998 451.072L8.49998 449.072L7.49998 449.072ZM7.49998 453.072L7.49998 455.072L8.49998 455.072L8.49998 453.072L7.49998 453.072ZM7.49998 457.072L7.49998 459.072L8.49998 459.072L8.49998 457.072L7.49998 457.072ZM7.49998 461.072L7.49998 463.072L8.49998 463.072L8.49998 461.072L7.49998 461.072ZM7.49998 465.072L7.49998 467.072L8.49998 467.072L8.49998 465.072L7.49998 465.072ZM7.49998 469.072L7.49998 471.072L8.49998 471.072L8.49998 469.072L7.49998 469.072ZM7.49998 473.072L7.49998 475.072L8.49998 475.072L8.49998 473.072L7.49998 473.072ZM7.49998 477.072L7.49998 479.072L8.49998 479.072L8.49998 477.072L7.49998 477.072ZM7.49998 481.072L7.49998 483.072L8.49998 483.072L8.49998 481.072L7.49998 481.072ZM7.49998 485.072L7.49998 487.072L8.49998 487.072L8.49998 485.072L7.49998 485.072ZM7.49998 489.072L7.49998 491.072L8.49998 491.072L8.49998 489.072L7.49998 489.072ZM7.49998 493.072L7.49998 495.072L8.49998 495.072L8.49998 493.072L7.49998 493.072ZM7.49998 497.072L7.49998 499.072L8.49998 499.072L8.49998 497.072L7.49998 497.072ZM7.49998 501.072L7.49997 503.072L8.49997 503.072L8.49998 501.072L7.49998 501.072ZM7.49997 505.072L7.49997 507.072L8.49997 507.072L8.49997 505.072L7.49997 505.072ZM7.49997 509.072L7.49997 511.072L8.49997 511.072L8.49997 509.072L7.49997 509.072ZM7.49997 513.072L7.49997 515.072L8.49997 515.072L8.49997 513.072L7.49997 513.072ZM7.49997 517.072L7.49997 519.072L8.49997 519.072L8.49997 517.072L7.49997 517.072ZM7.49997 521.072L7.49997 523.072L8.49997 523.072L8.49997 521.072L7.49997 521.072ZM7.49997 525.072L7.49997 527.072L8.49997 527.072L8.49997 525.072L7.49997 525.072ZM7.49997 529.072L7.49997 531.072L8.49997 531.072L8.49997 529.072L7.49997 529.072ZM7.49997 533.072L7.49997 535.072L8.49997 535.072L8.49997 533.072L7.49997 533.072ZM7.49997 537.072L7.49997 539.072L8.49997 539.072L8.49997 537.072L7.49997 537.072ZM7.49997 541.072L7.49997 543.072L8.49997 543.072L8.49997 541.072L7.49997 541.072ZM7.49997 545.072L7.49997 547.072L8.49997 547.072L8.49997 545.072L7.49997 545.072ZM7.49997 549.072L7.49997 551.072L8.49997 551.072L8.49997 549.072L7.49997 549.072ZM7.49997 553.072L7.49997 555.072L8.49997 555.072L8.49997 553.072L7.49997 553.072ZM7.49997 557.072L7.49997 559.072L8.49997 559.072L8.49997 557.072L7.49997 557.072ZM7.49997 561.072L7.49997 563.072L8.49997 563.072L8.49997 561.072L7.49997 561.072ZM7.49997 565.072L7.49997 567.072L8.49997 567.072L8.49997 565.072L7.49997 565.072ZM7.49997 569.072L7.49997 571.072L8.49997 571.072L8.49997 569.072L7.49997 569.072ZM7.49997 573.072L7.49997 575.072L8.49997 575.072L8.49997 573.072L7.49997 573.072ZM7.49997 577.072L7.49997 579.072L8.49997 579.072L8.49997 577.072L7.49997 577.072ZM7.49997 581.072L7.49997 583.072L8.49997 583.072L8.49997 581.072L7.49997 581.072ZM7.49997 585.072L7.49997 587.072L8.49997 587.072L8.49997 585.072L7.49997 585.072ZM7.49997 589.072L7.49997 591.072L8.49997 591.072L8.49997 589.072L7.49997 589.072ZM7.49997 593.072L7.49997 595.072L8.49997 595.072L8.49997 593.072L7.49997 593.072ZM7.49997 597.072L7.49997 599.072L8.49997 599.072L8.49997 597.072L7.49997 597.072ZM7.49997 601.072L7.49997 603.072L8.49997 603.072L8.49997 601.072L7.49997 601.072ZM7.49997 605.072L7.49997 607.072L8.49997 607.072L8.49997 605.072L7.49997 605.072ZM7.49997 609.072L7.49997 611.072L8.49997 611.072L8.49997 609.072L7.49997 609.072ZM7.49997 613.072L7.49997 615.072L8.49997 615.072L8.49997 613.072L7.49997 613.072ZM7.49997 617.072L7.49997 619.072L8.49997 619.072L8.49997 617.072L7.49997 617.072ZM7.49997 621.072L7.49997 623.072L8.49997 623.072L8.49997 621.072L7.49997 621.072ZM7.49997 625.072L7.49997 627.072L8.49997 627.072L8.49997 625.072L7.49997 625.072ZM7.49997 629.072L7.49997 631.072L8.49997 631.072L8.49997 629.072L7.49997 629.072ZM7.49997 633.072L7.49997 635.072L8.49997 635.072L8.49997 633.072L7.49997 633.072ZM7.49997 637.072L7.49997 639.072L8.49997 639.072L8.49997 637.072L7.49997 637.072ZM7.49997 641.072L7.49997 643.072L8.49997 643.072L8.49997 641.072L7.49997 641.072ZM7.49997 645.072L7.49997 647.072L8.49997 647.072L8.49997 645.072L7.49997 645.072ZM7.49997 649.072L7.49997 651.072L8.49997 651.072L8.49997 649.072L7.49997 649.072ZM7.49997 653.072L7.49997 655.072L8.49997 655.072L8.49997 653.072L7.49997 653.072ZM7.49997 657.072L7.49997 659.072L8.49997 659.072L8.49997 657.072L7.49997 657.072ZM7.49997 661.072L7.49997 663.072L8.49997 663.072L8.49997 661.072L7.49997 661.072ZM7.49997 665.072L7.49997 667.072L8.49997 667.072L8.49997 665.072L7.49997 665.072ZM7.49997 669.072L7.49997 671.072L8.49997 671.072L8.49997 669.072L7.49997 669.072ZM7.49997 673.072L7.49997 675.072L8.49997 675.072L8.49997 673.072L7.49997 673.072ZM7.49997 677.072L7.49997 679.072L8.49997 679.072L8.49997 677.072L7.49997 677.072ZM7.49997 681.072L7.49997 683.072L8.49997 683.072L8.49997 681.072L7.49997 681.072ZM7.49997 685.072L7.49997 687.072L8.49997 687.072L8.49997 685.072L7.49997 685.072ZM7.49997 689.072L7.49997 691.072L8.49997 691.072L8.49997 689.072L7.49997 689.072ZM7.49997 693.072L7.49997 695.072L8.49997 695.072L8.49997 693.072L7.49997 693.072ZM7.49997 697.072L7.49997 699.072L8.49997 699.072L8.49997 697.072L7.49997 697.072ZM7.49996 701.072L7.49996 703.072L8.49996 703.072L8.49996 701.072L7.49996 701.072ZM7.49996 705.072L7.49996 706.072L8.49996 706.072L8.49996 705.072L7.49996 705.072ZM7.29286 706.779C7.68338 707.17 8.31655 707.17 8.70707 706.779L15.071 700.415C15.4616 700.025 15.4616 699.392 15.071 699.001C14.6805 698.611 14.0473 698.611 13.6568 699.001L7.99996 704.658L2.34311 699.001C1.95259 698.611 1.31942 698.611 0.928897 699.001C0.538373 699.392 0.538373 700.025 0.928897 700.415L7.29286 706.779ZM7 6.07227L7 7.07227L9 7.07227L9 6.07227L7 6.07227ZM7 9.07227L7 11.0723L9 11.0723L9 9.07227L7 9.07227ZM7 13.0723L7 15.0723L9 15.0723L9 13.0723L7 13.0723ZM7 17.0723L7 19.0723L9 19.0723L9 17.0723L7 17.0723ZM7 21.0723L7 23.0723L9 23.0723L9 21.0723L7 21.0723ZM7 25.0723L7 27.0723L9 27.0723L9 25.0723L7 25.0723ZM7 29.0723L7 31.0723L9 31.0723L9 29.0723L7 29.0723ZM7 33.0723L7 35.0723L9 35.0723L9 33.0723L7 33.0723ZM7 37.0723L7 39.0723L9 39.0723L9 37.0723L7 37.0723ZM7 41.0723L7 43.0723L9 43.0723L9 41.0723L7 41.0723ZM7 45.0723L7 47.0723L9 47.0723L9 45.0723L7 45.0723ZM7 49.0723L7 51.0723L9 51.0723L9 49.0723L7 49.0723ZM7 53.0723L7 55.0723L9 55.0723L9 53.0723L7 53.0723ZM7 57.0723L7 59.0723L9 59.0723L9 57.0723L7 57.0723ZM7 61.0723L7 63.0723L9 63.0723L9 61.0723L7 61.0723ZM7 65.0723L7 67.0723L9 67.0723L9 65.0723L7 65.0723ZM7 69.0723L7 71.0723L9 71.0723L9 69.0723L7 69.0723ZM7 73.0723L7 75.0723L9 75.0723L9 73.0723L7 73.0723ZM7 77.0723L7 79.0723L9 79.0723L9 77.0723L7 77.0723ZM7 81.0723L7 83.0723L9 83.0723L9 81.0723L7 81.0723ZM7 85.0723L7 87.0723L9 87.0723L9 85.0723L7 85.0723ZM7 89.0723L7 91.0723L9 91.0723L9 89.0723L7 89.0723ZM7 93.0723L7 95.0723L9 95.0723L9 93.0723L7 93.0723ZM7 97.0723L7 99.0723L9 99.0723L9 97.0723L7 97.0723ZM7 101.072L7 103.072L9 103.072L9 101.072L7 101.072ZM7 105.072L6.99999 107.072L8.99999 107.072L9 105.072L7 105.072ZM6.99999 109.072L6.99999 111.072L8.99999 111.072L8.99999 109.072L6.99999 109.072ZM6.99999 113.072L6.99999 115.072L8.99999 115.072L8.99999 113.072L6.99999 113.072ZM6.99999 117.072L6.99999 119.072L8.99999 119.072L8.99999 117.072L6.99999 117.072ZM6.99999 121.072L6.99999 123.072L8.99999 123.072L8.99999 121.072L6.99999 121.072ZM6.99999 125.072L6.99999 127.072L8.99999 127.072L8.99999 125.072L6.99999 125.072ZM6.99999 129.072L6.99999 131.072L8.99999 131.072L8.99999 129.072L6.99999 129.072ZM6.99999 133.072L6.99999 135.072L8.99999 135.072L8.99999 133.072L6.99999 133.072ZM6.99999 137.072L6.99999 139.072L8.99999 139.072L8.99999 137.072L6.99999 137.072ZM6.99999 141.072L6.99999 143.072L8.99999 143.072L8.99999 141.072L6.99999 141.072ZM6.99999 145.072L6.99999 147.072L8.99999 147.072L8.99999 145.072L6.99999 145.072ZM6.99999 149.072L6.99999 151.072L8.99999 151.072L8.99999 149.072L6.99999 149.072ZM6.99999 153.072L6.99999 155.072L8.99999 155.072L8.99999 153.072L6.99999 153.072ZM6.99999 157.072L6.99999 159.072L8.99999 159.072L8.99999 157.072L6.99999 157.072ZM6.99999 161.072L6.99999 163.072L8.99999 163.072L8.99999 161.072L6.99999 161.072ZM6.99999 165.072L6.99999 167.072L8.99999 167.072L8.99999 165.072L6.99999 165.072ZM6.99999 169.072L6.99999 171.072L8.99999 171.072L8.99999 169.072L6.99999 169.072ZM6.99999 173.072L6.99999 175.072L8.99999 175.072L8.99999 173.072L6.99999 173.072ZM6.99999 177.072L6.99999 179.072L8.99999 179.072L8.99999 177.072L6.99999 177.072ZM6.99999 181.072L6.99999 183.072L8.99999 183.072L8.99999 181.072L6.99999 181.072ZM6.99999 185.072L6.99999 187.072L8.99999 187.072L8.99999 185.072L6.99999 185.072ZM6.99999 189.072L6.99999 191.072L8.99999 191.072L8.99999 189.072L6.99999 189.072ZM6.99999 193.072L6.99999 195.072L8.99999 195.072L8.99999 193.072L6.99999 193.072ZM6.99999 197.072L6.99999 199.072L8.99999 199.072L8.99999 197.072L6.99999 197.072ZM6.99999 201.072L6.99999 203.072L8.99999 203.072L8.99999 201.072L6.99999 201.072ZM6.99999 205.072L6.99999 207.072L8.99999 207.072L8.99999 205.072L6.99999 205.072ZM6.99999 209.072L6.99999 211.072L8.99999 211.072L8.99999 209.072L6.99999 209.072ZM6.99999 213.072L6.99999 215.072L8.99999 215.072L8.99999 213.072L6.99999 213.072ZM6.99999 217.072L6.99999 219.072L8.99999 219.072L8.99999 217.072L6.99999 217.072ZM6.99999 221.072L6.99999 223.072L8.99999 223.072L8.99999 221.072L6.99999 221.072ZM6.99999 225.072L6.99999 227.072L8.99999 227.072L8.99999 225.072L6.99999 225.072ZM6.99999 229.072L6.99999 231.072L8.99999 231.072L8.99999 229.072L6.99999 229.072ZM6.99999 233.072L6.99999 235.072L8.99999 235.072L8.99999 233.072L6.99999 233.072ZM6.99999 237.072L6.99999 239.072L8.99999 239.072L8.99999 237.072L6.99999 237.072ZM6.99999 241.072L6.99999 243.072L8.99999 243.072L8.99999 241.072L6.99999 241.072ZM6.99999 245.072L6.99999 247.072L8.99999 247.072L8.99999 245.072L6.99999 245.072ZM6.99999 249.072L6.99999 251.072L8.99999 251.072L8.99999 249.072L6.99999 249.072ZM6.99999 253.072L6.99999 255.072L8.99999 255.072L8.99999 253.072L6.99999 253.072ZM6.99999 257.072L6.99999 259.072L8.99999 259.072L8.99999 257.072L6.99999 257.072ZM6.99999 261.072L6.99999 263.072L8.99999 263.072L8.99999 261.072L6.99999 261.072ZM6.99999 265.072L6.99999 267.072L8.99999 267.072L8.99999 265.072L6.99999 265.072ZM6.99999 269.072L6.99999 271.072L8.99999 271.072L8.99999 269.072L6.99999 269.072ZM6.99999 273.072L6.99999 275.072L8.99999 275.072L8.99999 273.072L6.99999 273.072ZM6.99999 277.072L6.99999 279.072L8.99999 279.072L8.99999 277.072L6.99999 277.072ZM6.99999 281.072L6.99999 283.072L8.99999 283.072L8.99999 281.072L6.99999 281.072ZM6.99999 285.072L6.99999 287.072L8.99999 287.072L8.99999 285.072L6.99999 285.072ZM6.99999 289.072L6.99999 291.072L8.99999 291.072L8.99999 289.072L6.99999 289.072ZM6.99999 293.072L6.99999 295.072L8.99999 295.072L8.99999 293.072L6.99999 293.072ZM6.99999 297.072L6.99999 299.072L8.99999 299.072L8.99999 297.072L6.99999 297.072ZM6.99999 301.072L6.99999 303.072L8.99999 303.072L8.99999 301.072L6.99999 301.072ZM6.99998 305.072L6.99998 307.072L8.99998 307.072L8.99998 305.072L6.99998 305.072ZM6.99998 309.072L6.99998 311.072L8.99998 311.072L8.99998 309.072L6.99998 309.072ZM6.99998 313.072L6.99998 315.072L8.99998 315.072L8.99998 313.072L6.99998 313.072ZM6.99998 317.072L6.99998 319.072L8.99998 319.072L8.99998 317.072L6.99998 317.072ZM6.99998 321.072L6.99998 323.072L8.99998 323.072L8.99998 321.072L6.99998 321.072ZM6.99998 325.072L6.99998 327.072L8.99998 327.072L8.99998 325.072L6.99998 325.072ZM6.99998 329.072L6.99998 331.072L8.99998 331.072L8.99998 329.072L6.99998 329.072ZM6.99998 333.072L6.99998 335.072L8.99998 335.072L8.99998 333.072L6.99998 333.072ZM6.99998 337.072L6.99998 339.072L8.99998 339.072L8.99998 337.072L6.99998 337.072ZM6.99998 341.072L6.99998 343.072L8.99998 343.072L8.99998 341.072L6.99998 341.072ZM6.99998 345.072L6.99998 347.072L8.99998 347.072L8.99998 345.072L6.99998 345.072ZM6.99998 349.072L6.99998 351.072L8.99998 351.072L8.99998 349.072L6.99998 349.072ZM6.99998 353.072L6.99998 355.072L8.99998 355.072L8.99998 353.072L6.99998 353.072ZM6.99998 357.072L6.99998 359.072L8.99998 359.072L8.99998 357.072L6.99998 357.072ZM6.99998 361.072L6.99998 363.072L8.99998 363.072L8.99998 361.072L6.99998 361.072ZM6.99998 365.072L6.99998 367.072L8.99998 367.072L8.99998 365.072L6.99998 365.072ZM6.99998 369.072L6.99998 371.072L8.99998 371.072L8.99998 369.072L6.99998 369.072ZM6.99998 373.072L6.99998 375.072L8.99998 375.072L8.99998 373.072L6.99998 373.072ZM6.99998 377.072L6.99998 379.072L8.99998 379.072L8.99998 377.072L6.99998 377.072ZM6.99998 381.072L6.99998 383.072L8.99998 383.072L8.99998 381.072L6.99998 381.072ZM6.99998 385.072L6.99998 387.072L8.99998 387.072L8.99998 385.072L6.99998 385.072ZM6.99998 389.072L6.99998 391.072L8.99998 391.072L8.99998 389.072L6.99998 389.072ZM6.99998 393.072L6.99998 395.072L8.99998 395.072L8.99998 393.072L6.99998 393.072ZM6.99998 397.072L6.99998 399.072L8.99998 399.072L8.99998 397.072L6.99998 397.072ZM6.99998 401.072L6.99998 403.072L8.99998 403.072L8.99998 401.072L6.99998 401.072ZM6.99998 405.072L6.99998 407.072L8.99998 407.072L8.99998 405.072L6.99998 405.072ZM6.99998 409.072L6.99998 411.072L8.99998 411.072L8.99998 409.072L6.99998 409.072ZM6.99998 413.072L6.99998 415.072L8.99998 415.072L8.99998 413.072L6.99998 413.072ZM6.99998 417.072L6.99998 419.072L8.99998 419.072L8.99998 417.072L6.99998 417.072ZM6.99998 421.072L6.99998 423.072L8.99998 423.072L8.99998 421.072L6.99998 421.072ZM6.99998 425.072L6.99998 427.072L8.99998 427.072L8.99998 425.072L6.99998 425.072ZM6.99998 429.072L6.99998 431.072L8.99998 431.072L8.99998 429.072L6.99998 429.072ZM6.99998 433.072L6.99998 435.072L8.99998 435.072L8.99998 433.072L6.99998 433.072ZM6.99998 437.072L6.99998 439.072L8.99998 439.072L8.99998 437.072L6.99998 437.072ZM6.99998 441.072L6.99998 443.072L8.99998 443.072L8.99998 441.072L6.99998 441.072ZM6.99998 445.072L6.99998 447.072L8.99998 447.072L8.99998 445.072L6.99998 445.072ZM6.99998 449.072L6.99998 451.072L8.99998 451.072L8.99998 449.072L6.99998 449.072ZM6.99998 453.072L6.99998 455.072L8.99998 455.072L8.99998 453.072L6.99998 453.072ZM6.99998 457.072L6.99998 459.072L8.99998 459.072L8.99998 457.072L6.99998 457.072ZM6.99998 461.072L6.99998 463.072L8.99998 463.072L8.99998 461.072L6.99998 461.072ZM6.99998 465.072L6.99998 467.072L8.99998 467.072L8.99998 465.072L6.99998 465.072ZM6.99998 469.072L6.99998 471.072L8.99998 471.072L8.99998 469.072L6.99998 469.072ZM6.99998 473.072L6.99998 475.072L8.99998 475.072L8.99998 473.072L6.99998 473.072ZM6.99998 477.072L6.99998 479.072L8.99998 479.072L8.99998 477.072L6.99998 477.072ZM6.99998 481.072L6.99998 483.072L8.99998 483.072L8.99998 481.072L6.99998 481.072ZM6.99998 485.072L6.99998 487.072L8.99998 487.072L8.99998 485.072L6.99998 485.072ZM6.99998 489.072L6.99998 491.072L8.99998 491.072L8.99998 489.072L6.99998 489.072ZM6.99998 493.072L6.99998 495.072L8.99998 495.072L8.99998 493.072L6.99998 493.072ZM6.99998 497.072L6.99998 499.072L8.99998 499.072L8.99998 497.072L6.99998 497.072ZM6.99998 501.072L6.99997 503.072L8.99997 503.072L8.99998 501.072L6.99998 501.072ZM6.99997 505.072L6.99997 507.072L8.99997 507.072L8.99997 505.072L6.99997 505.072ZM6.99997 509.072L6.99997 511.072L8.99997 511.072L8.99997 509.072L6.99997 509.072ZM6.99997 513.072L6.99997 515.072L8.99997 515.072L8.99997 513.072L6.99997 513.072ZM6.99997 517.072L6.99997 519.072L8.99997 519.072L8.99997 517.072L6.99997 517.072ZM6.99997 521.072L6.99997 523.072L8.99997 523.072L8.99997 521.072L6.99997 521.072ZM6.99997 525.072L6.99997 527.072L8.99997 527.072L8.99997 525.072L6.99997 525.072ZM6.99997 529.072L6.99997 531.072L8.99997 531.072L8.99997 529.072L6.99997 529.072ZM6.99997 533.072L6.99997 535.072L8.99997 535.072L8.99997 533.072L6.99997 533.072ZM6.99997 537.072L6.99997 539.072L8.99997 539.072L8.99997 537.072L6.99997 537.072ZM6.99997 541.072L6.99997 543.072L8.99997 543.072L8.99997 541.072L6.99997 541.072ZM6.99997 545.072L6.99997 547.072L8.99997 547.072L8.99997 545.072L6.99997 545.072ZM6.99997 549.072L6.99997 551.072L8.99997 551.072L8.99997 549.072L6.99997 549.072ZM6.99997 553.072L6.99997 555.072L8.99997 555.072L8.99997 553.072L6.99997 553.072ZM6.99997 557.072L6.99997 559.072L8.99997 559.072L8.99997 557.072L6.99997 557.072ZM6.99997 561.072L6.99997 563.072L8.99997 563.072L8.99997 561.072L6.99997 561.072ZM6.99997 565.072L6.99997 567.072L8.99997 567.072L8.99997 565.072L6.99997 565.072ZM6.99997 569.072L6.99997 571.072L8.99997 571.072L8.99997 569.072L6.99997 569.072ZM6.99997 573.072L6.99997 575.072L8.99997 575.072L8.99997 573.072L6.99997 573.072ZM6.99997 577.072L6.99997 579.072L8.99997 579.072L8.99997 577.072L6.99997 577.072ZM6.99997 581.072L6.99997 583.072L8.99997 583.072L8.99997 581.072L6.99997 581.072ZM6.99997 585.072L6.99997 587.072L8.99997 587.072L8.99997 585.072L6.99997 585.072ZM6.99997 589.072L6.99997 591.072L8.99997 591.072L8.99997 589.072L6.99997 589.072ZM6.99997 593.072L6.99997 595.072L8.99997 595.072L8.99997 593.072L6.99997 593.072ZM6.99997 597.072L6.99997 599.072L8.99997 599.072L8.99997 597.072L6.99997 597.072ZM6.99997 601.072L6.99997 603.072L8.99997 603.072L8.99997 601.072L6.99997 601.072ZM6.99997 605.072L6.99997 607.072L8.99997 607.072L8.99997 605.072L6.99997 605.072ZM6.99997 609.072L6.99997 611.072L8.99997 611.072L8.99997 609.072L6.99997 609.072ZM6.99997 613.072L6.99997 615.072L8.99997 615.072L8.99997 613.072L6.99997 613.072ZM6.99997 617.072L6.99997 619.072L8.99997 619.072L8.99997 617.072L6.99997 617.072ZM6.99997 621.072L6.99997 623.072L8.99997 623.072L8.99997 621.072L6.99997 621.072ZM6.99997 625.072L6.99997 627.072L8.99997 627.072L8.99997 625.072L6.99997 625.072ZM6.99997 629.072L6.99997 631.072L8.99997 631.072L8.99997 629.072L6.99997 629.072ZM6.99997 633.072L6.99997 635.072L8.99997 635.072L8.99997 633.072L6.99997 633.072ZM6.99997 637.072L6.99997 639.072L8.99997 639.072L8.99997 637.072L6.99997 637.072ZM6.99997 641.072L6.99997 643.072L8.99997 643.072L8.99997 641.072L6.99997 641.072ZM6.99997 645.072L6.99997 647.072L8.99997 647.072L8.99997 645.072L6.99997 645.072ZM6.99997 649.072L6.99997 651.072L8.99997 651.072L8.99997 649.072L6.99997 649.072ZM6.99997 653.072L6.99997 655.072L8.99997 655.072L8.99997 653.072L6.99997 653.072ZM6.99997 657.072L6.99997 659.072L8.99997 659.072L8.99997 657.072L6.99997 657.072ZM6.99997 661.072L6.99997 663.072L8.99997 663.072L8.99997 661.072L6.99997 661.072ZM6.99997 665.072L6.99997 667.072L8.99997 667.072L8.99997 665.072L6.99997 665.072ZM6.99997 669.072L6.99997 671.072L8.99997 671.072L8.99997 669.072L6.99997 669.072ZM6.99997 673.072L6.99997 675.072L8.99997 675.072L8.99997 673.072L6.99997 673.072ZM6.99997 677.072L6.99997 679.072L8.99997 679.072L8.99997 677.072L6.99997 677.072ZM6.99997 681.072L6.99997 683.072L8.99997 683.072L8.99997 681.072L6.99997 681.072ZM6.99997 685.072L6.99997 687.072L8.99997 687.072L8.99997 685.072L6.99997 685.072ZM6.99997 689.072L6.99997 691.072L8.99997 691.072L8.99997 689.072L6.99997 689.072ZM6.99997 693.072L6.99997 695.072L8.99997 695.072L8.99997 693.072L6.99997 693.072ZM6.99997 697.072L6.99997 699.072L8.99997 699.072L8.99997 697.072L6.99997 697.072ZM6.99996 701.072L6.99996 703.072L8.99996 703.072L8.99996 701.072L6.99996 701.072ZM6.99996 705.072L6.99996 706.072L8.99996 706.072L8.99996 705.072L6.99996 705.072Z" fill="#1B5AB8"></path></svg>