<svg xmlns="http://www.w3.org/2000/svg" width="16" height="914" viewBox="0 0 16 914" fill="none"><circle cx="8.5" cy="7.5" r="7.5" fill="#1B5AB8"></circle><path d="M7.64641 913.354C7.84167 913.549 8.15825 913.549 8.35351 913.354L11.5355 910.172C11.7308 909.976 11.7308 909.66 11.5355 909.465C11.3402 909.269 11.0236 909.269 10.8284 909.465L7.99996 912.293L5.17153 909.465C4.97627 909.269 4.65969 909.269 4.46443 909.465C4.26916 909.66 4.26916 909.976 4.46443 910.172L7.64641 913.354ZM7.5 7L7.5 7.9978L8.5 7.9978L8.5 7L7.5 7ZM7.5 9.99339L7.5 11.989L8.5 11.989L8.5 9.99339L7.5 9.99339ZM7.5 13.9846L7.5 15.9802L8.5 15.9802L8.5 13.9846L7.5 13.9846ZM7.5 17.9758L7.5 19.9714L8.5 19.9714L8.5 17.9758L7.5 17.9758ZM7.5 21.967L7.5 23.9626L8.5 23.9626L8.5 21.967L7.5 21.967ZM7.5 25.9582L7.5 27.9537L8.5 27.9537L8.5 25.9582L7.5 25.9582ZM7.5 29.9493L7.5 31.9449L8.5 31.9449L8.5 29.9493L7.5 29.9493ZM7.5 33.9405L7.5 35.9361L8.5 35.9361L8.5 33.9405L7.5 33.9405ZM7.5 37.9317L7.5 39.9273L8.5 39.9273L8.5 37.9317L7.5 37.9317ZM7.5 41.9229L7.5 43.9185L8.5 43.9185L8.5 41.9229L7.5 41.9229ZM7.5 45.9141L7.5 47.9097L8.5 47.9097L8.5 45.9141L7.5 45.9141ZM7.5 49.9053L7.5 51.9009L8.5 51.9009L8.5 49.9053L7.5 49.9053ZM7.5 53.8965L7.5 55.8921L8.5 55.8921L8.5 53.8965L7.5 53.8965ZM7.5 57.8877L7.5 59.8833L8.5 59.8833L8.5 57.8877L7.5 57.8877ZM7.5 61.8788L7.5 63.8744L8.5 63.8744L8.5 61.8788L7.5 61.8788ZM7.5 65.87L7.5 67.8656L8.5 67.8656L8.5 65.87L7.5 65.87ZM7.5 69.8612L7.5 71.8568L8.5 71.8568L8.5 69.8612L7.5 69.8612ZM7.5 73.8524L7.5 75.848L8.5 75.848L8.5 73.8524L7.5 73.8524ZM7.5 77.8436L7.5 79.8392L8.5 79.8392L8.5 77.8436L7.5 77.8436ZM7.5 81.8348L7.5 83.8304L8.5 83.8304L8.5 81.8348L7.5 81.8348ZM7.5 85.826L7.5 87.8216L8.5 87.8216L8.5 85.826L7.5 85.826ZM7.5 89.8172L7.5 91.8128L8.5 91.8128L8.5 89.8172L7.5 89.8172ZM7.5 93.8084L7.5 95.804L8.5 95.804L8.5 93.8084L7.5 93.8084ZM7.5 97.7996L7.5 99.7952L8.5 99.7952L8.5 97.7996L7.5 97.7996ZM7.5 101.791L7.5 103.786L8.5 103.786L8.5 101.791L7.5 101.791ZM7.5 105.782L7.5 107.778L8.5 107.778L8.5 105.782L7.5 105.782ZM7.5 109.773L7.5 111.769L8.5 111.769L8.5 109.773L7.5 109.773ZM7.5 113.764L7.5 115.76L8.5 115.76L8.5 113.764L7.5 113.764ZM7.5 117.756L7.5 119.751L8.5 119.751L8.5 117.756L7.5 117.756ZM7.49999 121.747L7.49999 123.742L8.49999 123.742L8.49999 121.747L7.49999 121.747ZM7.49999 125.738L7.49999 127.734L8.49999 127.734L8.49999 125.738L7.49999 125.738ZM7.49999 129.729L7.49999 131.725L8.49999 131.725L8.49999 129.729L7.49999 129.729ZM7.49999 133.72L7.49999 135.716L8.49999 135.716L8.49999 133.72L7.49999 133.72ZM7.49999 137.712L7.49999 139.707L8.49999 139.707L8.49999 137.712L7.49999 137.712ZM7.49999 141.703L7.49999 143.698L8.49999 143.698L8.49999 141.703L7.49999 141.703ZM7.49999 145.694L7.49999 147.689L8.49999 147.689L8.49999 145.694L7.49999 145.694ZM7.49999 149.685L7.49999 151.681L8.49999 151.681L8.49999 149.685L7.49999 149.685ZM7.49999 153.676L7.49999 155.672L8.49999 155.672L8.49999 153.676L7.49999 153.676ZM7.49999 157.667L7.49999 159.663L8.49999 159.663L8.49999 157.667L7.49999 157.667ZM7.49999 161.659L7.49999 163.654L8.49999 163.654L8.49999 161.659L7.49999 161.659ZM7.49999 165.65L7.49999 167.645L8.49999 167.645L8.49999 165.65L7.49999 165.65ZM7.49999 169.641L7.49999 171.637L8.49999 171.637L8.49999 169.641L7.49999 169.641ZM7.49999 173.632L7.49999 175.628L8.49999 175.628L8.49999 173.632L7.49999 173.632ZM7.49999 177.623L7.49999 179.619L8.49999 179.619L8.49999 177.623L7.49999 177.623ZM7.49999 181.615L7.49999 183.61L8.49999 183.61L8.49999 181.615L7.49999 181.615ZM7.49999 185.606L7.49999 187.601L8.49999 187.601L8.49999 185.606L7.49999 185.606ZM7.49999 189.597L7.49999 191.592L8.49999 191.592L8.49999 189.597L7.49999 189.597ZM7.49999 193.588L7.49999 195.584L8.49999 195.584L8.49999 193.588L7.49999 193.588ZM7.49999 197.579L7.49999 199.575L8.49999 199.575L8.49999 197.579L7.49999 197.579ZM7.49999 201.57L7.49999 203.566L8.49999 203.566L8.49999 201.57L7.49999 201.57ZM7.49999 205.562L7.49999 207.557L8.49999 207.557L8.49999 205.562L7.49999 205.562ZM7.49999 209.553L7.49999 211.548L8.49999 211.548L8.49999 209.553L7.49999 209.553ZM7.49999 213.544L7.49999 215.54L8.49999 215.54L8.49999 213.544L7.49999 213.544ZM7.49999 217.535L7.49999 219.531L8.49999 219.531L8.49999 217.535L7.49999 217.535ZM7.49999 221.526L7.49999 223.522L8.49999 223.522L8.49999 221.526L7.49999 221.526ZM7.49999 225.518L7.49999 227.513L8.49999 227.513L8.49999 225.518L7.49999 225.518ZM7.49999 229.509L7.49999 231.504L8.49999 231.504L8.49999 229.509L7.49999 229.509ZM7.49999 233.5L7.49999 235.495L8.49999 235.495L8.49999 233.5L7.49999 233.5ZM7.49999 237.491L7.49999 239.487L8.49999 239.487L8.49999 237.491L7.49999 237.491ZM7.49999 241.482L7.49999 243.478L8.49999 243.478L8.49999 241.482L7.49999 241.482ZM7.49999 245.473L7.49999 247.469L8.49999 247.469L8.49999 245.473L7.49999 245.473ZM7.49999 249.465L7.49999 251.46L8.49999 251.46L8.49999 249.465L7.49999 249.465ZM7.49999 253.456L7.49999 255.451L8.49999 255.451L8.49999 253.456L7.49999 253.456ZM7.49999 257.447L7.49999 259.443L8.49999 259.443L8.49999 257.447L7.49999 257.447ZM7.49999 261.438L7.49999 263.434L8.49999 263.434L8.49999 261.438L7.49999 261.438ZM7.49999 265.429L7.49999 267.425L8.49999 267.425L8.49999 265.429L7.49999 265.429ZM7.49999 269.421L7.49999 271.416L8.49999 271.416L8.49999 269.421L7.49999 269.421ZM7.49999 273.412L7.49999 275.407L8.49999 275.407L8.49999 273.412L7.49999 273.412ZM7.49999 277.403L7.49999 279.399L8.49999 279.399L8.49999 277.403L7.49999 277.403ZM7.49999 281.394L7.49999 283.39L8.49999 283.39L8.49999 281.394L7.49999 281.394ZM7.49999 285.385L7.49999 287.381L8.49999 287.381L8.49999 285.385L7.49999 285.385ZM7.49999 289.377L7.49999 291.372L8.49999 291.372L8.49999 289.377L7.49999 289.377ZM7.49999 293.368L7.49999 295.363L8.49999 295.363L8.49999 293.368L7.49999 293.368ZM7.49999 297.359L7.49999 299.355L8.49999 299.355L8.49999 297.359L7.49999 297.359ZM7.49999 301.35L7.49999 303.346L8.49999 303.346L8.49999 301.35L7.49999 301.35ZM7.49999 305.341L7.49999 307.337L8.49999 307.337L8.49999 305.341L7.49999 305.341ZM7.49999 309.333L7.49999 311.328L8.49999 311.328L8.49999 309.333L7.49999 309.333ZM7.49999 313.324L7.49999 315.319L8.49999 315.319L8.49999 313.324L7.49999 313.324ZM7.49999 317.315L7.49999 319.311L8.49999 319.311L8.49999 317.315L7.49999 317.315ZM7.49999 321.306L7.49999 323.302L8.49999 323.302L8.49999 321.306L7.49999 321.306ZM7.49999 325.297L7.49999 327.293L8.49999 327.293L8.49999 325.297L7.49999 325.297ZM7.49999 329.289L7.49999 331.284L8.49999 331.284L8.49999 329.289L7.49999 329.289ZM7.49999 333.28L7.49999 335.276L8.49999 335.276L8.49999 333.28L7.49999 333.28ZM7.49999 337.271L7.49999 339.267L8.49999 339.267L8.49999 337.271L7.49999 337.271ZM7.49999 341.262L7.49999 343.258L8.49999 343.258L8.49999 341.262L7.49999 341.262ZM7.49999 345.254L7.49999 347.249L8.49999 347.249L8.49999 345.254L7.49999 345.254ZM7.49999 349.245L7.49998 351.24L8.49998 351.24L8.49999 349.245L7.49999 349.245ZM7.49998 353.236L7.49998 355.232L8.49998 355.232L8.49998 353.236L7.49998 353.236ZM7.49998 357.227L7.49998 359.223L8.49998 359.223L8.49998 357.227L7.49998 357.227ZM7.49998 361.218L7.49998 363.214L8.49998 363.214L8.49998 361.218L7.49998 361.218ZM7.49998 365.21L7.49998 367.205L8.49998 367.205L8.49998 365.21L7.49998 365.21ZM7.49998 369.201L7.49998 371.196L8.49998 371.196L8.49998 369.201L7.49998 369.201ZM7.49998 373.192L7.49998 375.188L8.49998 375.188L8.49998 373.192L7.49998 373.192ZM7.49998 377.183L7.49998 379.179L8.49998 379.179L8.49998 377.183L7.49998 377.183ZM7.49998 381.174L7.49998 383.17L8.49998 383.17L8.49998 381.174L7.49998 381.174ZM7.49998 385.166L7.49998 387.161L8.49998 387.161L8.49998 385.166L7.49998 385.166ZM7.49998 389.157L7.49998 391.152L8.49998 391.152L8.49998 389.157L7.49998 389.157ZM7.49998 393.148L7.49998 395.144L8.49998 395.144L8.49998 393.148L7.49998 393.148ZM7.49998 397.139L7.49998 399.135L8.49998 399.135L8.49998 397.139L7.49998 397.139ZM7.49998 401.13L7.49998 403.126L8.49998 403.126L8.49998 401.13L7.49998 401.13ZM7.49998 405.122L7.49998 407.117L8.49998 407.117L8.49998 405.122L7.49998 405.122ZM7.49998 409.113L7.49998 411.109L8.49998 411.109L8.49998 409.113L7.49998 409.113ZM7.49998 413.104L7.49998 415.1L8.49998 415.1L8.49998 413.104L7.49998 413.104ZM7.49998 417.095L7.49998 419.091L8.49998 419.091L8.49998 417.095L7.49998 417.095ZM7.49998 421.087L7.49998 423.082L8.49998 423.082L8.49998 421.087L7.49998 421.087ZM7.49998 425.078L7.49998 427.073L8.49998 427.073L8.49998 425.078L7.49998 425.078ZM7.49998 429.069L7.49998 431.065L8.49998 431.065L8.49998 429.069L7.49998 429.069ZM7.49998 433.06L7.49998 435.056L8.49998 435.056L8.49998 433.06L7.49998 433.06ZM7.49998 437.051L7.49998 439.047L8.49998 439.047L8.49998 437.051L7.49998 437.051ZM7.49998 441.043L7.49998 443.038L8.49998 443.038L8.49998 441.043L7.49998 441.043ZM7.49998 445.034L7.49998 447.029L8.49998 447.029L8.49998 445.034L7.49998 445.034ZM7.49998 449.025L7.49998 451.021L8.49998 451.021L8.49998 449.025L7.49998 449.025ZM7.49998 453.016L7.49998 455.012L8.49998 455.012L8.49998 453.016L7.49998 453.016ZM7.49998 457.007L7.49998 459.003L8.49998 459.003L8.49998 457.007L7.49998 457.007ZM7.49998 460.999L7.49998 462.994L8.49998 462.994L8.49998 460.999L7.49998 460.999ZM7.49998 464.99L7.49998 466.985L8.49998 466.985L8.49998 464.99L7.49998 464.99ZM7.49998 468.981L7.49998 470.977L8.49998 470.977L8.49998 468.981L7.49998 468.981ZM7.49998 472.972L7.49998 474.968L8.49998 474.968L8.49998 472.972L7.49998 472.972ZM7.49998 476.964L7.49998 478.959L8.49998 478.959L8.49998 476.964L7.49998 476.964ZM7.49998 480.955L7.49998 482.95L8.49998 482.95L8.49998 480.955L7.49998 480.955ZM7.49998 484.946L7.49998 486.942L8.49998 486.942L8.49998 484.946L7.49998 484.946ZM7.49998 488.937L7.49998 490.933L8.49998 490.933L8.49998 488.937L7.49998 488.937ZM7.49998 492.928L7.49998 494.924L8.49998 494.924L8.49998 492.928L7.49998 492.928ZM7.49998 496.92L7.49998 498.915L8.49998 498.915L8.49998 496.92L7.49998 496.92ZM7.49998 500.911L7.49998 502.906L8.49998 502.906L8.49998 500.911L7.49998 500.911ZM7.49998 504.902L7.49998 506.898L8.49998 506.898L8.49998 504.902L7.49998 504.902ZM7.49998 508.893L7.49998 510.889L8.49998 510.889L8.49998 508.893L7.49998 508.893ZM7.49998 512.884L7.49998 514.88L8.49998 514.88L8.49998 512.884L7.49998 512.884ZM7.49998 516.876L7.49998 518.871L8.49998 518.871L8.49998 516.876L7.49998 516.876ZM7.49998 520.867L7.49998 522.862L8.49998 522.862L8.49998 520.867L7.49998 520.867ZM7.49998 524.858L7.49998 526.854L8.49998 526.854L8.49998 524.858L7.49998 524.858ZM7.49998 528.849L7.49998 530.845L8.49998 530.845L8.49998 528.849L7.49998 528.849ZM7.49998 532.84L7.49998 534.836L8.49998 534.836L8.49998 532.84L7.49998 532.84ZM7.49998 536.832L7.49998 538.827L8.49998 538.827L8.49998 536.832L7.49998 536.832ZM7.49998 540.823L7.49998 542.819L8.49998 542.819L8.49998 540.823L7.49998 540.823ZM7.49998 544.814L7.49998 546.81L8.49998 546.81L8.49998 544.814L7.49998 544.814ZM7.49998 548.805L7.49998 550.801L8.49998 550.801L8.49998 548.805L7.49998 548.805ZM7.49998 552.797L7.49998 554.792L8.49998 554.792L8.49998 552.797L7.49998 552.797ZM7.49998 556.788L7.49998 558.783L8.49998 558.783L8.49998 556.788L7.49998 556.788ZM7.49998 560.779L7.49998 562.775L8.49998 562.775L8.49998 560.779L7.49998 560.779ZM7.49998 564.77L7.49998 566.766L8.49998 566.766L8.49998 564.77L7.49998 564.77ZM7.49998 568.761L7.49998 570.757L8.49998 570.757L8.49998 568.761L7.49998 568.761ZM7.49998 572.753L7.49998 574.748L8.49998 574.748L8.49998 572.753L7.49998 572.753ZM7.49998 576.744L7.49998 578.739L8.49998 578.739L8.49998 576.744L7.49998 576.744ZM7.49997 580.735L7.49997 582.731L8.49997 582.731L8.49997 580.735L7.49997 580.735ZM7.49997 584.726L7.49997 586.722L8.49997 586.722L8.49997 584.726L7.49997 584.726ZM7.49997 588.717L7.49997 590.713L8.49997 590.713L8.49997 588.717L7.49997 588.717ZM7.49997 592.709L7.49997 594.704L8.49997 594.704L8.49997 592.709L7.49997 592.709ZM7.49997 596.7L7.49997 598.695L8.49997 598.695L8.49997 596.7L7.49997 596.7ZM7.49997 600.691L7.49997 602.687L8.49997 602.687L8.49997 600.691L7.49997 600.691ZM7.49997 604.682L7.49997 606.678L8.49997 606.678L8.49997 604.682L7.49997 604.682ZM7.49997 608.673L7.49997 610.669L8.49997 610.669L8.49997 608.673L7.49997 608.673ZM7.49997 612.665L7.49997 614.66L8.49997 614.66L8.49997 612.665L7.49997 612.665ZM7.49997 616.656L7.49997 618.651L8.49997 618.651L8.49997 616.656L7.49997 616.656ZM7.49997 620.647L7.49997 622.643L8.49997 622.643L8.49997 620.647L7.49997 620.647ZM7.49997 624.638L7.49997 626.634L8.49997 626.634L8.49997 624.638L7.49997 624.638ZM7.49997 628.629L7.49997 630.625L8.49997 630.625L8.49997 628.629L7.49997 628.629ZM7.49997 632.621L7.49997 634.616L8.49997 634.616L8.49997 632.621L7.49997 632.621ZM7.49997 636.612L7.49997 638.608L8.49997 638.608L8.49997 636.612L7.49997 636.612ZM7.49997 640.603L7.49997 642.599L8.49997 642.599L8.49997 640.603L7.49997 640.603ZM7.49997 644.594L7.49997 646.59L8.49997 646.59L8.49997 644.594L7.49997 644.594ZM7.49997 648.586L7.49997 650.581L8.49997 650.581L8.49997 648.586L7.49997 648.586ZM7.49997 652.577L7.49997 654.572L8.49997 654.572L8.49997 652.577L7.49997 652.577ZM7.49997 656.568L7.49997 658.564L8.49997 658.564L8.49997 656.568L7.49997 656.568ZM7.49997 660.559L7.49997 662.555L8.49997 662.555L8.49997 660.559L7.49997 660.559ZM7.49997 664.55L7.49997 666.546L8.49997 666.546L8.49997 664.55L7.49997 664.55ZM7.49997 668.542L7.49997 670.537L8.49997 670.537L8.49997 668.542L7.49997 668.542ZM7.49997 672.533L7.49997 674.528L8.49997 674.528L8.49997 672.533L7.49997 672.533ZM7.49997 676.524L7.49997 678.52L8.49997 678.52L8.49997 676.524L7.49997 676.524ZM7.49997 680.515L7.49997 682.511L8.49997 682.511L8.49997 680.515L7.49997 680.515ZM7.49997 684.506L7.49997 686.502L8.49997 686.502L8.49997 684.506L7.49997 684.506ZM7.49997 688.498L7.49997 690.493L8.49997 690.493L8.49997 688.498L7.49997 688.498ZM7.49997 692.489L7.49997 694.484L8.49997 694.484L8.49997 692.489L7.49997 692.489ZM7.49997 696.48L7.49997 698.476L8.49997 698.476L8.49997 696.48L7.49997 696.48ZM7.49997 700.471L7.49997 702.467L8.49997 702.467L8.49997 700.471L7.49997 700.471ZM7.49997 704.463L7.49997 706.458L8.49997 706.458L8.49997 704.463L7.49997 704.463ZM7.49997 708.454L7.49997 710.449L8.49997 710.449L8.49997 708.454L7.49997 708.454ZM7.49997 712.445L7.49997 714.441L8.49997 714.441L8.49997 712.445L7.49997 712.445ZM7.49997 716.436L7.49997 718.432L8.49997 718.432L8.49997 716.436L7.49997 716.436ZM7.49997 720.427L7.49997 722.423L8.49997 722.423L8.49997 720.427L7.49997 720.427ZM7.49997 724.419L7.49997 726.414L8.49997 726.414L8.49997 724.419L7.49997 724.419ZM7.49997 728.41L7.49997 730.405L8.49997 730.405L8.49997 728.41L7.49997 728.41ZM7.49997 732.401L7.49997 734.397L8.49997 734.397L8.49997 732.401L7.49997 732.401ZM7.49997 736.392L7.49997 738.388L8.49997 738.388L8.49997 736.392L7.49997 736.392ZM7.49997 740.383L7.49997 742.379L8.49997 742.379L8.49997 740.383L7.49997 740.383ZM7.49997 744.375L7.49997 746.37L8.49997 746.37L8.49997 744.375L7.49997 744.375ZM7.49997 748.366L7.49997 750.361L8.49997 750.361L8.49997 748.366L7.49997 748.366ZM7.49997 752.357L7.49997 754.353L8.49997 754.353L8.49997 752.357L7.49997 752.357ZM7.49997 756.348L7.49997 758.344L8.49997 758.344L8.49997 756.348L7.49997 756.348ZM7.49997 760.339L7.49997 762.335L8.49997 762.335L8.49997 760.339L7.49997 760.339ZM7.49997 764.331L7.49997 766.326L8.49997 766.326L8.49997 764.331L7.49997 764.331ZM7.49997 768.322L7.49997 770.317L8.49997 770.317L8.49997 768.322L7.49997 768.322ZM7.49997 772.313L7.49997 774.309L8.49997 774.309L8.49997 772.313L7.49997 772.313ZM7.49997 776.304L7.49997 778.3L8.49997 778.3L8.49997 776.304L7.49997 776.304ZM7.49997 780.296L7.49997 782.291L8.49997 782.291L8.49997 780.296L7.49997 780.296ZM7.49997 784.287L7.49997 786.282L8.49997 786.282L8.49997 784.287L7.49997 784.287ZM7.49997 788.278L7.49997 790.274L8.49997 790.274L8.49997 788.278L7.49997 788.278ZM7.49997 792.269L7.49997 794.265L8.49997 794.265L8.49997 792.269L7.49997 792.269ZM7.49997 796.26L7.49997 798.256L8.49997 798.256L8.49997 796.26L7.49997 796.26ZM7.49997 800.252L7.49997 802.247L8.49997 802.247L8.49997 800.252L7.49997 800.252ZM7.49997 804.243L7.49997 806.238L8.49997 806.238L8.49997 804.243L7.49997 804.243ZM7.49996 808.234L7.49996 810.23L8.49996 810.23L8.49996 808.234L7.49996 808.234ZM7.49996 812.225L7.49996 814.221L8.49996 814.221L8.49996 812.225L7.49996 812.225ZM7.49996 816.216L7.49996 818.212L8.49996 818.212L8.49996 816.216L7.49996 816.216ZM7.49996 820.208L7.49996 822.203L8.49996 822.203L8.49996 820.208L7.49996 820.208ZM7.49996 824.199L7.49996 826.194L8.49996 826.194L8.49996 824.199L7.49996 824.199ZM7.49996 828.19L7.49996 830.186L8.49996 830.186L8.49996 828.19L7.49996 828.19ZM7.49996 832.181L7.49996 834.177L8.49996 834.177L8.49996 832.181L7.49996 832.181ZM7.49996 836.172L7.49996 838.168L8.49996 838.168L8.49996 836.172L7.49996 836.172ZM7.49996 840.164L7.49996 842.159L8.49996 842.159L8.49996 840.164L7.49996 840.164ZM7.49996 844.155L7.49996 846.151L8.49996 846.151L8.49996 844.155L7.49996 844.155ZM7.49996 848.146L7.49996 850.142L8.49996 850.142L8.49996 848.146L7.49996 848.146ZM7.49996 852.137L7.49996 854.133L8.49996 854.133L8.49996 852.137L7.49996 852.137ZM7.49996 856.129L7.49996 858.124L8.49996 858.124L8.49996 856.129L7.49996 856.129ZM7.49996 860.12L7.49996 862.115L8.49996 862.115L8.49996 860.12L7.49996 860.12ZM7.49996 864.111L7.49996 866.107L8.49996 866.107L8.49996 864.111L7.49996 864.111ZM7.49996 868.102L7.49996 870.098L8.49996 870.098L8.49996 868.102L7.49996 868.102ZM7.49996 872.093L7.49996 874.089L8.49996 874.089L8.49996 872.093L7.49996 872.093ZM7.49996 876.085L7.49996 878.08L8.49996 878.08L8.49996 876.085L7.49996 876.085ZM7.49996 880.076L7.49996 882.071L8.49996 882.071L8.49996 880.076L7.49996 880.076ZM7.49996 884.067L7.49996 886.063L8.49996 886.063L8.49996 884.067L7.49996 884.067ZM7.49996 888.058L7.49996 890.054L8.49996 890.054L8.49996 888.058L7.49996 888.058ZM7.49996 892.049L7.49996 894.045L8.49996 894.045L8.49996 892.049L7.49996 892.049ZM7.49996 896.041L7.49996 898.036L8.49996 898.036L8.49996 896.041L7.49996 896.041ZM7.49996 900.032L7.49996 902.027L8.49996 902.027L8.49996 900.032L7.49996 900.032ZM7.49996 904.023L7.49996 906.019L8.49996 906.019L8.49996 904.023L7.49996 904.023ZM7.49996 908.014L7.49996 910.01L8.49996 910.01L8.49996 908.014L7.49996 908.014ZM7.49996 912.006L7.49996 913L8.49996 913L8.49996 912.006L7.49996 912.006ZM7.29285 913.707C7.68338 914.098 8.31654 914.098 8.70707 913.707L15.071 907.343C15.4616 906.953 15.4616 906.32 15.071 905.929C14.6805 905.538 14.0473 905.538 13.6568 905.929L7.99996 911.586L2.34311 905.929C1.95258 905.538 1.31942 905.538 0.928893 905.929C0.538369 906.32 0.538369 906.953 0.928893 907.343L7.29285 913.707ZM7 7L7 7.9978L9 7.9978L9 7L7 7ZM7 9.99339L7 11.989L9 11.989L9 9.99339L7 9.99339ZM7 13.9846L7 15.9802L9 15.9802L9 13.9846L7 13.9846ZM7 17.9758L7 19.9714L9 19.9714L9 17.9758L7 17.9758ZM7 21.967L7 23.9626L9 23.9626L9 21.967L7 21.967ZM7 25.9582L7 27.9537L9 27.9537L9 25.9582L7 25.9582ZM7 29.9493L7 31.9449L9 31.9449L9 29.9493L7 29.9493ZM7 33.9405L7 35.9361L9 35.9361L9 33.9405L7 33.9405ZM7 37.9317L7 39.9273L9 39.9273L9 37.9317L7 37.9317ZM7 41.9229L7 43.9185L9 43.9185L9 41.9229L7 41.9229ZM7 45.9141L7 47.9097L9 47.9097L9 45.9141L7 45.9141ZM7 49.9053L7 51.9009L9 51.9009L9 49.9053L7 49.9053ZM7 53.8965L7 55.8921L9 55.8921L9 53.8965L7 53.8965ZM7 57.8877L7 59.8833L9 59.8833L9 57.8877L7 57.8877ZM7 61.8788L7 63.8744L9 63.8744L9 61.8788L7 61.8788ZM7 65.87L7 67.8656L9 67.8656L9 65.87L7 65.87ZM7 69.8612L7 71.8568L9 71.8568L9 69.8612L7 69.8612ZM7 73.8524L7 75.848L9 75.848L9 73.8524L7 73.8524ZM7 77.8436L7 79.8392L9 79.8392L9 77.8436L7 77.8436ZM7 81.8348L7 83.8304L9 83.8304L9 81.8348L7 81.8348ZM7 85.826L7 87.8216L9 87.8216L9 85.826L7 85.826ZM7 89.8172L7 91.8128L9 91.8128L9 89.8172L7 89.8172ZM7 93.8084L7 95.804L9 95.804L9 93.8084L7 93.8084ZM7 97.7996L7 99.7952L9 99.7952L9 97.7996L7 97.7996ZM7 101.791L7 103.786L9 103.786L9 101.791L7 101.791ZM7 105.782L7 107.778L9 107.778L9 105.782L7 105.782ZM7 109.773L7 111.769L9 111.769L9 109.773L7 109.773ZM7 113.764L7 115.76L9 115.76L9 113.764L7 113.764ZM7 117.756L7 119.751L9 119.751L9 117.756L7 117.756ZM6.99999 121.747L6.99999 123.742L8.99999 123.742L8.99999 121.747L6.99999 121.747ZM6.99999 125.738L6.99999 127.734L8.99999 127.734L8.99999 125.738L6.99999 125.738ZM6.99999 129.729L6.99999 131.725L8.99999 131.725L8.99999 129.729L6.99999 129.729ZM6.99999 133.72L6.99999 135.716L8.99999 135.716L8.99999 133.72L6.99999 133.72ZM6.99999 137.712L6.99999 139.707L8.99999 139.707L8.99999 137.712L6.99999 137.712ZM6.99999 141.703L6.99999 143.698L8.99999 143.698L8.99999 141.703L6.99999 141.703ZM6.99999 145.694L6.99999 147.689L8.99999 147.689L8.99999 145.694L6.99999 145.694ZM6.99999 149.685L6.99999 151.681L8.99999 151.681L8.99999 149.685L6.99999 149.685ZM6.99999 153.676L6.99999 155.672L8.99999 155.672L8.99999 153.676L6.99999 153.676ZM6.99999 157.667L6.99999 159.663L8.99999 159.663L8.99999 157.667L6.99999 157.667ZM6.99999 161.659L6.99999 163.654L8.99999 163.654L8.99999 161.659L6.99999 161.659ZM6.99999 165.65L6.99999 167.645L8.99999 167.645L8.99999 165.65L6.99999 165.65ZM6.99999 169.641L6.99999 171.637L8.99999 171.637L8.99999 169.641L6.99999 169.641ZM6.99999 173.632L6.99999 175.628L8.99999 175.628L8.99999 173.632L6.99999 173.632ZM6.99999 177.623L6.99999 179.619L8.99999 179.619L8.99999 177.623L6.99999 177.623ZM6.99999 181.615L6.99999 183.61L8.99999 183.61L8.99999 181.615L6.99999 181.615ZM6.99999 185.606L6.99999 187.601L8.99999 187.601L8.99999 185.606L6.99999 185.606ZM6.99999 189.597L6.99999 191.592L8.99999 191.592L8.99999 189.597L6.99999 189.597ZM6.99999 193.588L6.99999 195.584L8.99999 195.584L8.99999 193.588L6.99999 193.588ZM6.99999 197.579L6.99999 199.575L8.99999 199.575L8.99999 197.579L6.99999 197.579ZM6.99999 201.57L6.99999 203.566L8.99999 203.566L8.99999 201.57L6.99999 201.57ZM6.99999 205.562L6.99999 207.557L8.99999 207.557L8.99999 205.562L6.99999 205.562ZM6.99999 209.553L6.99999 211.548L8.99999 211.548L8.99999 209.553L6.99999 209.553ZM6.99999 213.544L6.99999 215.54L8.99999 215.54L8.99999 213.544L6.99999 213.544ZM6.99999 217.535L6.99999 219.531L8.99999 219.531L8.99999 217.535L6.99999 217.535ZM6.99999 221.526L6.99999 223.522L8.99999 223.522L8.99999 221.526L6.99999 221.526ZM6.99999 225.518L6.99999 227.513L8.99999 227.513L8.99999 225.518L6.99999 225.518ZM6.99999 229.509L6.99999 231.504L8.99999 231.504L8.99999 229.509L6.99999 229.509ZM6.99999 233.5L6.99999 235.495L8.99999 235.495L8.99999 233.5L6.99999 233.5ZM6.99999 237.491L6.99999 239.487L8.99999 239.487L8.99999 237.491L6.99999 237.491ZM6.99999 241.482L6.99999 243.478L8.99999 243.478L8.99999 241.482L6.99999 241.482ZM6.99999 245.473L6.99999 247.469L8.99999 247.469L8.99999 245.473L6.99999 245.473ZM6.99999 249.465L6.99999 251.46L8.99999 251.46L8.99999 249.465L6.99999 249.465ZM6.99999 253.456L6.99999 255.451L8.99999 255.451L8.99999 253.456L6.99999 253.456ZM6.99999 257.447L6.99999 259.443L8.99999 259.443L8.99999 257.447L6.99999 257.447ZM6.99999 261.438L6.99999 263.434L8.99999 263.434L8.99999 261.438L6.99999 261.438ZM6.99999 265.429L6.99999 267.425L8.99999 267.425L8.99999 265.429L6.99999 265.429ZM6.99999 269.421L6.99999 271.416L8.99999 271.416L8.99999 269.421L6.99999 269.421ZM6.99999 273.412L6.99999 275.407L8.99999 275.407L8.99999 273.412L6.99999 273.412ZM6.99999 277.403L6.99999 279.399L8.99999 279.399L8.99999 277.403L6.99999 277.403ZM6.99999 281.394L6.99999 283.39L8.99999 283.39L8.99999 281.394L6.99999 281.394ZM6.99999 285.385L6.99999 287.381L8.99999 287.381L8.99999 285.385L6.99999 285.385ZM6.99999 289.377L6.99999 291.372L8.99999 291.372L8.99999 289.377L6.99999 289.377ZM6.99999 293.368L6.99999 295.363L8.99999 295.363L8.99999 293.368L6.99999 293.368ZM6.99999 297.359L6.99999 299.355L8.99999 299.355L8.99999 297.359L6.99999 297.359ZM6.99999 301.35L6.99999 303.346L8.99999 303.346L8.99999 301.35L6.99999 301.35ZM6.99999 305.341L6.99999 307.337L8.99999 307.337L8.99999 305.341L6.99999 305.341ZM6.99999 309.333L6.99999 311.328L8.99999 311.328L8.99999 309.333L6.99999 309.333ZM6.99999 313.324L6.99999 315.319L8.99999 315.319L8.99999 313.324L6.99999 313.324ZM6.99999 317.315L6.99999 319.311L8.99999 319.311L8.99999 317.315L6.99999 317.315ZM6.99999 321.306L6.99999 323.302L8.99999 323.302L8.99999 321.306L6.99999 321.306ZM6.99999 325.297L6.99999 327.293L8.99999 327.293L8.99999 325.297L6.99999 325.297ZM6.99999 329.289L6.99999 331.284L8.99999 331.284L8.99999 329.289L6.99999 329.289ZM6.99999 333.28L6.99999 335.276L8.99999 335.276L8.99999 333.28L6.99999 333.28ZM6.99999 337.271L6.99999 339.267L8.99999 339.267L8.99999 337.271L6.99999 337.271ZM6.99999 341.262L6.99999 343.258L8.99999 343.258L8.99999 341.262L6.99999 341.262ZM6.99999 345.254L6.99999 347.249L8.99999 347.249L8.99999 345.254L6.99999 345.254ZM6.99999 349.245L6.99998 351.24L8.99998 351.24L8.99999 349.245L6.99999 349.245ZM6.99998 353.236L6.99998 355.232L8.99998 355.232L8.99998 353.236L6.99998 353.236ZM6.99998 357.227L6.99998 359.223L8.99998 359.223L8.99998 357.227L6.99998 357.227ZM6.99998 361.218L6.99998 363.214L8.99998 363.214L8.99998 361.218L6.99998 361.218ZM6.99998 365.21L6.99998 367.205L8.99998 367.205L8.99998 365.21L6.99998 365.21ZM6.99998 369.201L6.99998 371.196L8.99998 371.196L8.99998 369.201L6.99998 369.201ZM6.99998 373.192L6.99998 375.188L8.99998 375.188L8.99998 373.192L6.99998 373.192ZM6.99998 377.183L6.99998 379.179L8.99998 379.179L8.99998 377.183L6.99998 377.183ZM6.99998 381.174L6.99998 383.17L8.99998 383.17L8.99998 381.174L6.99998 381.174ZM6.99998 385.166L6.99998 387.161L8.99998 387.161L8.99998 385.166L6.99998 385.166ZM6.99998 389.157L6.99998 391.152L8.99998 391.152L8.99998 389.157L6.99998 389.157ZM6.99998 393.148L6.99998 395.144L8.99998 395.144L8.99998 393.148L6.99998 393.148ZM6.99998 397.139L6.99998 399.135L8.99998 399.135L8.99998 397.139L6.99998 397.139ZM6.99998 401.13L6.99998 403.126L8.99998 403.126L8.99998 401.13L6.99998 401.13ZM6.99998 405.122L6.99998 407.117L8.99998 407.117L8.99998 405.122L6.99998 405.122ZM6.99998 409.113L6.99998 411.109L8.99998 411.109L8.99998 409.113L6.99998 409.113ZM6.99998 413.104L6.99998 415.1L8.99998 415.1L8.99998 413.104L6.99998 413.104ZM6.99998 417.095L6.99998 419.091L8.99998 419.091L8.99998 417.095L6.99998 417.095ZM6.99998 421.087L6.99998 423.082L8.99998 423.082L8.99998 421.087L6.99998 421.087ZM6.99998 425.078L6.99998 427.073L8.99998 427.073L8.99998 425.078L6.99998 425.078ZM6.99998 429.069L6.99998 431.065L8.99998 431.065L8.99998 429.069L6.99998 429.069ZM6.99998 433.06L6.99998 435.056L8.99998 435.056L8.99998 433.06L6.99998 433.06ZM6.99998 437.051L6.99998 439.047L8.99998 439.047L8.99998 437.051L6.99998 437.051ZM6.99998 441.043L6.99998 443.038L8.99998 443.038L8.99998 441.043L6.99998 441.043ZM6.99998 445.034L6.99998 447.029L8.99998 447.029L8.99998 445.034L6.99998 445.034ZM6.99998 449.025L6.99998 451.021L8.99998 451.021L8.99998 449.025L6.99998 449.025ZM6.99998 453.016L6.99998 455.012L8.99998 455.012L8.99998 453.016L6.99998 453.016ZM6.99998 457.007L6.99998 459.003L8.99998 459.003L8.99998 457.007L6.99998 457.007ZM6.99998 460.999L6.99998 462.994L8.99998 462.994L8.99998 460.999L6.99998 460.999ZM6.99998 464.99L6.99998 466.985L8.99998 466.985L8.99998 464.99L6.99998 464.99ZM6.99998 468.981L6.99998 470.977L8.99998 470.977L8.99998 468.981L6.99998 468.981ZM6.99998 472.972L6.99998 474.968L8.99998 474.968L8.99998 472.972L6.99998 472.972ZM6.99998 476.964L6.99998 478.959L8.99998 478.959L8.99998 476.964L6.99998 476.964ZM6.99998 480.955L6.99998 482.95L8.99998 482.95L8.99998 480.955L6.99998 480.955ZM6.99998 484.946L6.99998 486.942L8.99998 486.942L8.99998 484.946L6.99998 484.946ZM6.99998 488.937L6.99998 490.933L8.99998 490.933L8.99998 488.937L6.99998 488.937ZM6.99998 492.928L6.99998 494.924L8.99998 494.924L8.99998 492.928L6.99998 492.928ZM6.99998 496.92L6.99998 498.915L8.99998 498.915L8.99998 496.92L6.99998 496.92ZM6.99998 500.911L6.99998 502.906L8.99998 502.906L8.99998 500.911L6.99998 500.911ZM6.99998 504.902L6.99998 506.898L8.99998 506.898L8.99998 504.902L6.99998 504.902ZM6.99998 508.893L6.99998 510.889L8.99998 510.889L8.99998 508.893L6.99998 508.893ZM6.99998 512.884L6.99998 514.88L8.99998 514.88L8.99998 512.884L6.99998 512.884ZM6.99998 516.876L6.99998 518.871L8.99998 518.871L8.99998 516.876L6.99998 516.876ZM6.99998 520.867L6.99998 522.862L8.99998 522.862L8.99998 520.867L6.99998 520.867ZM6.99998 524.858L6.99998 526.854L8.99998 526.854L8.99998 524.858L6.99998 524.858ZM6.99998 528.849L6.99998 530.845L8.99998 530.845L8.99998 528.849L6.99998 528.849ZM6.99998 532.84L6.99998 534.836L8.99998 534.836L8.99998 532.84L6.99998 532.84ZM6.99998 536.832L6.99998 538.827L8.99998 538.827L8.99998 536.832L6.99998 536.832ZM6.99998 540.823L6.99998 542.819L8.99998 542.819L8.99998 540.823L6.99998 540.823ZM6.99998 544.814L6.99998 546.81L8.99998 546.81L8.99998 544.814L6.99998 544.814ZM6.99998 548.805L6.99998 550.801L8.99998 550.801L8.99998 548.805L6.99998 548.805ZM6.99998 552.797L6.99998 554.792L8.99998 554.792L8.99998 552.797L6.99998 552.797ZM6.99998 556.788L6.99998 558.783L8.99998 558.783L8.99998 556.788L6.99998 556.788ZM6.99998 560.779L6.99998 562.775L8.99998 562.775L8.99998 560.779L6.99998 560.779ZM6.99998 564.77L6.99998 566.766L8.99998 566.766L8.99998 564.77L6.99998 564.77ZM6.99998 568.761L6.99998 570.757L8.99998 570.757L8.99998 568.761L6.99998 568.761ZM6.99998 572.753L6.99998 574.748L8.99998 574.748L8.99998 572.753L6.99998 572.753ZM6.99998 576.744L6.99998 578.739L8.99998 578.739L8.99998 576.744L6.99998 576.744ZM6.99997 580.735L6.99997 582.731L8.99997 582.731L8.99997 580.735L6.99997 580.735ZM6.99997 584.726L6.99997 586.722L8.99997 586.722L8.99997 584.726L6.99997 584.726ZM6.99997 588.717L6.99997 590.713L8.99997 590.713L8.99997 588.717L6.99997 588.717ZM6.99997 592.709L6.99997 594.704L8.99997 594.704L8.99997 592.709L6.99997 592.709ZM6.99997 596.7L6.99997 598.695L8.99997 598.695L8.99997 596.7L6.99997 596.7ZM6.99997 600.691L6.99997 602.687L8.99997 602.687L8.99997 600.691L6.99997 600.691ZM6.99997 604.682L6.99997 606.678L8.99997 606.678L8.99997 604.682L6.99997 604.682ZM6.99997 608.673L6.99997 610.669L8.99997 610.669L8.99997 608.673L6.99997 608.673ZM6.99997 612.665L6.99997 614.66L8.99997 614.66L8.99997 612.665L6.99997 612.665ZM6.99997 616.656L6.99997 618.651L8.99997 618.651L8.99997 616.656L6.99997 616.656ZM6.99997 620.647L6.99997 622.643L8.99997 622.643L8.99997 620.647L6.99997 620.647ZM6.99997 624.638L6.99997 626.634L8.99997 626.634L8.99997 624.638L6.99997 624.638ZM6.99997 628.629L6.99997 630.625L8.99997 630.625L8.99997 628.629L6.99997 628.629ZM6.99997 632.621L6.99997 634.616L8.99997 634.616L8.99997 632.621L6.99997 632.621ZM6.99997 636.612L6.99997 638.608L8.99997 638.608L8.99997 636.612L6.99997 636.612ZM6.99997 640.603L6.99997 642.599L8.99997 642.599L8.99997 640.603L6.99997 640.603ZM6.99997 644.594L6.99997 646.59L8.99997 646.59L8.99997 644.594L6.99997 644.594ZM6.99997 648.586L6.99997 650.581L8.99997 650.581L8.99997 648.586L6.99997 648.586ZM6.99997 652.577L6.99997 654.572L8.99997 654.572L8.99997 652.577L6.99997 652.577ZM6.99997 656.568L6.99997 658.564L8.99997 658.564L8.99997 656.568L6.99997 656.568ZM6.99997 660.559L6.99997 662.555L8.99997 662.555L8.99997 660.559L6.99997 660.559ZM6.99997 664.55L6.99997 666.546L8.99997 666.546L8.99997 664.55L6.99997 664.55ZM6.99997 668.542L6.99997 670.537L8.99997 670.537L8.99997 668.542L6.99997 668.542ZM6.99997 672.533L6.99997 674.528L8.99997 674.528L8.99997 672.533L6.99997 672.533ZM6.99997 676.524L6.99997 678.52L8.99997 678.52L8.99997 676.524L6.99997 676.524ZM6.99997 680.515L6.99997 682.511L8.99997 682.511L8.99997 680.515L6.99997 680.515ZM6.99997 684.506L6.99997 686.502L8.99997 686.502L8.99997 684.506L6.99997 684.506ZM6.99997 688.498L6.99997 690.493L8.99997 690.493L8.99997 688.498L6.99997 688.498ZM6.99997 692.489L6.99997 694.484L8.99997 694.484L8.99997 692.489L6.99997 692.489ZM6.99997 696.48L6.99997 698.476L8.99997 698.476L8.99997 696.48L6.99997 696.48ZM6.99997 700.471L6.99997 702.467L8.99997 702.467L8.99997 700.471L6.99997 700.471ZM6.99997 704.463L6.99997 706.458L8.99997 706.458L8.99997 704.463L6.99997 704.463ZM6.99997 708.454L6.99997 710.449L8.99997 710.449L8.99997 708.454L6.99997 708.454ZM6.99997 712.445L6.99997 714.441L8.99997 714.441L8.99997 712.445L6.99997 712.445ZM6.99997 716.436L6.99997 718.432L8.99997 718.432L8.99997 716.436L6.99997 716.436ZM6.99997 720.427L6.99997 722.423L8.99997 722.423L8.99997 720.427L6.99997 720.427ZM6.99997 724.419L6.99997 726.414L8.99997 726.414L8.99997 724.419L6.99997 724.419ZM6.99997 728.41L6.99997 730.405L8.99997 730.405L8.99997 728.41L6.99997 728.41ZM6.99997 732.401L6.99997 734.397L8.99997 734.397L8.99997 732.401L6.99997 732.401ZM6.99997 736.392L6.99997 738.388L8.99997 738.388L8.99997 736.392L6.99997 736.392ZM6.99997 740.383L6.99997 742.379L8.99997 742.379L8.99997 740.383L6.99997 740.383ZM6.99997 744.375L6.99997 746.37L8.99997 746.37L8.99997 744.375L6.99997 744.375ZM6.99997 748.366L6.99997 750.361L8.99997 750.361L8.99997 748.366L6.99997 748.366ZM6.99997 752.357L6.99997 754.353L8.99997 754.353L8.99997 752.357L6.99997 752.357ZM6.99997 756.348L6.99997 758.344L8.99997 758.344L8.99997 756.348L6.99997 756.348ZM6.99997 760.339L6.99997 762.335L8.99997 762.335L8.99997 760.339L6.99997 760.339ZM6.99997 764.331L6.99997 766.326L8.99997 766.326L8.99997 764.331L6.99997 764.331ZM6.99997 768.322L6.99997 770.317L8.99997 770.317L8.99997 768.322L6.99997 768.322ZM6.99997 772.313L6.99997 774.309L8.99997 774.309L8.99997 772.313L6.99997 772.313ZM6.99997 776.304L6.99997 778.3L8.99997 778.3L8.99997 776.304L6.99997 776.304ZM6.99997 780.296L6.99997 782.291L8.99997 782.291L8.99997 780.296L6.99997 780.296ZM6.99997 784.287L6.99997 786.282L8.99997 786.282L8.99997 784.287L6.99997 784.287ZM6.99997 788.278L6.99997 790.274L8.99997 790.274L8.99997 788.278L6.99997 788.278ZM6.99997 792.269L6.99997 794.265L8.99997 794.265L8.99997 792.269L6.99997 792.269ZM6.99997 796.26L6.99997 798.256L8.99997 798.256L8.99997 796.26L6.99997 796.26ZM6.99997 800.252L6.99997 802.247L8.99997 802.247L8.99997 800.252L6.99997 800.252ZM6.99997 804.243L6.99997 806.238L8.99997 806.238L8.99997 804.243L6.99997 804.243ZM6.99996 808.234L6.99996 810.23L8.99996 810.23L8.99996 808.234L6.99996 808.234ZM6.99996 812.225L6.99996 814.221L8.99996 814.221L8.99996 812.225L6.99996 812.225ZM6.99996 816.216L6.99996 818.212L8.99996 818.212L8.99996 816.216L6.99996 816.216ZM6.99996 820.208L6.99996 822.203L8.99996 822.203L8.99996 820.208L6.99996 820.208ZM6.99996 824.199L6.99996 826.194L8.99996 826.194L8.99996 824.199L6.99996 824.199ZM6.99996 828.19L6.99996 830.186L8.99996 830.186L8.99996 828.19L6.99996 828.19ZM6.99996 832.181L6.99996 834.177L8.99996 834.177L8.99996 832.181L6.99996 832.181ZM6.99996 836.172L6.99996 838.168L8.99996 838.168L8.99996 836.172L6.99996 836.172ZM6.99996 840.164L6.99996 842.159L8.99996 842.159L8.99996 840.164L6.99996 840.164ZM6.99996 844.155L6.99996 846.151L8.99996 846.151L8.99996 844.155L6.99996 844.155ZM6.99996 848.146L6.99996 850.142L8.99996 850.142L8.99996 848.146L6.99996 848.146ZM6.99996 852.137L6.99996 854.133L8.99996 854.133L8.99996 852.137L6.99996 852.137ZM6.99996 856.129L6.99996 858.124L8.99996 858.124L8.99996 856.129L6.99996 856.129ZM6.99996 860.12L6.99996 862.115L8.99996 862.115L8.99996 860.12L6.99996 860.12ZM6.99996 864.111L6.99996 866.107L8.99996 866.107L8.99996 864.111L6.99996 864.111ZM6.99996 868.102L6.99996 870.098L8.99996 870.098L8.99996 868.102L6.99996 868.102ZM6.99996 872.093L6.99996 874.089L8.99996 874.089L8.99996 872.093L6.99996 872.093ZM6.99996 876.085L6.99996 878.08L8.99996 878.08L8.99996 876.085L6.99996 876.085ZM6.99996 880.076L6.99996 882.071L8.99996 882.071L8.99996 880.076L6.99996 880.076ZM6.99996 884.067L6.99996 886.063L8.99996 886.063L8.99996 884.067L6.99996 884.067ZM6.99996 888.058L6.99996 890.054L8.99996 890.054L8.99996 888.058L6.99996 888.058ZM6.99996 892.049L6.99996 894.045L8.99996 894.045L8.99996 892.049L6.99996 892.049ZM6.99996 896.041L6.99996 898.036L8.99996 898.036L8.99996 896.041L6.99996 896.041ZM6.99996 900.032L6.99996 902.027L8.99996 902.027L8.99996 900.032L6.99996 900.032ZM6.99996 904.023L6.99996 906.019L8.99996 906.019L8.99996 904.023L6.99996 904.023ZM6.99996 908.014L6.99996 910.01L8.99996 910.01L8.99996 908.014L6.99996 908.014ZM6.99996 912.006L6.99996 913L8.99996 913L8.99996 912.006L6.99996 912.006Z" fill="#1B5AB8"></path></svg>