<svg xmlns="http://www.w3.org/2000/svg" xmlns:xlink="http://www.w3.org/1999/xlink" id="Layer_1" x="0px" y="0px" viewBox="0 0 796.4 228" xml:space="preserve"><g>	<g>		<g>			<linearGradient id="SVGID_1_" gradientUnits="userSpaceOnUse" x1="92.1008" y1="139.0943" x2="170.1875" y2="217.181">				<stop offset="0" style="stop-color:#D76F32"></stop>				<stop offset="1" style="stop-color:#E0945B"></stop>			</linearGradient>			<path fill="url(#SVGID_1_)" d="M165.3,100.1h-29.1v8.5h29.1c3.9,0,7.1,3.2,7.1,7.1v43.3c0,3.9-3.2,7.1-7.1,7.1h-41.9    c-2.4,0-4.3,1.9-4.3,4.3v41.9c0,3.9-3.2,7.1-7.1,7.1H68.8c-3.9,0-7.1-3.2-7.1-7.1v-29.1h-8.5v29.1c0,8.6,7,15.6,15.6,15.6h43.3    c8.6,0,15.6-7,15.6-15.6v-37.6h37.6c8.6,0,15.6-7,15.6-15.6v-43.3C180.9,107.1,173.9,100.1,165.3,100.1z"></path>			<path fill="#4A95C7" d="M103.6,174.7H4.2c-2.1,0-3.8-1.5-4.2-3.5c-0.4-2,0.8-4,2.8-4.7l36.2-12.8c8.5-3,14.2-11.1,14.2-20.1V84.3    c0-1.1,0.4-2.2,1.2-3l33-33.2c0.8-0.8,1.9-1.3,3-1.3h21.7c8.6,0,15.6,7,15.6,15.6v88C127.7,163.9,116.9,174.7,103.6,174.7z     M29,166.2h74.6c8.6,0,15.6-7,15.6-15.6v-88c0-3.9-3.2-7.1-7.1-7.1H92.2L61.7,86.1v47.5c0,12.6-8,23.9-19.9,28.1L29,166.2z"></path>			<path fill="#4A95C7" d="M79.1,88.6H57.3c-1.7,0-3.3-1-3.9-2.6c-0.7-1.6-0.3-3.4,0.9-4.6l33.2-33.2c1.2-1.2,3-1.6,4.6-0.9    c1.6,0.7,2.6,2.2,2.6,3.9V73C94.7,81.6,87.7,88.6,79.1,88.6z M67.5,80.1h11.5c3.9,0,7.1-3.2,7.1-7.1V61.5L67.5,80.1z"></path>			<path fill="#4A95C7" d="M4.2,174.7c-2.4,0-4.3-1.9-4.3-4.3v-54.7c0-8.6,7-15.6,15.6-15.6h41.9c2.4,0,4.3,1.9,4.3,4.3    s-1.9,4.3-4.3,4.3H15.5c-3.9,0-7.1,3.2-7.1,7.1v54.7C8.4,172.8,6.5,174.7,4.2,174.7z"></path>			<path fill="#4A95C7" d="M108.3,108.7H72.6c-2.4,0-4.3-1.9-4.3-4.3s1.9-4.3,4.3-4.3h35.7c2.4,0,4.3,1.9,4.3,4.3    S110.6,108.7,108.3,108.7z"></path>			<path fill="#4A95C7" d="M108.3,127.3H72.6c-2.4,0-4.3-1.9-4.3-4.3s1.9-4.3,4.3-4.3h35.7c2.4,0,4.3,1.9,4.3,4.3    S110.6,127.3,108.3,127.3z"></path>			<path fill="#4A95C7" d="M108.3,146H72.6c-2.4,0-4.3-1.9-4.3-4.3c0-2.4,1.9-4.3,4.3-4.3h35.7c2.4,0,4.3,1.9,4.3,4.3    C112.5,144.1,110.6,146,108.3,146z"></path>		</g>		<g>			<g>				<g>					<path fill="#4A95C7" d="M267,192v-18.3h5.4c2,0,3.5,0.4,4.5,1.2c1,0.8,1.5,2,1.5,3.6c0,0.9-0.3,1.8-0.8,2.5      c-0.5,0.7-1.2,1.2-2.1,1.5c1.1,0.2,1.9,0.8,2.6,1.6c0.6,0.8,1,1.8,1,2.8c0,1.6-0.5,2.9-1.6,3.8c-1,0.9-2.5,1.4-4.4,1.4H267z       M268.5,181.9h4.2c1.3,0,2.3-0.3,3-0.9c0.7-0.6,1.1-1.4,1.1-2.6c0-1.2-0.4-2-1.1-2.6c-0.7-0.6-1.8-0.8-3.3-0.8h-3.9V181.9z       M268.5,183.2v7.5h4.6c1.3,0,2.4-0.3,3.2-1c0.8-0.7,1.2-1.6,1.2-2.8c0-1.1-0.4-2-1.1-2.7c-0.7-0.7-1.8-1-3.1-1H268.5z"></path>					<path fill="#4A95C7" d="M289.5,183.7l5.6-10h1.8l-6.6,11.4v6.9h-1.5v-6.9l-6.6-11.4h1.8L289.5,183.7z"></path>					<path fill="#4A95C7" d="M323.5,192H322v-8.8h-10.5v8.8h-1.5v-18.3h1.5v8.2H322v-8.2h1.6V192z"></path>					<path fill="#4A95C7" d="M343.8,183.8c0,1.7-0.3,3.2-0.9,4.4c-0.6,1.3-1.4,2.3-2.5,2.9c-1.1,0.7-2.3,1-3.7,1      c-2.1,0-3.9-0.8-5.2-2.3c-1.3-1.5-2-3.6-2-6.2v-1.9c0-1.7,0.3-3.1,0.9-4.4c0.6-1.3,1.4-2.3,2.5-3c1.1-0.7,2.3-1,3.7-1      c1.4,0,2.7,0.3,3.7,1c1.1,0.7,1.9,1.6,2.5,2.9c0.6,1.2,0.9,2.7,0.9,4.3V183.8z M342.2,181.9c0-2.2-0.5-3.9-1.5-5.2      c-1-1.2-2.4-1.9-4.1-1.9c-1.7,0-3.1,0.6-4.1,1.9c-1,1.3-1.5,3-1.5,5.3v1.9c0,2.2,0.5,3.9,1.5,5.2c1,1.3,2.4,1.9,4.1,1.9      c1.8,0,3.1-0.6,4.1-1.9c1-1.3,1.5-3,1.5-5.2V181.9z"></path>					<path fill="#4A95C7" d="M360.1,187.5c0-1-0.4-1.8-1.1-2.4c-0.7-0.6-2-1.2-3.9-1.7c-1.9-0.5-3.3-1.1-4.2-1.7      c-1.2-0.9-1.9-2.1-1.9-3.5c0-1.4,0.6-2.5,1.7-3.4c1.2-0.9,2.6-1.3,4.4-1.3c1.2,0,2.3,0.2,3.3,0.7c1,0.5,1.7,1.1,2.2,2      c0.5,0.8,0.8,1.8,0.8,2.8H360c0-1.3-0.4-2.3-1.3-3c-0.9-0.8-2-1.1-3.4-1.1c-1.4,0-2.5,0.3-3.3,0.9c-0.8,0.6-1.2,1.4-1.2,2.5      c0,0.9,0.4,1.7,1.1,2.3c0.7,0.6,1.9,1.1,3.6,1.6c1.6,0.4,2.9,0.9,3.7,1.4c0.8,0.5,1.5,1.1,1.9,1.7c0.4,0.7,0.6,1.5,0.6,2.4      c0,1.4-0.6,2.6-1.7,3.5c-1.2,0.9-2.7,1.3-4.6,1.3c-1.3,0-2.5-0.2-3.6-0.7c-1.1-0.5-1.9-1.1-2.5-1.9c-0.6-0.8-0.8-1.8-0.8-2.9      h1.5c0,1.3,0.5,2.3,1.4,3.1c1,0.7,2.2,1.1,3.8,1.1c1.4,0,2.6-0.3,3.4-0.9C359.7,189.4,360.1,188.6,360.1,187.5z"></path>					<path fill="#4A95C7" d="M368.6,184.6v7.5H367v-18.3h6.2c1.9,0,3.4,0.5,4.5,1.5c1.1,1,1.7,2.3,1.7,4c0,1.7-0.5,3-1.6,4      c-1.1,0.9-2.6,1.4-4.6,1.4H368.6z M368.6,183.2h4.7c1.5,0,2.6-0.4,3.4-1.1c0.8-0.7,1.2-1.7,1.2-3c0-1.3-0.4-2.3-1.2-3      c-0.8-0.8-1.9-1.1-3.3-1.2h-4.8V183.2z"></path>					<path fill="#4A95C7" d="M386.9,192h-1.5v-18.3h1.5V192z"></path>					<path fill="#4A95C7" d="M406.3,175H400v17h-1.5v-17h-6.3v-1.3h14.1V175z"></path>					<path fill="#4A95C7" d="M420.2,186.9h-8.3L410,192h-1.6l6.9-18.3h1.5l6.9,18.3h-1.6L420.2,186.9z M412.4,185.6h7.3l-3.7-10      L412.4,185.6z"></path>					<path fill="#4A95C7" d="M430.1,190.7h9v1.3h-10.6v-18.3h1.6V190.7z"></path>					<path fill="#4A95C7" d="M454.5,173.7l6.8,16.2l6.8-16.2h2.1V192h-1.5v-8l0.1-8.2l-6.8,16.2h-1.2l-6.8-16.1l0.1,8.1v8h-1.5      v-18.3H454.5z"></path>					<path fill="#4A95C7" d="M486.9,183.2h-8.6v7.5h9.9v1.3h-11.4v-18.3h11.3v1.3h-9.8v6.9h8.6V183.2z"></path>					<path fill="#4A95C7" d="M493.5,192v-18.3h5.1c1.5,0,2.8,0.3,4,1c1.2,0.7,2.1,1.7,2.8,2.9c0.7,1.3,1,2.7,1,4.4v1.7      c0,1.6-0.3,3.1-1,4.4c-0.7,1.3-1.6,2.2-2.8,2.9c-1.2,0.7-2.6,1-4.1,1H493.5z M495.1,175v15.7h3.5c1.9,0,3.5-0.6,4.6-1.9      c1.2-1.3,1.7-3,1.7-5.2V182c0-2.1-0.6-3.8-1.7-5.1c-1.1-1.3-2.7-1.9-4.5-1.9H495.1z"></path>					<path fill="#4A95C7" d="M514.3,192h-1.5v-18.3h1.5V192z"></path>					<path fill="#4A95C7" d="M534.3,186.3c-0.2,1.9-0.9,3.4-2.1,4.4c-1.2,1-2.7,1.5-4.7,1.5c-1.4,0-2.6-0.3-3.6-1      c-1-0.7-1.9-1.6-2.4-2.9c-0.6-1.2-0.9-2.7-0.9-4.3v-2.4c0-1.6,0.3-3.1,0.9-4.3c0.6-1.3,1.4-2.2,2.5-2.9c1.1-0.7,2.3-1,3.7-1      c2,0,3.5,0.5,4.6,1.6c1.1,1.1,1.8,2.5,2,4.4h-1.6c-0.4-3.1-2.1-4.7-5.1-4.7c-1.7,0-3,0.6-4,1.9c-1,1.2-1.5,3-1.5,5.2v2.2      c0,2.1,0.5,3.8,1.4,5.1c1,1.3,2.3,1.9,3.9,1.9c1.6,0,2.8-0.4,3.7-1.2c0.8-0.8,1.3-1.9,1.5-3.5H534.3z"></path>					<path fill="#4A95C7" d="M542.1,192h-1.5v-18.3h1.5V192z"></path>					<path fill="#4A95C7" d="M562.7,192h-1.5l-10.5-15.7V192h-1.6v-18.3h1.6l10.5,15.7v-15.7h1.5V192z"></path>					<path fill="#4A95C7" d="M579.5,183.2H571v7.5h9.9v1.3h-11.4v-18.3h11.3v1.3H571v6.9h8.6V183.2z"></path>					<path fill="#4A95C7" d="M596,184.6v7.5h-1.5v-18.3h6.2c1.9,0,3.4,0.5,4.5,1.5c1.1,1,1.7,2.3,1.7,4c0,1.7-0.5,3-1.6,4      c-1.1,0.9-2.6,1.4-4.6,1.4H596z M596,183.2h4.7c1.5,0,2.6-0.4,3.4-1.1c0.8-0.7,1.2-1.7,1.2-3c0-1.3-0.4-2.3-1.2-3      c-0.8-0.8-1.9-1.1-3.3-1.2H596V183.2z"></path>					<path fill="#4A95C7" d="M620.6,186.9h-8.3l-1.9,5.1h-1.6l6.9-18.3h1.5l6.9,18.3h-1.6L620.6,186.9z M612.7,185.6h7.3l-3.7-10      L612.7,185.6z"></path>					<path fill="#4A95C7" d="M635.7,184.4h-5.3v7.6h-1.6v-18.3h6c2,0,3.5,0.5,4.6,1.4c1.1,0.9,1.6,2.3,1.6,4c0,1.2-0.3,2.2-1,3.1      c-0.7,0.9-1.6,1.5-2.8,1.9l4.6,7.8v0.2h-1.6L635.7,184.4z M630.3,183.1h4.7c1.3,0,2.3-0.4,3.1-1.1s1.2-1.7,1.2-2.9      c0-1.3-0.4-2.3-1.2-3c-0.8-0.7-2-1.1-3.5-1.1h-4.4V183.1z"></path>					<path fill="#4A95C7" d="M658.7,175h-6.3v17h-1.5v-17h-6.3v-1.3h14.1V175z"></path>					<path fill="#4A95C7" d="M677.3,192h-1.5l-10.5-15.7V192h-1.6v-18.3h1.6l10.5,15.7v-15.7h1.5V192z"></path>					<path fill="#4A95C7" d="M694.1,183.2h-8.6v7.5h9.9v1.3H684v-18.3h11.3v1.3h-9.8v6.9h8.6V183.2z"></path>					<path fill="#4A95C7" d="M707.6,184.4h-5.3v7.6h-1.6v-18.3h6c2,0,3.5,0.5,4.6,1.4c1.1,0.9,1.6,2.3,1.6,4c0,1.2-0.3,2.2-1,3.1      c-0.7,0.9-1.6,1.5-2.8,1.9l4.6,7.8v0.2H712L707.6,184.4z M702.3,183.1h4.7c1.3,0,2.3-0.4,3.1-1.1s1.2-1.7,1.2-2.9      c0-1.3-0.4-2.3-1.2-3c-0.8-0.7-2-1.1-3.5-1.1h-4.4V183.1z"></path>					<path fill="#4A95C7" d="M729.5,187.5c0-1-0.4-1.8-1.1-2.4c-0.7-0.6-2-1.2-3.9-1.7c-1.9-0.5-3.3-1.1-4.2-1.7      c-1.2-0.9-1.9-2.1-1.9-3.5c0-1.4,0.6-2.5,1.7-3.4c1.2-0.9,2.6-1.3,4.4-1.3c1.2,0,2.3,0.2,3.3,0.7c1,0.5,1.7,1.1,2.2,2      c0.5,0.8,0.8,1.8,0.8,2.8h-1.6c0-1.3-0.4-2.3-1.3-3c-0.9-0.8-2-1.1-3.4-1.1c-1.4,0-2.5,0.3-3.3,0.9c-0.8,0.6-1.2,1.4-1.2,2.5      c0,0.9,0.4,1.7,1.1,2.3c0.7,0.6,1.9,1.1,3.6,1.6c1.6,0.4,2.9,0.9,3.7,1.4c0.8,0.5,1.5,1.1,1.9,1.7c0.4,0.7,0.6,1.5,0.6,2.4      c0,1.4-0.6,2.6-1.7,3.5c-1.2,0.9-2.7,1.3-4.6,1.3c-1.3,0-2.5-0.2-3.6-0.7c-1.1-0.5-1.9-1.1-2.5-1.9c-0.6-0.8-0.8-1.8-0.8-2.9      h1.5c0,1.3,0.5,2.3,1.4,3.1c1,0.7,2.2,1.1,3.8,1.1c1.4,0,2.6-0.3,3.4-0.9C729.1,189.4,729.5,188.6,729.5,187.5z"></path>					<path fill="#4A95C7" d="M735.8,195.4l-0.9-0.7c0.8-1,1.2-2.1,1.2-3.2v-1.9h1.5v1.6C737.6,193,737,194.4,735.8,195.4z"></path>					<path fill="#4A95C7" d="M753.4,190.7h9v1.3h-10.6v-18.3h1.6V190.7z"></path>					<path fill="#4A95C7" d="M769,190.7h9v1.3h-10.6v-18.3h1.6V190.7z"></path>					<path fill="#4A95C7" d="M796,186.3c-0.2,1.9-0.9,3.4-2.1,4.4c-1.2,1-2.7,1.5-4.7,1.5c-1.4,0-2.6-0.3-3.6-1      c-1-0.7-1.9-1.6-2.4-2.9c-0.6-1.2-0.9-2.7-0.9-4.3v-2.4c0-1.6,0.3-3.1,0.9-4.3c0.6-1.3,1.4-2.2,2.5-2.9s2.3-1,3.7-1      c2,0,3.5,0.5,4.6,1.6c1.1,1.1,1.8,2.5,2,4.4h-1.6c-0.4-3.1-2.1-4.7-5.1-4.7c-1.7,0-3,0.6-4,1.9c-1,1.2-1.5,3-1.5,5.2v2.2      c0,2.1,0.5,3.8,1.4,5.1c1,1.3,2.3,1.9,3.9,1.9c1.6,0,2.8-0.4,3.7-1.2c0.8-0.8,1.3-1.9,1.5-3.5H796z"></path>				</g>			</g>			<g>				<g>					<path fill="#4A95C7" d="M321.8,150.5H308v-28.9h-27.1v28.9H267V83.1h13.9v27.3H308V83.1h13.9V150.5z"></path>					<path fill="#4A95C7" d="M333.1,132.4c0-3.1,0.9-6,2.6-8.7c1.7-2.7,4.9-5.6,9.6-8.8c-2-2.7-3.6-5.2-4.7-7.6      c-1.1-2.4-1.7-4.8-1.7-7.4c0-5.2,1.7-9.5,5-12.8c3.3-3.3,7.8-4.9,13.4-4.9c5,0,9.2,1.5,12.4,4.5c3.2,3,4.8,6.7,4.8,11.2      c0,5.4-2.7,10.1-8.2,14.2l-5.2,3.8l11.6,13.5c1.8-3.6,2.7-7.5,2.7-11.9H387c0,8.8-2,15.9-6.1,21.3l10.1,11.7h-15.2l-3.5-4      c-5,3.3-10.7,4.9-17.1,4.9c-6.7,0-12-1.8-16-5.3C335.2,142.7,333.1,138.1,333.1,132.4z M355.8,140.7c3.2,0,6.3-0.9,9.1-2.7      l-13.3-15.3l-1,0.7c-2.7,2.3-4.1,5.1-4.1,8.3c0,2.7,0.9,4.9,2.6,6.5C350.9,139.8,353.1,140.7,355.8,140.7z M350.9,99.7      c0,2.3,1.4,5.2,4.1,8.8l3.6-2.4c1.8-1.2,3.1-2.3,3.8-3.4c0.7-1.1,1-2.4,1-4c0-1.5-0.6-2.9-1.7-4c-1.1-1.1-2.6-1.7-4.4-1.7      c-1.9,0-3.4,0.6-4.6,1.9C351.5,96.1,350.9,97.7,350.9,99.7z"></path>					<path fill="#4A95C7" d="M413.9,126.8v23.8H400V83.1h26.3c5.1,0,9.5,0.9,13.4,2.8s6.8,4.5,8.9,7.9c2.1,3.4,3.1,7.3,3.1,11.6      c0,6.6-2.3,11.8-6.8,15.6c-4.5,3.8-10.8,5.7-18.8,5.7H413.9z M413.9,115.5h12.4c3.7,0,6.5-0.9,8.4-2.6c1.9-1.7,2.9-4.2,2.9-7.4      c0-3.3-1-6-2.9-8c-1.9-2-4.6-3.1-8.1-3.1h-12.7V115.5z"></path>					<path fill="#4A95C7" d="M488.6,150.5V83.1h23.6c8.2,0,14.4,1.6,18.6,4.7c4.2,3.1,6.3,7.7,6.3,13.8c0,3.3-0.8,6.2-2.5,8.7      s-4.1,4.4-7.1,5.5c3.5,0.9,6.2,2.6,8.2,5.2c2,2.6,3,5.8,3,9.6c0,6.5-2.1,11.4-6.2,14.7c-4.1,3.3-10,5-17.7,5.1H488.6z       M502.5,111.4h10.3c7-0.1,10.5-2.9,10.5-8.4c0-3.1-0.9-5.3-2.7-6.6c-1.8-1.3-4.6-2-8.4-2h-9.7V111.4z M502.5,121.2v18.2h11.9      c3.3,0,5.8-0.8,7.7-2.3c1.8-1.6,2.8-3.7,2.8-6.5c0-6.2-3.2-9.3-9.6-9.4H502.5z"></path>					<path fill="#4A95C7" d="M580.2,145.4c-3.3,4-7.9,6-13.7,6c-5.4,0-9.5-1.5-12.3-4.6c-2.8-3.1-4.3-7.6-4.3-13.6v-32.8h13.4v32.4      c0,5.2,2.4,7.8,7.1,7.8c4.5,0,7.7-1.6,9.4-4.7v-35.5h13.4v50.1h-12.6L580.2,145.4z"></path>					<path fill="#4A95C7" d="M605,87.5c0-2,0.7-3.7,2-5c1.3-1.3,3.2-1.9,5.5-1.9c2.3,0,4.1,0.6,5.5,1.9c1.4,1.3,2,2.9,2,5      c0,2-0.7,3.7-2.1,5c-1.4,1.3-3.2,1.9-5.4,1.9c-2.3,0-4.1-0.6-5.4-1.9C605.7,91.2,605,89.5,605,87.5z M619.2,150.5h-13.4v-50.1      h13.4V150.5z"></path>					<path fill="#4A95C7" d="M646.3,150.5h-13.4V79.4h13.4V150.5z"></path>					<path fill="#4A95C7" d="M657.1,125.1c0-7.8,1.8-14,5.3-18.7c3.5-4.6,8.3-6.9,14.4-6.9c4.9,0,8.9,1.8,12.1,5.5V79.4h13.4v71.1      h-12.1l-0.6-5.3c-3.3,4.2-7.6,6.3-12.9,6.3c-5.9,0-10.6-2.3-14.2-7C658.9,139.8,657.1,133.4,657.1,125.1z M670.5,126.1      c0,4.7,0.8,8.3,2.5,10.8c1.6,2.5,4,3.8,7.1,3.8c4.1,0,7.1-1.7,8.8-5.2v-19.8c-1.7-3.5-4.6-5.2-8.7-5.2      C673.7,110.4,670.5,115.6,670.5,126.1z"></path>					<path fill="#4A95C7" d="M737.6,151.5c-7.3,0-13.3-2.3-17.9-6.8c-4.6-4.5-6.9-10.5-6.9-18v-1.3c0-5,1-9.5,2.9-13.5      c1.9-4,4.7-7,8.3-9.2c3.6-2.1,7.6-3.2,12.2-3.2c6.9,0,12.2,2.2,16.2,6.5c3.9,4.3,5.9,10.5,5.9,18.4v5.5h-31.9      c0.4,3.3,1.7,5.9,3.9,7.9c2.2,2,4.9,3,8.3,3c5.2,0,9.2-1.9,12.1-5.6l6.6,7.4c-2,2.8-4.7,5.1-8.2,6.6      C745.6,150.7,741.8,151.5,737.6,151.5z M736.1,110.3c-2.7,0-4.8,0.9-6.5,2.7c-1.7,1.8-2.7,4.4-3.2,7.7h18.6v-1.1      c-0.1-3-0.9-5.3-2.4-6.9C741.1,111.1,738.9,110.3,736.1,110.3z"></path>					<path fill="#4A95C7" d="M795.9,113c-1.8-0.2-3.4-0.4-4.8-0.4c-5.1,0-8.4,1.7-10,5.1v32.8h-13.4v-50.1h12.6l0.4,6      c2.7-4.6,6.4-6.9,11.2-6.9c1.5,0,2.9,0.2,4.2,0.6L795.9,113z"></path>				</g>			</g>		</g>	</g>	<g>		<g>			<path fill="#4A95C7" d="M762.9,4.2h-6.1v22.6H754V4.2h-6.1V1.5h15.1V4.2z"></path>			<path fill="#4A95C7" d="M771.7,26.7h-2.9L773,0.1l9.7,21.3l9.9-21.3l3.9,26.7h-2.9l-2.4-17.5l-8.6,18.6l-8.5-18.6L771.7,26.7z"></path>		</g>	</g></g></svg>