<svg xmlns="http://www.w3.org/2000/svg" width="80" height="50" viewBox="0 0 80 50" fill="none"><path d="M39.4429 47C38.3886 46.6872 37.3344 46.3744 36.2801 46.0732C33.2564 45.2275 30.2328 44.3934 27.1975 43.5708C26.9194 43.4897 26.8152 43.3739 26.7804 43.0843C26.3865 38.4271 25.9695 33.7815 25.5524 29.1359C25.1353 24.4903 24.7183 19.8331 24.3012 15.1875C24.1969 14.0405 24.0927 12.882 24 11.6888C34.415 11.6888 44.7952 11.6888 55.2449 11.6888C55.1638 12.5692 55.0943 13.4265 55.0247 14.2954C54.7467 17.4234 54.4571 20.5398 54.179 23.6677C53.8778 27.0274 53.565 30.387 53.2638 33.7583C52.9974 36.8052 52.7193 39.8636 52.4645 42.9105C52.4297 43.316 52.3138 43.5013 51.9084 43.6056C48.0274 44.6598 44.1464 45.7488 40.2654 46.8146C40.1032 46.861 39.9526 46.9305 39.7904 47C39.6746 47 39.5587 47 39.4429 47ZM34.079 22.0574C34.3223 22.0574 34.496 22.0574 34.6698 22.0574C39.1185 22.0574 43.5671 22.0574 48.0274 22.0574C49.0353 22.0574 49.0469 22.0574 49.1511 21.0611C49.2438 20.1111 49.3133 19.1611 49.406 18.1764C42.8489 18.1764 36.3612 18.1764 29.8273 18.1764C29.8504 18.5819 29.8736 18.9642 29.9084 19.3465C30.2096 22.7062 30.5224 26.0774 30.812 29.4371C30.8468 29.8425 30.951 29.9584 31.3565 29.9584C35.5271 29.9468 39.6862 29.9468 43.8568 29.9584C44.0421 29.9584 44.2159 29.9584 44.4244 29.9584C44.2738 31.6035 44.1464 33.1906 43.9842 34.7662C43.9726 34.882 43.7988 35.0442 43.6714 35.079C42.3855 35.4497 41.0995 35.7973 39.8136 36.1332C39.663 36.168 39.4776 36.1448 39.3154 36.0985C38.0758 35.7857 36.8478 35.4381 35.6082 35.1253C35.3418 35.0558 35.2143 34.9515 35.2027 34.6503C35.1448 33.7351 35.0405 32.8315 34.9479 31.9394C33.6272 31.9394 32.3644 31.9394 31.09 31.9394C31.0785 32.0089 31.0669 32.0553 31.0669 32.09C31.2291 33.9784 31.4028 35.8552 31.5534 37.7435C31.5766 38.0332 31.762 38.0795 31.9705 38.1374C34.415 38.8094 36.8594 39.4813 39.3038 40.1532C39.4892 40.1996 39.7093 40.2112 39.8947 40.1648C42.3623 39.4929 44.8183 38.8094 47.2744 38.1374C47.5292 38.0679 47.6451 37.9637 47.6682 37.6856C47.7378 36.6546 47.842 35.6351 47.9347 34.604C48.178 31.8931 48.4213 29.1822 48.6646 26.4829C48.6761 26.3439 48.6646 26.2048 48.6646 26.0311C43.9031 26.0311 39.1764 26.0311 34.4381 26.0311C34.3107 24.6988 34.1948 23.4128 34.079 22.0574ZM46.6024 3C46.6024 4.95787 46.6024 6.91574 46.6024 8.90837C45.9537 8.90837 45.3165 8.90837 44.633 8.90837C44.633 7.98157 44.633 7.07794 44.633 6.1743C44.6098 6.16272 44.575 6.16272 44.5403 6.15113C44.1232 6.78831 43.7062 7.42549 43.2543 8.12059C42.8025 7.42549 42.3855 6.78831 41.8873 6.0237C41.8873 7.05477 41.8873 7.9584 41.8873 8.89679C41.227 8.89679 40.6014 8.89679 39.9526 8.89679C39.941 8.81569 39.9294 8.7346 39.9294 8.6535C39.9178 6.85782 39.9178 5.05055 39.9294 3.25487C39.9294 3.17378 39.9526 3.0811 39.9642 3C40.6593 3 41.3428 3 42.0379 3C42.4318 3.68352 42.8373 4.36704 43.2659 5.09689C43.7177 4.35545 44.1232 3.68352 44.5287 3C45.2238 3 45.9073 3 46.6024 3ZM32.7235 3C32.712 4.7841 32.712 6.57978 32.7004 8.36388C32.7004 8.53765 32.7004 8.69984 32.7004 8.90837C32.0284 8.90837 31.3913 8.90837 30.7193 8.90837C30.7193 8.25961 30.7193 7.63402 30.7193 6.98526C30.0937 6.98526 29.5145 6.98526 28.8889 6.98526C28.8889 7.61085 28.8889 8.24802 28.8889 8.90837C28.2054 8.90837 27.5798 8.90837 26.8615 8.90837C26.8615 6.93891 26.8615 4.96946 26.8615 3C27.5219 3 28.1822 3 28.8425 3C28.8425 3.64876 28.8425 4.29752 28.8425 4.9347C29.5261 4.9347 30.0937 4.9347 30.7425 4.9347C30.7425 4.27435 30.7425 3.63718 30.7425 3C31.4028 3 32.0632 3 32.7235 3ZM39.0142 3C39.0142 3.63718 39.0142 4.27435 39.0142 4.95787C38.4465 4.95787 37.9021 4.95787 37.2996 4.95787C37.2996 6.30174 37.2996 7.58768 37.2996 8.90837C36.6277 8.90837 36.0021 8.90837 35.3302 8.90837C35.3302 7.62243 35.3302 6.32491 35.3302 4.99263C34.7393 4.99263 34.1948 4.99263 33.5808 4.99263C33.5808 4.29752 33.5808 3.64876 33.5808 3C35.3997 3 37.207 3 39.0142 3ZM49.6145 3C49.6145 4.29752 49.6145 5.59505 49.6145 6.9505C50.5298 6.9505 51.4218 6.9505 52.3602 6.9505C52.3602 7.62243 52.3602 8.24802 52.3602 8.90837C50.7962 8.90837 49.2322 8.90837 47.6335 8.90837C47.6335 6.92733 47.6335 4.96946 47.6335 3C48.2938 3 48.9542 3 49.6145 3Z" fill="black"></path></svg>