<svg xmlns="http://www.w3.org/2000/svg" width="80" height="50" viewBox="0 0 80 50" fill="none"><path d="M21.4381 32.2307C21.4808 32.3364 21.5291 32.4341 21.5811 32.5317C21.6052 32.5887 21.6386 32.6476 21.6684 32.7005C21.7166 32.8063 21.7686 32.908 21.8187 33.0097L22.1102 33.5467C22.1641 33.6463 22.2161 33.744 22.2773 33.8416C22.3795 34.0328 22.5001 34.2199 22.606 34.4111C22.6542 34.4905 22.6988 34.5698 22.7526 34.6491C22.9569 34.9969 23.1425 35.2858 23.3412 35.5664C23.4823 35.7759 23.6234 35.9814 23.7756 36.1868C23.8258 36.2641 23.8815 36.3414 23.9335 36.4187L24.3438 36.9638C24.3939 37.0269 24.444 37.1001 24.4979 37.1652C24.6798 37.4052 24.8729 37.6371 25.066 37.873C25.066 37.8771 25.0716 37.8811 25.0753 37.8873C25.3148 38.2168 25.5729 38.5097 25.8551 38.77L25.8625 38.7781C26.011 38.9449 26.1596 39.1097 26.3174 39.2724L26.5049 39.4697C26.711 39.6812 26.9171 39.8907 27.1343 40.0941C27.138 40.0941 27.1399 40.0982 27.1436 40.1002L27.2494 40.2019C27.4388 40.383 27.63 40.562 27.825 40.7288L28.0571 40.9423C28.2149 41.0806 28.3783 41.2108 28.5398 41.3471L28.7923 41.5586C28.965 41.701 29.1488 41.8393 29.3252 41.9776C29.3901 42.0285 29.4551 42.0793 29.522 42.1261L29.5758 42.1729L30.0975 42.5472L30.3203 42.7099C30.5932 42.9011 30.8643 43.0801 31.1354 43.2591C31.2134 43.3018 31.2913 43.3486 31.3637 43.3974C31.5643 43.5235 31.7722 43.6516 31.9746 43.7676C32.086 43.8367 32.2011 43.8957 32.3162 43.9588C32.4555 44.0442 32.6003 44.1276 32.7488 44.213C32.7896 44.2273 32.8231 44.2415 32.8565 44.2618L32.8639 44.2537C32.9252 44.2842 32.9827 44.3168 33.0422 44.3493C33.2649 44.4713 33.497 44.5873 33.7384 44.7012C33.783 44.7215 33.8312 44.7419 33.8795 44.7703C34.1469 44.8985 34.4142 45.0205 34.6908 45.1385C34.754 45.1588 34.8208 45.1934 34.8858 45.2198C35.1364 45.3236 35.3945 45.4294 35.6507 45.529L35.7436 45.5656C36.0276 45.6714 36.308 45.7731 36.5976 45.8687C36.6645 45.889 36.7332 45.9155 36.8037 45.9358C37.0989 46.0335 37.3848 46.1494 37.6838 46.2104C56.7571 49.9998 62.2991 33.7094 62.2991 33.7094C57.6427 40.3199 49.3788 42.0631 41.553 40.1226C41.2634 40.0494 40.9737 39.9477 40.6804 39.8541C40.2663 39.7258 39.8558 39.584 39.4494 39.429L39.6258 39.488L39.5107 39.4392C39.2582 39.3456 39.015 39.2419 38.768 39.1382C38.7076 39.1101 38.6463 39.0843 38.5842 39.0609L38.5638 39.0548C38.2909 38.9348 38.0254 38.8127 37.7617 38.6846C37.7042 38.6642 37.6559 38.6358 37.5984 38.6114C37.2861 38.4623 36.9766 38.3063 36.67 38.1435L36.9262 38.2676C36.8594 38.2352 36.7937 38.1999 36.7294 38.1618C36.5549 38.0723 36.3804 37.9706 36.2096 37.875C36.0795 37.8075 35.9513 37.7356 35.8253 37.6594L35.8624 37.6798C35.6526 37.5577 35.4428 37.4255 35.2311 37.3015C35.168 37.2526 35.0956 37.212 35.0232 37.1672C34.7086 36.9669 34.3978 36.7594 34.0912 36.5448L34.2081 36.6221C34.1295 36.5689 34.0527 36.5126 33.9779 36.4533L33.989 36.4614C33.7895 36.3271 33.5938 36.186 33.4023 36.0383C33.3392 35.9936 33.2817 35.9448 33.2167 35.896C33.0166 35.7464 32.8198 35.5917 32.6263 35.4322L32.6708 35.4668C32.5928 35.3976 32.5093 35.3325 32.4257 35.2654C32.2624 35.1251 32.0971 34.9908 31.9337 34.8444L31.7147 34.6532C31.4812 34.4497 31.2521 34.2401 31.0277 34.0247L31.0258 34.0226L30.3816 33.3819L30.1959 33.1907C30.0437 33.0219 29.8877 32.8612 29.7318 32.6944L29.5517 32.491C29.3594 32.2825 29.1719 32.0688 28.9891 31.8503L28.978 31.8361L28.9464 31.8076C28.7498 31.5711 28.5561 31.3317 28.3653 31.0896C28.3151 31.0265 28.2687 30.9594 28.2167 30.8923L27.7953 30.3329C27.6053 30.0715 27.4196 29.8064 27.2383 29.5376L27.164 29.4237C22.8232 22.9637 21.2525 14.0487 24.7262 6.73438L21.6591 10.9834C17.7137 17.1648 18.202 25.2032 21.219 31.7669C21.2877 31.9276 21.3639 32.0781 21.4381 32.2307V32.2307Z" fill="black"></path><path d="M34.7246 23.3265L34.7042 23.2939L34.6875 23.2695L34.7246 23.3265Z" fill="black"></path><path d="M36.802 25.9948L36.9691 26.1778C37.1808 26.4016 37.398 26.6192 37.6189 26.8368L37.6468 26.8633C37.8696 27.0789 38.1202 27.3047 38.3783 27.5243L38.4173 27.5569C38.4804 27.6037 38.5342 27.6586 38.5955 27.7054C38.8554 27.925 39.1172 28.1345 39.3902 28.344L39.418 28.3623C39.5331 28.4539 39.6557 28.5373 39.7856 28.6268C39.8376 28.6634 39.897 28.7122 39.9527 28.7488C40.1495 28.8871 40.3426 29.0153 40.5413 29.1475C40.5728 29.1617 40.6007 29.18 40.6304 29.1943C40.7975 29.3061 40.9794 29.4139 41.154 29.5116C41.2152 29.5522 41.2746 29.5827 41.3378 29.6214C41.4622 29.6885 41.5847 29.7597 41.7035 29.8289L41.7629 29.8573C42.0136 29.9916 42.2698 30.1177 42.5205 30.2418C42.5836 30.2682 42.6374 30.2906 42.6913 30.3191C42.8974 30.4167 43.1072 30.5103 43.3132 30.5957C43.4061 30.6303 43.4933 30.6709 43.5806 30.7015C43.77 30.7787 43.9686 30.8499 44.1562 30.9211L44.4161 31.0127C44.6872 31.1042 44.9619 31.2242 45.2497 31.273C59.9785 33.9294 63.3873 21.5688 63.3873 21.5688C60.3182 26.3833 54.3788 28.6776 48.0495 26.8857C47.7336 26.7984 47.4203 26.7 47.1101 26.5907L47.2159 26.6233C47.1268 26.5968 47.0488 26.5663 46.9634 26.5378C46.7703 26.4646 46.5717 26.3934 46.3841 26.3182L46.1168 26.2083C45.9088 26.1168 45.6972 26.0314 45.4948 25.9337C45.4317 25.9032 45.3741 25.8829 45.3258 25.8524C45.0659 25.7242 44.8041 25.5981 44.5498 25.4639L44.1673 25.2462L43.9464 25.1242C43.7755 25.0266 43.6177 24.9249 43.4543 24.8211C43.4127 24.7997 43.3724 24.7752 43.3337 24.7479L43.3392 24.7499C43.1424 24.6157 42.9382 24.4855 42.7488 24.3492C42.6857 24.3106 42.6281 24.2638 42.5687 24.2231L42.1825 23.9485C41.9152 23.7451 41.6534 23.5275 41.3879 23.316C41.3285 23.257 41.2709 23.2082 41.2134 23.1553C38.4303 20.7694 36.2357 17.5089 35.1941 13.8171C34.0969 9.97897 34.3382 5.67501 36.2339 2.18262L33.9038 5.77874C31.0427 10.2556 31.2042 16.2397 33.4322 20.9748C33.8388 21.8494 34.251 22.5878 34.7058 23.2916C35.1292 23.9546 35.597 24.7316 36.1615 25.2645C36.362 25.5147 36.5773 25.7527 36.802 25.9948V25.9948Z" fill="black"></path><path d="M23.3485 35.5787L23.3411 35.5665L23.3281 35.5482L23.3485 35.5787ZM31.0685 34.0654L31.087 34.0797L31.0907 34.0858L31.0685 34.0654Z" fill="black"></path><path d="M44.2016 1.88553C42.5139 4.58466 42.3524 7.9367 43.5146 10.9125C44.7493 14.0733 47.2725 16.5548 50.2134 17.7305C50.3341 17.7813 50.4511 17.824 50.5755 17.8728L50.7388 17.9278C50.9097 17.9867 51.0823 18.0559 51.2587 18.0986C59.3927 19.8092 61.5946 13.5465 62.1869 12.6251C60.2504 15.6558 57.0032 16.3839 53.0188 15.3283C52.6724 15.2357 52.3313 15.1203 51.9976 14.9825L52.0589 15.0049C51.6437 14.8475 51.237 14.6641 50.841 14.4557L50.9115 14.4903C50.1503 14.0835 49.4967 13.6441 48.8896 13.1397C45.3286 10.1904 43.1266 4.57449 45.4511 0L44.2016 1.88553Z" fill="black"></path></svg>