<svg xmlns="http://www.w3.org/2000/svg" width="80" height="50" viewBox="0 0 80 50" fill="none"><path d="M40.4706 32.7001C41.8306 31.9201 43.1606 31.1501 44.5206 30.3701C44.5706 30.4501 44.6106 30.5101 44.6606 30.5801C45.3006 31.5601 46.0506 32.4201 47.1506 32.8901C48.5506 33.4901 49.9706 33.5701 51.3906 32.9601C52.6206 32.4301 53.1306 31.1801 52.6406 30.0001C52.4206 29.4801 52.0406 29.0801 51.5506 28.8301C50.6606 28.3601 49.7506 27.9201 48.8206 27.5101C47.6306 26.9801 46.4206 26.5001 45.3206 25.7801C44.0206 24.9401 42.9506 23.9001 42.4306 22.4201C41.7106 20.3401 41.7306 18.2901 42.8906 16.3501C43.7506 14.9001 45.0706 13.9901 46.7006 13.5501C48.8606 12.9601 51.0106 13.0201 53.0806 13.9501C54.5406 14.6101 55.5406 15.7601 56.3306 17.1401C55.0406 17.9601 53.7606 18.7701 52.4706 19.5901C52.3006 19.3401 52.1506 19.1001 51.9806 18.8601C51.1306 17.7001 49.9706 17.2901 48.5706 17.5701C47.7206 17.7501 47.1206 18.2501 46.9406 19.1201C46.7506 19.9901 46.9606 20.7701 47.6706 21.3601C48.2406 21.8401 48.9106 22.1401 49.5806 22.4401C50.8506 23.0101 52.1406 23.5701 53.4006 24.1801C54.3906 24.6701 55.2906 25.3001 56.0506 26.1101C57.1006 27.1901 57.6206 28.5101 57.7606 29.9901C57.8706 31.2001 57.7706 32.3901 57.2906 33.5301C56.6106 35.1701 55.3806 36.2601 53.7606 36.9501C52.1506 37.6301 50.4606 37.8101 48.7306 37.7101C47.2406 37.6301 45.8106 37.3001 44.4706 36.6401C42.7106 35.7601 41.3906 34.4501 40.4706 32.7001ZM22.8906 33.2201C24.2306 32.4201 25.5706 31.6101 26.9206 30.8001C26.9706 30.8801 27.0206 30.9501 27.0606 31.0201C27.3106 31.3901 27.5306 31.7801 27.7906 32.1301C28.5206 33.1201 29.5306 33.4601 30.7206 33.3001C31.9406 33.1301 32.5606 32.5001 32.7206 31.2701C32.7806 30.8701 32.8106 30.4601 32.8106 30.0501C32.8106 24.6201 32.8106 19.1901 32.8106 13.7501C32.8106 13.6701 32.8106 13.5801 32.8106 13.4801C34.4706 13.4801 36.1106 13.4801 37.7806 13.4801C37.7806 13.5601 37.7806 13.6401 37.7806 13.7201C37.7806 19.2001 37.7806 24.6701 37.7806 30.1501C37.7806 31.3501 37.6606 32.5301 37.2206 33.6701C36.4906 35.5501 35.1206 36.7901 33.1706 37.3401C30.9806 37.9501 28.7906 37.9101 26.6806 37.0001C24.9406 36.2601 23.7406 34.9601 22.9206 33.2901C22.9106 33.2801 22.9106 33.2501 22.8906 33.2201Z" fill="black"></path></svg>