<svg xmlns="http://www.w3.org/2000/svg" xmlns:xlink="http://www.w3.org/1999/xlink" x="0px" y="0px" viewBox="0 0 3500 1000" xml:space="preserve"><g id="Layer_5"></g><g id="Layer_3">	<g>		<g>			<path fill="#323E4E" d="M1325.2,793.1v-41.1c-8.7,10.7-16.9,17.1-33.8,27.5c-42.8,22.7-72,22.7-115.5,22.7     c-55.5,0-103.3-21.6-143.4-64.7c-40.1-43.1-60.2-97-60.2-161.5c0-64.6,20.1-118.4,60.2-161.5c40.1-43.1,87.9-64.7,143.4-64.7     c43.4,0,69.1,1.9,109.7,19.3c21.7,11.6,34.3,20.9,39.6,27.8l0-237.2h90.5v633.5H1325.2z M1100.8,676.3     c25.3,26.6,56.4,39.8,93.2,39.8c36.8,0,67.9-13.3,93.2-39.8c25.3-26.5,38-60,38-100.5c0-40.4-12.7-73.9-38-100.5     c-25.3-26.5-56.4-39.8-93.2-39.8c-36.8,0-67.9,13.3-93.2,39.8c-25.3,26.6-38,60-38,100.5C1062.8,616.3,1075.4,649.8,1100.8,676.3     z"></path>			<path fill="#323E4E" d="M1827.3,657.3l54.3,63.4c-11.5,15.1-26.6,28.7-45.3,40.7c-41,27.2-87.8,40.7-140.3,40.7     c-63.4,0-116.9-21.9-160.6-65.6c-43.8-43.7-65.6-97.3-65.6-160.6s21.6-116.9,64.7-160.6c43.1-43.7,95.5-65.6,157-65.6     s112.4,20.1,152.5,60.2c40.1,40.1,60.3,92.1,63.2,152.9c0.3,5.4,1.3,12.2,1,32.6V607l-343.4,0.5c5.4,30.8,20.5,56.6,45.3,77.4     c24.7,20.8,54.9,31.2,90.5,31.2c32.6,0,63.4-9.6,92.3-29C1806.1,678.7,1817.6,668.8,1827.3,657.3z M1564.8,530.6h244.4     c-7.2-30.8-20.8-55-40.7-72.9c-19.9-17.8-45.6-26.7-76.9-26.7C1627.5,431.1,1585.3,464.2,1564.8,530.6z"></path>			<path fill="#323E4E" d="M2558.8,657.3l54.3,63.4c-11.5,15.1-26.6,28.7-45.2,40.7c-41,27.2-87.8,40.7-140.3,40.7     c-63.4,0-116.9-21.9-160.6-65.6c-43.8-43.7-65.6-97.3-65.6-160.6s21.6-116.9,64.7-160.6c43.1-43.7,95.5-65.6,157-65.6     c61.5,0,112.4,20.1,152.5,60.2c40.1,40.1,60.3,92.1,63.2,152.9c0.3,5.4,1.3,12.2,1,32.6V607l-343.4,0.5     c5.4,30.8,20.5,56.6,45.3,77.4c24.7,20.8,54.9,31.2,90.5,31.2c32.6,0,63.4-9.6,92.3-29C2537.6,678.7,2549.1,668.8,2558.8,657.3z      M2296.3,530.6h244.4c-7.2-30.8-20.8-55-40.7-72.9c-19.9-17.8-45.6-26.7-76.9-26.7C2359.1,431.1,2316.8,464.2,2296.3,530.6z"></path>			<path fill="#323E4E" d="M2199.9,152.1v73.6c0,4.5,0.1,8.4,0.1,8.4s-11.9-0.5-13.3-0.5c-10-0.1-9.4-0.6-26.6-0.2     c-50.9,1.1-73.3,25.6-73.3,70.9v54.3h104.1v86h-104.1v348.4h-90.5V444.6h-67.9v-86h67.9v-63.4c0-47.1,14.1-81.9,37.6-106.7     c10.4-10.9,30-24.2,52.6-30.3c28.7-7.7,65.3-8,90.9-7.2L2199.9,152.1z"></path>			<path fill="#323E4E" d="M2922.7,432c-18.7-0.2-33,4.2-42.2,7c-11.9,3.7-20.7,8-24.7,10c-14,7.3-24.3,14-35.8,24.1     c-25.8,22.4-32.2,60.8-32.2,98.2v221.7h-90.5c0,0-3.7-195.4,0-272c3.5-73,56.3-114,57.8-115.3c30.5-28.6,47.5-33.3,64.3-41.4     c16.7-8,30.1-10.9,46.2-13.3c17.1-2.6,31.8-3.9,54.4-3.3c15.1,0.4,21.8,1.8,21.8,1.8l0.2,82.9     C2941.8,432.5,2936.1,432.1,2922.7,432z"></path>			<path fill="#323E4E" d="M3012.5,736.5c-43.8-43.7-65.6-97.3-65.6-160.6s21.9-116.9,65.6-160.6c43.7-43.7,97.3-65.6,160.6-65.6     c63.4,0,116.9,21.9,160.6,65.6c43.7,43.8,65.6,97.3,65.6,160.6s-21.9,116.9-65.6,160.6c-43.8,43.8-97.3,65.6-160.6,65.6     C3109.8,802.1,3056.2,780.2,3012.5,736.5z M3076.3,676.8c25.9,26.2,58.2,39.4,96.8,39.4c38.6,0,70.9-13.1,96.8-39.4     c25.9-26.2,38.9-59.9,38.9-100.9c0-41-13-74.7-38.9-100.9c-25.9-26.2-58.2-39.4-96.8-39.4c-38.6,0-70.9,13.1-96.8,39.4     c-25.9,26.2-38.9,59.9-38.9,100.9C3037.4,616.9,3050.3,650.5,3076.3,676.8z"></path>		</g>		<g>			<linearGradient id="SVGID_1_" gradientUnits="userSpaceOnUse" x1="110.7321" y1="727.2137" x2="821.4516" y2="320.4232">				<stop offset="0.1542" style="stop-color:#9BBE3E"></stop>				<stop offset="0.5625" style="stop-color:#EABD1B"></stop>				<stop offset="0.8906" style="stop-color:#E16E23"></stop>			</linearGradient>			<path fill="url(#SVGID_1_)" d="M804.7,358.1c-0.8-1.8-1.5-3.5-2.3-5.2l0.1-0.1c-18.1-39.7-44.9-79.7-75.9-110.7     c-33.5-33.5-72.5-59.8-116-78.2c-45-19-92.9-28.7-142.1-28.7c-38.7,0-70,31.3-70,70s31.3,70,70,70c60.1,0,116.6,23.4,159.1,65.9     c21.4,21.4,39.3,50.1,50.5,77.3c10.1,25.8,15.3,53.4,15.3,81.9c0,60.1-23.4,116.6-65.9,159.1c-4.4,4.4-11.7,10.3-17.3,14.9     l-0.1-0.1c-40.1,33-90,51-142.7,51c-29,0-57.3-5.5-83.5-15.9l0-0.1c-26.8-11.1-53.4-28.8-74.5-50c-42.5-42.5-65.9-99-65.9-159.1     c0-38.7-31.3-70-70-70c-38.7,0-70,31.3-70,70c0,49.2,9.7,97.1,28.7,142.1c18.4,43.5,44.7,82.5,78.2,116     c32.1,32.1,70.8,58.5,112.1,76.8l-0.1,0.3c1,0.4,2,0.8,3,1.2c45.1,19,92.9,28.7,142.1,28.7s97-9.7,142.1-28.7     c31-13.1,59.6-30.2,85.7-51.1l0-0.1c10.1-8.1,22.5-18.3,31.3-27c33.5-33.5,59.8-72.5,78.2-116c19-45.1,28.7-92.9,28.7-142.1     C833.5,450.9,823.8,403.1,804.7,358.1z"></path>							<linearGradient id="SVGID_2_" gradientUnits="userSpaceOnUse" x1="62.8325" y1="9708.5342" x2="419.5822" y2="9565.6553" gradientTransform="matrix(1 0 0 -1 0 10263.8594)">				<stop offset="0.1907" style="stop-color:#43AD67"></stop>				<stop offset="0.5046" style="stop-color:#5FB35A"></stop>				<stop offset="0.7416" style="stop-color:#84BB49"></stop>				<stop offset="0.8471" style="stop-color:#98BE3F"></stop>				<stop offset="0.9246" style="stop-color:#A1BF3B"></stop>			</linearGradient>			<path fill="url(#SVGID_2_)" d="M383.5,708.6l-58.7,127c-42.3-18.3-82-45.2-114.8-78c-33.5-33.5-59.8-72.5-78.2-116     c-19-45-28.7-92.9-28.7-142.1c0-38.7,31.3-70,70-70s70,31.3,70,70c0,60.1,23.4,116.6,65.9,159.1     C330.1,679.8,356.7,697.5,383.5,708.6z"></path>							<linearGradient id="SVGID_3_" gradientUnits="userSpaceOnUse" x1="324.1427" y1="9492.7051" x2="696.9562" y2="9496.2041" gradientTransform="matrix(1 0 0 -1 0 10263.8594)">				<stop offset="8.965716e-02" style="stop-color:#A1BF3B"></stop>				<stop offset="0.3041" style="stop-color:#C1C02C"></stop>				<stop offset="0.5243" style="stop-color:#DEBE1F"></stop>				<stop offset="0.8647" style="stop-color:#EEBD19"></stop>			</linearGradient>			<path fill="url(#SVGID_3_)" d="M694.9,784.8c-26.1,20.9-54.7,38-85.7,51.1c-45.1,19-92.9,28.7-142.1,28.7     c-49.2,0-97-9.7-142.1-28.7c-1-0.4-2-0.8-3-1.2l58.3-127.3c27.1,11.3,56.5,17.2,86.7,17.2c52.7,0,102.6-18,142.7-51L694.9,784.8z     "></path>							<linearGradient id="SVGID_4_" gradientUnits="userSpaceOnUse" x1="771.0234" y1="9839.8721" x2="672.3749" y2="9487.9277" gradientTransform="matrix(1 0 0 -1 0 10263.8594)">				<stop offset="3.657204e-02" style="stop-color:#E16F23"></stop>				<stop offset="0.2395" style="stop-color:#E6881F"></stop>				<stop offset="0.4195" style="stop-color:#EA971C"></stop>				<stop offset="0.5591" style="stop-color:#EDA71A"></stop>				<stop offset="0.7827" style="stop-color:#EEBD19"></stop>			</linearGradient>			<path fill="url(#SVGID_4_)" d="M833.1,499.6c0,49.2-9.7,97-28.7,142.1c-18.4,43.5-44.7,82.5-78.2,116c-9.7,9.7-23.8,21-34.4,29.5     l-85.1-111c5.7-4.7,15.2-12.2,20.4-17.4c42.5-42.5,65.9-99,65.9-159.1c0-29.8-5.7-58.6-16.7-85.4L800.1,348     c1.4,3.2,2.8,6.3,4.2,9.5C823.4,402.5,833.1,450.3,833.1,499.6z"></path>							<linearGradient id="SVGID_5_" gradientUnits="userSpaceOnUse" x1="444.4252" y1="10102.4834" x2="789.5909" y2="9880.0693" gradientTransform="matrix(1 0 0 -1 0 10263.8594)">				<stop offset="0.1344" style="stop-color:#D53430"></stop>				<stop offset="0.5057" style="stop-color:#D8442C"></stop>				<stop offset="0.8637" style="stop-color:#E16F23"></stop>			</linearGradient>			<path fill="url(#SVGID_5_)" d="M802.1,352.2l-124.2,66.1c-11.2-27.3-29.2-56.3-50.7-77.8c-42.5-42.5-99-65.9-159.1-65.9     c-38.7,0-70-31.3-70-70c0-38.7,31.3-70,70-70c49.2,0,97.1,9.7,142.1,28.7c43.5,18.4,82.5,44.7,116,78.2     C757.2,272.5,784,312.5,802.1,352.2z"></path>		</g>	</g></g><g id="Layer_4">	<g id="Layer_1">	</g></g></svg>