<svg xmlns="http://www.w3.org/2000/svg" width="338" height="338" viewBox="0 0 338 338" fill="none"><path d="M229.594 0.800781H109.013C49.1529 0.800781 0.626343 49.3273 0.626343 109.188V229.601C0.626343 289.461 49.1529 337.988 109.013 337.988H229.594C289.455 337.988 337.981 289.461 337.981 229.601V109.188C337.981 49.3273 289.455 0.800781 229.594 0.800781Z" fill="url(#paint0_linear_75_83)"></path><path fill-rule="evenodd" clip-rule="evenodd" d="M168.35 121.803C180.934 121.678 193.271 125.296 203.795 132.197C214.319 139.097 222.555 148.97 227.457 160.561C232.359 172.151 233.706 184.937 231.327 197.295C228.948 209.653 222.951 221.025 214.096 229.967C205.241 238.91 193.929 245.019 181.595 247.52C169.262 250.02 156.463 248.8 144.825 244.012C133.186 239.225 123.233 231.087 116.229 220.631C109.224 210.176 105.485 197.875 105.485 185.29C105.413 168.538 111.994 152.443 123.781 140.539C135.568 128.635 151.598 121.896 168.35 121.803ZM168.35 107.322C152.905 107.162 137.76 111.597 124.841 120.063C111.922 128.529 101.81 140.644 95.7918 154.869C89.7731 169.094 88.1187 184.787 91.0387 199.955C93.9587 215.123 101.321 229.08 112.191 240.054C123.061 251.028 136.948 258.523 152.087 261.587C167.226 264.651 182.934 263.146 197.216 257.263C211.498 251.38 223.709 241.384 232.297 228.546C240.886 215.708 245.464 200.606 245.451 185.16C245.522 164.622 237.445 144.893 222.992 130.301C208.538 115.708 188.888 107.443 168.35 107.317V107.322ZM210.876 178.44C210.678 181.412 209.616 184.262 207.82 186.638C206.024 189.014 203.573 190.814 200.768 191.815C197.963 192.816 194.926 192.976 192.031 192.274C189.137 191.572 186.51 190.039 184.476 187.864C182.441 185.688 181.086 182.966 180.579 180.031C180.071 177.096 180.432 174.077 181.618 171.344C182.804 168.612 184.763 166.286 187.253 164.652C189.744 163.019 192.658 162.149 195.636 162.15C197.665 162.148 199.671 162.573 201.524 163.397C203.378 164.222 205.037 165.427 206.394 166.935C205.464 166.154 204.28 165.74 203.066 165.77C201.993 165.762 200.941 166.074 200.045 166.665C199.149 167.256 198.449 168.099 198.033 169.089C197.617 170.079 197.504 171.169 197.709 172.223C197.913 173.277 198.427 174.246 199.183 175.008C199.939 175.769 200.905 176.289 201.957 176.502C203.009 176.714 204.101 176.609 205.093 176.2C206.086 175.791 206.935 175.096 207.532 174.204C208.129 173.312 208.448 172.263 208.448 171.189C208.463 170.385 208.289 169.588 207.938 168.864C209.9 171.666 210.928 175.015 210.876 178.435V178.44ZM155.674 178.44C155.475 181.462 154.398 184.36 152.573 186.778C150.749 189.195 148.258 191.026 145.406 192.046C142.555 193.066 139.467 193.23 136.524 192.518C133.58 191.806 130.909 190.249 128.839 188.038C126.769 185.828 125.39 183.06 124.872 180.076C124.355 177.092 124.721 174.022 125.925 171.244C127.13 168.465 129.121 166.099 131.652 164.437C134.184 162.775 137.146 161.89 140.175 161.89C142.252 161.894 144.305 162.334 146.202 163.181C148.098 164.027 149.797 165.262 151.187 166.805C150.257 166.024 149.073 165.61 147.859 165.64C146.757 165.629 145.677 165.946 144.756 166.55C143.834 167.155 143.113 168.02 142.684 169.035C142.255 170.05 142.137 171.169 142.345 172.251C142.554 173.333 143.079 174.329 143.854 175.112C144.63 175.895 145.62 176.43 146.7 176.649C147.78 176.868 148.901 176.761 149.92 176.342C150.939 175.923 151.811 175.21 152.425 174.295C153.038 173.379 153.365 172.302 153.365 171.2C153.393 170.394 153.216 169.594 152.851 168.875C154.735 171.704 155.719 175.036 155.674 178.435V178.44ZM86.0029 185.29C85.9722 191.912 86.7456 198.512 88.3061 204.946C81.1052 198.929 75.921 190.849 73.4517 181.795C76.145 171.618 82.3636 162.728 90.9995 156.709C87.6931 165.875 86.0024 175.546 86.0029 185.29ZM146.196 106.027C130.354 110.139 116.117 118.926 105.339 131.243C105.9 123.98 108.231 116.966 112.13 110.812C111.962 106.333 110.027 102.103 106.748 99.0468C105.913 99.2677 105.048 99.3555 104.185 99.307C102.16 99.3263 100.176 98.7436 98.4831 97.633C96.7904 96.5223 95.4658 94.9337 94.6777 93.0689C93.8895 91.204 93.6732 89.147 94.0563 87.159C94.4394 85.171 95.4046 83.3417 96.8293 81.9033C98.254 80.4648 100.074 79.4822 102.058 79.08C104.042 78.6779 106.101 78.8744 107.974 79.6446C109.846 80.4149 111.447 81.7241 112.574 83.4061C113.701 85.088 114.303 87.0669 114.303 89.0915C114.295 91.2644 113.626 93.3835 112.384 95.1666C113.284 97.1987 114.589 99.0262 116.219 100.538C117.848 102.049 119.769 103.212 121.863 103.957C130.011 102.428 138.422 103.144 146.196 106.027ZM243.148 89.227C243.155 91.9216 242.095 94.5094 240.198 96.424C238.302 98.3385 235.725 99.4238 233.03 99.4425C232.17 99.4201 231.313 99.3331 230.467 99.1823C228.63 100.933 227.204 103.07 226.293 105.438C225.381 107.806 225.006 110.347 225.194 112.877C228.386 118.561 230.309 124.869 230.83 131.368C220.052 119.051 205.815 110.264 189.973 106.152C197.904 103.113 206.555 102.484 214.843 104.342C217.016 103.583 219.011 102.389 220.707 100.833C222.403 99.2772 223.764 97.3913 224.706 95.2912C223.407 93.5364 222.73 91.3987 222.782 89.2161C222.782 86.5154 223.855 83.9254 225.765 82.0157C227.674 80.106 230.264 79.0332 232.965 79.0332C235.666 79.0332 238.256 80.106 240.165 82.0157C242.075 83.9254 243.148 86.5154 243.148 89.2161V89.227ZM263.129 181.795C260.659 190.847 255.475 198.925 248.275 204.941C249.82 198.504 250.593 191.905 250.578 185.285C250.577 175.542 248.887 165.874 245.581 156.709C254.144 162.801 260.343 171.662 263.129 181.795Z" fill="white"></path><defs><linearGradient id="paint0_linear_75_83" x1="0.62634" y1="51.2821" x2="337.987" y2="287.501" gradientUnits="userSpaceOnUse"><stop stop-color="#2498FC"></stop><stop offset="1" stop-color="#9B31FF"></stop></linearGradient></defs></svg>