<svg xmlns="http://www.w3.org/2000/svg" width="175" height="32" viewBox="0 0 175 32" fill="none"><g clip-path="url(#clip0)"><path d="M22.485 9.30005H20.942V9.12005C20.942 6.42005 20.907 4.35005 19.749 3.12005C19.012 2.38305 17.925 1.96205 15.715 1.96205H6.805V11.1201H11.225C13.925 11.1201 14.417 10.2431 14.417 6.59505V6.24405H15.785V17.8201H14.417V17.3641C14.417 13.8211 13.926 12.6281 11.225 12.6281H6.805V22.7281H15.575C16.8261 22.8518 18.0853 22.5949 19.188 21.9911C20.907 20.8331 20.942 18.5181 20.942 14.9051V14.7301H22.485V24.2361H0V22.7311H2.876C3.09317 22.759 3.31377 22.7423 3.52425 22.682C3.73473 22.6216 3.93066 22.5189 4.1 22.3801C4.346 22.1341 4.346 21.8191 4.346 21.0801V3.61305C4.346 2.87605 4.346 2.56105 4.1 2.31305C3.93017 2.17372 3.73358 2.07069 3.52237 2.01032C3.31116 1.94995 3.08981 1.93352 2.872 1.96205H0V0.456055H22.485V9.30005Z" fill="#1A2E2C"></path><path d="M29.0811 3.54305C29.0811 2.80605 29.0811 2.49005 28.8351 2.24305C28.6655 2.10336 28.469 2.0001 28.2577 1.93971C28.0464 1.87933 27.825 1.8631 27.6071 1.89205H25.3271V0.456055H31.3271V21.1561C31.3271 21.8931 31.3271 22.2081 31.5721 22.4561C31.7423 22.5945 31.9391 22.6965 32.1504 22.7557C32.3616 22.8149 32.5828 22.83 32.8001 22.8001H35.0802V24.2381H25.3271V22.8001H27.6071C27.825 22.829 28.0464 22.8128 28.2577 22.7524C28.469 22.692 28.6655 22.5887 28.8351 22.4491C29.0811 22.2031 29.0811 21.8881 29.0811 21.1491V3.54305Z" fill="#1A2E2C"></path><path d="M39.4641 15.8199C39.5691 21.0119 41.5331 23.2919 45.1811 23.2919C48.5811 23.2919 50.1971 21.4329 50.9341 18.8019H52.8281C51.8811 22.3449 49.4611 24.8019 45.0761 24.8019C40.1301 24.8019 36.9761 21.6799 36.9761 15.9269C36.9761 10.4899 40.0631 6.98291 45.2541 6.98291C50.8671 6.98291 52.8661 11.2269 52.8661 15.7169V15.8219L39.4641 15.8199ZM50.3731 14.3819C50.2731 10.4529 48.4441 8.34791 45.2511 8.34791C41.5681 8.34791 39.8141 10.8039 39.5341 14.3819H50.3731Z" fill="#1A2E2C"></path><path d="M64.6852 7.3999H72.7532V8.8399H72.5782C72.0113 8.74254 71.4288 8.87184 70.9562 9.19994C70.4837 9.52804 70.1591 10.0287 70.0522 10.5939L64.1592 24.5199H62.4402L56.7582 10.6999C56.2002 9.3999 55.9862 8.8399 54.3002 8.8399H53.9492V7.3999H62.9642V8.8399H60.0552C59.7629 8.80422 59.4671 8.86571 59.2132 9.0149C59.1062 9.08812 59.0205 9.18846 58.965 9.30566C58.9095 9.42286 58.8861 9.5527 58.8972 9.6819C58.9836 10.3549 59.1867 11.0076 59.4972 11.6109L62.7592 19.6789C63.0042 20.3449 63.3902 21.1519 63.6712 21.9589H63.7002C63.9812 21.2219 64.3002 20.5909 64.6822 19.6439L67.9092 11.6439C68.2123 11.0253 68.4149 10.3623 68.5092 9.6799C68.5219 9.47727 68.4592 9.27711 68.3332 9.1179C68.0654 8.90612 67.7262 8.80583 67.3862 8.8379H64.6862L64.6852 7.3999Z" fill="#1A2E2C"></path><path d="M78.0498 10.4882C78.0498 9.75219 78.0498 9.43619 77.8048 9.18819C77.6348 9.04924 77.4381 8.94652 77.227 8.88633C77.0158 8.82614 76.7945 8.80976 76.5768 8.83819H74.2998V7.40019H80.2998V21.1522C80.2998 21.8892 80.2998 22.2042 80.5458 22.4522C80.7154 22.5919 80.912 22.6951 81.1233 22.7555C81.3345 22.8159 81.556 22.8321 81.7738 22.8032H84.0538V24.2412H74.2998V22.8002H76.5798C76.7976 22.8288 77.019 22.8124 77.2302 22.752C77.4414 22.6916 77.638 22.5886 77.8078 22.4492C78.0528 22.2032 78.0528 21.8882 78.0528 21.1492L78.0498 10.4882ZM79.0678 0.000189357C79.295 -0.005292 79.521 0.035425 79.7321 0.119872C79.9431 0.20432 80.1348 0.330739 80.2955 0.491469C80.4563 0.652198 80.5827 0.84389 80.6671 1.05493C80.7516 1.26596 80.7923 1.49195 80.7868 1.71919C80.7923 1.94643 80.7516 2.17242 80.6671 2.38345C80.5827 2.59449 80.4563 2.78618 80.2955 2.94691C80.1348 3.10764 79.9431 3.23406 79.7321 3.31851C79.521 3.40295 79.295 3.44367 79.0678 3.43819C78.8398 3.44675 78.6124 3.40814 78.4 3.32478C78.1875 3.24142 77.9946 3.1151 77.8333 2.95374C77.6719 2.79238 77.5456 2.59944 77.4622 2.38701C77.3789 2.17458 77.3402 1.94723 77.3488 1.71919C77.3402 1.49115 77.3789 1.2638 77.4622 1.05137C77.5456 0.838938 77.6719 0.646003 77.8333 0.48464C77.9946 0.323278 78.1875 0.196964 78.4 0.113604C78.6124 0.0302435 78.8398 -0.0083669 79.0678 0.000189357Z" fill="#1A2E2C"></path><path d="M100.676 12.6278C100.676 10.1378 99.588 8.69881 96.782 8.69881C96.0722 8.68067 95.3662 8.8071 94.7069 9.0704C94.0475 9.3337 93.4486 9.72836 92.9466 10.2304C92.4445 10.7324 92.0499 11.3313 91.7866 11.9907C91.5233 12.65 91.3969 13.3561 91.415 14.0658V21.1518C91.415 21.8888 91.415 22.2038 91.661 22.4518C91.8306 22.5915 92.0272 22.6948 92.2384 22.7551C92.4497 22.8155 92.6712 22.8318 92.889 22.8028H95.169V24.2408H85.417V22.7998H87.7C87.9178 22.8284 88.1392 22.812 88.3504 22.7516C88.5616 22.6913 88.7582 22.5882 88.928 22.4488C89.173 22.2028 89.173 21.8878 89.173 21.1488V10.4878C89.173 9.75181 89.173 9.43581 88.928 9.18781C88.7578 9.04921 88.5611 8.94685 88.3499 8.88701C88.1388 8.82716 87.9176 8.8111 87.7 8.83981H85.42V7.39981H91.348V9.99981H91.453C92.1415 9.02291 93.0646 8.23474 94.1373 7.70774C95.21 7.18073 96.398 6.9318 97.592 6.98381C101.275 6.98381 102.924 8.98381 102.924 12.3148V21.1548C102.924 21.8918 102.924 22.2068 103.17 22.4548C103.339 22.5944 103.536 22.6976 103.747 22.7579C103.958 22.8183 104.179 22.8346 104.397 22.8058H106.607V24.2438H96.922V22.7998H99.2C99.4176 22.8286 99.6389 22.8123 99.85 22.7519C100.061 22.6916 100.258 22.5884 100.427 22.4488C100.673 22.2028 100.673 21.8878 100.673 21.1488L100.676 12.6278Z" fill="#1A2E2C"></path><path d="M121.653 8.875C122.131 8.25923 122.742 7.7595 123.441 7.41318C124.139 7.06685 124.907 6.88287 125.687 6.875C126.534 6.82146 127.372 7.08404 128.037 7.612C128.314 7.8568 128.533 8.1599 128.678 8.4995C128.824 8.8391 128.892 9.20675 128.879 9.576C128.898 9.82958 128.862 10.0842 128.773 10.3226C128.685 10.561 128.546 10.7775 128.366 10.9573C128.186 11.1372 127.97 11.2761 127.731 11.3648C127.493 11.4534 127.239 11.4897 126.985 11.471C126.765 11.4952 126.543 11.4721 126.333 11.4032C126.123 11.3343 125.93 11.2214 125.767 11.0718C125.604 10.9222 125.475 10.7396 125.389 10.5361C125.302 10.3326 125.26 10.113 125.266 9.892C125.265 9.51549 125.405 9.15232 125.658 8.87346C125.911 8.5946 126.259 8.42008 126.634 8.384V8.348C126.309 8.14428 125.929 8.04644 125.547 8.068C124.954 8.10005 124.374 8.25355 123.843 8.51898C123.312 8.7844 122.841 9.15609 122.46 9.611C123.178 10.6654 123.557 11.9135 123.547 13.189C123.547 16.557 121.688 19.433 116.602 19.433C115.242 19.4929 113.889 19.203 112.673 18.591C112.247 18.6489 111.855 18.8513 111.561 19.1642C111.267 19.4772 111.09 19.8818 111.059 20.31C111.059 21.257 111.48 22.029 114.672 22.029H120.672C123.618 22.029 126.46 22.52 126.46 25.537C126.46 28.937 123.303 31.325 116.813 31.325C110.813 31.325 108.254 29.606 108.254 27.256C108.254 25.607 109.762 24.52 111.832 24.099V23.958C110.253 23.678 108.745 22.941 108.745 21.187C108.745 19.398 110.113 18.587 111.832 18.135C111.078 17.5607 110.478 16.8082 110.086 15.945C109.694 15.0817 109.523 14.1348 109.587 13.189C109.587 9.05 112.779 6.981 116.603 6.981C117.529 6.94176 118.453 7.08923 119.32 7.41462C120.188 7.74001 120.981 8.23666 121.653 8.875ZM113.831 24.064C113.448 24.0462 113.065 24.105 112.704 24.2371C112.344 24.3691 112.014 24.5718 111.733 24.8331C111.452 25.0944 111.226 25.4092 111.068 25.7589C110.91 26.1087 110.824 26.4864 110.814 26.87C110.814 28.834 112.883 30.062 117.058 30.062C121.653 30.062 124.214 28.904 124.214 26.379C124.214 24.414 122.53 24.064 119.653 24.064H113.831ZM120.986 13.154C120.986 9.822 119.408 8.173 116.602 8.173C113.69 8.173 112.147 9.822 112.147 13.154C112.147 16.522 113.69 18.276 116.602 18.276C119.408 18.276 120.986 16.522 120.986 13.154Z" fill="#1A2E2C"></path><path d="M138.85 6.69121C139.302 6.72328 139.754 6.63192 140.158 6.4269C140.562 6.22188 140.903 5.9109 141.144 5.52721L141.235 6.52721H141.842V3.43221H138.949V4.11421H141.111V4.18821C141.099 4.45203 141.033 4.71058 140.917 4.94771C140.801 5.18483 140.637 5.39543 140.436 5.56634C140.234 5.73725 140 5.86479 139.747 5.94099C139.494 6.0172 139.228 6.04042 138.966 6.00921C138.648 6.02434 138.33 5.97111 138.034 5.8531C137.738 5.73509 137.471 5.55503 137.25 5.32506C137.03 5.09509 136.861 4.82054 136.756 4.51991C136.65 4.21927 136.611 3.89953 136.639 3.58221C136.607 3.26407 136.644 2.94281 136.748 2.64031C136.851 2.3378 137.019 2.06116 137.239 1.82923C137.459 1.5973 137.727 1.41552 138.023 1.29627C138.32 1.17702 138.639 1.12311 138.958 1.13821C139.39 1.09182 139.825 1.19579 140.189 1.43259C140.554 1.66939 140.825 2.02455 140.958 2.43821L141.781 2.30521C141.605 1.72152 141.231 1.21747 140.723 0.879951C140.216 0.542428 139.606 0.392571 139 0.456208C138.578 0.421232 138.154 0.477252 137.756 0.620473C137.358 0.763695 136.995 0.990775 136.693 1.28634C136.39 1.5819 136.154 1.93905 136.002 2.3336C135.849 2.72815 135.783 3.15089 135.808 3.57321C135.778 3.98388 135.835 4.39626 135.977 4.78308C136.118 5.16989 136.34 5.52232 136.627 5.81706C136.915 6.1118 137.262 6.34213 137.645 6.49282C138.028 6.64351 138.439 6.71113 138.85 6.69121Z" fill="#1A2E2C"></path><path d="M149.124 6.52407H150.08L148.467 3.98907C148.861 3.93775 149.221 3.74326 149.481 3.44277C149.74 3.14227 149.879 2.75683 149.872 2.36007C149.872 1.52007 149.431 0.62207 147.852 0.62207H144.976V6.52207H145.79V4.10007H147.57L149.124 6.52407ZM145.79 1.30007H147.744C148.708 1.30007 149.016 1.79007 149.016 2.34707C149.016 2.90407 148.708 3.42007 147.736 3.42007H145.79V1.30007Z" fill="#1A2E2C"></path><path d="M155.483 6.69076C155.905 6.72445 156.329 6.66756 156.727 6.52393C157.125 6.38029 157.488 6.15322 157.791 5.85794C158.094 5.56266 158.33 5.206 158.484 4.81187C158.638 4.41775 158.706 3.99527 158.683 3.57276C158.642 2.75279 158.287 1.97995 157.692 1.41411C157.098 0.84827 156.308 0.532715 155.487 0.532715C154.666 0.532715 153.876 0.84827 153.282 1.41411C152.687 1.97995 152.332 2.75279 152.291 3.57276C152.269 3.9943 152.338 4.4156 152.492 4.80867C152.645 5.20174 152.881 5.55757 153.183 5.85251C153.485 6.14744 153.846 6.37473 154.243 6.51927C154.639 6.6638 155.062 6.72226 155.483 6.69076ZM155.483 6.00876C155.163 6.02439 154.844 5.97126 154.547 5.85297C154.25 5.73467 153.981 5.55396 153.76 5.32305C153.539 5.09214 153.369 4.8164 153.263 4.51445C153.158 4.2125 153.118 3.89138 153.147 3.57276C153.136 3.25889 153.188 2.94596 153.3 2.65266C153.413 2.35937 153.583 2.09172 153.801 1.86569C154.019 1.63966 154.28 1.45988 154.569 1.3371C154.859 1.21431 155.169 1.15103 155.484 1.15103C155.798 1.15103 156.108 1.21431 156.398 1.3371C156.687 1.45988 156.948 1.63966 157.166 1.86569C157.384 2.09172 157.554 2.35937 157.667 2.65266C157.779 2.94596 157.831 3.25889 157.82 3.57276C157.85 3.89161 157.81 4.2131 157.705 4.51543C157.599 4.81775 157.43 5.09383 157.208 5.3249C156.987 5.55598 156.718 5.73665 156.42 5.85465C156.122 5.97265 155.803 6.02521 155.483 6.00876Z" fill="#1A2E2C"></path><path d="M161.424 0.62207V4.18807C161.478 4.86961 161.787 5.50576 162.289 5.96969C162.791 6.43363 163.45 6.69128 164.133 6.69128C164.817 6.69128 165.476 6.43363 165.978 5.96969C166.48 5.50576 166.789 4.86961 166.843 4.18807V0.62207H166.02V4.14707C166.004 4.63795 165.798 5.10338 165.445 5.44498C165.092 5.78658 164.62 5.97756 164.129 5.97756C163.638 5.97756 163.166 5.78658 162.813 5.44498C162.46 5.10338 162.254 4.63795 162.238 4.14707V0.62207H161.424Z" fill="#1A2E2C"></path><path d="M172.922 0.62207H170.112V6.52207H170.927V4.22207H172.839C174.152 4.22207 175 3.51507 175 2.41007C175 1.32107 174.193 0.62207 172.922 0.62207ZM172.806 3.54007H170.927V1.30007H172.814C173.628 1.30007 174.144 1.72407 174.144 2.40607C174.144 3.10807 173.629 3.54007 172.806 3.54007Z" fill="#1A2E2C"></path></g><defs><clipPath id="clip0"><rect width="175" height="31.325" fill="white"></rect></clipPath></defs></svg>