<svg xmlns="http://www.w3.org/2000/svg" xmlns:xlink="http://www.w3.org/1999/xlink" id="Layer_1" x="0px" y="0px" viewBox="0 0 715.5 637.4" style="enable-background:new 0 0 715.5 637.4;" xml:space="preserve"><style type="text/css">	.st0{fill:#EE2424;}</style><g>	<path class="st0" d="M418.5,278.1h-8.6c-4.5,0-6.3,1.9-6.3,6.6v8.6c0,4.7,1.8,6.6,6.3,6.6h14.9v-15.2  C424.8,280,423,278.1,418.5,278.1z"></path>	<path class="st0" d="M405,345.1l19.9,9.3v-18.1h-20.7v0c-0.7,0-1.3,0.6-1.3,1.4h0c0,1.6,0,4.1,0,4.1  C402.9,343.2,403.7,344.5,405,345.1z"></path>	<path class="st0" d="M485.8,181.1H215.4c-1.3,0-2.4,1.1-2.4,2.4v270.4c0,1.3,1.1,2.4,2.4,2.4h223.5c27.2,0,49.3-22.1,49.3-49.3  V183.5C488.2,182.2,487.1,181.1,485.8,181.1z M319.6,420.9c0,1.3-1.1,2.4-2.4,2.4h-10c-1.3,0-2.4-1.1-2.4-2.4v-78.4  c0-3-0.9-6-7.6-6c-6.7,0-7.6,3-7.6,6v78.4c0,1.3-1.1,2.4-2.4,2.4h-10c-1.3,0-2.4-1.1-2.4-2.4v-78.4c0-3-0.9-6-7.6-6  c-6.7,0-7.6,3-7.6,6v78.4c0,1.3-1.1,2.4-2.4,2.4h-10c-1.3,0-2.4-1.1-2.4-2.4v-76.1c0-0.1,0-0.2,0-0.3v-18.7c0-1.3,1.1-2.4,2.4-2.4  h19.3c0,0,0.1,0,0.1,0c0.2,0,0.4,0,0.6,0c6.3,0,11.3,1.2,15,3.6c3.7-2.4,8.7-3.6,15-3.6c18.5,0,22.4,10.4,22.4,19.1V420.9z   M319.6,310.8c0,1.3-1.1,2.4-2.4,2.4h-10c-1.3,0-2.4-1.1-2.4-2.4v-78.4c0-3-0.9-6-7.6-6c-6.7,0-7.6,3-7.6,6v78.4  c0,1.3-1.1,2.4-2.4,2.4h-10c-1.3,0-2.4-1.1-2.4-2.4v-78.4c0-3-0.9-6-7.6-6c-6.7,0-7.6,3-7.6,6v78.4c0,1.3-1.1,2.4-2.4,2.4h-10  c-1.3,0-2.4-1.1-2.4-2.4v-76.1c0-0.1,0-0.2,0-0.3v-18.7c0-1.3,1.1-2.4,2.4-2.4h19.3c0,0,0.1,0,0.1,0c0.2,0,0.4,0,0.6,0  c6.3,0,11.3,1.2,15,3.6c3.7-2.4,8.7-3.6,15-3.6c18.5,0,22.4,10.4,22.4,19.1V310.8z M380.1,403.8c0,10.7-7.7,19.7-22.4,19.7h-21  c-1.3,0-2.4-1.1-2.4-2.4v-10.5c0-1.3,1.1-2.4,2.4-2.4h21c6.7,0,7.6-3,7.6-6V383c-2.3,0.5-4.8,0.7-7.6,0.7h-5.1  c-18.5,0-22.4-10.4-22.4-19.1v-38.9c0-1.3,1.1-2.4,2.4-2.4h10c1.3,0,2.4,1.1,2.4,2.4v38.9c0,3,0.9,6,7.6,6h5.1c6.7,0,7.6-3,7.6-6  v-38.9c0-1.3,1.1-2.4,2.4-2.4h10c1.3,0,2.4,1.1,2.4,5.5V403.8z M380.1,293.8c0,10.7-7.7,19.7-22.4,19.7h-21c-1.3,0-2.4-1.1-2.4-2.4  v-10.5c0-1.3,1.1-2.4,2.4-2.4h21c6.7,0,7.6-3,7.6-6v-19.3c-2.3,0.5-4.8,0.7-7.6,0.7h-5.1c-18.5,0-22.4-10.4-22.4-19.1v-38.9  c0-1.3,1.1-2.4,2.4-2.4h10c1.3,0,2.4,1.1,2.4,2.4v38.9c0,3,0.9,6,7.6,6h5.1c6.7,0,7.6-3,7.6-6v-38.9c0-1.3,1.1-2.4,2.4-2.4h10  c1.3,0,2.4,1.1,2.4,5.5V293.8z M390.2,326c0-1.6,1.3-2.9,4.1-2.4h59.2c0.5-0.5,1.9,0.8,1.9,2.4v7.4c0,1.6-1.3,2.9-3,2.9h-14.1v24.3  l14.1,6.5c1.7,0.6,3,2.8,3,4.5v7.2c0,1.6-1.3,2.7-3,2.2l-50.6-23.6c-1.3-0.4-2.4-1-3.5-1.6c-5.3-3.2-8-9.1-8-17.3V326z   M455.3,403.7c0,16.7-10.2,20.2-18.7,20.2H409c-8.5,0-18.7-3.5-18.7-20.2v-3v-30.2c0-2.1,2.2-3.5,4.1-2.6l7.2,3.4  c1,0.5,1.6,1.5,1.6,2.6v26.8v3c0,5.8,2.8,6.6,5.8,6.6h27.7c3,0,5.8-0.8,5.8-6.6V389c0-2.1,2.2-3.5,4.1-2.6l7.2,3.4  c1,0.5,1.6,1.5,1.6,2.6V403.7z M455.3,266.7v10.7c0,0.9-0.5,1.6-1.2,2.1l-16,10.7v9.7H453c1.3,0,2.3,1.1,2.3,2.4v8.9  c0,1.3-1,2.4-2.3,2.4h-43.1c-12.8,0-19.6-7-19.6-20.2v-8.6c0-13.2,6.8-20.2,19.6-20.2h8.6c8.2,0,13.9,5.5,17,11l16.2-10.8  c0.4-0.3,0.8-0.4,1.3-0.4C454.3,264.3,455.3,265.3,455.3,266.7C455.3,266.6,455.3,266.6,455.3,266.7z M455.3,236.9v2.5v17.8  c0,1.4-1.1,2.5-2.5,2.5h-8.3c-1.4,0-2.5-1.1-2.5-2.5v-23.7c0-1.5-0.2-6.6-2-6.6c-0.3,0-3.4,0.5-13.1,15.3  c-7.7,11.7-14.7,17.4-21.4,17.4c-7,0-15.3-3.5-15.3-20.2v-3v-3v-17.6c0-1.4,1.1-2.5,2.5-2.5h8.3c1.4,0,2.5,1.1,2.5,2.5v18.1v5.5  c0,1.5,0.1,6.6,2,6.6c0.3,0,3.4-0.5,13.1-15.3c7.7-11.7,14.7-17.4,21.4-17.4c7,0,15.3,3.5,15.3,20.2V236.9z"></path></g></svg>