<svg xmlns="http://www.w3.org/2000/svg" width="80" height="50" viewBox="0 0 80 50" fill="none"><path fill-rule="evenodd" clip-rule="evenodd" d="M23.0519 9H26.2118V30.6849H38.7077V33.3583H23.0518V9H23.0519Z" fill="black"></path><path fill-rule="evenodd" clip-rule="evenodd" d="M47.3256 15.3867C49.4801 15.0896 51.7782 15.5351 53.5018 17.0205C55.3691 18.3572 56.3745 20.7336 56.5179 22.9615C56.8053 25.6349 56.5179 28.3085 55.0817 30.5364C53.789 32.3187 51.7782 33.5069 49.4801 33.6554C47.3256 33.9525 44.8839 33.5069 43.0167 32.0216C41.2931 30.5364 40.4313 28.3085 40.144 26.0806C39.8569 23.7041 40.144 21.0306 41.5804 18.9513C42.7295 16.872 45.0275 15.5351 47.3256 15.3867ZM47.7565 17.9117C49.1928 17.7631 50.7727 18.2086 51.9218 19.2484C52.9272 20.4365 53.5018 21.9218 53.6455 23.407C53.789 25.0409 53.6455 26.8232 52.9272 28.3085C52.2091 29.7937 50.9164 30.8335 49.3365 31.1304C47.9001 31.4275 46.3203 30.9819 45.3148 30.0908C44.1657 29.1996 43.4476 27.8628 43.1603 26.5261C42.873 24.5953 43.0167 22.6644 43.7349 20.8822C44.453 19.2484 46.0329 18.0601 47.7564 17.9115L47.7565 17.9117Z" fill="black"></path><path fill-rule="evenodd" clip-rule="evenodd" d="M23.0518 37.2197H56.9487V40.933H23.0518V37.2197Z" fill="black"></path></svg>