<svg width="180" height="64" viewBox="0 0 180 64" fill="none" xmlns="http://www.w3.org/2000/svg">
<g clip-path="url(#clip0_561_1214)">
<path d="M15.1571 25.2184C15.1535 25.1596 15.1319 25.1031 15.0948 25.0554C15.0577 25.0078 15.0068 24.9711 14.948 24.9497C14.8892 24.9283 14.825 24.9231 14.7631 24.9348C14.7013 24.9464 14.6443 24.9744 14.599 25.0154C14.1678 25.3938 13.707 25.7417 13.2206 26.0563L12.6067 26.4519L3.74452 32.1768L4.17424 26.4519L3.56594 26.0563C3.07841 25.743 2.61756 25.395 2.18751 25.0154C2.14222 24.9744 2.08524 24.9464 2.02337 24.9348C1.9615 24.9231 1.89734 24.9283 1.83854 24.9497C1.77973 24.9711 1.72876 25.0078 1.69168 25.0554C1.65461 25.1031 1.63301 25.1596 1.62944 25.2184L0.0277756 46.9106C0.0052106 47.2276 0.0709491 47.5447 0.218606 47.8311C0.366263 48.1174 0.590818 48.3633 0.870462 48.5448L7.28269 52.7084C7.61168 52.9176 8.00063 53.0295 8.39883 53.0295C8.79703 53.0295 9.18598 52.9176 9.51497 52.7084L15.9272 48.5448C16.2087 48.3646 16.4349 48.1192 16.5837 47.8326C16.7324 47.546 16.7985 47.2283 16.7755 46.9106L15.1571 25.2184ZM13.6 39.5255L2.67861 46.5775L2.99671 42.3099L13.3098 35.6482L13.6 39.5255ZM12.8355 29.2779L13.1034 32.8169L3.2311 39.1872L3.5213 35.2838L12.8355 29.2779ZM8.40441 50.4288L4.86066 48.1389L13.7898 42.3619L14.1135 46.7232L8.40441 50.4288Z" fill="#42B5E4"/>
<path d="M15.4977 10.9997H10.4751C10.1428 11.0199 9.83117 11.1573 9.60349 11.384C9.37582 11.6106 9.24913 11.9095 9.24913 12.2201C9.24913 12.5307 9.37582 12.8296 9.60349 13.0563C9.83117 13.2829 10.1428 13.4203 10.4751 13.4406H14.1863V16.2041C14.1808 17.4503 13.8522 18.6768 13.2283 19.7788C12.6044 20.8808 11.7038 21.8257 10.6034 22.5327L8.75623 23.7246C8.64744 23.7956 8.51788 23.8336 8.38511 23.8336C8.25234 23.8336 8.12278 23.7956 8.014 23.7246L6.16678 22.5327C5.0726 21.8222 4.17854 20.8758 3.5606 19.774C2.94267 18.6722 2.61912 17.4475 2.61746 16.2041V12.2227C2.62915 12.0557 2.60399 11.8883 2.54351 11.7308C2.48304 11.5732 2.38855 11.4289 2.26588 11.3068C2.14321 11.1847 1.99498 11.0874 1.83035 11.0208C1.66572 10.9543 1.48821 10.9199 1.30878 10.9199C1.12935 10.9199 0.951835 10.9543 0.787208 11.0208C0.622582 11.0874 0.474349 11.1847 0.351681 11.3068C0.229012 11.4289 0.134519 11.5732 0.0740456 11.7308C0.0135725 11.8883 -0.0115934 12.0557 0.000104905 12.2227V16.2041C0.00506576 17.8421 0.43442 19.4547 1.25161 20.9045C2.06879 22.3544 3.2496 23.5986 4.69348 24.5313L8.0419 26.6859C8.15069 26.7569 8.28024 26.795 8.41302 26.795C8.54579 26.795 8.67535 26.7569 8.78413 26.6859L12.1326 24.5313C13.5764 23.5986 14.7572 22.3544 15.5744 20.9045C16.3916 19.4547 16.821 17.8421 16.8259 16.2041V12.2227C16.8259 12.0608 16.7915 11.9004 16.7245 11.751C16.6576 11.6016 16.5595 11.4661 16.4359 11.3523C16.3123 11.2385 16.1658 11.1488 16.0047 11.0882C15.8437 11.0277 15.6713 10.9976 15.4977 10.9997Z" fill="#264C7C"/>
<path d="M9.19709 21.2216L9.50403 21.029C9.6395 20.9394 9.75181 20.8226 9.83276 20.6874C9.91372 20.5521 9.96128 20.4017 9.97197 20.2471C9.98267 20.0925 9.95623 19.9376 9.89458 19.7938C9.83294 19.65 9.73764 19.5207 9.61564 19.4156C8.06672 17.9622 7.19963 15.9949 7.20478 13.9457V12.223C7.20478 11.8987 7.06661 11.5876 6.82066 11.3582C6.57471 11.1289 6.24114 11 5.89331 11C5.54549 11 5.21191 11.1289 4.96597 11.3582C4.72002 11.5876 4.58185 11.8987 4.58185 12.223V13.9457C4.58387 16.6345 5.72759 19.2131 7.76285 21.1175C7.95036 21.2898 8.19714 21.3947 8.45959 21.4137C8.72203 21.4328 8.98325 21.3647 9.19709 21.2216Z" fill="#42B5E4"/>
<path d="M35.6831 34.4459V19.7329C35.6831 19.2436 36.1798 18.999 37.162 18.999H38.4735C39.2603 18.999 39.7793 19.202 40.0249 19.6184L44.3611 26.8109L48.7475 19.6184C48.9931 19.202 49.5121 18.999 50.3045 18.999H51.5825C52.5703 18.999 53.0614 19.2436 53.0614 19.7329V34.4459C53.0614 34.9351 52.5703 35.1797 51.5825 35.1797H50.8682C49.8804 35.1797 49.3893 34.9351 49.3893 34.4459V24.9269H49.2889L45.7172 30.8808C45.6044 31.0244 45.4551 31.1396 45.2826 31.2159C45.1102 31.2922 44.92 31.3273 44.7294 31.318H44.0151C43.8253 31.3269 43.6362 31.2916 43.4647 31.2153C43.2932 31.139 43.1448 31.024 43.0329 30.8808L39.4557 24.9061H39.3608V34.4459C39.3608 34.9351 38.8641 35.1797 37.8819 35.1797H37.162C36.1798 35.1797 35.6831 34.9403 35.6831 34.4459Z" fill="#264C7C"/>
<path d="M60.2718 34.4459V27.4094L55.3552 20.0295C55.2273 19.8588 55.1433 19.6629 55.1096 19.457C55.1096 19.15 55.6342 18.999 56.6834 18.999H57.7437C58.5529 18.999 59.044 19.1447 59.2226 19.4362L62.2306 24.3544L65.2609 19.4362C65.4451 19.1447 65.9362 18.999 66.7398 18.999H67.6271C68.6651 18.999 69.1842 19.15 69.1842 19.457C69.1634 19.6625 69.0866 19.8596 68.9609 20.0295L64.0555 27.4771V34.4459C64.0555 34.9351 63.5644 35.1797 62.5766 35.1797H61.7395C60.7517 35.1797 60.2718 34.9403 60.2718 34.4459Z" fill="#264C7C"/>
<path d="M70.0713 33.296C70.1162 32.8253 70.3105 32.3778 70.6294 32.0105C71.0088 31.4901 71.3269 31.2507 71.5892 31.2507C71.8176 31.297 72.0351 31.3817 72.231 31.5005C73.1333 32.0087 74.1629 32.2868 75.2167 32.3072C76.757 32.3072 77.5327 31.7503 77.5327 30.6313C77.5297 30.3828 77.4603 30.1388 77.3307 29.9216C77.2011 29.7044 77.0154 29.5208 76.7905 29.3875C76.2391 29.0212 75.6387 28.7238 75.0046 28.5027C74.2975 28.2532 73.6046 27.9701 72.9286 27.6544C72.1993 27.2895 71.5869 26.7508 71.1539 26.093C70.6316 25.315 70.3729 24.4081 70.4117 23.4908C70.3841 22.5372 70.6961 21.602 71.299 20.8313C72.3705 19.499 74.0224 18.8328 76.2547 18.8328C77.334 18.8112 78.4074 18.988 79.4134 19.3533C80.2672 19.6916 80.6914 20.0611 80.6914 20.4566C80.6523 20.9051 80.491 21.3369 80.2226 21.7109C79.9101 22.2036 79.6143 22.4499 79.3353 22.4499C79.1802 22.4179 79.0314 22.3635 78.8944 22.2886C78.1739 22 77.3958 21.8581 76.6119 21.8722C75.9793 21.8137 75.3445 21.9607 74.8149 22.2886C74.6511 22.4148 74.5203 22.5741 74.4323 22.7545C74.3444 22.9348 74.3015 23.1314 74.307 23.3295C74.3202 23.557 74.3953 23.7777 74.5251 23.9707C74.655 24.1637 74.8353 24.3228 75.0493 24.4328C75.6002 24.7854 76.1964 25.0722 76.8239 25.2864C77.534 25.5391 78.2289 25.8275 78.9055 26.1503C79.685 26.53 80.335 27.1057 80.7817 27.8121C81.2285 28.5185 81.4543 29.3274 81.4336 30.1473C81.4561 30.9899 81.2928 31.8278 80.9537 32.609C80.6711 33.2408 80.2149 33.7919 79.631 34.2068C78.463 34.9655 77.0636 35.3524 75.6408 35.3101C74.2829 35.348 72.9314 35.1211 71.6729 34.644C70.6015 34.2068 70.0713 33.754 70.0713 33.296Z" fill="#264C7C"/>
<path d="M83.4536 27.045C83.4536 21.5873 86.1975 18.8584 91.6852 18.8584C92.862 18.8561 94.033 19.0121 95.162 19.3216C96.2781 19.6235 96.8362 20.0086 96.8362 20.4666C96.7848 20.9517 96.5918 21.4143 96.2781 21.8041C95.906 22.3558 95.5656 22.6317 95.2568 22.6317C95.0768 22.5877 94.9027 22.5249 94.7378 22.4443C93.758 22.0548 92.6997 21.8666 91.6349 21.8926C88.7888 21.8926 87.3676 23.6274 87.3713 27.0971C87.375 30.5667 88.7795 32.3015 91.5847 32.3015C92.7581 32.3043 93.918 32.0681 94.9834 31.6094C95.1877 31.5113 95.4029 31.4345 95.6252 31.3804C95.9712 31.3804 96.3004 31.6458 96.6129 32.1766C96.8661 32.5404 97.0265 32.9535 97.0817 33.3841C97.0817 33.993 96.4734 34.4718 95.2568 34.8049C94.0665 35.1441 92.8294 35.3195 91.5847 35.3253C88.8241 35.3253 86.7779 34.654 85.4459 33.3112C84.114 31.9685 83.4499 29.8797 83.4536 27.045Z" fill="#264C7C"/>
<path d="M101.251 33.1915C99.8816 31.7759 99.1989 29.7409 99.2027 27.0867C99.2064 24.4324 99.8891 22.3992 101.251 20.987C102.612 19.5645 104.568 18.8549 107.116 18.8584C109.665 18.8619 111.616 19.5714 112.97 20.987C114.328 22.4026 115.005 24.4359 115.002 27.0867C114.998 29.7375 114.321 31.7724 112.97 33.1915C111.612 34.6071 109.661 35.3167 107.116 35.3201C104.571 35.3236 102.616 34.614 101.251 33.1915ZM104.119 30.9744C104.458 31.414 104.91 31.7667 105.434 31.9996C105.958 32.2326 106.537 32.3382 107.116 32.3067C107.693 32.3385 108.269 32.2328 108.791 31.9998C109.312 31.7667 109.761 31.4139 110.096 30.9744C110.773 30.0827 111.11 28.7868 111.106 27.0867C111.103 25.3865 110.766 24.0958 110.096 23.2145C109.759 22.7781 109.309 22.4281 108.788 22.197C108.267 21.9659 107.692 21.8612 107.116 21.8926C106.538 21.8619 105.961 21.9668 105.437 22.1977C104.914 22.4286 104.461 22.7782 104.119 23.2145C103.438 24.0993 103.098 25.39 103.098 27.0867C103.098 28.7833 103.438 30.0792 104.119 30.9744Z" fill="#264C7C"/>
<path d="M118.311 34.4456V19.9616C118.292 19.8368 118.305 19.7096 118.348 19.5901C118.391 19.4706 118.464 19.3622 118.559 19.2733C118.655 19.1844 118.772 19.1176 118.9 19.078C119.029 19.0385 119.165 19.0274 119.299 19.0456H124.104C128.196 19.0456 130.243 20.4855 130.243 23.3653C130.259 24.1719 129.989 24.9609 129.473 25.6084C128.93 26.2584 128.197 26.7482 127.363 27.0188V27.1333C127.754 27.3008 128.087 27.5677 128.323 27.9036C128.65 28.3066 128.921 28.7474 129.127 29.2151L131.297 34.2739C131.362 34.4129 131.403 34.5603 131.42 34.711C131.42 35.0181 130.924 35.169 129.941 35.169H128.914C128.089 35.169 127.614 35.0077 127.48 34.685L125.566 30.2144C125.361 29.7961 125.051 29.4301 124.662 29.1475C124.175 28.902 123.623 28.7935 123.071 28.8352H122.112V34.4456C122.112 34.9348 121.621 35.1794 120.633 35.1794H119.796C118.797 35.1794 118.311 34.94 118.311 34.4456ZM122.106 25.7802H124.45C124.703 25.7797 124.953 25.7278 125.182 25.628C125.412 25.5282 125.615 25.383 125.778 25.2025C126.152 24.8253 126.352 24.3264 126.336 23.8129C126.348 23.5737 126.305 23.3349 126.209 23.113C126.112 22.8911 125.965 22.6913 125.778 22.5274C125.356 22.194 124.813 22.0245 124.26 22.0538H122.089L122.106 25.7802Z" fill="#264C7C"/>
<path d="M133.836 34.2168V19.9618C133.817 19.8372 133.828 19.7101 133.871 19.5906C133.913 19.471 133.985 19.3624 134.081 19.2734C134.176 19.1844 134.292 19.1174 134.421 19.0779C134.549 19.0384 134.685 19.0274 134.819 19.0458H143.843C144.334 19.0458 144.579 19.4257 144.579 20.1908V20.8882C144.579 21.6584 144.334 22.0383 143.843 22.0383H137.631V25.3744H143.173C143.67 25.3744 143.915 25.7543 143.915 26.5194V27.2324C143.915 28.0027 143.67 28.3826 143.173 28.3826H137.631V32.109H143.865C144.356 32.109 144.607 32.4889 144.607 33.254V33.967C144.607 34.7372 144.356 35.1172 143.865 35.1172H134.819C134.687 35.135 134.552 35.1242 134.425 35.0855C134.299 35.0468 134.183 34.9813 134.088 34.8941C133.993 34.8069 133.921 34.7005 133.877 34.583C133.834 34.4655 133.82 34.3401 133.836 34.2168Z" fill="#264C7C"/>
<path d="M152.493 34.6749C152.511 34.5337 152.543 34.3943 152.588 34.2585L158.012 19.4778C158.146 19.1604 158.615 18.999 159.419 18.999H160.724C161.528 18.999 161.997 19.1604 162.125 19.4778L167.55 34.2585C167.596 34.3932 167.62 34.5335 167.622 34.6749C167.622 35.0132 167.215 35.1953 166.389 35.1953H165.306C164.503 35.1953 164.039 35.034 163.928 34.7113L162.94 31.9061H157.103L156.115 34.7113C155.998 35.034 155.624 35.1953 154.999 35.1953H154.011C152.995 35.1797 152.493 35.0132 152.493 34.6749ZM158.163 28.8563H161.841L160.434 24.7656L160.066 23.2979H159.971C159.88 23.794 159.755 24.2842 159.597 24.7656L158.163 28.8563Z" fill="#42B5E4"/>
<path d="M168.638 33.2961C168.685 32.826 168.879 32.3791 169.196 32.0106C169.575 31.4901 169.893 31.2507 170.161 31.2507C170.387 31.2983 170.603 31.3829 170.797 31.5005C171.7 32.0087 172.729 32.2869 173.783 32.3072C175.327 32.3072 176.099 31.7486 176.099 30.6314C176.096 30.3834 176.027 30.14 175.899 29.9229C175.77 29.7058 175.586 29.5219 175.362 29.3875C174.808 29.0224 174.206 28.7251 173.571 28.5028C172.864 28.2533 172.171 27.9701 171.495 27.6545C170.766 27.2896 170.153 26.7508 169.72 26.0931C169.2 25.3145 168.943 24.4076 168.984 23.4909C168.956 22.5373 169.268 21.602 169.871 20.8314C170.939 19.4991 172.589 18.8329 174.821 18.8329C175.9 18.8108 176.974 18.9877 177.98 19.3533C178.834 19.6916 179.258 20.0611 179.258 20.4567C179.218 20.9044 179.059 21.3357 178.795 21.711C178.482 22.2314 178.181 22.4604 177.902 22.4604C177.747 22.4274 177.598 22.3731 177.461 22.2991C176.74 22.0105 175.962 21.8686 175.178 21.8827C174.546 21.8241 173.911 21.9712 173.381 22.2991C173.218 22.426 173.088 22.5855 173 22.7656C172.913 22.9458 172.869 23.1421 172.873 23.34C172.888 23.5671 172.964 23.7872 173.094 23.98C173.223 24.1728 173.403 24.3321 173.616 24.4433C174.167 24.7959 174.763 25.0826 175.39 25.2968C176.099 25.5488 176.792 25.8372 177.466 26.1608C178.246 26.5405 178.896 27.1161 179.343 27.8225C179.789 28.5289 180.015 29.3379 179.994 30.1578C180.017 31.0004 179.854 31.8383 179.514 32.6195C179.234 33.2523 178.777 33.8038 178.192 34.2173C177.024 34.9766 175.624 35.3637 174.202 35.3206C172.844 35.3585 171.492 35.1316 170.234 34.6545C169.168 34.2069 168.638 33.7541 168.638 33.2961Z" fill="#42B5E4"/>
</g>
<defs>
<clipPath id="clip0_561_1214">
<rect width="180" height="64" fill="white"/>
</clipPath>
</defs>
</svg>
