<svg xmlns="http://www.w3.org/2000/svg" width="80" height="50" viewBox="0 0 80 50" fill="none"><path d="M39.1583 3.01161C39.0655 3.02005 38.7703 3.04957 38.5046 3.07065C32.377 3.62311 26.6374 6.9294 23.0021 12.0111C20.9779 14.8367 19.6832 18.0417 19.194 21.4366C19.0211 22.6216 19 22.9717 19 24.5784C19 26.1852 19.0211 26.5352 19.194 27.7202C20.3664 35.8215 26.1313 42.6281 33.95 45.15C35.3501 45.6012 36.8261 45.9091 38.5046 46.0946C39.1583 46.1663 41.9838 46.1663 42.6375 46.0946C45.5347 45.7741 47.9891 45.0572 50.4098 43.8215C50.7809 43.6318 50.8526 43.5812 50.802 43.539C50.7682 43.5137 49.1868 41.3924 47.289 38.8284L43.8394 34.1684L39.5167 27.7709C37.1382 24.2537 35.1814 21.3776 35.1646 21.3776C35.1477 21.3733 35.1308 24.2157 35.1224 27.6865C35.1097 33.7635 35.1055 34.0081 35.0296 34.1515C34.92 34.3581 34.8356 34.4425 34.6585 34.5353C34.5236 34.6027 34.4055 34.6154 33.7687 34.6154H33.0391L32.8451 34.4931C32.7186 34.413 32.6258 34.3075 32.5625 34.1852L32.474 33.9955L32.4824 25.5399L32.4951 17.0802L32.6258 16.9158C32.6933 16.8272 32.8367 16.7133 32.9379 16.6585C33.1108 16.5742 33.1783 16.5657 33.9078 16.5657C34.7681 16.5657 34.9115 16.5995 35.135 16.8441C35.1983 16.9115 37.5389 20.4371 40.3391 24.6839C43.1393 28.9306 46.9685 34.7292 48.8494 37.5759L52.2654 42.7504L52.4383 42.6365C53.9691 41.6413 55.5885 40.2243 56.8705 38.7482C59.5991 35.6149 61.3577 31.7941 61.9481 27.7202C62.121 26.5352 62.1421 26.1852 62.1421 24.5784C62.1421 22.9717 62.121 22.6216 61.9481 21.4366C60.7757 13.3353 55.0108 6.52876 47.1921 4.00687C45.813 3.55985 44.3454 3.25199 42.7007 3.06644C42.2959 3.02426 39.5083 2.97787 39.1583 3.01161V3.01161ZM47.9891 16.0597C48.1915 16.1609 48.356 16.3549 48.415 16.5573C48.4488 16.6669 48.4572 19.0117 48.4488 24.2959L48.4361 31.8784L47.0993 29.8288L45.7582 27.7793V22.2674C45.7582 18.7038 45.7751 16.7007 45.8004 16.6037C45.8678 16.3675 46.0155 16.182 46.2179 16.0723C46.3908 15.9837 46.454 15.9753 47.1161 15.9753C47.7403 15.9753 47.8499 15.9837 47.9891 16.0597V16.0597Z" fill="black"></path><path d="M52.0545 42.8434C51.9069 42.9362 51.8606 42.9995 51.9913 42.9278C52.0841 42.873 52.2359 42.7591 52.2106 42.7549C52.1979 42.7549 52.1262 42.7971 52.0545 42.8434ZM51.7636 43.0332C51.6877 43.0923 51.6876 43.0965 51.7804 43.0501C51.831 43.0248 51.8732 42.9953 51.8732 42.9868C51.8732 42.9531 51.8521 42.9615 51.7636 43.0332ZM51.5527 43.1597C51.4768 43.2188 51.4768 43.223 51.5696 43.1766C51.6202 43.1513 51.6623 43.1218 51.6623 43.1133C51.6623 43.0796 51.6413 43.088 51.5527 43.1597ZM51.3418 43.2862C51.2659 43.3453 51.2659 43.3495 51.3587 43.3031C51.4093 43.2778 51.4515 43.2483 51.4515 43.2399C51.4515 43.2061 51.4304 43.2146 51.3418 43.2862ZM51.0213 43.4549C50.8611 43.5393 50.8695 43.573 51.0298 43.4929C51.1015 43.4549 51.1563 43.417 51.1563 43.4085C51.1563 43.379 51.1521 43.3832 51.0213 43.4549Z" fill="black"></path></svg>