<svg xmlns="http://www.w3.org/2000/svg" width="80" height="50" viewBox="0 0 80 50" fill="none"><path d="M27.5667 40.9849C27.3384 40.9849 27.115 40.8974 26.945 40.7275L21.7484 35.526V40.1058C21.7484 40.5915 21.355 40.98 20.8742 40.98C20.3934 40.98 20 40.5866 20 40.1058V33.4036C20 33.0491 20.2137 32.7286 20.5439 32.5926C20.8742 32.4566 21.2482 32.5294 21.5007 32.782L26.6925 37.9786V33.4036C26.6925 32.918 27.0858 32.5294 27.5667 32.5294C28.0523 32.5294 28.4409 32.9228 28.4409 33.4036V40.1009C28.4457 40.5866 28.0523 40.9849 27.5667 40.9849ZM31.6365 32.5391L31.3937 32.9908L29.5287 36.3808L29.2859 36.8081L29.5287 37.2355L31.3937 40.5186L31.6462 40.9654H36.532L36.7749 40.47L38.1687 37.6581L38.7952 36.3856H37.3819L33.8172 36.4002C33.3509 36.3905 32.9235 36.8179 32.9235 37.2744C32.9235 37.7406 33.3509 38.1583 33.8172 38.1486L35.9687 38.134L35.4441 39.1976H32.6759L31.3014 36.7887L32.6856 34.2875H35.6287L36.3135 35.696H38.0813L36.9691 33.0248L36.7263 32.5294H31.6365V32.5391ZM40.5339 32.5246C40.0725 32.5294 39.6597 32.952 39.6646 33.4133V35.7057H41.4227V33.4133C41.4275 32.9471 41.0001 32.5149 40.5339 32.5246ZM43.3508 40.9994C42.8651 40.9994 42.4766 40.606 42.4766 40.1252V33.4231C42.4766 32.9374 42.87 32.5489 43.3508 32.5489C43.8364 32.5489 44.225 32.9422 44.225 33.4231V38.0029L49.4216 32.8063C49.6741 32.5537 50.0481 32.4809 50.3783 32.6169C50.7086 32.7528 50.9223 33.0734 50.9223 33.4279V40.1252C50.9223 40.6109 50.5289 40.9994 50.0481 40.9994C49.5624 40.9994 49.1739 40.606 49.1739 40.1252V35.5406L43.9724 40.742C43.8073 40.9071 43.5839 40.9994 43.3508 40.9994ZM57.435 36.7644L60.1645 34.0398C60.5093 33.695 60.5093 33.1414 60.1693 32.7965C59.8245 32.4517 59.2709 32.4517 58.926 32.7917L56.1917 35.5211L53.4574 32.7917C53.1126 32.4469 52.559 32.4469 52.2141 32.7965C51.8693 33.1414 51.8693 33.695 52.2141 34.0398L54.9436 36.7644L52.219 39.4793C51.8742 39.8241 51.8742 40.3778 52.2141 40.7226C52.3793 40.8877 52.6027 40.9849 52.8358 40.98C53.0592 40.98 53.2826 40.8926 53.4574 40.7226L56.1869 38.0029L58.9163 40.7226C59.0814 40.8877 59.3049 40.98 59.538 40.98C59.7614 40.98 59.9896 40.8926 60.1596 40.7226C60.5044 40.3778 60.5044 39.8241 60.1548 39.4793L57.435 36.7644ZM40.5339 40.9751C40.0725 40.9703 39.6597 40.5478 39.6646 40.0864V36.4099H41.4227V40.0864C41.4275 40.5526 41.0001 40.98 40.5339 40.9751Z" fill="#333333"></path><path d="M48.6209 31.277C48.0479 31.277 47.4796 31.0536 47.0571 30.631L33.9781 17.5472V29.0672C33.9781 30.2911 32.9874 31.277 31.7684 31.277C30.5493 31.277 29.5586 30.2862 29.5586 29.0672V12.2146C29.5586 11.3162 30.0977 10.5148 30.9233 10.17C31.7489 9.82516 32.7008 10.0146 33.3322 10.6508L46.4112 23.7346V12.2146C46.4112 10.9908 47.4019 10.0049 48.6209 10.0049C49.8448 10.0049 50.8307 10.9956 50.8307 12.2146V29.0721C50.8307 30.2911 49.8448 31.277 48.6209 31.277Z" fill="#333333"></path></svg>