<svg xmlns="http://www.w3.org/2000/svg" id="Layer_1" data-name="Layer 1" viewBox="0 0 444 238.26"><path d="M202.93,120H171.17V41H152.83l1.33-2.58C154.36,38.07,174.59,0,220.35,0c65.64,0,66.4,57.21,66.4,57.79v60.44h-3.53V57.79c0-2.21-.81-54.26-62.87-54.26-36.73,0-56.18,25.64-61.52,34H174.7v79h24.7V89.28l1.59-.16c.09,0,8.87-1,13.47-5.65a26.52,26.52,0,0,0,7-14.8L225,69a29.89,29.89,0,0,1-8,17c-4.24,4.34-11,5.95-14,6.48Z"></path><path d="M187.05,81.39a6.84,6.84,0,1,1,6.84-6.84A6.85,6.85,0,0,1,187.05,81.39Zm0-10.14a3.31,3.31,0,1,0,3.31,3.3A3.31,3.31,0,0,0,187.05,71.25Z"></path><rect x="185.28" y="79.63" width="3.53" height="38.6"></rect><path d="M3.53,238.26H0V178.71H20a16.21,16.21,0,1,1,0,32.42H3.53Zm0-30.66H20a12.68,12.68,0,1,0,0-25.36H3.53Z"></path><path d="M361.74,238.26a18.1,18.1,0,0,1-18.08-18.09V195a18.09,18.09,0,1,1,36.17,0v25.14A18.1,18.1,0,0,1,361.74,238.26Zm0-57.79A14.58,14.58,0,0,0,347.18,195v25.14a14.56,14.56,0,1,0,29.12,0V195A14.57,14.57,0,0,0,361.74,180.47Z"></path><polygon points="101.02 238.26 66.61 238.26 66.61 176.94 101.02 176.94 101.02 180.47 70.14 180.47 70.14 234.73 101.02 234.73 101.02 238.26"></polygon><rect x="68.38" y="205.84" width="32.65" height="3.53"></rect><polygon points="135.54 238.26 132.01 238.26 132.01 177.39 135.26 177.39 171.39 230.48 171.39 176.94 174.92 176.94 174.92 238.26 172.19 238.26 135.54 184.36 135.54 238.26"></polygon><rect x="221.9" y="176.94" width="3.53" height="61.32"></rect><rect x="205.35" y="176.94" width="36.62" height="3.53"></rect><path d="M276.16,238.26h-3.53V178.71h20a16.21,16.21,0,1,1,0,32.42H276.16Zm0-30.66h16.43a12.68,12.68,0,1,0,0-25.36H276.16Z"></path><polygon points="312.03 238.26 294.11 208.46 291.08 210.28 307.91 238.26 312.03 238.26"></polygon><rect x="421.74" y="204.03" width="3.53" height="34.23"></rect><polygon points="403.01 175.14 421.99 206.71 425.02 204.89 407.13 175.14 403.01 175.14"></polygon><polygon points="439.88 175.14 421.99 204.89 425.02 206.71 444 175.14 439.88 175.14"></polygon></svg>