<svg xmlns="http://www.w3.org/2000/svg" width="80" height="50" viewBox="0 0 80 50" fill="none"><g clip-path="url(#clip0_790_1779)"><path d="M26.6887 24.1103C26.6169 23.4203 26.3581 22.8094 25.8047 22.3637C25.2009 21.875 24.4894 21.6809 23.7347 21.6666C22.2109 21.6378 20.6872 21.6594 19.1634 21.6522C19.0484 21.6522 18.9981 21.6953 18.9766 21.8103C18.7466 22.9962 18.5166 24.1822 18.2794 25.3681C17.9128 27.2441 17.5391 29.1272 17.1725 31.0103C17.115 31.305 17.0575 31.5997 17 31.9087C17.0431 31.9231 17.0647 31.9303 17.0791 31.9303C17.8266 31.9303 18.5741 31.9303 19.3144 31.9303C19.415 31.9303 19.4294 31.88 19.4438 31.8009C19.5803 31.075 19.7241 30.3491 19.8606 29.6231C19.9253 29.2709 19.9325 29.2709 20.2847 29.2709C21.0394 29.2781 21.7941 29.3284 22.5488 29.2709C24.2091 29.1631 25.4237 28.3078 26.1928 26.8344C26.6384 25.9862 26.7822 25.0662 26.6887 24.1103ZM23.9216 25.9791C23.6844 26.6331 23.2244 27.05 22.5488 27.2297C21.8588 27.4094 21.1544 27.3088 20.4356 27.3447C20.4931 26.9853 20.5434 26.6619 20.6009 26.3312C20.7375 25.4903 20.8813 24.6494 21.0178 23.8084C21.0538 23.5784 21.0537 23.5784 21.2766 23.5784C21.7006 23.5784 22.1175 23.5712 22.5416 23.5856C22.8578 23.5928 23.1884 23.6 23.4903 23.7294C23.9359 23.9162 24.1731 24.2541 24.1516 24.7356C24.1372 25.1597 24.0653 25.5766 23.9216 25.9791ZM42.3575 22.1625C41.8184 21.8319 41.2219 21.6738 40.6038 21.6666C39.0584 21.645 37.5131 21.6594 35.975 21.6522C35.8672 21.6522 35.8313 21.6953 35.8169 21.7888C35.6875 22.4716 35.5509 23.1544 35.4144 23.8372C34.9544 26.2019 34.4872 28.5738 34.02 30.9384C33.9553 31.2547 33.8978 31.5781 33.8331 31.9231C33.9122 31.9231 33.9697 31.9303 34.0272 31.9303C34.71 31.9303 35.3928 31.9303 36.0756 31.9375C36.2194 31.9375 36.2697 31.8872 36.2913 31.7434C36.435 30.9672 36.5859 30.1909 36.7297 29.4147C36.7513 29.3356 36.7584 29.2709 36.8662 29.2709C37.5706 29.2781 38.275 29.2566 38.9722 29.2781C40.1941 29.3212 41.2506 28.9188 42.1203 28.0706C43.2991 26.9206 43.7087 25.4831 43.4788 23.8588C43.3709 23.1328 42.99 22.5578 42.3575 22.1625ZM40.6038 26.3025C40.3019 26.8847 39.7844 27.1866 39.1591 27.2656C38.6847 27.3303 38.2031 27.3231 37.7216 27.3375C37.5778 27.3447 37.4269 27.3447 37.2688 27.3447C37.3478 26.8488 37.4269 26.3816 37.4988 25.9144C37.6209 25.1884 37.7503 24.4625 37.8653 23.7294C37.8797 23.6216 37.9156 23.5784 38.0378 23.5784C38.4906 23.5856 38.9506 23.5712 39.4106 23.5856C39.7628 23.5928 40.115 23.6072 40.4384 23.7869C40.7834 23.9666 40.9847 24.2469 40.9847 24.6494C40.9775 25.2244 40.8769 25.785 40.6038 26.3025ZM34.0559 29.1488C34.1278 28.6888 34.2069 28.2287 34.2859 27.7759C34.4656 26.7122 34.6453 25.6556 34.825 24.5991C34.8825 24.2684 34.9616 23.9306 34.9616 23.6C34.9616 22.9316 34.6381 22.4284 34.0631 22.0978C33.56 21.8031 33.0066 21.6809 32.4387 21.6594C31.7344 21.6378 31.03 21.6594 30.3328 21.6594C30.2753 21.6594 30.2178 21.6594 30.1459 21.6594C30.3113 20.7609 30.4766 19.8913 30.6419 19.0144C30.5916 19.0072 30.5628 19 30.5341 19C29.8009 19 29.0606 19 28.3275 19C28.2341 19 28.2053 19.0359 28.1909 19.1222C28.0328 19.9344 27.8747 20.7466 27.7094 21.5659C27.2781 23.7869 26.8397 26.0078 26.4084 28.2288C26.3366 28.5666 26.2719 28.9044 26.2072 29.2566C26.2575 29.2638 26.2862 29.2709 26.315 29.2709C27.0409 29.2709 27.7741 29.2709 28.5072 29.2709C28.6006 29.2781 28.6366 29.235 28.6509 29.1416C28.73 28.7319 28.8162 28.3294 28.8953 27.9197C29.1756 26.5181 29.4559 25.1166 29.7291 23.715C29.7506 23.6144 29.7866 23.5712 29.8944 23.5784C30.11 23.5856 30.3328 23.5784 30.5484 23.5784C30.9797 23.5856 31.4109 23.5928 31.835 23.6C32.2662 23.6144 32.4459 23.8013 32.4028 24.2253C32.3813 24.4841 32.3309 24.7428 32.2806 25.0016C32.0219 26.3816 31.7631 27.7544 31.4972 29.1344C31.4828 29.2278 31.5044 29.2709 31.6122 29.2709C32.3813 29.2709 33.1503 29.2709 33.9194 29.2709C34.0056 29.2709 34.0416 29.235 34.0559 29.1488ZM53.9725 19H46.1381C45.865 19 45.6422 19.2228 45.6422 19.4959V20.265C45.6422 20.5453 45.865 20.7681 46.1381 20.7681H51.8881L46.0303 28.7463C45.9441 28.8541 46.0231 29.005 46.1597 29.005H48.3447C48.51 29.005 48.6537 28.9331 48.7472 28.8038L54.375 20.8975C54.4325 20.8112 54.4613 20.7106 54.4613 20.6028V19.4959C54.4613 19.2228 54.2456 19 53.9725 19ZM54.1378 27.2441H53.0381C52.8584 27.2441 52.7147 27.395 52.7147 27.5747V28.6744C52.7147 28.8612 52.8584 29.005 53.0381 29.005H54.1378C54.3175 29.005 54.4613 28.8612 54.4613 28.6744V27.5747C54.4613 27.395 54.3175 27.2441 54.1378 27.2441ZM59.1763 25.67H62.3388C62.7053 25.67 63 25.3753 63 25.0016V22.3278C63 21.9613 62.7053 21.6594 62.3388 21.6594H56.8619C56.6822 21.6594 56.5312 21.8103 56.5312 21.99V22.6656C56.5312 22.8525 56.6822 22.9962 56.8619 22.9962H61.0091C61.3756 22.9962 61.6703 23.2981 61.6703 23.6647C61.6703 24.0384 61.3756 24.3331 61.0091 24.3331H58.6731C57.4872 24.3331 56.5312 25.2962 56.5312 26.4822V28.6744C56.5312 28.8612 56.6822 29.005 56.8619 29.005H62.6694C62.8563 29.005 63 28.8612 63 28.6744V28.0059C63 27.8191 62.8563 27.6681 62.6694 27.6681H58.1916C58.0119 27.6681 57.8609 27.5244 57.8609 27.3375V26.9925C57.8609 26.2666 58.4503 25.67 59.1763 25.67Z" fill="black"></path></g><defs><clipPath id="clip0_790_1779"><rect width="80" height="50" fill="white"></rect></clipPath></defs></svg>