<svg xmlns="http://www.w3.org/2000/svg" width="80" height="50" viewBox="0 0 80 50" fill="none"><path d="M37.3951 37.1179C37.0911 37.0474 36.8591 37.0004 36.5632 36.9377C36.5632 38.3478 36.5632 39.6169 36.5632 40.9252C36.7952 40.9252 36.9791 40.9252 37.2431 40.9252C37.2431 40.6901 37.2431 40.4786 37.2431 40.2671C37.2431 40.0399 37.2431 39.8127 37.2431 39.5621C38.0989 39.9538 38.7068 39.8597 39.1228 39.3035C39.5467 38.7395 39.5147 37.8699 39.0588 37.345C38.6189 36.8437 38.019 36.781 37.3951 37.1179ZM38.6988 38.4183C38.6748 38.8648 38.3149 39.2017 37.891 39.1704C37.467 39.139 37.1791 38.7708 37.2031 38.3086C37.2351 37.8464 37.587 37.5096 38.003 37.5487C38.4109 37.5801 38.7308 37.9796 38.6988 38.4183ZM34.5955 36.9299C34.1396 37.016 33.7077 37.1022 33.2437 36.9925C33.2197 36.9925 33.1797 37.0317 33.1398 37.0552C33.1398 38.34 33.1398 39.6326 33.1398 40.9643C33.3797 40.9487 33.5637 40.933 33.7956 40.9173C33.7956 40.4395 33.7956 40.0164 33.7956 39.5229C34.5555 39.9224 35.0594 39.8989 35.5154 39.4916C35.9633 39.092 36.1153 38.3478 35.8753 37.7603C35.6433 37.204 35.1554 36.8202 34.5955 36.9299ZM34.5075 39.1704C34.0836 39.1782 33.7637 38.8257 33.7637 38.3635C33.7637 37.8934 34.0916 37.5409 34.5075 37.5409C34.9155 37.5487 35.2674 37.9248 35.2674 38.3635C35.2674 38.81 34.9315 39.1704 34.5075 39.1704ZM28.2286 35.7704C27.7086 35.7156 27.1807 35.7548 26.6208 35.7548C26.6208 37.1335 26.6208 38.4261 26.6208 39.7187C26.8608 39.7187 27.0528 39.7187 27.3247 39.7187C27.3247 39.2174 27.3247 38.7473 27.3247 38.2303C27.6687 38.2303 27.9246 38.2538 28.1726 38.2303C28.8445 38.1598 29.3164 37.6819 29.3404 37.0474C29.3644 36.3658 28.9324 35.8331 28.2286 35.7704ZM28.4925 37.251C28.1566 37.4234 27.7806 37.5096 27.3487 37.6506C27.3487 37.1492 27.3487 36.8123 27.3487 36.3031C27.8046 36.4676 28.1806 36.5695 28.5165 36.7418C28.5885 36.781 28.5805 37.2119 28.4925 37.251ZM50.3049 36.9534C49.5291 36.7575 48.8092 37.1257 48.5372 37.8464C48.2733 38.5515 48.5532 39.3114 49.2011 39.6482C49.913 40.0243 50.6729 39.8284 51.1608 39.0999C50.9928 39.0137 50.8248 38.9197 50.6809 38.8335C49.929 39.3975 49.4171 39.3035 49.2171 38.5123C49.889 38.5123 50.5449 38.5123 51.1928 38.5123C51.2888 37.6741 50.9448 37.1179 50.3049 36.9534ZM49.3131 37.9874C49.2891 37.9404 49.2571 37.9013 49.2331 37.8621C49.4091 37.7446 49.5771 37.5644 49.769 37.5252C50.089 37.4469 50.3929 37.5409 50.5449 37.9874C50.097 37.9874 49.705 37.9874 49.3131 37.9874ZM41.5864 36.9377C40.7945 36.7888 40.0906 37.204 39.8826 37.9326C39.6667 38.6925 40.0186 39.4524 40.7145 39.7266C41.4344 40.0086 42.1703 39.7501 42.5062 39.0764C42.3542 38.998 42.2023 38.9197 42.0583 38.8413C41.2904 39.3897 40.7945 39.3035 40.5865 38.481C41.2904 38.481 41.9303 38.481 42.5702 38.481C42.6422 37.6036 42.2903 37.0709 41.5864 36.9377ZM41.8343 37.9874C41.4424 37.9874 41.0585 37.9874 40.6665 37.9874C40.6425 37.9404 40.6185 37.9013 40.5945 37.8543C40.7945 37.7367 41.0025 37.5331 41.2104 37.5252C41.4424 37.5252 41.6903 37.6976 41.9223 37.7916C41.8983 37.8543 41.8663 37.9248 41.8343 37.9874ZM47.0335 36.9377C46.2896 36.7967 45.6097 37.1649 45.3617 37.8308C45.0978 38.5671 45.4017 39.3505 46.0736 39.6796C46.7775 40.0164 47.5054 39.8049 47.9933 39.0999C47.8253 39.0137 47.6654 38.9197 47.5134 38.8335C46.7535 39.3975 46.2336 39.2957 46.0576 38.5201C46.7135 38.5201 47.3534 38.5201 48.0253 38.5201C48.0893 37.5879 47.7294 37.063 47.0335 36.9377ZM46.0816 37.9639C46.4736 37.3451 46.9615 37.3372 47.3454 37.9639C46.9215 37.9639 46.5296 37.9639 46.0816 37.9639ZM31.636 38.528C31.604 38.9118 31.388 39.2017 30.9401 39.1625C30.5322 39.1312 30.4842 38.8022 30.4842 38.4731C30.4842 37.9953 30.4842 37.5096 30.4842 37.016C30.2122 37.016 30.0283 37.016 29.7963 37.016C29.7963 37.7054 29.7483 38.3635 29.8123 39.0137C29.8843 39.6952 30.5402 40.0164 31.1881 39.7422C31.348 39.6796 31.492 39.5777 31.644 39.4916C31.636 39.5307 31.628 39.5777 31.62 39.6169C31.852 39.6639 32.0839 39.7109 32.3479 39.7657C32.3479 38.7865 32.3479 37.9169 32.3479 37.016C32.1239 37.016 31.94 37.016 31.644 37.016C31.644 37.5566 31.676 38.0423 31.636 38.528ZM44.2179 38.7238C44.1699 38.3791 44.2019 38.0266 44.2019 37.6741C44.4419 37.6271 44.6339 37.5957 44.8338 37.5644C44.8338 37.3764 44.8338 37.2119 44.8338 37.0239C44.6259 36.9925 44.4339 36.9534 44.2419 36.922C44.2019 36.6557 44.1699 36.4128 44.1379 36.1621C43.914 36.1621 43.722 36.1621 43.5061 36.1621C43.4821 36.4206 43.4661 36.6478 43.4581 36.7967C43.2741 36.9847 43.0101 37.1335 43.0261 37.251C43.0581 37.4391 43.2581 37.6036 43.4741 37.9091C43.4741 38.1128 43.4581 38.481 43.4741 38.8492C43.53 39.7187 44.1619 40.0556 45.0738 39.5856C44.8658 39.4132 44.6899 39.2879 44.5379 39.139C44.4099 39.0215 44.2419 38.8727 44.2179 38.7238ZM51.8647 36.9299C51.8647 37.9326 51.8647 38.8178 51.8647 39.7109C52.0966 39.7109 52.2806 39.7109 52.4406 39.7109C52.8485 38.9745 51.8567 37.5801 53.5844 37.5566C53.6324 37.3764 53.6804 37.2119 53.7924 36.8358C53.2724 36.9612 52.8965 37.063 52.5766 37.1414C52.3526 37.0787 52.1366 37.016 51.8647 36.9299ZM26.6208 26.8867C26.9168 26.8867 27.1487 26.6517 27.1487 26.354C27.1487 26.0642 26.9168 25.8292 26.6208 25.8292C26.3249 25.8292 26.0849 26.0642 26.0849 26.354C26.0849 26.6517 26.3249 26.8867 26.6208 26.8867ZM28.7485 26.8867C29.0444 26.8867 29.2844 26.6517 29.2844 26.354C29.2844 26.0642 29.0444 25.8292 28.7485 25.8292C28.4605 25.8292 28.2206 26.0642 28.2206 26.354C28.2206 26.6517 28.4605 26.8867 28.7485 26.8867ZM30.8841 26.8867C31.1801 26.8867 31.42 26.6517 31.42 26.354C31.42 26.0642 31.1801 25.8292 30.8841 25.8292C30.5882 25.8292 30.3562 26.0642 30.3562 26.354C30.3562 26.6517 30.5882 26.8867 30.8841 26.8867ZM55.984 26.3384C55.984 25.9623 55.848 25.5785 55.712 25.2181C55.5521 24.8107 55.3681 24.419 55.1921 24.0195H55.1841L52.8565 17.3215L54.3683 16.5224C54.6562 16.0681 54.6962 15.457 54.6082 14.7598C54.5602 14.4073 54.4802 14.1801 54.1443 14.0312C53.5684 13.7805 53.0165 13.4907 52.4646 13.2243C52.3126 11.2423 52.1606 9.29953 52.0087 7.34105C52.3926 7.15303 52.7445 6.98068 53.0965 6.80834C54.5602 6.08762 54.5442 6.08761 54.5442 4.45815C54.5442 4.03512 54.4003 3.7766 54.0083 3.59642C53.0405 3.14989 52.0806 2.67985 51.1448 2.17848C50.7129 1.94346 50.3609 1.97479 49.937 2.19414C46.8015 3.76877 43.658 5.31205 40.5225 6.88668C40.1466 7.07469 39.8587 7.07469 39.4827 6.88668C36.2752 5.29639 33.0438 3.7296 29.8363 2.13931C29.4844 1.96696 29.1964 1.94346 28.8365 2.13147C28.1806 2.49183 27.5007 2.79736 26.8288 3.13422C25.301 3.88628 25.309 3.88628 25.341 5.57841C25.349 5.96227 25.493 6.18162 25.837 6.34614C26.6208 6.7065 27.3887 7.09819 28.1566 7.47422C27.9806 9.3857 27.8046 11.2424 27.6287 13.1225C27.3727 13.2478 27.1087 13.381 26.8448 13.5064C25.2371 14.2819 25.253 14.2819 25.285 16.0681C25.293 16.4598 25.445 16.6713 25.789 16.828C26.1329 16.9768 26.4609 17.1413 26.8048 17.3215L27.1167 17.4703L24.7571 24.2467C24.6132 24.5522 24.4612 24.8577 24.3252 25.1711C24.1572 25.555 24.0213 25.9937 24.0133 26.401C23.9973 33.1539 23.9973 39.9067 24.0053 46.6596C24.0053 48.0462 24.9491 48.9941 26.3409 48.9941C35.4514 49.002 44.5539 49.002 53.6644 48.9941C55.0322 48.9941 55.992 48.0541 56 46.7144C56 39.9224 56 33.1304 55.984 26.3384ZM26.5568 24.0195H26.0929L26.7328 22.1629L26.5568 24.0195ZM28.3245 18.0657L28.4605 18.1284V18.1206C28.5085 18.1441 28.5565 18.1754 28.5965 18.1989L28.9084 18.3477C29.3324 18.5201 29.7163 18.4966 30.1802 18.2616C33.2437 16.6948 36.3472 15.1907 39.4187 13.6474C39.8267 13.4437 40.1546 13.4202 40.5705 13.6395C43.2421 15.0183 45.9297 16.3657 48.6172 17.7289C49.1051 17.9717 49.601 18.2302 50.113 18.4261C50.3049 18.5044 50.5689 18.4887 50.7769 18.4261L51.6807 17.9482L52.2726 24.0195H52.2006C51.9687 24.0195 51.7367 24.0195 51.5047 24.0195C43.834 24.0195 36.1633 24.0195 28.4045 24.0195C28.1806 24.0195 27.9646 24.0195 27.7486 24.0195L28.3245 18.0657ZM30.3322 16.4833C33.0118 15.1593 35.6913 13.8354 38.3709 12.5114C38.6988 12.3469 39.0348 12.1981 39.3707 12.0414C39.6267 12.5114 39.3227 12.6446 39.0348 12.7856C37.1471 13.7179 35.2594 14.6501 33.3797 15.5824C32.3399 16.0994 31.2921 16.6086 30.2522 17.1178C30.1562 17.1726 30.0443 17.204 29.9243 17.2431C29.7163 16.7809 30.0203 16.6321 30.3322 16.4833ZM40.5625 11.9631C40.7785 12.0649 40.9865 12.1511 41.1944 12.2529C43.2501 13.287 45.3058 14.3211 47.3614 15.3552C48.1213 15.739 48.8732 16.1151 49.641 16.4754C49.969 16.6321 50.145 16.8436 49.969 17.2823C49.745 17.1883 49.5211 17.0943 49.3051 16.9925C46.4976 15.598 43.706 14.1879 40.8985 12.8013C40.5385 12.629 40.3866 12.4174 40.5625 11.9631ZM53.4644 24.0587L53.2804 22.1629L53.9283 24.0195C53.7604 24.0352 53.6404 24.043 53.4644 24.0587ZM53.5764 15.6372C53.5204 15.8095 53.5284 16.0759 53.4164 16.1386C52.6805 16.5381 51.9207 16.8985 51.1688 17.2667C51.1208 17.2275 51.0728 17.1883 51.0248 17.1491C51.1288 16.9611 51.1928 16.6948 51.3528 16.6086C52.0167 16.2326 52.7125 15.9114 53.4004 15.5667C53.4564 15.5902 53.5124 15.6137 53.5764 15.6372ZM53.1605 5.83693C50.6969 7.01985 48.2413 8.21845 45.7857 9.42487C45.4577 9.58939 45.1618 9.66773 44.8178 9.26036C47.7374 7.81892 50.6249 6.3853 53.5844 4.92036C53.6644 5.39039 53.5524 5.64891 53.1605 5.83693ZM51.2968 12.7308C49.5531 11.9004 47.9373 11.1327 46.1936 10.3023C47.8093 9.47971 49.3131 8.71199 50.8968 7.90509C51.0328 9.53455 51.1528 11.0387 51.2968 12.7308ZM26.7328 5.8761C26.3249 5.68808 26.1409 5.45307 26.3409 4.92036C29.3164 6.3853 32.2839 7.85025 35.2834 9.33087C34.9315 9.69906 34.6355 9.7539 34.2036 9.54238C31.724 8.29679 29.2284 7.08253 26.7328 5.8761ZM33.6837 10.2944C32.0359 11.0857 30.5002 11.8299 28.8205 12.6446C28.9724 11.0073 29.1004 9.56589 29.2444 8.03827C30.7162 8.78249 32.1319 9.50321 33.6837 10.2944ZM29.2844 13.4359C31.628 12.2686 33.9796 11.1092 36.3152 9.92625C36.5552 9.8009 36.8671 9.49538 36.8591 9.28386C36.8511 9.06451 36.5232 8.79033 36.2752 8.66498C33.3797 7.22354 30.4762 5.80559 27.5807 4.37982C27.3887 4.28581 27.2047 4.18397 26.8768 4.01945C27.7406 3.61992 28.4765 3.25956 29.2364 2.95404C29.3884 2.8992 29.6443 3.04021 29.8283 3.12638C33.0038 4.70101 36.1873 6.27563 39.3467 7.87375C39.8267 8.10877 40.2026 8.10094 40.6665 7.85809C43.794 6.2678 46.9295 4.70101 50.049 3.11855C50.4009 2.93837 50.6889 2.91487 51.0408 3.09505C51.6807 3.43191 52.3526 3.72176 53.1445 4.08996C51.8887 4.70101 50.7929 5.23371 49.705 5.76642C47.7214 6.74567 45.7457 7.71707 43.778 8.71199C43.5061 8.84516 43.1541 9.13502 43.1461 9.3622C43.1381 9.57372 43.4821 9.88708 43.746 10.0203C46.5775 11.4539 49.4251 12.8561 52.2646 14.2584C52.4726 14.3681 52.6805 14.4778 53.0165 14.6501C52.1686 15.0653 51.4248 15.457 50.6649 15.786C50.5209 15.8487 50.2569 15.7155 50.073 15.6215C46.9375 14.0547 43.802 12.4879 40.6825 10.8898C40.1946 10.6391 39.8107 10.6391 39.3147 10.8898C36.1633 12.4801 33.0038 14.0391 29.8523 15.6215C29.4764 15.8095 29.1804 15.8252 28.8125 15.6215C28.2126 15.2847 27.5887 15.0026 26.8688 14.6501C27.7486 14.2036 28.5165 13.8119 29.2844 13.4359ZM26.4848 16.1856C26.3329 16.0994 26.3009 15.7939 26.2129 15.5824C26.2609 15.5432 26.3089 15.504 26.3569 15.4648C27.1407 15.8565 27.9326 16.2247 28.6925 16.6478C28.8205 16.7183 28.8125 17.0395 28.9084 17.392C27.9886 16.9376 27.2207 16.5929 26.4848 16.1856ZM24.7651 25.978C24.8291 25.3199 25.373 24.8656 26.0529 24.7951C26.2449 24.7716 26.4449 24.7794 26.6448 24.7794C35.5474 24.7794 44.4579 24.7794 53.3604 24.7872C54.8082 24.7872 55.2721 25.2494 55.2721 26.6752C55.2721 27.0826 55.2721 27.4899 55.2721 27.9365C45.0658 27.9365 34.9315 27.9365 24.7491 27.9365C24.7491 27.2549 24.7011 26.6047 24.7651 25.978ZM53.5204 48.2969C44.5059 48.2969 35.4994 48.2969 26.4928 48.2969C25.253 48.2969 24.7171 47.772 24.7171 46.5578C24.7171 40.8155 24.7171 35.081 24.7171 29.3388C24.7171 29.1507 24.7171 28.9549 24.7171 28.6964C34.9315 28.6964 45.0658 28.6964 55.2561 28.6964C55.2641 28.9236 55.2881 29.1272 55.2881 29.3309C55.2881 35.0732 55.2881 40.8077 55.2881 46.5499C55.2881 47.7642 54.7522 48.2969 53.5204 48.2969Z" fill="black"></path></svg>