<svg width="50" height="50" viewBox="0 0 50 50" fill="none" xmlns="http://www.w3.org/2000/svg">
<path d="M20.5279 27.3729V40H9V30.0312C9 24.634 9.63712 20.7271 10.9114 18.3104C12.5838 15.0882 15.2319 12.6514 18.8555 11L21.4836 15.2292C19.2935 16.1556 17.6808 17.5451 16.6455 19.3979C15.6101 21.2104 15.0328 23.8687 14.9133 27.3729H20.5279ZM39.0443 27.3729V40H27.5164V30.0312C27.5164 24.634 28.1535 20.7271 29.4277 18.3104C31.1002 15.0882 33.7482 12.6514 37.3719 11L40 15.2292C37.8099 16.1556 36.1972 17.5451 35.1618 19.3979C34.1265 21.2104 33.5491 23.8687 33.4297 27.3729H39.0443Z" fill="#EEF5FC"/>
</svg>
