<svg xmlns="http://www.w3.org/2000/svg" width="80" height="50" viewBox="0 0 80 50" fill="none"><path d="M60.9872 29.0946C60.9741 29.4976 60.4399 29.9425 59.3531 30.5095C57.1114 31.679 45.5036 36.4565 43.0283 37.7414C40.5542 39.0329 39.1866 39.0198 37.231 38.0826C35.2753 37.1534 22.9234 32.1554 20.6948 31.0962C19.587 30.5633 19.02 30.1184 18.999 29.6945V33.9391C18.999 34.363 19.587 34.8066 20.6948 35.3408C22.9234 36.4079 35.2832 41.398 37.231 42.3273C39.1866 43.2644 40.5529 43.2775 43.0283 41.986C45.5023 40.7011 57.1101 35.9223 59.3531 34.7541C60.495 34.1661 61.0003 33.7015 61.0003 33.2841V29.0999C61.0003 29.0933 60.9938 29.0933 60.9872 29.0933V29.0946ZM60.9872 22.1765C60.9662 22.5728 60.4399 23.0178 59.3531 23.5913C57.1114 24.7529 45.5036 29.5317 43.0283 30.8166C40.5542 32.1081 39.1866 32.095 37.231 31.1658C35.2753 30.2286 22.9234 25.2385 20.6948 24.1728C19.587 23.6465 19.02 23.195 18.999 22.771V27.0156C18.999 27.4396 19.587 27.8911 20.6948 28.4174C22.9234 29.4845 35.2753 34.4746 37.231 35.4104C39.1866 36.3396 40.5529 36.3541 43.0283 35.0691C45.5023 33.7776 57.1101 29.0054 59.3531 27.8373C60.495 27.2427 61.0003 26.7781 61.0003 26.3607V22.1765H60.9872ZM60.9872 14.9918C61.0082 14.5679 60.4543 14.1925 59.3256 13.7817C57.1455 12.9824 45.5995 8.38864 43.3905 7.57489C41.1829 6.7677 40.2799 6.80183 37.6825 7.73239C35.085 8.66951 22.8 13.4877 20.6134 14.3421C19.5201 14.7726 18.9859 15.169 19.0069 15.593V19.8376C19.0069 20.2615 19.5883 20.7051 20.7026 21.2393C22.9247 22.3064 35.2832 27.2965 37.2388 28.2323C39.1866 29.1616 40.5608 29.176 43.0361 27.8832C45.5036 26.5983 57.118 21.8195 59.361 20.6579C60.4963 20.0633 61.0016 19.5987 61.0016 19.1813V14.9905L60.9872 14.9918ZM34.039 19.012L43.7738 17.5223L40.8338 21.8286L34.039 19.012ZM55.5653 15.1283L49.1878 17.651L43.4325 15.3751L49.8034 12.859L55.5653 15.1283ZM38.6668 10.9585L37.7232 9.22208L40.6631 10.3705L43.4312 9.46751L42.6791 11.2591L45.5023 12.3183L41.8654 12.6936L41.0451 14.6558L39.7326 12.4679L35.5287 12.0925L38.6668 10.9585ZM31.414 13.4129C34.2923 13.4129 36.6167 14.3159 36.6167 15.4223C36.6167 16.5366 34.2857 17.4383 31.414 17.4383C28.5422 17.4383 26.2112 16.5353 26.2112 15.4223C26.2112 14.3146 28.5422 13.4129 31.414 13.4129Z" fill="black"></path></svg>