<svg xmlns="http://www.w3.org/2000/svg" width="80" height="50" viewBox="0 0 80 50" fill="none"><path fill-rule="evenodd" clip-rule="evenodd" d="M54.8087 9.54543L55.7362 10.7665C55.9797 11.0888 55.9188 11.5508 55.5965 11.7943L54.6118 12.5427C54.7908 13.0189 54.9054 13.5274 54.9519 14.0467L56.0728 14.2006C56.4738 14.2544 56.7532 14.6268 56.6994 15.0278L56.4917 16.5497C56.438 16.9508 56.0656 17.2337 55.6645 17.1764L54.4399 17.0081C54.2214 17.4844 53.9421 17.9212 53.6127 18.3116L54.3002 19.214C54.5437 19.5362 54.4793 19.9982 54.157 20.2417L52.9359 21.1692C52.6136 21.4127 52.1516 21.3482 51.9081 21.0295L51.1597 20.0447C50.6799 20.2238 50.175 20.3384 49.6522 20.3849L49.4982 21.5058C49.4445 21.9068 49.072 22.1861 48.671 22.1324L47.1491 21.9247C46.748 21.871 46.4687 21.4986 46.5224 21.0975L46.6907 19.8729C46.218 19.6544 45.7776 19.3751 45.3873 19.0492L44.4849 19.7332C44.1626 19.9767 43.7006 19.9158 43.4571 19.5935L42.5297 18.3724C42.2862 18.0502 42.347 17.5882 42.6693 17.3447L43.6541 16.5963C43.475 16.1165 43.3604 15.6115 43.3139 15.0923L42.1931 14.9383C41.792 14.8846 41.5091 14.5122 41.5664 14.1111L41.7741 12.5892C41.8314 12.1882 42.2002 11.9088 42.6013 11.9626L43.826 12.1309C44.0444 11.6582 44.3237 11.2177 44.6496 10.8274L43.9656 9.92501C43.7221 9.60631 43.783 9.14436 44.1053 8.90086L45.3264 7.9734C45.6487 7.72989 46.1106 7.79077 46.3541 8.11305L47.1025 9.09781C47.5788 8.91877 48.0873 8.80418 48.6065 8.75762L48.7605 7.63679C48.8142 7.23572 49.1866 6.95283 49.5877 7.00654L51.1096 7.21424C51.5107 7.26795 51.7936 7.64037 51.7363 8.04144L51.568 9.26612C52.0442 9.48455 52.4811 9.76387 52.875 10.0933L53.7774 9.40935C54.0997 9.16227 54.5616 9.22314 54.8087 9.54543ZM28.6249 31.0346V25.1261H31.6687C32.2345 25.1261 32.6642 25.1726 32.9614 25.2729C33.2586 25.3696 33.5021 25.5486 33.6812 25.8101C33.8638 26.075 33.9569 26.3937 33.9569 26.7697C33.9569 27.0956 33.8853 27.3821 33.7456 27.6184C33.606 27.8583 33.4126 28.0517 33.1691 28.1985C33.0151 28.2916 32.8003 28.3704 32.5281 28.4313C32.7465 28.5065 32.9041 28.5745 33.0008 28.6497C33.0688 28.6999 33.1655 28.8037 33.2908 28.9613C33.4162 29.1188 33.5021 29.2442 33.5451 29.3301L34.4332 31.0382H32.3705L31.3965 29.237C31.2712 29.0042 31.1638 28.8503 31.0671 28.7822C30.9346 28.6927 30.7842 28.6462 30.6195 28.6462H30.4583V31.0382H28.6249V31.0346ZM35.0634 41.3227H31.6544L31.1638 42.9269H28.0913L31.7546 33.1904H35.0491L38.6981 42.9269H35.5468L35.0634 41.3227ZM34.426 39.2135L33.3625 35.7113L32.2953 39.2135H34.426ZM39.4071 33.1904H44.4132C45.5054 33.1904 46.3219 33.4482 46.8626 33.9674C47.4033 34.4867 47.6755 35.2279 47.6755 36.184C47.6755 37.1688 47.3783 37.9387 46.7874 38.4937C46.1965 39.0488 45.2906 39.3245 44.0766 39.3245H42.4258V42.9269H39.4071V33.1904V33.1904ZM42.4258 37.3514H43.1671C43.7508 37.3514 44.1626 37.2512 44.3989 37.047C44.6353 36.8465 44.7534 36.5851 44.7534 36.2736C44.7534 35.9692 44.6496 35.7078 44.4455 35.4965C44.2414 35.2852 43.8546 35.1778 43.2888 35.1778H42.4258V37.3514V37.3514ZM48.893 33.1904H51.9117V42.9269H48.893V33.1904V33.1904ZM30.4583 27.5253H31.2282C31.3106 27.5253 31.4717 27.4967 31.7117 27.443C31.8334 27.4179 31.9337 27.357 32.0089 27.2568C32.0877 27.1565 32.1235 27.0419 32.1235 26.913C32.1235 26.7232 32.0626 26.5728 31.9408 26.4725C31.8191 26.3687 31.5935 26.3185 31.2605 26.3185H30.4583V27.5253ZM34.7841 25.1261H39.6721V26.3866H36.6175V27.3284H39.4501V28.5316H36.6175V29.6954H39.7616V31.0311H34.7841V25.1261ZM40.1949 29.0794L41.9281 28.972C41.9639 29.2549 42.0427 29.4662 42.1572 29.613C42.347 29.8494 42.6156 29.9711 42.963 29.9711C43.2208 29.9711 43.4249 29.9102 43.5646 29.7885C43.7042 29.6667 43.7758 29.5235 43.7758 29.3623C43.7758 29.2084 43.7078 29.0723 43.5753 28.9505C43.4428 28.8288 43.1313 28.7178 42.6407 28.6068C41.8421 28.4277 41.2728 28.1878 40.929 27.8906C40.5852 27.5934 40.4133 27.2138 40.4133 26.7518C40.4133 26.4475 40.5029 26.161 40.6783 25.8924C40.8538 25.6238 41.1188 25.409 41.4733 25.255C41.8278 25.101 42.3112 25.0258 42.9272 25.0258C43.6827 25.0258 44.2557 25.1655 44.6532 25.4484C45.0471 25.7313 45.2834 26.1753 45.3586 26.7912L43.6433 26.8951C43.5968 26.6265 43.5001 26.4296 43.3569 26.3114C43.21 26.1896 43.0059 26.1288 42.7517 26.1288C42.5404 26.1288 42.3793 26.1753 42.2718 26.2648C42.1644 26.3544 42.1107 26.4654 42.1107 26.5943C42.1107 26.6874 42.1572 26.7697 42.2432 26.8485C42.3291 26.9237 42.5297 26.9989 42.852 27.067C43.6505 27.2388 44.2235 27.4143 44.5672 27.5898C44.911 27.7652 45.1652 27.9837 45.3192 28.2451C45.4768 28.5029 45.5556 28.7966 45.5556 29.1188C45.5556 29.4984 45.4517 29.8458 45.2404 30.1645C45.0327 30.4832 44.7391 30.7267 44.3631 30.8914C43.9871 31.0561 43.5144 31.1385 42.9415 31.1385C41.9388 31.1385 41.2405 30.9451 40.8538 30.5584C40.467 30.1645 40.2486 29.6739 40.1949 29.0794ZM45.8206 25.1261H51.3746V26.5871H49.5125V31.0346H47.6862V26.5871H45.8206V25.1261V25.1261ZM39.6757 11.1031C39.0203 11.053 38.3579 11.0602 37.7026 11.1246C35.6865 11.318 33.7277 12.0521 32.1091 13.309C30.2363 14.7593 28.8147 16.9293 28.2668 19.8048L28.0949 20.7036L27.1997 20.8612C26.3223 21.0152 25.5381 21.2265 24.8506 21.495C24.1845 21.7528 23.5901 22.0716 23.0708 22.4476C22.6555 22.7483 22.2974 23.085 21.993 23.4502C21.0512 24.5782 20.6143 25.9927 20.6251 27.4251C20.6358 28.8789 21.1085 30.3471 21.9822 31.5539C22.3081 32.0015 22.6841 32.4133 23.1138 32.7714C23.5507 33.1331 24.0413 33.4339 24.5927 33.6595C24.9043 33.7884 25.2373 33.8958 25.5847 33.9818V36.6639C24.8685 36.535 24.2096 36.3416 23.5937 36.0873C22.7808 35.7507 22.061 35.3174 21.4272 34.7875C20.8256 34.2861 20.2992 33.7168 19.8516 33.0973C18.6591 31.45 18.0146 29.4375 18.0002 27.4322C17.9859 25.4054 18.6162 23.3893 19.9769 21.7564C20.4174 21.2265 20.9366 20.7394 21.531 20.3097C22.2222 19.8084 23.0136 19.3858 23.9088 19.0385C24.5247 18.7986 25.1836 18.598 25.8783 18.4369C26.6661 15.3072 28.3456 12.8972 30.5049 11.2249C32.5245 9.66002 34.956 8.74688 37.4591 8.50696C38.7733 8.38162 40.1054 8.43892 41.4088 8.68242C41.3802 8.80059 41.3551 8.91877 41.3408 9.04052L41.3372 9.062C41.3121 9.26612 41.3014 9.47023 41.3121 9.67792C41.0364 9.78535 40.7786 9.93217 40.5458 10.1112L40.5351 10.1184C40.1877 10.3798 39.8941 10.7164 39.6757 11.1031ZM58.6224 17.9785C58.8229 18.1612 59.0163 18.351 59.2061 18.5551C59.5893 18.9669 59.9509 19.4324 60.2911 19.9516C61.437 21.7135 62.0243 24.0661 61.9992 26.3687C61.9742 28.6282 61.3654 30.8771 60.1192 32.5315C59.3064 33.6093 58.2643 34.4902 57.0146 35.1885C56.1587 35.6684 55.1954 36.0659 54.1462 36.3881V33.6129C54.712 33.4016 55.2384 33.1653 55.7218 32.8967C56.6636 32.3703 57.4335 31.7293 58.0101 30.9594C58.9053 29.767 59.3458 28.0804 59.3637 26.3508C59.3851 24.5352 58.9411 22.7125 58.0781 21.3876C57.831 21.0044 57.5589 20.6607 57.2724 20.3527C57.1614 20.2345 57.0504 20.1235 56.9358 20.0161C56.9537 19.837 56.9608 19.6544 56.9501 19.4718C57.2258 19.3644 57.4837 19.2175 57.7164 19.0385L57.7272 19.0313C58.096 18.7484 58.404 18.3903 58.6224 17.9785ZM49.5411 11.583C51.192 11.8086 52.345 13.3305 52.1194 14.9813C51.8938 16.6321 50.3719 17.7887 48.7211 17.5631C47.0703 17.3376 45.9137 15.8157 46.1428 14.1648C46.372 12.514 47.8903 11.3574 49.5411 11.583Z" fill="black"></path></svg>