<svg xmlns="http://www.w3.org/2000/svg" width="80" height="50" viewBox="0 0 80 50" fill="none"><path d="M21.3971 27.8728C21.3971 27.2481 21.3971 26.6768 21.3971 26.0978C21.3971 24.7494 21.4047 23.3933 21.3971 22.0449C21.3895 21.8011 21.4657 21.7097 21.7171 21.7097C22.5093 21.7021 23.3016 21.6259 24.0939 21.6564C24.5815 21.6793 25.069 21.8088 25.5414 21.9383C25.8537 22.0221 26.0442 22.2735 26.1661 22.563C26.3717 23.0429 26.3717 23.5381 26.2727 24.0333C26.1661 24.5361 25.8156 24.8255 25.2671 24.9779C25.3738 25.0617 25.4423 25.1074 25.5033 25.1607C25.6709 25.336 25.907 25.4959 25.9756 25.7016C26.1965 26.3644 26.3489 27.05 26.5317 27.7204C26.5393 27.7585 26.5241 27.7966 26.5241 27.8652C25.9832 27.8652 25.4499 27.8728 24.9167 27.8576C24.8633 27.8576 24.7872 27.7357 24.7643 27.6595C24.6424 27.1643 24.5205 26.6691 24.4139 26.174C24.3072 25.6788 24.1777 25.5417 23.6673 25.5417C22.8979 25.5264 23.0502 25.4579 23.035 26.1359C23.0274 26.631 23.0274 27.1186 23.0426 27.6138C23.0426 27.8042 22.9893 27.8804 22.7836 27.8728C22.3341 27.8576 21.8847 27.8728 21.3971 27.8728ZM23.0198 23.5838C23.0198 23.7742 23.0045 23.9647 23.0274 24.1475C23.0426 24.2237 23.1569 24.3456 23.2254 24.3456C23.553 24.3532 23.8882 24.3532 24.2158 24.2999C24.3606 24.2694 24.5282 24.1323 24.5815 24.0028C24.6577 23.8276 24.6577 23.6143 24.6348 23.4238C24.5891 23.02 24.4139 22.8677 23.9949 22.8524C23.9187 22.8448 23.8425 22.8448 23.7663 22.8448C23.0198 22.8448 23.0198 22.8448 23.0198 23.5838ZM50.8107 27.8652C50.247 27.8652 49.7214 27.8728 49.2033 27.8576C49.15 27.8499 49.0738 27.7281 49.051 27.6519C48.9519 27.3014 48.8681 26.9586 48.7843 26.6082C48.7538 26.4482 48.6624 26.4025 48.5024 26.4025C48.0377 26.4101 47.5654 26.4101 47.1007 26.4025C46.9179 26.4025 46.8188 26.4558 46.7731 26.6387C46.6969 26.9891 46.6131 27.3395 46.5065 27.6823C46.4836 27.7585 46.377 27.8576 46.3084 27.8576C45.8132 27.8728 45.3181 27.8652 44.7619 27.8652C44.8305 27.629 44.8838 27.4233 44.9372 27.2253C45.4247 25.5874 45.9123 23.9495 46.3998 22.3116C46.5294 21.8545 46.7046 21.7326 47.1769 21.7402C47.6187 21.7554 48.0606 21.7478 48.5024 21.7478C48.8376 21.7554 49.0738 21.9154 49.1652 22.2278C49.6604 23.919 50.1632 25.6178 50.6584 27.3091C50.7041 27.4767 50.7498 27.6519 50.8107 27.8652ZM48.411 25.1836C48.3806 25.0236 48.3501 24.8865 48.3196 24.757C48.2053 24.2542 48.0911 23.7438 47.9616 23.2486C47.9387 23.1419 47.8397 23.0505 47.7711 22.9591C47.7102 23.0581 47.6264 23.1419 47.6035 23.2486C47.5045 23.6219 47.4283 24.0028 47.3369 24.3761C47.2759 24.6351 47.215 24.9017 47.1464 25.1836C47.5883 25.1836 47.9844 25.1836 48.411 25.1836ZM35.544 22.9743C35.1478 22.9743 34.7593 22.9515 34.3708 22.9896C34.2337 22.9972 34.0432 23.1267 33.9899 23.2486C33.8909 23.4619 34.0204 23.66 34.2337 23.7514C34.6298 23.919 35.0412 24.0485 35.4297 24.2237C35.7725 24.3761 36.1306 24.5361 36.4353 24.757C36.9686 25.1455 37.0676 25.7397 37.0448 26.3492C37.0295 26.5396 36.9991 26.7301 36.9457 26.9129C36.7857 27.4843 36.3667 27.7661 35.7954 27.8804C35.0183 28.0252 34.2337 28.0023 33.4566 27.9033C33.1747 27.8652 32.8929 27.8042 32.611 27.7738C32.4053 27.7509 32.352 27.6443 32.3748 27.4614C32.3977 27.2253 32.4282 26.9967 32.4358 26.7606C32.451 26.5853 32.5196 26.532 32.6872 26.5396C33.2966 26.5549 33.8985 26.5701 34.5003 26.5777C34.6527 26.5777 34.8126 26.593 34.9498 26.5472C35.0945 26.4939 35.2774 26.4025 35.3307 26.2806C35.4145 26.0902 35.3154 25.8845 35.1098 25.793C34.866 25.6788 34.6146 25.595 34.3708 25.4883C33.9289 25.2979 33.4719 25.1379 33.0681 24.8941C32.2606 24.3837 32.0244 23.02 32.5729 22.2354C32.7557 21.9764 33.0224 21.824 33.3271 21.7631C34.447 21.5497 35.5516 21.5802 36.6562 21.8469C36.8162 21.8773 36.8543 21.9611 36.8315 22.1059C36.801 22.3344 36.7857 22.5553 36.7629 22.7839C36.7553 22.9362 36.6715 22.9896 36.5191 22.982C36.1915 22.9743 35.8716 22.982 35.544 22.982V22.9743ZM51.3059 24.7875C51.3059 23.858 51.3059 22.9362 51.3059 22.0068C51.3059 21.8469 51.3212 21.725 51.5269 21.725C52.5858 21.725 53.6523 21.6716 54.7036 21.7326C55.6635 21.7859 56.0673 22.2125 56.1663 23.1572C56.212 23.6219 56.2196 24.1094 56.1206 24.5665C55.9378 25.3893 55.5035 25.595 54.6808 25.694C54.2161 25.755 53.7437 25.7245 53.279 25.7016C53.0276 25.694 52.9591 25.7702 52.9667 26.0064C52.9819 26.532 52.9667 27.0653 52.9743 27.5909C52.9819 27.7966 52.921 27.8804 52.7 27.8728C52.3268 27.8576 51.9535 27.8576 51.5802 27.8728C51.3669 27.8804 51.2983 27.8042 51.3059 27.5909C51.3135 26.6615 51.3059 25.7245 51.3059 24.7875ZM52.9514 23.6981C52.9514 23.9114 52.9362 24.1171 52.9591 24.3227C52.9667 24.3989 53.0581 24.5284 53.1114 24.5284C53.4542 24.5361 53.8047 24.5284 54.1399 24.4827C54.2541 24.4675 54.4065 24.3304 54.437 24.2237C54.5055 23.9799 54.5284 23.7285 54.5284 23.4771C54.5284 23.0886 54.2999 22.8677 53.9037 22.8524C53.6675 22.8372 53.4238 22.8524 53.1876 22.8448C53.02 22.8372 52.9438 22.9058 52.9514 23.081C52.9591 23.2867 52.9514 23.4924 52.9514 23.6981ZM29.8532 27.8804C29.4495 27.8804 29.0457 27.8804 28.6496 27.8804C27.8268 27.8804 27.3088 27.3624 27.3012 26.5472C27.3012 25.3741 27.3012 24.2009 27.3012 23.0277C27.3088 22.2506 27.8344 21.725 28.6191 21.7326C29.5485 21.7326 30.4779 21.7554 31.4073 21.7783C31.7502 21.7859 31.773 21.8392 31.7349 22.1744C31.7121 22.3496 31.7044 22.5325 31.7044 22.7077C31.7121 22.921 31.6283 23.0124 31.3997 23.0048C30.7522 22.9972 30.097 23.0124 29.4495 23.02C29.1067 23.02 29.0305 23.081 28.9848 23.4162C28.8705 24.1247 28.8933 24.1475 29.5866 24.1475C30.0742 24.1475 30.5617 24.1551 31.0493 24.1399C31.2626 24.1399 31.3616 24.1932 31.3616 24.4294C31.3692 25.2674 31.3769 25.2674 30.5312 25.2674C30.097 25.2674 29.6704 25.275 29.2362 25.2674C29.0229 25.2598 28.9467 25.3436 28.9619 25.5493C28.9771 25.7473 28.9467 25.9454 28.9695 26.1435C29 26.4939 29.0762 26.5777 29.4342 26.5853C30.0589 26.6082 30.676 26.6006 31.3007 26.6006C31.6968 26.6006 31.6892 26.6006 31.7044 26.9891C31.7121 27.1643 31.7349 27.3472 31.7578 27.5224C31.7806 27.7052 31.7273 27.8042 31.514 27.8119C30.9655 27.8271 30.4094 27.8728 29.8532 27.9033C29.8532 27.8957 29.8532 27.888 29.8532 27.8804ZM42.7127 21.7478C42.7127 22.1363 42.705 22.4792 42.7127 22.8144C42.7203 22.9972 42.6441 23.0429 42.4765 23.0429C42.0499 23.0353 41.6309 23.0505 41.2119 23.0353C40.9833 23.0277 40.9148 23.0962 40.9148 23.3172C40.93 24.7265 40.9148 26.1359 40.93 27.5452C40.93 27.8119 40.8538 27.888 40.5872 27.8728C40.2291 27.8499 39.8635 27.8576 39.4978 27.8728C39.2845 27.8804 39.2235 27.8119 39.2235 27.5985C39.2312 26.1968 39.2235 24.8027 39.2235 23.401C39.2235 23.0353 39.2235 23.0353 38.8503 23.0353C38.477 23.0353 38.1037 23.0277 37.7304 23.0429C37.5247 23.0429 37.4638 22.9667 37.4714 22.7763C37.4866 22.5249 37.4866 22.2811 37.4714 22.0373C37.4561 21.8088 37.5323 21.7478 37.7609 21.7478C39.1778 21.7554 40.5948 21.7478 42.0118 21.7478C42.2327 21.7478 42.4536 21.7478 42.7127 21.7478ZM62.855 24.9703C62.078 24.7646 61.9866 24.2009 61.9942 23.5762C62.0018 23.2105 61.9942 22.8372 62.0018 22.4715C62.0018 22.2125 61.9028 22.0449 61.6209 22.0525C61.4228 22.0525 61.3771 21.9535 61.3923 21.7859C61.4 21.664 61.3923 21.5421 61.3923 21.4126C61.3923 21.0241 61.3923 21.0165 61.7809 21.0089C62.2303 20.9936 62.6798 20.9936 63.0683 21.2755C63.4264 21.5269 63.5635 21.8926 63.5711 22.3039C63.5864 22.8601 63.5635 23.4162 63.5864 23.9723C63.594 24.1018 63.6702 24.2847 63.7768 24.338C63.952 24.4218 64.013 24.5208 63.9977 24.7037C63.9825 24.8484 63.9825 24.9931 63.9901 25.1303C64.013 25.3436 63.9749 25.4883 63.7463 25.6026C63.6321 25.6559 63.5483 25.8768 63.5407 26.0216C63.5254 26.6539 63.533 27.2862 63.533 27.9261C63.5407 28.8251 63.0912 29.305 62.177 29.3583C61.3466 29.4117 61.3466 29.4117 61.3466 28.6041C61.3466 28.4061 61.3847 28.307 61.6133 28.3147C61.8799 28.3299 61.9713 28.1547 61.9713 27.9109C61.9713 27.4767 61.9789 27.0424 61.9713 26.6082C61.9485 25.9073 61.9637 25.2293 62.855 24.9703ZM17.1309 24.9474C17.2452 25.0084 17.2833 25.0389 17.329 25.0541C17.8623 25.2445 18.0223 25.6712 18.0375 26.174C18.0527 26.692 18.0375 27.21 18.0375 27.7281C18.0375 28.2613 18.0832 28.307 18.6622 28.3527C18.6622 28.5051 18.6622 28.6575 18.6622 28.8175C18.6622 28.9774 18.6622 29.1374 18.6622 29.2898C17.9765 29.4726 17.0624 29.3812 16.7576 28.8708C16.6205 28.6346 16.5062 28.3527 16.491 28.0861C16.4529 27.4233 16.4758 26.7606 16.4758 26.0978C16.4834 25.8311 16.4224 25.6102 16.1406 25.5112C16.1253 25.5112 16.1177 25.5112 16.1101 25.5036C15.9425 25.3893 15.973 24.4827 16.1558 24.3989C16.3691 24.2999 16.4377 24.1475 16.4377 23.9266C16.4301 23.3476 16.4605 22.7763 16.4529 22.1973C16.4453 21.4888 17.1081 21.0317 17.7023 21.0012C17.7328 21.0012 17.7632 21.0012 17.7937 21.0012C18.7993 21.0012 18.5784 20.9327 18.6012 21.8164C18.6089 21.9764 18.5631 22.0678 18.3803 22.0602C18.0984 22.0449 18.0146 22.2125 18.0146 22.4563C18.007 22.9667 17.9994 23.4771 17.9842 23.9875C17.9689 24.498 17.6947 24.8103 17.1309 24.9474ZM57.0271 21.7554C57.5071 21.7554 57.9947 21.7478 58.4746 21.7631C58.5355 21.7631 58.627 21.8849 58.6346 21.9611C58.6574 22.182 58.6422 22.4106 58.6422 22.6391C58.6422 24.2618 58.6346 25.8921 58.6498 27.5148C58.6498 27.8042 58.5736 27.8957 58.2765 27.8728C57.9261 27.8499 57.568 27.8652 57.2176 27.8728C57.0729 27.8728 56.9814 27.8423 56.9814 27.6671C56.9814 25.7321 56.9891 23.7971 56.9891 21.8621C56.9891 21.8316 57.0119 21.8088 57.0271 21.7554ZM44.3049 27.0958C44.3049 27.1796 44.3125 27.2634 44.3049 27.3548C44.3049 27.6595 44.1906 27.8119 43.8782 27.8499C43.6421 27.8804 43.3983 27.8728 43.1697 27.8423C42.8498 27.8042 42.7736 27.5909 42.7888 26.9891C42.7965 26.5396 42.8879 26.4025 43.2002 26.3644C43.3831 26.3416 43.5811 26.3339 43.7716 26.3416C44.183 26.3492 44.3049 26.4787 44.3049 26.8977C44.3049 26.9662 44.3049 27.0272 44.3049 27.0958ZM44.3125 24.6122C44.3048 24.7265 44.3353 24.8941 44.282 25.0236C44.1144 25.435 43.7259 25.2979 43.4059 25.3131C43.1545 25.3283 42.865 25.3055 42.8193 25.0008C42.7736 24.7113 42.7888 24.4142 42.8269 24.1247C42.865 23.8657 43.0631 23.7742 43.4973 23.7971C43.7944 23.8123 44.1677 23.7057 44.2896 24.1247C44.3277 24.2618 44.3048 24.4218 44.3125 24.6122Z" fill="black"></path></svg>