<svg xmlns="http://www.w3.org/2000/svg" width="80" height="50" viewBox="0 0 80 50" fill="none"><g clip-path="url(#clip0_790_1808)"><path d="M45.0752 16.1753L50.8322 22.078L49.3748 24.7379L39.3547 37.2722L29.3345 25.0294L27.8771 22.078L33.6341 16.1753H45.0752ZM43.2184 6.97346L41.0621 9.82429C51.4267 10.8385 57.6488 21.4106 54.3688 30.6847L56.0379 34.0045L59.3549 33.7535C64.8084 20.7974 56.155 5.45534 41.4888 4.09663L43.2184 6.97346ZM19.477 33.2339C13.9237 19.0929 24.7321 3.49294 40.1655 4.01264L41.9037 6.90356L39.7516 9.74867C28.4412 9.54614 20.6117 21.1805 25.0013 31.5631L21.4092 30.6207L19.477 33.2339ZM58.8411 34.8862L55.3916 35.1473L53.8238 32.0292C49.2795 42.5174 32.7783 45.6499 25.6128 32.8512L21.847 31.8632L19.9741 34.3961C28.7509 52.3622 52.0204 49.5654 58.8411 34.8862Z" fill="black"></path></g><defs><clipPath id="clip0_790_1808"><rect width="80" height="50" fill="white"></rect></clipPath></defs></svg>