<svg xmlns="http://www.w3.org/2000/svg" width="80" height="50" viewBox="0 0 80 50" fill="none"><g clip-path="url(#clip0_790_1757)"><path d="M32.3007 30.1494C31.5767 30.6094 30.4778 31.3506 29.6344 32.1513C28.2374 33.4717 27.9478 35.3117 28.6804 35.7376C29.3619 36.1294 30.9463 35.6609 32.0793 34.4172C33.2719 33.1139 33.7659 31.4528 33.2548 29.5787C33.1952 29.6128 33.1441 29.6469 33.0844 29.6809L33.0078 29.7235C32.7096 29.9024 32.4711 30.0472 32.3007 30.1494ZM52.7367 29.5617C52.3278 30.4561 52.3107 30.7457 52.43 30.8394C53.0263 30.618 54.023 30.0983 54.023 28.7098C54.0315 28.4969 53.9804 28.2754 53.9122 28.0369C53.2733 28.6076 52.8985 29.2039 52.7367 29.5617ZM59.1511 26.8357C57.5581 26.6483 56.3144 26.8783 55.3433 27.2787C55.5222 27.7472 55.6585 28.2328 55.6756 28.7269C55.7267 29.8087 54.9856 30.6009 54.2189 31.1717C53.7674 31.5039 53.2904 31.7339 52.89 31.8617C52.5663 31.998 52.1404 32.1428 51.8337 32.0746C51.1693 31.9383 50.8115 31.342 51.263 30.0302C51.51 29.3146 52.217 28.2328 53.3585 27.3043C53.103 26.7591 52.8133 26.2139 52.66 25.7113C52.3704 24.7146 52.2852 24.1098 52.2852 24.1098C52.2852 24.1098 51.3396 26.0776 50.13 27.858C50.0533 27.9602 49.9852 28.0624 49.917 28.1646C50.1556 28.7269 50.343 29.3146 50.3685 29.9109C50.4111 30.9843 49.9511 31.802 49.1759 32.3728C48.7585 32.6794 48.3156 32.8924 47.9322 33.0287C47.6937 33.1394 47.1911 33.3183 46.4841 33.3609C46.1007 33.3865 45.7259 33.3694 45.5215 33.2076C45.2318 32.9861 45.1978 32.722 45.3511 32.3557C45.4704 32.0491 46.4074 30.9672 47.1911 30.0302C47.4041 29.7746 47.6085 29.5191 47.8044 29.2635L47.7959 29.2465C47.7959 29.2465 47.9407 29.0676 48.1707 28.7439C47.8811 28.122 47.5233 27.4746 47.353 26.8869C47.0548 25.8987 46.9696 25.2939 46.9696 25.2939C46.9696 25.2939 46.0156 27.7557 45.0189 29.715C44.2522 31.2398 43.7326 32.1598 43.5026 32.5687V32.5857C43.5026 32.5857 43.4685 32.6369 43.4089 32.7306L43.3663 32.8072V32.7987C43.1022 33.182 42.523 33.9317 41.9522 33.9317C40.3678 33.9317 40.947 30.7117 40.947 30.7117C40.947 30.7117 40.487 31.9043 39.9674 32.9265C39.5415 33.7613 39.1581 34.4769 38.3063 34.4769C38.0678 34.4769 37.6844 34.4683 37.3607 34.1617C36.6367 33.4717 36.083 31.7083 36.1852 30.3454C36.2789 29.1869 36.4578 28.3776 36.7048 27.7131C36.2193 27.9772 35.7337 28.2498 35.2567 28.5309L34.473 28.9909L34.4985 29.042C35.1459 30.3028 35.3163 33.0713 33.9022 35.1924C32.4881 37.3135 29.8559 38.6083 27.2833 37.8928C26.457 37.6628 25.2048 35.9335 26.2867 33.5398C27.2407 31.4187 31.04 29.4169 32.0452 28.9143L32.3178 28.7609C30.3244 27.0061 25.3326 24.6294 24.6256 20.992C24.4296 19.9613 24.9067 17.508 27.9052 14.6883C30.4267 12.3202 33.9363 10.4972 37.1733 9.34722C42.6081 7.39648 48.3581 8.54648 49.2441 12.0306C50.113 15.4635 47.157 19.5694 43.3663 21.0431C39.9844 22.355 37.1819 22.1506 36.0319 21.7672C34.7285 21.3413 33.9619 20.4724 33.7744 19.9783C33.6978 19.7909 33.57 19.4672 33.7744 19.3565C33.8937 19.2883 33.9448 19.3054 34.277 19.6717C34.5837 20.0124 35.8359 20.9409 38.2211 20.6769C44.4822 19.9698 48.2474 15.0802 47.0548 12.448C46.22 10.608 41.3985 9.77315 35.3759 12.7972C28.0244 16.4857 27.6241 19.5183 27.5644 20.6769C27.3941 23.8457 31.4574 25.5239 33.6552 27.8835L33.7404 27.9772C34.1578 27.7472 34.5922 27.5087 35.0181 27.2702C35.8956 26.7846 36.773 26.2991 37.6589 25.8135C38.4341 24.6806 40.0015 23.4369 41.143 23.4369C42.9489 23.4369 42.327 26.052 42.327 26.052C42.327 26.052 42.3696 25.9328 42.4122 25.9328C42.4633 25.9328 42.6678 25.592 43.23 25.7965C43.8007 26.0094 43.673 26.4098 43.673 26.4524C43.6815 26.5376 42.9915 28.8632 42.7104 30.3624C42.5741 31.0694 42.6507 31.5891 42.6933 31.5891C42.7444 31.5891 42.8637 31.4102 42.9659 31.2143V31.2057C42.9659 31.2057 43.0511 31.0609 43.1789 30.7969L43.213 30.7372V30.7457C43.4344 30.3028 43.6474 29.8598 43.8519 29.4083C44.3544 28.2924 46.2711 23.982 46.433 23.505C46.5948 23.028 46.68 22.5339 46.7652 22.3209C46.8418 22.1165 47.5233 21.9546 48.3156 21.9631C49.1078 21.9631 49.193 22.3039 49.193 22.3806C49.2015 22.4487 48.8181 23.3943 48.733 24.0587C48.6393 24.7317 48.7244 25.0639 48.8011 25.6261C48.8437 25.9924 49.0737 26.4524 49.3463 26.9806C50.1641 25.6346 51.6122 23.0535 51.7485 22.3294C51.8422 21.8269 51.9956 21.3583 52.0807 21.1454C52.1574 20.9324 52.8389 20.7791 53.6311 20.7791C54.4233 20.7876 54.5 21.1283 54.5085 21.1965C54.517 21.2646 54.1337 22.2102 54.04 22.8831C53.9548 23.5476 54.04 23.8798 54.1167 24.442C54.1763 24.9276 54.5426 25.5665 54.9089 26.2991C55.9056 25.805 57.0811 25.4728 58.4611 25.4643C59.0319 25.4643 59.6963 25.5239 60.037 25.6261V14.5861C60.037 13.8109 59.6367 13.0954 58.9637 12.7035L41.0493 2.29389C40.3848 1.90204 39.5585 1.90204 38.8941 2.29389L21.0307 12.695C20.3578 13.0869 20 13.8109 20 14.5861V35.4139C20 36.1891 20.3578 36.9132 21.0307 37.2965L38.9196 47.7061C39.5841 48.098 40.4104 48.098 41.0748 47.7061L58.9807 37.2965C59.6452 36.9046 60.037 36.1891 60.037 35.4139V26.9976C59.807 26.9294 59.4748 26.8783 59.1511 26.8357ZM39.8822 25.7454C39.4989 26.1798 38.843 27.2957 38.5363 28.2328C37.923 30.0813 38.187 31.9639 38.6215 32.0832C39.1241 32.2109 39.9504 29.732 40.3422 28.7609C40.5978 28.1561 41.5604 25.4643 41.3474 25.1065C41.1856 24.8254 40.4956 25.0469 39.8822 25.7454ZM46.8504 31.998C46.8504 31.998 46.7311 32.1087 46.7822 32.1428C46.8504 32.1854 47.0037 32.1343 47.1741 32.0406C47.6511 31.7424 48.7074 30.9928 48.7159 29.8854C48.7159 29.8598 48.7159 29.8257 48.7074 29.7917C48.4859 30.0813 48.2644 30.3709 48.043 30.652C47.7022 31.0694 46.8504 31.998 46.8504 31.998Z" fill="black"></path></g><defs><clipPath id="clip0_790_1757"><rect width="80" height="50" fill="white"></rect></clipPath></defs></svg>