<svg xmlns="http://www.w3.org/2000/svg" width="80" height="50" viewBox="0 0 80 50" fill="none"><g clip-path="url(#clip0_790_1824)"><path d="M57.5538 11.4481L45.9036 24.5215C45.8702 24.5566 45.83 24.5845 45.7854 24.6036C45.7409 24.6227 45.6929 24.6325 45.6444 24.6325C45.596 24.6325 45.548 24.6227 45.5034 24.6036C45.4589 24.5845 45.4187 24.5566 45.3852 24.5215L39.4376 18.3948C39.3879 18.3317 39.3609 18.2537 39.3609 18.1733C39.3609 18.093 39.3879 18.015 39.4376 17.9518L41.3699 15.4257C41.4032 15.3809 41.4465 15.3445 41.4965 15.3194C41.5464 15.2943 41.6015 15.2812 41.6574 15.2812C41.7132 15.2812 41.7683 15.2943 41.8182 15.3194C41.8682 15.3445 41.9115 15.3809 41.9448 15.4257L45.2533 19.1112C45.2869 19.1493 45.3282 19.1798 45.3745 19.2007C45.4208 19.2216 45.4711 19.2324 45.5219 19.2324C45.5727 19.2324 45.6229 19.2216 45.6693 19.2007C45.7156 19.1798 45.7569 19.1493 45.7905 19.1112L55.122 6.39588C55.147 6.35852 55.1618 6.31519 55.1646 6.2703C55.1675 6.22541 55.1584 6.18056 55.1383 6.14033C55.1181 6.10009 55.0877 6.06591 55.0501 6.04126C55.0125 6.01661 54.969 6.00237 54.9241 6H22.2733C22.2009 6 22.1313 6.0288 22.0801 6.08006C22.0288 6.13132 22 6.20085 22 6.27335V43.4296C22 43.5021 22.0288 43.5716 22.0801 43.6228C22.1313 43.6741 22.2009 43.7029 22.2733 43.7029H57.7235C57.796 43.7029 57.8655 43.6741 57.9168 43.6228C57.968 43.5716 57.9968 43.5021 57.9968 43.4296V11.6554C58.0055 11.6009 57.9962 11.545 57.9703 11.4962C57.9445 11.4475 57.9034 11.4084 57.8534 11.385C57.8034 11.3616 57.7471 11.3551 57.6931 11.3665C57.639 11.3778 57.5902 11.4065 57.5538 11.4481ZM32.0384 39.565C29.7038 39.6691 27.4209 38.8574 25.676 37.3028C25.6223 37.2397 25.5927 37.1595 25.5927 37.0766C25.5927 36.9937 25.6223 36.9135 25.676 36.8504L27.0616 34.9087C27.0901 34.8685 27.1269 34.8349 27.1694 34.8099C27.2118 34.785 27.2591 34.7693 27.3081 34.764C27.3571 34.7586 27.4067 34.7637 27.4535 34.7789C27.5004 34.7941 27.5435 34.8191 27.58 34.8521C28.8457 36.0265 30.5098 36.6766 32.2363 36.6713C34.0555 36.6713 34.9415 35.8324 34.9415 34.9464C34.9415 32.1941 25.9871 34.0792 25.9871 28.2259C25.9871 25.6338 28.2304 23.513 31.8876 23.513C34.0013 23.4377 36.0707 24.1309 37.7127 25.4641C37.7716 25.5284 37.8043 25.6125 37.8043 25.6998C37.8043 25.787 37.7716 25.8711 37.7127 25.9354L36.2894 27.8206C36.2609 27.8578 36.2251 27.889 36.1843 27.9121C36.1434 27.9352 36.0983 27.9499 36.0517 27.9552C36.005 27.9604 35.9578 27.9563 35.9128 27.9428C35.8678 27.9294 35.826 27.9071 35.7898 27.8771C34.583 26.9146 33.0824 26.3955 31.5388 26.4067C30.1155 26.4067 29.3238 27.0382 29.3238 27.9714C29.3238 30.4409 38.2594 28.7914 38.2594 34.5694C38.2688 37.4159 36.2423 39.565 32.0384 39.565ZM51.5779 34.1735C51.5779 34.2535 51.5461 34.3302 51.4896 34.3868C51.433 34.4433 51.3563 34.4751 51.2763 34.4751H43.1042C43.091 34.475 43.0779 34.4778 43.0658 34.4831C43.0537 34.4884 43.0429 34.4962 43.034 34.506C43.0251 34.5157 43.0184 34.5273 43.0142 34.5398C43.0101 34.5524 43.0086 34.5657 43.0099 34.5788C43.1435 35.3419 43.5562 36.0281 44.1677 36.5037C44.7792 36.9793 45.5459 37.2104 46.3184 37.152C47.3335 37.1248 48.3176 36.7967 49.1461 36.2094C49.1785 36.1842 49.2156 36.1658 49.2554 36.1554C49.2951 36.145 49.3365 36.1428 49.3771 36.149C49.4177 36.1552 49.4566 36.1696 49.4914 36.1913C49.5263 36.2131 49.5563 36.2417 49.5797 36.2754L50.5788 37.7364C50.6216 37.8013 50.6386 37.8798 50.6264 37.9566C50.6142 38.0334 50.5736 38.1028 50.5128 38.1511C49.1954 39.1098 47.5984 39.6068 45.9696 39.565C45.155 39.6103 44.3399 39.4849 43.5766 39.1966C42.8133 38.9084 42.1187 38.4638 41.5374 37.8913C40.9561 37.3189 40.5008 36.6312 40.2009 35.8725C39.901 35.1137 39.763 34.3006 39.7958 33.4854C39.7727 32.6901 39.9112 31.8983 40.203 31.158C40.4948 30.4178 40.9337 29.7444 41.4933 29.1787C42.0528 28.613 42.7213 28.1667 43.4583 27.8668C44.1953 27.5669 44.9855 27.4197 45.7811 27.4341C49.2309 27.4341 51.5685 30.0167 51.5685 33.7965L51.5779 34.1735ZM45.7905 29.8565C45.0976 29.8356 44.4222 30.076 43.8984 30.53C43.3745 30.984 43.0406 31.6184 42.9628 32.3072C42.9615 32.3203 42.9629 32.3336 42.9671 32.3462C42.9712 32.3587 42.978 32.3703 42.9869 32.38C42.9957 32.3898 43.0066 32.3976 43.0187 32.4029C43.0308 32.4082 43.0439 32.4109 43.0571 32.4109H48.5428C48.5561 32.4109 48.5691 32.4082 48.5812 32.4029C48.5933 32.3976 48.6042 32.3898 48.6131 32.38C48.6219 32.3703 48.6287 32.3587 48.6328 32.3462C48.637 32.3336 48.6384 32.3203 48.6371 32.3072C48.5817 31.6059 48.2514 30.9549 47.7183 30.4959C47.1852 30.0369 46.4923 29.8071 45.7905 29.8565Z" fill="black"></path></g><defs><clipPath id="clip0_790_1824"><rect width="80" height="50" fill="white"></rect></clipPath></defs></svg>