<svg xmlns="http://www.w3.org/2000/svg" width="80" height="50" viewBox="0 0 80 50" fill="none"><path d="M35.8083 45.5422C27.7798 44.1368 19.8885 36.9402 19.0727 26.7874C18.1762 15.6976 25.6797 6.65941 35.3883 4.519C45.9208 2.19281 54.7328 8.05673 58.2463 14.7284C57.374 15.2453 56.5017 15.7784 55.6051 16.2549C55.4274 16.3518 55.0559 16.2953 54.8863 16.1661C54.3774 15.7622 53.9493 15.7218 53.3274 16.0045C50.6862 17.2161 48.0693 18.468 45.6138 20.035C45.2181 20.2853 44.7254 20.3661 44.2892 20.5357C43.7561 20.7457 43.2311 20.9719 42.7061 21.19C42.5446 21.2546 42.3749 21.3757 42.2134 21.3677C41.3653 21.3434 40.6303 21.6584 39.9438 22.0865C39.6772 22.2561 39.3945 22.4985 39.2976 22.7731C38.6353 24.5742 38.0699 26.4077 36.8745 27.9585C36.7776 28.0797 36.818 28.427 36.923 28.5562C37.3753 29.0731 37.4884 29.6385 37.448 30.3089C37.2218 34.4524 37.036 38.604 36.8018 42.7475C36.7776 43.216 36.5514 43.6764 36.3818 44.1368C36.2203 44.5972 36.0183 45.0495 35.8083 45.5422ZM32.836 18.9123C32.7794 18.5407 32.7471 18.2338 32.6825 17.9349C32.5452 17.2807 32.4644 16.6103 32.2302 15.9964C32.0929 15.633 32.0848 14.9787 31.4871 15.0272C30.7037 15.0837 29.9121 15.213 29.169 15.4553C28.1271 15.8026 27.7152 16.6507 27.9817 17.7169C28.0948 18.1692 28.3048 18.6215 28.5713 19.0011C28.9106 19.4857 29.3548 19.9138 29.7021 20.3015C29.5567 20.5761 29.3629 20.8992 29.2013 21.2304C28.9913 21.6746 28.7894 22.1269 28.5955 22.5792C27.7717 24.5258 26.9236 26.4562 26.1321 28.4189C25.7847 29.267 26.2047 30.0828 26.4794 30.8743C26.5278 31.0036 26.7459 31.0843 26.8994 31.1651C27.2386 31.3347 27.5859 31.4963 27.9332 31.6416C28.0544 31.6982 28.224 31.7547 28.3129 31.7063C28.4017 31.6578 28.4502 31.4801 28.4582 31.3589C28.4905 30.7451 28.4905 30.1232 28.539 29.5093C28.5552 29.3558 28.6682 29.1782 28.7813 29.0651C29.4759 28.3301 30.1706 27.6031 30.8894 26.8924C31.0106 26.7712 31.2367 26.6581 31.3821 26.6824C32.5129 26.8762 33.6437 27.0943 34.7583 27.3285C34.8795 27.3527 35.0733 27.5062 35.0652 27.5951C35.0087 28.5481 35.4691 29.6951 34.1364 30.1716C34.5725 30.9066 35.0329 31.0036 35.5903 30.2282C35.8891 29.8162 36.0183 29.1943 36.0022 28.6774C35.986 28.0312 36.0991 27.5143 36.4787 26.9812C37.4076 25.6808 37.9407 24.1866 38.4253 22.6761C38.5384 22.3127 38.4818 22.1027 38.0699 21.9654C37.7387 21.8442 37.456 21.5857 37.0683 21.3354C37.6822 21.0688 38.1668 20.8346 38.6595 20.6488C39.4995 20.3338 40.0972 19.7765 40.3153 18.9203C40.5172 18.1288 40.6384 17.3049 40.7192 16.4891C40.7838 15.8268 40.7353 15.1645 40.7353 14.478C40.5253 14.486 40.3476 14.4941 40.1699 14.5022C39.128 14.5991 38.7807 14.3972 38.8049 13.331C38.8372 12.0872 38.1345 11.336 37.3591 10.5768C36.7937 11.021 36.608 12.4183 37.036 13.0483C37.4964 13.7268 37.9811 14.381 37.7064 15.2776C37.658 15.4311 37.7953 15.6249 37.7953 15.7945C37.771 16.4084 37.7307 17.0222 37.6741 17.628C37.666 17.6926 37.5045 17.7815 37.3995 17.7976C36.5999 17.9107 35.7841 18.1449 34.9926 18.0803C34.1041 18.0076 33.4579 18.2742 32.836 18.9123ZM58.8278 15.8268C61.9375 21.61 62.2121 30.9955 56.2917 38.2729C50.7831 45.0414 42.5042 46.7053 37.351 45.7603C37.658 45.5584 37.9003 45.4049 38.1426 45.2514C38.7564 44.8557 38.9422 44.3468 38.708 43.6522C38.4737 42.9414 38.5868 42.7152 39.2653 42.3922C39.4107 42.3195 39.548 42.1175 39.5803 41.956C39.968 39.7833 40.3557 37.6025 40.703 35.4217C40.9857 33.6286 41.1634 31.8113 41.5107 30.0262C41.7207 28.952 42.1488 27.9181 42.5365 26.8843C42.6334 26.6177 42.9403 26.4239 43.1665 26.2058C44.8465 24.5177 46.9385 23.4031 48.9093 22.1269C49.6927 21.6261 50.6539 21.4 51.5343 21.0607C52.4066 20.7296 53.2466 20.3661 53.8928 19.6392C54.2078 19.3 54.6763 19.1142 55.0478 18.8234C55.282 18.6376 55.4193 18.3146 55.6697 18.2015C56.114 17.9834 56.6067 17.7895 57.0913 17.7411C57.9232 17.6603 57.9717 17.6522 58.1655 16.8122C58.2544 16.4407 58.4644 16.1014 58.6178 15.7461C58.6825 15.7703 58.7552 15.7945 58.8278 15.8268Z" fill="black"></path></svg>