<svg width="133" height="18" viewBox="0 0 133 18" fill="none" xmlns="http://www.w3.org/2000/svg">
<g clip-path="url(#clip0_954_1794)">
<path d="M40.1667 13.441C40.1667 16.0703 37.6546 17.385 32.6302 17.385H22.5816C21.7154 17.385 21.2822 17.0344 21.2822 16.3333C21.2822 15.6321 21.7154 15.2815 22.5816 15.2815H32.6302C35.8354 15.2815 37.4813 14.5804 37.4813 13.178V11.4251C37.4813 10.1105 35.922 9.40929 32.8901 9.40929H28.2123C23.7078 9.40929 21.4555 8.18226 21.4555 5.72819V3.88765C21.4555 1.34594 23.7944 0.03125 28.3856 0.03125H31.1576C31.9372 0.03125 32.3704 0.381828 32.3704 1.08299C32.3704 1.78415 31.9372 2.13474 31.1576 2.13474H28.3856C25.5269 2.13474 24.1409 2.74826 24.1409 4.06294V5.64056C24.1409 6.86759 25.5269 7.4811 28.2123 7.4811H32.7169C37.6546 7.4811 40.1667 8.79578 40.1667 11.4251V13.441V13.441Z" fill="white"/>
<path d="M59.1383 9.14619C59.1383 7.83151 57.9255 7.21798 55.5 7.21798H50.5623C48.1367 7.21798 46.924 7.83151 46.924 9.14619V16.4207C46.924 17.1219 46.4909 17.4725 45.6246 17.4725C44.7583 17.4725 44.3252 17.1219 44.3252 16.4207V9.14619C44.3252 6.51683 46.4042 5.20215 50.6489 5.20215H55.4133C59.658 5.20215 61.7371 6.51683 61.7371 9.14619V16.4207C61.7371 17.1219 61.3039 17.4725 60.4377 17.4725C59.5714 17.4725 59.1383 17.1219 59.1383 16.4207V9.14619V9.14619Z" fill="white"/>
<path d="M72.6515 17.3851C68.4069 17.3851 66.2412 16.0704 66.2412 13.4411V9.23408C66.2412 6.60472 68.4069 5.29004 72.6515 5.29004H77.416C81.6607 5.29004 83.8263 6.60472 83.8263 9.23408V13.4411C83.8263 16.0704 81.6607 17.3851 77.416 17.3851H72.6515ZM81.1409 9.23408C81.1409 8.00704 79.9281 7.30588 77.5026 7.30588H72.5649C70.1394 7.30588 68.9266 7.9194 68.9266 9.23408V13.5287C68.9266 14.7557 70.1394 15.4569 72.5649 15.4569H77.5026C79.9281 15.4569 81.1409 14.8434 81.1409 13.5287V9.23408Z" fill="white"/>
<path d="M92.4018 7.21842V16.3335C92.4018 17.0347 91.9687 17.3853 91.1025 17.3853C90.2362 17.3853 89.8031 17.0347 89.8031 16.3335V7.21842H88.7635C87.9839 7.21842 87.5508 6.86785 87.5508 6.25433C87.5508 5.64082 87.9839 5.29023 88.7635 5.29023H89.8031V2.92381C89.8031 2.22265 90.2362 1.87207 91.1025 1.87207C91.9687 1.87207 92.4018 2.22265 92.4018 2.92381V5.20259H96.6465C97.4262 5.20259 97.8593 5.55317 97.8593 6.16668C97.8593 6.7802 97.4262 7.13079 96.6465 7.13079H92.4018V7.21842Z" fill="white"/>
<path d="M107.736 17.3851C103.491 17.3851 101.325 16.0704 101.325 13.4411V9.23408C101.325 6.60472 103.491 5.29004 107.736 5.29004H112.5C116.745 5.29004 118.91 6.60472 118.91 9.23408V13.4411C118.91 16.0704 116.745 17.3851 112.5 17.3851H107.736ZM116.225 9.23408C116.225 8.00704 115.012 7.30588 112.587 7.30588H107.649C105.223 7.30588 104.011 7.9194 104.011 9.23408V13.5287C104.011 14.7557 105.223 15.4569 107.649 15.4569H112.587C115.012 15.4569 116.225 14.8434 116.225 13.5287V9.23408Z" fill="white"/>
<path d="M123.414 9.14619C123.414 6.51683 125.493 5.20215 129.738 5.20215H131.644C132.51 5.20215 132.943 5.55273 132.943 6.25389C132.943 6.95505 132.51 7.30563 131.644 7.30563H129.651C127.226 7.30563 126.013 7.91915 126.013 9.14619V16.4207C126.013 17.1219 125.58 17.4725 124.713 17.4725C123.847 17.4725 123.414 17.1219 123.414 16.4207V9.14619Z" fill="white"/>
<path d="M2.86308 17.383H14.5199C16.115 17.383 17.383 16.115 17.383 14.5199V2.86308C17.383 1.26793 16.115 0 14.5199 0H2.86308C1.26793 0 0 1.26793 0 2.86308V14.5199C0 16.115 1.26793 17.383 2.86308 17.383Z" fill="white"/>
<path d="M8.81314 3.68066C8.81314 3.68066 9.21739 4.74409 9.5408 5.23491C9.74293 5.52121 9.94505 5.80752 10.1876 6.01203C10.3897 6.21653 10.6727 6.38014 10.9153 6.50284C11.5621 6.78915 12.0876 6.74825 12.6536 7.07546C12.7344 7.11636 12.8153 7.19816 12.8557 7.23906C12.7344 7.23906 12.6131 7.19816 12.5323 7.19816C11.4812 7.19816 10.5919 8.01618 10.5919 8.99781C10.5919 9.97944 11.4408 10.7975 12.5323 10.7975C13.5834 10.7975 14.4727 9.97944 14.4727 8.99781C14.4727 8.7933 14.4323 8.6297 14.3919 8.4661C14.6748 8.5888 14.9578 8.7115 15.1599 8.87511C15.6855 9.28412 16.4536 10.3066 16.4536 10.3066C16.5344 10.3475 15.6046 8.34339 14.9982 7.48447C14.7557 7.11636 14.4323 6.78915 14.0685 6.46194C13.7451 6.17563 13.3408 5.93023 12.9365 5.76662C12.5323 5.56212 12.0876 5.48031 11.6025 5.35761C11.3195 5.27581 11.0365 5.23491 10.7131 5.1122C10.4706 4.9895 10.1876 4.8668 9.94505 4.66229C9.50037 4.33508 8.77271 3.72157 8.81314 3.68066ZM12.694 7.52537C12.8557 7.52537 13.0174 7.56627 13.1387 7.60717C13.2599 7.77078 13.4216 7.97528 13.5834 8.09799C13.7451 8.22069 13.8663 8.30249 14.028 8.34339C14.1493 8.5888 14.2302 8.83421 14.2302 9.07961C14.2302 9.93854 13.5429 10.6339 12.694 10.6339C11.8451 10.6339 11.1578 9.93854 11.1578 9.07961C11.1174 8.22069 11.8046 7.52537 12.694 7.52537Z" fill="#E11F26"/>
<path d="M12.8148 9.97957C13.2836 9.97957 13.6637 9.59501 13.6637 9.12064C13.6637 8.64627 13.2836 8.26172 12.8148 8.26172C12.3459 8.26172 11.9658 8.64627 11.9658 9.12064C11.9658 9.59501 12.3459 9.97957 12.8148 9.97957Z" fill="#E11F26"/>
<path d="M10.3892 6.29883C10.3487 6.33973 9.58064 6.62604 8.97426 7.28046C8.52958 7.73037 8.2466 8.46659 8.12532 9.20281C7.9232 10.5116 8.2466 12.0659 9.29766 12.8839C10.0657 13.4974 11.1168 13.2929 11.9657 13.0475C12.6934 12.843 13.0168 12.8021 13.5019 12.8839C13.9062 12.9248 14.3104 13.0884 14.6338 13.2929C14.9572 13.4565 15.2402 13.7019 15.4828 13.9882C15.7253 14.2745 15.9274 14.5609 16.0892 14.8881C16.3317 15.2971 16.7764 16.1703 16.7764 16.1703C16.7764 16.1703 16.17 15.4607 15.3211 14.8472C14.6338 14.3564 13.6636 13.9064 13.0977 13.7837C12.2892 13.5792 11.804 13.7428 10.9147 13.7428C10.1062 13.7428 9.58064 13.7428 9.05511 13.4156C8.4083 13.0475 8.04447 12.2295 7.84234 11.5342C7.64022 10.798 7.59979 9.85723 7.68064 9.08011C7.76149 8.54839 7.96362 7.97577 8.20617 7.48496C8.32745 7.28046 8.48915 7.07595 8.69128 6.91235C8.89341 6.74874 9.09554 6.62604 9.33809 6.54424C9.66149 6.42153 10.3892 6.29883 10.3892 6.29883Z" fill="#E11F26"/>
<path d="M0 2.86308V14.5199C0 16.115 1.26496 17.383 2.85636 17.383H5.14144H6.4064C6.32479 17.1785 5.99835 15.8696 5.83513 15.1334C5.71272 14.3972 5.5495 13.6201 5.5495 12.8839C5.5495 11.9022 5.67191 10.9206 5.95755 10.0208C6.16157 9.32546 6.48801 8.71194 6.85526 8.09842C7.1817 7.56671 7.54895 7.07589 7.91619 6.58508C8.16102 6.29877 8.69149 5.72616 8.69149 5.72616C8.69149 5.72616 8.32424 5.23534 7.83458 4.90813C7.26331 4.54002 6.52882 4.37642 6.52882 4.37642C6.52882 4.37642 7.05928 4.21282 7.34492 4.13101C7.50814 4.09011 7.67136 4.09011 7.83458 4.09011C7.9978 4.09011 8.36505 4.17191 8.32424 4.21282C7.75297 3.6811 7.46734 3.5584 6.77365 3.4766C6.61043 3.43569 6.3656 3.39479 6.20238 3.27209C6.03916 3.19029 5.91674 3.06758 5.79433 2.94488C5.26386 2.37227 4.815 1.30884 4.815 1.30884C4.815 1.30884 7.87539 1.30884 8.97713 2.00416C9.75242 2.53587 10.4053 3.31299 11.303 3.6402C11.6703 3.8038 12.1191 3.84471 12.5272 3.7629C12.9352 3.6811 13.1801 3.5175 13.7921 3.39479C14.1594 3.31299 14.5674 3.27209 14.9347 3.23119C15.5876 3.19029 16.6485 3.19029 17.383 3.19029V2.86308C17.383 1.26793 16.118 0 14.5266 0H7.79378H5.14144H2.85636C1.26496 0 0 1.26793 0 2.86308Z" fill="#E11F26"/>
<path d="M16.7764 12.5321C16.7764 12.1279 16.8695 12.0347 16.9785 11.9258C17.1033 11.801 17.3114 11.7236 17.3827 11.7236V14.9577C17.359 14.9577 16.7764 13.2598 16.7764 12.5321Z" fill="#E11F26"/>
</g>
<defs>
<clipPath id="clip0_954_1794">
<rect width="133" height="17.383" fill="white"/>
</clipPath>
</defs>
</svg>
