<svg width="568" height="75" viewBox="0 0 568 75" fill="none" xmlns="http://www.w3.org/2000/svg">
<g clip-path="url(#clip0_954_1779)">
<path d="M171.541 57.4044C171.541 68.6335 160.813 74.2481 139.355 74.2481H96.4409C92.7414 74.2481 90.8916 72.7509 90.8916 69.7564C90.8916 66.762 92.7414 65.2648 96.4409 65.2648H139.355C153.044 65.2648 160.073 62.2703 160.073 56.2814V48.7953C160.073 43.1808 153.414 40.1863 140.465 40.1863H120.488C101.25 40.1863 91.6315 34.9461 91.6315 24.4655V16.6052C91.6315 5.75035 101.62 0.135742 121.228 0.135742H133.066C136.396 0.135742 138.246 1.63295 138.246 4.62739C138.246 7.62182 136.396 9.11909 133.066 9.11909H121.228C109.019 9.11909 103.1 11.7392 103.1 17.3538V24.0913C103.1 29.3315 109.019 31.9516 120.488 31.9516H139.725C160.813 31.9516 171.541 37.5662 171.541 48.7953V57.4044V57.4044Z" fill="white"/>
<path d="M252.561 39.0634C252.561 33.4489 247.381 30.8287 237.023 30.8287H215.935C205.577 30.8287 200.397 33.4489 200.397 39.0634V70.1307C200.397 73.1251 198.548 74.6224 194.848 74.6224C191.149 74.6224 189.299 73.1251 189.299 70.1307V39.0634C189.299 27.8343 198.178 22.2197 216.305 22.2197H236.653C254.78 22.2197 263.659 27.8343 263.659 39.0634V70.1307C263.659 73.1251 261.809 74.6224 258.11 74.6224C254.41 74.6224 252.561 73.1251 252.561 70.1307V39.0634V39.0634Z" fill="white"/>
<path d="M310.273 74.2478C292.145 74.2478 282.896 68.6332 282.896 57.4041V39.4375C282.896 28.2083 292.145 22.5938 310.273 22.5938H330.62C348.748 22.5938 357.997 28.2083 357.997 39.4375V57.4041C357.997 68.6332 348.748 74.2478 330.62 74.2478H310.273ZM346.528 39.4375C346.528 34.1972 341.349 31.2028 330.99 31.2028H309.903C299.544 31.2028 294.365 33.8229 294.365 39.4375V57.7784C294.365 63.0187 299.544 66.0131 309.903 66.0131H330.99C341.349 66.0131 346.528 63.393 346.528 57.7784V39.4375Z" fill="white"/>
<path d="M394.623 30.8286V69.7564C394.623 72.7508 392.773 74.248 389.073 74.248C385.374 74.248 383.524 72.7508 383.524 69.7564V30.8286H379.085C375.755 30.8286 373.905 29.3315 373.905 26.7113C373.905 24.0912 375.755 22.594 379.085 22.594H383.524V12.4877C383.524 9.4933 385.374 7.99609 389.073 7.99609C392.773 7.99609 394.623 9.4933 394.623 12.4877V22.2197H412.75C416.08 22.2197 417.93 23.7169 417.93 26.337C417.93 28.9571 416.08 30.4544 412.75 30.4544H394.623V30.8286Z" fill="white"/>
<path d="M460.104 74.2478C441.976 74.2478 432.728 68.6332 432.728 57.4041V39.4375C432.728 28.2083 441.976 22.5938 460.104 22.5938H480.451C498.579 22.5938 507.828 28.2083 507.828 39.4375V57.4041C507.828 68.6332 498.579 74.2478 480.451 74.2478H460.104ZM496.359 39.4375C496.359 34.1972 491.18 31.2028 480.821 31.2028H459.734C449.375 31.2028 444.196 33.8229 444.196 39.4375V57.7784C444.196 63.0187 449.375 66.0131 459.734 66.0131H480.821C491.18 66.0131 496.359 63.393 496.359 57.7784V39.4375Z" fill="white"/>
<path d="M527.065 39.0634C527.065 27.8343 535.944 22.2197 554.072 22.2197H562.211C565.91 22.2197 567.76 23.7169 567.76 26.7114C567.76 29.7058 565.91 31.203 562.211 31.203H553.702C543.343 31.203 538.164 33.8232 538.164 39.0634V70.1307C538.164 73.1251 536.314 74.6224 532.615 74.6224C528.915 74.6224 527.065 73.1251 527.065 70.1307V39.0634Z" fill="white"/>
<path d="M12.2273 74.2371H62.0098C68.8221 74.2371 74.2371 68.8221 74.2371 62.0098V12.2273C74.2371 5.41494 68.8221 0 62.0098 0H12.2273C5.41494 0 0 5.41494 0 12.2273V62.0098C0 68.8221 5.41494 74.2371 12.2273 74.2371Z" fill="white"/>
<path d="M37.6368 15.7207C37.6368 15.7207 39.3632 20.2623 40.7444 22.3584C41.6076 23.5811 42.4708 24.8038 43.5067 25.6772C44.3699 26.5506 45.5784 27.2493 46.6143 27.7733C49.3766 28.996 51.621 28.8214 54.038 30.2188C54.3833 30.3934 54.7286 30.7428 54.9012 30.9175C54.3833 30.9175 53.8654 30.7428 53.5201 30.7428C49.0313 30.7428 45.2331 34.2363 45.2331 38.4285C45.2331 42.6207 48.8587 46.1142 53.5201 46.1142C58.0088 46.1142 61.807 42.6207 61.807 38.4285C61.807 37.5551 61.6343 36.8564 61.4617 36.1577C62.6702 36.6818 63.8787 37.2058 64.7419 37.9045C66.9863 39.6512 70.2666 44.0181 70.2666 44.0181C70.6119 44.1928 66.641 35.6337 64.0514 31.9655C63.0155 30.3934 61.6343 28.996 60.0805 27.5986C58.6994 26.3759 56.973 25.3279 55.2465 24.6292C53.5201 23.7558 51.621 23.4064 49.5492 22.8824C48.3407 22.533 47.1322 22.3584 45.7511 21.8343C44.7152 21.3103 43.5067 20.7863 42.4708 19.9129C40.5717 18.5155 37.4641 15.8954 37.6368 15.7207ZM54.2106 32.1402C54.9012 32.1402 55.5918 32.3149 56.1097 32.4896C56.6277 33.1883 57.3182 34.0616 58.0088 34.5857C58.6994 35.1097 59.2173 35.459 59.9079 35.6337C60.4258 36.6818 60.7711 37.7298 60.7711 38.7779C60.7711 42.4461 57.8362 45.4155 54.2106 45.4155C50.5851 45.4155 47.6502 42.4461 47.6502 38.7779C47.4775 35.1097 50.4125 32.1402 54.2106 32.1402Z" fill="#E11F26"/>
<path d="M54.7281 42.6205C56.7304 42.6205 58.3536 40.9782 58.3536 38.9524C58.3536 36.9265 56.7304 35.2842 54.7281 35.2842C52.7257 35.2842 51.1025 36.9265 51.1025 38.9524C51.1025 40.9782 52.7257 42.6205 54.7281 42.6205Z" fill="#E11F26"/>
<path d="M44.3696 26.9004C44.197 27.0751 40.9168 28.2978 38.3271 31.0926C36.428 33.014 35.2195 36.1582 34.7016 39.3024C33.8383 44.892 35.2195 51.5296 39.7082 55.0231C42.9885 57.6433 47.4772 56.7699 51.1028 55.7218C54.2104 54.8485 55.5915 54.6738 57.6633 55.0231C59.3897 55.1978 61.1162 55.8965 62.4973 56.7699C63.8785 57.4686 65.087 58.5167 66.1228 59.7394C67.1587 60.9621 68.0219 62.1848 68.7125 63.5822C69.7484 65.329 71.6476 69.0583 71.6476 69.0583C71.6476 69.0583 69.0578 66.0277 65.4323 63.4076C62.4973 61.3115 58.3538 59.39 55.9368 58.866C52.4839 57.9926 50.4122 58.6913 46.614 58.6913C43.1611 58.6913 40.9168 58.6913 38.6724 57.2939C35.9101 55.7218 34.3563 52.2283 33.493 49.2589C32.6298 46.1147 32.4572 42.0972 32.8025 38.7783C33.1478 36.5075 34.011 34.0621 35.0468 31.966C35.5648 31.0926 36.2554 30.2192 37.1186 29.5205C37.9818 28.8218 38.845 28.2978 39.8809 27.9484C41.262 27.4244 44.3696 26.9004 44.3696 26.9004Z" fill="#E11F26"/>
<path d="M0 12.2273V62.0098C0 68.8221 5.40223 74.2371 12.1986 74.2371H21.9574H27.3597C27.0111 73.3637 25.617 67.7741 24.92 64.6299C24.3972 61.4858 23.7001 58.1669 23.7001 55.0228C23.7001 50.8306 24.2229 46.6384 25.4428 42.7955C26.3141 39.826 27.7082 37.2059 29.2766 34.5857C30.6707 32.315 32.2391 30.2189 33.8075 28.1228C34.8531 26.9 37.1185 24.4546 37.1185 24.4546C37.1185 24.4546 35.5502 22.3585 33.459 20.9611C31.0193 19.389 27.8825 18.6903 27.8825 18.6903C27.8825 18.6903 30.1479 17.9916 31.3678 17.6422C32.0648 17.4675 32.7619 17.4675 33.459 17.4675C34.156 17.4675 35.7244 17.8169 35.5502 17.9916C33.1104 15.7208 31.8906 15.1968 28.9281 14.8474C28.231 14.6727 27.1854 14.4981 26.4883 13.974C25.7913 13.6247 25.2685 13.1007 24.7457 12.5766C22.4802 10.1312 20.5633 5.58962 20.5633 5.58962C20.5633 5.58962 33.6332 5.58962 38.3384 8.5591C41.6494 10.8299 44.4377 14.1487 48.2715 15.5461C49.8399 16.2448 51.7568 16.4195 53.4995 16.0701C55.2421 15.7208 56.2877 15.0221 58.9017 14.4981C60.4701 14.1487 62.2128 13.974 63.7812 13.7994C66.5694 13.6247 71.1003 13.6247 74.2371 13.6247V12.2273C74.2371 5.41494 68.8348 0 62.0385 0H33.2847H21.9574H12.1986C5.40223 0 0 5.41494 0 12.2273Z" fill="#E11F26"/>
<path d="M71.6475 53.5193C71.6475 51.7929 72.0454 51.395 72.5107 50.9296C73.0437 50.3966 73.9325 50.0664 74.2371 50.0664V63.878C74.1356 63.878 71.6475 56.6269 71.6475 53.5193Z" fill="#E11F26"/>
</g>
<defs>
<clipPath id="clip0_954_1779">
<rect width="568" height="74.2371" fill="white"/>
</clipPath>
</defs>
</svg>
