<svg xmlns="http://www.w3.org/2000/svg" width="80" height="50" viewBox="0 0 80 50" fill="none"><g clip-path="url(#clip0_790_1751)"><path d="M49.0113 19.948C47.9352 19.8218 46.9705 20.1186 46.1097 20.8385C46.0206 20.5491 45.9613 20.3487 45.8945 20.1186C44.9891 20.1186 44.0986 20.1186 43.1487 20.1186C43.1487 24.9571 43.1487 29.7288 43.1487 34.5524C44.2322 34.3224 45.2637 34.1072 46.3546 33.8697C46.3546 32.7343 46.3546 31.636 46.3546 30.5006C49.0929 32.0516 51.4379 30.6416 52.2542 28.816C53.1967 26.6862 53.2561 24.5193 52.2765 22.3895C51.6531 21.0314 50.5845 20.1335 49.0113 19.948ZM49.2784 27.5174C48.9445 28.2223 48.2246 28.534 47.4974 28.4227C46.5624 28.2817 46.3249 28.022 46.3249 27.1018C46.3249 25.9664 46.3397 24.831 46.31 23.6956C46.3026 23.28 46.4733 23.0499 46.8295 22.8718C47.7571 22.4191 48.8035 22.6492 49.2636 23.562C49.5753 24.1928 49.7014 24.92 49.9092 25.6027C49.6866 26.2929 49.5604 26.9385 49.2784 27.5174ZM62.5694 22.8941C61.8941 21.1873 60.729 20.0593 58.755 19.9405C56.7291 19.8144 55.2004 20.6233 54.2802 22.382C53.2561 24.3412 53.2561 26.3819 54.065 28.4079C54.4805 29.4468 55.2449 30.2334 56.2987 30.6713C58.1836 31.4505 60.076 31.3169 61.9386 30.56C62.0945 30.5006 62.2948 30.3151 62.3022 30.1741C62.3393 29.4468 62.3171 28.7196 62.3171 27.9107C62.0351 28.022 61.8792 28.0888 61.7086 28.1481C60.6325 28.5118 59.5342 28.7047 58.3914 28.4895C57.3821 28.2966 56.8552 27.7103 56.7959 26.6936C58.8292 26.6936 60.8626 26.6936 62.9479 26.6936C63.0443 25.3579 63.0518 24.1037 62.5694 22.8941ZM56.7588 24.3857C56.692 23.2577 57.3747 22.4488 58.3691 22.4414C59.3264 22.4414 59.9721 23.2132 59.9498 24.3857C58.8589 24.3857 57.8051 24.3857 56.7588 24.3857ZM22.5035 24.5415C21.895 24.3189 21.2642 24.126 20.6928 23.8366C20.485 23.7327 20.2476 23.3616 20.2995 23.1835C20.3663 22.9535 20.6854 22.7605 20.9377 22.6269C21.0936 22.5453 21.3385 22.5676 21.5314 22.6047C22.4961 22.7902 23.4534 22.998 24.4849 23.2206C24.4849 22.4414 24.5072 21.6325 24.4701 20.8311C24.4553 20.6604 24.2475 20.4155 24.0694 20.3561C22.6445 19.8515 21.1678 19.7773 19.691 20.1112C18.2365 20.4303 17.1604 21.5954 17.0269 22.9163C16.8636 24.4673 17.435 25.395 19.0008 26.1296C19.2235 26.2335 19.4535 26.3152 19.6836 26.4042C20.203 26.6046 20.767 26.753 21.2346 27.035C21.5091 27.2057 21.8653 27.6732 21.7911 27.8587C21.6798 28.1407 21.2494 28.393 20.908 28.4672C20.5073 28.5563 20.0472 28.4895 19.639 28.3856C18.8079 28.1778 17.999 27.8958 17.1382 27.6361C17.1382 28.4005 17.1753 29.1425 17.1233 29.8846C17.0937 30.3744 17.3089 30.5822 17.7467 30.7232C19.0751 31.1462 20.4331 31.2575 21.8134 31.0943C23.446 30.9013 24.7521 29.8253 25.0118 28.4895C25.3977 26.5378 24.5963 25.2836 22.5035 24.5415ZM30.3327 28.4598C29.5757 28.5192 28.9672 28.1704 28.945 27.5248C28.8856 25.959 28.9227 24.3931 28.9227 22.7308C29.739 22.7308 30.5108 22.7308 31.29 22.7308C31.29 21.818 31.29 20.9943 31.29 20.089C30.4811 20.089 29.7093 20.089 28.8633 20.089C28.8633 19.1688 28.8633 18.3302 28.8633 17.4471C27.9654 17.6252 27.1565 17.8181 26.3402 17.9369C25.8504 18.0111 25.7391 18.2337 25.7465 18.679C25.7539 21.6548 25.7614 24.6306 25.7168 27.599C25.6723 30.6267 28.1138 31.725 30.9041 30.9236C31.0748 30.8716 31.2974 30.649 31.3048 30.4932C31.3493 29.7733 31.3197 29.0609 31.3197 28.2966C30.9486 28.3559 30.6444 28.4301 30.3327 28.4598ZM35.3047 20.883C35.1934 20.5936 35.1044 20.3561 35.0302 20.1409C34.11 20.1409 33.2491 20.1409 32.3512 20.1409C32.3512 23.7549 32.3512 27.3244 32.3512 30.931C33.3901 30.931 34.3994 30.931 35.5199 30.931C35.5199 30.6564 35.5199 30.419 35.5199 30.1815C35.5199 28.1556 35.5348 26.1222 35.5051 24.0963C35.4977 23.6065 35.6832 23.2577 36.121 23.1241C36.6925 22.9609 37.2861 22.9015 37.9169 22.7902C37.9169 21.9739 37.9169 21.0685 37.9169 20.1409C36.878 19.807 36.0171 20.0519 35.3047 20.883ZM38.7481 30.9162C39.8315 30.9162 40.8556 30.9162 41.8649 30.9162C41.8649 27.2947 41.8649 23.7252 41.8649 20.1261C40.8111 20.1261 39.8093 20.1261 38.7481 20.1261C38.7481 23.7623 38.7481 27.3467 38.7481 30.9162ZM38.7258 19.1836C39.8167 18.9535 40.8556 18.7309 41.8797 18.5157C41.8797 17.6475 41.8797 16.8683 41.8797 16C40.7814 16.2301 39.7499 16.4453 38.7258 16.6679C38.7258 17.5139 38.7258 18.3153 38.7258 19.1836Z" fill="black"></path></g><defs><clipPath id="clip0_790_1751"><rect width="80" height="50" fill="white"></rect></clipPath></defs></svg>