<svg xmlns="http://www.w3.org/2000/svg" width="102" height="28" viewBox="0 0 102 28" fill="none"><path d="M94.3536 14.3536C94.5488 14.1583 94.5488 13.8417 94.3536 13.6465L91.1716 10.4645C90.9763 10.2692 90.6597 10.2692 90.4645 10.4645C90.2692 10.6597 90.2692 10.9763 90.4645 11.1716L93.2929 14L90.4645 16.8284C90.2692 17.0237 90.2692 17.3403 90.4645 17.5355C90.6597 17.7308 90.9763 17.7308 91.1716 17.5355L94.3536 14.3536ZM8 14.5L9.95455 14.5L9.95455 13.5L8 13.5L8 14.5ZM13.8636 14.5L17.7727 14.5L17.7727 13.5L13.8636 13.5L13.8636 14.5ZM21.6818 14.5L25.5909 14.5L25.5909 13.5L21.6818 13.5L21.6818 14.5ZM29.5 14.5L33.4091 14.5L33.4091 13.5L29.5 13.5L29.5 14.5ZM37.3182 14.5L41.2273 14.5L41.2273 13.5L37.3182 13.5L37.3182 14.5ZM45.1364 14.5L49.0455 14.5L49.0455 13.5L45.1364 13.5L45.1364 14.5ZM52.9546 14.5L56.8636 14.5L56.8636 13.5L52.9546 13.5L52.9546 14.5ZM60.7727 14.5L64.6818 14.5L64.6818 13.5L60.7727 13.5L60.7727 14.5ZM68.5909 14.5L72.5 14.5L72.5 13.5L68.5909 13.5L68.5909 14.5ZM76.4091 14.5L80.3182 14.5L80.3182 13.5L76.4091 13.5L76.4091 14.5ZM84.2273 14.5L88.1364 14.5L88.1364 13.5L84.2273 13.5L84.2273 14.5ZM92.0454 14.5L94 14.5L94 13.5L92.0454 13.5L92.0454 14.5ZM94.7071 14.7071C95.0976 14.3166 95.0976 13.6834 94.7071 13.2929L88.3431 6.92894C87.9526 6.53841 87.3195 6.53841 86.9289 6.92894C86.5384 7.31946 86.5384 7.95263 86.9289 8.34315L92.5858 14L86.9289 19.6569C86.5384 20.0474 86.5384 20.6806 86.9289 21.0711C87.3195 21.4616 87.9526 21.4616 88.3431 21.0711L94.7071 14.7071ZM8 15L9.95455 15L9.95455 13L8 13L8 15ZM13.8636 15L17.7727 15L17.7727 13L13.8636 13L13.8636 15ZM21.6818 15L25.5909 15L25.5909 13L21.6818 13L21.6818 15ZM29.5 15L33.4091 15L33.4091 13L29.5 13L29.5 15ZM37.3182 15L41.2273 15L41.2273 13L37.3182 13L37.3182 15ZM45.1364 15L49.0455 15L49.0455 13L45.1364 13L45.1364 15ZM52.9546 15L56.8636 15L56.8636 13L52.9546 13L52.9546 15ZM60.7727 15L64.6818 15L64.6818 13L60.7727 13L60.7727 15ZM68.5909 15L72.5 15L72.5 13L68.5909 13L68.5909 15ZM76.4091 15L80.3182 15L80.3182 13L76.4091 13L76.4091 15ZM84.2273 15L88.1364 15L88.1364 13L84.2273 13L84.2273 15ZM92.0454 15L94 15L94 13L92.0454 13L92.0454 15Z" fill="#1AA1CA"></path></svg>