<svg xmlns="http://www.w3.org/2000/svg" width="80" height="50" viewBox="0 0 80 50" fill="none"><path fill-rule="evenodd" clip-rule="evenodd" d="M46.4648 11.4652C46.9261 10.9876 47.4778 10.6067 48.0878 10.3447C48.6978 10.0826 49.3539 9.94468 50.0178 9.93891C50.6817 9.93314 51.3401 10.0597 51.9546 10.3111C52.5691 10.5625 53.1273 10.9337 53.5968 11.4032C54.0663 11.8727 54.4375 12.4309 54.6889 13.0454C54.9403 13.6599 55.0669 14.3183 55.0611 14.9822C55.0553 15.6461 54.9174 16.3022 54.6553 16.9122C54.3933 17.5222 54.0124 18.0739 53.5348 18.5352L46.0348 26.0352C45.0972 26.9725 43.8257 27.4991 42.4998 27.4991C41.174 27.4991 39.9025 26.9725 38.9648 26.0352C38.4933 25.5798 37.8618 25.3278 37.2063 25.3335C36.5508 25.3392 35.9238 25.6021 35.4603 26.0656C34.9968 26.5291 34.7338 27.1562 34.7282 27.8117C34.7225 28.4672 34.9744 29.0987 35.4298 29.5702C37.3051 31.4449 39.8482 32.498 42.4998 32.498C45.1515 32.498 47.6946 31.4449 49.5698 29.5702L57.0698 22.0702C58.8914 20.1841 59.8994 17.6581 59.8766 15.0362C59.8538 12.4142 58.8021 9.90606 56.948 8.05198C55.0939 6.1979 52.5858 5.14621 49.9638 5.12342C47.3419 5.10064 44.8159 6.10858 42.9298 7.93017L39.1798 11.6802C38.9411 11.9108 38.7506 12.1866 38.6196 12.4917C38.4886 12.7967 38.4196 13.1247 38.4167 13.4567C38.4138 13.7886 38.4771 14.1178 38.6028 14.4251C38.7285 14.7323 38.9141 15.0114 39.1488 15.2462C39.3836 15.4809 39.6627 15.6665 39.9699 15.7922C40.2772 15.9179 40.6064 15.9812 40.9383 15.9783C41.2703 15.9754 41.5983 15.9064 41.9033 15.7754C42.2084 15.6444 42.4842 15.4539 42.7148 15.2152L46.4648 11.4652V11.4652ZM33.9648 23.9652C34.9025 23.0278 36.174 22.5012 37.4998 22.5012C38.8257 22.5012 40.0972 23.0278 41.0348 23.9652C41.2655 24.2039 41.5413 24.3944 41.8463 24.5254C42.1513 24.6564 42.4794 24.7254 42.8113 24.7283C43.1433 24.7312 43.4725 24.6679 43.7797 24.5422C44.087 24.4165 44.3661 24.2309 44.6008 23.9962C44.8356 23.7614 45.0212 23.4823 45.1469 23.1751C45.2726 22.8678 45.3358 22.5386 45.333 22.2067C45.3301 21.8747 45.2611 21.5467 45.1301 21.2417C44.9991 20.9366 44.8086 20.6608 44.5698 20.4302C42.6946 18.5555 40.1515 17.5023 37.4998 17.5023C34.8482 17.5023 32.3051 18.5555 30.4298 20.4302L22.9298 27.9302C21.9747 28.8526 21.2129 29.9561 20.6888 31.1761C20.1647 32.3962 19.8889 33.7084 19.8773 35.0362C19.8658 36.3639 20.1188 37.6807 20.6216 38.9097C21.1244 40.1387 21.867 41.2552 22.8059 42.1941C23.7448 43.133 24.8613 43.8756 26.0903 44.3784C27.3193 44.8812 28.6361 45.1342 29.9638 45.1227C31.2916 45.1111 32.6038 44.8353 33.8239 44.3112C35.0439 43.7871 36.1474 43.0253 37.0698 42.0702L40.8198 38.3202C41.0586 38.0895 41.2491 37.8137 41.3801 37.5087C41.5111 37.2037 41.5801 36.8756 41.583 36.5437C41.5858 36.2117 41.5226 35.8825 41.3969 35.5753C41.2712 35.268 41.0856 34.9889 40.8508 34.7542C40.6161 34.5194 40.337 34.3338 40.0297 34.2081C39.7225 34.0824 39.3933 34.0192 39.0613 34.022C38.7294 34.0249 38.4013 34.0939 38.0963 34.2249C37.7913 34.3559 37.5155 34.5464 37.2848 34.7852L33.5348 38.5352C33.0736 39.0127 32.5219 39.3936 31.9119 39.6557C31.3018 39.9177 30.6457 40.0557 29.9818 40.0614C29.3179 40.0672 28.6595 39.9407 28.0451 39.6893C27.4306 39.4379 26.8723 39.0666 26.4029 38.5971C25.9334 38.1277 25.5621 37.5694 25.3107 36.9549C25.0593 36.3405 24.9328 35.6821 24.9386 35.0182C24.9444 34.3543 25.0823 33.6982 25.3443 33.0881C25.6064 32.4781 25.9873 31.9264 26.4648 31.4652L33.9648 23.9652Z" fill="black"></path></svg>