<svg xmlns="http://www.w3.org/2000/svg" width="80" height="50" viewBox="0 0 80 50" fill="none"><path d="M25.556 28.048V34H21.668V28L15.164 17.2H19.292L23.78 24.664L28.268 17.2H32.084L25.556 28.048ZM45.611 21.088V34H42.059V32.464C41.563 33.024 40.971 33.456 40.283 33.76C39.595 34.048 38.851 34.192 38.051 34.192C36.355 34.192 35.011 33.704 34.019 32.728C33.027 31.752 32.531 30.304 32.531 28.384V21.088H36.275V27.832C36.275 29.912 37.147 30.952 38.891 30.952C39.787 30.952 40.507 30.664 41.051 30.088C41.595 29.496 41.867 28.624 41.867 27.472V21.088H45.611ZM56.7116 20.896C57.9116 20.896 58.9996 21.176 59.9756 21.736C60.9676 22.28 61.7436 23.056 62.3036 24.064C62.8636 25.056 63.1436 26.216 63.1436 27.544C63.1436 28.872 62.8636 30.04 62.3036 31.048C61.7436 32.04 60.9676 32.816 59.9756 33.376C58.9996 33.92 57.9116 34.192 56.7116 34.192C55.0636 34.192 53.7676 33.672 52.8236 32.632V38.656H49.0796V21.088H52.6556V22.576C53.5836 21.456 54.9356 20.896 56.7116 20.896ZM56.0636 31.12C57.0236 31.12 57.8076 30.8 58.4156 30.16C59.0396 29.504 59.3516 28.632 59.3516 27.544C59.3516 26.456 59.0396 25.592 58.4156 24.952C57.8076 24.296 57.0236 23.968 56.0636 23.968C55.1036 23.968 54.3116 24.296 53.6876 24.952C53.0796 25.592 52.7756 26.456 52.7756 27.544C52.7756 28.632 53.0796 29.504 53.6876 30.16C54.3116 30.8 55.1036 31.12 56.0636 31.12Z" fill="black"></path></svg>