<svg xmlns="http://www.w3.org/2000/svg" width="80" height="50" viewBox="0 0 80 50" fill="none"><path d="M41.5134 9.84721C40.6758 10.0712 39.8663 10.3895 39.1003 10.7958L36.8773 12.0711C35.3602 12.938 32.7929 13.1822 32.1327 12.532C31.5359 11.9352 31.5634 11.6652 32.2411 11.2851C32.6204 11.095 33.4064 11.0408 34.41 11.1492C35.7103 11.3117 36.0104 11.2576 36.0104 10.9325C36.0104 10.4449 34.6267 9.95724 33.6514 10.1189C31.4826 10.4524 31.1575 10.5524 30.8866 10.8691C30.2364 11.6552 30.3173 12.4412 31.1308 13.2005C32.9204 14.881 36.0379 14.8543 39.6429 13.0922C42.6437 11.6285 44.0891 11.2217 46.0679 11.2484C47.83 11.2484 48.7519 11.6277 48.7519 12.3595C48.7519 13.4981 45.2819 13.9316 44.1708 12.9013C43.6014 12.3862 43.5473 12.3595 42.9238 12.7654C42.1102 13.2806 42.0836 13.5156 42.7337 14.0658C43.3839 14.6626 44.1708 14.8518 45.8787 14.8793C48.7794 14.9335 50.9216 13.9041 50.9216 12.412C50.9216 10.0264 46.0421 8.67108 41.5151 9.82804L41.5134 9.84721ZM23.6756 12.3145C21.6968 13.3364 21.3984 14.3475 22.7279 15.4594C23.8115 16.3813 25.8453 17.1132 29.2345 17.7909C33.2463 18.5769 35.3885 18.7394 41.5693 18.7128C49.2687 18.6853 54.8259 17.8184 58.2151 16.1288C60.3023 15.0719 60.519 13.5806 58.7302 12.5229C57.9442 12.0619 57.9167 12.0619 58.0801 12.5771C58.3243 13.3631 58.0259 13.9324 57.0231 14.5559C56.0479 15.1527 52.7671 16.0729 50.7341 16.318C50.0022 16.3997 49.1337 16.5347 48.7552 16.6164C47.3182 16.969 35.8787 16.9148 33.168 16.5622C28.6419 15.9654 25.5244 14.9618 24.6283 13.7974C24.1132 13.1739 24.1132 13.0655 24.4925 12.4687C24.9801 11.7368 24.7909 11.7185 23.6789 12.3062L23.6756 12.3145ZM22.2919 18.2793C22.3736 18.9028 22.6987 20.3398 23.0238 21.451L23.6206 23.4848L22.2369 24.9852C19.2545 28.2568 19.2545 32.4662 22.2361 35.0419C23.9982 36.5422 26.9539 36.859 28.8511 35.7737C29.312 35.5028 29.2845 35.4753 28.6068 35.4403C27.1431 35.4403 24.8659 33.8682 23.7723 32.187C23.203 31.3201 22.7695 29.3138 22.9054 28.2835C23.0413 27.3891 23.989 25.4103 24.2891 25.4103C24.3975 25.4103 24.75 26.0071 25.0751 26.7106C25.4277 27.4425 26.6205 29.3671 27.7858 30.995C29.6563 33.6248 31.0933 36.3355 31.12 37.2574C31.12 37.9351 33.2347 39.2638 35.2677 39.9139C37.0573 40.4832 37.8975 40.5916 40.9333 40.5916C47.4933 40.5916 50.5574 39.1746 51.5326 35.712C51.7768 34.8985 52.5078 33.489 53.158 32.5946C56.4922 27.9851 57.1423 26.8748 58.3093 23.6482C58.6886 22.5912 59.1762 20.8833 59.4479 19.8531L59.9897 17.63C60.0714 17.4399 59.6563 17.5758 59.0953 17.9634C57.6316 18.9387 55.3002 19.6972 52.372 20.159C51.8302 20.2406 51.125 20.3757 50.7999 20.4299C48.1976 20.945 37.4632 21.1617 33.694 20.7283C28.2993 20.1315 24.2332 19.0195 22.7412 17.7275L22.1177 17.1582L22.2919 18.2793Z" fill="black"></path></svg>