<svg width="50" height="50" viewBox="0 0 50 50" fill="none" xmlns="http://www.w3.org/2000/svg">
<path d="M20.3124 43.5983C20.3124 40.5005 20.3124 37.4383 20.3124 34.3404C20.7588 34.3404 21.1695 34.3404 21.6069 34.3404C21.6069 37.8579 21.6069 41.3843 21.6069 45C20.6695 44.9553 19.7232 45 18.8126 44.8303C17.4021 44.5625 16.3486 43.2144 16.3307 41.7682C16.304 39.4113 16.3129 37.0544 16.3397 34.6975C16.3486 34.144 16.5093 33.5905 16.6075 32.9745C16.4379 32.9745 16.2593 32.9745 16.0897 32.9745C14.456 32.9745 12.8222 32.9745 11.1795 32.9745C8.35842 32.9834 6.34079 35.0011 6.34972 37.8311C6.34972 38.8846 6.31401 39.9469 6.44792 40.9825C6.61755 42.277 7.8317 43.4019 9.01014 43.5091C9.01014 42.3128 9.01014 41.1254 9.01014 39.938C9.01014 38.7507 9.01014 37.5544 9.01014 36.3313C9.44759 36.3313 9.86718 36.3313 10.3225 36.3313C10.3225 38.7417 10.3225 41.1432 10.3225 43.5983C12.3312 43.5983 14.3042 43.5983 16.295 43.5983C16.295 44.0536 16.295 44.4643 16.295 44.9464C16.1611 44.9464 16.0183 44.9464 15.8665 44.9464C13.84 44.9464 11.8223 44.9464 9.79576 44.9464C7.01929 44.9375 5.01058 42.9198 5.01058 40.1344C5.01058 39.0274 4.95702 37.9115 5.09093 36.8134C5.44803 33.9298 7.82277 31.7514 10.7242 31.6622C12.8311 31.5997 14.938 31.6889 17.036 31.6979C17.1699 31.6979 17.3485 31.6086 17.4288 31.5015C18.6787 29.8052 20.366 28.9839 22.464 28.9839C24.1245 28.9839 25.794 28.9839 27.4545 28.9839C29.5436 28.9928 31.2309 29.8142 32.4986 31.4925C32.5879 31.6086 32.8111 31.6889 32.9718 31.6889C35.2036 31.6979 37.4355 31.5729 39.6585 31.7336C42.5064 31.93 44.7829 34.4119 44.9079 37.2687C44.9615 38.5364 44.9793 39.8309 44.8276 41.0807C44.5687 43.2412 42.6046 44.9107 40.4352 44.9375C38.2479 44.9642 36.0518 44.9464 33.8645 44.9464C33.802 44.9464 33.7306 44.9375 33.6413 44.9285C33.6413 44.5 33.6413 44.0893 33.6413 43.634C35.6054 43.634 37.5784 43.634 39.6049 43.634C39.6049 41.17 39.6049 38.7507 39.6049 36.3224C40.0602 36.3224 40.4709 36.3224 40.9262 36.3224C40.9262 38.7239 40.9262 41.1165 40.9262 43.5091C42.1047 43.4108 43.301 42.286 43.5063 40.9915C43.6223 40.2416 43.6045 39.4738 43.5956 38.7149C43.5866 38.0097 43.6134 37.2865 43.4706 36.608C43.0331 34.5636 41.2833 33.0727 39.1853 33.0013C37.3016 32.9388 35.4179 32.9834 33.5342 32.9834C33.4717 32.9834 33.4003 33.0013 33.3735 33.0102C33.8645 35.9474 33.5788 38.8846 33.6056 41.8039C33.6235 43.5001 32.1415 44.8928 30.4452 44.9375C29.7578 44.9553 29.0615 44.9375 28.3383 44.9375C28.3383 41.3932 28.3383 37.8758 28.3383 34.3226C28.749 34.3226 29.1597 34.3226 29.6239 34.3226C29.6239 37.4026 29.6239 40.4826 29.6239 43.5537C31.2041 43.8572 32.3022 42.9645 32.3022 41.4111C32.3022 39.322 32.3022 37.224 32.3022 35.135C32.3022 32.3317 30.2756 30.3141 27.4813 30.3052C25.8208 30.3052 24.1602 30.2962 22.4908 30.3052C19.6786 30.3141 17.6699 32.3228 17.6699 35.135C17.6699 37.1615 17.7234 39.1881 17.652 41.2057C17.5806 42.6252 18.4287 43.8483 20.3124 43.5983Z" fill="#5FDAFF"/>
<path d="M40.9545 26.9752C40.9545 26.5378 40.9545 26.1182 40.9545 25.7164C41.5169 25.4932 41.6062 25.3593 41.6062 24.7523C41.6062 23.556 41.6062 22.3686 41.6062 21.1723C41.6062 20.5831 41.3651 20.342 40.767 20.342C39.7582 20.3331 38.7404 20.3331 37.7316 20.342C37.4549 20.342 37.3209 20.2885 37.2495 19.9849C36.946 18.7083 36.4371 17.5209 35.7497 16.396C35.6961 16.3157 35.6604 16.2264 35.5979 16.1193C36.3925 15.3337 37.1781 14.557 37.9637 13.7713C38.4637 13.2714 38.4637 12.9768 37.9637 12.4768C37.1335 11.6466 36.3032 10.8074 35.464 9.97712C35.0087 9.52182 34.6873 9.52182 34.2231 9.98605C33.4285 10.7806 32.6429 11.5752 31.9198 12.3072C30.8485 11.843 29.8486 11.4055 28.8487 10.9681C28.7505 10.9234 28.6433 10.8967 28.5362 10.861C27.6256 10.5842 27.6256 10.5842 27.6256 9.61109C27.6256 8.78976 27.6256 7.97735 27.6256 7.15601C27.6256 6.59357 27.3846 6.35253 26.8043 6.3436C25.5723 6.33467 24.3403 6.33467 23.1083 6.3436C22.5458 6.3436 22.3048 6.59357 22.3048 7.16494C22.3048 8.19161 22.2958 9.21828 22.3048 10.245C22.3048 10.5039 22.2512 10.6288 21.9745 10.7003C20.5996 11.0217 19.3319 11.593 18.0731 12.3786C17.6803 11.968 17.2875 11.5573 16.8947 11.1556C16.4661 10.7181 16.0376 10.2896 15.6002 9.86106C15.2698 9.53967 14.8949 9.53967 14.5735 9.86106C13.654 10.7627 12.7433 11.6734 11.8417 12.5929C11.5024 12.9411 11.5113 13.2803 11.8684 13.6464C12.5916 14.3784 13.3147 15.1016 14.0468 15.8247C14.145 15.9229 14.2342 16.0211 14.3414 16.1372C13.5557 17.3692 12.9933 18.6904 12.6362 20.0921C12.6094 20.1903 12.4041 20.2974 12.2702 20.2974C11.2614 20.3153 10.2436 20.3063 9.2348 20.3063C8.53845 20.3063 8.32419 20.5206 8.32419 21.2348C8.32419 22.3865 8.32419 23.5381 8.32419 24.6898C8.32419 25.3236 8.40454 25.4486 8.9759 25.6897C8.9759 26.1003 8.9759 26.511 8.9759 26.9217C7.98494 27.0109 7.02969 26.145 7.01183 25.0915C6.98505 23.681 6.97612 22.2615 7.01183 20.8509C7.03862 19.8064 7.93138 19.0029 9.02947 18.985C9.77938 18.9761 10.5293 18.994 11.2703 18.9761C11.3953 18.9761 11.5738 18.8958 11.6185 18.7976C11.797 18.3958 11.922 17.9673 12.0916 17.5566C12.2612 17.146 12.4666 16.7532 12.663 16.3246C12.1095 15.7711 11.547 15.2176 10.9935 14.6552C10.0115 13.6731 10.0115 12.5304 10.9846 11.5484C11.8238 10.7003 12.6719 9.86106 13.5111 9.02187C14.4931 8.03984 15.6627 8.04877 16.6625 9.0308C17.1446 9.51289 17.6356 9.98605 18.0999 10.4771C18.2606 10.6556 18.3945 10.6556 18.5998 10.5574C19.2962 10.245 19.9925 9.95034 20.7067 9.67359C20.9121 9.59324 20.9835 9.50396 20.9835 9.2897C20.9746 8.53978 20.9746 7.78987 20.9835 7.04888C20.9924 5.87937 21.8316 5.02232 23.0011 5.01339C24.3135 4.99554 25.6348 4.99554 26.9471 5.01339C28.1166 5.03125 28.9469 5.88829 28.9558 7.05781C28.9647 7.78987 28.9647 8.53086 28.9558 9.26292C28.9558 9.48611 29.0094 9.59324 29.2415 9.68251C29.9646 9.95927 30.6699 10.2807 31.393 10.5574C31.5091 10.6021 31.7144 10.5663 31.8037 10.486C32.3304 9.99498 32.8304 9.46825 33.3393 8.96831C34.2588 8.06662 35.4462 8.05769 36.3657 8.96831C37.2585 9.84321 38.1334 10.727 39.0083 11.6109C39.8921 12.5126 39.901 13.6642 39.0172 14.5659C38.4458 15.1462 37.8566 15.7176 37.3031 16.2621C37.6513 17.146 37.9816 17.9941 38.3298 18.8333C38.3655 18.9136 38.553 18.9672 38.669 18.9672C39.3743 18.9761 40.0796 18.9672 40.7938 18.9761C42.0972 18.985 42.9364 19.8153 42.9364 21.1009C42.9364 22.3865 42.9453 23.681 42.9364 24.9665C42.9185 26.1182 42.0615 26.9752 40.9545 26.9752Z" fill="#5FDAFF"/>
<path d="M34.3023 22.9846C33.8202 22.9846 33.4096 22.9846 32.9721 22.9846C32.8739 20.4224 31.8919 18.3066 29.8742 16.7175C28.3566 15.5212 26.6157 14.9587 24.6873 15.0301C20.5628 15.173 17.0632 18.4673 16.9471 22.9757C16.5275 22.9757 16.1079 22.9757 15.6348 22.9757C15.7508 19.7082 17.0632 17.0746 19.7861 15.289C22.9375 13.2178 26.2854 13.0839 29.5796 14.9498C32.6507 16.6728 34.1327 19.4404 34.3023 22.9846Z" fill="#5FDAFF"/>
<path d="M24.9533 28.3233C22.7482 28.3144 20.9716 26.5289 20.9805 24.3238C20.9894 22.1365 22.8017 20.3331 24.989 20.3421C27.1852 20.351 28.9707 22.1544 28.9618 24.3506C28.9528 26.5467 27.1584 28.3233 24.9533 28.3233ZM24.9443 26.9931C26.4263 27.002 27.6226 25.8236 27.6226 24.3506C27.6226 22.8864 26.4174 21.6723 24.9622 21.6812C23.5159 21.6812 22.3196 22.8775 22.3018 24.3148C22.2929 25.7879 23.4713 26.9842 24.9443 26.9931Z" fill="#5FDAFF"/>
<path d="M13.6358 30.9837C11.4396 30.9748 9.66298 29.1803 9.67191 26.9752C9.68084 24.788 11.5021 22.9846 13.6893 23.0025C15.8855 23.0203 17.671 24.8237 17.6532 27.0199C17.6353 29.225 15.8409 30.9926 13.6358 30.9837ZM13.6536 29.6535C15.1356 29.6535 16.323 28.4751 16.323 27.002C16.323 25.5379 15.1088 24.3327 13.6536 24.3416C12.2073 24.3505 11.011 25.5379 11.0021 26.9842C10.9932 28.4572 12.1716 29.6535 13.6536 29.6535Z" fill="#5FDAFF"/>
<path d="M36.258 30.9837C34.0528 30.9748 32.2763 29.1803 32.2852 26.9752C32.2941 24.788 34.1064 22.9846 36.2937 23.0025C38.4899 23.0203 40.2754 24.8237 40.2664 27.0199C40.2575 29.216 38.4631 30.9926 36.258 30.9837ZM36.2758 29.6535C37.7578 29.6535 38.9452 28.4661 38.9362 26.9931C38.9273 25.5468 37.7489 24.3505 36.2937 24.3416C34.8385 24.3237 33.6154 25.529 33.6154 26.9931C33.6154 28.4661 34.8028 29.6535 36.2758 29.6535Z" fill="#5FDAFF"/>
<path d="M27.6071 43.652C27.6071 44.0984 27.6071 44.5001 27.6071 44.9286C25.8484 44.9286 24.1075 44.9286 22.3398 44.9286C22.3398 44.518 22.3398 44.0984 22.3398 43.652C24.0807 43.652 25.8305 43.652 27.6071 43.652Z" fill="#5FDAFF"/>
</svg>
