<svg width="50" height="50" viewBox="0 0 50 50" fill="none" xmlns="http://www.w3.org/2000/svg">
<path d="M23.9666 32.962C23.9666 31.6726 23.9666 30.4165 23.9666 29.116C23.4441 29.1605 22.9328 29.2272 22.4215 29.2605C19.8538 29.4161 17.364 29.0938 15.0742 27.8711C12.5288 26.515 10.8059 24.4475 10.0834 21.6242C9.97221 21.1796 9.97221 20.6683 10.0834 20.2348C10.3168 19.3122 11.0838 18.9898 11.9396 18.8898C13.9738 18.6341 15.8634 19.1455 17.6196 20.1125C19.8538 21.3463 21.6212 23.1248 23.2329 25.0811C23.4664 25.359 23.6776 25.648 23.9554 25.9926C23.9554 24.3808 23.9554 22.858 23.9554 21.3463C23.2774 21.1685 22.5771 21.0462 21.9102 20.8239C18.2866 19.5678 16.0857 15.9887 16.5303 12.1094C16.9416 8.50797 19.9539 5.5068 23.6109 5.06218C28.6906 4.43972 33.0812 8.57466 32.77 13.6989C32.5366 17.5115 29.5243 20.7461 25.7339 21.2352C25.5005 21.2685 25.3115 21.2796 25.3226 21.6131C25.3338 23.8584 25.3338 26.1148 25.3338 28.3602C25.3338 28.4157 25.3449 28.4713 25.3671 28.6269C25.4894 28.4491 25.5672 28.3268 25.645 28.2157C27.1456 25.8703 28.9241 23.7584 31.1916 22.1133C32.8923 20.8795 34.8041 20.1681 36.9272 20.157C38.9613 20.1459 39.8283 21.224 39.317 23.2026C38.45 26.5595 36.3381 28.8492 33.1479 30.1498C30.9026 31.0612 28.5572 31.2835 26.1563 31.1057C25.9118 31.0835 25.6561 31.0612 25.3671 31.039C25.3671 31.6837 25.3671 32.3062 25.3671 32.9953C25.5227 32.9953 25.6783 32.9953 25.8451 32.9953C28.9241 32.9953 32.0142 32.9953 35.0931 32.9953C36.138 32.9953 36.6493 33.5066 36.6604 34.5515C36.6604 34.9072 36.6715 35.274 36.6604 35.6297C36.6382 36.2966 36.2603 36.8079 35.6156 36.9746C35.371 37.0413 35.3043 37.1414 35.2932 37.3637C35.0931 39.4089 34.8931 41.4542 34.693 43.4994C34.5929 44.5443 34.0816 45 33.0257 45C27.4457 45 21.8546 45 16.2747 45C15.2521 45 14.7407 44.5443 14.6407 43.5216C14.4295 41.4764 14.2294 39.4312 14.0405 37.3859C14.0182 37.1414 13.9515 37.0413 13.6959 36.9746C13.0734 36.819 12.6955 36.3188 12.6733 35.663C12.6621 35.2517 12.6621 34.8294 12.6733 34.4181C12.6955 33.5289 13.2402 33.0064 14.1294 33.0064C17.2528 33.0064 20.3763 33.0064 23.5108 33.0064C23.6442 32.962 23.7887 32.962 23.9666 32.962ZM33.9816 36.9858C27.7458 36.9858 21.5656 36.9858 15.3632 36.9858C15.3632 37.1414 15.3521 37.2859 15.3632 37.4193C15.5522 39.3756 15.7522 41.343 15.9412 43.2993C15.9746 43.6106 16.1413 43.5995 16.3636 43.5995C21.888 43.5995 27.4235 43.5995 32.9479 43.5995C33.2591 43.5995 33.348 43.5105 33.3702 43.1993C33.4814 41.9099 33.6259 40.6316 33.7482 39.3422C33.8371 38.5753 33.9038 37.7861 33.9816 36.9858ZM24.6891 6.31823C20.9543 6.25154 17.8642 9.27494 17.7975 13.0542C17.7308 16.7445 20.732 19.8791 24.4001 19.9569C28.246 20.0347 31.3917 17.0891 31.4473 13.3543C31.514 9.4639 28.5572 6.38492 24.6891 6.31823ZM23.5108 27.7822C23.3774 27.5599 23.3219 27.4598 23.2663 27.3709C21.7657 25.0366 19.8538 23.1026 17.5418 21.5909C16.0857 20.6349 14.4629 20.1458 12.7066 20.1458C11.3283 20.1458 11.0726 20.5015 11.5061 21.8132C12.0397 23.436 13.029 24.7699 14.3628 25.8258C16.2191 27.2931 18.3977 27.8822 20.7209 27.9267C21.6101 27.9489 22.5104 27.8377 23.5108 27.7822ZM26.3453 29.6718C29.8133 29.9497 32.9367 29.4273 35.5155 27.093C36.7382 25.9815 37.5941 24.6031 38.0054 22.9803C38.3277 21.7354 38.0721 21.413 36.7716 21.4575C35.1932 21.513 33.737 22.0021 32.4254 22.8691C30.3468 24.2363 28.6795 26.037 27.3012 28.0934C26.9789 28.5825 26.6898 29.0938 26.3453 29.6718ZM35.3043 34.3292C28.1904 34.3292 21.0988 34.3292 14.0182 34.3292C14.0182 34.7738 14.0182 35.1851 14.0182 35.6074C21.121 35.6074 28.2016 35.6074 35.3043 35.6074C35.3043 35.1739 35.3043 34.7516 35.3043 34.3292Z" fill="#5FDAFF"/>
<path d="M23.9359 17.3337C23.4913 17.3337 23.0578 17.3448 22.6354 17.3337C22.1686 17.3226 21.8907 17.0669 21.8907 16.6668C21.8907 16.2666 22.1575 16.0221 22.6354 16.011C23.0578 15.9998 23.4913 16.011 23.9471 16.011C23.9471 15.2551 23.9471 14.5548 23.9471 13.8212C23.0578 13.7323 22.2575 13.4322 21.7017 12.6763C21.3794 12.2317 21.2571 11.7315 21.2905 11.1868C21.3683 10.0086 22.3131 9.18607 23.847 8.94153C23.9915 8.5636 24.1027 8.21902 24.2694 7.90779C24.3139 7.81887 24.5362 7.78552 24.6807 7.78552C25.1253 7.78552 25.2698 8.04118 25.3254 8.95264C25.7033 8.95264 26.0812 8.95264 26.4703 8.95264C27.0483 8.95264 27.3262 9.17495 27.315 9.63069C27.315 10.0753 27.0372 10.2865 26.448 10.2865C26.0923 10.2865 25.7255 10.2865 25.3365 10.2865C25.3365 11.009 25.3365 11.7093 25.3365 12.4429C26.7815 12.6986 27.9931 13.2877 27.9931 14.9994C27.9931 16.2221 27.1038 16.9447 25.3254 17.3559C25.2476 17.845 25.4699 18.5564 24.5918 18.5453C24.136 18.5453 24.0249 18.3341 23.9359 17.3337ZM25.3143 15.9443C26.0701 15.9331 26.7037 15.4218 26.6703 14.8883C26.6481 14.3436 25.9367 13.8212 25.3143 13.899C25.3143 14.5659 25.3143 15.244 25.3143 15.9443ZM23.9471 10.3087C23.1134 10.3754 22.5465 10.8756 22.6132 11.4647C22.6688 12.0205 23.3357 12.4874 23.9471 12.3984C23.9471 11.7093 23.9471 11.0312 23.9471 10.3087Z" fill="#5FDAFF"/>
</svg>
