<svg xmlns="http://www.w3.org/2000/svg" width="80" height="50" viewBox="0 0 80 50" fill="none"><path d="M55.8081 21.2559C55.8081 21.4676 55.8081 21.6475 55.8081 21.8804C56.3267 21.5628 56.8137 21.3088 57.3958 21.3723C57.8298 21.4146 58.2109 21.5522 58.4755 21.8804C58.6555 22.1027 58.7613 22.0392 58.9519 21.9121C59.5552 21.4993 60.2115 21.3088 60.9418 21.4993C61.704 21.6899 62.0956 22.2509 62.3073 22.9601C62.572 23.8598 62.4979 24.7913 62.4661 25.7228C62.4449 26.2097 62.3814 26.6966 62.3603 27.1835C62.3497 27.3952 62.265 27.4905 62.0533 27.5011C61.7463 27.5222 61.4499 27.5434 61.143 27.5963C60.8572 27.6387 60.8042 27.5434 60.8466 27.2788C61.0054 26.2838 61.0265 25.2782 61.0159 24.2726C61.0054 23.9127 60.9842 23.5528 60.8254 23.2247C60.6455 22.8542 60.2856 22.706 59.8622 22.8225C59.3435 22.9601 59.1318 23.2035 59.1636 23.6481C59.2588 24.8125 59.2059 25.9768 59.1741 27.1306C59.1636 27.3846 59.1 27.4905 58.8354 27.4905C58.5602 27.4905 58.285 27.5117 58.0098 27.5434C57.7346 27.5752 57.6287 27.5011 57.6605 27.2047C57.7451 26.1673 57.7769 25.1194 57.7452 24.0715C57.7346 23.7539 57.7028 23.4364 57.5864 23.14C57.4699 22.8436 57.2582 22.706 56.9407 22.706C56.2844 22.6954 55.8504 23.0977 55.8398 23.7434C55.8187 24.8654 55.7975 25.9874 55.8928 27.1094C55.9139 27.3423 55.861 27.4587 55.6175 27.4799C55.3 27.5117 54.9824 27.5434 54.6755 27.5963C54.4744 27.6281 54.3897 27.5963 54.4003 27.3635C54.4955 25.6063 54.3897 23.8492 54.2732 22.0921C54.2626 21.8804 54.2944 21.7534 54.5273 21.6898C54.9401 21.5734 55.3529 21.4146 55.8081 21.2559Z" fill="#333333"></path><path d="M34.0036 25.861C34.4905 26.0409 34.9034 26.242 35.3797 26.2632C35.4538 26.2632 35.5385 26.2844 35.6126 26.2844C36.0783 26.2526 36.5652 26.2209 36.7769 25.7022C36.978 25.1835 36.6817 24.813 36.3218 24.4955C35.8878 24.125 35.4432 23.7757 34.9986 23.4158C34.5011 23.003 34.0989 22.5161 33.993 21.8492C33.739 20.3567 34.6917 19.0971 36.2053 18.9383C36.6922 18.8854 37.1792 18.896 37.6661 19.0018C37.8778 19.0442 37.9625 19.1288 38.0154 19.3511C38.0789 19.6687 38.0048 20.0074 38.1212 20.3144C38.1636 20.4308 38.0895 20.4414 38.0048 20.452C37.8672 20.4626 37.7508 20.4414 37.6132 20.4096C37.2003 20.3038 36.7769 20.2614 36.3535 20.3567C35.4538 20.5578 35.1892 21.3729 35.8137 22.0715C35.9513 22.2303 36.1207 22.3573 36.29 22.4949C36.7346 22.8654 37.2109 23.2041 37.6132 23.6275C38.3012 24.3473 38.5341 25.2047 38.2059 26.1468C37.8672 27.11 37.0839 27.5017 36.1207 27.6075C35.5914 27.6604 35.0621 27.6075 34.5541 27.4699C34.4165 27.4381 34.3 27.3958 34.2788 27.237C34.1836 26.7819 34.0989 26.3373 34.0036 25.861Z" fill="#333333"></path><path d="M52.0794 27.649C52.0794 27.2362 51.9312 27.2256 51.5713 27.3738C50.0894 28.0195 48.671 27.2362 48.4487 25.6379C48.2794 24.3994 48.4064 23.161 48.5122 21.9119C48.5228 21.732 48.6181 21.7002 48.7663 21.679C49.105 21.6367 49.4437 21.5838 49.7825 21.5097C50.0471 21.4462 50.1212 21.4885 50.0788 21.7955C49.9095 22.8646 49.8142 23.9443 49.8777 25.0345C49.9306 26.1248 50.6187 26.527 51.6243 26.0824C51.8466 25.9872 51.9418 25.8602 51.9418 25.6061C51.9312 24.4735 51.8995 23.3303 51.8254 22.1977C51.8042 21.9225 51.8995 21.8272 52.1429 21.7849C52.4499 21.7214 52.7675 21.6473 53.0638 21.552C53.3285 21.4568 53.392 21.5309 53.392 21.8061C53.3708 23.288 53.3602 24.7699 53.3496 26.2518C53.3496 26.5694 53.3496 26.8869 53.3708 27.2045C53.3814 27.3421 53.3391 27.4373 53.2014 27.4585C52.8098 27.5432 52.4605 27.702 52.0794 27.649Z" fill="#333333"></path><path d="M43.2334 26.0937C43.2016 26.3583 43.1805 26.5594 43.1487 26.7711C43.0217 27.5121 43.0217 27.5226 42.2595 27.5756C41.7515 27.6073 41.254 27.6179 40.767 27.4485C39.5498 27.0251 39.0523 26.0831 38.9464 24.8658C38.7876 23.1087 39.7085 21.722 41.254 21.4256C41.7832 21.3198 42.3019 21.3515 42.8311 21.4574C42.9793 21.4891 43.0746 21.5421 43.0852 21.7008C43.1064 22.0184 43.1381 22.3359 43.1699 22.6535C43.191 22.8652 43.0958 22.8546 42.937 22.8123C42.757 22.7593 42.5771 22.7064 42.3972 22.6852C41.6033 22.6006 40.9258 22.9287 40.6083 23.5321C40.2378 24.2413 40.3119 25.3421 40.7776 25.8608C41.3175 26.4535 42.0055 26.443 42.7253 26.2842C42.8841 26.2313 43.0217 26.1677 43.2334 26.0937Z" fill="#333333"></path><path d="M45.6335 21.3193C45.6335 21.6157 45.6335 21.8803 45.6335 22.145C45.8029 22.1238 45.8664 21.965 45.9616 21.8698C46.3745 21.4569 46.872 21.2982 47.4436 21.3723C47.6447 21.3934 47.7294 21.4675 47.687 21.6792C47.6553 21.8168 47.6553 21.965 47.6235 22.1132C47.5812 22.3567 47.5812 22.6425 47.4541 22.8436C47.2954 23.087 47.0096 22.8542 46.7767 22.8753C46.131 22.9177 45.6229 23.394 45.6229 24.0397C45.6123 25.0876 45.6123 26.125 45.7076 27.1729C45.7288 27.3952 45.697 27.4905 45.443 27.5328C44.268 27.7339 44.268 27.7445 44.2574 26.5907C44.2574 25.1088 44.2469 23.6269 44.1516 22.145C44.1304 21.8803 44.1834 21.7427 44.4797 21.6898C44.8608 21.6051 45.2313 21.4464 45.6335 21.3193Z" fill="#333333"></path><path d="M19.7983 29.8089C19.0891 29.7983 18.5175 29.2373 18.5387 28.5705C18.5492 27.8719 19.1526 27.3109 19.8618 27.3214C20.5604 27.332 21.0897 27.893 21.0791 28.6128C21.0579 29.322 20.5392 29.8195 19.7983 29.8089Z" fill="#333333"></path><path d="M19.7637 25.6915C19.7637 25.0141 20.2506 24.5166 20.928 24.506C21.6055 24.4954 22.1559 25.0459 22.1559 25.7339C22.1559 26.3584 21.5843 26.8877 20.9492 26.8877C20.24 26.8877 19.7637 26.4007 19.7637 25.6915Z" fill="#333333"></path><path d="M22.0646 23.8917C22.0646 23.2566 22.5727 22.7591 23.1972 22.7697C23.8217 22.7803 24.3087 23.299 24.2981 23.9341C24.2875 24.4951 23.7476 25.0243 23.1866 25.0137C22.5727 24.9926 22.054 24.4845 22.0646 23.8917Z" fill="#333333"></path><path d="M25.0039 23.3521C25.0039 22.7593 25.4273 22.3359 26.0201 22.3359C26.6234 22.3359 27.0786 22.7805 27.068 23.3733C27.0574 23.9555 26.5917 24.4 25.9989 24.3894C25.4167 24.3894 25.0039 23.9555 25.0039 23.3521Z" fill="#333333"></path><path d="M28.7194 23.2141C29.2487 23.2035 29.6615 23.5951 29.6721 24.1138C29.6933 24.6642 29.3016 25.0876 28.7618 25.0982C28.2008 25.1088 27.7774 24.696 27.7668 24.135C27.7562 23.6587 28.2114 23.2247 28.7194 23.2141Z" fill="#333333"></path><path d="M30.7514 26.9506C30.2433 26.9506 29.9364 26.6543 29.9258 26.1673C29.9258 25.691 30.2539 25.3311 30.7091 25.3205C31.196 25.31 31.5665 25.6698 31.5665 26.1462C31.5771 26.6331 31.2489 26.9506 30.7514 26.9506Z" fill="#333333"></path><path d="M26.2733 18.3661C26.2839 18.8107 25.9452 19.16 25.4794 19.1706C25.0031 19.1812 24.6961 18.8742 24.6855 18.3873C24.6855 17.911 25.0031 17.5723 25.4583 17.5723C25.924 17.5723 26.2627 17.911 26.2733 18.3661Z" fill="#333333"></path><path d="M31.6003 27.9036C32.0237 27.9036 32.373 28.2317 32.373 28.6445C32.373 28.9938 31.9602 29.4807 31.6214 29.4702C31.1875 29.449 30.8381 29.1103 30.8381 28.6869C30.8276 28.2211 31.1451 27.893 31.6003 27.9036Z" fill="#333333"></path><path d="M24.5082 17.4133C24.0531 17.4133 23.7461 17.1064 23.7461 16.6512C23.7461 16.2278 24.0636 15.9102 24.4976 15.8997C24.921 15.8891 25.2703 16.2278 25.2703 16.6724C25.2809 17.0746 24.9316 17.4133 24.5082 17.4133Z" fill="#333333"></path><path d="M23.6059 15.6675C23.6164 16.0803 23.3412 16.3767 22.9496 16.3979C22.5474 16.4085 22.2404 16.1332 22.2298 15.731C22.2192 15.3182 22.4838 15.0324 22.8967 15.0218C23.3095 15.0112 23.5953 15.2653 23.6059 15.6675Z" fill="#333333"></path><path d="M31.2205 31.8729C30.8712 31.8623 30.5854 31.5871 30.596 31.2484C30.596 30.8673 30.9135 30.5815 31.2946 30.5921C31.6757 30.6027 31.9297 30.8673 31.9191 31.2589C31.898 31.6188 31.6016 31.8729 31.2205 31.8729Z" fill="#333333"></path><path d="M21.7028 15.646C21.6922 16.0271 21.4064 16.3129 21.0465 16.2917C20.6866 16.2811 20.4008 15.9636 20.4114 15.6143C20.422 15.2438 20.6972 14.9897 21.0889 15.0003C21.4488 15.0321 21.7028 15.2967 21.7028 15.646Z" fill="#333333"></path><path d="M30.5189 33.5243C30.5189 33.8418 30.2542 34.0853 29.9261 34.0853C29.5979 34.0853 29.3545 33.8418 29.3545 33.5137C29.3545 33.2173 29.6085 32.9527 29.9049 32.9738C30.3283 32.995 30.5083 33.2385 30.5189 33.5243Z" fill="#333333"></path><path d="M19.3507 17.0218C19.0332 17.0112 18.7686 16.7571 18.7686 16.4502C18.7686 16.1009 19.0438 15.8256 19.3931 15.8362C19.7 15.8468 19.9541 16.122 19.9435 16.429C19.9435 16.7783 19.6895 17.0324 19.3507 17.0218Z" fill="#333333"></path><path d="M28.4134 34.7947C28.424 35.1017 28.1911 35.3346 27.8735 35.3451C27.5772 35.3451 27.3655 35.1229 27.3549 34.8159C27.3443 34.4878 27.556 34.2549 27.8735 34.2549C28.1911 34.2549 28.4028 34.4666 28.4134 34.7947Z" fill="#333333"></path><path d="M18.8334 17.8482C18.8334 18.1445 18.6112 18.3668 18.3148 18.3774C17.9972 18.388 17.7749 18.1551 17.7855 17.8376C17.7961 17.5306 18.0184 17.3189 18.3148 17.3295C18.6217 17.3295 18.8334 17.5412 18.8334 17.8482Z" fill="#333333"></path><path d="M18.0401 20.0178C17.6802 19.9966 17.5109 19.8167 17.5003 19.5097C17.4897 19.2451 17.7649 19.0016 18.019 19.0228C18.273 19.0439 18.5271 19.3086 18.4953 19.5626C18.4635 19.8484 18.2836 19.9966 18.0401 20.0178Z" fill="#333333"></path><path d="M18.3985 20.7158C18.7267 20.7158 18.8855 20.8746 18.8643 21.1286C18.8537 21.3721 18.7055 21.552 18.4303 21.5309C18.1657 21.5097 18.0281 21.3403 18.0387 21.0863C18.0492 20.8428 18.2292 20.737 18.3985 20.7158Z" fill="#333333"></path><path d="M19.8526 22.4836C19.8208 22.6635 19.7362 22.8223 19.5033 22.8117C19.2598 22.8011 19.1434 22.6635 19.154 22.4306C19.154 22.1978 19.3128 22.1025 19.5139 22.1131C19.7256 22.1237 19.8632 22.2401 19.8526 22.4836Z" fill="#333333"></path><path d="M20.9001 22.7383C21.1224 22.77 21.2706 22.8865 21.2706 23.0982C21.26 23.3099 21.133 23.4475 20.9107 23.4263C20.7307 23.4157 20.5931 23.2993 20.5825 23.0982C20.5719 22.8653 20.7307 22.7806 20.9001 22.7383Z" fill="#333333"></path></svg>