<svg xmlns="http://www.w3.org/2000/svg" width="46" height="46" viewBox="0 0 46 46" fill="none"><path d="M39.6645 4.6001H25.2203C25.0809 4.6001 24.9491 4.64659 24.8406 4.73958L4.80173 21.9889C4.67775 22.0896 4.60801 22.2446 4.60026 22.4073C4.59251 22.57 4.6545 22.725 4.77074 22.8412L19.2149 37.0297C19.3311 37.1381 19.4783 37.1924 19.6256 37.1924C19.7573 37.1924 19.8968 37.1459 20.0053 37.0607L40.0442 19.8656C40.1682 19.7571 40.2457 19.5944 40.2457 19.4239V5.18127C40.2457 4.86356 39.9822 4.6001 39.6645 4.6001ZM39.091 19.1527L19.6566 35.8208L6.04157 22.4538L25.4373 5.7547H39.091V19.1527Z" fill="#1B5AB8"></path><path d="M24.4608 16.7118C24.453 16.7118 24.453 16.7041 24.4453 16.7041C22.942 16.1849 21.2604 16.4174 19.8579 17.2698L19.2457 16.6653C19.021 16.4406 18.649 16.4406 18.4243 16.6653C18.1996 16.8901 18.1996 17.262 18.4243 17.4867L18.9202 17.9827C18.8273 18.0679 18.742 18.1532 18.6568 18.2384L18.649 18.2461C18.5328 18.3701 18.4243 18.5019 18.3236 18.6258L17.8044 18.1067C17.5797 17.8819 17.2077 17.8819 16.983 18.1067C16.7583 18.3314 16.7583 18.7033 16.983 18.9281L17.6804 19.6255C16.9288 21.0823 16.828 22.7173 17.4634 24.1044C18.1996 25.8092 19.8269 26.832 21.7254 26.832C21.9501 26.832 22.1748 26.8165 22.3995 26.7933C22.7173 26.7545 22.942 26.4601 22.9032 26.1424C22.8645 25.8247 22.57 25.5999 22.2523 25.6387C20.5708 25.8479 19.145 25.0808 18.525 23.6394C18.525 23.6317 18.5173 23.6317 18.5173 23.6239C18.0756 22.6708 18.0988 21.5472 18.5483 20.5011L21.5549 23.5C21.6711 23.6162 21.8184 23.6704 21.9656 23.6704C22.1128 23.6704 22.2601 23.6162 22.3763 23.5C22.601 23.2752 22.601 22.9033 22.3763 22.6786L19.1527 19.455C19.2612 19.3078 19.3774 19.1683 19.5014 19.0365C19.5789 18.9513 19.6641 18.8738 19.7416 18.8041L23.5387 22.6011C23.6549 22.7173 23.8021 22.7716 23.9493 22.7716C24.0966 22.7716 24.2438 22.7173 24.36 22.6011C24.5848 22.3764 24.5848 22.0044 24.36 21.7797L20.7025 18.1299C21.7486 17.572 22.9652 17.4402 24.0501 17.8122C25.5456 18.3856 26.4135 19.8192 26.2585 21.4775C26.2276 21.7952 26.46 22.0819 26.7855 22.1129C27.1032 22.1439 27.3899 21.9114 27.4209 21.586C27.6301 19.3852 26.4678 17.4712 24.4608 16.7118Z" fill="#1B5AB8"></path><path d="M39.2841 23.1899L19.6559 40.0285L5.5915 25.9795C5.36678 25.7548 4.99482 25.7548 4.7701 25.9795C4.54538 26.2042 4.54538 26.5762 4.7701 26.8009L19.2142 41.2295C19.3305 41.3458 19.4777 41.4 19.6249 41.4C19.7567 41.4 19.8961 41.3535 20.0046 41.2683L40.0435 24.0733C40.2838 23.864 40.3148 23.4921 40.1055 23.2519C39.8963 23.0117 39.5244 22.9807 39.2841 23.1899Z" fill="#1B5AB8"></path><path d="M33.6425 14.5887C35.5255 14.5887 37.0521 13.0621 37.0521 11.1791C37.0521 9.29608 35.5255 7.76953 33.6425 7.76953C31.7982 7.76953 30.2949 9.30383 30.2949 11.1791C30.2949 13.0621 31.7982 14.5887 33.6425 14.5887ZM33.6425 8.93963C34.8823 8.93963 35.8897 9.947 35.8897 11.1868C35.8897 12.4267 34.8823 13.434 33.6425 13.434C32.4414 13.434 31.4573 12.4267 31.4573 11.1868C31.4573 9.947 32.4336 8.93963 33.6425 8.93963Z" fill="#1B5AB8"></path></svg>