<svg width="50" height="50" viewBox="0 0 50 50" fill="none" xmlns="http://www.w3.org/2000/svg">
<path d="M5.01436 10.1144C6.23104 10.2113 7.26469 9.93135 8.06146 9.03768C8.84746 8.15477 9.00897 7.11036 8.80439 6.00134C13.402 4.66622 22.4464 4.66622 27.0547 6.00134C26.8501 7.13189 27.0116 8.18707 27.8192 9.06998C28.6159 9.94212 29.6388 10.2113 30.834 10.1144C30.834 10.9973 30.834 11.8479 30.834 12.677C31.7169 12.8169 32.5675 12.8815 33.3858 13.0754C38.877 14.4212 42.4517 17.8237 44.1637 23.1965C44.5513 24.4132 44.8959 25.6406 45.2835 26.9219C44.4867 26.8573 43.7545 27.008 42.9901 26.5989C40.2875 25.1669 37.585 25.3068 34.9793 26.8896C34.764 27.0188 34.6348 26.9757 34.441 26.8681C32.3091 25.5975 30.048 25.2745 27.6684 26.0605C27.3777 26.1574 27.1947 26.3189 27.0439 26.5774C25.3966 29.3122 23.3077 31.6702 20.7882 33.6406C19.0009 35.0403 16.8044 35.0296 15.0386 33.6083C9.60116 29.2368 6.37102 23.5733 5.27277 16.6931C4.92822 14.5182 5.00359 12.3432 5.01436 10.1144ZM17.2781 8.7685C15.6523 8.94077 14.1018 9.09151 12.5621 9.27456C12.4329 9.28532 12.2929 9.46836 12.2283 9.60834C11.5931 11.0942 10.5917 12.2571 9.18124 13.0431C8.94436 13.183 8.86899 13.323 8.89053 13.5814C8.95513 14.3136 8.9659 15.0565 9.07357 15.7887C9.83804 21.2261 12.2283 25.8237 16.266 29.5491C16.5783 29.8398 16.9013 30.0982 17.2566 30.3997C17.2566 29.1076 17.2566 27.8909 17.2566 26.6635C16.5783 27.1265 15.8569 26.8142 15.1355 26.9327C15.2216 26.6312 15.2862 26.3943 15.3508 26.1682C15.943 24.327 16.3522 22.4212 17.2243 20.6877C17.2889 20.5693 17.2781 20.397 17.2781 20.257C17.2781 18.5343 17.2781 16.8116 17.2781 15.0888C17.2781 14.9488 17.2781 14.8089 17.2781 14.6689C17.7411 14.6689 18.1503 14.6689 18.5917 14.6689C18.5917 15.9286 18.5917 17.1561 18.5917 18.4697C19.6469 17.1023 20.8205 15.9933 22.1987 15.0888C23.5769 14.1844 25.0735 13.5383 26.6778 13.1292C26.6455 13.0754 26.6348 13.0431 26.624 13.0323C25.2135 12.1817 24.2014 11.0081 23.5661 9.4899C23.5231 9.38223 23.3293 9.27456 23.2001 9.26379C22.1879 9.13458 21.1651 9.02691 20.153 8.93001C19.6361 8.87617 19.1193 8.87617 18.5594 8.84387C18.5594 10.3728 18.5594 11.8479 18.5594 13.3338C18.118 13.3338 17.7088 13.3338 17.2674 13.3338C17.2781 11.8264 17.2781 10.3513 17.2781 8.7685ZM6.30641 11.3957C6.26334 13.2261 6.30642 15.035 6.6079 16.8331C7.69538 23.2611 10.764 28.5262 15.8569 32.5962C17.1597 33.6406 18.7209 33.6083 20.0453 32.5746C21.5527 31.3795 22.9093 30.0444 24.0937 28.537C24.5244 27.9878 24.9228 27.428 25.3535 26.8358C25.2458 26.7496 25.1812 26.6958 25.1166 26.6527C24.9443 26.545 24.7613 26.4481 24.5998 26.3405C24.3198 26.1359 24.1583 26.2113 23.9645 26.4912C22.6294 28.4508 21.0251 30.1628 19.1516 31.6271C18.3441 32.2516 17.4719 32.2624 16.6752 31.6164C10.7209 26.7712 7.69538 20.4939 7.57694 12.8169C7.57694 12.5047 7.66307 12.354 7.95379 12.2248C9.41812 11.5895 10.5056 10.5343 11.0224 9.02691C11.2701 8.30551 11.6146 8.09017 12.3468 7.9825C16.2445 7.39031 20.1207 7.44414 23.9968 8.05787C24.3629 8.1117 24.5244 8.24091 24.6429 8.60699C25.1489 10.2436 26.2041 11.4388 27.7546 12.1709C28.056 12.3109 28.3468 12.4186 28.2714 12.8385C28.7128 12.7954 29.1112 12.7631 29.5204 12.7308C29.5204 12.2678 29.5204 11.8264 29.5204 11.4064C27.2916 10.8681 25.9564 9.5222 25.6657 7.2288C25.655 7.14266 25.515 7.01346 25.4181 7.00269C23.6092 6.77658 21.7896 6.51817 19.9699 6.34589C17.698 6.13055 15.4262 6.31359 13.1651 6.59354C12.1637 6.71198 11.1732 6.87348 10.1826 7.01346C9.93494 9.39299 8.65365 10.8466 6.30641 11.3957ZM31.8784 14.1198C34.3764 17.4468 35.1516 21.2153 35.3562 25.2099C38.0802 24.004 40.7613 24.0794 43.4423 25.3499C42.4948 21.4199 40.9551 18.825 38.3817 16.8223C36.4975 15.3365 34.3656 14.4536 31.8784 14.1198ZM25.052 25.07C25.2566 21.1292 26.0534 17.4037 28.519 14.109C25.4827 14.5289 22.9524 15.7564 20.8421 17.8452C19.0116 19.6648 16.9659 23.6702 17.0736 25.1669C19.69 24.0578 22.3279 24.0686 25.052 25.07ZM26.3441 25.1884C28.9497 24.0471 31.48 24.0686 34.0533 25.1776C33.8057 21.1076 32.9982 17.3284 30.1987 14.1628C27.3992 17.3391 26.5809 21.1076 26.3441 25.1884ZM18.5917 25.9852C18.5917 27.471 18.5917 28.9031 18.5917 30.3997C20.2606 29.0538 21.6711 27.5464 22.8878 25.7806C21.4019 25.5329 19.9914 25.5652 18.5917 25.9852Z" fill="#5FDAFF"/>
<path d="M32.7842 29.5706C32.6334 31.4549 32.4934 33.3714 32.3427 35.288C32.2996 35.7833 32.2781 36.2785 32.2243 36.7738C32.1058 37.7752 31.2122 38.5504 30.1893 38.5396C29.1879 38.5289 28.2727 37.7644 28.1866 36.7846C27.982 34.3728 27.7774 31.9609 27.6267 29.5491C27.5298 28.0524 28.7034 26.9111 30.2108 26.9111C31.6967 26.9219 32.8165 28.0632 32.7842 29.5706ZM31.4921 29.506C31.5136 28.7631 30.9753 28.214 30.2 28.214C29.4248 28.214 28.8864 28.7631 28.9187 29.5491C28.9295 29.8829 28.9726 30.2166 28.9941 30.5504C29.1556 32.5531 29.3064 34.545 29.4679 36.5477C29.5002 36.9784 29.8124 37.2584 30.2 37.2584C30.5877 37.2584 30.8891 36.9784 30.943 36.5477C30.986 36.1063 31.0183 35.6648 31.0614 35.2234C31.2014 33.3284 31.3414 31.4333 31.4921 29.506Z" fill="#5FDAFF"/>
<path d="M30.1867 45C28.7654 44.9892 27.6026 43.8156 27.6134 42.3943C27.6241 40.9731 28.7977 39.821 30.2298 39.8317C31.6403 39.8425 32.7816 41.0054 32.7816 42.4159C32.7816 43.8479 31.608 45.0107 30.1867 45ZM31.4895 42.4051C31.4788 41.7052 30.8973 41.1238 30.1975 41.1238C29.4976 41.1238 28.9162 41.7052 28.9162 42.4051C28.9162 43.1265 29.5191 43.7187 30.2298 43.6971C30.9189 43.6971 31.5003 43.105 31.4895 42.4051Z" fill="#5FDAFF"/>
</svg>
