<svg xmlns="http://www.w3.org/2000/svg" width="80" height="50" viewBox="0 0 80 50" fill="none"><path d="M32.1596 38.7062C32.1298 38.6537 32.1033 38.5995 32.0802 38.5437C31.9205 38.174 31.8715 37.7658 31.9389 37.3687H22.4827L36.5358 12.6375L41.1496 20.7481L42.4871 18.3812L38.4652 11.2962C38.2725 10.9334 37.9919 10.6246 37.649 10.3982C37.3062 10.1717 36.9121 10.0348 36.5027 10C36.0942 10.0186 35.699 10.1514 35.3622 10.3835C35.0255 10.6155 34.7606 10.9374 34.5977 11.3125L20.3608 36.3437C20.148 36.6971 20.0253 37.0974 20.0035 37.5094C19.9817 37.9213 20.0615 38.3323 20.2358 38.7062C20.4548 39.0515 20.766 39.3286 21.1342 39.5062C21.5025 39.6838 21.9131 39.7549 22.3196 39.7112H34.2439C33.8374 39.7555 33.4265 39.6848 33.0582 39.5071C32.6898 39.3295 32.3787 39.052 32.1602 38.7062H32.1596Z" fill="#333333"></path><path d="M59.5748 36.3435L47.8754 15.7354C47.6835 15.3686 47.4023 15.0562 47.0578 14.8268C46.7133 14.5974 46.3165 14.4585 45.9042 14.4229C45.4961 14.4405 45.1013 14.5726 44.7647 14.8039C44.4281 15.0352 44.1632 15.3564 44.0004 15.731L42.4873 18.381L43.8336 20.7485L45.9167 17.0604L57.491 37.3685H53.0898C53.146 37.7041 53.1144 38.0487 52.9979 38.3685C52.9734 38.4392 52.9426 38.5076 52.906 38.5728L52.8685 38.6478C52.6294 38.9856 52.3108 39.2592 51.9409 39.4445C51.5709 39.6298 51.1609 39.7211 50.7473 39.7103H57.6323C58.046 39.7214 58.456 39.6303 58.8261 39.4449C59.1961 39.2596 59.5147 38.9858 59.7535 38.6478C59.9421 38.2854 60.0253 37.8774 59.9937 37.4701C59.9621 37.0628 59.817 36.6725 59.5748 36.3435V36.3435Z" fill="#333333"></path><path d="M52.8692 38.6477L52.9067 38.5727C52.9431 38.5074 52.9736 38.439 52.998 38.3684C53.1144 38.0485 53.1461 37.704 53.0899 37.3684C53.0249 37.0063 52.8949 36.659 52.7061 36.3434L43.8424 20.7477L42.488 18.3809L41.1417 20.7477L32.2811 36.3434C32.1091 36.6628 31.9934 37.0096 31.9392 37.3684C31.8679 37.7645 31.9128 38.1728 32.0686 38.544C32.0917 38.5997 32.1182 38.654 32.148 38.7065C32.367 39.0516 32.6782 39.3286 33.0465 39.5061C33.4147 39.6836 33.8253 39.7545 34.2317 39.7109H50.7349C51.1505 39.7231 51.5628 39.6326 51.935 39.4472C52.3072 39.2619 52.6279 38.9875 52.8686 38.6484L52.8692 38.6477ZM42.4874 23.1152L50.5892 37.3677H34.3892L42.4874 23.1152Z" fill="#000811"></path></svg>