<svg width="50" height="50" viewBox="0 0 50 50" fill="none" xmlns="http://www.w3.org/2000/svg">
<path d="M11.6498 45C11.5977 44.9688 11.5457 44.9375 11.4832 44.9167C10.5357 44.5835 10.0046 43.8546 10.0046 42.8446C10.0046 40.3977 10.0046 37.9509 10.0046 35.504C10.0046 29.5481 10.0046 23.5818 10.0046 17.626C10.0046 17.501 9.99422 17.3657 10.0046 17.2407C10.0359 16.9075 10.2858 16.6785 10.5877 16.6785C10.8897 16.6785 11.1396 16.918 11.1604 17.2511C11.1708 17.3761 11.1604 17.5115 11.1604 17.6364C11.1604 25.9559 11.1604 34.2649 11.1604 42.5843C11.1604 43.5423 11.4415 43.8234 12.3786 43.8234C21.1979 43.8234 30.0275 43.8234 38.8468 43.8234C39.7631 43.8234 40.0546 43.5319 40.0546 42.6052C40.0546 41.3453 40.0546 40.0854 40.0546 38.8151C40.0546 38.3361 40.2837 38.055 40.6585 38.0758C41.0125 38.0862 41.2208 38.3569 41.2208 38.8151C41.2208 40.1166 41.2208 41.4182 41.2208 42.7197C41.2208 43.8755 40.7522 44.5314 39.6693 44.9167C39.6381 44.9271 39.6069 44.9583 39.586 44.9896C30.2878 45 20.9688 45 11.6498 45Z" fill="#5FDAFF"/>
<path d="M36.3159 10.7018C36.3159 11.0246 36.3263 11.3161 36.3159 11.5973C36.2847 12.8051 35.3788 13.711 34.2126 13.711C33.0465 13.711 32.1406 12.7947 32.1198 11.5868C32.1094 11.3057 32.1198 11.0246 32.1198 10.7226C30.6412 10.7226 29.2043 10.7226 27.7258 10.7226C27.7258 11.0246 27.7362 11.3057 27.7258 11.5868C27.6945 12.7947 26.7991 13.711 25.6329 13.711C24.4667 13.711 23.5608 12.8051 23.5296 11.5973C23.5192 11.3161 23.5296 11.035 23.5296 10.7226C22.051 10.7226 20.6141 10.7226 19.1356 10.7226C19.1356 11.0142 19.146 11.2953 19.1356 11.5868C19.1044 12.8051 18.2089 13.711 17.0427 13.711C15.8661 13.7214 14.9602 12.7947 14.9394 11.566C14.9394 11.2953 14.9394 11.0246 14.9394 10.7226C13.9086 10.7226 12.909 10.7018 11.9198 10.733C11.4825 10.7434 11.191 11.1599 11.191 11.6493C11.1806 12.5864 11.191 13.5235 11.191 14.4606C11.191 14.7834 11.0556 15.0229 10.7224 15.0958C10.4413 15.1583 10.2018 15.0437 10.0769 14.773C10.0352 14.6689 10.0144 14.5439 10.0144 14.4294C10.0144 13.4819 10.004 12.5344 10.0144 11.5764C10.0352 10.4311 10.9099 9.55644 12.0552 9.53561C13.0027 9.5252 13.9503 9.53561 14.9498 9.53561C14.9498 8.78592 14.9394 8.07789 14.9602 7.35944C14.9707 7.04707 14.9915 6.7347 15.0852 6.44315C15.3872 5.48522 16.3659 4.89171 17.3343 5.02708C18.3755 5.18326 19.1252 6.02666 19.146 7.09913C19.1668 7.89047 19.146 8.6818 19.146 9.50437C20.6141 9.50437 22.051 9.50437 23.54 9.50437C23.54 8.73386 23.54 7.97376 23.54 7.20325C23.54 6.55769 23.7378 5.99542 24.2272 5.56852C24.8832 4.98543 25.6329 4.83965 26.445 5.18326C27.278 5.53728 27.7049 6.20367 27.7362 7.10954C27.757 7.90088 27.7362 8.69221 27.7362 9.51479C29.2043 9.51479 30.6412 9.51479 32.1302 9.51479C32.1302 8.74428 32.1302 7.98418 32.1302 7.22408C32.1302 6.57851 32.328 6.01625 32.8174 5.58934C33.4734 5.00625 34.2231 4.86048 35.0248 5.19367C35.8578 5.54769 36.2951 6.21408 36.3159 7.11995C36.3368 7.91129 36.3159 8.70263 36.3159 9.54603C36.4721 9.54603 36.5971 9.54603 36.722 9.54603C37.5133 9.54603 38.3047 9.54603 39.1064 9.54603C40.3663 9.55644 41.241 10.4207 41.2514 11.6806C41.2618 13.055 41.2514 14.4398 41.2514 15.8142C41.2514 22.4157 41.2514 29.0067 41.2514 35.6081C41.2514 36.2432 41.064 36.514 40.6579 36.514C40.2518 36.514 40.0852 36.2328 40.0852 35.5977C40.0852 27.7155 40.0852 19.823 40.0852 11.9409C40.0852 10.9933 39.8145 10.7226 38.8565 10.7226C38.0131 10.7018 37.201 10.7018 36.3159 10.7018ZM16.1056 9.34819C16.1056 10.0666 16.1056 10.7747 16.1056 11.4931C16.1056 12.1283 16.4596 12.5344 17.0115 12.5448C17.5737 12.5552 17.959 12.1491 17.959 11.4931C17.9694 10.0771 17.9694 8.66098 17.959 7.2449C17.959 6.59934 17.5633 6.18284 17.0115 6.19326C16.47 6.20367 16.1056 6.62016 16.1056 7.2449C16.0952 7.94253 16.1056 8.64015 16.1056 9.34819ZM26.5492 9.34819C26.5492 8.65056 26.5492 7.94253 26.5492 7.2449C26.5388 6.59934 26.1535 6.18284 25.6016 6.19326C25.0602 6.20367 24.6958 6.62016 24.6958 7.2449C24.6958 8.66098 24.6958 10.0771 24.6958 11.4931C24.6958 12.1283 25.0498 12.5344 25.6016 12.5448C26.1639 12.5552 26.5388 12.1491 26.5492 11.4931C26.5596 10.7747 26.5492 10.0666 26.5492 9.34819ZM35.1393 9.37943C35.1393 8.66098 35.1393 7.95294 35.1393 7.23449C35.1289 6.60975 34.7749 6.19326 34.2335 6.18284C33.6816 6.17243 33.2964 6.59934 33.2859 7.2449C33.2755 8.66098 33.2755 10.0771 33.2859 11.4931C33.2859 12.1283 33.6504 12.5344 34.1918 12.5448C34.7541 12.5552 35.1289 12.1491 35.1393 11.4931C35.1498 10.7851 35.1393 10.0875 35.1393 9.37943Z" fill="#5FDAFF"/>
<path d="M29.1404 30.3394C27.11 30.3394 25.0796 30.3394 23.0596 30.3394C22.0392 30.3394 21.3208 29.7564 21.1438 28.8088C20.9772 27.8717 21.6123 26.9242 22.539 26.7264C22.7056 26.6951 22.8722 26.6743 23.0388 26.6743C27.0788 26.6743 31.1292 26.6639 35.1692 26.6743C36.2833 26.6743 37.0746 27.424 37.1058 28.4444C37.1267 29.496 36.3666 30.3082 35.2941 30.329C34.0863 30.3499 32.8784 30.3394 31.6706 30.3394C30.8272 30.3394 29.9838 30.3394 29.1404 30.3394ZM29.0988 29.1733C31.0459 29.1733 33.0034 29.1733 34.9505 29.1733C35.0963 29.1733 35.242 29.1837 35.3774 29.1524C35.721 29.1004 35.9084 28.8817 35.9293 28.5485C35.9501 28.2049 35.7731 27.9758 35.4399 27.8821C35.3045 27.8509 35.1587 27.8405 35.013 27.8405C31.0667 27.8405 27.1308 27.8405 23.1846 27.8405C23.0284 27.8405 22.8722 27.8509 22.7264 27.8925C22.4141 27.9967 22.2579 28.2362 22.2891 28.5485C22.3099 28.8609 22.4869 29.0796 22.8201 29.142C22.9763 29.1733 23.1325 29.1629 23.2887 29.1629C25.2254 29.1733 27.1621 29.1733 29.0988 29.1733Z" fill="#5FDAFF"/>
<path d="M29.0923 34.4315C31.1332 34.4315 33.174 34.4211 35.2148 34.4315C36.5684 34.4419 37.4534 35.6706 37.0057 36.8888C36.735 37.6385 36.0478 38.0967 35.1419 38.0967C33.7258 38.1071 32.3097 38.0967 30.8937 38.0967C28.2906 38.0967 25.6875 38.0967 23.0948 38.0967C22.064 38.0967 21.3352 37.524 21.1477 36.5869C20.9395 35.5352 21.6996 34.5044 22.7721 34.4419C23.5738 34.4003 24.386 34.4211 25.1877 34.4211C26.4997 34.4315 27.7908 34.4315 29.0923 34.4315ZM29.134 36.9305C31.1332 36.9305 33.1427 36.9305 35.1419 36.9305C35.6521 36.9305 35.9332 36.6806 35.9436 36.2745C35.9436 35.858 35.6729 35.6185 35.1627 35.6081C35.0898 35.6081 35.0065 35.6081 34.9337 35.6081C31.0707 35.6081 27.2077 35.6081 23.3343 35.6081C23.2094 35.6081 23.074 35.6081 22.9491 35.6185C22.5638 35.6498 22.3035 35.9101 22.2931 36.2641C22.2931 36.5973 22.5326 36.868 22.8866 36.9201C23.0115 36.9409 23.1469 36.9305 23.2718 36.9305C25.2294 36.9305 27.1765 36.9305 29.134 36.9305Z" fill="#5FDAFF"/>
<path d="M29.0994 22.5927C27.0273 22.5927 24.9657 22.6031 22.8936 22.5927C22.1127 22.5927 21.4672 22.0825 21.2173 21.3641C20.9674 20.6456 21.1756 19.8855 21.7587 19.3857C22.1023 19.0838 22.5188 18.938 22.977 18.938C27.069 18.938 31.1714 18.9276 35.2635 18.938C36.3256 18.938 37.1273 19.7501 37.1169 20.7914C37.1065 21.8118 36.3256 22.5927 35.2635 22.6031C33.2019 22.6031 31.1506 22.5927 29.0994 22.5927ZM29.089 21.4265C31.0569 21.4265 33.0144 21.4265 34.9824 21.4265C35.1073 21.4265 35.2427 21.4369 35.3676 21.4161C35.6904 21.3641 35.8882 21.1766 35.9299 20.8538C35.9715 20.5102 35.8258 20.2603 35.503 20.1562C35.3468 20.1042 35.1698 20.1042 35.0032 20.1042C31.0777 20.1042 27.1523 20.1042 23.2268 20.1042C23.0602 20.1042 22.8832 20.1042 22.7271 20.1562C22.4147 20.2499 22.2585 20.4998 22.2897 20.8122C22.321 21.1454 22.5084 21.3641 22.852 21.4161C22.9769 21.4369 23.1123 21.4265 23.2373 21.4265C25.1948 21.4265 27.1419 21.4265 29.089 21.4265Z" fill="#5FDAFF"/>
<path d="M16.4385 20.7392C17.4485 19.521 18.4168 18.3548 19.3956 17.1886C19.4581 17.1053 19.5205 17.022 19.6038 16.9492C19.8433 16.7305 20.114 16.6993 20.3848 16.8971C20.6347 17.0845 20.6867 17.4177 20.4889 17.6988C20.3327 17.9175 20.1453 18.1257 19.9787 18.334C18.9791 19.5418 17.9691 20.7497 16.9591 21.9575C16.5218 22.4781 16.1365 22.4469 15.7721 21.8638C15.4597 21.364 15.1578 20.8746 14.8558 20.3748C14.6163 19.9791 14.658 19.6459 14.9599 19.4481C15.2723 19.2503 15.6055 19.3648 15.8658 19.7709C16.0324 20.0729 16.2198 20.3852 16.4385 20.7392Z" fill="#5FDAFF"/>
<path d="M16.4386 28.4653C17.4382 27.2574 18.417 26.0913 19.3853 24.9251C19.4478 24.8522 19.4999 24.7793 19.5623 24.7168C19.8122 24.4565 20.1558 24.4253 20.3953 24.6439C20.6348 24.8522 20.6765 25.175 20.4578 25.4457C20.1871 25.8101 19.8851 26.1537 19.5936 26.4973C18.7085 27.5698 17.8235 28.6423 16.928 29.7043C16.5219 30.1937 16.1159 30.1729 15.7827 29.6315C15.4599 29.1108 15.1371 28.5902 14.8247 28.0696C14.5957 27.6948 14.6373 27.372 14.9288 27.1741C15.2308 26.9763 15.5744 27.0804 15.8139 27.4449C16.0117 27.7781 16.2096 28.1008 16.4386 28.4653Z" fill="#5FDAFF"/>
<path d="M16.4373 36.2537C17.4161 35.0771 18.3532 33.9525 19.2903 32.828C19.4048 32.6926 19.5193 32.5365 19.6547 32.4219C19.8838 32.2241 20.1337 32.2241 20.3627 32.4115C20.5918 32.5885 20.6543 32.8384 20.5293 33.1091C20.4773 33.2133 20.4044 33.307 20.3315 33.3903C19.2174 34.7335 18.1033 36.0766 16.9891 37.4094C16.4685 38.0238 16.1249 38.0029 15.698 37.3157C15.3961 36.8263 15.0941 36.3474 14.8026 35.858C14.5839 35.4936 14.636 35.1499 14.9275 34.9625C15.2399 34.7647 15.5627 34.8688 15.8021 35.2541C16.0104 35.5664 16.2082 35.8892 16.4373 36.2537Z" fill="#5FDAFF"/>
</svg>
