<svg width="50" height="50" viewBox="0 0 50 50" fill="none" xmlns="http://www.w3.org/2000/svg">
<path d="M15.1074 44.9902C14.7949 44.7656 14.7266 44.4434 14.7266 44.0723C14.7363 42.6953 14.7266 41.3086 14.7266 39.9316C14.7266 39.7852 14.7266 39.6484 14.7266 39.4531C14.5605 39.4531 14.4238 39.4531 14.2871 39.4531C12.2949 39.4531 10.3027 39.4531 8.31055 39.4531C7.68555 39.4531 7.50977 39.2773 7.50977 38.6328C7.50977 35.1953 7.50977 31.7578 7.50977 28.3203C7.50977 28.2129 7.50977 28.1152 7.51953 28.0078C7.55859 27.6953 7.74414 27.5098 8.05664 27.4902C8.36914 27.4707 8.57422 27.6367 8.64258 27.9492C8.67188 28.0957 8.68164 28.2617 8.68164 28.418C8.68164 31.5332 8.68164 34.6387 8.68164 37.7539C8.68164 37.9102 8.68164 38.0664 8.68164 38.252C15.0781 38.252 21.4453 38.252 27.8613 38.252C27.8711 38.1152 27.8809 37.9785 27.8809 37.8418C27.8809 36.6016 27.8809 35.3711 27.8809 34.1309C27.8809 33.4473 28.0566 33.2715 28.7305 33.2715C30.0977 33.2715 31.4648 33.2715 32.8613 33.2715C32.8613 24.2383 32.8613 15.2246 32.8613 6.19141C24.8145 6.19141 16.7773 6.19141 8.67188 6.19141C8.67188 6.34766 8.67188 6.51367 8.67188 6.67969C8.67188 12.8906 8.67188 19.1016 8.67188 25.3125C8.67188 25.4785 8.67188 25.6543 8.64258 25.8203C8.58399 26.1523 8.35938 26.3281 8.03711 26.2988C7.73438 26.2793 7.53906 26.084 7.50977 25.7617C7.5 25.6445 7.5 25.5273 7.5 25.4102C7.5 18.8965 7.5 12.3926 7.5 5.87891C7.5 5.14648 7.65625 5 8.39844 5C16.6504 5 24.9121 5 33.1641 5C33.8867 5 34.0625 5.17578 34.0625 5.89844C34.0625 7.29492 34.0625 8.68164 34.0625 10.0781C34.0625 10.2148 34.0625 10.3613 34.0625 10.5371C34.248 10.5371 34.3848 10.5371 34.5215 10.5371C36.5039 10.5371 38.4766 10.5371 40.459 10.5371C41.1133 10.5371 41.2793 10.7031 41.2793 11.377C41.2793 12.9785 41.2793 14.5801 41.2793 16.1816C41.2793 16.2988 41.2793 16.416 41.2598 16.5332C41.2109 16.8359 40.9961 17.0312 40.7227 16.9922C40.5176 16.9629 40.3125 16.7676 40.1758 16.6016C40.0879 16.4941 40.1172 16.2793 40.1172 16.1133C40.1172 14.668 40.1172 13.2227 40.1172 11.7578C38.0957 11.7578 36.1035 11.7578 34.0625 11.7578C34.0625 11.9336 34.0625 12.0996 34.0625 12.2656C34.0625 19.3457 34.0625 26.4355 34.0723 33.5156C34.0723 33.9355 33.9453 34.248 33.6426 34.5508C32.1191 36.0449 30.6152 37.5586 29.1113 39.082C28.8379 39.3652 28.5547 39.4922 28.1543 39.4824C24.2383 39.4727 20.3125 39.4727 16.3965 39.4727C16.2402 39.4727 16.0938 39.4727 15.918 39.4727C15.918 40.9473 15.918 42.373 15.918 43.8184C22.3047 43.8184 28.6816 43.8184 35.0977 43.8184C35.0977 43.6816 35.0977 43.5352 35.0977 43.3984C35.0977 42.1484 35.0977 40.8984 35.0977 39.6484C35.0977 39.0234 35.293 38.8281 35.9082 38.8281C37.2852 38.8281 38.6621 38.8281 40.1074 38.8281C40.1074 38.6426 40.1074 38.4766 40.1074 38.3105C40.1074 31.9336 40.1074 25.5469 40.1074 19.1699C40.1074 19.0039 40.1074 18.8281 40.1465 18.6621C40.2051 18.3496 40.4199 18.1836 40.7324 18.2031C41.0449 18.2227 41.2305 18.4082 41.2695 18.7207C41.2891 18.8477 41.2793 18.9844 41.2793 19.1113C41.2793 25.7812 41.2793 32.4414 41.2891 39.1113C41.2891 39.4922 41.1719 39.7656 40.8984 40.0391C39.3555 41.5527 37.8418 43.0957 36.3086 44.6191C36.1719 44.7559 36.0156 44.873 35.8691 45C28.9648 44.9902 22.0312 44.9902 15.1074 44.9902ZM36.3086 42.8125C37.2461 41.8848 38.2129 40.9375 39.1699 40C38.2422 40 37.2852 40 36.3086 40C36.3086 40.9766 36.3086 41.9238 36.3086 42.8125ZM31.9141 34.4727C30.9863 34.4727 30.0391 34.4727 29.0918 34.4727C29.0918 35.4492 29.0918 36.3867 29.0918 37.2852C30.0293 36.3477 30.9766 35.4004 31.9141 34.4727Z" fill="#5FDAFF"/>
<path d="M11.7676 18.2324C11.7969 16.084 12.334 14.4043 13.4277 12.9101C13.7402 12.4805 14.0527 12.373 14.3652 12.5879C14.6777 12.8027 14.6973 13.1543 14.3848 13.5742C13.5254 14.7558 13.0664 16.0644 12.959 17.5195C12.6855 21.2695 15.4883 24.7754 19.209 25.3125C22.8613 25.8398 26.1426 23.8769 27.4023 20.4101C28.9746 16.0937 25.9863 11.2012 21.4258 10.6152C19.5508 10.3711 17.832 10.7519 16.2598 11.7871C16.2012 11.8262 16.1523 11.8555 16.0937 11.8945C15.7422 12.0898 15.4199 12.0215 15.2441 11.7285C15.0781 11.4551 15.1367 11.0937 15.4687 10.918C16.2402 10.5078 17.0117 10.0195 17.8418 9.76561C22.7344 8.2617 27.7246 11.2207 28.8184 16.2402C29.8535 20.9766 26.4648 25.8398 21.6797 26.4844C17.0508 27.1094 12.998 24.3066 11.9629 19.7656C11.8359 19.1601 11.8066 18.5449 11.7676 18.2324Z" fill="#5FDAFF"/>
<path d="M19.2166 18.1348C19.3533 18.0078 19.4608 17.9101 19.5584 17.8125C20.6033 16.7773 21.6287 15.7324 22.6834 14.6972C23.2205 14.1699 23.8944 14.0625 24.5096 14.3652C25.0955 14.6484 25.4959 15.2441 25.3983 15.8789C25.3397 16.2402 25.1834 16.6601 24.9393 16.914C23.4354 18.4668 21.9119 19.9902 20.369 21.5039C19.7049 22.1484 18.7967 22.1582 18.1229 21.5137C17.3416 20.7715 16.5799 20.0098 15.8279 19.2285C15.1736 18.5351 15.1932 17.5781 15.8377 16.9531C16.4725 16.3281 17.4295 16.3476 18.1131 17.0117C18.4842 17.373 18.8358 17.7441 19.2166 18.1348ZM19.2459 20.8496C19.4022 20.7324 19.5486 20.6543 19.6658 20.5371C21.1014 19.1015 22.5369 17.666 23.9725 16.2305C24.0408 16.1621 24.158 16.0742 24.1678 15.9961C24.1776 15.8301 24.1873 15.6055 24.0897 15.5176C23.992 15.4297 23.7674 15.4297 23.6111 15.459C23.5037 15.4785 23.4158 15.6152 23.3182 15.7031C22.1561 16.8652 20.994 18.0273 19.8416 19.1797C19.3631 19.6582 19.119 19.6582 18.6307 19.1699C18.2108 18.75 17.7811 18.3203 17.3611 17.9004C17.1463 17.6855 16.9119 17.5488 16.6483 17.8027C16.4041 18.0469 16.5311 18.2715 16.7361 18.4765C17.4393 19.1797 18.1326 19.8828 18.8358 20.5762C18.9529 20.6836 19.0897 20.7519 19.2459 20.8496Z" fill="#5FDAFF"/>
<path d="M20.928 29.707C18.594 29.707 16.2698 29.707 13.9358 29.707C13.301 29.707 13.0178 29.5117 13.0276 29.1016C13.0374 28.7109 13.3206 28.5254 13.926 28.5254C18.5842 28.5254 23.2424 28.5254 27.9104 28.5254C27.9592 28.5254 28.0178 28.5254 28.0667 28.5254C28.5549 28.5449 28.8186 28.7598 28.8088 29.1309C28.7991 29.4922 28.5452 29.6973 28.0667 29.6973C25.6936 29.707 23.3108 29.707 20.928 29.707Z" fill="#5FDAFF"/>
<path d="M18.6632 31.2988C20.2843 31.2988 21.9151 31.2988 23.5362 31.2988C23.878 31.2988 24.1612 31.377 24.2491 31.7578C24.3272 32.0996 24.1417 32.373 23.7901 32.4512C23.6632 32.4805 23.5362 32.4805 23.3995 32.4805C20.2257 32.4805 17.0518 32.4805 13.878 32.4805C13.8096 32.4805 13.751 32.4805 13.6827 32.4805C13.2628 32.4512 13.0089 32.207 13.0284 31.8652C13.0479 31.5234 13.2823 31.3184 13.7022 31.3184C15.3624 31.2988 17.0128 31.2988 18.6632 31.2988Z" fill="#5FDAFF"/>
</svg>
