<svg xmlns="http://www.w3.org/2000/svg" width="80" height="50" viewBox="0 0 80 50" fill="none"><path d="M27.8365 5C24.9213 5 22.5637 7.37356 22.5637 10.2728C22.5637 10.2728 22.5 39.4883 22.5 39.7272C22.5 42.5627 24.762 44.8726 27.5657 44.9841V45H54.8218V43.5185C52.719 43.5185 51.0305 41.814 51.0305 39.7272C51.0305 37.6404 52.735 35.9359 54.8218 35.9359V35.904V5H27.8365ZM28.4259 7.88331H29.9074V32.8136H28.4259V7.88331ZM49.5331 39.7113C49.5331 41.2087 50.1703 42.5468 51.1738 43.5026H27.7569C25.6541 43.5185 23.9496 41.7981 23.9496 39.7113C23.9496 37.72 25.5108 36.0952 27.4542 35.9518L51.2216 35.904C50.2021 36.8598 49.5331 38.1979 49.5331 39.7113Z" fill="#333333"></path></svg>