<svg xmlns="http://www.w3.org/2000/svg" width="80" height="50" viewBox="0 0 80 50" fill="none"><path d="M25 10.1348C29.994 16.0432 50.8493 16.43 56.3357 10.1699C56.3357 12.4911 56.3357 14.6364 56.3357 16.7466C56.3357 23.8507 56.2654 30.9197 56.3709 38.0239C56.406 40.3451 55.3861 41.6463 53.5222 42.5959C50.4976 44.1082 47.1917 44.6709 43.8507 44.8819C38.927 45.1632 34.0033 45.0577 29.2906 43.2641C28.13 42.8069 27.0398 42.2794 26.0902 41.4705C25.422 40.9078 25 40.2396 25 39.3603C25 39.0086 25 38.6569 25 38.3053C25 29.0206 25 19.7711 25 10.1348ZM45.7498 32.01C44.2024 30.9549 43.9913 29.8998 44.8706 28.2117C45.8201 26.3477 45.0112 23.9211 43.5693 22.8308C42.1274 21.7406 39.8765 21.7054 38.3291 22.7957C36.7465 23.8859 36.0783 26.2422 36.7113 28.3172C37.3092 30.1812 38.7511 31.1659 41.002 31.2363C41.4592 31.2363 41.9867 31.0252 42.3384 31.4473C43.2176 32.6078 44.4485 32.1858 45.7498 32.01ZM29.6423 28.8799C29.15 30.3922 29.6775 31.0252 31.0491 31.0956C31.9283 31.1659 32.8076 31.2011 33.6516 30.9549C34.6715 30.6384 35.4101 30.0053 35.5507 28.8799C35.6914 27.7897 35.2694 26.9104 34.3198 26.3477C33.7219 25.9961 33.0537 25.7499 32.4559 25.3982C32.0338 25.1872 31.6118 24.9058 31.7173 24.3079C31.8228 23.7452 32.3503 23.6397 32.8075 23.6397C33.2296 23.6397 33.6164 23.7452 34.0385 23.7101C34.4253 23.7101 35.0584 24.4838 35.1991 23.4287C35.3046 22.6901 35.0935 22.1274 34.2495 22.0571C33.2999 21.9516 32.3855 21.8813 31.4711 22.1626C30.3809 22.4791 29.572 23.1825 29.4313 24.3431C29.2906 25.5388 29.9237 26.3477 30.9436 26.8753C31.5766 27.1918 32.2097 27.5083 32.8075 27.8248C33.1944 28.0359 33.4406 28.4227 33.2647 28.8448C33.1592 29.1964 32.8076 29.3371 32.4207 29.4075C31.5415 29.6185 30.6622 29.3371 29.6423 28.8799ZM46.5587 26.4181C46.5587 27.5787 46.5587 28.7744 46.5587 29.935C46.5587 30.5329 46.5235 31.2363 47.4027 31.0956C48.8798 30.8846 50.6735 31.8693 51.7989 30.4977C52.3968 29.7591 51.5175 29.1613 50.6031 29.3019C48.8798 29.6185 48.5281 28.7744 48.6337 27.2621C48.7392 25.9257 48.6337 24.5541 48.6688 23.2177C48.704 22.444 48.4578 22.0571 47.5786 22.0571C46.6642 22.0571 46.4883 22.4791 46.5235 23.2529C46.5587 24.3079 46.5587 25.363 46.5587 26.4181Z" fill="#333333"></path><path d="M40.5797 5C43.745 5.03517 46.875 5.17585 49.8996 6.16058C50.2161 6.26609 50.5678 6.3716 50.8843 6.51227C51.869 7.00464 53.1351 7.3915 53.1703 8.69276C53.2055 10.0995 51.869 10.5567 50.814 10.9436C46.453 12.5262 41.9162 12.702 37.3442 12.3855C35.1285 12.2097 32.948 11.858 30.8379 11.0843C29.6421 10.6271 28.165 10.2402 28.165 8.69276C28.2002 7.21566 29.6421 6.86396 30.7676 6.40677C33.8976 5.14068 37.2387 5.03517 40.5797 5Z" fill="#333333"></path><path d="M45.7502 32.0101C44.449 32.1859 43.218 32.608 42.3037 31.4122C41.9871 30.9902 41.4244 31.2012 40.9672 31.2012C38.7164 31.1309 37.2745 30.1461 36.6766 28.2822C36.0084 26.2072 36.7118 23.8508 38.2944 22.7606C39.8418 21.7055 42.0926 21.7055 43.5346 22.7958C44.9765 23.886 45.8206 26.3127 44.8358 28.1766C43.9566 29.8999 44.2028 30.9198 45.7502 32.0101ZM42.9367 26.5237C42.9015 24.7652 42.0575 23.7453 40.6859 23.8157C39.3846 23.886 38.5757 25.0466 38.6461 26.7347C38.7164 28.3877 39.5253 29.3724 40.8266 29.3372C42.163 29.3372 42.9719 28.2822 42.9367 26.5237Z" fill="#FDFDFE"></path><path d="M29.6427 28.8795C30.6274 29.3367 31.5418 29.618 32.4914 29.4422C32.8431 29.3718 33.1948 29.2312 33.3354 28.8795C33.4761 28.4223 33.2651 28.0706 32.8782 27.8596C32.2804 27.5079 31.6122 27.2265 31.0143 26.91C29.9944 26.3825 29.3613 25.5384 29.502 24.3778C29.6427 23.2172 30.4516 22.5139 31.5418 22.1973C32.4562 21.916 33.4058 22.0215 34.3202 22.0918C35.1642 22.1622 35.3401 22.7249 35.2697 23.4634C35.1291 24.5185 34.496 23.7448 34.1092 23.7448C33.6871 23.7448 33.3003 23.6744 32.8782 23.6744C32.3859 23.6744 31.8935 23.7799 31.788 24.3427C31.6825 24.9054 32.1045 25.1867 32.5265 25.4329C33.1596 25.7494 33.8278 25.9956 34.3905 26.3825C35.3049 26.9452 35.7621 27.7892 35.6214 28.9146C35.4808 30.0401 34.7422 30.6731 33.7223 30.9896C32.8782 31.2358 31.999 31.1655 31.1198 31.1303C29.6778 31.0248 29.1503 30.3917 29.6427 28.8795Z" fill="#FDFDFE"></path><path d="M46.5588 26.4176C46.5588 25.3625 46.594 24.3075 46.5588 23.2524C46.5236 22.4787 46.6995 22.0566 47.6139 22.0566C48.4931 22.0566 48.7041 22.4435 48.7041 23.2172C48.669 24.5537 48.7745 25.9253 48.669 27.2617C48.5283 28.774 48.9152 29.618 50.6384 29.3015C51.5528 29.1256 52.4672 29.7587 51.8342 30.4972C50.7088 31.8337 48.9152 30.8841 47.438 31.0951C46.5588 31.2006 46.594 30.5324 46.594 29.9345C46.5588 28.7388 46.5588 27.5782 46.5588 26.4176Z" fill="#FDFDFE"></path><path d="M42.9355 26.5231C42.9707 28.2815 42.197 29.3366 40.8254 29.3718C39.5241 29.407 38.68 28.4222 38.6449 26.7693C38.5745 25.0811 39.3834 23.9206 40.6847 23.8502C42.0211 23.7447 42.9003 24.7646 42.9355 26.5231Z" fill="#333333"></path></svg>