<svg xmlns="http://www.w3.org/2000/svg" width="80" height="50" viewBox="0 0 80 50" fill="none"><path fill-rule="evenodd" clip-rule="evenodd" d="M55.949 10.5772C56.0989 10.4273 56.1587 10.2478 56.1891 10.0381C56.1589 9.82865 56.0991 9.64887 55.949 9.49901C55.7996 9.34915 55.6198 9.25938 55.4403 9.25938C55.2002 9.25938 55.0207 9.34915 54.8713 9.49901C54.7214 9.64862 54.6312 9.8284 54.6616 10.0381C54.6314 10.2478 54.7214 10.4273 54.8713 10.5772C55.0207 10.7271 55.2004 10.7869 55.4403 10.7869C55.6198 10.7869 55.7996 10.7271 55.949 10.5772ZM59.4536 11.0866C59.3991 11.0305 59.334 10.9857 59.2621 10.9549C59.1901 10.9241 59.1127 10.9078 59.0345 10.9071C58.8545 10.9071 58.7048 10.9669 58.5852 11.0866C58.4655 11.2063 58.4056 11.3562 58.4056 11.536C58.4056 11.6856 58.4655 11.8354 58.5852 11.9853C58.7048 12.105 58.8545 12.1352 59.0345 12.1352C59.1838 12.1352 59.334 12.105 59.4536 11.9853C59.5733 11.8354 59.6332 11.6858 59.6332 11.536C59.6334 11.3562 59.5736 11.2063 59.4536 11.0866ZM42.4109 31.0645C42.0516 30.7052 41.6319 30.5257 41.1227 30.5257C40.6437 30.5257 40.2246 30.7052 39.865 31.0645C39.5057 31.4243 39.3259 31.8435 39.3259 32.323C39.3259 32.8317 39.5057 33.2513 39.865 33.6107C40.2246 33.97 40.6437 34.15 41.1227 34.15C41.6319 34.15 42.0516 33.97 42.4109 33.6107C42.7702 33.2513 42.9201 32.8317 42.9498 32.323C42.9201 31.8435 42.7702 31.4243 42.4109 31.0645ZM37.169 35.1083C36.7498 35.1083 36.4202 35.2581 36.1507 35.5576C35.8512 35.8274 35.7013 36.1266 35.7315 36.5161C35.7016 36.9056 35.8512 37.2649 36.1507 37.5345C36.4202 37.8043 36.7496 37.9536 37.169 37.9536C37.5585 37.9536 37.8879 37.8043 38.1874 37.5345C38.4569 37.2647 38.5766 36.9056 38.5766 36.5161C38.5766 36.1266 38.4569 35.8271 38.1874 35.5576C37.8881 35.2581 37.5585 35.1083 37.169 35.1083ZM22.822 36.0069C22.7023 36.1266 22.6123 36.2767 22.6123 36.4563C22.6123 36.6061 22.7023 36.7557 22.822 36.8754C22.9419 36.9956 23.0616 37.0555 23.2414 37.0555C23.391 37.0555 23.5708 36.9956 23.6908 36.8754C23.8104 36.7557 23.8705 36.6061 23.8705 36.4563C23.8705 36.2767 23.8104 36.1266 23.6908 36.0069C23.5711 35.8872 23.3913 35.8274 23.2414 35.8274C23.0616 35.8271 22.9419 35.887 22.822 36.0069ZM27.4345 37.3549C27.2847 37.1754 27.0752 37.1153 26.8356 37.1153C26.6259 37.1153 26.4164 37.1751 26.2666 37.3549C26.1153 37.5059 26.0293 37.7102 26.0269 37.9239C26.0269 38.1636 26.1167 38.3431 26.2666 38.5226C26.4164 38.6725 26.6259 38.7324 26.8356 38.7324C27.0752 38.7324 27.2849 38.6725 27.4345 38.5226C27.5841 38.3431 27.6742 38.1633 27.6442 37.9239C27.6742 37.7142 27.5844 37.5043 27.4345 37.3549ZM31.1788 39.0919C31.3583 39.2719 31.598 39.3617 31.8678 39.3919C32.1074 39.3617 32.347 39.2722 32.5268 39.0919C32.7365 38.9124 32.7966 38.6728 32.7966 38.4331C32.7966 38.1633 32.7365 37.9239 32.5268 37.7442C32.4401 37.6581 32.3372 37.59 32.2241 37.5437C32.1111 37.4974 31.99 37.4738 31.8678 37.4744C31.5982 37.4744 31.3586 37.5644 31.1788 37.7442C30.999 37.9239 30.9093 38.1633 30.9093 38.4331C30.9086 38.5553 30.9321 38.6764 30.9783 38.7894C31.0246 38.9025 31.0927 39.0053 31.1788 39.0919V39.0919ZM51.0672 8.87014C50.8876 8.69035 50.6777 8.60059 50.4079 8.60059C50.1386 8.60059 49.8987 8.69035 49.7189 8.87014C49.6329 8.95683 49.5648 9.05964 49.5185 9.17268C49.4722 9.28572 49.4486 9.40678 49.4491 9.52893C49.4491 9.79848 49.5391 10.0381 49.7189 10.2179C49.8987 10.3977 50.1386 10.4874 50.4079 10.4874C50.6777 10.4874 50.8874 10.3977 51.0672 10.2179C51.247 10.0381 51.3666 9.79848 51.3666 9.52893C51.3666 9.28955 51.2467 9.04967 51.0672 8.87014V8.87014ZM46.125 10.4276C45.8255 10.1281 45.4961 10.0084 45.1066 10.0084C44.7172 10.0084 44.388 10.1284 44.0883 10.4276C43.9545 10.5611 43.8485 10.7199 43.7766 10.8947C43.7046 11.0695 43.6681 11.2569 43.6691 11.4459C43.6691 11.8352 43.819 12.1648 44.0883 12.4344C44.3883 12.7039 44.7172 12.8538 45.1066 12.8538C45.4961 12.8538 45.8258 12.7039 46.125 12.4344C46.3948 12.1648 46.5442 11.8354 46.5442 11.4459C46.5442 11.0565 46.3946 10.6971 46.125 10.4276ZM42.4109 14.3514C42.0516 13.9918 41.6319 13.8123 41.1227 13.8123C40.6437 13.8123 40.2246 13.9918 39.8351 14.3514C39.5057 14.7107 39.3259 15.1301 39.3259 15.6391C39.3259 16.1186 39.5057 16.5377 39.8351 16.897C40.2246 17.2564 40.6437 17.4361 41.1227 17.4361C41.6319 17.4361 42.0516 17.2564 42.3807 16.897C42.7702 16.5377 42.9498 16.1183 42.9498 15.6391C42.9498 15.1301 42.7702 14.7107 42.4109 14.3514Z" fill="#333333"></path><path fill-rule="evenodd" clip-rule="evenodd" d="M46.9039 16.0586C46.1848 16.3581 45.4961 16.7176 44.8071 17.0171V26.0327C44.777 27.7999 46.125 28.6985 48.8803 28.6985V27.2907C48.2816 27.2907 47.8323 27.171 47.473 26.9012C47.0835 26.6017 46.9039 26.2424 46.9039 25.7629V16.0586V16.0586ZM54.7214 19.5331C53.2537 19.5331 51.9957 19.9223 50.9475 20.7013C49.7493 21.6 49.1204 22.7679 49.1501 24.2057C49.1501 25.6135 49.7493 26.7217 50.8876 27.5605C51.9356 28.3093 53.1936 28.6988 54.6912 28.6988C55.7096 28.6988 56.6384 28.5791 57.5069 28.3691C58.1657 28.1896 58.6749 27.9796 59.8431 27.3508L58.9746 26.2125C57.297 27.1111 56.3088 27.3508 55.0805 27.3508C54.0324 27.3508 53.1639 27.1111 52.5348 26.6321C51.7559 26.0928 51.3664 25.3138 51.3664 24.2658H59.903C59.993 23.9663 60.0528 23.6369 60.0528 23.3073C60.0528 22.169 59.6035 21.2706 58.6746 20.5816C57.7164 19.8924 56.3985 19.5331 54.7214 19.5331ZM52.4451 21.5099C53.0739 21.0606 53.8529 20.8509 54.8114 20.8509C55.7996 20.8509 56.6083 21.0905 57.1773 21.5399C57.7161 21.959 57.9859 22.4984 57.9859 23.1272H51.4265C51.5167 22.4984 51.8464 21.959 52.4451 21.5099ZM18.5989 20.4016L19.4976 21.7196C20.1866 21.1803 21.2049 20.911 22.5228 20.911C24.2301 20.911 25.0686 21.6299 25.0686 23.0676C24.4996 22.9178 24.0204 22.8579 23.5713 22.8579C21.9537 22.8579 20.606 23.1574 19.5876 23.7865C18.5393 24.3855 18 25.1644 18 26.0631C18 26.8119 18.3296 27.4408 19.0184 27.95C19.6774 28.4591 20.486 28.6988 21.4146 28.6988C23.1519 28.6988 24.4398 28.2796 25.2786 27.5006C25.4881 27.9198 25.7579 28.2198 26.2072 28.3993C26.6264 28.6088 27.2555 28.6988 28.124 28.6988V27.8901C27.4951 27.6203 27.1954 27.1111 27.1954 26.3623V23.1873C27.1954 21.8994 26.8061 20.9708 26.0272 20.3719C25.2484 19.8029 23.9904 19.5333 22.2831 19.5333C21.6241 19.5333 20.9651 19.6233 20.2761 19.8029C19.5575 19.9522 19.0184 20.1619 18.5989 20.4016V20.4016ZM23.6907 24.0259C23.9304 24.0259 24.4096 24.0858 25.0684 24.1758V26.3322C24.2598 27.081 23.3312 27.4408 22.2831 27.4408C20.8154 27.4408 20.0966 26.9915 20.0966 26.0928C20.0966 25.5238 20.426 25.0448 21.085 24.6251C21.744 24.2356 22.6424 24.0259 23.6907 24.0259V24.0259ZM29.861 20.4315C29.0224 21.0604 28.573 21.8393 28.603 22.7378C28.603 24.2054 29.4415 25.2238 31.089 25.7931C30.4901 25.9128 30.0108 26.0629 29.6213 26.3022C29.2321 26.5419 29.0224 26.8114 29.0224 27.1109C29.0224 28.0694 29.861 28.5484 31.5383 28.5484C31.8977 28.5187 32.3769 28.4886 33.006 28.3991C33.6052 28.309 34.0244 28.2794 34.264 28.2794C35.6719 28.2794 36.3608 28.6085 36.3608 29.3274C36.3309 29.6867 36.0614 29.9867 35.522 30.2557C34.9829 30.4954 34.2343 30.6151 33.3055 30.6151C32.2572 30.6151 31.1189 30.2859 29.8909 29.6867L28.7528 30.9447C29.262 31.2447 29.951 31.484 30.8195 31.694C31.603 31.8912 32.4078 31.9917 33.2157 31.9935C34.7134 31.9935 35.9713 31.7533 36.9298 31.2447C37.9185 30.7355 38.3975 30.0762 38.3975 29.2676C38.3975 28.5484 38.0681 27.9497 37.439 27.5301C36.7802 27.1411 35.8516 26.9314 34.7134 26.9314C34.3837 26.9314 33.8748 26.961 33.1858 27.0511C32.5268 27.1411 32.0475 27.1707 31.7181 27.1707C30.9992 27.1707 30.6399 27.0511 30.6399 26.8411C30.6399 26.6616 30.8195 26.5416 31.179 26.4516C31.5087 26.3319 31.778 26.2721 31.9877 26.2721L33.7249 26.1227C34.9231 26.0327 35.9115 25.7031 36.6603 25.0742C37.4091 24.4752 37.7684 23.7264 37.7684 22.8278C37.7684 21.9892 37.4989 21.3002 36.9897 20.7911L38.2178 20.0722L36.87 19.1137L35.8217 20.0423C35.1328 19.7129 34.2343 19.5331 33.0661 19.5331C31.8079 19.5331 30.7297 19.8325 29.861 20.4315V20.4315ZM31.4187 21.3601C31.8979 20.9708 32.4969 20.7611 33.2157 20.7911C33.9047 20.7611 34.4438 20.9708 34.9231 21.3601C35.3724 21.7493 35.612 22.2288 35.612 22.7679C35.612 23.3968 35.4023 23.9062 34.953 24.3256C34.5338 24.7149 33.9648 24.8947 33.2157 24.8947C32.4667 24.8947 31.8677 24.7151 31.4187 24.2957C30.9693 23.9065 30.7297 23.3671 30.7596 22.7682C30.7297 22.2286 30.9693 21.7493 31.4187 21.3601V21.3601ZM42.6208 19.6827H38.9067V21.0008H40.5243V28.5484H42.6208V19.6827V19.6827ZM60.862 23.3669V24.2356H60.9515V23.3669H61.1612V23.307H60.652V23.3669H60.862ZM61.3711 24.2356H61.2811V23.307H61.431L61.6407 24.1157L61.8803 23.307H62V24.2356H61.91V23.3669L61.7003 24.2356H61.6105L61.3711 23.3669V24.2356Z" fill="#333333"></path></svg>