<svg width="50" height="50" viewBox="0 0 50 50" fill="none" xmlns="http://www.w3.org/2000/svg">
<path d="M5 19.0427C6.20147 17.8315 7.39316 16.6203 8.59463 15.4188C10.265 13.7387 11.9451 12.0684 13.6252 10.3883C14.1429 9.87057 14.4164 9.87057 14.9341 10.3883C16.0672 11.5214 17.2002 12.6545 18.3333 13.7875C18.9194 14.3736 18.9292 14.5104 18.4701 15.1648C19.0171 15.7216 19.5446 16.2979 20.1111 16.8352C20.619 17.3138 21.254 17.4505 21.928 17.2552C22.7778 17.011 23.6178 16.8449 24.5067 17.0403C24.6239 17.0696 24.7802 17.0012 24.9072 16.9426C26.3626 16.2686 27.8571 16.2002 29.3321 16.8156C30.3968 17.2552 31.2759 17.0891 32.0476 16.2295C32.2332 16.0244 32.4676 15.8486 32.6728 15.6728C31.9011 14.696 31.9011 14.696 32.7314 13.8657C33.8156 12.7814 34.8999 11.6874 35.9939 10.6032C36.453 10.1441 36.7656 10.1441 37.2149 10.5934C39.7057 13.0745 42.1868 15.5653 44.6679 18.0562C44.7851 18.1734 44.8926 18.3004 45 18.4274C45 18.5543 45 18.6911 45 18.8181C44.8535 18.9939 44.7167 19.1893 44.5507 19.3553C43.4567 20.4591 42.3626 21.5531 41.2686 22.6471C40.5849 23.3309 40.4286 23.3309 39.7057 22.6764C39.6374 22.735 39.5494 22.7937 39.4811 22.862C39.2955 23.0476 39.1197 23.243 38.9243 23.409C37.9182 24.2589 37.2637 25.2845 36.9805 26.6227C36.6191 28.3028 35.6227 29.6996 34.4017 30.9206C34.2747 31.0476 34.1184 31.1453 34.0012 31.2332C34.7241 33.0305 34.3529 33.9683 32.7216 34.6911C32.6435 36.967 31.3932 37.8071 29.3321 36.967C28.5409 38.5495 26.8217 38.6667 25.7277 37.6508C25.4249 38.2564 24.9951 38.735 24.3211 38.8913C23.989 38.9695 23.6276 38.9206 23.2857 38.9499C23.1392 38.9597 22.9536 38.9695 22.8462 39.0574C22.1233 39.6532 21.3126 39.8291 20.4432 39.4774C19.5739 39.1258 19.105 38.442 19.0073 37.5043C18.9976 37.4554 18.9878 37.4066 18.978 37.3284C17.5421 37.1819 16.7509 36.3907 16.6239 34.906C15.6471 34.8571 14.8657 34.4567 14.4554 33.5385C14.0452 32.63 14.221 31.79 14.8071 31.0867C14.221 30.2857 13.6154 29.5433 13.0977 28.7424C12.5214 27.8535 12.16 26.8571 11.9548 25.812C11.8376 25.1868 11.5543 24.6691 11.0855 24.2393C10.7924 23.9658 10.5385 23.6435 10.2845 23.3602C9.55189 23.9365 9.38584 23.9267 8.79976 23.3309C7.81319 22.3443 6.82662 21.3578 5.84982 20.3712C5.56654 20.0879 5.29304 19.7949 5.01954 19.5116C5 19.3553 5 19.199 5 19.0427ZM17.6593 16.0342C15.4322 18.2711 13.3126 20.3907 11.1636 22.5397C11.4078 22.7839 11.6813 23.0672 11.9646 23.3211C12.6093 23.917 13.0098 24.63 13.1856 25.4896C13.5568 27.326 14.4652 28.8596 15.8132 30.1294C15.9304 30.2466 16.1453 30.315 16.3114 30.3053C17.1026 30.2759 17.8156 30.4811 18.2747 31.1355C18.5873 31.5849 18.7436 32.1416 18.9976 32.7082C19.525 32.7082 20.0818 32.9231 20.5507 33.3626C21.0293 33.812 21.2051 34.398 21.2637 35.0427C21.9768 35.0818 22.5531 35.326 23.0122 35.8339C23.4811 36.3614 23.6081 36.9963 23.5983 37.6703C24.1355 37.6801 24.4383 37.475 24.5653 37.0354C24.6825 36.6252 24.4774 36.3321 24.2137 36.0684C22.9438 34.7985 21.674 33.5287 20.4042 32.2589C20.3065 32.1612 20.199 32.0537 20.1209 31.9365C19.9353 31.6435 19.9646 31.3602 20.2088 31.1258C20.4432 30.9011 20.7265 30.9011 21 31.0769C21.1172 31.1551 21.2149 31.2625 21.3126 31.3602C23.0317 33.0794 24.7607 34.8083 26.4799 36.5275C26.5971 36.6447 26.7241 36.7619 26.8608 36.8596C27.398 37.2112 28.0623 36.9084 28.1697 36.2735C28.2381 35.873 28.0232 35.6093 27.7692 35.3553C26.1282 33.7143 24.4872 32.083 22.8559 30.442C22.5238 30.1099 22.5043 29.7094 22.7778 29.4457C23.0513 29.1917 23.4127 29.221 23.7448 29.5336C23.8132 29.5922 23.8718 29.6606 23.9402 29.7289C25.884 31.6728 27.8278 33.6166 29.7717 35.5604C29.8889 35.6777 30.0159 35.7949 30.1526 35.8926C30.6703 36.2247 31.3248 35.9316 31.442 35.326C31.5201 34.9158 31.2955 34.6422 31.0317 34.3687C28.9512 32.2882 26.8706 30.2076 24.79 28.127C24.3309 27.6679 24.243 27.2967 24.5458 26.9939C24.8584 26.6716 25.21 26.7399 25.7082 27.2381C27.6032 29.1331 29.4982 31.0281 31.4029 32.9231C31.5299 33.0501 31.6667 33.1868 31.8132 33.2747C32.3114 33.5873 32.917 33.3431 33.083 32.7766C33.21 32.3468 32.9853 32.0537 32.7118 31.7802C30.1429 29.2112 27.5739 26.6422 25.0049 24.0733C24.9365 24.0049 24.8584 23.9463 24.7411 23.8486C24.3309 24.2686 23.9499 24.6691 23.5592 25.0696C23.2271 25.4017 22.9048 25.7436 22.5433 26.0366C21.4982 26.8767 19.9353 26.7204 19.0659 25.7045C18.1477 24.6398 18.2259 23.1844 19.2711 22.1197C20.4042 20.967 21.5568 19.8339 22.6899 18.6911C22.7875 18.5934 22.8755 18.486 22.9731 18.3883C22.7387 18.3687 22.5238 18.4176 22.3187 18.4762C21.2149 18.7595 20.1795 18.5934 19.3297 17.8217C18.7143 17.265 18.1966 16.6105 17.6593 16.0342ZM33.1807 30.315C34.5189 29.1136 35.525 27.6093 35.9158 25.7729C36.1404 24.7179 36.58 23.8486 37.381 23.1355C37.8694 22.696 38.3187 22.2173 38.7485 21.7875C36.9805 20.0195 35.2515 18.2906 33.5226 16.5617C33.5324 16.5519 33.5128 16.5617 33.4933 16.5812C33.2882 16.7863 33.083 16.9817 32.8877 17.1868C31.7741 18.3199 30.4945 18.6129 29.0098 18.0269C27.1538 17.2943 25.5226 17.6654 24.116 19.072C22.8364 20.3516 21.5568 21.6313 20.2772 22.9109C20.1795 23.0085 20.072 23.116 19.9841 23.2234C19.4176 23.956 19.7595 25.011 20.6581 25.2454C21.1856 25.3822 21.6252 25.1966 21.9963 24.8156C23.061 23.7411 24.1258 22.6764 25.2002 21.6117C25.63 21.1819 25.9719 21.1233 26.2845 21.4164C26.5971 21.7192 26.5482 22.0806 26.0891 22.5201C25.9622 22.6471 25.8059 22.7448 25.6398 22.862C26.3138 23.6044 26.9683 24.1807 27.7595 24.591C28.5214 24.9915 29.293 25.2064 30.1624 24.9035C30.5336 24.7766 30.8657 24.9915 30.9536 25.3333C31.0415 25.6948 30.8852 26.0073 30.4945 26.1148C30.0745 26.232 29.6349 26.3004 29.2735 26.3687C30.5433 27.6777 31.8523 28.9866 33.1807 30.315ZM14.3089 11.6581C11.7497 14.2173 9.19048 16.7766 6.66056 19.3065C7.59829 20.2442 8.57509 21.2112 9.50305 22.1392C12.0427 19.5995 14.602 17.0305 17.1416 14.4908C16.2039 13.5531 15.2271 12.5763 14.3089 11.6581ZM43.3687 18.6716C41.0928 16.3956 38.8266 14.1294 36.5995 11.9023C35.6618 12.84 34.685 13.8168 33.7473 14.7546C35.9939 17.0012 38.2601 19.2772 40.5165 21.5238C41.4542 20.5763 42.431 19.6093 43.3687 18.6716ZM19.9451 35.0134C19.9451 34.4469 19.5153 33.9878 18.9487 33.9878C18.3919 33.978 17.9328 34.4371 17.9328 35.0037C17.9231 35.5702 18.3626 36.0195 18.9389 36.0195C19.5055 36.0195 19.9451 35.5897 19.9451 35.0134ZM21.293 38.3639C21.8596 38.3639 22.2991 37.9243 22.2991 37.348C22.2991 36.7814 21.8498 36.3321 21.2833 36.3321C20.7167 36.3321 20.2772 36.7912 20.2772 37.3578C20.2869 37.9341 20.7265 38.3639 21.293 38.3639ZM16.5458 33.5971C17.1221 33.5873 17.5617 33.1477 17.5519 32.5812C17.5421 32.0147 17.0928 31.5751 16.5262 31.5849C15.9597 31.5946 15.5201 32.044 15.5299 32.6105C15.5299 33.177 15.9695 33.6068 16.5458 33.5971Z" fill="#5FDAFF"/>
<path d="M9.18007 20.3809C8.83819 20.3809 8.56469 20.1074 8.55492 19.7655C8.54515 19.4236 8.84796 19.1111 9.18984 19.1208C9.51218 19.1306 9.80522 19.4139 9.81499 19.746C9.82476 20.0976 9.53172 20.3907 9.18007 20.3809Z" fill="#5FDAFF"/>
<path d="M41.7564 19.1209C41.7662 19.4628 41.5024 19.746 41.1605 19.7558C40.7991 19.7656 40.5061 19.4921 40.4963 19.1404C40.4865 18.7985 40.7991 18.4957 41.141 18.4957C41.4731 18.4957 41.7564 18.779 41.7564 19.1209Z" fill="#5FDAFF"/>
</svg>
