<svg xmlns="http://www.w3.org/2000/svg" width="88" height="25" viewBox="0 0 88 25" fill="none"><g clip-path="url(#clip0_176_2236)"><path d="M22.8608 0H26.8608V25H22.8608V0ZM40.8608 17.025C40.8608 20.851 37.6438 21.156 36.6868 21.156C34.2958 21.156 33.8608 18.918 33.8608 17.568V8H29.8608V17.548C29.8608 19.918 30.6048 21.874 31.9088 23.178C33.0608 24.331 34.7868 24.961 36.6568 24.961C37.9828 24.961 39.8608 24.548 40.8608 23.635V25H44.8608V8H40.8608V17.025ZM52.8608 2H48.8608V8H45.8608V12H48.8608V25H52.8608V12H55.8608V8H52.8608V2ZM68.4578 19.917C67.5868 20.7 66.4368 21.134 65.1748 21.134C62.3928 21.134 60.3498 19.091 60.3498 16.286C60.3498 13.481 62.3278 11.524 65.1748 11.524C66.4148 11.524 67.5868 11.937 68.4798 12.72L69.0868 13.242L71.7838 10.546L71.1088 9.937C69.5218 8.504 67.4148 7.7 65.1738 7.7C60.1738 7.7 56.5428 11.308 56.5428 16.265C56.5428 21.201 60.2608 24.938 65.1738 24.938C67.4568 24.938 69.5858 24.134 71.1528 22.678L71.8048 22.069L69.0658 19.375L68.4578 19.917ZM86.0608 9.482C84.9088 8.33 83.5588 7.7 81.6888 7.7C80.3628 7.7 78.8608 8.113 77.8608 9.025V0H73.8608V25H77.8608V15.635C77.8608 11.809 80.5788 11.505 81.5358 11.505C83.9268 11.505 83.8608 13.744 83.8608 15.092V25H87.8608V15.113C87.8608 12.743 87.3658 10.787 86.0608 9.482Z" fill="white"></path><path d="M65.0429 13.4385C65.8099 13.4385 66.5455 13.7432 67.0878 14.2855C67.6302 14.8279 67.9349 15.5635 67.9349 16.3305C67.9349 17.0975 67.6302 17.8331 67.0878 18.3754C66.5455 18.9178 65.8099 19.2225 65.0429 19.2225C64.2759 19.2225 63.5403 18.9178 62.9979 18.3754C62.4556 17.8331 62.1509 17.0975 62.1509 16.3305C62.1509 15.5635 62.4556 14.8279 62.9979 14.2855C63.5403 13.7432 64.2759 13.4385 65.0429 13.4385Z" fill="#FF3D2E"></path><path d="M17.261 18.7212C15.74 20.2862 13.674 21.1342 11.5 21.1342C7.044 21.1342 3.804 17.6342 3.804 12.8302C3.804 8.0042 7.044 4.5042 11.5 4.5042C13.653 4.5042 15.696 5.3512 17.24 6.8952L17.848 7.5042L20.522 4.8302L19.935 4.2212C17.718 1.9382 14.718 0.700195 11.5 0.700195C4.935 0.700195 0 5.9172 0 12.8512C0 19.7642 4.957 24.9602 11.5 24.9602C14.74 24.9602 17.74 23.7002 19.957 21.4172L20.544 20.8082L17.892 18.0912L17.261 18.7212Z" fill="white"></path></g><defs><clipPath id="clip0_176_2236"><rect width="87.861" height="25" fill="white"></rect></clipPath></defs></svg>