<svg xmlns="http://www.w3.org/2000/svg" width="80" height="50" viewBox="0 0 80 50" fill="none"><path d="M42.2024 23.6828C43.4338 23.2511 44.7076 24.0649 45.0332 25.4945C45.2879 26.6055 44.9907 27.6458 44.5661 28.6649C44.4812 28.8559 44.3821 29.0399 44.2618 29.2876C44.4175 29.2452 44.5307 29.231 44.6227 29.1815C45.0049 28.9904 45.3729 28.7781 45.755 28.5941C46.2858 28.3323 46.583 28.0067 46.6891 27.3698C46.9581 25.7988 47.7153 24.4471 49.1023 23.5059C49.7959 23.0317 50.5885 22.8902 51.4235 23.053C52.1949 23.2016 52.6832 23.8739 52.7752 24.8151C52.8884 26.0394 52.4638 27.0726 51.5014 27.8227C50.8786 28.311 50.1285 28.6436 49.4279 29.0399C49.3005 29.1107 49.1519 29.1461 49.0103 29.2027C49.3288 29.7406 49.8879 29.9812 50.5885 29.8892C51.8128 29.7122 52.8035 29.0541 53.7518 28.3464C53.8367 28.2827 53.858 28.12 53.8863 27.9926C54.226 26.5914 54.5444 25.1831 54.8982 23.7889C55.0256 23.3006 55.6555 23.0388 56.1155 23.2582C56.2428 23.3148 56.349 23.5342 56.3561 23.6757C56.3773 24.4188 56.3632 25.1618 56.3632 26.004C56.6321 25.5086 56.8373 25.084 57.0779 24.6877C57.3893 24.1499 57.7573 23.6545 58.3517 23.3785C58.9887 23.0813 59.3425 23.244 59.3991 23.9163C59.4416 24.4612 59.392 25.0132 59.4062 25.5652C59.4203 26.0677 59.4345 26.5772 59.5194 27.0655C59.5831 27.4689 59.9016 27.7166 60.3262 27.6175C60.8357 27.4972 61.3452 27.3203 61.8194 27.108C62.1661 26.9594 62.4563 26.6055 62.8384 26.9877C63.0932 27.2495 63.0437 27.9713 62.7111 28.2261C61.8052 28.9126 60.7932 29.4079 59.5973 29.3655C58.8967 29.3372 58.4084 28.9338 58.1677 28.3252C57.9201 27.6812 57.7714 26.9947 57.5591 26.28C57.5025 26.4003 57.4318 26.5135 57.3893 26.6409C56.9222 27.9147 56.4622 29.1886 55.981 30.4553C55.8395 30.8304 55.6625 31.2055 55.4361 31.531C55.0398 32.1113 54.5303 32.1396 54.0844 31.5947C53.8721 31.3399 53.766 31.0073 53.6032 30.6818C52.6195 31.5522 51.3881 31.9839 50.0011 31.9485C48.5716 31.9131 47.4888 31.2904 46.7953 30.0307C45.2525 30.8941 43.5824 31.3116 41.9052 31.7291C40.4545 32.083 39.1453 31.8353 37.921 31.0144C37.553 31.2055 37.185 31.4248 36.8028 31.5947C36.5268 31.7221 36.2367 31.8353 35.9395 31.8778C34.885 32.0405 34.2835 31.6584 34.1844 30.6252C34.0924 29.5495 34.1419 28.4596 34.1278 27.3698C34.1278 27.1929 34.1632 27.016 34.1844 26.74C34.0712 26.8815 34.0075 26.9381 33.9792 27.0089C33.5192 28.1412 33.0733 29.2735 32.6133 30.4128C32.493 30.7101 32.3798 31.0215 32.2312 31.3116C32.0189 31.7362 31.6721 31.9131 31.1768 31.8141C30.6318 31.7079 30.2214 31.4248 30.2143 30.9365C30.2072 30.0802 30.278 29.2239 30.3558 28.3676C30.4054 27.8581 30.5186 27.3557 30.6035 26.8532C30.5611 26.8391 30.5186 26.8178 30.4761 26.8037C30.1718 27.4123 29.8605 28.0138 29.5632 28.6224C29.1245 29.507 28.714 30.3987 28.254 31.2762C28.0559 31.6513 27.7445 31.9344 27.235 31.9061C26.6051 31.8707 26.3221 31.5947 26.1097 30.7525C25.8762 30.8728 25.6427 30.979 25.4233 31.1064C24.5528 31.5876 23.6046 31.8141 22.6209 31.8707C21.1135 31.9556 19.9105 31.1135 19.4575 29.6556C19.3585 29.3442 19.1957 29.2523 18.8914 29.2098C18.4102 29.1319 17.9289 29.0399 17.469 28.8843C17.2708 28.8206 16.9736 28.5446 17.0019 28.4313C17.0797 28.0987 17.2637 27.7732 17.4831 27.5114C17.5468 27.4335 17.8865 27.5538 18.0917 27.6104C18.2757 27.66 18.4526 27.7661 18.6437 27.8015C19.2806 27.9218 19.3655 27.8581 19.4717 27.2495C19.6274 26.3224 19.9529 25.4591 20.4978 24.6877C21.1631 23.7394 22.0547 23.2086 23.2861 23.2794C25.3101 23.3926 25.947 25.2185 25.1048 26.6763C24.5033 27.7237 23.5126 28.3464 22.4369 28.8489C22.1892 28.9692 21.9344 29.0683 21.6726 29.1744C21.6655 29.5919 21.8849 29.8609 22.267 29.9104C22.6846 29.9599 23.1163 29.9458 23.5338 29.8821C23.8593 29.8325 24.1636 29.6556 24.4821 29.5424C25.6922 29.1036 26.4494 28.403 26.5131 27.0089C26.5556 25.9969 26.9307 24.9991 27.1783 24.0083C27.3553 23.3148 28.0346 22.9822 28.7069 23.244C29.0608 23.3856 29.1457 23.704 29.0962 24.0296C28.9759 24.9283 28.8343 25.82 28.6928 26.7187C28.6786 26.8391 28.6574 26.9523 28.6999 27.0938C28.7565 27.0089 28.8202 26.924 28.8697 26.832C29.3155 26.0818 29.7402 25.3246 30.2002 24.5886C30.5752 23.9871 31.0918 23.52 31.8137 23.3431C32.394 23.2016 32.7407 23.3785 32.7195 23.9517C32.6912 24.7585 32.5143 25.5582 32.3798 26.3649C32.3444 26.5914 32.2595 26.8107 32.2666 27.0584C32.7832 26.2588 33.2856 25.4591 33.8235 24.6735C34.0995 24.2702 34.4038 23.8668 34.7576 23.5271C35.0832 23.2228 35.5078 23.152 35.9536 23.3643C36.3782 23.5696 36.4419 23.9376 36.3924 24.3126C36.2438 25.5794 36.0315 26.8461 35.8899 28.1129C35.8333 28.5941 35.8828 29.0895 35.9395 29.5778C35.9748 29.875 36.2154 29.967 36.5268 29.8821C37.284 29.6839 37.7228 29.2452 37.8219 28.488C38.0837 26.3861 38.3456 24.2914 38.5862 22.1896C38.8126 20.293 39.3363 18.4955 40.2492 16.797C40.7092 15.9549 41.424 15.4454 42.3086 15.1128C42.9809 14.858 43.5329 15.0349 43.9292 15.6435C44.5519 16.5847 44.6015 17.6392 44.4316 18.7007C44.1627 20.3991 43.3206 21.8641 42.351 23.2723C42.2732 23.3856 42.1954 23.4917 42.1246 23.6049C42.0892 23.6474 42.0609 23.6828 42.0326 23.7253C42.0892 23.7111 42.1458 23.6969 42.2024 23.6828ZM43.0375 27.0231C42.995 26.832 42.9597 26.5064 42.8464 26.2021C42.5634 25.4378 41.6929 25.1406 40.9852 25.5865C40.7305 25.7492 40.4828 25.9969 40.3483 26.2588C39.7963 27.3698 39.5557 28.5587 39.5416 29.7901C39.5345 29.9175 39.6548 30.1156 39.768 30.1652C40.6172 30.5261 41.7424 30.2005 42.2732 29.4646C42.7615 28.771 42.9738 27.9926 43.0375 27.0231ZM39.86 23.6333C39.9025 23.6474 39.9449 23.6616 39.9945 23.6828C40.0582 23.612 40.136 23.5483 40.1855 23.4634C40.8154 22.2957 41.4877 21.1422 42.0538 19.9392C42.3723 19.2598 42.5634 18.5096 42.719 17.7736C42.7757 17.4906 42.5704 17.158 42.4784 16.8466C42.252 17.066 41.976 17.257 41.8132 17.5118C41.0631 18.6441 40.7588 19.9392 40.4332 21.2271C40.2351 22.0268 40.0511 22.8336 39.86 23.6333ZM48.7273 27.66C49.8666 27.7803 51.098 26.6763 51.0131 25.636C50.9989 25.4378 50.9211 25.2255 50.8149 25.0557C50.6026 24.7019 50.2275 24.6169 49.9303 24.8929C49.1094 25.636 48.7626 26.5843 48.7273 27.66ZM21.439 27.752C22.2458 27.6387 22.8686 27.3274 23.3144 26.7754C23.5479 26.4923 23.7249 26.1031 23.7602 25.7492C23.7886 25.4945 23.6116 25.0982 23.3993 24.9779C23.2153 24.8717 22.7907 24.9849 22.5784 25.1406C21.708 25.7634 21.4886 26.6904 21.439 27.752Z" fill="black"></path></svg>