<svg xmlns="http://www.w3.org/2000/svg" width="396" height="250" viewBox="0 0 396 250" fill="none"><path d="M134.312 67.1132V60.9323C134.312 60.3263 133.827 59.8416 133.221 59.8416H131.646C131.161 59.8416 130.737 59.5386 130.676 59.0538C130.131 56.6299 129.161 54.3879 127.889 52.3276C127.646 51.9034 127.707 51.4186 128.01 51.055L129.161 49.9037C129.585 49.4795 129.585 48.7524 129.161 48.3282L124.798 43.9652C124.374 43.5411 123.647 43.5411 123.223 43.9652L122.071 45.1166C121.708 45.4801 121.223 45.4801 120.799 45.2378C118.739 43.9652 116.497 42.9957 114.073 42.4503C113.588 42.3291 113.285 41.9049 113.285 41.4808V39.8446C113.285 39.2387 112.8 38.7539 112.194 38.7539H106.013C105.407 38.7539 104.923 39.2387 104.923 39.8446V41.4202C104.923 41.9049 104.62 42.3291 104.135 42.3897C101.711 42.9351 99.4689 43.9046 97.4086 45.1772C96.9844 45.4196 96.4996 45.359 96.136 45.056L94.9847 43.9046C94.5605 43.4805 93.8334 43.4805 93.4092 43.9046L89.0462 48.2676C88.6221 48.6918 88.6221 49.4189 89.0462 49.8431L90.1976 50.9944C90.5612 51.358 90.5612 51.8428 90.3188 52.267C89.0462 54.3273 88.0767 56.5694 87.5313 58.9932C87.4101 59.478 86.9859 59.781 86.5618 59.781H84.9863C84.3803 59.781 83.8955 60.2657 83.8955 60.8717V67.1132C83.8955 67.7191 84.3803 68.2039 84.9863 68.2039H86.5618C87.0465 68.2039 87.4707 68.5069 87.5313 68.9917C88.0767 71.4156 89.0462 73.6576 90.3188 75.7179C90.5612 76.1421 90.5006 76.6269 90.1976 76.9905L89.0462 78.1418C88.6221 78.566 88.6221 79.2931 89.0462 79.7173L93.4092 84.0803C93.8334 84.5044 94.5605 84.5044 94.9847 84.0803L96.136 82.9289C96.4996 82.5654 96.9844 82.5653 97.4086 82.8077C99.4689 84.0803 101.711 84.9892 104.135 85.5952C104.62 85.7164 104.923 86.1406 104.923 86.5647V88.1402C104.923 88.7462 105.407 89.231 106.013 89.231H112.194C112.8 89.231 113.285 88.7462 113.285 88.1402V86.5041C113.285 86.0194 113.588 85.5952 114.073 85.5346C116.497 84.9892 118.739 84.0197 120.799 82.7471C121.223 82.5048 121.708 82.5654 122.071 82.8683L123.223 84.0197C123.647 84.4438 124.374 84.4438 124.798 84.0197L129.161 79.6567C129.585 79.2325 129.585 78.5054 129.161 78.0812L128.01 76.9299C127.646 76.5663 127.646 76.0815 127.889 75.6573C129.161 73.597 130.131 71.355 130.676 68.9311C130.797 68.4463 131.222 68.1433 131.646 68.1433H133.221C133.827 68.2039 134.312 67.7191 134.312 67.1132ZM109.043 81.4746C99.3477 81.4746 91.5307 73.6576 91.5307 63.9622C91.5307 54.3273 99.3477 46.4497 109.043 46.4497C118.739 46.4497 126.556 54.2667 126.556 63.9622C126.556 73.6576 118.739 81.4746 109.043 81.4746Z" stroke="#D7E8F4" stroke-width="0.7896" stroke-miterlimit="10"></path><path d="M162.853 88.1409V83.8991C162.853 83.475 162.49 83.172 162.126 83.172H161.035C160.732 83.172 160.429 82.9296 160.369 82.6266C160.005 80.9905 159.339 79.415 158.49 78.0212C158.309 77.7183 158.369 77.4153 158.612 77.1729L159.399 76.3851C159.702 76.0822 159.702 75.5974 159.399 75.355L156.43 72.3858C156.127 72.0828 155.642 72.0828 155.4 72.3858L154.612 73.1735C154.37 73.4159 154.006 73.4159 153.764 73.2341C152.37 72.3858 150.855 71.7192 149.158 71.3556C148.855 71.295 148.613 70.992 148.613 70.689V69.5377C148.613 69.1135 148.249 68.8105 147.886 68.8105H143.644C143.22 68.8105 142.917 69.1741 142.917 69.5377V70.6284C142.917 70.9314 142.675 71.2344 142.372 71.295C140.736 71.6586 139.16 72.3252 137.766 73.1735C137.463 73.3553 137.16 73.2947 136.918 73.0523L136.13 72.2646C135.827 71.9616 135.342 71.9616 135.1 72.2646L132.131 75.2338C131.828 75.5368 131.828 76.0216 132.131 76.2639L132.919 77.0517C133.161 77.2941 133.161 77.6577 133.04 77.9001C132.191 79.2938 131.525 80.8087 131.161 82.5054C131.101 82.8084 130.798 83.0508 130.495 83.0508H129.404C128.98 83.0508 128.677 83.4144 128.677 83.7779V88.0197C128.677 88.4439 129.04 88.7469 129.404 88.7469H130.495C130.798 88.7469 131.101 88.9893 131.161 89.2922C131.525 90.9284 132.191 92.5039 133.04 93.8976C133.222 94.2006 133.161 94.5036 132.919 94.746L132.131 95.5337C131.828 95.8367 131.828 96.3215 132.131 96.5639L135.1 99.5331C135.403 99.8361 135.888 99.8361 136.13 99.5331L136.918 98.7453C137.16 98.5029 137.524 98.5029 137.766 98.6241C139.16 99.4725 140.675 100.139 142.372 100.503C142.675 100.563 142.917 100.866 142.917 101.169V102.26C142.917 102.684 143.281 102.987 143.644 102.987H147.886C148.31 102.987 148.613 102.624 148.613 102.26V101.169C148.613 100.866 148.855 100.563 149.158 100.503C150.795 100.139 152.37 99.4725 153.703 98.6241C154.006 98.4424 154.309 98.5029 154.552 98.7453L155.339 99.5331C155.642 99.8361 156.127 99.8361 156.369 99.5331L159.339 96.5639C159.642 96.2609 159.642 95.7761 159.339 95.5337L158.551 94.746C158.309 94.5036 158.309 94.14 158.43 93.8976C159.278 92.5039 159.945 90.989 160.308 89.2922C160.369 88.9893 160.672 88.7469 160.975 88.7469H162.066C162.55 88.8681 162.853 88.5651 162.853 88.1409ZM145.644 97.291C139.402 97.291 134.373 92.2615 134.373 86.02C134.373 79.8392 139.402 74.749 145.644 74.749C151.885 74.749 156.915 79.7786 156.915 86.02C156.915 92.2009 151.885 97.291 145.644 97.291Z" fill="#D7E8F4"></path><path d="M103.75 209.417C104.888 209.417 105.81 208.495 105.81 207.357C105.81 206.219 104.888 205.297 103.75 205.297C102.612 205.297 101.689 206.219 101.689 207.357C101.689 208.495 102.612 209.417 103.75 209.417Z" fill="#587BC9"></path><path d="M280.17 45.1779C280.873 45.1779 281.443 44.6081 281.443 43.9053C281.443 43.2025 280.873 42.6328 280.17 42.6328C279.467 42.6328 278.897 43.2025 278.897 43.9053C278.897 44.6081 279.467 45.1779 280.17 45.1779Z" fill="#587BC9"></path><path d="M91.1681 26.7569C91.1681 27.4841 90.5621 28.0294 89.8956 28.0294C89.1684 28.0294 88.623 27.4235 88.623 26.7569C88.623 26.0297 89.229 25.4844 89.8956 25.4844C90.6227 25.4844 91.1681 26.0297 91.1681 26.7569Z" fill="#587BC9"></path><path d="M119.709 106.017C119.709 106.744 119.103 107.289 118.437 107.289C117.709 107.289 117.164 106.683 117.164 106.017C117.164 105.29 117.77 104.744 118.437 104.744C119.103 104.744 119.709 105.29 119.709 106.017Z" fill="#587BC9"></path><path d="M72.4435 200.185C72.4435 200.912 71.8375 201.457 71.171 201.457C70.4438 201.457 69.8984 200.851 69.8984 200.185C69.8984 199.457 70.5044 198.912 71.171 198.912C71.8981 198.912 72.4435 199.457 72.4435 200.185Z" fill="#587BC9"></path><path d="M283.239 210.292C284.377 210.292 285.299 209.37 285.299 208.232C285.299 207.094 284.377 206.172 283.239 206.172C282.101 206.172 281.179 207.094 281.179 208.232C281.179 209.37 282.101 210.292 283.239 210.292Z" fill="#587BC9"></path><path d="M126.556 23.2417C127.694 23.2417 128.617 22.3192 128.617 21.1814C128.617 20.0435 127.694 19.1211 126.556 19.1211C125.419 19.1211 124.496 20.0435 124.496 21.1814C124.496 22.3192 125.419 23.2417 126.556 23.2417Z" fill="#587BC9"></path><path d="M268.171 114.5C268.171 116.015 266.959 117.227 265.444 117.227C263.929 117.227 262.717 116.015 262.717 114.5C262.717 112.985 263.929 111.773 265.444 111.773C266.959 111.773 268.171 112.985 268.171 114.5Z" fill="#587BC9"></path><path d="M284.182 185.023H280.728C280.486 185.023 280.304 184.841 280.304 184.599V181.205C280.304 180.963 280.486 180.781 280.728 180.781H284.182C284.424 180.781 284.606 180.963 284.606 181.205V184.659C284.606 184.841 284.424 185.023 284.182 185.023Z" fill="#D7E8F4"></path><path d="M289.878 185.023H286.424C286.182 185.023 286 184.841 286 184.599V181.205C286 180.963 286.182 180.781 286.424 180.781H289.878C290.121 180.781 290.302 180.963 290.302 181.205V184.659C290.302 184.841 290.121 185.023 289.878 185.023Z" fill="#D7E8F4"></path><path d="M295.574 185.023H292.12C291.878 185.023 291.696 184.841 291.696 184.599V181.205C291.696 180.963 291.878 180.781 292.12 180.781H295.574C295.817 180.781 295.999 180.963 295.999 181.205V184.659C295.999 184.841 295.817 185.023 295.574 185.023Z" fill="#D7E8F4"></path><path d="M121.326 192.089H117.872C117.63 192.089 117.448 191.907 117.448 191.664V188.21C117.448 187.968 117.63 187.786 117.872 187.786H121.326C121.569 187.786 121.751 187.968 121.751 188.21V191.664C121.751 191.907 121.569 192.089 121.326 192.089Z" fill="#D7E8F4"></path><path d="M127.023 192.089H123.569C123.326 192.089 123.145 191.907 123.145 191.664V188.21C123.145 187.968 123.326 187.786 123.569 187.786H127.023C127.265 187.786 127.447 187.968 127.447 188.21V191.664C127.447 191.907 127.265 192.089 127.023 192.089Z" fill="#D7E8F4"></path><path d="M132.719 192.089H129.265C129.023 192.089 128.841 191.907 128.841 191.664V188.21C128.841 187.968 129.023 187.786 129.265 187.786H132.719C132.961 187.786 133.143 187.968 133.143 188.21V191.664C133.143 191.907 132.961 192.089 132.719 192.089Z" fill="#D7E8F4"></path><path d="M239.024 223.332H156.976C149.826 223.332 144.069 217.514 144.069 210.425V27.9071C144.069 20.7567 149.887 15 156.976 15H238.964C246.114 15 251.871 20.8173 251.871 27.9071V210.425C251.932 217.575 246.114 223.332 239.024 223.332Z" fill="#315EB8"></path><path d="M238.601 220.423H157.401C151.159 220.423 146.069 215.333 146.069 209.092V28.1499C146.069 21.9085 151.159 16.8184 157.401 16.8184H238.601C244.842 16.8184 249.932 21.9085 249.932 28.1499V209.092C249.932 215.333 244.842 220.423 238.601 220.423Z" fill="white"></path><path d="M245.387 27.7856V208.485C245.387 212.727 241.933 216.181 237.691 216.181H158.309C154.067 216.181 150.613 212.727 150.613 208.485V27.7856C150.613 23.5439 154.067 20.0898 158.309 20.0898H171.519C172.246 20.0898 172.913 20.514 173.276 21.1806L174.67 23.968C175.337 25.2406 176.609 26.0889 178.064 26.0889H217.876C219.33 26.0889 220.663 25.3012 221.269 23.968L222.663 21.1806C222.966 20.514 223.693 20.0898 224.42 20.0898H237.63C241.933 20.0898 245.387 23.5439 245.387 27.7856Z" fill="#D7E8F4"></path><path d="M214.725 22.8166H182.669C181.942 22.8166 181.336 22.2107 181.336 21.4835C181.336 20.7564 181.942 20.1504 182.669 20.1504H214.725C215.452 20.1504 216.058 20.7564 216.058 21.4835C216.058 22.2107 215.452 22.8166 214.725 22.8166Z" fill="#D7E8F4"></path><path d="M232.783 209.879H161.4C158.612 209.879 156.31 207.576 156.31 204.789V179.58C156.31 176.793 158.612 174.49 161.4 174.49H232.783C235.57 174.49 237.873 176.793 237.873 179.58V204.789C237.873 207.637 235.57 209.879 232.783 209.879Z" stroke="#698BD1" stroke-miterlimit="10" stroke-linecap="round" stroke-linejoin="round" stroke-dasharray="2.84 2.84"></path><path d="M229.147 123.165H193.759C191.759 123.165 190.123 121.529 190.123 119.529V102.017C190.123 100.017 191.759 98.3809 193.759 98.3809H229.147C231.147 98.3809 232.783 100.017 232.783 102.017V119.529C232.783 121.529 231.147 123.165 229.147 123.165Z" stroke="#698BD1" stroke-miterlimit="10" stroke-linecap="round" stroke-linejoin="round" stroke-dasharray="2.84 2.84"></path><path d="M236.783 168.673H163.642C161.218 168.673 159.279 166.734 159.279 164.31V133.466C159.279 131.043 161.218 129.104 163.642 129.104H236.783C239.206 129.104 241.146 131.043 241.146 133.466V164.31C241.146 166.734 239.206 168.673 236.783 168.673Z" fill="#4B5A9B"></path><path d="M237.873 130.256V161.099C237.873 163.523 235.934 165.462 233.51 165.462H160.673C158.249 165.462 156.31 163.523 156.31 161.099V130.256C156.31 127.832 158.249 125.893 160.673 125.893H233.51C235.873 125.893 237.873 127.832 237.873 130.256Z" fill="#7DB5DB"></path><path d="M184.487 162.251H163.036C161.4 162.251 160.066 160.918 160.066 159.282V137.831C160.066 136.194 161.4 134.861 163.036 134.861H184.487C186.123 134.861 187.456 136.194 187.456 137.831V159.282C187.396 160.918 186.123 162.251 184.487 162.251Z" fill="white"></path><path d="M209.878 138.376H190.971C190.487 138.376 190.062 137.951 190.062 137.467C190.062 136.982 190.487 136.558 190.971 136.558H209.878C210.362 136.558 210.787 136.982 210.787 137.467C210.847 137.951 210.423 138.376 209.878 138.376Z" fill="#ACD0E9"></path><path d="M201.273 142.072H190.971C190.487 142.072 190.062 141.648 190.062 141.163C190.062 140.678 190.487 140.254 190.971 140.254H201.273C201.758 140.254 202.182 140.678 202.182 141.163C202.242 141.648 201.818 142.072 201.273 142.072Z" fill="#ACD0E9"></path><path d="M232.904 142.072H205.091C204.606 142.072 204.182 141.648 204.182 141.163C204.182 140.678 204.606 140.254 205.091 140.254H232.904C233.389 140.254 233.813 140.678 233.813 141.163C233.813 141.648 233.389 142.072 232.904 142.072Z" fill="#ACD0E9"></path><path d="M206.908 145.768H190.971C190.487 145.768 190.062 145.344 190.062 144.859C190.062 144.374 190.487 143.95 190.971 143.95H206.908C207.393 143.95 207.817 144.374 207.817 144.859C207.878 145.344 207.454 145.768 206.908 145.768Z" fill="#ACD0E9"></path><path d="M220.421 145.768H210.423C209.938 145.768 209.514 145.344 209.514 144.859C209.514 144.374 209.938 143.95 210.423 143.95H220.421C220.906 143.95 221.33 144.374 221.33 144.859C221.33 145.344 220.966 145.768 220.421 145.768Z" fill="#ACD0E9"></path><path d="M232.905 145.768H223.694C223.209 145.768 222.785 145.344 222.785 144.859C222.785 144.374 223.209 143.95 223.694 143.95H232.905C233.39 143.95 233.814 144.374 233.814 144.859C233.814 145.344 233.39 145.768 232.905 145.768Z" fill="#ACD0E9"></path><path d="M232.904 149.525H191.032C190.547 149.525 190.123 149.101 190.123 148.616C190.123 148.131 190.547 147.707 191.032 147.707H232.904C233.389 147.707 233.813 148.131 233.813 148.616C233.813 149.101 233.389 149.525 232.904 149.525Z" fill="#ACD0E9"></path><path d="M214.059 153.222H190.971C190.487 153.222 190.062 152.798 190.062 152.313C190.062 151.828 190.487 151.404 190.971 151.404H214.059C214.544 151.404 214.968 151.828 214.968 152.313C214.968 152.798 214.604 153.222 214.059 153.222Z" fill="#ACD0E9"></path><path d="M232.905 153.222H217.756C217.271 153.222 216.847 152.798 216.847 152.313C216.847 151.828 217.271 151.404 217.756 151.404H232.905C233.39 151.404 233.814 151.828 233.814 152.313C233.814 152.798 233.39 153.222 232.905 153.222Z" fill="#ACD0E9"></path><path d="M204.545 156.918H190.971C190.487 156.918 190.062 156.493 190.062 156.009C190.062 155.524 190.487 155.1 190.971 155.1H204.545C205.03 155.1 205.454 155.524 205.454 156.009C205.515 156.493 205.09 156.918 204.545 156.918Z" fill="#ACD0E9"></path><path d="M221.754 156.918H208.18C207.696 156.918 207.271 156.493 207.271 156.009C207.271 155.524 207.696 155.1 208.18 155.1H221.754C222.239 155.1 222.663 155.524 222.663 156.009C222.724 156.493 222.299 156.918 221.754 156.918Z" fill="#ACD0E9"></path><path d="M232.904 156.918H225.026C224.541 156.918 224.117 156.493 224.117 156.009C224.117 155.524 224.541 155.1 225.026 155.1H232.904C233.388 155.1 233.813 155.524 233.813 156.009C233.813 156.493 233.388 156.918 232.904 156.918Z" fill="#ACD0E9"></path><path d="M209.878 160.675H190.971C190.487 160.675 190.062 160.251 190.062 159.766C190.062 159.282 190.487 158.857 190.971 158.857H209.878C210.362 158.857 210.787 159.282 210.787 159.766C210.847 160.251 210.423 160.675 209.878 160.675Z" fill="#ACD0E9"></path><path d="M232.905 138.376H213.999C213.514 138.376 213.09 137.951 213.09 137.467C213.09 136.982 213.514 136.558 213.999 136.558H232.905C233.39 136.558 233.814 136.982 233.814 137.467C233.814 137.951 233.39 138.376 232.905 138.376Z" fill="#ACD0E9"></path><path d="M237.873 130.256V131.528H156.31V130.256C156.31 127.832 158.249 125.893 160.673 125.893H233.51C235.873 125.893 237.873 127.832 237.873 130.256Z" fill="#315EB8"></path><path d="M222.481 128.802C222.481 129.347 222.057 129.832 221.451 129.832C220.845 129.832 220.421 129.408 220.421 128.802C220.421 128.256 220.845 127.771 221.451 127.771C222.057 127.771 222.481 128.256 222.481 128.802Z" fill="#D7E8F4"></path><path d="M227.632 128.802C227.632 129.347 227.207 129.832 226.601 129.832C225.995 129.832 225.571 129.408 225.571 128.802C225.571 128.256 225.995 127.771 226.601 127.771C227.207 127.771 227.632 128.256 227.632 128.802Z" fill="#D7E8F4"></path><path d="M232.783 128.802C232.783 129.347 232.359 129.832 231.753 129.832C231.207 129.832 230.723 129.408 230.723 128.802C230.723 128.256 231.147 127.771 231.753 127.771C232.359 127.832 232.783 128.256 232.783 128.802Z" fill="#D7E8F4"></path><path d="M181.578 123.165H165.46C163.096 123.165 161.097 121.226 161.097 118.802V102.683C161.097 100.32 163.036 98.3203 165.46 98.3203H181.578C183.942 98.3203 185.941 100.259 185.941 102.683V118.802C185.881 121.226 183.942 123.165 181.578 123.165Z" stroke="#587BC9" stroke-width="0.8956" stroke-miterlimit="10"></path><path d="M169.641 107.168L166.065 110.743L169.641 114.318" stroke="#587BC9" stroke-width="1.6716" stroke-miterlimit="10" stroke-linecap="round" stroke-linejoin="round"></path><path d="M177.337 107.168L180.912 110.743L177.337 114.318" stroke="#587BC9" stroke-width="1.6716" stroke-miterlimit="10" stroke-linecap="round" stroke-linejoin="round"></path><path d="M175.155 107.168L171.822 114.318" stroke="#587BC9" stroke-width="1.6716" stroke-miterlimit="10" stroke-linecap="round" stroke-linejoin="round"></path><path d="M237.873 37.7844V88.2614C237.873 90.9883 235.631 93.2304 232.904 93.2304H161.278C158.552 93.2304 156.31 90.9883 156.31 88.2614V37.7844C156.31 35.0575 158.552 32.8154 161.278 32.8154H232.904C235.631 32.8154 237.873 35.0575 237.873 37.7844Z" fill="#ACD0E9"></path><path d="M221.33 60.6288C227.856 60.6288 233.146 55.3385 233.146 48.8125C233.146 42.2865 227.856 36.9961 221.33 36.9961C214.804 36.9961 209.514 42.2865 209.514 48.8125C209.514 55.3385 214.804 60.6288 221.33 60.6288Z" fill="#F0F4FF"></path><path d="M204.242 93.2299H161.278C158.552 93.2299 156.31 90.9878 156.31 88.261V80.3228L175.095 47.7218C176.064 46.025 178.549 46.025 179.518 47.7218L193.698 72.324L204.242 90.5636C204.787 91.4726 204.726 92.4422 204.242 93.2299Z" fill="white"></path><path d="M222.785 93.231H181.7L193.759 72.3252L200.243 61.0542C201.152 59.5392 203.333 59.5392 204.242 61.0542L222.785 93.231Z" fill="#F0F4FF"></path><path d="M286.627 91.4746H318.804C320.864 91.4746 322.561 93.1713 322.561 95.2316V102.806C322.561 104.685 321.167 106.26 319.288 106.503C319.046 106.563 318.804 106.745 318.804 107.048V111.229C318.804 111.472 318.501 111.593 318.379 111.35L315.107 106.745C314.986 106.624 314.865 106.503 314.683 106.503H286.687C284.627 106.503 282.93 104.806 282.93 102.746V95.171C282.87 93.1713 284.566 91.4746 286.627 91.4746Z" stroke="#A3CCE8" stroke-width="0.8956" stroke-miterlimit="10"></path><path d="M313.835 98.9893C313.835 99.6558 314.38 100.201 315.047 100.201C315.713 100.201 316.259 99.6558 316.259 98.9893C316.259 98.3227 315.713 97.7773 315.047 97.7773C314.38 97.7773 313.835 98.3227 313.835 98.9893Z" stroke="#A3CCE8" stroke-width="0.8956" stroke-miterlimit="10"></path><path d="M307.653 98.9893C307.653 99.6558 308.199 100.201 308.865 100.201C309.532 100.201 310.077 99.6558 310.077 98.9893C310.077 98.3227 309.532 97.7773 308.865 97.7773C308.199 97.7773 307.653 98.3227 307.653 98.9893Z" stroke="#A3CCE8" stroke-width="0.8956" stroke-miterlimit="10"></path><path d="M301.474 98.9893C301.474 99.6558 302.019 100.201 302.686 100.201C303.352 100.201 303.898 99.6558 303.898 98.9893C303.898 98.3227 303.352 97.7773 302.686 97.7773C302.019 97.7773 301.474 98.3227 301.474 98.9893Z" stroke="#A3CCE8" stroke-width="0.8956" stroke-miterlimit="10"></path><path d="M295.292 98.9893C295.292 99.6558 295.837 100.201 296.504 100.201C297.17 100.201 297.716 99.6558 297.716 98.9893C297.716 98.3227 297.17 97.7773 296.504 97.7773C295.837 97.7773 295.292 98.3227 295.292 98.9893Z" stroke="#A3CCE8" stroke-width="0.8956" stroke-miterlimit="10"></path><path d="M289.111 98.9893C289.111 99.6558 289.657 100.201 290.323 100.201C290.99 100.201 291.535 99.6558 291.535 98.9893C291.535 98.3227 290.99 97.7773 290.323 97.7773C289.657 97.7773 289.111 98.3227 289.111 98.9893Z" stroke="#A3CCE8" stroke-width="0.8956" stroke-miterlimit="10"></path><path d="M290.349 75.7187H231.752C228.54 75.7187 225.874 73.113 225.874 69.8408C225.874 66.6291 228.48 63.9629 231.752 63.9629H290.349C293.561 63.9629 296.227 66.5685 296.227 69.8408C296.166 73.0524 293.561 75.7187 290.349 75.7187Z" fill="white" stroke="#587BC9" stroke-width="0.8956" stroke-miterlimit="10"></path><path d="M289.44 69.4166C289.44 71.1133 288.046 72.507 286.349 72.507C284.652 72.507 283.259 71.1133 283.259 69.4166C283.259 67.7199 284.652 66.3262 286.349 66.3262C288.046 66.3262 289.44 67.7199 289.44 69.4166Z" stroke="#587BC9" stroke-width="1.6716" stroke-miterlimit="10"></path><path d="M288.531 71.6582L290.289 73.3549" stroke="#587BC9" stroke-width="1.6716" stroke-miterlimit="10" stroke-linecap="round"></path><path d="M201.575 234.845H186.85C184.244 234.845 182.184 232.724 182.184 230.179V215.454C182.184 212.848 184.304 210.788 186.85 210.788H201.575C204.18 210.788 206.241 212.909 206.241 215.454V230.179C206.241 232.785 204.12 234.845 201.575 234.845Z" fill="#0D2D6D"></path><path d="M197.152 234.845H182.427C179.821 234.845 177.761 232.724 177.761 230.179V215.454C177.761 212.848 179.882 210.788 182.427 210.788H197.152C199.757 210.788 201.818 212.909 201.818 215.454V230.179C201.818 232.785 199.757 234.845 197.152 234.845Z" fill="#587BC9"></path><path d="M186.911 218.302L193.819 222.302C194.243 222.544 194.243 223.15 193.819 223.392L186.911 227.392C186.487 227.634 185.941 227.331 185.941 226.846V218.848C186.002 218.363 186.487 217.999 186.911 218.302Z" fill="white"></path><path d="M132.313 180.059H89.1074C87.8348 180.059 86.8047 179.029 86.8047 177.756V155.941C86.8047 154.669 87.8348 153.639 89.1074 153.639H132.313C133.585 153.639 134.616 154.669 134.616 155.941V177.756C134.616 179.029 133.585 180.059 132.313 180.059Z" fill="#0D2D6D"></path><path d="M88.8047 157.153H132.556" stroke="white" stroke-width="0.8956" stroke-miterlimit="10" stroke-linecap="round"></path><path d="M131.404 155.881C131.705 155.881 131.949 155.637 131.949 155.335C131.949 155.034 131.705 154.79 131.404 154.79C131.103 154.79 130.858 155.034 130.858 155.335C130.858 155.637 131.103 155.881 131.404 155.881Z" fill="white"></path><path d="M128.677 155.881C128.978 155.881 129.223 155.637 129.223 155.335C129.223 155.034 128.978 154.79 128.677 154.79C128.376 154.79 128.132 155.034 128.132 155.335C128.132 155.637 128.376 155.881 128.677 155.881Z" fill="white"></path><path d="M125.889 155.881C126.19 155.881 126.434 155.637 126.434 155.335C126.434 155.034 126.19 154.79 125.889 154.79C125.588 154.79 125.344 155.034 125.344 155.335C125.344 155.637 125.588 155.881 125.889 155.881Z" fill="white"></path><path d="M96.9843 160.729H89.5309C89.1067 160.729 88.8037 160.426 88.8037 160.002C88.8037 159.577 89.1067 159.274 89.5309 159.274H96.9843C97.4084 159.274 97.7114 159.577 97.7114 160.002C97.7114 160.426 97.3479 160.729 96.9843 160.729Z" fill="#6589D1"></path><path d="M96.9843 164.122H89.5309C89.1067 164.122 88.8037 163.819 88.8037 163.395C88.8037 162.971 89.1067 162.668 89.5309 162.668H96.9843C97.4084 162.668 97.7114 162.971 97.7114 163.395C97.7114 163.759 97.3479 164.122 96.9843 164.122Z" fill="#6589D1"></path><path d="M96.9843 167.515H89.5309C89.1067 167.515 88.8037 167.212 88.8037 166.788C88.8037 166.364 89.1067 166.061 89.5309 166.061H96.9843C97.4084 166.061 97.7114 166.364 97.7114 166.788C97.7114 167.151 97.3479 167.515 96.9843 167.515Z" fill="#6589D1"></path><path d="M96.9843 170.849H89.5309C89.1067 170.849 88.8037 170.546 88.8037 170.122C88.8037 169.698 89.1067 169.395 89.5309 169.395H96.9843C97.4084 169.395 97.7114 169.698 97.7114 170.122C97.7114 170.546 97.3479 170.849 96.9843 170.849Z" fill="#6589D1"></path><path d="M96.9843 174.241H89.5309C89.1067 174.241 88.8037 173.938 88.8037 173.514C88.8037 173.09 89.1067 172.787 89.5309 172.787H96.9843C97.4084 172.787 97.7114 173.09 97.7114 173.514C97.7114 173.938 97.3479 174.241 96.9843 174.241Z" fill="#6589D1"></path><path d="M96.9843 177.635H89.5309C89.1067 177.635 88.8037 177.332 88.8037 176.908C88.8037 176.484 89.1067 176.181 89.5309 176.181H96.9843C97.4084 176.181 97.7114 176.484 97.7114 176.908C97.7114 177.332 97.3479 177.635 96.9843 177.635Z" fill="#6589D1"></path><path d="M131.829 160.729H99.8336C99.4094 160.729 99.1064 160.426 99.1064 160.002C99.1064 159.577 99.4094 159.274 99.8336 159.274H131.829C132.253 159.274 132.556 159.577 132.556 160.002C132.556 160.426 132.253 160.729 131.829 160.729Z" fill="#3B5FB7"></path><path d="M131.829 164.122H99.8336C99.4094 164.122 99.1064 163.819 99.1064 163.395C99.1064 162.971 99.4094 162.668 99.8336 162.668H131.829C132.253 162.668 132.556 162.971 132.556 163.395C132.556 163.759 132.253 164.122 131.829 164.122Z" fill="#3B5FB7"></path><path d="M131.829 167.515H99.8336C99.4094 167.515 99.1064 167.212 99.1064 166.788C99.1064 166.364 99.4094 166.061 99.8336 166.061H131.829C132.253 166.061 132.556 166.364 132.556 166.788C132.556 167.151 132.253 167.515 131.829 167.515Z" fill="#3B5FB7"></path><path d="M131.829 170.849H99.8336C99.4094 170.849 99.1064 170.546 99.1064 170.122C99.1064 169.698 99.4094 169.395 99.8336 169.395H131.829C132.253 169.395 132.556 169.698 132.556 170.122C132.556 170.546 132.253 170.849 131.829 170.849Z" fill="#3B5FB7"></path><path d="M131.829 174.241H99.8336C99.4094 174.241 99.1064 173.938 99.1064 173.514C99.1064 173.09 99.4094 172.787 99.8336 172.787H131.829C132.253 172.787 132.556 173.09 132.556 173.514C132.556 173.938 132.253 174.241 131.829 174.241Z" fill="#3B5FB7"></path><path d="M131.829 177.635H99.8336C99.4094 177.635 99.1064 177.332 99.1064 176.908C99.1064 176.484 99.4094 176.181 99.8336 176.181H131.829C132.253 176.181 132.556 176.484 132.556 176.908C132.556 177.332 132.253 177.635 131.829 177.635Z" fill="#3B5FB7"></path><path d="M117.763 124.149H102.413C100.134 124.149 98.2852 122.3 98.2852 120.021V104.671C98.2852 102.392 100.134 100.543 102.413 100.543H117.763C120.042 100.543 121.891 102.392 121.891 104.671V120.021C121.848 122.3 119.999 124.149 117.763 124.149Z" fill="#0D2D6D"></path><path d="M116.731 122.084H99.7473C97.9414 122.084 96.4365 120.622 96.4365 118.773V101.789C96.4365 99.9834 97.8984 98.4785 99.7473 98.4785H116.731C118.537 98.4785 120.042 99.9404 120.042 101.789V118.773C120.042 120.622 118.537 122.084 116.731 122.084Z" fill="#587BC9" stroke="#D7E8F4" stroke-miterlimit="10"></path><path d="M112.345 107.594H112.216V106.262C112.216 104.026 110.41 102.22 108.217 102.22C105.981 102.22 104.219 104.026 104.219 106.262V107.594H104.133C103.531 107.594 103.015 108.11 103.015 108.712V113.786C103.015 114.388 103.531 114.904 104.133 114.904H112.302C112.904 114.904 113.42 114.388 113.42 113.786V108.712C113.463 108.11 112.947 107.594 112.345 107.594ZM105.165 106.262C105.165 104.628 106.497 103.252 108.174 103.252C109.808 103.252 111.184 104.585 111.184 106.262V107.594H105.165V106.262Z" fill="#D7E8F4"></path><path d="M109.55 110.217C109.55 109.4 108.819 108.755 107.96 108.927C107.444 109.013 107.057 109.443 106.928 109.916C106.799 110.518 107.1 111.077 107.53 111.335C107.616 111.378 107.659 111.507 107.659 111.593L107.444 112.453C107.315 112.969 107.702 113.442 108.218 113.442C108.733 113.442 109.12 112.969 108.991 112.453L108.776 111.636C108.733 111.55 108.819 111.421 108.905 111.378C109.292 111.12 109.55 110.733 109.55 110.217Z" fill="#587BC9"></path><path d="M112.991 116.753H103.532C103.274 116.753 103.059 116.538 103.059 116.28C103.059 116.022 103.274 115.807 103.532 115.807H112.991C113.249 115.807 113.464 116.022 113.464 116.28C113.464 116.538 113.249 116.753 112.991 116.753Z" fill="#D7E8F4"></path><path d="M112.991 118.387H103.532C103.274 118.387 103.059 118.172 103.059 117.914C103.059 117.656 103.274 117.441 103.532 117.441H112.991C113.249 117.441 113.464 117.656 113.464 117.914C113.464 118.172 113.249 118.387 112.991 118.387Z" fill="#D7E8F4"></path><path d="M281.361 163.465H268.636C266.757 163.465 265.242 161.95 265.242 160.072V147.347C265.242 145.468 266.757 143.953 268.636 143.953H281.361C283.239 143.953 284.754 145.468 284.754 147.347V160.072C284.754 161.95 283.239 163.465 281.361 163.465Z" fill="#0D2D6D"></path><path d="M280.513 161.768H266.394C264.879 161.768 263.667 160.556 263.667 159.041V144.983C263.667 143.468 264.879 142.256 266.394 142.256H280.513C282.028 142.256 283.24 143.468 283.24 144.983V159.102C283.24 160.556 282.028 161.768 280.513 161.768Z" fill="#587BC9" stroke="#D7E8F4" stroke-miterlimit="10"></path><path d="M269.486 157.83C269.425 157.83 269.365 157.83 269.304 157.83C269.001 157.769 268.819 157.406 268.88 157.103L271.849 146.619C271.91 146.316 272.273 146.135 272.576 146.195C272.879 146.256 273.061 146.619 273 146.922L270.031 157.406C270.031 157.648 269.789 157.83 269.486 157.83Z" fill="white"></path><path d="M274.454 157.83C274.393 157.83 274.332 157.83 274.272 157.83C273.969 157.769 273.787 157.406 273.848 157.103L276.817 146.619C276.877 146.316 277.241 146.135 277.544 146.195C277.847 146.256 278.029 146.619 277.968 146.922L274.999 157.406C274.938 157.648 274.696 157.83 274.454 157.83Z" fill="white"></path><path d="M278.696 150.255H268.212C267.849 150.255 267.606 150.013 267.606 149.649C267.606 149.285 267.849 149.043 268.212 149.043H278.696C279.059 149.043 279.302 149.285 279.302 149.649C279.302 150.013 279.059 150.255 278.696 150.255Z" fill="white"></path><path d="M278.696 155.042H268.212C267.849 155.042 267.606 154.8 267.606 154.436C267.606 154.072 267.849 153.83 268.212 153.83H278.696C279.059 153.83 279.302 154.072 279.302 154.436C279.302 154.739 279.059 155.042 278.696 155.042Z" fill="white"></path><path d="M73.1709 223.998C72.2014 223.998 71.2318 224.24 70.4441 224.725C70.1411 221.877 67.7172 219.695 64.8086 219.695C61.6575 219.695 59.1731 222.24 59.1731 225.331C59.1731 225.513 59.1731 225.755 59.2337 225.937C58.9913 225.876 58.6883 225.876 58.4459 225.876C56.0826 225.876 54.1436 227.815 54.1436 230.179C54.1436 232.542 56.0826 234.481 58.4459 234.481H73.1709C76.0796 234.481 78.4428 232.118 78.4428 229.209C78.4428 226.361 76.0796 223.998 73.1709 223.998Z" fill="white"></path><path d="M1 234.603H395" stroke="white" stroke-width="1.1144" stroke-miterlimit="10" stroke-linecap="round"></path></svg>