<svg xmlns="http://www.w3.org/2000/svg" width="80" height="50" viewBox="0 0 80 50" fill="none"><path d="M35.832 27.28L33 29.32C33.384 30.12 33.92 30.856 34.608 31.528C35.296 32.2 36.104 32.736 37.032 33.136C37.976 33.52 38.992 33.712 40.08 33.712C40.864 33.712 41.624 33.592 42.36 33.352C43.112 33.128 43.776 32.792 44.352 32.344C44.944 31.896 45.408 31.344 45.744 30.688C46.096 30.016 46.272 29.256 46.272 28.408C46.272 27.704 46.16 27.08 45.936 26.536C45.712 25.992 45.4 25.512 45 25.096C44.616 24.68 44.168 24.328 43.656 24.04C43.144 23.736 42.592 23.472 42 23.248C41.216 22.976 40.544 22.72 39.984 22.48C39.44 22.24 39.016 21.976 38.712 21.688C38.424 21.4 38.28 21.064 38.28 20.68C38.28 20.312 38.432 20.008 38.736 19.768C39.04 19.512 39.48 19.384 40.056 19.384C40.488 19.384 40.888 19.472 41.256 19.648C41.64 19.808 41.984 20.04 42.288 20.344C42.608 20.632 42.888 20.976 43.128 21.376L46.224 19.648C45.936 19.072 45.52 18.504 44.976 17.944C44.432 17.384 43.744 16.92 42.912 16.552C42.096 16.184 41.128 16 40.008 16C38.92 16 37.928 16.192 37.032 16.576C36.152 16.944 35.448 17.488 34.92 18.208C34.408 18.928 34.152 19.784 34.152 20.776C34.152 21.608 34.304 22.32 34.608 22.912C34.912 23.488 35.296 23.984 35.76 24.4C36.224 24.8 36.712 25.128 37.224 25.384C37.752 25.64 38.216 25.84 38.616 25.984C39.432 26.288 40.088 26.56 40.584 26.8C41.08 27.04 41.44 27.296 41.664 27.568C41.888 27.824 42 28.168 42 28.6C42 29.112 41.808 29.52 41.424 29.824C41.04 30.112 40.552 30.256 39.96 30.256C39.4 30.256 38.864 30.136 38.352 29.896C37.856 29.656 37.392 29.312 36.96 28.864C36.544 28.416 36.168 27.888 35.832 27.28Z" fill="#000811"></path></svg>