<svg xmlns="http://www.w3.org/2000/svg" width="321" height="250" viewBox="0 0 321 250" fill="none"><path d="M43.8916 45.8076V134.159C43.8916 138.555 47.4257 142.089 51.8217 142.089H161.206C165.602 142.089 169.136 138.555 169.136 134.159V45.8076C169.136 41.4116 165.602 37.8775 161.206 37.8775H51.9079C47.5119 37.7913 43.8916 41.4116 43.8916 45.8076ZM161.292 137.952H51.7355C50.0978 137.952 48.8048 136.659 48.8048 135.021V44.8594C48.8048 43.2217 50.0978 41.9287 51.7355 41.9287H161.292C162.929 41.9287 164.222 43.2217 164.222 44.8594V135.021C164.222 136.659 162.929 137.952 161.292 137.952Z" fill="#0D2D6D"></path><path d="M243.438 189.756C233.525 189.756 225.423 197.858 225.423 207.771C225.423 217.684 233.525 225.786 243.438 225.786C253.351 225.786 261.453 217.684 261.453 207.771C261.453 197.858 253.351 189.756 243.438 189.756ZM243.438 221.39C235.939 221.39 229.905 215.356 229.905 207.857C229.905 200.358 235.939 194.324 243.438 194.324C250.937 194.324 256.971 200.358 256.971 207.857C256.971 215.356 250.937 221.39 243.438 221.39Z" fill="#315EB8"></path><path d="M244.816 87.6133V202.255C244.816 205.186 242.402 207.599 239.472 207.599H64.6645C61.7338 207.599 59.3203 205.186 59.3203 202.255V87.6133C59.3203 80.8037 64.8369 75.2871 71.6465 75.2871H232.49C239.299 75.2871 244.816 80.8037 244.816 87.6133Z" fill="#D7E8F4" stroke="#315EB8" stroke-miterlimit="10"></path><path d="M244.816 87.6133V88.1304H59.4062V87.6133C59.4062 80.8037 64.9229 75.2871 71.7324 75.2871H232.576C239.299 75.2871 244.816 80.8037 244.816 87.6133Z" fill="#0D2D6D"></path><path d="M91.8162 97.8706H69.5774C68.112 97.8706 66.9053 96.6638 66.9053 95.1985C66.9053 93.7331 68.112 92.5264 69.5774 92.5264H91.8162C93.2815 92.5264 94.4883 93.7331 94.4883 95.1985C94.4883 96.6638 93.2815 97.8706 91.8162 97.8706Z" fill="white"></path><path d="M174.05 97.2671H164.223C163.361 97.2671 162.672 96.5776 162.672 95.7156C162.672 94.8536 163.361 94.1641 164.223 94.1641H174.05C174.912 94.1641 175.601 94.8536 175.601 95.7156C175.601 96.5776 174.912 97.2671 174.05 97.2671Z" fill="white"></path><path d="M192.582 97.2671H182.756C181.894 97.2671 181.204 96.5776 181.204 95.7156C181.204 94.8536 181.894 94.1641 182.756 94.1641H192.582C193.444 94.1641 194.134 94.8536 194.134 95.7156C194.22 96.5776 193.444 97.2671 192.582 97.2671Z" fill="white"></path><path d="M211.46 97.2671H201.634C200.772 97.2671 200.082 96.5776 200.082 95.7156C200.082 94.8536 200.772 94.1641 201.634 94.1641H211.46C212.322 94.1641 213.012 94.8536 213.012 95.7156C213.012 96.5776 212.322 97.2671 211.46 97.2671Z" fill="white"></path><path d="M229.992 97.2671H220.166C219.304 97.2671 218.614 96.5776 218.614 95.7156C218.614 94.8536 219.304 94.1641 220.166 94.1641H229.992C230.854 94.1641 231.544 94.8536 231.544 95.7156C231.544 96.5776 230.854 97.2671 229.992 97.2671Z" fill="white"></path><path d="M150.113 175.092H77.8871C76.8578 175.092 76 174.038 76 172.774V116.41C76 115.145 76.8578 114.092 77.8871 114.092H150.113C151.142 114.092 152 115.145 152 116.41V172.879C151.914 174.038 151.142 175.092 150.113 175.092Z" fill="white"></path><path d="M210.423 121.833H169.221C168.445 121.833 167.756 121.144 167.756 120.368V115.369C167.756 114.593 168.445 113.903 169.221 113.903H210.423C211.199 113.903 211.889 114.593 211.889 115.369V120.368C211.889 121.23 211.199 121.833 210.423 121.833Z" fill="white"></path><path d="M198.613 131.401H169.134C168.358 131.401 167.755 130.798 167.755 130.022C167.755 129.246 168.358 128.643 169.134 128.643H198.613C199.389 128.643 199.993 129.246 199.993 130.022C200.079 130.711 199.389 131.401 198.613 131.401Z" fill="white"></path><path d="M228.179 138.124H169.134C168.358 138.124 167.755 137.52 167.755 136.744C167.755 135.969 168.358 135.365 169.134 135.365H228.179C228.955 135.365 229.558 135.969 229.558 136.744C229.558 137.52 228.955 138.124 228.179 138.124Z" fill="white"></path><path d="M228.179 144.848H169.134C168.358 144.848 167.755 144.245 167.755 143.469C167.755 142.693 168.358 142.09 169.134 142.09H228.179C228.955 142.09 229.558 142.693 229.558 143.469C229.558 144.245 228.955 144.848 228.179 144.848Z" fill="white"></path><path d="M228.179 151.657H169.134C168.358 151.657 167.755 151.053 167.755 150.278C167.755 149.502 168.358 148.898 169.134 148.898H228.179C228.955 148.898 229.558 149.502 229.558 150.278C229.558 150.967 228.955 151.657 228.179 151.657Z" fill="white"></path><path d="M228.179 158.416H169.134C168.358 158.416 167.755 157.812 167.755 157.036C167.755 156.261 168.358 155.657 169.134 155.657H228.179C228.955 155.657 229.558 156.261 229.558 157.036C229.558 157.726 228.955 158.416 228.179 158.416Z" fill="white"></path><path d="M187.754 173.126H170.773C169.135 173.126 167.756 171.746 167.756 170.109C167.756 168.471 169.135 167.092 170.773 167.092H187.754C189.391 167.092 190.77 168.471 190.77 170.109C190.77 171.746 189.391 173.126 187.754 173.126Z" fill="#0D2D6D"></path><path d="M245 195.092V205.283C245 206.824 242.58 208.092 239.641 208.092H64.3587C61.4201 208.092 59 206.824 59 205.283V195.092H245Z" fill="#7DB5DB"></path><path d="M216.631 82.2686C216.631 83.1306 215.941 83.9063 214.993 83.9063C214.131 83.9063 213.355 83.2168 213.355 82.2686C213.355 81.4066 214.045 80.6309 214.993 80.6309C215.941 80.6309 216.631 81.4066 216.631 82.2686Z" fill="#7DB5DB"></path><path d="M225.423 82.2686C225.423 83.1306 224.733 83.9063 223.785 83.9063C222.923 83.9063 222.147 83.2168 222.147 82.2686C222.147 81.4066 222.837 80.6309 223.785 80.6309C224.733 80.6309 225.423 81.4066 225.423 82.2686Z" fill="#7DB5DB"></path><path d="M233.87 82.2686C233.87 83.1306 233.181 83.9063 232.232 83.9063C231.371 83.9063 230.595 83.2168 230.595 82.2686C230.595 81.4066 231.284 80.6309 232.232 80.6309C233.094 80.6309 233.87 81.4066 233.87 82.2686Z" fill="#7DB5DB"></path><path d="M244.816 87.6133V202.255C244.816 205.186 242.402 207.599 239.472 207.599H64.6645C61.7338 207.599 59.3203 205.186 59.3203 202.255V87.6133C59.3203 80.8037 64.8369 75.2871 71.6465 75.2871H232.49C239.299 75.2871 244.816 80.8037 244.816 87.6133Z" stroke="#7DB5DB" stroke-miterlimit="10"></path><path d="M10.5451 214.273C10.5451 215 9.9391 215.545 9.27254 215.545C8.54537 215.545 8 214.939 8 214.273C8 213.545 8.60597 213 9.27254 213C9.9997 213 10.5451 213.545 10.5451 214.273Z" fill="#587BC9"></path><path d="M23.5451 38.2725C23.5451 38.9997 22.9391 39.5451 22.2725 39.5451C21.5454 39.5451 21 38.9391 21 38.2725C21 37.5454 21.606 37 22.2725 37C22.9997 37 23.5451 37.5454 23.5451 38.2725Z" fill="#587BC9"></path><path d="M320.545 65.2725C320.545 65.9997 319.939 66.5451 319.273 66.5451C318.545 66.5451 318 65.9391 318 65.2725C318 64.5454 318.606 64 319.273 64C320 64 320.545 64.5454 320.545 65.2725Z" fill="#587BC9"></path><path d="M35.9333 202.121C37.0712 202.121 37.9936 201.198 37.9936 200.06C37.9936 198.922 37.0712 198 35.9333 198C34.7955 198 33.873 198.922 33.873 200.06C33.873 201.198 34.7955 202.121 35.9333 202.121Z" fill="#587BC9"></path><path d="M292.06 186.121C293.198 186.121 294.121 185.198 294.121 184.06C294.121 182.922 293.198 182 292.06 182C290.922 182 290 182.922 290 184.06C290 185.198 290.922 186.121 292.06 186.121Z" fill="#587BC9"></path><path d="M296.06 42.1206C297.198 42.1206 298.121 41.1982 298.121 40.0603C298.121 38.9224 297.198 38 296.06 38C294.922 38 294 38.9224 294 40.0603C294 41.1982 294.922 42.1206 296.06 42.1206Z" fill="#587BC9"></path><path opacity="0.7" d="M85.9736 127.953H14.8612C13.6545 127.953 12.6201 126.919 12.6201 125.712V72.3564C12.6201 71.1496 13.6545 70.1152 14.8612 70.1152H85.9736C87.1804 70.1152 88.2148 71.1496 88.2148 72.3564V125.712C88.2148 126.919 87.2666 127.953 85.9736 127.953Z" fill="#ACD0E9"></path><path d="M79.5946 64.3407V117.61C79.5946 118.817 78.5603 119.852 77.3535 119.852H6.2411C5.03434 119.852 4 118.903 4 117.61V64.3407C4 63.134 5.03434 62.0996 6.2411 62.0996H77.3535C78.5603 62.0996 79.5946 63.134 79.5946 64.3407Z" fill="#315EB8"></path><path d="M79.5946 98.3022V117.61C79.5946 118.817 78.5603 119.851 77.3535 119.851H6.2411C5.03434 119.851 4 118.903 4 117.61V98.9917C4 98.9917 16.1537 78.0459 24.7734 78.0459C35.4618 78.0459 41.5818 102.44 46.926 102.44C52.2702 102.44 59.166 85.6312 66.2341 85.6312C70.4578 85.7174 75.8882 92.6994 79.5946 98.3022Z" fill="#F0F4FF"></path><path d="M69.8548 74.0812C69.8548 76.8395 67.6136 78.9944 64.9415 78.9944C62.1832 78.9944 60.0283 76.7533 60.0283 74.0812C60.0283 71.3229 62.2694 69.168 64.9415 69.168C67.6136 69.168 69.8548 71.3229 69.8548 74.0812Z" fill="#F0F4FF"></path><path opacity="0.7" d="M264.814 175.189H223.698C222.922 175.189 222.232 174.585 222.232 173.724V117.782C222.232 117.006 222.836 116.316 223.698 116.316H264.814C265.589 116.316 266.279 116.92 266.279 117.782V173.724C266.279 174.499 265.589 175.189 264.814 175.189Z" fill="#ACD0E9"></path><path d="M272.055 168.638H230.939C230.163 168.638 229.474 168.035 229.474 167.173V111.231C229.474 110.455 230.077 109.766 230.939 109.766H272.055C272.831 109.766 273.52 110.369 273.52 111.231V167.173C273.52 167.949 272.831 168.638 272.055 168.638Z" fill="#0D2D6D"></path><path d="M265.849 116.23H237.146V120.109H265.849V116.23Z" fill="#D7E8F4"></path><path d="M257.487 162.346H245.506C244.299 162.346 243.351 161.398 243.351 160.191C243.351 158.984 244.299 158.036 245.506 158.036H257.487C258.694 158.036 259.642 158.984 259.642 160.191C259.642 161.398 258.694 162.346 257.487 162.346Z" fill="#ACD0E9"></path><path d="M252.317 127.609H240.68C240.249 127.609 239.818 127.264 239.818 126.747V126.575C239.818 126.144 240.163 125.713 240.68 125.713H252.317C252.748 125.713 253.179 126.058 253.179 126.575V126.747C253.093 127.178 252.748 127.609 252.317 127.609Z" fill="#D7E8F4"></path><path d="M267.402 132.092H240.594C240.163 132.092 239.732 131.747 239.732 131.23V131.057C239.732 130.626 240.077 130.195 240.594 130.195H267.402C267.833 130.195 268.264 130.54 268.264 131.057V131.23C268.177 131.747 267.833 132.092 267.402 132.092Z" fill="#D7E8F4"></path><path d="M267.402 136.574H240.594C240.163 136.574 239.732 136.229 239.732 135.712V135.54C239.732 135.109 240.077 134.678 240.594 134.678H267.402C267.833 134.678 268.264 135.023 268.264 135.54V135.712C268.177 136.229 267.833 136.574 267.402 136.574Z" fill="#D7E8F4"></path><path d="M235.164 126.661C235.164 127.178 234.733 127.609 234.216 127.609C233.699 127.609 233.268 127.178 233.268 126.661C233.268 126.144 233.699 125.713 234.216 125.713C234.733 125.713 235.164 126.144 235.164 126.661Z" fill="#D7E8F4"></path><path d="M252.317 142.521H240.68C240.249 142.521 239.818 142.177 239.818 141.659V141.487C239.818 141.056 240.163 140.625 240.68 140.625H252.317C252.748 140.625 253.179 140.97 253.179 141.487V141.659C253.093 142.177 252.748 142.521 252.317 142.521Z" fill="#D7E8F4"></path><path d="M267.402 147.09H240.594C240.163 147.09 239.732 146.745 239.732 146.228V146.055C239.732 145.624 240.077 145.193 240.594 145.193H267.402C267.833 145.193 268.264 145.538 268.264 146.055V146.228C268.177 146.659 267.833 147.09 267.402 147.09Z" fill="#D7E8F4"></path><path d="M267.402 151.572H240.594C240.163 151.572 239.732 151.227 239.732 150.71V150.538C239.732 150.107 240.077 149.676 240.594 149.676H267.402C267.833 149.676 268.264 150.021 268.264 150.538V150.71C268.177 151.227 267.833 151.572 267.402 151.572Z" fill="#D7E8F4"></path><path d="M235.164 141.659C235.164 142.176 234.733 142.607 234.216 142.607C233.699 142.607 233.268 142.176 233.268 141.659C233.268 141.142 233.699 140.711 234.216 140.711C234.733 140.711 235.164 141.142 235.164 141.659Z" fill="#D7E8F4"></path><path d="M292.828 108.559L271.796 125.884C271.624 126.057 271.451 126.143 271.279 126.229C270.848 126.488 270.331 126.746 269.813 126.919L266.366 127.867C265.935 127.953 265.59 127.522 265.762 127.177L267.314 123.988C267.572 123.557 267.831 123.126 268.176 122.695C268.348 122.523 268.52 122.35 268.693 122.264L289.639 105.025C290.587 104.249 292.052 104.249 292.914 105.197C293.949 106.232 293.862 107.697 292.828 108.559Z" fill="#ACD0E9"></path><path d="M271.279 126.315C270.848 126.574 270.331 126.832 269.813 127.005L267.831 127.608L266.366 127.953C265.935 128.039 265.59 127.608 265.762 127.263L266.452 125.971L267.4 124.074C267.658 123.643 267.917 123.212 268.262 122.781C269.124 123.04 270.848 123.816 271.279 126.315Z" fill="white"></path><path d="M267.831 127.522L266.366 127.953C265.935 128.039 265.59 127.608 265.762 127.264L266.452 125.971C267.141 125.971 268.003 126.315 267.831 127.522Z" fill="#ACD0E9"></path><path d="M204.562 32.0162V68.5637C204.562 70.46 203.011 72.0116 201.115 72.0116H147.672C145.776 72.0116 144.225 70.46 144.225 68.5637V32.0162C144.225 30.1199 145.776 28.5684 147.672 28.5684H201.115C203.011 28.5684 204.562 30.1199 204.562 32.0162Z" fill="#E9E1F4"></path><path d="M200.167 27.4479V63.9954C200.167 65.8917 198.615 67.4432 196.719 67.4432H143.277C141.381 67.4432 139.829 65.8917 139.829 63.9954V27.4479C139.829 25.5515 141.381 24 143.277 24H196.719C198.615 24 200.167 25.5515 200.167 27.4479Z" fill="#315EB8"></path><path d="M200.167 59.082V63.9953C200.167 65.8916 198.615 67.4431 196.719 67.4431H143.277C141.381 67.4431 139.829 65.8916 139.829 63.9953V59.082H200.167Z" fill="#0D2D6D"></path><path d="M171.895 63.6498C171.895 64.0808 171.981 64.4256 172.24 64.7704H145.26C144.657 64.7704 144.14 64.2532 144.14 63.6498C144.14 63.0465 144.657 62.5293 145.26 62.5293H172.24C171.981 62.8741 171.895 63.2189 171.895 63.6498Z" fill="#315EB8"></path><path d="M181.204 63.6498C181.204 64.2532 180.687 64.7704 180.084 64.7704H172.153C171.981 64.4256 171.809 64.0808 171.809 63.6498C171.809 63.2189 171.895 62.8741 172.153 62.5293H180.084C180.687 62.5293 181.204 63.0465 181.204 63.6498Z" fill="#587BC9"></path><path d="M175.774 63.6505C175.774 64.0815 175.687 64.4263 175.429 64.771C175.084 65.2882 174.481 65.633 173.791 65.633C173.102 65.633 172.498 65.2882 172.153 64.771C171.981 64.4263 171.809 64.0815 171.809 63.6505C171.809 63.2195 171.895 62.8747 172.153 62.5299C172.498 62.0128 173.102 61.668 173.791 61.668C174.481 61.668 175.084 62.0128 175.429 62.5299C175.601 62.8747 175.774 63.2195 175.774 63.6505Z" fill="white"></path><path d="M174.739 63.6513C174.739 64.1685 174.308 64.5995 173.791 64.5995C173.274 64.5995 172.843 64.1685 172.843 63.6513C172.843 63.1341 173.274 62.7031 173.791 62.7031C174.308 62.7031 174.739 63.1341 174.739 63.6513Z" fill="#315EB8"></path><path d="M189.393 64.5991V62.7889C189.393 62.5303 189.651 62.3579 189.824 62.5303L191.634 63.4785C191.892 63.5647 191.892 63.9095 191.634 64.0819L189.824 65.03C189.651 65.03 189.393 64.8576 189.393 64.5991Z" fill="#587BC9"></path><path d="M194.22 64.2545V63.1339C194.22 62.9615 194.306 62.8754 194.478 62.9616L195.34 63.4787C195.426 63.5649 195.426 63.7373 195.34 63.8235L194.478 64.3407C194.392 64.5131 194.22 64.4269 194.22 64.2545Z" fill="#587BC9"></path><path d="M195.427 64.2545V63.1339C195.427 62.9615 195.513 62.8754 195.685 62.9616L196.547 63.4787C196.634 63.5649 196.634 63.7373 196.547 63.8235L195.685 64.3407C195.599 64.5131 195.427 64.4269 195.427 64.2545Z" fill="#587BC9"></path><path d="M187.152 64.2545V63.1339C187.152 62.9615 187.066 62.8754 186.893 62.9616L186.031 63.4787C185.945 63.5649 185.945 63.7373 186.031 63.8235L186.893 64.3407C186.98 64.5131 187.152 64.4269 187.152 64.2545Z" fill="#587BC9"></path><path d="M185.945 64.2545V63.1339C185.945 62.9615 185.859 62.8754 185.686 62.9616L184.824 63.4787C184.738 63.5649 184.738 63.7373 184.824 63.8235L185.686 64.3407C185.773 64.5131 185.945 64.4269 185.945 64.2545Z" fill="#587BC9"></path><path d="M180.545 44.5606C181.92 38.7706 178.34 32.9626 172.55 31.588C166.76 30.2134 160.952 33.7927 159.578 39.5827C158.203 45.3727 161.783 51.1807 167.573 52.5554C173.363 53.93 179.171 50.3506 180.545 44.5606Z" fill="#FBF8FF"></path><path d="M167.153 45.3772V38.74C167.153 38.0504 167.929 37.5333 168.619 37.9642L173.704 41.2397C174.221 41.5845 174.221 42.4465 173.704 42.7913L168.619 46.0667C168.015 46.5839 167.153 46.0667 167.153 45.3772Z" fill="#315EB8"></path><path d="M34.2374 152.002C33.3754 152.002 32.5996 151.312 32.5996 150.364C32.5996 149.416 33.2892 148.727 34.2374 148.727C35.0993 148.727 35.8751 149.416 35.8751 150.364C35.8751 151.312 35.0993 152.002 34.2374 152.002Z" fill="#315EB8"></path><path d="M26.5655 152.002C25.7035 152.002 24.9277 151.312 24.9277 150.364C24.9277 149.416 25.6173 148.727 26.5655 148.727C27.4274 148.727 28.2032 149.416 28.2032 150.364C28.2032 151.312 27.4274 152.002 26.5655 152.002Z" fill="#315EB8"></path><path d="M18.8946 152.002C18.0326 152.002 17.2568 151.312 17.2568 150.364C17.2568 149.416 17.9464 148.727 18.8946 148.727C19.8427 148.727 20.5323 149.416 20.5323 150.364C20.5323 151.312 19.8427 152.002 18.8946 152.002Z" fill="#315EB8"></path><path d="M11.3096 152.002C10.4476 152.002 9.67188 151.312 9.67188 150.364C9.67188 149.416 10.3614 148.727 11.3096 148.727C12.1716 148.727 12.9473 149.416 12.9473 150.364C12.9473 151.312 12.1716 152.002 11.3096 152.002Z" fill="#315EB8"></path><path d="M3.63776 152.002C2.77579 152.002 2 151.312 2 150.364C2 149.416 2.6896 148.727 3.63776 148.727C4.58593 148.727 5.2755 149.416 5.2755 150.364C5.2755 151.312 4.49973 152.002 3.63776 152.002Z" fill="#315EB8"></path><path d="M39.0635 158.725C38.2015 158.725 37.4258 158.035 37.4258 157.087C37.4258 156.139 38.1154 155.449 39.0635 155.449C39.9255 155.449 40.7013 156.139 40.7013 157.087C40.7013 158.035 39.9255 158.725 39.0635 158.725Z" fill="#315EB8"></path><path d="M31.3916 158.725C30.5297 158.725 29.7539 158.035 29.7539 157.087C29.7539 156.139 30.4435 155.449 31.3916 155.449C32.2536 155.449 33.0294 156.139 33.0294 157.087C33.0294 158.035 32.2536 158.725 31.3916 158.725Z" fill="#315EB8"></path><path d="M23.8067 158.725C22.9447 158.725 22.1689 158.035 22.1689 157.087C22.1689 156.139 22.8585 155.449 23.8067 155.449C24.7548 155.449 25.4444 156.139 25.4444 157.087C25.4444 158.035 24.6686 158.725 23.8067 158.725Z" fill="#315EB8"></path><path d="M16.1358 158.811C17.0403 158.811 17.7735 158.077 17.7735 157.173C17.7735 156.268 17.0403 155.535 16.1358 155.535C15.2313 155.535 14.498 156.268 14.498 157.173C14.498 158.077 15.2313 158.811 16.1358 158.811Z" fill="#315EB8"></path><path d="M8.46391 158.811C9.36841 158.811 10.1017 158.077 10.1017 157.173C10.1017 156.268 9.36841 155.535 8.46391 155.535C7.55941 155.535 6.82617 156.268 6.82617 157.173C6.82617 158.077 7.55941 158.811 8.46391 158.811Z" fill="#315EB8"></path><path d="M43.46 165.621C44.3645 165.621 45.0977 164.888 45.0977 163.983C45.0977 163.079 44.3645 162.346 43.46 162.346C42.5555 162.346 41.8223 163.079 41.8223 163.983C41.8223 164.888 42.5555 165.621 43.46 165.621Z" fill="#315EB8"></path><path d="M35.7881 165.621C36.6926 165.621 37.4259 164.888 37.4259 163.983C37.4259 163.079 36.6926 162.346 35.7881 162.346C34.8836 162.346 34.1504 163.079 34.1504 163.983C34.1504 164.888 34.8836 165.621 35.7881 165.621Z" fill="#315EB8"></path><path d="M28.1172 165.535C27.2553 165.535 26.4795 164.846 26.4795 163.898C26.4795 162.949 27.1691 162.26 28.1172 162.26C28.9792 162.26 29.755 162.949 29.755 163.898C29.755 164.846 29.0654 165.535 28.1172 165.535Z" fill="#315EB8"></path><path d="M20.5323 165.535C19.6703 165.535 18.8945 164.846 18.8945 163.898C18.8945 162.949 19.5841 162.26 20.5323 162.26C21.3942 162.26 22.17 162.949 22.17 163.898C22.17 164.846 21.3942 165.535 20.5323 165.535Z" fill="#315EB8"></path><path d="M12.8604 165.535C11.9984 165.535 11.2227 164.846 11.2227 163.898C11.2227 162.949 11.9122 162.26 12.8604 162.26C13.8086 162.26 14.4981 162.949 14.4981 163.898C14.4981 164.846 13.7224 165.535 12.8604 165.535Z" fill="#315EB8"></path><path d="M259.9 51.41L265.417 50.3756V45.4624L259.9 44.5142C259.47 42.4455 258.694 40.5492 257.573 38.9114L260.762 34.2568L257.315 30.8089L252.746 33.9982C251.022 32.8777 249.212 32.1019 247.143 31.6709L246.109 26.1543H241.196L240.248 31.6709C238.179 32.1019 236.283 32.8777 234.645 33.9982L229.99 30.8089L226.542 34.2568L229.732 38.8252C228.611 40.5492 227.835 42.3593 227.404 44.428L221.888 45.4624V50.3756L227.404 51.3238C227.835 53.3925 228.611 55.2888 229.732 56.9266L226.542 61.5812L229.99 65.0291L234.559 61.8398C236.283 62.9604 238.093 63.7361 240.161 64.1671L241.196 69.6837H246.109L247.057 64.1671C249.126 63.7361 251.022 62.9604 252.66 61.8398L257.315 65.0291L260.762 61.5812L257.573 57.0128C258.608 55.375 259.47 53.4787 259.9 51.41ZM243.609 58.2195C238.006 58.2195 233.438 53.6511 233.438 48.0483C233.438 42.4455 238.006 37.8771 243.609 37.8771C249.212 37.8771 253.781 42.4455 253.781 48.0483C253.781 53.6511 249.212 58.2195 243.609 58.2195Z" stroke="#315EB8" stroke-miterlimit="10"></path><path d="M278.864 83.5621L282.054 84.6826L283.519 82.0967L280.933 79.9418C281.278 78.735 281.45 77.5283 281.364 76.3215L284.381 74.8562L283.605 72.0117L280.244 72.3565C279.726 71.3221 278.951 70.2878 278.002 69.4258L279.123 66.2365L276.537 64.7711L274.382 67.3571C273.175 67.0123 271.969 66.8399 270.762 66.9261L269.297 63.9092L266.452 64.685L266.797 68.0466C265.676 68.5638 264.728 69.3396 263.866 70.2878L260.677 69.1672L259.212 71.7531L261.797 73.908C261.366 75.1148 261.28 76.3215 261.366 77.5283L258.35 78.9936L259.125 81.8381L262.487 81.4933C263.004 82.5277 263.78 83.5621 264.728 84.424L263.608 87.6133L266.194 89.0787L268.348 86.4928C269.555 86.9237 270.762 87.0099 271.969 86.9237L273.434 89.9406L276.279 89.1649L275.934 85.8032C277.054 85.1998 278.002 84.5102 278.864 83.5621ZM268.348 82.1829C265.418 80.459 264.383 76.7525 266.107 73.8218C267.831 70.8911 271.538 69.8568 274.468 71.5807C277.399 73.3046 278.433 77.0111 276.71 79.9418C275.072 82.8725 271.279 83.9068 268.348 82.1829Z" stroke="#7DB5DB" stroke-miterlimit="10"></path></svg>