<svg xmlns="http://www.w3.org/2000/svg" width="80" height="50" viewBox="0 0 80 50" fill="none"><path d="M60.8081 20.626C60.8081 17.93 57.4318 15.3749 52.2552 13.7905C53.4499 8.51439 52.919 4.31677 50.5794 2.97286C50.0402 2.65762 49.4099 2.50829 48.7213 2.50829V4.35825C49.1029 4.35825 49.4099 4.43291 49.667 4.57393C50.7952 5.22099 51.2847 7.68482 50.9029 10.8538C50.8119 11.6336 50.6625 12.4548 50.48 13.2927C48.8539 12.8945 47.0787 12.5876 45.2122 12.3885C44.0923 10.8538 42.9309 9.46009 41.7611 8.24063C44.4655 5.72703 47.0041 4.34994 48.7296 4.34994V2.5C46.4482 2.5 43.4618 4.12596 40.4422 6.94649C37.4225 4.14255 34.4361 2.53319 32.1548 2.53319V4.38312C33.872 4.38312 36.4187 5.75193 39.1231 8.24893C37.9617 9.4684 36.8003 10.8538 35.6969 12.3885C33.8221 12.5876 32.0469 12.8945 30.421 13.301C30.2301 12.4714 30.0891 11.6667 29.9895 10.8953C29.5997 7.7263 30.0807 5.26247 31.2008 4.60711C31.4496 4.45779 31.7731 4.39143 32.1548 4.39143V2.54148C31.4579 2.54148 30.8274 2.69081 30.28 3.00604C27.9488 4.34994 27.4262 8.53927 28.629 13.7988C23.4691 15.3915 20.1094 17.9383 20.1094 20.626C20.1094 23.3223 23.4857 25.8774 28.6622 27.4617C27.4676 32.7379 27.9985 36.9354 30.338 38.2793C30.8773 38.5945 31.5076 38.7438 32.2045 38.7438C34.4858 38.7438 37.4724 37.1179 40.4919 34.2974C43.5115 37.1014 46.4981 38.7108 48.7793 38.7108C49.4761 38.7108 50.1066 38.5615 50.6542 38.2461C52.9852 36.9022 53.5079 32.7129 52.305 27.4536C57.4483 25.869 60.8081 23.3139 60.8081 20.626V20.626ZM50.0072 15.0929C49.7002 16.1631 49.3186 17.2663 48.8871 18.3696C48.5471 17.7061 48.1904 17.0424 47.8005 16.3787C47.4189 15.7151 47.0123 15.068 46.6058 14.4375C47.7838 14.6117 48.9203 14.8274 50.0072 15.0929V15.0929ZM46.2076 23.9278C45.5605 25.0478 44.897 26.1096 44.2084 27.0968C42.9723 27.2046 41.7198 27.2627 40.4587 27.2627C39.2061 27.2627 37.9534 27.2046 36.7257 27.105C36.0372 26.1178 35.3651 25.0643 34.7181 23.9526C34.0875 22.866 33.5153 21.7626 32.9925 20.6511C33.5069 19.5394 34.0875 18.4277 34.7099 17.341C35.3569 16.2212 36.0205 15.1592 36.709 14.1721C37.9452 14.0642 39.1977 14.0061 40.4587 14.0061C41.7114 14.0061 42.9641 14.0642 44.1917 14.1638C44.8803 15.151 45.5524 16.2045 46.1994 17.3162C46.8299 18.4028 47.4022 19.5062 47.9249 20.6179C47.4022 21.7294 46.8299 22.8411 46.2076 23.9278V23.9278ZM48.8871 22.8494C49.3226 23.9305 49.7047 25.0324 50.032 26.151C48.9452 26.4164 47.8005 26.6405 46.6142 26.8147C47.0206 26.176 47.427 25.5207 47.8088 24.8486C48.1904 24.1851 48.5471 23.513 48.8871 22.8494ZM40.4752 31.701C39.7037 30.9044 38.9323 30.0168 38.1691 29.0463C38.9157 29.0795 39.6789 29.1043 40.4504 29.1043C41.2302 29.1043 42.0017 29.0878 42.7567 29.0463C42.0446 29.9716 41.283 30.8578 40.4752 31.701V31.701ZM34.3033 26.8147C33.1254 26.6405 31.9888 26.4248 30.9021 26.1593C31.209 25.0892 31.5907 23.9858 32.022 22.8825C32.3622 23.5462 32.7189 24.2099 33.1087 24.8734C33.4986 25.5372 33.8969 26.1842 34.3033 26.8147ZM40.4339 9.55136C41.2054 10.3477 41.9769 11.2354 42.74 12.206C41.9934 12.1728 41.2302 12.1479 40.4587 12.1479C39.6789 12.1479 38.9074 12.1645 38.1526 12.206C38.8646 11.2806 39.6262 10.3945 40.4339 9.55136V9.55136ZM34.2949 14.4375C33.8885 15.0763 33.4821 15.7316 33.1005 16.4035C32.7189 17.0672 32.3622 17.7309 32.022 18.3945C31.5865 17.3134 31.2045 16.2115 30.8773 15.0929C31.9639 14.8357 33.1087 14.6117 34.2949 14.4375V14.4375ZM26.7874 24.8237C23.8507 23.571 21.951 21.9286 21.951 20.626C21.951 19.3237 23.8507 17.6729 26.7874 16.4286C27.5008 16.1215 28.2807 15.8478 29.0854 15.5906C29.5582 17.2166 30.1804 18.9089 30.9519 20.6427C30.1887 22.3683 29.5747 24.0522 29.1102 25.67C28.289 25.4127 27.5092 25.1307 26.7874 24.8237ZM31.2505 36.6783C30.1223 36.0313 29.6328 33.5675 30.0145 30.3984C30.1058 29.6187 30.2549 28.7973 30.4375 27.9594C32.0636 28.3577 33.8388 28.6647 35.7053 28.8637C36.8252 30.3984 37.9866 31.792 39.1563 33.0115C36.4519 35.5252 33.9134 36.9022 32.1878 36.9022C31.8146 36.894 31.4995 36.8193 31.2505 36.6783V36.6783ZM50.928 30.357C51.3177 33.5259 50.8367 35.9897 49.7167 36.6451C49.4679 36.7944 49.1444 36.8608 48.7626 36.8608C47.0455 36.8608 44.4987 35.492 41.7943 32.995C42.9558 31.7755 44.1172 30.3902 45.2205 28.8554C47.0954 28.6563 48.8706 28.3493 50.4965 27.9429C50.6874 28.7808 50.8367 29.5855 50.928 30.357ZM54.1217 24.8237C53.4083 25.1307 52.6285 25.4045 51.8238 25.6616C51.3509 24.0357 50.7288 22.3434 49.9573 20.6095C50.7206 18.884 51.3344 17.2 51.7989 15.5823C52.6203 15.8395 53.4 16.1215 54.1301 16.4286C57.0667 17.681 58.9664 19.3237 58.9664 20.626C58.9581 21.9286 57.0584 23.5794 54.1217 24.8237V24.8237Z" fill="#333333"></path><path d="M40.4507 24.4173C42.5446 24.4173 44.2419 22.72 44.2419 20.626C44.2419 18.5323 42.5446 16.835 40.4507 16.835C38.3569 16.835 36.6596 18.5323 36.6596 20.626C36.6596 22.72 38.3569 24.4173 40.4507 24.4173V24.4173ZM21.9577 45.2714H20.7062V47.4267H20V42.0988H21.7638C22.3639 42.0988 22.825 42.2355 23.147 42.5087C23.4714 42.7818 23.6337 43.1795 23.6337 43.7015C23.6337 44.0334 23.5434 44.3224 23.3629 44.5689C23.1848 44.8152 22.936 44.9994 22.6164 45.1213L23.8679 47.3827V47.4267H23.114L21.9577 45.2714ZM20.7062 44.6969H21.7857C22.1346 44.6969 22.4115 44.6065 22.6164 44.4261C22.8237 44.2456 22.9274 44.004 22.9274 43.7015C22.9274 43.3722 22.8286 43.1198 22.631 42.9441C22.4359 42.7684 22.1529 42.6794 21.7821 42.677H20.7062V44.6969ZM26.1586 47.5C25.6219 47.5 25.1852 47.3243 24.8485 46.973C24.5119 46.6192 24.3436 46.1471 24.3436 45.5569V45.4324C24.3436 45.0397 24.418 44.6897 24.5668 44.3823C24.718 44.0723 24.9278 43.8308 25.1962 43.6577C25.467 43.482 25.7597 43.3941 26.0744 43.3941C26.5892 43.3941 26.9893 43.5637 27.2746 43.9028C27.5601 44.2419 27.7027 44.7273 27.7027 45.3591V45.6409H25.0205C25.0303 46.0314 25.1437 46.3473 25.3608 46.5888C25.5804 46.8277 25.8585 46.9474 26.1952 46.9474C26.4343 46.9474 26.6367 46.8986 26.8025 46.801C26.9685 46.7034 27.1136 46.5742 27.2381 46.4131L27.6515 46.7352C27.3197 47.2449 26.8222 47.5 26.1586 47.5V47.5ZM26.0744 43.9504C25.8012 43.9504 25.5719 44.0504 25.3865 44.2504C25.2011 44.4481 25.0864 44.7262 25.0425 45.0848H27.0259V45.0336C27.0064 44.6897 26.9136 44.4236 26.7478 44.2357C26.5818 44.0456 26.3573 43.9504 26.0744 43.9504V43.9504ZM30.934 47.4267C30.8948 47.3486 30.8631 47.2097 30.8388 47.0095C30.524 47.3364 30.1484 47.5 29.7117 47.5C29.3214 47.5 29.0007 47.3902 28.7493 47.1705C28.5006 46.9485 28.3761 46.668 28.3761 46.3289C28.3761 45.9167 28.5323 45.5971 28.8445 45.3703C29.1591 45.1408 29.6008 45.0262 30.1692 45.0262H30.8279V44.7153C30.8279 44.4786 30.757 44.2906 30.6156 44.1517C30.4741 44.0102 30.2654 43.9395 29.9898 43.9395C29.7483 43.9395 29.5459 44.0003 29.3824 44.1224C29.219 44.2443 29.1372 44.3919 29.1372 44.5652H28.4566C28.4566 44.3676 28.5262 44.1773 28.6651 43.9942C28.8067 43.8089 28.997 43.6625 29.2361 43.5551C29.4776 43.4479 29.7421 43.3941 30.03 43.3941C30.4864 43.3941 30.8436 43.5088 31.1022 43.7382C31.3608 43.9651 31.4949 44.2786 31.5048 44.6785V46.5009C31.5048 46.8645 31.5511 47.1535 31.6439 47.3681V47.4267H30.934ZM29.8106 46.9108C30.0228 46.9108 30.2241 46.8559 30.4144 46.7461C30.6045 46.6363 30.7423 46.4936 30.8279 46.318V45.5057H30.2971C29.4678 45.5057 29.053 45.7483 29.053 46.2338C29.053 46.446 29.1239 46.612 29.2652 46.7315C29.4067 46.8509 29.5885 46.9108 29.8106 46.9108V46.9108ZM34.1541 46.9474C34.3956 46.9474 34.6067 46.8741 34.7872 46.7277C34.9677 46.5814 35.0677 46.3985 35.0871 46.1788H35.7277C35.7154 46.4057 35.6373 46.6216 35.4934 46.8266C35.3494 47.0316 35.1567 47.195 34.9152 47.3169C34.6761 47.439 34.4225 47.5 34.1541 47.5C33.615 47.5 33.1856 47.3206 32.866 46.962C32.5489 46.6009 32.3903 46.1082 32.3903 45.4836V45.3703C32.3903 44.9848 32.461 44.642 32.6025 44.342C32.7441 44.0419 32.9465 43.8089 33.2101 43.6431C33.4759 43.477 33.7894 43.3941 34.1504 43.3941C34.5944 43.3941 34.9628 43.5271 35.2556 43.7931C35.5507 44.059 35.708 44.4042 35.7277 44.8286H35.0871C35.0677 44.5724 34.9701 44.3626 34.7944 44.1992C34.6213 44.0334 34.4065 43.9504 34.1504 43.9504C33.8064 43.9504 33.5393 44.0747 33.349 44.3237C33.1613 44.57 33.0672 44.9275 33.0672 45.3959V45.5238C33.0672 45.98 33.1613 46.3313 33.349 46.5777C33.5369 46.8242 33.8053 46.9474 34.1541 46.9474V46.9474ZM37.4072 42.5087V43.4674H38.1464V43.9907H37.4072V46.446C37.4072 46.6046 37.4402 46.724 37.5061 46.8045C37.5719 46.8826 37.6841 46.9218 37.8427 46.9218C37.9206 46.9218 38.028 46.9071 38.1646 46.8778V47.4267C37.9865 47.4755 37.8134 47.5 37.645 47.5C37.3426 47.5 37.1145 47.4083 36.9607 47.2254C36.8071 47.0425 36.7303 46.7826 36.7303 46.446V43.9907H36.0093V43.4674H36.7303V42.5087H37.4072ZM45.0003 47.4267H44.2939L41.6117 43.321V47.4267H40.9055V42.0988H41.6117L44.3013 46.2228V42.0988H45.0003V47.4267ZM48.5863 47.4267C48.5472 47.3486 48.5155 47.2097 48.4912 47.0095C48.1764 47.3364 47.8007 47.5 47.3641 47.5C46.9738 47.5 46.6529 47.3902 46.4017 47.1705C46.153 46.9485 46.0285 46.668 46.0285 46.3289C46.0285 45.9167 46.1845 45.5971 46.4969 45.3703C46.8115 45.1408 47.2532 45.0262 47.8215 45.0262H48.4802V44.7153C48.4802 44.4786 48.4094 44.2906 48.2678 44.1517C48.1265 44.0102 47.9178 43.9395 47.6421 43.9395C47.4006 43.9395 47.1982 44.0003 47.0348 44.1224C46.8714 44.2443 46.7896 44.3919 46.7896 44.5652H46.109C46.109 44.3676 46.1786 44.1773 46.3175 43.9942C46.459 43.8089 46.6494 43.6625 46.8885 43.5551C47.13 43.4479 47.3945 43.3941 47.6824 43.3941C48.1385 43.3941 48.496 43.5088 48.7546 43.7382C49.0132 43.9651 49.1473 44.2786 49.1571 44.6785V46.5009C49.1571 46.8645 49.2035 47.1535 49.2962 47.3681V47.4267H48.5863ZM47.463 46.9108C47.6752 46.9108 47.8764 46.8559 48.0668 46.7461C48.2569 46.6363 48.3947 46.4936 48.4802 46.318V45.5057H47.9495C47.1202 45.5057 46.7054 45.7483 46.7054 46.2338C46.7054 46.446 46.7762 46.612 46.9176 46.7315C47.0591 46.8509 47.2409 46.9108 47.463 46.9108ZM51.1368 42.5087V43.4674H51.876V43.9907H51.1368V46.446C51.1368 46.6046 51.1698 46.724 51.2357 46.8045C51.3015 46.8826 51.4137 46.9218 51.5723 46.9218C51.6502 46.9218 51.7577 46.9071 51.8944 46.8778V47.4267C51.7161 47.4755 51.543 47.5 51.3746 47.5C51.0722 47.5 50.8441 47.4083 50.6903 47.2254C50.5367 47.0425 50.4599 46.7826 50.4599 46.446V43.9907H49.739V43.4674H50.4599V42.5087H51.1368ZM53.4056 47.4267H52.7286V43.4674H53.4056V47.4267ZM52.6737 42.4171C52.6737 42.3075 52.7067 42.2147 52.7725 42.139C52.8408 42.0633 52.9408 42.0257 53.0725 42.0257C53.2044 42.0257 53.3043 42.0633 53.3726 42.139C53.4409 42.2147 53.475 42.3075 53.475 42.4171C53.475 42.5269 53.4409 42.6184 53.3726 42.6916C53.3043 42.7647 53.2044 42.8014 53.0725 42.8014C52.9408 42.8014 52.8408 42.7647 52.7725 42.6916C52.7067 42.6184 52.6737 42.5269 52.6737 42.4171ZM55.7988 46.5083L56.7793 43.4674H57.4711L56.0512 47.4267H55.5352L54.1009 43.4674H54.7924L55.7988 46.5083ZM59.7141 47.5C59.1775 47.5 58.7408 47.3243 58.4041 46.973C58.0674 46.6192 57.8992 46.1471 57.8992 45.5569V45.4324C57.8992 45.0397 57.9736 44.6897 58.1223 44.3823C58.2735 44.0723 58.4833 43.8308 58.7517 43.6577C59.0226 43.482 59.3153 43.3941 59.6299 43.3941C60.1447 43.3941 60.5448 43.5637 60.8303 43.9028C61.1156 44.2419 61.2584 44.7273 61.2584 45.3591V45.6409H58.5761C58.5859 46.0314 58.6992 46.3473 58.9165 46.5888C59.1359 46.8277 59.4142 46.9474 59.7507 46.9474C59.9898 46.9474 60.1923 46.8986 60.3582 46.801C60.524 46.7034 60.6693 46.5742 60.7937 46.4131L61.2072 46.7352C60.8754 47.2449 60.3777 47.5 59.7141 47.5V47.5ZM59.6299 43.9504C59.3568 43.9504 59.1274 44.0504 58.9421 44.2504C58.7566 44.4481 58.6419 44.7262 58.5982 45.0848H60.5813V45.0336C60.5619 44.6897 60.4691 44.4236 60.3033 44.2357C60.1374 44.0456 59.913 43.9504 59.6299 43.9504V43.9504Z" fill="#333333"></path></svg>