<svg xmlns="http://www.w3.org/2000/svg" width="80" height="50" viewBox="0 0 80 50" fill="none"><g filter="url(#filter0_i_803_1519)"><path d="M27.1436 36.9984L27.3273 36.6399L38.7046 15.0521L33.6488 5.49315C33.2287 4.70405 32.1616 4.90524 32.0238 5.7886L27.1436 36.9984Z" fill="#000811"></path></g><g filter="url(#filter1_i_803_1519)"><path d="M42.3922 21.9105L46.0611 18.1531L42.3922 11.167C42.0438 10.5038 41.1975 10.4343 40.8528 11.0994L38.8253 15.0053L38.7646 15.2051L42.3922 21.9105V21.9105Z" fill="#000811"></path></g><path d="M27 37.2575L27.1102 37.1466L27.5105 36.984L42.2228 22.3264L42.4092 21.819L38.7391 14.8252L27 37.2575Z" fill="#282626"></path><path d="M42.9312 44.6501L56.2462 37.2243L52.4439 13.807C52.3249 13.0743 51.4261 12.7847 50.9016 13.31L27 37.258L40.2386 44.6496C40.6501 44.8793 41.1135 45 41.5848 45.0001C42.0561 45.0002 42.5196 44.8797 42.9312 44.6501" fill="#333333"></path><path d="M56.1266 37.1617L52.3531 13.9222C52.2352 13.1951 51.4877 12.8942 50.9672 13.4156L27.1475 37.2121L40.2408 44.5304C40.6491 44.7584 41.109 44.8782 41.5767 44.8783C42.0444 44.8784 42.5043 44.7589 42.9128 44.5311L56.1267 37.1616L56.1266 37.1617Z" fill="#333333"></path><defs><filter id="filter0_i_803_1519" x="27.1436" y="5" width="11.5605" height="31.998" filterUnits="userSpaceOnUse" color-interpolation-filters="sRGB"><feGaussianBlur stdDeviation="124.619"></feGaussianBlur></filter><filter id="filter1_i_803_1519" x="38.7646" y="10.6338" width="7.29688" height="11.2764" filterUnits="userSpaceOnUse" color-interpolation-filters="sRGB"><feGaussianBlur stdDeviation="24.9238"></feGaussianBlur></filter></defs></svg>