<svg xmlns="http://www.w3.org/2000/svg" width="80" height="50" viewBox="0 0 80 50" fill="none"><path d="M62.3195 23.6669C61.9986 23.3622 57.88 18.4367 57.1847 17.6242C56.4359 16.8118 56.1149 16.9641 55.6335 17.0149C55.1522 17.0657 49.9639 17.9289 49.3755 17.9797C48.7872 18.0812 48.4127 18.2844 48.7872 18.7921C49.1081 19.2492 52.5313 23.8192 53.2801 24.8856L39.6408 27.9831L28.8363 10.7691C28.4084 10.1598 28.3015 9.95669 27.3387 10.0075C26.3759 10.0582 18.8342 10.6676 18.2993 10.6676C17.7644 10.7184 17.1761 10.9215 17.7109 12.1402C18.2458 13.3589 26.8038 30.8266 27.0178 31.3344C27.2317 31.8422 27.8736 32.6547 29.3177 32.35C30.8154 31.9945 35.9502 30.7251 38.785 30.0142C40.2826 32.5531 43.2779 37.7325 43.8663 38.4942C44.6151 39.5098 45.15 39.3066 46.2732 39.002C47.1825 38.7481 60.287 34.2796 60.8753 34.0257C61.4637 33.7718 61.8381 33.6195 61.4102 33.0609C61.0893 32.6547 57.6661 28.2369 55.8475 25.9519C57.0777 25.6472 61.5172 24.5301 61.9985 24.3778C62.5334 24.2254 62.6404 23.9716 62.3195 23.6669V23.6669ZM37.5548 28.4908C37.3943 28.5416 29.7456 30.2681 29.3712 30.3696C28.9433 30.4712 28.9433 30.4204 28.9433 30.2681C28.8363 30.1157 19.8504 12.4448 19.69 12.2417C19.583 12.0386 19.583 11.8355 19.69 11.8355C19.797 11.8355 26.9108 11.2262 27.1247 11.2262C27.3922 11.2262 27.3387 11.2769 27.4457 11.4293C27.4457 11.4293 37.4478 27.8307 37.6083 28.0846C37.8222 28.3385 37.7153 28.4401 37.5548 28.4908V28.4908ZM59.0567 32.2992C59.1637 32.5023 59.3242 32.6039 58.8963 32.7054C58.5219 32.8578 46.0058 36.8693 45.7384 36.9708C45.4709 37.0724 45.3105 37.1232 44.9895 36.6662C44.6686 36.2092 40.6036 29.5572 40.6036 29.5572L53.9219 26.2566C54.2429 26.155 54.3498 26.1042 54.5638 26.4089C54.7777 26.7644 58.9498 32.1469 59.0567 32.2992ZM59.9125 23.3622C59.5916 23.413 54.7243 24.5809 54.7243 24.5809L50.7127 19.4015C50.6057 19.2492 50.4988 19.0968 50.7662 19.046C51.0336 18.9953 55.5801 18.2336 55.794 18.1828C56.008 18.132 56.1684 18.0812 56.4359 18.4367C56.7033 18.7414 60.1265 22.9052 60.287 23.0575C60.4474 23.2099 60.2335 23.3114 59.9125 23.3622Z" fill="#333333"></path></svg>