<svg xmlns="http://www.w3.org/2000/svg" width="80" height="50" viewBox="0 0 80 50" fill="none"><path d="M17.7929 30.6627V25.6546H24.0457V25.3617H17.7929V20.7929H24.4411V20.5H17.5V30.9556H24.4996V30.6627H17.7929H17.7929ZM30.1375 23.4287L27.5456 26.8407L25.0122 23.4288H24.6314L27.3699 27.0604L24.3678 30.9555H24.7192L27.5455 27.2799L30.3863 30.9555H30.7524L27.7358 27.0602L30.4888 23.4286H30.1374L30.1375 23.4287ZM31.6311 33.5329V28.847H31.6604C31.8362 29.5303 32.1827 30.0795 32.7002 30.4944C33.2176 30.9092 33.8765 31.1167 34.677 31.1167C35.1944 31.1167 35.6533 31.0118 36.0535 30.8019C36.4538 30.592 36.7881 30.3065 37.0566 29.9453C37.325 29.584 37.5301 29.1643 37.6717 28.6859C37.8132 28.2076 37.884 27.7047 37.884 27.1777C37.884 26.6114 37.8107 26.0891 37.6643 25.6108C37.5179 25.1324 37.3055 24.7174 37.0274 24.366C36.7491 24.0146 36.4123 23.7411 36.0169 23.546C35.6216 23.3507 35.1749 23.2531 34.677 23.2531C34.2963 23.2531 33.9424 23.3092 33.6154 23.4215C33.2883 23.5338 32.9979 23.6924 32.7441 23.8974C32.4888 24.104 32.2666 24.3485 32.0851 24.6222C31.8996 24.9005 31.7581 25.2056 31.6604 25.5375H31.6311V23.4287H31.3383V33.5329H31.6311V33.5329ZM34.677 30.8384C33.7594 30.8384 33.0223 30.5236 32.4658 29.8939C31.9094 29.2643 31.6311 28.3587 31.6311 27.1775C31.6311 26.6893 31.6995 26.2256 31.8362 25.7864C31.9729 25.3471 32.1705 24.9614 32.4292 24.6295C32.6879 24.2976 33.0077 24.034 33.3883 23.8388C33.7691 23.6435 34.1987 23.5458 34.677 23.5458C35.1651 23.5458 35.5923 23.6435 35.9583 23.8388C36.3244 24.034 36.6271 24.3 36.8663 24.6368C37.1054 24.9736 37.286 25.3593 37.4081 25.7937C37.5301 26.2281 37.5911 26.6893 37.5911 27.1775C37.5911 27.6169 37.535 28.0538 37.4227 28.4881C37.3105 28.9226 37.1371 29.3131 36.9028 29.6597C36.6686 30.0062 36.3684 30.2893 36.0023 30.509C35.6361 30.7286 35.1944 30.8384 34.677 30.8384V30.8384ZM39.4948 30.9556V26.6943C39.4948 26.2843 39.5533 25.8839 39.6706 25.4935C39.7877 25.103 39.9683 24.7588 40.2123 24.4611C40.4564 24.1634 40.7663 23.9291 41.1422 23.7582C41.518 23.5873 41.9647 23.5166 42.4821 23.5458V23.253C42.033 23.2433 41.6401 23.292 41.3033 23.3994C40.9664 23.5068 40.6761 23.6533 40.432 23.8388C40.1879 24.0242 39.9927 24.2414 39.8463 24.4904C39.7 24.739 39.5914 25.008 39.5241 25.2885H39.4948V23.4287H39.202V30.9556H39.4948V30.9556ZM42.8482 27.2507H49.1449C49.1645 26.7333 49.1133 26.2355 48.9912 25.7571C48.8692 25.2787 48.6739 24.854 48.4055 24.4831C48.137 24.1121 47.7904 23.8144 47.3658 23.5898C46.9411 23.3652 46.4359 23.253 45.8502 23.253C45.4303 23.253 45.0203 23.3409 44.6201 23.5167C44.2198 23.6924 43.8683 23.9486 43.5657 24.2854C43.2631 24.6222 43.019 25.0346 42.8336 25.5229C42.6481 26.0109 42.5553 26.5674 42.5553 27.1922C42.5553 27.7486 42.6188 28.2685 42.7457 28.7517C42.8726 29.2349 43.0678 29.6548 43.3314 30.0111C43.5951 30.3674 43.9343 30.6432 44.3492 30.8384C44.764 31.0337 45.2644 31.1264 45.8502 31.1167C46.7092 31.1167 47.4317 30.875 48.0174 30.3918C48.6032 29.9085 48.9497 29.2276 49.0571 28.349H48.7643C48.6374 29.1788 48.3127 29.8012 47.7904 30.216C47.2681 30.631 46.6117 30.8384 45.8208 30.8384C45.2839 30.8384 44.8299 30.7457 44.459 30.5602C44.0881 30.3748 43.7854 30.1209 43.551 29.7987C43.3168 29.4765 43.1435 29.0983 43.0313 28.6638C42.9189 28.2295 42.8579 27.7584 42.8482 27.2507ZM48.8521 26.9579H42.8483C42.8775 26.4307 42.9751 25.9572 43.141 25.5375C43.3071 25.1176 43.5242 24.7588 43.7927 24.4611C44.0612 24.1634 44.3736 23.9364 44.7299 23.7802C45.0862 23.624 45.4694 23.5458 45.8794 23.5458C46.3676 23.5458 46.797 23.6362 47.1681 23.8168C47.539 23.9974 47.849 24.244 48.098 24.5563C48.3469 24.8687 48.5348 25.2324 48.6617 25.6472C48.7886 26.0622 48.8521 26.4991 48.8521 26.9579ZM55.2221 25.6546H55.515C55.515 24.815 55.2709 24.2049 54.7829 23.8241C54.2946 23.4434 53.6308 23.253 52.7913 23.253C52.3226 23.253 51.9273 23.3116 51.6051 23.4288C51.283 23.5458 51.0194 23.6972 50.8143 23.8826C50.6094 24.0681 50.4629 24.2731 50.3751 24.4977C50.2872 24.7223 50.2432 24.9371 50.2432 25.142C50.2432 25.552 50.3164 25.8791 50.4629 26.1232C50.6094 26.3672 50.8388 26.5576 51.1511 26.6943C51.3659 26.7918 51.6099 26.8797 51.8833 26.9579C52.1567 27.036 52.474 27.119 52.8352 27.2068C53.1573 27.285 53.4746 27.363 53.7871 27.4411C54.0994 27.5192 54.3752 27.6241 54.6144 27.7559C54.8536 27.8877 55.0488 28.0561 55.2002 28.2612C55.3514 28.4661 55.4271 28.7346 55.4271 29.0665C55.4271 29.3887 55.3515 29.6621 55.2002 29.8865C55.0501 30.1099 54.8526 30.2975 54.6217 30.4358C54.3874 30.5773 54.1262 30.6798 53.8383 30.7432C53.5503 30.8067 53.2696 30.8384 52.9963 30.8384C52.1079 30.8384 51.4269 30.6407 50.9535 30.2454C50.48 29.85 50.2433 29.2276 50.2433 28.3783H49.9504C49.9504 29.3253 50.2066 30.0184 50.7191 30.4577C51.2317 30.897 51.9907 31.1167 52.9963 31.1167C53.3184 31.1167 53.643 31.08 53.9701 31.0068C54.2971 30.9336 54.59 30.8141 54.8487 30.648C55.1051 30.4844 55.3206 30.2639 55.4783 30.0038C55.6394 29.7401 55.72 29.418 55.72 29.0373C55.72 28.676 55.6492 28.3832 55.5077 28.1586C55.3661 27.9341 55.1806 27.7486 54.9512 27.6022C54.7218 27.4558 54.4631 27.3411 54.1751 27.2581C53.8854 27.1746 53.595 27.0941 53.3037 27.0164C52.9453 26.9223 52.5865 26.8296 52.2274 26.7382C51.92 26.6601 51.6344 26.5674 51.3708 26.4599C51.117 26.3525 50.9144 26.1988 50.7631 25.9987C50.6117 25.7986 50.5362 25.513 50.5362 25.142C50.5362 25.0737 50.5557 24.9517 50.5947 24.776C50.6337 24.6002 50.7265 24.422 50.8729 24.2414C51.0194 24.0609 51.2438 23.8998 51.5465 23.7582C51.8491 23.6167 52.2641 23.5458 52.7913 23.5458C53.1525 23.5458 53.4819 23.585 53.7797 23.663C54.0774 23.7411 54.3337 23.8656 54.5484 24.0365C54.7633 24.2073 54.9292 24.4245 55.0463 24.6881C55.1635 24.9517 55.2221 25.2739 55.2221 25.6546V25.6546ZM62.0021 25.6546H62.295C62.295 24.815 62.051 24.2049 61.5628 23.8241C61.0747 23.4434 60.4108 23.253 59.5712 23.253C59.1027 23.253 58.7073 23.3116 58.3851 23.4288C58.0629 23.5458 57.7993 23.6972 57.5944 23.8826C57.3893 24.0681 57.2429 24.2731 57.155 24.4977C57.0671 24.7223 57.0233 24.9371 57.0233 25.142C57.0233 25.552 57.0965 25.8791 57.243 26.1232C57.3893 26.3672 57.6188 26.5576 57.9312 26.6943C58.146 26.7918 58.39 26.8797 58.6633 26.9579C58.9366 27.036 59.2539 27.119 59.6152 27.2068C59.9374 27.285 60.2547 27.363 60.567 27.4411C60.8795 27.5192 61.1552 27.6241 61.3944 27.7559C61.6336 27.8877 61.8289 28.0561 61.9801 28.2612C62.1315 28.4661 62.2071 28.7346 62.2071 29.0665C62.2071 29.3887 62.1315 29.6621 61.9801 29.8865C61.8301 30.1099 61.6326 30.2975 61.4018 30.4358C61.1674 30.5773 60.9063 30.6798 60.6183 30.7432C60.3303 30.8067 60.0496 30.8384 59.7763 30.8384C58.8879 30.8384 58.207 30.6407 57.7335 30.2454C57.26 29.85 57.0233 29.2276 57.0233 28.3783H56.7304C56.7304 29.3253 56.9866 30.0184 57.4992 30.4577C58.0117 30.897 58.7707 31.1167 59.7763 31.1167C60.0985 31.1167 60.4231 31.08 60.7501 31.0068C61.0771 30.9336 61.37 30.8141 61.6287 30.648C61.8852 30.4844 62.1006 30.2639 62.2584 30.0038C62.4195 29.7401 62.5 29.418 62.5 29.0373C62.5 28.676 62.4292 28.3832 62.2877 28.1586C62.1462 27.9341 61.9607 27.7486 61.7312 27.6022C61.5018 27.4558 61.2431 27.3411 60.9551 27.2581C60.6655 27.1746 60.375 27.0941 60.0838 27.0164C59.7254 26.9223 59.3666 26.8296 59.0075 26.7382C58.7 26.6601 58.4144 26.5674 58.1508 26.4599C57.897 26.3525 57.6944 26.1988 57.5431 25.9987C57.3918 25.7986 57.3161 25.513 57.3161 25.142C57.3161 25.0737 57.3356 24.9517 57.3747 24.776C57.4138 24.6002 57.5066 24.422 57.6529 24.2414C57.7993 24.0609 58.0239 23.8998 58.3265 23.7582C58.6292 23.6167 59.0441 23.5458 59.5713 23.5458C59.9325 23.5458 60.262 23.585 60.5597 23.663C60.8575 23.7411 61.1137 23.8656 61.3285 24.0365C61.5433 24.2073 61.7092 24.4245 61.8264 24.6881C61.9436 24.9517 62.0022 25.2739 62.0022 25.6546H62.0021Z" fill="#333333"></path></svg>