<svg xmlns="http://www.w3.org/2000/svg" width="80" height="50" viewBox="0 0 80 50" fill="none"><g clip-path="url(#clip0_790_1719)"><path d="M40.9805 20.4096H39.2237C39.1263 20.4096 39.0301 20.4881 39.0092 20.5833L37.7613 26.3538C37.7407 26.4491 37.644 26.527 37.5466 26.527H36.3032C35.073 26.527 35.2153 25.6759 35.4673 24.5104L35.4749 24.4752L35.5025 24.3283C35.5042 24.3188 35.5061 24.3093 35.5077 24.3007L35.624 23.6809C35.6423 23.5842 35.6701 23.4428 35.6882 23.3541L36.2555 20.5834C36.2751 20.488 36.211 20.4095 36.1136 20.4095H34.3103C34.2128 20.4095 34.1163 20.488 34.0964 20.5832L33.321 24.262C33.3206 24.2627 33.3205 24.264 33.3205 24.2648L33.2844 24.4357C32.8377 26.4747 32.9562 28.4188 35.3833 28.4796C35.423 28.4809 35.4537 28.4812 35.4537 28.4812H39.2635C39.3609 28.4812 39.4575 28.4029 39.4778 28.3074L41.121 20.5833C41.1412 20.4877 41.0779 20.4097 40.9805 20.4096ZM47.9888 26.547C48.0864 26.547 48.1502 26.6254 48.1306 26.7206L47.9599 27.5546L47.9888 26.547ZM47.5757 28.5642C47.0588 28.5683 45.506 28.5799 44.3383 28.5799C45.7593 28.58 47.5756 28.5642 47.5757 28.5642ZM43.2903 25.4732C43.2887 25.382 43.3928 25.2247 43.4903 25.2247L43.2706 25.2211C43.172 26.2152 43.2903 25.4732 43.2903 25.4732Z" fill="black"></path><path d="M47.9888 26.547C48.0864 26.547 48.1502 26.6254 48.1306 26.7206L47.9599 27.5546L47.9321 27.6905L47.9888 26.547ZM18.8994 25.494L19.1723 24.2844L18.8603 25.6672L18.5609 27.0758L18.8233 25.8411C18.8434 25.7454 18.8779 25.5892 18.8994 25.494ZM22.1654 20.3891H20.2363C20.1386 20.3891 20.0413 20.4671 20.0196 20.5621L19.6538 22.1773C19.6323 22.2723 19.6944 22.3502 19.7921 22.3502H21.7363C21.8337 22.3502 21.9306 22.2723 21.9516 22.177L22.3052 20.5626C22.3258 20.4673 22.2632 20.3891 22.1654 20.3891ZM16.1411 31.7488C16.1411 31.7488 17.1136 31.7613 17.7319 31.7613C17.2623 31.7613 16.4875 31.7528 16.1411 31.7488Z" fill="black"></path><path d="M21.6061 22.9017H19.6616C19.5641 22.9017 19.4665 22.9795 19.445 23.0748L19.1723 24.2844L18.8994 25.494C18.8779 25.5892 18.8434 25.7454 18.8233 25.8411L18.5609 27.0758L18.2983 28.3109C18.278 28.4059 18.236 28.5597 18.2048 28.6525C18.2048 28.6525 17.8416 29.7334 17.2308 29.721C17.2054 29.7206 17.18 29.7202 17.1546 29.7196C16.8587 29.7138 16.6262 29.7096 16.6262 29.7096C16.5288 29.708 16.4306 29.7844 16.4078 29.8787L16.0047 31.5735C15.9821 31.6684 16.0432 31.7462 16.1402 31.748C16.4864 31.7522 17.2623 31.7613 17.7319 31.7613C19.2573 31.7613 20.0612 30.9157 20.5767 28.484L21.7456 23.0752C21.7662 22.9802 21.7034 22.9017 21.6061 22.9017ZM49.2277 28.4809C49.1302 28.4809 49.0673 28.4027 49.0879 28.3072L50.5506 21.4557L49.2277 28.4809Z" fill="black"></path><path d="M49.1086 28.3942C49.0966 28.3465 49.1036 28.2293 49.1243 28.1338L49.8185 24.8816L49.0879 28.3072C49.0673 28.4027 49.1302 28.4809 49.2277 28.4809L49.4045 28.481C49.3075 28.481 49.1203 28.4419 49.1086 28.3942ZM51.1448 28.4419C51.0917 28.4634 50.9684 28.4808 50.8707 28.4808H51.0483C51.1459 28.4808 51.2415 28.4027 51.2605 28.307L51.2958 28.1331C51.2767 28.2287 51.1981 28.4202 51.1448 28.4419ZM51.5566 26.8448L51.8174 25.5541C51.8173 25.5549 51.8172 25.5562 51.8169 25.5566L51.5566 26.8448ZM57.3282 21.9146L57.4089 22.2475C57.4311 22.3428 57.3695 22.4202 57.2722 22.4204L57.3282 21.9146ZM51.8174 25.5541C51.8368 25.4586 51.869 25.304 51.8894 25.2091L52.1682 23.9027L51.8525 25.3825L51.8174 25.5541ZM50.574 21.3434C50.5545 21.4356 50.5297 21.5521 50.5128 21.6292L49.8185 24.8816L50.5506 21.4557L50.574 21.3434Z" fill="black"></path><path d="M57.4089 22.2475L57.3282 21.9146L57.2076 21.401C57.0496 20.7874 56.5864 20.4332 55.5798 20.4332L52.5692 20.4298H50.9446C50.8471 20.4298 50.7506 20.5078 50.7305 20.6033L50.574 21.3434L50.5506 21.4557L49.8185 24.8816L49.1253 28.1337C49.1046 28.2291 49.0967 28.3464 49.1086 28.3942C49.1203 28.4421 49.3084 28.481 49.4064 28.481H50.8717C50.9693 28.481 51.0927 28.4631 51.1457 28.4419C51.1989 28.4202 51.2773 28.2288 51.297 28.133L51.8185 25.5568C51.8186 25.5562 51.8187 25.555 51.819 25.5546L51.8538 25.3828L52.4487 22.596C52.4694 22.501 52.5655 22.4234 52.6628 22.4231L57.2733 22.4208C57.369 22.4203 57.4312 22.3428 57.4089 22.2475Z" fill="black"></path><path d="M63.3433 19.2373C63.2457 19.238 63.0861 19.2385 62.9885 19.2385H61.5127C61.4152 19.2385 61.2903 19.3045 61.2356 19.3851L57.9726 24.1655C57.9174 24.2462 57.8541 24.2342 57.833 24.1392L57.5928 23.086C57.5707 22.9908 57.4735 22.9131 57.3761 22.9131H55.2784C55.1806 22.9131 55.1227 22.9896 55.1495 23.0834L56.0895 26.3764C56.1159 26.4702 56.1182 26.6247 56.0941 26.7187L55.684 28.3125C55.6596 28.4071 55.7197 28.4844 55.8172 28.4844H57.8905C57.988 28.4844 58.0877 28.407 58.1119 28.3125L58.5218 26.7187C58.5459 26.6242 58.6138 26.483 58.673 26.4052L63.9705 19.3746C64.0292 19.2967 63.9974 19.2332 63.9 19.2339L63.3433 19.2373ZM46.6775 23.3614L46.6773 23.3594C46.6651 23.4652 46.567 23.543 46.4695 23.543H43.8104C43.7184 23.543 43.6712 23.4804 43.6851 23.4033C43.6859 23.4011 43.6864 23.3992 43.6873 23.3972C43.6873 23.3972 43.6864 23.3974 43.6852 23.3981C43.6861 23.395 43.6861 23.3922 43.6871 23.3892C43.6871 23.3892 43.6925 23.3704 43.6991 23.344C43.9531 22.6686 44.4706 22.2254 45.4433 22.2254C46.5381 22.2252 46.7519 22.76 46.6775 23.3614ZM45.8972 20.2916C42.4833 20.2916 41.6745 22.3637 41.2207 24.4551C40.7666 26.5869 40.8057 28.5799 44.3383 28.5799L44.4641 28.5799C44.4756 28.5797 44.4872 28.5797 44.4983 28.5797H44.7257C44.7394 28.5793 44.753 28.5793 44.7672 28.5793L44.8734 28.5789H44.8987C45.0383 28.5787 45.181 28.578 45.323 28.5775H45.3301C46.2631 28.5736 47.1981 28.5669 47.5769 28.564C47.6737 28.5621 47.7697 28.4836 47.7897 28.3888L47.9321 27.6905L47.9599 27.5546L48.1306 26.7206C48.1502 26.6254 48.0864 26.547 47.9888 26.547L44.8135 26.547C43.5502 26.547 43.1751 26.2114 43.3132 25.2246H48.39C48.3913 25.2246 48.3918 25.2246 48.393 25.2246C48.4736 25.2228 48.5483 25.1676 48.5778 25.0933C48.5835 25.0791 48.5879 25.0642 48.5902 25.0488C49.3433 22.2059 49.1263 20.2917 45.8972 20.2916ZM29.7621 23.3506L28.9475 26.238C28.921 26.3318 28.8196 26.4088 28.7218 26.4088H26.6928C25.1537 26.4088 24.779 25.205 25.1537 23.4294C25.5283 21.6135 26.2631 20.4845 27.7778 20.3703C29.8479 20.2141 30.262 21.67 29.7621 23.3506ZM31.1537 26.3042C31.1537 26.3042 32.1103 23.9815 32.3275 22.6397C32.625 20.8439 31.7258 18.2393 28.2526 18.2393C24.799 18.2393 23.2994 20.726 22.7272 23.4292C22.155 26.1521 22.9046 28.5399 26.3384 28.5206L29.0464 28.5106L31.5791 28.5012C31.6766 28.5004 31.7762 28.4229 31.8012 28.3288L32.2421 26.6466C32.2667 26.5522 32.207 26.4745 32.1096 26.4742L31.6864 26.4716L31.2638 26.4692C31.181 26.4683 31.134 26.4153 31.1441 26.3442C31.1458 26.3307 31.1486 26.3169 31.1537 26.3042Z" fill="black"></path><path d="M48.2493 24.7496C48.2493 24.8138 48.1972 24.8661 48.1329 24.8661C48.0686 24.8661 48.0165 24.8138 48.0165 24.7496C48.0165 24.6854 48.0686 24.6335 48.1329 24.6335C48.1972 24.6334 48.2493 24.6853 48.2493 24.7496Z" fill="black"></path></g><defs><clipPath id="clip0_790_1719"><rect width="80" height="50" fill="white"></rect></clipPath></defs></svg>