<svg xmlns="http://www.w3.org/2000/svg" width="123" height="30" viewBox="0 0 123 30" fill="none"><path d="M120.76 28.0692C120.835 28.07 120.909 28.0552 120.978 28.0259C121.048 27.9965 121.11 27.9532 121.162 27.8986C121.213 27.844 121.253 27.7793 121.279 27.7085C121.305 27.6377 121.316 27.5623 121.312 27.487C121.312 27.0741 121.064 26.8768 120.556 26.8768H119.736V29.0386H120.044V28.0963H120.424L120.432 28.1077L121.021 29.0386H121.351L120.718 28.0752L120.76 28.0692ZM120.403 27.8527H120.045V27.1218H120.499C120.733 27.1218 121 27.1603 121 27.4691C121 27.8242 120.73 27.8527 120.401 27.8527H120.403ZM0.525391 4.43158H5.08097V21.1314H13.5147V25.3624H0.525391V4.43158ZM15.5288 11.1707H19.9052V25.3546H15.5288V11.1707ZM17.717 4.11914C18.2191 4.11923 18.7099 4.26916 19.1273 4.54996C19.5448 4.83076 19.8701 5.22982 20.0622 5.69669C20.2543 6.16356 20.3045 6.67727 20.2065 7.17286C20.1084 7.66845 19.8666 8.12366 19.5115 8.48094C19.1565 8.83821 18.7041 9.0815 18.2116 9.18005C17.7192 9.2786 17.2087 9.22798 16.7449 9.03458C16.281 8.84119 15.8845 8.51371 15.6056 8.09355C15.3266 7.6734 15.1777 7.17944 15.1777 6.67413C15.1777 6.33856 15.2434 6.00628 15.371 5.69627C15.4986 5.38625 15.6857 5.10457 15.9215 4.86732C16.1573 4.63006 16.4372 4.44187 16.7453 4.3135C17.0533 4.18512 17.3835 4.11908 17.717 4.11914ZM38.2123 4.42836H42.5887V16.9372L47.5486 11.1643H52.9143L47.1703 17.7309L52.7935 25.3605H47.2929L42.6471 18.3493H42.5896V25.3596H38.2132L38.2123 4.42836ZM22.3318 11.1721H26.5345V13.1105H26.5943C27.014 12.3867 27.6213 11.7912 28.3511 11.3877C29.081 10.9841 29.906 10.7877 30.7382 10.8193C35.1761 10.8193 35.9931 13.7578 35.9931 17.5754V25.3536H31.6167V18.4576C31.6167 16.8115 31.5866 14.6956 29.3373 14.6956C27.0624 14.6956 26.7114 16.488 26.7114 18.3379V25.3518H22.335L22.3318 11.1721Z" fill="white"></path><path d="M62.131 16.6121C62.1394 16.2547 62.0756 15.8994 61.9435 15.5676C61.8114 15.2359 61.6138 14.9345 61.3625 14.6819C61.1113 14.4292 60.8118 14.2305 60.482 14.0978C60.1522 13.9651 59.7991 13.9011 59.4441 13.9098C58.6794 13.8619 57.9267 14.1184 57.3481 14.6239C56.7696 15.1294 56.4116 15.8434 56.3514 16.6121H62.131ZM65.8382 22.8975C65.111 23.785 64.1967 24.4986 63.1616 24.9867C62.1265 25.4748 60.9965 25.7251 59.8534 25.7195C55.477 25.7195 51.9731 22.7795 51.9731 18.227C51.9731 13.6745 55.4766 10.7359 59.8534 10.7359C63.944 10.7359 66.5093 13.6722 66.5093 18.227V19.608H56.3514C56.4779 20.3911 56.8813 21.1019 57.4874 21.6094C58.0935 22.1168 58.8614 22.3867 59.6497 22.3694C60.2726 22.3655 60.8847 22.2049 61.4301 21.9022C61.9756 21.5994 62.4372 21.1642 62.7729 20.6361L65.8382 22.8975ZM75.6314 14.5985C73.4432 14.5985 72.1302 16.0689 72.1302 18.2114C72.1302 20.3539 73.4427 21.8257 75.6314 21.8257C77.82 21.8257 79.1357 20.3576 79.1357 18.2114C79.1357 16.0652 77.8223 14.5985 75.6314 14.5985ZM83.1647 25.3511H79.1357V23.47H79.076C78.5705 24.1542 77.9149 24.7117 77.1602 25.0991C76.4056 25.4865 75.5722 25.6933 74.7251 25.7034C70.5201 25.7034 67.7502 22.6493 67.7502 18.3302C67.7502 14.3636 70.2014 10.7212 74.2309 10.7212C76.0421 10.7212 77.7339 11.2199 78.7263 12.6023H78.7838V4.42622H83.1643L83.1647 25.3511ZM112.71 25.3593H108.333V18.4619C108.333 16.8171 108.304 14.6998 106.057 14.6998C103.778 14.6998 103.429 16.4919 103.429 18.3422V25.3589H99.0525V11.175H103.254V13.1134H103.313C103.733 12.3899 104.341 11.7947 105.071 11.3912C105.801 10.9877 106.626 10.7911 107.458 10.8222C111.894 10.8222 112.712 13.7584 112.712 17.5783L112.71 25.3593ZM94.1145 9.23615C93.6122 9.23624 93.1211 9.08643 92.7034 8.80566C92.2857 8.52488 91.9601 8.12577 91.7678 7.65877C91.5755 7.19177 91.5251 6.67788 91.623 6.18206C91.7209 5.68625 91.9627 5.23078 92.3179 4.87327C92.673 4.51576 93.1255 4.27225 93.6181 4.17354C94.1107 4.07483 94.6214 4.12535 95.0855 4.31872C95.5496 4.51209 95.9463 4.83961 96.2254 5.25988C96.5046 5.68014 96.6536 6.17427 96.6537 6.67978C96.6538 7.01543 96.5881 7.3478 96.4606 7.65792C96.333 7.96804 96.146 8.24984 95.9102 8.48722C95.6744 8.7246 95.3944 8.91291 95.0863 9.04142C94.7782 9.16992 94.448 9.23609 94.1145 9.23615ZM96.3027 25.3593H91.9217V11.175H96.3027V25.3593ZM114.892 0.034251H89.7225C89.1513 0.0277631 88.6008 0.249787 88.1921 0.651534C87.7835 1.05328 87.55 1.60188 87.543 2.17679V27.6115C87.5497 28.1867 87.7831 28.7357 88.1917 29.1378C88.6004 29.54 89.151 29.7624 89.7225 29.7563H114.892C115.464 29.7636 116.016 29.5417 116.427 29.1396C116.837 28.7374 117.072 28.1878 117.08 27.6115V2.17495C117.072 1.59891 116.837 1.04968 116.426 0.647945C116.016 0.246208 115.464 0.0248185 114.892 0.0324158V0.034251ZM120.441 25.9131C119.908 25.9182 119.4 26.1354 119.026 26.517C118.652 26.8987 118.444 27.4138 118.446 27.9496C118.449 28.4855 118.662 28.9986 119.04 29.3766C119.417 29.7546 119.928 29.9668 120.46 29.9668C120.993 29.9668 121.504 29.7546 121.881 29.3766C122.258 28.9986 122.472 28.4855 122.474 27.9496C122.477 27.4138 122.269 26.8987 121.895 26.517C121.521 26.1354 121.012 25.9182 120.48 25.9131H120.441ZM120.441 29.7348C120.092 29.7406 119.749 29.6421 119.455 29.4517C119.161 29.2613 118.93 28.9875 118.791 28.6651C118.652 28.3426 118.612 27.9859 118.674 27.64C118.736 27.2941 118.899 26.9747 119.142 26.722C119.385 26.4693 119.697 26.2948 120.038 26.2205C120.38 26.1462 120.735 26.1754 121.06 26.3045C121.385 26.4336 121.665 26.6568 121.863 26.9458C122.062 27.2347 122.172 27.5766 122.177 27.9281V27.9579C122.187 28.419 122.015 28.8651 121.698 29.1981C121.381 29.5312 120.945 29.7239 120.487 29.7338H120.441" fill="white"></path></svg>