<svg xmlns="http://www.w3.org/2000/svg" xmlns:xlink="http://www.w3.org/1999/xlink" id="Layer_1" x="0px" y="0px" viewBox="0 0 592.3 161.1" style="enable-background:new 0 0 592.3 161.1;" xml:space="preserve"><style type="text/css">	.st0{fill:#ED1C24;}	.st1{fill:#263B8C;}</style><g>	<g>		<path class="st0" d="M122.7,83.2c8.9-8.1,29.9-26.9,29.9-46.6c0-19.9-16.8-36-37.5-36c-20.7,0-37.5,16.2-37.5,36h8.3   C85.9,21,99,8.4,115.1,8.4c16.1,0,29.5,12.6,29.5,28.2c0,16.4-19,33.1-27.1,41l-6.8,6.5h11.1L122.7,83.2"></path>		<path class="st0" d="M95.5,89.9l24.2-22.7c7.1-6.6,18.9-17.5,18.9-30.6c0-12.2-10.6-22.2-23.6-22.2c-13,0-23.5,9.9-23.6,22.1h8.3   c0.1-7.9,6.9-14.3,15.3-14.3c8.4,0,15.3,6.5,15.3,14.4c0,9.8-9.9,18.9-16.4,25L76.1,97.2h11.7l0,0h67v-7.2H95.5"></path>		<path class="st0" d="M122.8,83.2c8.9-8.1,29.9-27,29.9-46.7c0-19.9-16.8-36-37.5-36c-20.7,0-37.5,16.2-37.5,36H86   C86,21,99.1,8.3,115.2,8.3c16.1,0,29.5,12.6,29.5,28.2c0,16.4-19.1,33.1-27.1,41l-6.8,6.5h11.1L122.8,83.2"></path>		<rect x="74.9" y="103.1" class="st0" width="80" height="7.2"></rect>		<path class="st0" d="M95.6,89.9l24.2-22.7c7.1-6.6,18.9-17.5,18.9-30.6c0-12.2-10.6-22.2-23.6-22.2c-13,0-23.5,9.9-23.6,22.1h8.3   c0.1-7.9,6.9-14.3,15.3-14.3c8.4,0,15.3,6.5,15.3,14.4c0,9.8-9.9,19-16.4,25L76.2,97.2h11.7l0,0h67v-7.2H95.6"></path>		<path class="st1" d="M0,110.5V40.3h37.1c14.6,0,22,2.8,22,18.3c0,8.1-1.6,13.5-10.7,15.5v0.4c10.5,1.1,12.4,7.6,12.4,16.5   c0,15.5-6.8,19.6-22.5,19.6H0z M14.3,69.7h20.6c8.1,0,9.9-2.3,9.9-9.8c0-7.5-3.2-8.1-10.3-8.1H14.3V69.7z M14.3,99h19.6   c8.6,0,12.6-0.6,12.6-9.2c0-7.7-1.8-9.9-10.3-9.9h-22V99z"></path>		<polygon class="st1" points="190.9,69 197.6,69 222.5,40.3 240.1,40.3 209.8,74.6 243.2,110.5 225.1,110.5 197.6,80.5 190.9,80.5    190.9,110.5 176.6,110.5 176.6,40.3 190.9,40.3   "></polygon>		<path class="st1" d="M260.4,97.2l-4.7,13.3h-14.8l24.8-70.2h21.1l25.3,70.2h-14.5l-4.9-13.3H260.4z M276.6,50.6h-0.2L263.7,87   h25.8L276.6,50.6z"></path>		<path class="st1" d="M317.4,40.3h33.1c20,0,26.6,4.5,26.6,24.2c0,19.9-7.1,23.3-26.6,23.3h-18.7v22.8h-14.3V40.3z M350.4,76.3   c10.2-0.2,12.2-2,12.2-11.8c0-9.9-1.5-12.7-12.2-12.6h-18.7v24.4H350.4z"></path>		<rect x="386.7" y="40.3" class="st1" width="14.3" height="70.2"></rect>		<polygon class="st1" points="444,110.5 429.7,110.5 429.7,51.8 407.8,51.8 407.8,40.3 465.9,40.3 465.9,51.8 444,51.8   "></polygon>		<path class="st1" d="M485.2,97.2l-4.7,13.3h-14.8l24.8-70.2h21.1l25.3,70.2h-14.5l-4.9-13.3H485.2z M501.4,50.6h-0.2L488.5,87   h25.8L501.4,50.6z"></path>		<polygon class="st1" points="557.5,99 592.3,99 592.3,110.5 543.2,110.5 543.2,40.3 557.5,40.3   "></polygon>		<path class="st1" d="M319.4,131.6h7.9c1.3,0,2.5,0.1,3.6,0.3c1.1,0.2,2,0.6,2.8,1.2c0.8,0.5,1.4,1.2,1.9,2.1   c0.5,0.9,0.7,1.9,0.7,3.2c0,1.2-0.2,2.3-0.7,3.2c-0.5,0.9-1.1,1.7-1.9,2.3c-0.8,0.6-1.8,1-2.9,1.3c-1.1,0.3-2.3,0.4-3.6,0.4h-3.8   v8.1h-4.2V131.6z M327,142.5c3.5,0,5.2-1.3,5.2-4c0-1.4-0.4-2.4-1.3-2.9c-0.9-0.5-2.2-0.8-3.9-0.8h-3.4v7.7H327z"></path>		<path class="st1" d="M338.3,149.3c0-1.8,0.8-3.2,2.5-4.1c1.7-1,4.3-1.7,7.9-2c0-0.4-0.1-0.8-0.2-1.2c-0.1-0.4-0.3-0.8-0.6-1.1   c-0.3-0.3-0.6-0.5-1-0.7c-0.4-0.2-0.9-0.3-1.5-0.3c-0.9,0-1.8,0.2-2.6,0.5c-0.8,0.3-1.6,0.7-2.4,1.2l-1.5-2.6   c1-0.6,2.1-1.1,3.3-1.5c1.2-0.4,2.5-0.6,4-0.6c2.2,0,3.9,0.6,5,1.8c1.1,1.2,1.6,3,1.6,5.3v9.9h-3.4l-0.3-1.8H349   c-0.8,0.6-1.6,1.2-2.5,1.6c-0.9,0.4-1.9,0.6-2.9,0.6c-1.6,0-2.8-0.4-3.8-1.3C338.8,151.9,338.3,150.8,338.3,149.3 M342.3,149   c0,0.7,0.2,1.3,0.7,1.6c0.5,0.3,1.1,0.5,1.8,0.5c0.7,0,1.4-0.2,2-0.5c0.6-0.3,1.2-0.8,1.9-1.4v-3.7c-1.2,0.1-2.2,0.3-3,0.5   c-0.8,0.2-1.5,0.5-2,0.8c-0.5,0.3-0.9,0.6-1.1,1C342.4,148.2,342.3,148.6,342.3,149"></path>		<path class="st1" d="M357.9,137.1h3.4l0.3,3h0.1c0.6-1.1,1.4-1.9,2.3-2.5c0.9-0.6,1.8-0.9,2.7-0.9c0.8,0,1.5,0.1,2,0.3l-0.7,3.4   c-0.3-0.1-0.6-0.2-0.9-0.2c-0.3,0-0.6-0.1-1-0.1c-0.7,0-1.4,0.3-2.2,0.8c-0.8,0.5-1.4,1.4-2,2.7v10.2h-4.1V137.1z"></path>		<path class="st1" d="M372,140.2h-2.5v-2.9l2.7-0.2l0.5-4.6h3.5v4.6h4.5v3.1h-4.5v7.9c0,1.9,0.8,2.9,2.5,2.9c0.3,0,0.6,0,1-0.1   c0.3-0.1,0.6-0.2,0.9-0.3l0.7,2.9c-0.5,0.2-1,0.3-1.6,0.4c-0.6,0.1-1.3,0.2-2,0.2c-1,0-1.9-0.1-2.6-0.4c-0.7-0.3-1.3-0.7-1.7-1.2   c-0.4-0.5-0.8-1.2-1-1.9c-0.2-0.7-0.3-1.6-0.3-2.5V140.2z"></path>		<path class="st1" d="M390.7,145.5c0-1.4,0.2-2.6,0.7-3.7c0.5-1.1,1.1-2,1.9-2.8c0.8-0.7,1.7-1.3,2.7-1.7c1-0.4,2.1-0.6,3.2-0.6   c1.1,0,2.2,0.2,3.2,0.6c1,0.4,1.9,1,2.7,1.7c0.8,0.7,1.4,1.7,1.9,2.8c0.5,1.1,0.7,2.3,0.7,3.7c0,1.4-0.2,2.6-0.7,3.7   c-0.5,1.1-1.1,2-1.9,2.7c-0.8,0.7-1.7,1.3-2.7,1.7c-1,0.4-2.1,0.6-3.2,0.6c-1.1,0-2.2-0.2-3.2-0.6c-1-0.4-1.9-1-2.7-1.7   c-0.8-0.7-1.4-1.7-1.9-2.7C390.9,148.1,390.7,146.8,390.7,145.5 M394.9,145.5c0,1.7,0.4,3,1.1,4c0.7,1,1.7,1.5,3,1.5   s2.3-0.5,3.1-1.5c0.7-1,1.1-2.3,1.1-4c0-1.7-0.4-3-1.1-4.1c-0.7-1-1.8-1.5-3.1-1.5s-2.3,0.5-3,1.5   C395.3,142.4,394.9,143.8,394.9,145.5"></path>		<path class="st1" d="M420.5,132.9c-0.6-0.3-1.3-0.4-1.9-0.4c-1.5,0-2.2,0.9-2.2,2.8v1.8h3.5v3.1h-3.5v13.6h-4.2v-13.6h-2.4v-2.9   l2.4-0.2v-1.7c0-0.9,0.1-1.7,0.3-2.4c0.2-0.7,0.6-1.4,1-1.9c0.5-0.5,1.1-0.9,1.8-1.2c0.7-0.3,1.6-0.4,2.7-0.4   c0.6,0,1.2,0.1,1.8,0.2c0.6,0.1,1.1,0.3,1.5,0.4L420.5,132.9z"></path>		<path class="st1" d="M430.7,131.6h7.5c1.2,0,2.4,0.1,3.4,0.3c1,0.2,1.9,0.5,2.7,0.9c0.8,0.4,1.3,1,1.8,1.7   c0.4,0.7,0.6,1.6,0.6,2.6c0,1.1-0.3,2.1-1,3c-0.7,0.9-1.7,1.5-3.1,1.9v0.1c1.7,0.3,3,0.8,3.9,1.7c0.9,0.9,1.4,2.1,1.4,3.5   c0,1.1-0.2,2.1-0.7,2.9c-0.5,0.8-1.1,1.5-1.9,2c-0.8,0.5-1.8,0.9-2.9,1.2c-1.1,0.3-2.3,0.4-3.6,0.4h-8.2V131.6z M437.9,140.8   c1.7,0,2.9-0.3,3.6-0.9c0.7-0.6,1.1-1.4,1.1-2.4c0-1-0.4-1.8-1.2-2.2c-0.8-0.5-1.9-0.7-3.5-0.7h-3.1v6.1H437.9z M438.4,150.7   c1.7,0,3.1-0.3,4-0.9c0.9-0.6,1.4-1.6,1.4-2.8c0-1.2-0.5-2-1.4-2.6c-0.9-0.6-2.3-0.8-4-0.8h-3.5v7.1H438.4z"></path>		<path class="st0" d="M450.6,151.5c1.6-1.4,3-2.8,4.3-4c1.3-1.2,2.4-2.4,3.3-3.4c0.9-1,1.6-2,2.1-2.9c0.5-0.9,0.7-1.8,0.7-2.6   c0-1.2-0.3-2.1-1-2.7c-0.6-0.7-1.6-1-2.8-1c-0.9,0-1.7,0.2-2.4,0.7c-0.7,0.5-1.4,1-2,1.7l-2.3-2.2c1.1-1.1,2.1-1.9,3.3-2.5   c1.1-0.6,2.5-0.9,4.1-0.9c1.1,0,2.1,0.2,3,0.5c0.9,0.3,1.6,0.8,2.3,1.3c0.6,0.6,1.1,1.3,1.5,2.1c0.3,0.8,0.5,1.7,0.5,2.7   c0,0.9-0.2,1.9-0.7,2.9c-0.4,1-1,2-1.8,3c-0.8,1-1.6,2-2.7,3.1c-1,1.1-2.1,2.2-3.2,3.3c0.6,0,1.2-0.1,1.9-0.2   c0.7-0.1,1.3-0.1,1.9-0.1h5.6v3.3h-15.5V151.5z"></path>		<polygon class="st1" points="470.7,131.6 474.9,131.6 474.9,140.5 484.5,140.5 484.5,131.6 488.7,131.6 488.7,153.8 484.5,153.8    484.5,143.9 474.9,143.9 474.9,153.8 470.7,153.8   "></polygon>		<path class="st1" d="M493.2,145.5c0-1.4,0.2-2.6,0.7-3.7c0.5-1.1,1.1-2,1.9-2.8c0.8-0.7,1.7-1.3,2.7-1.7c1-0.4,2.1-0.6,3.2-0.6   c1.1,0,2.2,0.2,3.2,0.6c1,0.4,1.9,1,2.7,1.7c0.8,0.7,1.4,1.7,1.9,2.8c0.5,1.1,0.7,2.3,0.7,3.7c0,1.4-0.2,2.6-0.7,3.7   c-0.5,1.1-1.1,2-1.9,2.7c-0.8,0.7-1.7,1.3-2.7,1.7c-1,0.4-2.1,0.6-3.2,0.6c-1.1,0-2.2-0.2-3.2-0.6c-1-0.4-1.9-1-2.7-1.7   c-0.8-0.7-1.4-1.7-1.9-2.7C493.4,148.1,493.2,146.8,493.2,145.5 M497.4,145.5c0,1.7,0.4,3,1.1,4c0.7,1,1.8,1.5,3,1.5   c1.3,0,2.3-0.5,3.1-1.5c0.7-1,1.1-2.3,1.1-4c0-1.7-0.4-3-1.1-4.1c-0.7-1-1.8-1.5-3.1-1.5c-1.3,0-2.3,0.5-3,1.5   C497.8,142.4,497.4,143.8,497.4,145.5"></path>		<path class="st1" d="M514.1,129.8h4.1v19.9c0,0.5,0.1,0.8,0.3,1c0.2,0.2,0.4,0.3,0.6,0.3h0.3c0.1,0,0.2,0,0.4-0.1l0.5,2.9   c-0.6,0.2-1.3,0.3-2.2,0.3c-1.5,0-2.5-0.4-3.1-1.3c-0.6-0.8-0.9-2-0.9-3.4V129.8z"></path>		<path class="st1" d="M522.8,145.5c0-1.4,0.2-2.6,0.6-3.7c0.4-1.1,1-2,1.7-2.8c0.7-0.7,1.5-1.3,2.4-1.7c0.9-0.4,1.8-0.6,2.8-0.6   c1,0,1.9,0.2,2.6,0.5c0.7,0.3,1.4,0.8,2.1,1.3l-0.1-2.7v-6h4.2v24h-3.4l-0.3-1.8h-0.1c-0.7,0.6-1.4,1.1-2.3,1.6   c-0.9,0.4-1.8,0.6-2.7,0.6c-2.2,0-4-0.8-5.3-2.3C523.5,150.4,522.8,148.2,522.8,145.5 M527.1,145.4c0,1.8,0.3,3.2,1,4.1   c0.7,0.9,1.7,1.4,3,1.4c1.3,0,2.6-0.6,3.7-1.9v-7.8c-0.6-0.5-1.2-0.9-1.8-1.1c-0.6-0.2-1.2-0.3-1.8-0.3c-1.2,0-2.1,0.5-2.9,1.4   C527.5,142.3,527.1,143.7,527.1,145.4"></path>		<path class="st1" d="M546.4,134.2c-0.7,0-1.4-0.2-1.8-0.6c-0.5-0.4-0.7-0.9-0.7-1.6c0-0.7,0.2-1.2,0.7-1.6   c0.5-0.4,1.1-0.6,1.8-0.6c0.7,0,1.4,0.2,1.8,0.6c0.5,0.4,0.7,1,0.7,1.6c0,0.7-0.2,1.2-0.7,1.6C547.7,134,547.1,134.2,546.4,134.2    M544.3,137.1h4.1v16.7h-4.1V137.1z"></path>		<path class="st1" d="M553.7,137.1h3.4l0.3,2.2h0.1c0.8-0.7,1.7-1.3,2.6-1.9c0.9-0.5,2-0.8,3.2-0.8c1.9,0,3.3,0.6,4.2,1.7   c0.9,1.1,1.3,2.8,1.3,4.9v10.5h-4.2v-9.9c0-1.4-0.2-2.4-0.6-2.9c-0.4-0.6-1.1-0.8-2.1-0.8c-0.8,0-1.5,0.2-2,0.5   c-0.6,0.4-1.3,0.9-2,1.5v11.6h-4.1V137.1z"></path>		<path class="st1" d="M572.7,156.8c0-0.7,0.2-1.4,0.7-2c0.4-0.6,1.1-1.1,1.9-1.6v-0.1c-0.5-0.3-0.8-0.6-1.1-1.1   c-0.3-0.5-0.5-1-0.5-1.7c0-0.7,0.2-1.2,0.6-1.8c0.4-0.5,0.8-1,1.4-1.3v-0.1c-0.6-0.4-1.1-1-1.6-1.8c-0.5-0.8-0.7-1.6-0.7-2.6   c0-1,0.2-1.8,0.6-2.5c0.4-0.7,0.9-1.4,1.5-1.9c0.6-0.5,1.4-0.9,2.2-1.2c0.8-0.3,1.7-0.4,2.7-0.4c0.5,0,0.9,0,1.4,0.1   c0.4,0.1,0.8,0.2,1.2,0.3h6.4v2.9H586c0.3,0.3,0.5,0.7,0.7,1.2c0.2,0.5,0.3,1,0.3,1.6c0,0.9-0.2,1.7-0.5,2.4   c-0.3,0.7-0.8,1.3-1.4,1.8c-0.6,0.5-1.3,0.8-2.1,1.1c-0.8,0.2-1.7,0.4-2.6,0.4c-0.4,0-0.8,0-1.2-0.1c-0.4-0.1-0.8-0.2-1.2-0.3   c-0.3,0.2-0.5,0.5-0.6,0.7c-0.2,0.2-0.2,0.5-0.2,0.9c0,0.5,0.2,0.8,0.6,1.1c0.4,0.3,1.2,0.4,2.3,0.4h3.1c2.1,0,3.8,0.3,4.9,1   c1.1,0.6,1.6,1.7,1.6,3.1c0,0.8-0.2,1.6-0.7,2.3c-0.4,0.7-1.1,1.3-1.9,1.9c-0.8,0.5-1.8,0.9-3,1.2c-1.2,0.3-2.5,0.5-3.9,0.5   c-1.1,0-2-0.1-2.9-0.3c-0.9-0.2-1.7-0.5-2.3-0.8c-0.7-0.4-1.2-0.8-1.5-1.4C572.9,158.2,572.7,157.5,572.7,156.8 M576.2,156.2   c0,0.7,0.4,1.3,1.2,1.8c0.8,0.4,1.9,0.6,3.3,0.6c1.4,0,2.6-0.3,3.5-0.8c0.9-0.5,1.3-1.2,1.3-1.9c0-0.7-0.3-1.1-0.8-1.3   c-0.5-0.2-1.3-0.3-2.3-0.3H580c-1,0-1.8-0.1-2.4-0.2C576.7,154.7,576.2,155.4,576.2,156.2 M580.3,146c0.8,0,1.6-0.3,2.2-0.9   c0.6-0.6,0.9-1.4,0.9-2.5c0-1-0.3-1.9-0.9-2.4c-0.6-0.6-1.3-0.9-2.2-0.9s-1.6,0.3-2.2,0.9c-0.6,0.6-0.9,1.4-0.9,2.4   c0,1.1,0.3,1.9,0.9,2.5C578.7,145.7,579.5,146,580.3,146"></path>		<path class="st1" d="M565.8,46.9c0-3.6,3.1-6.6,7-6.6c3.9,0,7,2.9,7,6.6c0,3.6-3.1,6.6-7,6.6C568.9,53.4,565.8,50.5,565.8,46.9    M578.1,46.9c0-2.8-2.4-5.1-5.4-5.1c-3,0-5.4,2.3-5.4,5.1c0,2.8,2.4,5.1,5.4,5.1C575.7,51.9,578.1,49.7,578.1,46.9 M576.2,50.4   h-1.8l-1.6-2.8h-1.4v2.8h-1.6v-7h3.8c1.7,0,2.9,0.3,2.9,2.2c0,1.3-0.7,1.8-2.1,1.9L576.2,50.4z M573.5,46.4c0.8,0,1.3-0.2,1.3-1.1   c0-0.8-1-0.8-1.7-0.8h-1.8v1.9H573.5z"></path>	</g></g></svg>