<svg xmlns="http://www.w3.org/2000/svg" width="80" height="50" viewBox="0 0 80 50" fill="none"><g clip-path="url(#clip0_797_1560)"><path d="M37.9738 0.429688L39.3832 3.07682C39.7001 3.56532 40.0433 3.99771 40.4477 4.40039C41.6331 5.57101 42.738 6.82041 43.7549 8.14004C46.143 11.2757 47.7537 14.7579 48.904 18.5239C49.5938 20.8245 49.9684 23.1845 49.9965 25.5708C50.112 32.7052 47.6662 38.8313 42.735 43.9225C41.9329 44.7299 41.0664 45.4706 40.144 46.1373C39.6555 46.1373 39.4245 45.7627 39.2231 45.4177C38.8565 44.7781 38.6124 44.0757 38.5036 43.3466C38.3303 42.4834 38.2164 41.6203 38.2725 40.7291V40.3265C38.2329 40.2406 37.8022 0.632678 37.9738 0.429688V0.429688Z" fill="#333333"></path><path d="M37.9714 0.341933C37.9137 0.226409 37.8559 0.313877 37.7981 0.369988C37.8262 0.947605 37.6249 1.46251 37.3096 1.95431C36.9631 2.44281 36.5043 2.81743 36.0438 3.22011C33.4858 5.43486 31.4724 8.11005 29.86 11.1021C27.7146 15.1289 26.6089 19.4445 26.2953 23.9879C26.1517 25.6267 26.8135 31.4094 27.3301 33.0779C28.7395 37.5074 31.2711 41.219 34.5503 44.4405C35.3557 45.2161 36.2171 45.9357 37.1083 46.6272C37.3674 46.6272 37.3955 46.3961 37.4549 46.2245C37.5685 45.8572 37.6551 45.4821 37.714 45.1022L38.2916 40.7883L37.9714 0.341933Z" fill="#5A5A5A"></path><path d="M39.3829 47.8898C39.4406 47.2297 39.7575 46.6818 40.1024 46.1355C39.7558 45.992 39.4984 45.7064 39.297 45.3879C39.1234 45.0864 38.9797 44.7685 38.868 44.439C38.4653 43.2309 38.3795 41.9635 38.2639 40.729V39.9814C38.1204 40.097 38.0906 41.074 38.0906 41.2192C38.0067 42.5239 37.8335 43.8213 37.5724 45.1024C37.4866 45.6206 37.4289 46.1372 37.1104 46.5976C37.1104 46.6554 37.1104 46.7131 37.1384 46.799C37.6566 48.3239 37.7985 49.8768 37.886 51.4595V52.0371C37.886 52.727 37.858 52.5817 38.4306 52.8128C38.6617 52.8986 38.9191 52.9283 39.1502 53.0999C39.3235 53.0999 39.3515 52.9563 39.3515 52.8408L39.2657 51.8919V49.2448C39.2376 48.7827 39.3234 48.3239 39.3812 47.8915L39.3829 47.8898Z" fill="#C2BFBF"></path></g><defs><clipPath id="clip0_797_1560"><rect width="80" height="50" fill="white"></rect></clipPath></defs></svg>