<svg xmlns="http://www.w3.org/2000/svg" width="80" height="50" viewBox="0 0 80 50" fill="none"><path d="M56.8442 35.9066C54.6678 35.8514 52.9811 36.0726 51.5664 36.6805C51.1583 36.8461 50.5053 36.8463 50.4509 37.3715C50.6685 37.5926 50.6957 37.9519 50.8862 38.2558C51.213 38.8084 51.7839 39.5546 52.3009 39.9417C52.8721 40.3838 53.4436 40.8259 54.0419 41.2128C55.103 41.8762 56.3002 42.263 57.3339 42.9263C57.9326 43.313 58.5308 43.8108 59.1293 44.2252C59.4286 44.446 59.6189 44.8056 60 44.9437V44.8609C59.8094 44.612 59.755 44.2528 59.5647 43.9765C59.2929 43.7001 59.0205 43.4513 58.7484 43.1749C57.9595 42.0973 56.9802 41.1576 55.9192 40.3838C55.0487 39.7758 53.1442 38.9467 52.7906 37.9241C52.7906 37.9241 52.7633 37.8966 52.7362 37.869C53.3346 37.8137 54.0419 37.5926 54.6134 37.4267C55.5383 37.1778 56.3816 37.2333 57.3339 36.9845C57.7691 36.8739 58.2044 36.7357 58.6396 36.5975V36.349C58.1502 35.8514 57.7965 35.1883 57.2795 34.7184C55.892 33.5021 54.3684 32.3139 52.7906 31.3191C51.9472 30.7663 50.8588 30.407 49.9611 29.9373C49.6349 29.7713 49.0906 29.6885 48.9003 29.4121C48.4104 28.8042 48.1383 28.0028 47.7848 27.2842C46.9961 25.764 46.2341 24.0784 45.5539 22.4756C45.0644 21.3977 44.7652 20.3197 44.1666 19.325C41.3644 14.6268 38.3174 11.7803 33.6383 8.98888C32.6316 8.40861 31.4346 8.15986 30.1559 7.85598C29.476 7.82819 28.7957 7.77307 28.1156 7.74527C27.6803 7.55179 27.245 7.0268 26.8641 6.77805C25.3137 5.78303 21.3142 3.62764 20.1716 6.47418C19.437 8.27041 21.26 10.039 21.8854 10.9513C22.3483 11.5868 22.9466 12.3053 23.2731 13.0239C23.4635 13.4935 23.5178 13.9913 23.7082 14.4886C24.1437 15.7043 24.5515 17.0588 25.1231 18.192C25.4223 18.7722 25.7487 19.3802 26.1296 19.9053C26.3473 20.2092 26.728 20.3475 26.8098 20.8449C26.429 21.3977 26.4017 22.2268 26.1839 22.9177C25.2045 26.0406 25.5856 29.9096 26.9729 32.2034C27.4081 32.894 28.442 34.4145 29.8294 33.8339C31.0538 33.3366 30.7817 31.7613 31.1351 30.3795C31.2171 30.0475 31.1626 29.8267 31.3257 29.6056V29.661C31.7066 30.4346 32.0874 31.181 32.4411 31.9548C33.2846 33.3088 34.7535 34.7184 35.9777 35.6581C36.6309 36.1553 37.1476 37.0121 37.9639 37.3162V37.2331H37.9093C37.7461 36.9843 37.5012 36.8739 37.2837 36.6803C36.7941 36.1831 36.2498 35.5751 35.869 35.0223C34.7266 33.4745 33.7197 31.7611 32.822 29.9924C32.3868 29.1359 32.0058 28.1961 31.6522 27.3395C31.4888 27.0075 31.4888 26.5103 31.2169 26.3446C30.8088 26.9525 30.2104 27.4777 29.9111 28.2238C29.3944 29.4121 29.3398 30.8768 29.1494 32.3967C29.0406 32.4246 29.0948 32.3967 29.0404 32.4523C28.1701 32.2309 27.8708 31.3191 27.5441 30.5452C26.7279 28.5831 26.5918 25.4325 27.2994 23.1664C27.4898 22.586 28.3061 20.7621 27.9796 20.2093C27.8163 19.6842 27.272 19.3802 26.9729 18.9657C26.6193 18.4406 26.2383 17.7775 25.9936 17.197C25.3406 15.6493 25.0141 13.9358 24.3068 12.3882C23.9803 11.6696 23.4092 10.9236 22.9466 10.2603C22.4298 9.51418 21.8584 8.98888 21.4503 8.10458C21.3144 7.8007 21.1238 7.3032 21.3414 6.97153C21.3958 6.75041 21.5045 6.66765 21.7223 6.61237C22.0761 6.30818 23.0828 6.69513 23.4361 6.86097C24.4428 7.27524 25.2861 7.66251 26.1296 8.24278C26.5104 8.51917 26.9185 9.04432 27.4081 9.18251H27.9794C28.8501 9.37583 29.8293 9.23779 30.6455 9.48639C32.0876 9.9561 33.3932 10.6471 34.5632 11.3933C38.1271 13.6871 41.065 16.9482 43.0512 20.8449C43.3777 21.4803 43.5136 22.061 43.8129 22.724C44.3844 24.0784 45.0916 25.4602 45.6627 26.7867C46.2341 28.0854 46.7781 29.4121 47.5943 30.4901C48.0025 31.0702 49.6346 31.3743 50.3693 31.6784C50.9134 31.927 51.7569 32.1483 52.2465 32.4521C53.1714 33.0322 54.0963 33.6959 54.967 34.3313C55.4023 34.663 56.7624 35.3539 56.8442 35.9066V35.9066Z" fill="black"></path><path d="M29.0947 11.8906C28.6323 11.8906 28.306 11.9462 27.9795 12.029V12.0843H28.0339C28.2517 12.5265 28.6323 12.8305 28.9043 13.2173C29.1221 13.6594 29.3124 14.1018 29.5302 14.544C29.5573 14.5162 29.5845 14.4887 29.5845 14.4887C29.9655 14.2122 30.1558 13.7701 30.1558 13.1068C29.9926 12.9134 29.9654 12.72 29.8293 12.5265C29.6662 12.2499 29.3124 12.1119 29.0947 11.8906V11.8906Z" fill="black"></path></svg>