<svg xmlns="http://www.w3.org/2000/svg" width="80" height="50" viewBox="0 0 80 50" fill="none"><path d="M43.7305 4C43.4268 4 43.1447 4.06534 42.8844 4.15245C43.4376 4.52268 43.7413 5.0127 43.8932 5.56806C43.904 5.64428 43.9257 5.69873 43.9366 5.77495C43.9474 5.84029 43.9582 5.90562 43.9582 5.97096C44.0017 6.92921 43.7088 7.04899 43.5027 7.61524C43.1881 8.34482 43.2749 9.12885 43.6545 9.76043C43.6871 9.83665 43.7305 9.92376 43.7847 9.99999C43.3725 7.245 45.6612 6.83121 46.0842 5.97096C46.1167 5.2196 45.4985 4.71869 45.0104 4.37023C44.544 4.08711 44.1209 4 43.7305 4ZM47.1797 4.62069C47.1363 4.87114 47.1689 4.80581 47.158 4.93648C47.1472 5.02359 47.1472 5.13249 47.1364 5.2196C47.1147 5.30671 47.093 5.39382 47.0604 5.48094C47.0388 5.56806 47.0062 5.65517 46.9737 5.74228C46.9303 5.8294 46.8977 5.90562 46.8544 5.99274C46.8218 6.03631 46.8001 6.07985 46.7676 6.12341C46.7459 6.15608 46.7242 6.18874 46.7025 6.22141C46.6483 6.29764 46.594 6.37386 46.5398 6.4392C46.4747 6.50453 46.4205 6.58076 46.3446 6.63521C46.3446 6.64611 46.3446 6.64611 46.3446 6.64611C46.2795 6.70056 46.2144 6.76589 46.1385 6.82034C45.9107 6.99456 45.6504 7.12523 45.4117 7.28857C45.3358 7.34302 45.2599 7.38658 45.1948 7.45191C45.1189 7.50636 45.0538 7.5608 44.9887 7.62614C44.9128 7.69148 44.8586 7.75681 44.7935 7.83304C44.7392 7.89838 44.6742 7.9746 44.6308 8.05083C44.5765 8.12705 44.5223 8.20327 44.4789 8.2795C44.4355 8.36661 44.403 8.44284 44.3596 8.52995C44.3271 8.61706 44.2945 8.69329 44.2728 8.7804C44.2403 8.87841 44.2186 8.96552 44.1969 9.05264C44.186 9.09621 44.186 9.15064 44.1752 9.1942C44.1644 9.23777 44.1644 9.28131 44.1536 9.32487C44.1536 9.41198 44.1427 9.50999 44.1427 9.5971C44.1427 9.66244 44.1427 9.72777 44.1536 9.79311C44.1536 9.88022 44.1644 9.96733 44.1861 10.0653C44.197 10.1524 44.2186 10.2396 44.2403 10.3267C44.2729 10.4138 44.2946 10.5009 44.3271 10.588C44.3488 10.6425 44.3813 10.6969 44.403 10.7405L41.9083 9.77133C41.4853 9.65154 41.0731 9.54265 40.6501 9.44465C40.4223 9.39021 40.1945 9.33576 39.9667 9.28131C39.3159 9.15064 38.6543 9.05264 37.9926 8.9873C37.9709 8.9873 37.9601 8.9764 37.9384 8.9764C37.2876 8.91106 36.6476 8.8784 35.9968 8.8784C35.5196 8.8784 35.0423 8.90016 34.5759 8.93284C33.9142 8.97642 33.2526 9.06351 32.5909 9.1724C32.4282 9.19416 32.2655 9.22685 32.1028 9.25952C31.7666 9.32485 31.4412 9.40108 31.1266 9.47731C30.9639 9.52088 30.8012 9.56442 30.6385 9.60797C30.4758 9.67331 30.324 9.74954 30.1721 9.81487C30.0528 9.86932 29.9335 9.92376 29.8142 9.97821C29.7925 9.98912 29.7708 9.98912 29.7599 9.99998C29.6515 10.0544 29.5539 10.098 29.4562 10.1524C29.4237 10.1633 29.402 10.1742 29.3803 10.1851C29.261 10.2395 29.1417 10.3049 29.0441 10.3593C28.9681 10.392 28.8922 10.4355 28.8271 10.4682C28.7946 10.49 28.7512 10.5118 28.7295 10.5227C28.6319 10.5771 28.5343 10.6315 28.4475 10.686C28.3499 10.7404 28.2631 10.7949 28.1872 10.8493C28.1112 10.9038 28.0353 10.9473 27.9702 11.0018C27.9594 11.0127 27.9486 11.0127 27.9377 11.0235C27.8726 11.0671 27.7967 11.1215 27.7316 11.176C27.7316 11.176 27.7207 11.1869 27.7099 11.1978C27.6557 11.2413 27.6015 11.2849 27.5472 11.3284C27.5255 11.3393 27.5038 11.3611 27.4821 11.372C27.4279 11.4156 27.3737 11.47 27.3194 11.5136C27.3086 11.5353 27.2869 11.5462 27.276 11.5571C27.211 11.6225 27.1459 11.6769 27.0808 11.7423C27.0699 11.7423 27.0699 11.7532 27.0591 11.764C26.994 11.8185 26.929 11.8838 26.8639 11.9491C26.853 11.96 26.853 11.9709 26.8422 11.9709C26.788 12.0253 26.7337 12.0798 26.6795 12.1451C26.6578 12.1669 26.6253 12.1887 26.6036 12.2105C26.5493 12.2758 26.4843 12.3411 26.4192 12.4065C26.4083 12.4282 26.3866 12.4391 26.3758 12.4609C26.289 12.548 26.2131 12.6351 26.1263 12.7223C26.1154 12.7332 26.1046 12.744 26.0938 12.7549C25.9202 12.94 25.7358 13.1252 25.5406 13.2885C25.3453 13.4627 25.1393 13.6261 24.9332 13.7676C24.7162 13.9201 24.5101 14.0507 24.2824 14.1814C24.0654 14.3012 23.8376 14.4101 23.599 14.5081C23.3712 14.6061 23.1326 14.6932 22.894 14.7694C22.4384 14.8674 21.972 15.0526 21.5707 15.0852C21.4839 15.0852 21.3863 15.107 21.2995 15.1179C21.2019 15.1397 21.1151 15.1615 21.0283 15.1832C20.9416 15.2159 20.8548 15.2486 20.768 15.2812C20.6812 15.3139 20.5945 15.3575 20.5077 15.401C20.4318 15.4555 20.345 15.499 20.2691 15.5535C20.1931 15.6079 20.1172 15.6732 20.0521 15.7386C19.9762 15.793 19.9003 15.8693 19.8352 15.9346C19.7701 16.0108 19.705 16.0762 19.6508 16.1524C19.5966 16.2395 19.5315 16.3157 19.4881 16.4028C19.4339 16.4791 19.3796 16.5662 19.3362 16.6533C19.2928 16.7513 19.2495 16.8384 19.2169 16.9364C19.1844 17.0235 19.1519 17.1215 19.1193 17.2195C19.0976 17.3066 19.0759 17.3938 19.0651 17.4809C19.0651 17.4918 19.0542 17.5026 19.0542 17.5135C19.0325 17.6115 19.0325 17.7422 19.0217 17.8075C19.0108 17.8838 19 17.9491 19 18.0253C19 18.0689 19 18.1233 19.0109 18.1669C19.0217 18.2431 19.0325 18.3085 19.0543 18.3738C19.0759 18.4391 19.0977 18.5045 19.1302 18.5698C19.1302 18.5807 19.1302 18.5807 19.1302 18.5807C19.1627 18.646 19.2061 18.7114 19.2495 18.7767C19.2929 18.842 19.3363 18.9074 19.3905 18.9727C19.4447 19.0272 19.5098 19.0925 19.5749 19.1469C19.64 19.2123 19.7051 19.2667 19.781 19.3212C20.0413 19.5498 20.1064 19.6261 20.4426 19.8003C20.4969 19.833 20.5511 19.8547 20.6162 19.8874C20.6271 19.8874 20.6379 19.8983 20.6487 19.8983C20.6487 19.9201 20.6487 19.931 20.6596 19.9528C20.6705 20.0399 20.6921 20.127 20.7138 20.2141C20.7355 20.3121 20.7681 20.3992 20.8006 20.4755C20.8332 20.5408 20.8548 20.6061 20.8874 20.6715C20.8983 20.6932 20.9091 20.715 20.9199 20.7259C20.9633 20.813 21.0067 20.8893 21.0501 20.9655C21.1043 21.0417 21.1586 21.1179 21.2128 21.1941C21.267 21.2595 21.3321 21.3357 21.3972 21.401C21.4623 21.4664 21.5273 21.5208 21.6033 21.5862C21.6033 21.5862 21.6141 21.5971 21.6249 21.5971C21.69 21.6515 21.7551 21.706 21.8202 21.7495C21.8961 21.804 21.972 21.8475 22.0588 21.8911C22.1347 21.9347 22.2215 21.9782 22.3083 22.0109C22.3734 22.0435 22.4493 22.0653 22.5252 22.0871C22.5361 22.098 22.5469 22.098 22.5686 22.1089C22.612 22.1198 22.6662 22.1306 22.7096 22.1415C22.6771 22.7295 22.6662 23.2849 22.753 23.4809C22.8507 23.6987 23.3279 23.0344 23.8052 22.2722C23.7401 23.0236 23.6967 23.9056 23.8052 24.1669C23.9245 24.4392 24.5753 23.5898 25.1393 22.6533C32.8296 20.8675 39.8475 26.2032 40.5851 33.7386C40.4441 32.5625 39.0014 31.9092 38.3398 32.0725C38.0144 32.8783 37.4612 33.9128 36.5718 34.5553C36.6477 33.8366 36.6152 33.0961 36.4633 32.3774C36.2247 33.3792 35.7583 34.3157 35.1183 35.1215C34.0879 35.1978 33.0574 34.6968 32.5151 33.9455C32.4717 33.9128 32.4609 33.8475 32.4283 33.8039C32.3958 33.7277 32.3632 33.6515 32.3415 33.5752C32.309 33.499 32.2873 33.4228 32.2765 33.3466C32.2656 33.2704 32.2656 33.1941 32.2656 33.107C32.2656 33.0526 32.2656 32.9981 32.2656 32.9437C32.2765 32.8674 32.2981 32.7912 32.3198 32.715C32.3415 32.6388 32.3632 32.5625 32.3958 32.4863C32.4392 32.4101 32.4717 32.3339 32.5259 32.2577C32.7103 31.735 32.7103 31.3103 32.3741 31.0598C32.309 31.0163 32.2439 30.9836 32.168 30.9509C32.1246 30.94 32.0704 30.9183 32.027 30.9074C31.9944 30.8965 31.9727 30.8856 31.9402 30.8747C31.8643 30.8529 31.7883 30.8311 31.7124 30.8202C31.6365 30.7985 31.5606 30.7876 31.4846 30.7876C31.4087 30.7767 31.3219 30.7658 31.246 30.7658C31.1918 30.7658 31.1375 30.7767 31.0833 30.7767C30.9965 30.7767 30.9206 30.7876 30.8447 30.8094C30.7688 30.8203 30.6928 30.8312 30.6169 30.853C30.541 30.8747 30.465 30.8965 30.3891 30.9292C30.3132 30.9619 30.2481 30.9945 30.1722 31.0272C30.1071 31.0599 30.042 31.1034 29.9661 31.1361C27.4388 32.7913 28.9465 36.6678 30.6711 37.7894C30.0203 37.9092 29.3587 38.0508 29.1743 38.1923C29.1634 38.2032 29.1526 38.2141 29.1526 38.2141C29.619 38.4972 30.1071 38.7368 30.6169 38.9437C31.3111 39.1723 32.0487 39.3792 32.3741 39.4664V39.4773C33.2744 39.6624 34.1855 39.7277 35.1075 39.6733C39.9126 39.3357 43.8499 35.666 44.5658 30.8312C44.5875 30.9292 44.6092 31.0163 44.6309 31.1143C44.6634 31.3103 44.7068 31.5172 44.7285 31.7241C44.7285 31.7241 44.7285 31.7241 44.7285 31.735C44.7502 31.833 44.7611 31.931 44.7719 32.0181C44.7719 32.0399 44.7719 32.0508 44.7719 32.0617C44.7828 32.1597 44.7936 32.2577 44.7936 32.3448C44.8045 32.4646 44.8153 32.5844 44.8153 32.7042C44.8153 32.7586 44.8153 32.8131 44.8153 32.8784C44.8153 32.9329 44.8261 32.9982 44.8261 33.0526C44.8261 33.118 44.8153 33.1833 44.8153 33.2486C44.8153 33.3031 44.8153 33.3575 44.8153 33.4011C44.8153 33.4773 44.8044 33.5427 44.8044 33.6189C44.8044 33.6625 44.8044 33.706 44.7935 33.7604C44.7935 33.8367 44.7827 33.9129 44.7827 34C44.7718 34.0327 44.7718 34.0653 44.7718 34.098C44.7609 34.1851 44.7501 34.2614 44.7393 34.3485C44.7393 34.3811 44.7393 34.4138 44.7284 34.4465C44.7175 34.5554 44.6959 34.6534 44.685 34.7623V34.7732V34.7841C44.6633 34.8821 44.6416 34.991 44.6199 35.089C44.6199 35.0999 44.6199 35.1107 44.6199 35.1216C44.5982 35.2196 44.5765 35.3177 44.5548 35.4157C44.5548 35.4266 44.544 35.4483 44.544 35.4592C44.5223 35.5572 44.5006 35.6552 44.468 35.7532C44.468 35.7641 44.468 35.775 44.468 35.7859C44.4355 35.8948 44.403 35.9928 44.3813 36.0908C44.3704 36.1017 44.3704 36.1126 44.3704 36.1126C44.3379 36.2215 44.3053 36.3304 44.2728 36.4392C44.2294 36.5481 44.1969 36.6461 44.1535 36.755C44.1101 36.8639 44.0776 36.9728 44.0342 37.0708C43.9908 37.1797 43.9474 37.2777 43.904 37.3866H43.8931C43.8497 37.4846 43.8063 37.5935 43.7521 37.6915C43.7413 37.7242 43.7304 37.746 43.7196 37.7677C43.7087 37.7787 43.7087 37.7895 43.6979 37.8004C42.9929 39.2269 41.9516 40.4792 40.65 41.4592C40.5632 41.5136 40.4764 41.579 40.3897 41.6443C40.368 41.6661 40.3354 41.677 40.3137 41.6988C40.2378 41.7532 40.1619 41.8076 40.0751 41.8621L40.1076 41.9274H40.1185C40.2703 41.9057 40.4222 41.8839 40.5741 41.8621H40.5849C40.8669 41.8185 41.1489 41.7641 41.431 41.7097C41.5069 41.6987 41.5937 41.677 41.6696 41.6552C41.7238 41.6443 41.7672 41.6334 41.8214 41.6225C41.8974 41.6116 41.9733 41.5899 42.0492 41.579C42.1143 41.5572 42.1794 41.5463 42.2445 41.5245C43.3291 41.2632 44.3813 40.9038 45.39 40.4791C43.6654 42.8421 41.355 44.7477 38.6542 46C39.9016 45.9129 41.1489 45.706 42.3529 45.3575C46.7242 44.0617 50.4012 41.1107 52.6031 37.1361C52.1584 39.6516 51.1605 42.0472 49.6853 44.1379C50.7375 43.441 51.7028 42.6352 52.5814 41.7205C55.0111 39.1724 56.6055 35.9383 57.1479 32.4646C57.5167 34.1851 57.6251 35.9601 57.4624 37.7133C65.2938 26.7478 58.1132 15.3794 55.1087 12.3848C55.0978 12.3631 55.087 12.3522 55.087 12.3304C55.0761 12.3413 55.0761 12.3413 55.0761 12.3521C55.0761 12.3412 55.0761 12.3412 55.0653 12.3304C55.0653 12.4611 55.0544 12.5917 55.0436 12.7224C55.0111 12.9729 54.9785 13.2124 54.9351 13.452C54.8809 13.6915 54.8158 13.9311 54.7507 14.1707C54.6748 14.3993 54.588 14.6389 54.4904 14.8676C54.3928 15.0854 54.2843 15.314 54.165 15.5318C54.0457 15.7387 53.9155 15.9565 53.7745 16.1525C53.6335 16.3594 53.4817 16.5554 53.3298 16.7405C53.1671 16.9365 52.9936 17.1108 52.82 17.285C52.7116 17.383 52.6139 17.4701 52.5055 17.5572C52.4187 17.6335 52.3428 17.6988 52.256 17.775C52.0607 17.9275 51.8655 18.069 51.6486 18.1997C51.4425 18.3304 51.2256 18.461 51.0086 18.5699C50.7808 18.6788 50.5531 18.7768 50.3253 18.8748C50.0975 18.9619 49.8589 19.0382 49.6202 19.1035C49.3816 19.1688 49.1321 19.2233 48.8935 19.2668C48.644 19.3104 48.3946 19.3322 48.1559 19.354C47.9824 19.3649 47.8088 19.3757 47.6353 19.3757C47.3858 19.3757 47.1363 19.354 46.8977 19.3322C46.6482 19.3104 46.3988 19.2777 46.1601 19.2233C45.9107 19.1797 45.672 19.1144 45.4334 19.0381H45.4225C45.6612 19.0164 45.8998 18.9946 46.1384 18.951C46.3879 18.9074 46.6265 18.853 46.8652 18.7877C47.1038 18.7223 47.3424 18.6461 47.5702 18.559C47.8088 18.4719 48.0366 18.363 48.2535 18.2541C48.4813 18.1452 48.6874 18.0254 48.9043 17.8948C49.1104 17.7532 49.3165 17.6116 49.5118 17.4592C49.707 17.3067 49.8914 17.1434 50.0649 16.9692C50.2493 16.8058 50.412 16.6207 50.5747 16.4356C50.7374 16.2396 50.8893 16.0436 51.0303 15.8476C51.052 15.8149 51.0737 15.7714 51.0954 15.7387C51.2038 15.5645 51.3123 15.3902 51.4099 15.216C51.5292 14.9982 51.6377 14.7804 51.7353 14.5518C51.833 14.3231 51.9197 14.0944 51.9957 13.8548C52.0716 13.6262 52.1258 13.3866 52.1801 13.147C52.2235 12.8966 52.2668 12.657 52.2885 12.4175C52.3102 12.167 52.3319 11.9166 52.3319 11.677C52.3319 11.5028 52.321 11.3285 52.3102 11.1543C52.2886 10.9039 52.256 10.6643 52.2235 10.4247C52.1801 10.1743 52.1259 9.93471 52.0608 9.69514C51.9848 9.46647 51.9089 9.22691 51.8221 8.99824C51.7354 8.76956 51.6269 8.54088 51.5184 8.3231C51.3991 8.10531 51.2798 7.88753 51.1496 7.68063C51.0086 7.47374 50.8676 7.27773 50.7158 7.08172C50.5531 6.89661 50.3904 6.71149 50.2168 6.52637C50.1301 6.43926 50.0324 6.34125 49.9348 6.25414C49.4467 5.87301 48.9369 5.51367 48.4271 5.18699C48.3512 5.14342 48.2861 5.11077 48.2102 5.0781C47.8522 4.84942 47.516 4.72964 47.1797 4.62075L47.1797 4.62069Z" fill="black"></path></svg>