<svg xmlns="http://www.w3.org/2000/svg" width="80" height="50" viewBox="0 0 80 50" fill="none"><path d="M63 26.6637C62.9097 26.91 62.6798 27.0003 62.4745 27.1153C61.8258 27.493 61.1689 27.8625 60.5202 28.2403C60.2985 28.3634 60.126 28.2649 60.126 28.0103C60.126 27.4191 60.1178 26.8361 60.126 26.2449C60.126 26.0971 60.0768 25.9903 59.9372 25.9164C59.2556 25.5469 58.5741 25.1692 57.8925 24.8079C57.8022 24.7586 57.6544 24.7586 57.5723 24.7997C56.8743 25.1692 56.1846 25.5469 55.4948 25.9247C55.3799 25.9903 55.3306 26.0807 55.3306 26.2121C55.3306 26.9593 55.3306 27.6983 55.3306 28.4455C55.3306 28.5933 55.3963 28.6837 55.5277 28.7494C56.9564 29.5212 58.3934 30.2931 59.8222 31.0732C59.929 31.1307 60.0357 31.1799 60.1342 31.2374C60.2492 31.2949 60.3231 31.377 60.3313 31.5166C60.3313 31.6562 60.2492 31.7301 60.1342 31.7876C59.5677 32.0996 59.0011 32.4116 58.4345 32.7237C58.2621 32.814 58.0978 32.9043 57.9254 32.9864C57.7529 33.0685 57.5887 33.0275 57.4163 32.9372C56.357 32.3541 55.2895 31.7711 54.2303 31.1881C53.754 30.9336 53.286 30.6708 52.8097 30.4081C52.5716 30.2849 52.4566 30.096 52.4566 29.825C52.4566 28.1581 52.4566 26.4995 52.4566 24.8408C52.4566 24.5698 52.5634 24.3809 52.8097 24.2495C54.3288 23.4202 55.8397 22.5826 57.3588 21.7533C57.6134 21.6137 57.8515 21.6219 58.0978 21.7533C59.6251 22.5908 61.1524 23.4284 62.688 24.266C62.844 24.3563 62.9343 24.4877 63 24.6437C63 25.3252 63 25.9903 63 26.6637ZM48.6219 22.8618C48.6219 22.7879 48.6219 22.7222 48.6219 22.673C48.6219 20.2096 48.6219 17.7461 48.6219 15.2827C48.6219 15.0282 48.8026 14.9297 49.0243 15.0528C49.7222 15.447 50.4202 15.8247 51.1182 16.2106C51.1839 16.2517 51.2496 16.2845 51.3152 16.3256C51.463 16.4405 51.4959 16.5966 51.4959 16.7608C51.5041 17.2124 51.4959 17.664 51.4959 18.1157C51.4959 22.0078 51.4959 25.9 51.5041 29.8004C51.5041 30.0796 51.3974 30.2767 51.1428 30.4163C50.1082 30.9746 49.0735 31.5412 48.0389 32.1078C47.5627 32.3624 47.0864 32.6333 46.6101 32.9043C46.3638 33.0439 46.1257 33.0603 45.8711 32.9125C45.1075 32.4855 44.3356 32.075 43.5719 31.648C42.8165 31.2374 42.0693 30.8186 41.3138 30.4081C41.0675 30.2849 40.9525 30.096 40.9525 29.8168C40.9607 28.1664 40.9607 26.5159 40.9525 24.8654C40.9525 24.578 41.0675 24.3727 41.322 24.2331C41.864 23.9375 42.4059 23.6419 42.9479 23.3463C43.8019 22.87 44.664 22.4102 45.5262 21.9421C45.6494 21.8765 45.7644 21.8108 45.8875 21.7369C46.1092 21.6055 46.3392 21.6219 46.5609 21.7369C47.2178 22.0982 47.8747 22.4595 48.5316 22.8126C48.5562 22.829 48.5809 22.8454 48.6219 22.8618ZM48.6219 27.3288C48.6219 26.9511 48.6219 26.5734 48.6301 26.2038C48.6301 26.0725 48.5727 25.9903 48.4659 25.9247C47.7844 25.5551 47.1028 25.1692 46.4049 24.8079C46.3145 24.7586 46.1667 24.7586 46.0682 24.7997C45.8547 24.89 45.6494 25.0214 45.4441 25.1282C45.0089 25.3663 44.5737 25.6126 44.1303 25.8425C43.9168 25.9493 43.8183 26.0807 43.8265 26.3352C43.8429 27.0168 43.8347 27.6983 43.8265 28.3881C43.8265 28.5687 43.8922 28.6837 44.0564 28.7658C44.7133 29.1189 45.362 29.4802 46.0107 29.8415C46.1585 29.9236 46.2899 29.94 46.4377 29.8415C46.5773 29.7511 46.7333 29.6772 46.8729 29.5951C47.3984 29.3077 47.924 29.0203 48.4495 28.7411C48.5809 28.6672 48.6219 28.5605 48.6219 28.4209C48.6219 28.0596 48.6219 27.6901 48.6219 27.3288ZM17 28.2567C17 27.1071 17 25.9493 17 24.7915C17 24.5534 17.1067 24.3809 17.312 24.2742C18.1085 23.8308 18.9132 23.3956 19.7097 22.9521C20.4488 22.5498 21.196 22.1474 21.935 21.7451C22.1567 21.6219 22.3866 21.6137 22.6084 21.7369C23.9961 22.4923 25.3756 23.256 26.7551 24.0114C26.9193 24.0935 27.0753 24.1838 27.2313 24.2742C27.4448 24.3809 27.5352 24.5616 27.5434 24.7915C27.5434 24.8572 27.5434 24.9229 27.5434 24.9968C27.5434 27.2303 27.5434 29.4637 27.5434 31.6972C27.5434 31.7383 27.5434 31.7876 27.5434 31.8368C27.5187 32.0421 27.3545 32.1324 27.1739 32.0339C26.7469 31.7876 26.3281 31.5494 25.9093 31.3031C25.5891 31.1224 25.277 30.9336 24.9568 30.7611C24.7515 30.6462 24.6694 30.4902 24.6694 30.2602C24.6694 28.9382 24.6694 27.6162 24.6694 26.2942C24.6694 26.0971 24.6119 25.9739 24.4313 25.8836C23.7908 25.5469 23.1585 25.1938 22.5262 24.8408C22.362 24.7504 22.206 24.734 22.0336 24.8325C21.3684 25.2021 20.7033 25.5634 20.0382 25.9247C19.915 25.9903 19.874 26.0889 19.874 26.2285C19.874 27.5751 19.874 28.9218 19.874 30.2685C19.874 30.4737 19.8001 30.638 19.6112 30.7447C18.864 31.1717 18.125 31.5987 17.3777 32.0257C17.1724 32.1406 17.0082 32.0421 17 31.804C17 31.7794 17 31.7465 17 31.7219C17 30.5641 17 29.4145 17 28.2567ZM58.6069 27.337C58.6069 27.4684 58.6151 27.5916 58.6069 27.7229C58.5987 27.7722 58.5659 27.8297 58.5248 27.8543C58.2949 27.9857 58.065 28.1089 57.8351 28.232C57.7612 28.2813 57.6873 28.2813 57.6051 28.232C57.3916 28.1007 57.1699 27.9857 56.9564 27.8707C56.8743 27.8297 56.8497 27.7722 56.8497 27.6901C56.8497 27.452 56.8497 27.2056 56.8497 26.9593C56.8497 26.8772 56.8743 26.8279 56.9482 26.7951C57.1782 26.6719 57.4081 26.5405 57.638 26.4173C57.6873 26.3927 57.7694 26.3927 57.8186 26.4255C58.0568 26.5405 58.2785 26.6719 58.5166 26.7951C58.5823 26.8361 58.6069 26.8772 58.6069 26.9511C58.6069 27.0825 58.6069 27.2056 58.6069 27.337ZM28.5041 25.3581C28.5041 26.7212 28.5041 28.0842 28.5041 29.4473L29.703 27.3452L28.5041 25.3581ZM37.4791 26.8361L38.8915 24.4302C38.8422 24.3727 38.7683 24.3317 38.6862 24.2824C37.824 23.8143 36.9618 23.3381 36.0996 22.87C35.5905 22.5908 35.0814 22.3117 34.5723 22.0325L37.4791 26.8361ZM37.7747 27.3206L39.0475 29.4145C39.0475 27.9939 39.0475 26.5734 39.0475 25.1528L37.7747 27.3206ZM29.9986 27.8297L28.6026 30.2685C28.6765 30.3752 28.8079 30.4327 28.9229 30.4984C29.7604 30.9582 30.6062 31.4181 31.4438 31.8779C31.9447 32.1571 32.4538 32.4363 32.9547 32.7072L29.9986 27.8297ZM33.7758 21.6794C33.6608 21.6794 33.5541 21.7122 33.4391 21.7697C32.5112 22.287 31.5752 22.7961 30.6391 23.3052C30.0314 23.6419 29.4156 23.9786 28.7997 24.3152C28.7012 24.3645 28.6273 24.4384 28.5698 24.5205L33.7594 33.0767C33.8743 33.0767 33.9811 33.0439 34.096 32.9864C34.9418 32.5184 35.7876 32.0503 36.6333 31.5905C37.3395 31.2046 38.0375 30.8186 38.7437 30.4327C38.8422 30.3752 38.9079 30.3095 38.9572 30.2356L33.7758 21.6794Z" fill="black"></path></svg>