<svg xmlns="http://www.w3.org/2000/svg" width="80" height="50" viewBox="0 0 80 50" fill="none"><path d="M30.0781 21.4375H28.3906L27.4063 26.3594H28.9531C29.9375 26.3594 30.7812 26.2188 31.3437 25.7969C31.9062 25.375 32.1875 24.8125 32.3281 23.8281C32.4687 22.9844 32.4687 22.2813 32.0469 22C31.7656 21.5781 31.0625 21.4375 30.0781 21.4375ZM39.5 13C27.125 13 17 18.3438 17 24.8125C17 31.2813 27.125 36.625 39.5 36.625C51.875 36.625 62 31.2813 62 24.8125C62 18.3438 51.875 13 39.5 13ZM33.4531 26.9219C33.0312 27.3438 32.3281 27.7656 31.7656 27.9063C31.2031 28.0469 30.3594 28.1875 29.375 28.1875H26.9844L26.4219 31.2813H23.8906L26.1406 19.4688H31.0625C32.6094 19.4688 33.5938 19.8906 34.2969 20.5938C35 21.4375 35.1406 22.4219 34.8594 23.8281C34.7187 24.3906 34.5781 24.9531 34.2969 25.375C34.1563 26.0781 33.875 26.5 33.4531 26.9219ZM40.9062 28.3281L41.8906 23.125C42.0313 22.5625 42.0313 22.1406 41.75 21.8594C41.6094 21.5781 41.1875 21.5781 40.4844 21.5781H38.375L37.1094 28.3281H34.5781L36.8281 16.5156H39.5L38.9375 19.6094H41.1875C42.5938 19.6094 43.5781 19.8906 44.1406 20.3125C44.7031 20.875 44.8438 21.5781 44.7031 22.7031L43.5781 28.1875L40.9062 28.3281ZM55.1094 24.1094C54.9688 24.6719 54.8281 25.2344 54.5469 25.6563C54.2656 26.0781 53.9844 26.6406 53.5625 26.9219C53.1406 27.3438 52.4375 27.7656 51.875 27.9063C51.3125 28.0469 50.4688 28.1875 49.4844 28.1875H47.2344L46.5312 31.4219H44L46.25 19.6094H51.1719C52.7187 19.6094 53.7031 20.0313 54.4063 20.7344C55.25 21.5781 55.3906 22.7031 55.1094 24.1094ZM50.3281 21.4375H48.5L47.5156 26.3594H49.0625C50.0469 26.3594 50.8906 26.2188 51.4531 25.7969C52.0156 25.375 52.2969 24.8125 52.4375 23.8281C52.5781 22.9844 52.5781 22.2813 52.1562 22C52.0156 21.5781 51.3125 21.4375 50.3281 21.4375Z" fill="black"></path></svg>