<svg xmlns="http://www.w3.org/2000/svg" width="80" height="50" viewBox="0 0 80 50" fill="none"><path d="M60.5953 30.3019C60.0265 30.2397 59.4931 30.3819 59.022 30.5064L58.7731 30.5686C57.2442 30.9419 55.8487 30.7641 54.862 30.1508C55.0398 30.1064 55.2442 29.9819 55.422 29.6797C57.8576 25.5997 59.9731 21.893 61.1731 17.7419C62.0531 14.6841 62.2309 11.9019 61.7065 9.48415C61.0487 6.48859 59.2265 3.99081 56.8353 2.79081C55.7687 2.24859 54.5065 1.92859 53.0842 1.82193C50.4976 1.62637 47.8131 2.19526 45.5198 3.42193C45.4665 3.40415 45.4042 3.37748 45.3509 3.3597C40.4265 1.5997 36.6398 1.77748 34.1153 3.87526C33.9998 3.96415 33.902 4.0797 33.7953 4.17748C33.0398 3.8397 32.5331 3.62637 31.5998 3.2797C29.7065 2.56859 28.1153 2.19526 26.5953 2.12415C23.3065 1.97304 20.3109 3.41304 18.9776 5.80415C18.2309 7.14637 18.0176 8.70193 17.902 10.1686C17.342 17.253 18.5776 24.4264 21.4753 30.9064C22.0087 32.0886 22.622 33.3064 23.5998 34.2219C24.4887 35.0575 25.5998 35.5197 26.6576 35.5197C26.9509 35.5197 27.2442 35.4841 27.5198 35.413C28.3287 35.1997 28.9953 34.7019 29.5465 34.2397C30.9953 33.0219 32.2131 31.5641 33.1642 29.9197C33.182 29.893 33.182 29.8664 33.1909 29.8397C33.2798 29.8841 33.3598 29.9553 33.4487 29.9997C33.8576 30.213 34.2931 30.373 34.7376 30.5064C34.8087 30.5686 34.8709 30.6397 34.9598 30.6753C35.0398 30.7019 35.1287 30.7108 35.2176 30.7108C35.2798 30.7108 35.3331 30.693 35.3953 30.6841C35.5998 30.7375 35.8131 30.7997 36.0176 30.853C35.9642 30.9953 35.9287 31.1553 35.9553 31.3064C35.2176 32.6575 33.8309 33.6708 32.3198 33.9108L32.1687 33.9286C31.6976 33.9997 31.102 34.0886 30.6931 34.5597C30.0887 35.2619 30.3465 36.3197 30.9598 36.8708C31.5553 37.3953 32.3465 37.5019 32.8887 37.5375C33.0131 37.5464 33.1376 37.5464 33.262 37.5464C35.1909 37.5464 37.7687 36.6841 39.5376 35.5197C39.342 38.1686 39.3776 40.8441 39.662 43.4753C39.8576 45.2175 40.2042 47.013 41.422 48.3108C42.2842 49.2175 43.5198 49.7419 44.9065 49.7597C44.942 49.7597 44.9865 49.7597 45.022 49.7597C46.6931 49.7597 48.3909 49.0753 49.5731 47.9108C51.3331 46.1775 52.3287 43.5019 52.5331 39.973C52.5865 39.1553 52.5776 38.3108 52.5598 37.493C52.5509 36.7908 52.542 36.0886 52.5687 35.413C53.4398 35.7419 54.3909 35.9019 55.3598 35.9019C57.742 35.9019 60.2042 34.9597 61.6176 33.2886C61.902 32.9597 62.2665 32.4441 62.222 31.8219C62.1687 30.9508 61.342 30.3908 60.5953 30.3019ZM54.5509 15.1553C55.1287 18.3464 55.5553 21.013 55.3331 23.7597C55.2087 25.3597 54.7376 26.6575 54.142 27.9286C53.4309 26.3464 52.4442 24.5508 51.5998 23.0397L51.1909 22.2841C49.9553 20.053 49.4842 18.1597 49.7509 16.5153C49.8665 15.813 50.1065 15.2708 50.462 14.9064C51.3865 13.9553 53.1287 14.2397 54.2042 15.0575C54.3109 15.1286 54.4265 15.1553 54.5509 15.1553ZM53.0042 2.91526C54.2842 3.01304 55.4042 3.29748 56.3465 3.77748C58.4442 4.82637 60.0531 7.04859 60.6309 9.72415C61.1287 11.9641 60.9598 14.5597 60.1242 17.4308C59.1731 20.7286 57.6087 23.7686 55.742 26.9775C56.0798 26.0353 56.3287 25.0219 56.4265 23.8486C56.6753 20.7286 56.0887 17.5019 55.6176 14.9153C55.3065 13.2353 54.9687 11.333 54.062 9.66193C52.4798 6.73748 49.5198 5.04859 46.942 3.97304C48.8442 3.15526 50.9509 2.75526 53.0042 2.91526ZM32.222 29.3686C31.3331 30.8975 30.2042 32.2575 28.8442 33.3953C28.3909 33.7775 27.8487 34.1953 27.2442 34.3464C26.142 34.6397 25.022 34.053 24.3465 33.413C23.5553 32.6753 23.0309 31.6975 22.4709 30.453C19.6531 24.1419 18.4442 17.1641 18.9953 10.2575C19.102 8.91526 19.2887 7.50193 19.9376 6.34637C21.0665 4.31081 23.662 3.08415 26.542 3.22637C27.9465 3.28859 29.4309 3.63526 31.2176 4.30193C31.9909 4.59526 32.4353 4.78193 33.022 5.0397C31.6265 6.85304 31.0398 9.24415 30.6753 11.4397C30.1687 14.4975 29.8665 17.6175 29.7865 20.7108C29.6709 24.7819 30.542 27.6264 32.3465 29.2175C32.2931 29.2619 32.2487 29.3064 32.222 29.3686ZM30.8798 20.7375C30.9065 19.493 31.0042 18.2575 31.102 17.013C32.3909 15.893 33.6087 15.2353 34.8265 15.0397C36.3198 14.7997 37.822 15.333 38.5598 16.373C39.1109 17.1553 39.3331 18.2486 39.2442 19.813C39.0487 23.2708 37.7776 26.6753 35.6709 29.4042C35.6265 29.4486 35.5109 29.5108 35.4131 29.5553C34.8887 29.413 34.3909 29.253 33.9553 29.0219C31.7953 27.9108 30.7553 25.1197 30.8798 20.7375ZM32.9598 36.4353C32.3465 36.3997 31.9465 36.2753 31.6887 36.0441C31.4576 35.8397 31.3687 35.4486 31.5198 35.2797C31.662 35.1197 31.9998 35.0664 32.3287 35.013L32.4887 34.9953C34.5953 34.6664 36.4265 33.173 37.2176 31.173C38.1509 31.4575 38.9509 31.8486 39.342 32.6397C39.5642 33.0664 39.6176 33.573 39.6176 34.0975C38.0442 35.4397 34.8887 36.5686 32.9598 36.4353ZM51.4487 39.9108C51.2531 43.1642 50.3642 45.5819 48.8087 47.1197C47.8131 48.0975 46.3465 48.7019 44.9331 48.6664C44.1598 48.6486 43.0576 48.4441 42.2131 47.5553C41.2176 46.4975 40.9242 44.9064 40.7553 43.3597C40.462 40.7197 40.4265 38.0441 40.6398 35.3953L40.6487 35.2975C40.6753 35.0041 40.6931 34.7019 40.702 34.3997C40.702 34.3819 40.702 34.373 40.702 34.3553C40.7287 33.6086 40.6753 32.8441 40.3198 32.1419C39.5998 30.7108 38.142 30.2486 36.6665 29.8753C38.8265 27.0042 40.1331 23.4664 40.3376 19.8753C40.3998 18.7197 40.3731 17.0397 39.4487 15.733C38.4531 14.3375 36.5687 13.6441 34.6576 13.9553C33.5109 14.1419 32.3909 14.6486 31.2442 15.4841C31.3865 14.1953 31.5376 12.8975 31.7509 11.6175C32.1687 9.11081 32.862 6.32859 34.8087 4.7197C35.982 3.75081 37.502 3.26193 39.3509 3.26193C40.9776 3.26193 42.862 3.63526 44.9865 4.39081C47.6353 5.34193 51.3598 6.96859 53.102 10.1864C53.7065 11.3064 54.0353 12.5775 54.2931 13.813C52.8353 13.013 50.8798 12.9064 49.6798 14.133C49.1642 14.6664 48.8265 15.413 48.6753 16.3375C48.3642 18.2397 48.8798 20.3553 50.2309 22.8175L50.6487 23.573C51.582 25.253 52.8353 27.5197 53.4931 29.2175C53.3242 29.5286 53.1553 29.8397 52.9776 30.1686C52.8265 30.4353 52.6753 30.7108 52.5153 30.9953C51.4042 33.0397 51.4398 35.3064 51.4665 37.5108C51.4842 38.3019 51.4931 39.1286 51.4487 39.9108ZM60.7909 32.5775C59.0309 34.6486 55.2353 35.4041 52.6576 34.2486C52.7731 33.2886 53.0131 32.3819 53.4753 31.5197C53.6087 31.2886 53.7331 31.0575 53.8665 30.8264C55.1287 31.8397 56.9865 32.1419 59.0309 31.6353L59.2976 31.5641C59.7153 31.4575 60.1065 31.3597 60.4709 31.3953C60.7731 31.4308 61.1198 31.6441 61.1376 31.9019C61.1465 32.0619 61.0309 32.2841 60.7909 32.5775ZM35.9465 18.1419C36.542 18.1419 37.022 17.653 37.022 17.0575C37.022 16.4619 36.542 15.9819 35.9465 15.9819C35.3509 15.9819 34.8709 16.4619 34.8709 17.0575C34.8709 17.653 35.3509 18.1419 35.9465 18.1419ZM51.8309 15.9819C51.2442 15.9819 50.7642 16.4619 50.7642 17.0575C50.7642 17.653 51.2442 18.1419 51.8309 18.1419C52.4265 18.1419 52.9065 17.653 52.9065 17.0575C52.9065 16.4619 52.4265 15.9819 51.8309 15.9819Z" fill="black"></path></svg>