<svg xmlns="http://www.w3.org/2000/svg" width="80" height="50" viewBox="0 0 80 50" fill="none"><path d="M59.77 22.9401C59.27 22.3001 58.65 21.7301 58.01 21.2401C56.48 20.0901 54.72 19.4101 52.92 18.8301C52.73 18.7701 52.54 18.7001 52.4 18.6501C52.59 17.3901 52.82 16.2001 52.95 15.0101C53.13 13.3301 53.07 11.6701 52.43 10.0801C51.65 8.17007 50.03 7.18007 48.02 7.51007C47.1 7.66007 46.18 7.99007 45.33 8.39007C43.77 9.12007 42.42 10.2001 41.19 11.4101C40.76 11.8201 40.54 11.7601 40.13 11.4001C39.2 10.5801 38.26 9.74007 37.21 9.11007C36.17 8.47007 35.02 7.92007 33.85 7.60007C31.53 6.96007 29.57 8.08007 28.81 10.3801C28.53 11.2401 28.32 12.1801 28.35 13.0801C28.41 14.9201 28.65 16.7601 28.83 18.6901C28.73 18.7201 28.48 18.8201 28.23 18.9001C26.25 19.5501 24.34 20.3401 22.72 21.7001C19.98 23.9901 19.98 26.9101 22.72 29.2001C23.08 29.5101 23.46 29.8201 23.88 30.0401C24.94 30.5901 26.02 31.1101 27.11 31.6001C27.71 31.8701 28.35 32.0401 28.94 32.2501C28.74 33.5101 28.51 34.7201 28.39 35.9301C28.21 37.6401 28.26 39.3501 28.97 40.9601C29.81 42.8601 31.55 43.7701 33.58 43.3801C35.57 43.0101 37.21 41.9401 38.76 40.7101C39.41 40.1901 40.03 39.6201 40.68 39.0701C41.15 39.4901 41.6 39.9001 42.06 40.2901C43.61 41.5801 45.24 42.7401 47.22 43.2701C49.83 43.9601 51.89 42.7901 52.66 40.1801C53.07 38.7801 53.12 37.3501 52.95 35.9101C52.81 34.7001 52.59 33.4901 52.4 32.2301C52.57 32.1801 52.77 32.1301 52.96 32.0501C54.12 31.5801 55.31 31.1601 56.44 30.6201C57.75 29.9901 58.94 29.1501 59.81 27.9401C60.97 26.3301 60.99 24.5001 59.77 22.9401ZM47.01 9.54007C47.22 9.46007 47.44 9.40007 47.66 9.34007C49.37 8.91007 50.51 9.54007 50.98 11.2401C51.62 13.5801 51.14 15.8701 50.63 18.1701C49.42 17.9701 48.26 17.7801 47.1 17.5801C47.05 17.5801 46.99 17.5501 46.94 17.5501C45.68 17.6601 44.9 17.0201 44.24 15.9901C43.58 14.9901 42.75 14.1101 41.94 13.1201C43.46 11.6601 45.04 10.3201 47.01 9.54007ZM34.73 31.6201C33.49 31.4001 32.37 31.2001 31.15 30.9901C31.58 29.8101 31.97 28.7601 32.4 27.5601C33.2 28.9401 33.92 30.2001 34.73 31.6201ZM31.16 19.9101C32.35 19.7001 33.47 19.5001 34.74 19.2701C33.93 20.6801 33.21 21.9401 32.41 23.3501C31.97 22.1401 31.58 21.0901 31.16 19.9101ZM33.58 25.8301C33.47 25.6301 33.47 25.2601 33.58 25.0601C34.63 23.1701 35.71 21.3001 36.8 19.4401C36.92 19.2401 37.24 19.0801 37.48 19.0601C38.54 18.9801 39.6 18.9501 40.67 18.9001C41.75 18.9501 42.83 18.9801 43.91 19.0601C44.12 19.0801 44.4 19.2201 44.5 19.3901C45.62 21.2801 46.71 23.1901 47.78 25.1001C47.88 25.2901 47.87 25.6401 47.76 25.8301C46.72 27.7001 45.66 29.5601 44.57 31.4001C44.44 31.6301 44.07 31.8501 43.8 31.8501C41.71 31.8901 39.62 31.8901 37.53 31.8501C37.27 31.8501 36.9 31.6301 36.77 31.4001C35.67 29.5601 34.61 27.7001 33.58 25.8301ZM48.92 27.5601C49.36 28.7501 49.75 29.8201 50.18 30.9901C48.98 31.2001 47.87 31.4001 46.6 31.6301C47.4 30.2301 48.12 28.9701 48.92 27.5601ZM46.6 19.2801C47.85 19.5001 48.96 19.6901 50.18 19.9001C49.76 21.0701 49.37 22.1401 48.93 23.3401C48.13 21.9501 47.42 20.7001 46.6 19.2801ZM40.67 14.4001C41.44 15.3301 42.16 16.1801 42.96 17.1501C41.37 17.1501 39.95 17.1501 38.38 17.1501C39.17 16.1901 39.88 15.3401 40.67 14.4001ZM30.29 11.4801C30.76 9.57007 31.95 8.82007 33.82 9.40007C34.69 9.67007 35.55 10.1001 36.32 10.6101C37.4 11.3401 38.39 12.2101 39.47 13.0601C39.28 13.2901 39.16 13.4301 39.05 13.5801C38.13 14.7301 37.22 15.8801 36.3 17.0201C36.16 17.1801 35.96 17.3601 35.77 17.3901C34.12 17.6501 32.47 17.8801 30.68 18.1301C30.53 17.3501 30.35 16.5301 30.23 15.7001C30.03 14.3001 29.95 12.8801 30.29 11.4801ZM29.52 30.3901C29.5 30.4201 29.46 30.4401 29.39 30.5001C27.36 29.8801 25.35 29.1501 23.68 27.7101C23.52 27.5801 23.37 27.4301 23.23 27.2701C22.16 26.0701 22.16 24.8301 23.24 23.6301C24.12 22.6401 25.25 22.0001 26.44 21.4801C27.29 21.1101 28.18 20.8301 29.05 20.5001C29.38 20.3701 29.51 20.4801 29.63 20.8001C30.17 22.2501 30.74 23.6901 31.28 25.1401C31.34 25.3001 31.37 25.5201 31.32 25.6801C30.73 27.2501 30.12 28.8201 29.52 30.3901ZM33.34 41.6201C31.98 41.9201 30.97 41.3701 30.5 40.0401C30.27 39.3601 30.06 38.6101 30.1 37.9101C30.18 36.3301 30.43 34.7601 30.6 33.1801C30.65 32.7601 30.86 32.7201 31.23 32.7801C32.63 33.0301 34.04 33.2401 35.45 33.4501C35.85 33.5001 36.14 33.6401 36.4 33.9801C37.35 35.2501 38.34 36.4801 39.38 37.8101C37.6 39.4401 35.82 41.1001 33.34 41.6201ZM40.68 36.5101C39.9 35.5801 39.17 34.7101 38.35 33.7201C39.96 33.7201 41.37 33.7201 42.97 33.7201C42.18 34.6801 41.47 35.5501 40.68 36.5101ZM51.06 39.3201C50.6 41.4001 49.35 42.1101 47.34 41.4701C45.63 40.9201 44.24 39.8401 42.91 38.6901C42.58 38.4001 42.27 38.1001 41.96 37.8101C43.05 36.4101 44.07 35.0801 45.13 33.7701C45.26 33.6001 45.54 33.5101 45.77 33.4801C47.23 33.2301 48.69 33.0001 50.16 32.7901C50.32 32.7701 50.65 32.9001 50.67 33.0101C51.16 35.0901 51.54 37.1901 51.06 39.3201ZM58.1 27.2601C57.86 27.5301 57.6 27.7801 57.31 28.0001C55.7 29.2401 53.84 29.9401 51.93 30.5001C51.27 28.8401 50.63 27.2701 50.02 25.6801C49.96 25.5101 50 25.2701 50.07 25.0901C50.61 23.6601 51.17 22.2401 51.7 20.8001C51.81 20.5401 51.9 20.3701 52.23 20.4701C54.01 21.0401 55.75 21.7101 57.25 22.8501C57.57 23.1001 57.87 23.3701 58.13 23.6701C59.18 24.8601 59.17 26.0801 58.1 27.2601ZM40.63 29.0801C42.66 29.0801 44.26 27.5001 44.26 25.4601C44.27 23.4401 42.64 21.7901 40.65 21.8001C38.68 21.8101 37.08 23.4401 37.07 25.4401C37.07 27.4501 38.65 29.0701 40.63 29.0801Z" fill="black"></path></svg>