<svg xmlns="http://www.w3.org/2000/svg" width="80" height="50" viewBox="0 0 80 50" fill="none"><path d="M16.6002 41H34.7102C34.7102 41 31.2502 25.16 42.7102 18.75C45.2102 17.53 53.1702 12.97 66.1902 22.63C66.6102 22.28 67.0002 22.01 67.0002 22.01C67.0002 22.01 55.0702 10.08 41.8002 11.41C35.1202 12.01 26.9202 18.1 22.1002 26.15C17.2802 34.19 16.6002 41 16.6002 41ZM16.6002 41H34.7102C34.7102 41 31.2502 25.16 42.7102 18.75C45.2102 17.53 53.1702 12.97 66.1902 22.63C66.6102 22.28 67.0002 22.01 67.0002 22.01C67.0002 22.01 55.0702 10.08 41.8002 11.41C35.1202 12.01 26.9202 18.1 22.1002 26.15C17.2802 34.19 16.6002 41 16.6002 41ZM16.6002 41H34.7102C34.7102 41 31.2502 25.16 42.7102 18.75C45.2102 17.53 53.1702 12.97 66.1902 22.63C66.6102 22.28 67.0002 22.01 67.0002 22.01C67.0002 22.01 55.0702 10.08 41.8002 11.41C35.1002 12.01 26.8902 18.1 22.0802 26.15C17.2602 34.19 16.6002 41 16.6002 41ZM54.3402 12.7L54.4302 11.16C54.2202 11.04 53.6502 10.77 52.2102 10.35L52.1102 11.87C52.8702 12.13 53.6102 12.4 54.3402 12.7ZM52.1602 17.57L52.0702 19.02C52.8302 19.04 53.5802 19.14 54.3402 19.3L54.4302 17.87C53.6502 17.71 52.8902 17.62 52.1602 17.57ZM43.6802 10.4H43.9102L43.4502 9C42.7402 9 42.0002 9.04 41.2502 9.14L41.6802 10.49C42.3502 10.42 43.0102 10.4 43.6802 10.4ZM44.7802 18.86L45.3002 20.45C45.9702 20.12 46.6302 19.85 47.3002 19.64L46.8002 18.12C46.0202 18.36 45.3502 18.61 44.7802 18.86ZM34.3702 12.81L33.3402 11.23C32.7602 11.53 32.1702 11.85 31.5502 12.22L32.6002 13.82C33.2002 13.46 33.7702 13.11 34.3702 12.81ZM39.0702 23.16L40.1702 24.81C40.5602 24.24 41.0202 23.71 41.5202 23.18L40.4902 21.62C39.9602 22.1 39.4802 22.63 39.0702 23.16ZM35.7402 30.56L37.6002 32.03C37.6902 31.14 37.8502 30.24 38.0802 29.34L36.4302 28.03C36.1302 28.88 35.9302 29.73 35.7402 30.56ZM25.7002 19.64L24.0702 18.22C23.4802 18.79 22.9002 19.37 22.3702 19.94L24.1402 21.46C24.6202 20.84 25.1502 20.22 25.7002 19.64ZM18.7702 29.92L16.1402 28.95C15.7002 29.94 15.2202 31.09 14.9902 31.71L17.6302 32.68C17.9302 31.89 18.4102 30.77 18.7702 29.92ZM35.4002 36.4C35.4402 37.62 35.5602 38.61 35.6702 39.3L38.4302 40.28C38.2202 39.39 38.0102 38.38 37.8802 37.3L35.4002 36.4Z" fill="black"></path></svg>