<svg xmlns="http://www.w3.org/2000/svg" width="80" height="50" viewBox="0 0 80 50" fill="none"><path d="M52.2344 7.01237C56.7828 7.80325 58.0765 10.9094 57.9764 14.1674L58 14.119L55.9559 40.9559L29.3597 42.7784C27.1514 42.6839 22.2227 42.4848 22.0011 35.6009L24.4683 31.1009L28.6982 40.9795L29.4542 42.7356L33.6606 29.0196L33.6145 29.032L33.6381 28.9836L47.5195 33.4206L45.427 25.27L43.9454 19.4211L57.1697 18.5661L56.2506 17.8045L46.7523 10.0589L52.2422 7L52.2344 7.01237ZM22 35.5244V35.5592V35.5188V35.5244ZM29.6939 14.5004C35.0365 9.19825 41.9283 6.0685 44.5765 8.74037C47.218 11.4077 44.4179 17.899 39.0685 23.1899C33.7236 28.492 26.9151 31.7927 24.2736 29.1254C21.6242 26.4659 24.3377 19.8025 29.6927 14.5004H29.6939Z" fill="black"></path></svg>