<svg xmlns="http://www.w3.org/2000/svg" width="80" height="50" viewBox="0 0 80 50" fill="none"><path d="M61.9967 24.9667C61.9967 37.1867 52.1667 47.0167 39.9267 46.9967C27.5567 46.9767 17.7067 36.7467 18.0067 24.4467C18.2967 12.4867 28.2567 2.70672 40.5667 3.00672C52.2367 3.28672 61.9767 12.8367 61.9967 24.9667ZM44.1867 23.0467C45.0067 23.0467 45.7967 23.0967 46.5667 23.0367C48.0067 22.9167 49.3267 22.4767 50.3467 21.3767C50.8467 20.8567 51.1067 20.2367 51.0367 19.4967C50.9567 18.7867 50.4067 18.1767 49.7667 18.1367C49.0467 18.0867 48.2967 18.5767 48.2167 19.2867C48.1767 19.6367 48.3667 20.0367 48.5267 20.3767C48.8067 20.9667 48.7767 21.2867 48.1767 21.5567C47.6067 21.8067 46.9967 22.0167 46.3967 22.0967C45.7267 22.1867 45.0467 22.1067 44.3367 22.0967C44.4267 21.6467 44.4767 21.3267 44.5367 20.9967C44.8967 19.0567 45.2267 17.1167 45.9467 15.2667C46.2767 14.4067 46.6967 13.6067 47.3567 12.9567C48.0967 12.2267 48.9767 11.9067 50.0067 12.0367C50.5967 12.1167 50.7767 12.4667 50.5167 12.9967C50.4267 13.1767 50.3167 13.3467 50.2267 13.5367C49.8667 14.3067 50.1767 15.2267 50.9267 15.5867C51.9067 16.0667 53.0067 15.6467 53.4267 14.6367C53.7967 13.7567 53.5967 12.7967 52.8967 12.1367C52.3367 11.5967 51.6367 11.3267 50.8767 11.2067C48.5667 10.8467 46.6167 11.6267 44.9367 13.1467C43.0867 14.8167 41.9067 16.9267 40.9867 19.1967C40.8267 19.5967 40.6767 19.9967 40.5067 20.4467C39.8367 19.8467 39.2367 19.2767 38.5967 18.7367C36.9667 17.3767 35.1167 16.7067 32.9767 17.1367C30.7967 17.5767 29.2367 19.1667 28.9867 21.2267C28.7867 22.8867 29.5067 24.2467 30.5867 25.4367C31.0367 25.9367 31.5167 26.4167 31.9567 26.9267C32.6867 27.7467 32.6867 28.7467 31.9767 29.5667C31.0767 30.6067 29.1167 30.6467 28.1567 29.6367C27.8467 29.3167 27.8967 28.9967 28.0867 28.6167C28.2867 28.2067 28.4967 27.7667 28.5567 27.3167C28.6867 26.3367 28.0167 25.5267 27.0867 25.4167C26.1267 25.3167 25.4567 25.8367 25.3267 26.8867C25.1367 28.3567 25.8367 29.4367 27.0067 30.2267C28.5367 31.2567 30.2467 31.6267 32.0667 31.3067C35.4467 30.7167 37.7567 27.1967 35.0567 23.9067C34.4767 23.2067 33.8767 22.5267 33.2667 21.8467C32.5467 21.0267 32.3767 20.1367 32.8267 19.3467C33.3267 18.4867 34.2367 18.0967 35.2867 18.2867C36.3767 18.4867 37.3267 18.9767 38.1567 19.6967C38.7367 20.1967 39.2967 20.7267 39.8867 21.2167C40.1167 21.4067 40.1667 21.5567 40.0867 21.8467C39.7367 23.2167 39.3967 24.5767 39.0967 25.9567C38.5467 28.5467 38.0667 31.1467 37.4767 33.7167C37.0967 35.3567 36.5267 36.9367 35.4567 38.2867C34.7867 39.1267 33.9867 39.7867 32.8867 39.9667C32.5467 40.0267 32.1967 40.0267 32.0467 39.6567C31.8967 39.2967 32.1767 39.0667 32.4367 38.9467C33.4067 38.5067 33.2767 37.1467 32.6967 36.5167C32.1867 35.9567 31.5467 35.7467 30.8167 35.9067C29.9467 36.0967 29.3267 36.6167 29.0467 37.4767C28.6367 38.7567 29.3667 40.0967 30.7567 40.6067C32.3667 41.2067 33.9067 40.8967 35.4067 40.1967C37.5467 39.2067 39.0467 37.5167 40.3067 35.5967C41.8267 33.2767 42.6567 30.6967 43.2167 28.0067C43.5667 26.3767 43.8667 24.7267 44.1867 23.0467Z" fill="black"></path></svg>