<svg xmlns="http://www.w3.org/2000/svg" width="80" height="50" viewBox="0 0 80 50" fill="none"><path d="M57.71 7.37023C57.69 7.37023 57.68 7.37023 57.66 7.37023C57.56 7.35023 57.46 7.31023 57.35 7.31023C45.79 7.20023 34.22 7.10023 22.66 7.00023C22.55 6.99023 22.44 6.99023 22.32 6.99023C22.21 18.9102 22.1 30.8002 22 42.6902C33.91 42.8002 45.8 42.9002 57.69 43.0102C57.8 31.1302 57.91 19.2502 58.02 7.32023C57.9 7.34023 57.8 7.35023 57.71 7.37023ZM29.96 26.4502C29.94 26.3702 29.91 26.2802 29.89 26.1902C29.91 26.2802 29.94 26.3702 29.96 26.4502ZM42.53 26.5702C42.46 26.5802 42.39 26.6002 42.32 26.6202C42.39 26.6002 42.46 26.5802 42.53 26.5702C40.98 26.5502 39.44 26.5402 37.88 26.5302C37.88 26.6902 37.88 26.8002 37.88 26.9102C37.84 31.1802 37.8 35.4502 37.76 39.7302H37.75C36.66 39.7202 35.57 39.7102 34.48 39.7002C34.48 39.6802 34.48 39.6602 34.47 39.6402C34.48 39.6002 34.48 39.5602 34.48 39.5202C34.52 35.2502 34.56 30.9802 34.6 26.7102C34.6 26.6402 34.58 26.5702 34.58 26.5102C33.04 26.4902 31.52 26.4802 30.01 26.4702C29.99 26.4502 29.98 26.4502 29.96 26.4502C29.98 25.4902 30 24.5202 30.02 23.5502H30.04C30.12 23.5202 30.19 23.4702 30.27 23.4502C30.19 23.4702 30.12 23.5202 30.04 23.5502C33.06 23.5702 36.09 23.5802 39.11 23.6102C40.26 23.6202 41.4 23.6502 42.55 23.6702C42.55 24.6002 42.55 25.5302 42.55 26.4502C42.54 26.4902 42.53 26.5302 42.53 26.5702ZM54.92 35.9802C54.87 36.2502 54.82 36.5202 54.77 36.7902C54.6 37.1602 54.43 37.5302 54.27 37.9002C54.23 37.9602 54.18 38.0202 54.14 38.0802C54.11 38.1202 54.09 38.1502 54.06 38.1902H54.07C54.04 38.2102 54.02 38.2302 53.99 38.2602C53.79 38.4702 53.6 38.6802 53.4 38.8902C53.27 38.9702 53.14 39.0502 53.01 39.1202H53.02C52.99 39.1402 52.97 39.1502 52.94 39.1702C52.86 39.2102 52.78 39.2602 52.7 39.3102L52.71 39.3002C52.68 39.3202 52.65 39.3402 52.63 39.3502V39.3402C52.59 39.3702 52.55 39.3902 52.51 39.4102H52.5C51 40.1002 49.42 40.1802 47.82 39.8702C47.17 39.7502 46.54 39.4502 45.9 39.2302H45.91C45.62 39.0502 45.32 38.8602 45.03 38.6802C45 38.6502 44.96 38.6202 44.93 38.6002C44.88 38.5602 44.84 38.5202 44.79 38.4802L44.8 38.4902C44.77 38.4702 44.75 38.4502 44.72 38.4302H44.73C44.71 38.4102 44.68 38.3902 44.66 38.3702C44.63 38.3402 44.6 38.3102 44.57 38.2802L44.56 38.2702C44.54 38.2602 44.52 38.2402 44.51 38.2202L44.5 38.2102C44.48 38.2002 44.46 38.1802 44.44 38.1602L44.41 38.1702L44.44 38.1602C44.42 38.1402 44.4 38.1202 44.38 38.1002V38.0902C44.27 37.9702 44.16 37.8602 44.05 37.7402C44.02 37.7002 43.98 37.6602 43.95 37.6202C43.86 37.4702 43.78 37.3202 43.69 37.1802C43.59 36.9802 43.49 36.7802 43.4 36.5802C43.66 36.4102 43.92 36.2402 44.18 36.0702C44.27 36.0302 44.36 36.0002 44.44 35.9602V35.9702C44.46 35.9502 44.49 35.9402 44.52 35.9202C44.93 35.6902 45.34 35.4602 45.75 35.2302C45.85 35.1802 45.96 35.1402 46.07 35.0902C46.13 35.1402 46.17 35.1902 46.22 35.2402C46.25 35.2802 46.27 35.3202 46.3 35.3502H46.29C46.31 35.3702 46.33 35.4002 46.35 35.4202C46.53 35.6302 46.71 35.8502 46.89 36.0602C46.91 36.0802 46.93 36.1002 46.96 36.1202H46.95C46.98 36.1402 47 36.1702 47.03 36.1902C47.12 36.2602 47.21 36.3402 47.3 36.4102C47.35 36.4602 47.4 36.5102 47.46 36.5502H47.45C47.57 36.6202 47.69 36.6902 47.81 36.7602L47.82 36.7502C48.36 37.0502 48.94 37.1302 49.54 37.1002C50.07 37.0702 50.6 36.9802 51.02 36.6002C51.06 36.5702 51.09 36.5402 51.13 36.5102C51.21 36.4102 51.3 36.3102 51.38 36.2102H51.39H51.38C51.67 35.7602 51.66 35.3002 51.47 34.8202C51.22 34.4102 50.84 34.1502 50.45 33.9002C50.42 33.8802 50.38 33.8502 50.35 33.8302C50.17 33.7402 49.99 33.6502 49.8 33.5602C49.59 33.4602 49.38 33.3602 49.17 33.2602H49.18C49.11 33.2402 49.05 33.2202 48.98 33.2002H48.99C48.95 33.1802 48.9 33.1602 48.86 33.1402H48.87C48.77 33.0902 48.67 33.0402 48.57 32.9902C48.4 32.9102 48.23 32.8302 48.06 32.7502C48.06 32.7502 48.06 32.7602 48.07 32.7602C47.97 32.7102 47.87 32.6602 47.77 32.6102C47.73 32.5902 47.69 32.5702 47.64 32.5502H47.65C47.64 32.5502 47.64 32.5502 47.64 32.5502C47.39 32.4102 47.14 32.2702 46.89 32.1302C46.69 31.9902 46.49 31.8602 46.3 31.7302H46.29C46.26 31.7102 46.24 31.7002 46.21 31.6902H46.19C46.11 31.6102 46.02 31.5302 45.94 31.4402C45.76 31.2502 45.59 31.0602 45.41 30.8702C45.39 30.8502 45.38 30.8302 45.36 30.8102C45.32 30.7502 45.27 30.6902 45.23 30.6302C45.19 30.5802 45.16 30.5302 45.13 30.4802C44.83 29.9002 44.54 29.3202 44.49 28.6402C44.41 27.5302 44.51 26.4802 45.12 25.5202V25.5102C45.13 25.4902 45.15 25.4602 45.17 25.4402H45.16C45.18 25.4202 45.2 25.3902 45.22 25.3602V25.3702C45.28 25.2902 45.35 25.2102 45.41 25.1202L45.4 25.1302C45.43 25.1002 45.45 25.0802 45.47 25.0602H45.46C45.49 25.0202 45.52 24.9902 45.55 24.9602V24.9502C45.57 24.9302 45.59 24.9102 45.61 24.8902C45.63 24.8702 45.65 24.8502 45.67 24.8302C45.69 24.8102 45.71 24.7902 45.73 24.7702H45.74C45.76 24.7502 45.78 24.7302 45.8 24.7202L45.81 24.7102C45.82 24.6902 45.84 24.6802 45.86 24.6602H45.87C45.9 24.6302 45.94 24.6002 45.97 24.5702C46.05 24.5102 46.13 24.4502 46.22 24.3902C46.28 24.3402 46.34 24.3002 46.4 24.2602C46.49 24.2102 46.58 24.1602 46.67 24.1102C46.73 24.0802 46.78 24.0502 46.84 24.0202C46.88 23.9802 46.93 23.9402 46.97 23.9002C47.09 23.8502 47.22 23.8102 47.34 23.7602C47.49 23.7402 47.64 23.7202 47.79 23.6902C49.16 23.4302 50.5 23.4402 51.81 24.0002C52.01 24.0902 52.21 24.2002 52.41 24.3002C52.7 24.5402 52.98 24.7902 53.27 25.0302C53.32 25.1102 53.38 25.1902 53.43 25.2702C53.46 25.3102 53.49 25.3502 53.51 25.3802C53.57 25.4602 53.64 25.5502 53.7 25.6302C53.72 25.6502 53.74 25.6702 53.76 25.7002H53.75C53.79 25.7602 53.84 25.8202 53.88 25.8802C53.92 25.9502 53.97 26.0302 54.01 26.1002C53.79 26.2902 53.59 26.5002 53.36 26.6502C52.78 27.0302 52.19 27.3802 51.61 27.7402C51.57 27.7602 51.53 27.7702 51.49 27.7902C51.17 27.4702 50.85 27.1502 50.54 26.8302C50.51 26.8102 50.49 26.8002 50.47 26.7802L50.46 26.7702H50.44C50.36 26.7002 50.29 26.5902 50.2 26.5702C49.82 26.5102 49.43 26.4302 49.05 26.4402C48.67 26.4402 48.32 26.5802 48.08 26.9102C48.08 26.9102 48.08 26.9102 48.07 26.9202C47.61 27.4302 47.61 28.2602 48.09 28.8102C48.11 28.8302 48.13 28.8502 48.15 28.8702H48.14C48.16 28.8902 48.19 28.9102 48.21 28.9302H48.2C48.23 28.9502 48.25 28.9702 48.27 28.9902C48.37 29.0602 48.46 29.1302 48.56 29.2102C48.67 29.2702 48.77 29.3302 48.87 29.3902V29.3802C48.9 29.4002 48.93 29.4202 48.95 29.4302C48.99 29.4502 49.03 29.4702 49.08 29.5002L49.07 29.4902C49.36 29.6302 49.64 29.7602 49.93 29.8902C50.33 30.0702 50.73 30.2602 51.12 30.4502H51.14C51.21 30.4902 51.29 30.5302 51.37 30.5702H51.38C51.39 30.5702 51.39 30.5702 51.39 30.5702C51.58 30.6802 51.78 30.7802 51.98 30.8902C52.2 31.0202 52.42 31.1502 52.64 31.2802C52.73 31.3402 52.81 31.4002 52.9 31.4602V31.4502C52.94 31.4802 52.98 31.5002 53.02 31.5302L53.01 31.5202C53.04 31.5402 53.06 31.5602 53.09 31.5802H53.08C53.12 31.6102 53.15 31.6302 53.19 31.6602V31.6702C53.26 31.7202 53.33 31.7802 53.39 31.8302V31.8202C53.41 31.8502 53.44 31.8702 53.46 31.8902H53.45C53.48 31.9002 53.5 31.9202 53.52 31.9402C53.63 32.0402 53.73 32.1502 53.84 32.2602C53.88 32.3002 53.91 32.3402 53.95 32.3902V32.3802C53.97 32.4102 53.99 32.4302 54.01 32.4602L54 32.4502C54.06 32.5402 54.13 32.6202 54.19 32.7002C54.31 32.9502 54.45 33.1902 54.56 33.4402C54.91 34.2502 54.96 35.1102 54.92 35.9802ZM50.44 26.7702C50.39 26.7502 50.35 26.7302 50.3 26.7102C50.35 26.7302 50.39 26.7502 50.44 26.7702Z" fill="black"></path></svg>