<svg xmlns="http://www.w3.org/2000/svg" width="80" height="50" viewBox="0 0 80 50" fill="none"><path d="M53.062 7.01574L52.7674 7L52.7594 7.01574H45.1628L45.0115 7.27541C44.9876 7.30689 44.9637 7.34624 44.9398 7.38558C44.892 7.46427 44.8442 7.54296 44.7885 7.62952C44.47 8.18035 44.1515 8.73118 43.8329 9.28201L43.1402 10.4702C42.7818 11.0761 42.4315 11.6821 42.0811 12.288C41.7865 12.7994 41.4918 13.3031 41.1972 13.8067L40.6955 14.6644L40.6159 14.5306C40.3292 14.0349 40.0426 13.547 39.7559 13.0513C39.5728 12.7365 39.3896 12.4217 39.2144 12.1148C39.0074 11.7607 38.8083 11.4145 38.6013 11.0683C38.4102 10.7299 38.2111 10.3915 38.012 10.0532C37.805 9.69906 37.5979 9.35283 37.3909 8.99872C37.16 8.60527 36.937 8.20396 36.7061 7.81051C36.6026 7.62952 36.4991 7.4564 36.3955 7.28328L36.2442 7.01574H35.3365C33.1068 7.01574 30.7976 7.01574 28.5281 7.01574H28.2255C28.1698 7.01574 28.1141 7.01574 28.0663 7.01574C25.3987 7.01574 22.7311 7.01574 20.0635 7.01574H19.2354L19.5937 7.76329C19.6016 7.77116 19.6016 7.7869 19.6096 7.79477C19.6255 7.83411 19.6494 7.88133 19.6813 7.93641C21.7118 11.4224 23.7344 14.9083 25.765 18.3943L29.7942 25.3269L34.4685 33.3454C36.3557 36.5953 38.2509 39.8452 40.1461 43.1029C40.17 43.1502 40.2018 43.1895 40.2257 43.2288C40.2337 43.2524 40.2496 43.2682 40.2655 43.2918L40.7194 44L41.2052 43.1895C41.237 43.1344 41.2689 43.0872 41.2928 43.04L44.8761 36.8864C46.7315 33.6995 48.5868 30.5047 50.4422 27.3177C51.7402 25.0908 53.0381 22.8639 54.3281 20.637C56.502 16.9071 58.6759 13.1772 60.8418 9.44726C61.0648 9.06955 61.2798 8.69183 61.4948 8.31412C61.5904 8.141 61.6939 7.96789 61.7894 7.79477L62.2354 7.01574H53.062ZM59.9341 8.9279C57.7681 12.6578 55.5942 16.3877 53.4283 20.1176C52.1304 22.3445 50.8324 24.5715 49.5344 26.7984C47.6791 29.9853 45.8237 33.1801 43.9683 36.3671L40.7035 41.9855C38.9278 38.9324 37.152 35.8792 35.3763 32.826L30.702 24.8075L26.6728 17.8749C24.7696 14.6014 22.8665 11.3279 20.9554 8.05444C23.3124 8.05444 25.6694 8.05444 28.0185 8.05444L28.1937 8.35347C28.4087 8.73905 28.6316 9.11676 28.8546 9.49447L29.0457 9.82497C29.4757 10.5647 29.9057 11.3122 30.3437 12.0519C30.7737 12.7994 31.2037 13.547 31.6416 14.2867C32.0637 15.0106 32.4857 15.7346 32.9078 16.4585C33.3298 17.1903 33.7598 17.9222 34.1818 18.654C34.6755 19.5038 35.1692 20.3458 35.655 21.1878C36.1009 21.9511 36.5389 22.7065 36.9768 23.4619C37.7492 24.7918 38.5296 26.1217 39.302 27.4515L39.8196 28.3407C39.8435 28.3801 39.8674 28.4273 39.8913 28.4666C39.9629 28.5846 40.0346 28.7027 40.1063 28.8286L40.7035 29.8437L41.5794 28.3407C41.8979 27.7977 42.2085 27.2705 42.5111 26.7433C43.0207 25.8777 43.5224 25.0043 44.0241 24.1387L45.2583 22.014C45.7441 21.1878 46.2298 20.3537 46.7076 19.5274C47.1296 18.8035 47.5516 18.0874 47.9657 17.3635L48.7302 16.0493C49.407 14.9005 50.0759 13.7437 50.7448 12.5949L51.1987 11.808C51.6526 11.0289 52.1224 10.2263 52.5842 9.43152C52.6479 9.31348 52.7196 9.20332 52.7833 9.09315C52.9585 8.79413 53.1257 8.48724 53.2929 8.19609C53.3168 8.14887 53.3487 8.10166 53.3726 8.05444H60.4357C60.2685 8.3456 60.1013 8.63675 59.9341 8.9279Z" fill="black"></path></svg>