<svg xmlns="http://www.w3.org/2000/svg" width="140" height="140" viewBox="0 0 140 140" fill="none"><path d="M13.1119 103.069V37.7269L70 5.05737L126.888 37.7269V103.069L70 135.738L13.1119 103.069Z" fill="white"></path><path d="M70 6.93302L125.256 38.6661V102.13L70 133.863L14.7444 102.13V38.6661L70 6.93302ZM70 3.18188L68.3675 4.11831L13.1119 35.8514L11.4794 36.7905V104.005L13.1119 104.944L68.3675 136.677L70 137.614L71.6325 136.677L126.888 104.944L128.521 104.005V36.7905L126.888 35.8514L71.6325 4.11831L70 3.18188Z" fill="#2034F4"></path><path d="M122.137 48.4633C121.748 48.447 83.0031 46.8394 70.0327 46.8394H70C57.1602 46.8394 18.2435 48.1737 17.8517 48.1926L16.445 48.2387V39.5185L70 8.76245L123.555 39.5185V48.5228L122.137 48.4633Z" fill="#9AA1FF"></path><path d="M70 10.3242L122.195 40.3007V47.1129C122.195 47.1129 83.1827 45.489 70.0327 45.489H70C56.9888 45.489 17.8054 46.8422 17.8054 46.8422V40.3007L70 10.3242ZM70 7.20093L68.6396 7.98038L16.445 37.957L15.0846 38.7364V49.6434L17.898 49.546C18.2898 49.5324 57.1847 48.1927 70 48.1927H70.0327C82.9759 48.1927 121.691 49.7922 122.08 49.8166L124.915 49.933V38.7364L123.555 37.957L71.3605 7.98038L70 7.20093Z" fill="white"></path><path d="M16.1538 101.445V90.6191L17.4463 90.5541C17.7183 90.5541 46.2005 89.1116 70.0762 89.1116C91.0786 89.1116 122.388 90.5406 122.701 90.5541L123.999 90.6136V101.439L70.0762 132.32L16.1538 101.445Z" fill="#9AA1FF"></path><path d="M70.0762 90.4674C91.299 90.4674 122.638 91.91 122.638 91.91V100.663L70.0762 130.758L17.5143 100.663V91.91C17.5143 91.91 45.9583 90.4674 70.0762 90.4674ZM70.0762 87.761C46.1678 87.761 17.6612 89.1927 17.3782 89.2062L14.7934 89.3361V102.238L16.1538 103.017L68.7185 133.091L70.0789 133.871L71.4393 133.091L124.001 102.996L125.362 102.216V89.3253L122.766 89.2062C122.45 89.19 91.114 87.761 70.0789 87.761H70.0762Z" fill="white"></path><path d="M48.4316 104.758C48.4539 104.918 48.4411 105.08 48.3941 105.235C48.3471 105.39 48.2671 105.532 48.1595 105.653C47.8901 105.863 47.5542 105.969 47.2127 105.954L44.7067 106.059C44.2115 106.084 43.866 106.019 43.6728 105.864C43.5623 105.757 43.4763 105.627 43.4209 105.484C43.3655 105.341 43.3419 105.187 43.3517 105.034C43.2193 102.266 43.0878 99.498 42.9572 96.7302C42.9312 96.5669 42.9385 96.4001 42.9787 96.2397C43.0189 96.0793 43.0912 95.9285 43.1912 95.7965C43.4709 95.5827 43.8185 95.476 44.1707 95.4961C45.1421 95.4528 45.6264 95.4311 46.5977 95.3932C46.9567 95.3496 47.3204 95.4197 47.6371 95.5935C47.757 95.6955 47.8513 95.824 47.9122 95.9688C47.9732 96.1136 47.9992 96.2705 47.9881 96.4271C48.0235 97.3635 48.0425 97.8317 48.0779 98.7682L46.4018 98.8331C46.3665 98.0077 46.3501 97.5936 46.3148 96.7654L44.6632 96.8358C44.7811 99.452 44.8972 102.068 45.0115 104.684L46.7474 104.611C46.7011 103.529 46.6794 102.971 46.6358 101.878L48.3173 101.813C48.3609 102.99 48.3826 103.591 48.4316 104.758Z" fill="white"></path><path d="M54.9617 104.592C54.9837 104.748 54.9729 104.906 54.9297 105.057C54.8866 105.208 54.8123 105.348 54.7114 105.469C54.4234 105.666 54.0777 105.761 53.7291 105.74L51.0409 105.824C50.7308 105.866 50.4162 105.79 50.1593 105.613C50.061 105.498 49.9863 105.365 49.9396 105.221C49.8929 105.078 49.8751 104.927 49.8873 104.776C49.7857 102.009 49.6868 99.2398 49.5907 96.4702C49.5706 96.3082 49.5845 96.1438 49.6313 95.9873C49.6781 95.8308 49.7569 95.6856 49.8628 95.5609C50.1334 95.3387 50.4784 95.2266 50.8287 95.2469C51.8871 95.2118 52.415 95.1955 53.4734 95.1657C53.8168 95.1223 54.1647 95.2009 54.4556 95.3877C54.5619 95.4973 54.6437 95.6279 54.6957 95.7711C54.7478 95.9142 54.7688 96.0667 54.7576 96.2185C54.8175 99.008 54.8855 101.799 54.9617 104.592ZM53.2802 104.381C53.2004 101.763 53.1224 99.1469 53.0462 96.5325L51.2858 96.5866C51.3729 99.2065 51.4636 101.823 51.5579 104.435L53.2802 104.381Z" fill="white"></path><path d="M62.6291 105.545L61.0946 105.567C61.0592 103.301 61.0429 102.167 61.0075 99.9021C60.4225 101.767 60.1314 102.701 59.5573 104.565C58.8961 102.757 58.5642 101.859 57.8921 100.048C57.9411 102.278 57.9628 103.393 58.0118 105.624L56.431 105.659C56.3457 102.135 56.2605 98.6102 56.1752 95.0846L57.3996 95.0576C58.2159 97.3418 58.6403 98.4866 59.4566 100.774C60.1912 98.4569 60.564 97.2985 61.315 94.9845L62.4931 94.9683C62.5403 98.4957 62.5856 102.021 62.6291 105.545Z" fill="white"></path><path d="M69.1429 100.316C69.1577 100.47 69.1381 100.625 69.0854 100.77C69.0327 100.915 68.9483 101.046 68.8382 101.155C68.551 101.342 68.2089 101.428 67.8668 101.399C67.0043 101.399 66.5717 101.399 65.7092 101.412C65.7092 103.036 65.7282 103.867 65.7391 105.507C65.0698 105.507 64.7378 105.507 64.0685 105.521C64.0304 101.993 63.9932 98.4676 63.9569 94.9438C65.5133 94.9276 66.2887 94.9222 67.8451 94.9167C68.3403 94.9167 68.6777 95.0142 68.86 95.2172C69.0638 95.4966 69.1603 95.8393 69.132 96.1834C69.1375 97.8397 69.1402 98.6652 69.1429 100.316ZM67.4533 100.045L67.4369 96.2835H65.6765L65.7037 100.029L67.4533 100.045Z" fill="white"></path><path d="M75.8199 105.529L74.0868 105.515C73.9181 104.625 73.8337 104.178 73.6623 103.291H71.8148C71.6108 104.178 71.5101 104.622 71.306 105.513H69.6953C70.5115 101.983 71.3414 98.4587 72.1849 94.9385H73.4854C74.2781 98.4641 75.0563 101.994 75.8199 105.529ZM73.3195 101.853C73.0991 100.695 72.9902 100.119 72.7753 98.963C72.5222 100.116 72.3971 100.692 72.1468 101.845L73.3195 101.853Z" fill="white"></path><path d="M81.8821 105.626L80.7121 105.602C79.8278 103.18 79.3816 101.97 78.4782 99.5503C78.4429 101.954 78.4238 103.158 78.3884 105.561L76.8076 105.542L76.9382 94.9629L78.0538 94.9791C79.0034 97.3987 79.4741 98.6085 80.4019 101.033C80.4481 98.6274 80.4699 97.423 80.5135 95.0197L82.1079 95.0495C82.0353 98.5787 81.9601 102.104 81.8821 105.626Z" fill="white"></path><path d="M84.9975 105.699L83.3269 105.659L83.5799 95.0845L85.2832 95.1251L84.9975 105.699Z" fill="white"></path><path d="M90.4202 105.87C88.8285 105.813 88.0313 105.789 86.4396 105.74C86.543 102.216 86.6473 98.6922 86.7525 95.1685C88.385 95.2145 89.1849 95.2415 90.8066 95.3011L90.7576 96.6543C89.8189 96.6191 89.3482 96.6029 88.4095 96.5731C88.3714 97.7829 88.3524 98.3864 88.3115 99.5935L90.5399 99.6693C90.5182 100.211 90.51 100.481 90.4882 101.022L88.268 100.944L88.1564 104.433L90.4719 104.511L90.4202 105.87Z" fill="white"></path><path d="M96.4551 105.034C96.4441 105.308 96.3373 105.57 96.1531 105.775C95.9653 105.989 95.6443 106.084 95.1872 106.065L93.054 105.973C92.7128 105.982 92.3807 105.863 92.1234 105.64C92.0171 105.539 91.9348 105.415 91.8826 105.279C91.8303 105.142 91.8095 104.995 91.8214 104.85C91.865 103.71 91.8867 103.139 91.933 101.997L93.6145 102.065L93.5057 104.63L94.8307 104.687C94.8715 103.751 94.8933 103.283 94.9341 102.349C93.9029 101.147 93.3859 100.546 92.3438 99.35C92.2335 99.2409 92.1489 99.1087 92.0962 98.963C92.0653 98.798 92.0561 98.6297 92.069 98.4623C92.1044 97.6179 92.1207 97.1957 92.1534 96.3486C92.16 96.2124 92.198 96.0795 92.2645 95.9603C92.331 95.8411 92.4243 95.7387 92.537 95.6612C92.8295 95.4601 93.1847 95.3699 93.5383 95.4068C94.3682 95.4392 94.7817 95.4582 95.6116 95.4961C95.9695 95.4761 96.3216 95.5922 96.5966 95.8208C96.6926 95.9363 96.7641 96.07 96.8066 96.2137C96.8492 96.3575 96.862 96.5083 96.8442 96.6571C96.7979 97.5854 96.7761 98.0509 96.7326 98.9793L95.0729 98.9062C95.1082 98.078 95.1273 97.6639 95.1654 96.8358L93.8376 96.7789L93.7641 98.5165C94.7409 99.6396 95.2252 100.203 96.1912 101.331C96.3203 101.463 96.4209 101.62 96.4869 101.792C96.5528 101.965 96.5828 102.148 96.5748 102.333C96.5313 103.412 96.5068 103.954 96.4551 105.034Z" fill="white"></path><path d="M65.7473 119.237H62.1857V118.376L64.4277 113.919V112.498H63.5516V114.008H62.3408V112.298C62.3287 112.186 62.3414 112.072 62.3781 111.966C62.4147 111.859 62.4744 111.762 62.553 111.681C62.7779 111.541 63.0428 111.479 63.3067 111.505H64.727C64.9723 111.484 65.217 111.55 65.4181 111.691C65.4963 111.771 65.5562 111.866 65.5938 111.971C65.6314 112.075 65.6457 112.187 65.6357 112.298V113.922C65.6397 114.197 65.5792 114.469 65.4589 114.717C64.5247 116.554 63.9288 117.727 63.6713 118.236H65.7473V119.237Z" fill="white"></path><path d="M70.2585 118.452C70.2692 118.56 70.2554 118.669 70.2182 118.771C70.181 118.874 70.1213 118.966 70.0435 119.042C69.8369 119.182 69.588 119.247 69.3388 119.226H67.7063C67.4528 119.252 67.1982 119.19 66.9853 119.05C66.911 118.966 66.855 118.868 66.8208 118.761C66.7866 118.654 66.775 118.542 66.7866 118.431V112.309C66.7749 112.197 66.7859 112.085 66.8191 111.978C66.8523 111.871 66.907 111.771 66.9798 111.686C67.1774 111.544 67.4205 111.48 67.6628 111.505H69.2953C69.5512 111.481 69.8075 111.545 70.0218 111.686C70.1005 111.766 70.1606 111.862 70.1977 111.968C70.2349 112.074 70.2482 112.186 70.2367 112.298L70.2585 118.452ZM69.0504 118.233V112.498H68.0219V118.233H69.0504Z" fill="white"></path><path d="M74.8731 119.237H71.3115V118.376L73.5535 113.919V112.498H72.6773V114.008H71.4666V112.298C71.4545 112.186 71.4672 112.072 71.5039 111.966C71.5405 111.859 71.6002 111.762 71.6788 111.681C71.9037 111.541 72.1686 111.479 72.4325 111.505H73.8528C74.0981 111.484 74.3428 111.55 74.5439 111.691C74.6221 111.771 74.682 111.866 74.7196 111.971C74.7572 112.075 74.7715 112.187 74.7615 112.298V113.922C74.7655 114.197 74.7049 114.469 74.5847 114.717C73.6523 116.554 73.0564 117.727 72.7971 118.236H74.8731V119.237Z" fill="white"></path><path d="M79.4849 119.237H75.926V118.376L78.1653 113.919V112.498H77.2892V114.008H76.0811V112.298C76.0694 112.186 76.0821 112.073 76.1182 111.966C76.1544 111.86 76.2132 111.762 76.2906 111.68C76.5157 111.541 76.7805 111.479 77.0443 111.505H78.4646C78.7108 111.483 78.9565 111.55 79.1584 111.691C79.2361 111.771 79.2956 111.866 79.3327 111.971C79.3698 112.076 79.3837 112.187 79.3734 112.298V113.921C79.3773 114.197 79.3168 114.469 79.1965 114.717C78.266 116.554 77.671 117.727 77.4116 118.235H79.4849V119.237Z" fill="white"></path><path d="M4.00241 88.5133C3.25507 76.4029 2.50774 64.2925 1.76041 52.182C47.2129 49.481 92.7871 49.481 138.24 52.182C137.492 64.2943 136.745 76.4047 135.998 88.5133C92.0384 85.9016 47.9616 85.9016 4.00241 88.5133V88.5133Z" fill="white"></path><path d="M136.485 53.6192C135.819 64.7047 135.151 75.7913 134.482 86.8787C91.5286 84.3912 48.466 84.3912 5.5125 86.8787C4.84316 75.7931 4.17473 64.7066 3.50721 53.6192C47.7937 51.0534 92.1927 51.0534 136.479 53.6192M139.995 50.7503L136.67 50.5446C92.26 47.9708 47.7373 47.9708 3.32763 50.5446L0 50.7503C0.0789054 51.979 0.116998 52.5934 0.193182 53.8221C0.895168 64.9077 1.59625 75.9942 2.29642 87.0816C2.37533 88.3104 2.41342 88.9247 2.49232 90.1535C3.77658 90.0723 4.4187 90.0344 5.70296 89.9586C48.5314 87.4795 91.4686 87.4795 134.297 89.9586L137.508 90.1535C137.584 88.9247 137.625 88.3104 137.701 87.0816C138.403 75.996 139.104 64.9113 139.804 53.8275C139.883 52.5988 139.921 51.9845 140 50.7557L139.995 50.7503Z" fill="#2034F4"></path><path d="M6.30427 85.5958L4.86765 54.6693C48.2421 52.7333 91.6264 52.7333 135.021 54.6693L133.595 85.5958C91.173 83.6995 48.7427 83.6995 6.30427 85.5958Z" fill="#9AA1FF"></path><path d="M133.565 55.9575L132.284 84.1722C90.7449 82.3679 49.1853 82.3679 7.60486 84.1722L6.32333 55.9575C48.7255 54.1099 91.1394 54.1099 133.565 55.9575ZM136.476 53.3729L133.69 53.2511C91.2029 51.3981 48.7064 51.3981 6.20089 53.2511L3.41199 53.3783C3.46368 54.4609 3.48817 55.0022 3.53987 56.0847L4.87854 84.2967C4.92752 85.3793 4.95472 85.9206 5.00642 87.0032L7.7273 86.8787C49.1953 85.0744 90.6732 85.0744 132.161 86.8787L134.882 87.0032C134.934 85.9206 134.961 85.3793 135.013 84.2967C135.459 74.8945 135.904 65.4905 136.349 56.0847C136.4 55.0022 136.427 54.4609 136.476 53.3783V53.3729Z" fill="white"></path><path d="M21.28 75.5604C21.3125 75.9956 21.2484 76.4325 21.0923 76.8404C20.9362 77.2482 20.6919 77.6169 20.3766 77.9204C19.7379 78.5571 18.8804 78.9294 17.9768 78.9624C15.8491 79.0842 14.7852 79.1464 12.6575 79.279C12.2711 73.1751 11.8857 67.0712 11.5011 60.9672C13.637 60.8346 14.7063 60.7697 16.8449 60.6506C17.9931 60.5838 18.9001 60.8617 19.5658 61.4842C19.9083 61.8165 20.1809 62.2133 20.3677 62.6515C20.5546 63.0896 20.652 63.5604 20.6542 64.0363C20.8664 67.8795 21.075 71.7208 21.28 75.5604ZM18.3741 75.7444C18.151 71.775 17.926 67.8055 17.6993 63.8361C17.6666 63.2605 17.3646 62.9898 16.7932 63.0241L14.5975 63.1513L15.4137 76.7566L17.419 76.6402C17.6719 76.6265 17.9134 76.5315 18.1074 76.3696C18.2001 76.2953 18.273 76.1993 18.3195 76.0902C18.366 75.9812 18.3848 75.8624 18.3741 75.7444Z" fill="white"></path><path d="M30.8574 78.3317C28.0958 78.4481 26.7163 78.5131 23.9546 78.6511C23.6444 72.5435 23.3351 66.4351 23.0268 60.3257C25.8429 60.185 27.2496 60.1201 30.0684 60.001C30.1092 60.9428 30.1283 61.4137 30.1691 62.3583C28.5365 62.4259 27.7203 62.4638 26.0878 62.5396C26.1884 64.6344 26.2374 65.6818 26.3381 67.7766C27.8835 67.7035 28.6563 67.6683 30.2017 67.6034C30.2425 68.5452 30.2643 69.0161 30.3051 69.958L26.4496 70.1312L26.7217 76.153C28.327 76.08 29.1297 76.0421 30.735 75.9744C30.7949 76.9163 30.8166 77.3899 30.8574 78.3317Z" fill="white"></path><path d="M41.3845 59.5869C40.3597 65.736 39.353 71.8877 38.3644 78.0422L36.0462 78.1261C34.6096 72.0546 33.1584 65.9904 31.6928 59.9333C32.8764 59.8846 33.4668 59.8603 34.6504 59.817C35.4521 63.7557 36.2484 67.6954 37.0393 71.636C37.5363 67.6485 38.0397 63.6628 38.5494 59.6789L41.3845 59.5869Z" fill="white"></path><path d="M50.5675 77.7037C47.8058 77.7632 46.4236 77.7957 43.6619 77.8742C43.4806 71.763 43.3046 65.6501 43.1341 59.5353C45.9502 59.4541 47.3596 59.4189 50.1784 59.3594C50.1975 60.3039 50.2084 60.7748 50.2274 61.7194C48.5949 61.7519 47.7786 61.7708 46.1461 61.8141C46.2005 63.9089 46.2277 64.959 46.2794 67.0538C47.8276 67.0159 48.6003 66.997 50.1485 66.9645L50.1975 69.3218C48.6548 69.3543 47.8847 69.3732 46.342 69.4111C46.4019 71.8226 46.4345 73.0269 46.4944 75.4384C48.1024 75.3978 48.9051 75.3788 50.5131 75.3463C50.5376 76.2882 50.5485 76.7618 50.5675 77.7037Z" fill="white"></path><path d="M60.1885 77.5524C57.2908 77.5821 55.8351 77.6038 52.9401 77.6579L52.5973 59.3136L55.5576 59.2622L55.8025 75.2492C57.5466 75.2248 58.42 75.2113 60.1559 75.195C60.1749 76.1369 60.1804 76.6105 60.1885 77.5524Z" fill="white"></path><path d="M71.238 75.5901C71.238 76.3235 71.0775 76.8269 70.7618 77.0975C70.4462 77.3682 69.8721 77.5008 69.0477 77.5035C67.1812 77.5035 66.2479 77.5035 64.3814 77.517C63.6558 77.517 63.1497 77.3808 62.8631 77.1084C62.5765 76.8359 62.4269 76.3479 62.4142 75.6442L62.3081 61.2297C62.3081 60.5124 62.4686 59.9928 62.806 59.6653C63.1434 59.3378 63.7093 59.1728 64.4984 59.17C66.3377 59.17 67.2573 59.1565 69.0967 59.1538C69.9129 59.1538 70.4571 59.3 70.7918 59.5868C71.1264 59.8737 71.2734 60.3609 71.2734 61.0429L71.238 75.5901ZM68.3321 75.1435C68.3321 70.6021 68.3248 66.0589 68.3103 61.5138H65.2521L65.3174 75.1435H68.3321Z" fill="white"></path><path d="M82.6711 68.6019C82.6711 69.3002 82.4897 69.7874 82.127 70.0634C81.7787 70.3341 81.2127 70.4694 80.4346 70.4613C78.9354 70.4423 78.1871 70.4369 76.6879 70.4261L76.6335 77.5278L73.7358 77.5116C73.7612 71.395 73.7875 65.2784 73.8147 59.1619C76.5165 59.1619 77.8661 59.1862 80.5652 59.216C81.4277 59.216 82.0127 59.4109 82.3201 59.7573C82.6276 60.1037 82.7773 60.6721 82.7664 61.4407C82.7337 64.3095 82.7147 65.7385 82.6711 68.6019ZM79.7489 68.0607C79.7761 65.4625 79.7924 64.1634 79.8197 61.5652C78.5953 61.5652 77.9858 61.5462 76.7614 61.5381C76.7423 64.1363 76.7315 65.4381 76.7124 68.0336L79.7489 68.0607Z" fill="white"></path><path d="M95.8048 77.8796L93.141 77.8092L93.3941 67.9821C92.4363 70.6399 91.4867 73.3003 90.5453 75.9634C89.7018 73.3111 88.8475 70.6624 87.9822 68.0173C87.9188 71.2398 87.8553 74.4632 87.7918 77.6875C86.7034 77.6658 86.1456 77.655 85.0491 77.6387L85.3593 59.2917L87.4843 59.3296C88.5491 62.6784 89.6021 66.0299 90.6433 69.3841C91.8459 66.0786 93.0603 62.7785 94.2865 59.4839L96.3326 59.5407C96.1548 65.6501 95.9789 71.763 95.8048 77.8796Z" fill="white"></path><path d="M105.211 78.1881C102.449 78.0826 101.07 78.0339 98.308 77.9473C98.4985 71.8343 98.6907 65.7214 98.8848 59.6084C101.704 59.695 103.113 59.7464 105.929 59.8547L105.837 62.212C104.204 62.1497 103.388 62.12 101.755 62.0631C101.682 64.1579 101.647 65.2053 101.573 67.3028C103.121 67.3542 103.894 67.384 105.439 67.4436C105.404 68.3854 105.385 68.8563 105.347 69.8009C103.804 69.7413 103.034 69.7116 101.491 69.6601C101.407 72.0689 101.366 73.2732 101.282 75.6847C102.89 75.7388 103.693 75.7686 105.298 75.8308L105.211 78.1881Z" fill="white"></path><path d="M116.38 78.6915L114.353 78.5914C113.181 75.0478 111.993 71.5113 110.789 67.9821L110.323 78.4047L107.581 78.2856L108.348 59.9548L110.283 60.036C111.552 63.5706 112.808 67.1089 114.051 70.6507L114.557 60.2309L117.324 60.3689C117.012 66.4765 116.698 72.584 116.38 78.6915Z" fill="white"></path><path d="M127.922 63.3299L125.03 63.154C124.709 68.4749 124.389 73.7975 124.069 79.122L121.174 78.9542L122.08 62.9862L119.213 62.8292C119.264 61.8874 119.289 61.4165 119.34 60.4746C122.243 60.6262 125.153 60.794 128.072 60.978L127.922 63.3299Z" fill="white"></path><path d="M43.7653 36.8257C43.2525 36.8739 42.7352 36.8187 42.2443 36.6634C41.7916 36.5025 41.3794 36.2458 41.0363 35.911C41.4145 35.4888 41.6049 35.2749 41.9858 34.8554C42.2138 35.0855 42.4846 35.2693 42.7831 35.3967C43.0984 35.5167 43.4375 35.5621 43.7735 35.5294C44.0448 35.5272 44.31 35.4484 44.538 35.302C44.621 35.2482 44.6877 35.1729 44.7309 35.0842C44.774 34.9955 44.792 34.8967 44.7829 34.7986C44.7793 34.7007 44.7529 34.605 44.7057 34.519C44.6584 34.433 44.5917 34.3592 44.5108 34.3033C44.3144 34.1764 44.097 34.0848 43.8687 34.0327L43.0524 33.8081C42.7622 33.7309 42.4805 33.6248 42.2117 33.4914C41.9217 33.3549 41.676 33.1403 41.5023 32.8719C41.3287 32.6036 41.2342 32.2922 41.2294 31.9731C41.1886 31.5902 41.2715 31.2044 41.4661 30.8716C41.6678 30.5446 41.9584 30.2809 42.3042 30.111C42.7103 29.9125 43.1528 29.7983 43.6048 29.7754C44.0772 29.7367 44.5526 29.7919 45.0033 29.9378C45.4064 30.0634 45.7776 30.2739 46.0916 30.5549C45.6998 30.9717 45.5067 31.1801 45.1176 31.5996C44.9154 31.417 44.6823 31.2713 44.4292 31.1693C44.1883 31.0779 43.9297 31.0418 43.6728 31.0637C43.4401 31.0683 43.2132 31.1367 43.0171 31.2613C42.9452 31.3108 42.8881 31.3787 42.8517 31.4577C42.8154 31.5368 42.801 31.6241 42.8103 31.7106C42.814 31.8032 42.8408 31.8936 42.8883 31.9734C42.9358 32.0532 43.0025 32.1201 43.0824 32.1679C43.2828 32.2892 43.5001 32.3804 43.7272 32.4386L44.5625 32.6632C44.8525 32.7431 45.1326 32.8547 45.3978 32.9961C45.6889 33.148 45.9328 33.3759 46.1035 33.6554C46.2741 33.9348 46.365 34.2552 46.3665 34.5821C46.3994 34.8769 46.3599 35.1752 46.2514 35.4515C46.1428 35.7277 45.9685 35.9736 45.7434 36.1681C45.1757 36.5996 44.4798 36.831 43.7653 36.8257V36.8257Z" fill="white"></path><path d="M51.0192 36.398C50.5113 36.4291 50.0022 36.362 49.52 36.2004C49.0701 36.0493 48.6528 35.8152 48.2901 35.5103C47.7447 35.0466 47.354 34.4288 47.1698 33.739C46.9856 33.0492 47.0167 32.32 47.2589 31.6482C47.419 31.2136 47.6661 30.8158 47.9854 30.479C48.3138 30.1358 48.7067 29.86 49.1418 29.6671C50.0885 29.2597 51.1513 29.2059 52.1347 29.5155C52.588 29.664 53.0077 29.8994 53.37 30.2084C53.7232 30.5082 54.0111 30.8766 54.2162 31.291C54.4263 31.7249 54.5422 32.1979 54.5563 32.6794C54.5817 33.1505 54.5101 33.6217 54.3459 34.0643C54.1816 34.5069 53.9283 34.9115 53.6013 35.2532C53.2747 35.5937 52.886 35.8692 52.4558 36.0651C52.0022 36.2648 51.5148 36.3778 51.0192 36.398V36.398ZM50.9294 35.0123C51.3144 35.0002 51.6896 34.8882 52.0177 34.6875C52.322 34.4946 52.5661 34.2208 52.7224 33.8973C52.8905 33.5399 52.9644 33.146 52.9374 32.7524C52.9287 32.3607 52.8191 31.9777 52.619 31.6401C52.4322 31.3304 52.159 31.0813 51.8327 30.9229C51.4823 30.7554 51.094 30.6818 50.7063 30.7091C50.3143 30.7203 49.9319 30.8322 49.5961 31.0338C49.2884 31.224 49.0434 31.4997 48.8914 31.8268C48.7374 32.1875 48.6686 32.5786 48.6903 32.9699C48.712 33.3612 48.8236 33.7423 49.0166 34.084C49.2034 34.3921 49.4754 34.6402 49.8002 34.7985C50.1508 34.9684 50.5406 35.0422 50.9294 35.0123V35.0123Z" fill="white"></path><path d="M55.8215 36.0733C55.7209 33.3344 55.6719 31.9649 55.5712 29.226C57.5684 29.1556 58.5642 29.1258 60.5668 29.0798C60.5668 29.6049 60.5831 29.8647 60.5967 30.3898C59.2362 30.4195 58.5669 30.4385 57.2174 30.4818C57.2364 31.0988 57.2446 31.4074 57.2663 32.0244C58.5479 31.9838 59.1873 31.9649 60.4688 31.9351C60.4688 32.4602 60.4879 32.7227 60.4987 33.2451C59.2226 33.2748 58.5941 33.2938 57.3071 33.3344C57.3425 34.4169 57.3588 34.9582 57.3942 36.0192L55.8215 36.0733Z" fill="white"></path><path d="M63.3583 35.8811C63.323 33.6726 63.3066 32.5684 63.274 30.3599C62.3734 30.3599 61.9136 30.3816 61.0238 30.4005C61.0238 29.8592 61.0075 29.6021 60.9939 29.0717C63.4427 29.0175 64.6671 29.004 67.1159 28.9932C67.1159 29.5345 67.1159 29.7889 67.1159 30.322C66.2153 30.322 65.7554 30.322 64.8657 30.3383C64.8902 32.5467 64.9011 33.651 64.9256 35.8594L63.3583 35.8811Z" fill="white"></path><path d="M69.6708 35.8405C68.7702 33.0989 68.3104 31.7294 67.3717 28.9905C68.0084 28.9905 68.3294 28.9905 68.9661 28.9905C69.5103 30.7064 69.7824 31.5643 70.3265 33.2829C70.8707 31.5697 71.1428 30.7118 71.687 29.0013H72.944C73.4637 30.728 73.7195 31.5914 74.2256 33.3316C74.7969 31.6211 75.0854 30.7659 75.6731 29.0581C76.307 29.0581 76.6227 29.0771 77.2566 29.0933C76.2608 31.7998 75.7737 33.1692 74.8078 35.8946L73.5753 35.8757C73.061 34.1354 72.8025 33.2667 72.2747 31.5454C71.7142 33.2694 71.4367 34.1327 70.8898 35.8757L69.6708 35.8405Z" fill="white"></path><path d="M76.7477 35.9297C77.934 33.2232 78.5381 31.87 79.7679 29.1636L81.2181 29.2123C82.2521 31.9891 82.7609 33.3802 83.7513 36.1651L82.0888 36.1002C81.9201 35.5941 81.8331 35.3424 81.6644 34.839C80.5543 34.7984 79.9992 34.7822 78.8891 34.7497L78.3803 35.9757L76.7477 35.9297ZM79.3979 33.5155C80.138 33.5372 80.508 33.5507 81.2454 33.5778C80.9134 32.5872 80.7447 32.0919 80.4073 31.1014C79.9937 32.0703 79.8006 32.552 79.3979 33.5182V33.5155Z" fill="white"></path><path d="M84.6193 36.2005C84.7445 33.4643 84.8098 32.0949 84.9349 29.3586C86.1103 29.4101 86.698 29.4398 87.8735 29.5021C88.3066 29.5164 88.7309 29.6284 89.1142 29.8296C89.4515 30.0034 89.734 30.2666 89.9304 30.5901C90.1159 30.9127 90.2002 31.2831 90.1726 31.6537C90.1651 31.8916 90.1105 32.1256 90.012 32.3425C89.9135 32.5594 89.773 32.7548 89.5985 32.9176C89.2212 33.2556 88.7438 33.4626 88.2381 33.5076C89.087 34.7039 89.5087 35.3047 90.3413 36.5064L88.4802 36.3981C87.702 35.2208 87.3102 34.6362 86.5212 33.4643H86.3471C86.2926 34.5929 86.2627 35.1558 86.2056 36.2844L84.6193 36.2005ZM87.6123 30.6767L86.4613 30.6171C86.426 31.3019 86.4096 31.6456 86.3743 32.333L87.5089 32.3899C87.7737 32.4214 88.0407 32.3528 88.2571 32.1977C88.3482 32.1222 88.4217 32.028 88.4724 31.9214C88.5232 31.8148 88.55 31.6985 88.551 31.5806C88.5594 31.4669 88.5436 31.3527 88.5047 31.2455C88.4658 31.1382 88.4046 31.0403 88.3251 30.9582C88.134 30.7747 87.8779 30.6736 87.6123 30.6767V30.6767Z" fill="white"></path><path d="M91.1113 36.555C91.2854 33.8215 91.3834 32.4547 91.5521 29.7185C93.6009 29.8484 94.624 29.9215 96.6728 30.0812C96.6292 30.6035 96.6102 30.866 96.5694 31.3884C95.1654 31.2801 94.4661 31.2287 93.0622 31.1177L92.9669 32.5224C94.2403 32.609 94.8716 32.655 96.1531 32.7551C96.115 33.2612 96.0959 33.5156 96.0551 34.0218C94.7845 33.9243 94.1505 33.8783 92.8772 33.789C92.8363 34.4061 92.8146 34.7146 92.771 35.329C94.1777 35.4264 94.8824 35.4778 96.2864 35.5996C96.2456 36.1409 96.2238 36.3899 96.183 36.9149C94.1424 36.758 93.1411 36.6849 91.1113 36.555Z" fill="white"></path><path d="M33.5076 34.7578L34.868 37.3452L37.7658 37.8459L35.7169 39.9434L36.1332 42.8366L33.4967 41.5456L30.8574 42.8366L31.2901 39.9434L29.2385 37.8459L32.1363 37.3452L33.5076 34.7578Z" fill="#000216"></path><path d="M107.581 34.7578L108.955 37.3452L111.853 37.8459L109.804 39.9434L110.22 42.8366L107.581 41.5456L104.944 42.8366L105.361 39.9434L103.312 37.8459L106.209 37.3452L107.581 34.7578Z" fill="#000216"></path><path d="M33.7661 94.9304L35.1265 97.5151L38.0243 98.0158L35.9754 100.113L36.3945 103.006L33.7552 101.718L31.1159 103.006L31.535 100.113L29.4861 98.0158L32.3812 97.5151L33.7661 94.9304Z" fill="#000216"></path><path d="M107.842 94.9304L109.202 97.5151L112.1 98.0104L110.051 100.108L110.47 103.001L107.831 101.713L105.192 103.001L105.611 100.108L103.562 98.0104L106.457 97.5097L107.842 94.9304Z" fill="#000216"></path></svg>