<svg xmlns="http://www.w3.org/2000/svg" width="140" height="140" viewBox="0 0 140 140" fill="none"><path d="M130.834 104.585C130.047 104.954 129.283 105.368 128.544 105.825L82.4936 131.665L70.3136 138.505C70.2066 138.565 70.1031 138.632 70.0036 138.704H69.8336C68.3203 137.844 66.807 136.988 65.2936 136.135L25.7036 113.915L9.32362 104.725C9.21793 104.68 9.1296 104.602 9.0719 104.503C9.01419 104.404 8.99023 104.288 9.00362 104.174C9.00362 81.6078 9.00362 59.0378 9.00362 36.4645C8.99225 36.3431 9.02011 36.2213 9.08311 36.1169C9.14611 36.0125 9.24092 35.931 9.35362 35.8845L39.0036 19.2345C49.1436 13.5545 59.277 7.8645 69.4036 2.1645C69.5577 2.0574 69.7409 2 69.9286 2C70.1163 2 70.2995 2.0574 70.4536 2.1645C86.6736 11.2845 102.904 20.3978 119.144 29.5045L130.494 35.8745C130.604 35.8745 130.704 36.0245 130.834 36.0145V104.585ZM10.0036 70.2845V103.415C9.98741 103.555 10.0165 103.696 10.0867 103.819C10.1569 103.941 10.2645 104.038 10.3936 104.094C18.9403 108.888 27.477 113.685 36.0036 118.485C47.197 124.765 58.3803 131.045 69.5536 137.325C69.6592 137.393 69.7826 137.43 69.9086 137.43C70.0347 137.43 70.158 137.393 70.2636 137.325C79.177 132.305 88.0936 127.305 97.0136 122.325L129.484 104.104C129.601 104.05 129.699 103.96 129.762 103.847C129.825 103.733 129.85 103.603 129.834 103.475C129.834 81.3745 129.834 59.2745 129.834 37.1745C129.845 37.039 129.813 36.9034 129.743 36.7868C129.673 36.6702 129.568 36.5784 129.444 36.5245L120.444 31.5245L70.2236 3.2545C70.1298 3.1938 70.0204 3.16151 69.9086 3.16151C69.7969 3.16151 69.6875 3.1938 69.5936 3.2545C60.6736 8.26784 51.757 13.2678 42.8436 18.2545C32.0636 24.3345 21.277 30.3978 10.4836 36.4445C10.317 36.5182 10.1784 36.6435 10.0884 36.802C9.99834 36.9604 9.96162 37.1436 9.98362 37.3245C9.99695 48.3045 10.0036 59.2912 10.0036 70.2845Z" fill="#6D7C80"></path><path d="M10.0037 70.2844V37.2844C9.98251 37.1049 10.0184 36.9232 10.1064 36.7652C10.1944 36.6072 10.3299 36.481 10.4937 36.4044C21.2804 30.3644 32.0671 24.3144 42.8537 18.2544L69.6037 3.25444C69.6965 3.18621 69.8086 3.14941 69.9237 3.14941C70.0389 3.14941 70.151 3.18621 70.2437 3.25444C86.9837 12.6544 103.724 22.0511 120.464 31.4444L129.464 36.4444C129.589 36.4953 129.694 36.5849 129.764 36.7001C129.834 36.8154 129.866 36.9501 129.854 37.0844C129.854 59.1844 129.854 81.2878 129.854 103.394C129.867 103.523 129.84 103.652 129.778 103.764C129.715 103.877 129.619 103.968 129.504 104.024C118.677 110.131 107.844 116.224 97.0037 122.304C88.0971 127.318 79.1837 132.318 70.2637 137.304C70.1596 137.377 70.0357 137.416 69.9087 137.416C69.7817 137.416 69.6578 137.377 69.5537 137.304C58.3871 131.031 47.2037 124.761 36.0037 118.494L10.3937 104.114C10.2629 104.056 10.1538 103.958 10.0819 103.834C10.0101 103.71 9.97924 103.567 9.99372 103.424L10.0037 70.2844ZM12.3137 89.1044C12.3137 89.2744 12.3137 89.4444 12.3137 89.6144C12.3137 93.4044 12.3137 97.1944 12.3137 100.984C12.26 101.398 12.3409 101.818 12.5445 102.181C12.748 102.545 13.0633 102.834 13.4437 103.004C32.1637 113.371 50.8571 123.764 69.5237 134.184C69.6406 134.263 69.7781 134.304 69.9187 134.304C70.0594 134.304 70.1968 134.263 70.3137 134.184C83.9404 126.584 97.5804 118.991 111.234 111.404C116.514 108.464 121.804 105.524 127.104 102.584C127.249 102.524 127.37 102.419 127.45 102.283C127.529 102.148 127.562 101.99 127.544 101.834C127.544 97.7344 127.544 93.6311 127.544 89.5244C127.544 89.3744 127.544 89.2144 127.544 89.0544C127.544 88.8944 127.544 88.8344 127.544 88.7144V51.8244C127.544 51.7144 127.544 51.6044 127.544 51.4844C127.544 51.3644 127.544 51.1744 127.544 51.0144C127.544 46.9144 127.544 42.8111 127.544 38.7044C127.56 38.5502 127.526 38.3948 127.447 38.2614C127.367 38.1281 127.247 38.0239 127.104 37.9644C121.544 34.8844 115.987 31.7944 110.434 28.6944L70.3037 6.35444C70.1868 6.27619 70.0494 6.23442 69.9087 6.23442C69.7681 6.23442 69.6306 6.27619 69.5137 6.35444C55.8937 13.9744 42.2571 21.5744 28.6037 29.1544L12.7337 38.0044C12.5914 38.0652 12.4721 38.1697 12.393 38.3027C12.3139 38.4357 12.2792 38.5904 12.2937 38.7444C12.2937 42.8544 12.2937 46.9544 12.2937 51.0644C12.2937 51.2144 12.2937 51.3744 12.2937 51.5344C12.2937 51.6944 12.2937 51.7544 12.2937 51.8744V88.7644C12.3037 88.8844 12.3037 89.0044 12.3137 89.1044Z" fill="white"></path><path d="M127.524 51.5044C125.904 51.5044 124.284 51.5044 122.654 51.5044C122.324 51.5044 122.254 51.3944 122.254 51.0644C122.254 47.7044 122.254 44.3344 122.254 40.9744C122.268 40.859 122.244 40.7423 122.187 40.6414C122.129 40.5405 122.04 40.4609 121.934 40.4144L108.504 32.7744C105.174 30.8844 101.834 29.0044 98.5037 27.1044L85.2037 19.5344L76.0037 14.2944L70.5037 11.1644C70.4011 11.0765 70.2732 11.0233 70.1385 11.0125C70.0037 11.0018 69.869 11.0339 69.7537 11.1044L61.1037 16.0044L49.3137 22.7444L37.4237 29.5144L29.2337 34.1644L18.1337 40.4744C17.9037 40.6044 17.8937 40.7744 17.8937 40.9944C17.8937 44.3244 17.8937 47.6644 17.8937 50.9944C17.8937 51.4044 17.8137 51.5244 17.4037 51.5244C15.7037 51.5244 14.0037 51.5244 12.3037 51.5244C12.3037 51.6444 12.3037 51.7544 12.3037 51.8644V88.7844C12.3037 88.9044 12.3037 89.0144 12.3037 89.1244H17.5037C17.8337 89.1244 17.9037 89.2344 17.9037 89.5544C17.9037 92.9044 17.9037 96.2544 17.9037 99.5544C17.889 99.6827 17.9161 99.8124 17.9809 99.9241C18.0458 100.036 18.145 100.124 18.2637 100.174L31.6737 107.804L41.6737 113.474C46.1137 115.994 50.5437 118.534 54.9737 121.054C58.0437 122.804 61.1237 124.534 64.2037 126.284L69.6837 129.414C69.7864 129.502 69.9142 129.555 70.049 129.566C70.1837 129.577 70.3184 129.545 70.4337 129.474C73.3137 127.828 76.197 126.188 79.0837 124.554L90.8637 117.834L102.764 111.064L110.954 106.424L122.004 100.154C122.244 100.014 122.244 99.8444 122.244 99.6344C122.244 96.3011 122.244 92.9677 122.244 89.6344C122.244 89.2344 122.324 89.1044 122.734 89.1144C124.324 89.1144 125.924 89.1144 127.504 89.1144C127.504 88.9944 127.504 88.8844 127.504 88.7644V51.8444C127.544 51.7244 127.534 51.6144 127.524 51.5044ZM121.614 99.1944C121.629 99.3151 121.605 99.4374 121.546 99.5436C121.486 99.6497 121.394 99.7341 121.284 99.7844L71.5637 128.054C71.1737 128.284 70.7637 128.494 70.3837 128.734C70.2972 128.799 70.1919 128.834 70.0837 128.834C69.9755 128.834 69.8703 128.799 69.7837 128.734C66.4504 126.834 63.117 124.938 59.7837 123.044L20.5037 100.704C19.9337 100.384 19.3737 100.044 18.8137 99.7044C18.7324 99.6726 18.6633 99.6158 18.6165 99.542C18.5697 99.4683 18.5477 99.3815 18.5537 99.2944V86.0044C18.5537 85.7644 18.6237 85.6744 18.8537 85.7044C18.9501 85.7144 19.0473 85.7144 19.1437 85.7044H121.144C121.544 85.7044 121.654 85.7944 121.654 86.2244C121.594 90.5344 121.604 94.8644 121.614 99.1944ZM121.204 54.9044H19.0037C18.6137 54.9044 18.4937 54.8244 18.4937 54.3844C18.4937 50.0644 18.4937 45.7311 18.4937 41.3844C18.4779 41.2507 18.5052 41.1155 18.5718 40.9985C18.6384 40.8816 18.7407 40.789 18.8637 40.7344C34.2904 32.0277 49.717 23.2877 65.1437 14.5144C66.6837 13.6444 68.2237 12.7744 69.7537 11.8844C69.8522 11.8164 69.969 11.7801 70.0887 11.7801C70.2084 11.7801 70.3252 11.8164 70.4237 11.8844L119.424 39.7644C120.064 40.1344 120.714 40.5044 121.424 40.8644C121.509 40.9021 121.58 40.966 121.627 41.0469C121.674 41.1278 121.694 41.2215 121.684 41.3144C121.684 45.7344 121.684 50.1511 121.684 54.5644C121.624 55.0044 121.434 54.9044 121.204 54.9044Z" fill="#17313B"></path><path d="M127.524 51.5044C125.914 51.5044 124.294 51.5044 122.674 51.5044C122.334 51.5044 122.264 51.3844 122.264 51.0644C122.264 47.7044 122.264 44.3344 122.264 40.9744C122.278 40.8602 122.256 40.7443 122.201 40.6435C122.145 40.5428 122.058 40.4625 121.954 40.4144C117.467 37.8744 112.984 35.3277 108.504 32.7744L98.5036 27.1044L85.2036 19.5344L76.0036 14.2944L70.5236 11.1644C70.4187 11.077 70.2893 11.0243 70.1532 11.0136C70.0171 11.0028 69.881 11.0346 69.7636 11.1044L61.1136 16.0044L49.3336 22.7444L37.4336 29.5144L29.2436 34.1644L18.1436 40.4744C17.9136 40.6044 17.9036 40.7744 17.9036 40.9944C17.9036 44.3244 17.9036 47.6644 17.9036 50.9944C17.9036 51.4044 17.8136 51.5244 17.4136 51.5244C15.7136 51.5244 14.0136 51.5244 12.3036 51.5244C12.3036 51.3744 12.3036 51.2044 12.3036 51.0544C12.3036 46.9544 12.3036 42.8544 12.3036 38.7444C12.2858 38.5899 12.3192 38.4338 12.3987 38.3001C12.4782 38.1664 12.5994 38.0625 12.7436 38.0044L28.6136 29.1844C42.247 21.5644 55.8836 13.9611 69.5236 6.3744C69.6414 6.2986 69.7786 6.2583 69.9186 6.2583C70.0587 6.2583 70.1958 6.2986 70.3136 6.3744C83.687 13.8277 97.0636 21.2711 110.444 28.7044C115.99 31.8044 121.544 34.8944 127.104 37.9744C127.247 38.0348 127.367 38.1389 127.448 38.2717C127.529 38.4045 127.566 38.5594 127.554 38.7144C127.554 42.8244 127.554 46.9244 127.554 51.0344C127.534 51.1844 127.524 51.3344 127.524 51.5044Z" fill="#6B7A7E"></path><path d="M12.3136 89.1043C14.0436 89.1043 15.7736 89.1043 17.5036 89.1043C17.8336 89.1043 17.9036 89.2143 17.9036 89.5343C17.9036 92.8676 17.9036 96.2009 17.9036 99.5343C17.8889 99.6626 17.916 99.7923 17.9808 99.904C18.0457 100.016 18.1449 100.103 18.2636 100.154L31.6736 107.784L41.6736 113.454C46.1036 115.974 50.5336 118.514 54.9736 121.034C58.0436 122.784 61.1336 124.524 64.2036 126.264L69.6836 129.394C69.7863 129.482 69.9141 129.535 70.0489 129.546C70.1836 129.557 70.3183 129.525 70.4336 129.454C73.3136 127.801 76.1969 126.161 79.0836 124.534L90.8636 117.814L102.764 111.044L110.954 106.404L122.004 100.134C122.244 100.004 122.244 99.8343 122.244 99.6143C122.244 96.2743 122.244 92.9443 122.244 89.6143C122.244 89.2143 122.324 89.0843 122.734 89.0943C124.324 89.0943 125.924 89.0943 127.504 89.0943C127.504 89.2443 127.504 89.4043 127.504 89.5543C127.504 93.6643 127.504 97.7643 127.504 101.874C127.518 102.028 127.483 102.183 127.404 102.316C127.325 102.449 127.206 102.553 127.064 102.614C121.77 105.548 116.48 108.488 111.194 111.434L70.3236 134.214C70.2105 134.297 70.0739 134.342 69.9336 134.342C69.7934 134.342 69.6568 134.297 69.5436 134.214C50.8769 123.814 32.1836 113.424 13.4636 103.044C13.0763 102.873 12.7533 102.583 12.5412 102.217C12.3292 101.85 12.239 101.425 12.2836 101.004C12.3536 97.2143 12.2836 93.4243 12.2836 89.6343C12.2823 89.4572 12.2924 89.2801 12.3136 89.1043V89.1043Z" fill="#6B7A7E"></path><path d="M70.0036 88.9445H113.294C113.404 88.9445 113.594 88.8545 113.584 89.1145C113.574 89.3745 113.404 89.2545 113.284 89.2745C113.204 89.2841 113.123 89.2841 113.044 89.2745H26.8236C26.7437 89.2795 26.6635 89.2795 26.5836 89.2745C26.4636 89.2745 26.2836 89.3645 26.2936 89.1145C26.3036 88.8645 26.4736 88.9645 26.5836 88.9445C26.68 88.9345 26.7772 88.9345 26.8736 88.9445H70.0036Z" fill="#17313B"></path><path d="M69.9136 51.6645H26.9136C26.8339 51.6741 26.7533 51.6741 26.6736 51.6645C26.5536 51.6645 26.3436 51.7845 26.3436 51.4945C26.3436 51.2045 26.5536 51.3645 26.6736 51.3245C26.7402 51.3195 26.8071 51.3195 26.8736 51.3245H113.004C113.057 51.3195 113.11 51.3195 113.164 51.3245C113.284 51.3245 113.534 51.1845 113.534 51.4945C113.534 51.8045 113.284 51.6545 113.164 51.6545H69.9136V51.6645Z" fill="#17313B"></path><path d="M55.3737 62.0845H58.0937V78.8945H55.3737V62.0845Z" fill="white"></path><path d="M67.5637 73.5744C67.5938 73.955 67.541 74.3377 67.4089 74.6959C67.2768 75.0541 67.0686 75.3794 66.7987 75.6494C66.5287 75.9194 66.2034 76.1276 65.8451 76.2597C65.4869 76.3917 65.1043 76.4445 64.7237 76.4144C63.0637 76.4144 62.8237 74.8744 62.8237 74.0444V67.5344H60.1037V73.9244C60.0631 74.6202 60.1685 75.3168 60.4131 75.9695C60.6576 76.6222 61.0359 77.2166 61.5237 77.7144C61.9481 78.1194 62.451 78.4331 63.0014 78.6361C63.5518 78.8391 64.138 78.927 64.7237 78.8944C65.7479 78.9601 66.7601 78.6429 67.5637 78.0044V78.9444H70.2937V67.5344H67.5637V73.5744Z" fill="white"></path><path d="M75.6237 63.3843H72.9037V67.5343H70.9037V70.1343H72.9037V78.8943H75.6237V70.1343H77.6237V67.5343H75.6237V63.3843Z" fill="white"></path><path d="M86.1537 75.4643C85.5165 75.9748 84.7298 76.2628 83.9137 76.2843C83.4843 76.293 83.0576 76.2134 82.6602 76.0506C82.2627 75.8878 81.9029 75.6451 81.603 75.3377C81.303 75.0303 81.0694 74.6646 80.9164 74.2632C80.7634 73.8619 80.6944 73.4334 80.7137 73.0043C80.6856 72.5773 80.7491 72.1491 80.9001 71.7487C81.0512 71.3482 81.2861 70.9847 81.5892 70.6826C81.8923 70.3804 82.2565 70.1466 82.6575 69.9969C83.0584 69.8471 83.4867 69.7849 83.9137 69.8143C84.3227 69.7963 84.7312 69.8595 85.1157 70.0003C85.5002 70.141 85.853 70.3565 86.1537 70.6343L86.5137 70.9943L88.4137 69.2143L87.9337 68.8543C86.8315 67.8725 85.4097 67.3251 83.9337 67.3143C83.1511 67.2818 82.37 67.4079 81.6374 67.685C80.9048 67.9621 80.2357 68.3845 79.6705 68.9267C79.1053 69.4689 78.6555 70.1199 78.3483 70.8404C78.0411 71.5609 77.8827 72.3361 77.8827 73.1193C77.8827 73.9026 78.0411 74.6778 78.3483 75.3983C78.6555 76.1188 79.1053 76.7697 79.6705 77.312C80.2357 77.8542 80.9048 78.2766 81.6374 78.5536C82.37 78.8307 83.1511 78.9568 83.9337 78.9243C85.4097 78.9136 86.8315 78.3662 87.9337 77.3843L88.4137 77.0243L86.5137 75.1343L86.1537 75.4643Z" fill="white"></path><path d="M98.0036 68.4745C97.6223 68.0677 97.1554 67.7507 96.6365 67.5466C96.1176 67.3426 95.5599 67.2564 95.0036 67.2945C94.5296 67.271 94.0556 67.342 93.6092 67.5033C93.1629 67.6647 92.753 67.9133 92.4036 68.2345V62.0745H89.7036V78.8945H92.4336V72.6145C92.4336 70.0145 94.2036 69.7745 94.9136 69.7745C96.5736 69.7745 96.4536 71.3145 96.4536 72.1445V78.7745H99.1736V72.2645C99.2795 70.8983 98.8612 69.5432 98.0036 68.4745V68.4745Z" fill="white"></path><path d="M83.7937 75.0043C84.1695 75.0043 84.5368 74.8929 84.8493 74.6841C85.1617 74.4754 85.4052 74.1786 85.549 73.8314C85.6929 73.4843 85.7305 73.1022 85.6572 72.7337C85.5839 72.3651 85.4029 72.0266 85.1372 71.7608C84.8715 71.4951 84.5329 71.3142 84.1644 71.2409C83.7958 71.1675 83.4138 71.2052 83.0666 71.349C82.7194 71.4928 82.4227 71.7363 82.2139 72.0488C82.0051 72.3612 81.8937 72.7286 81.8937 73.1043C81.8937 73.6083 82.0939 74.0915 82.4502 74.4478C82.8065 74.8042 83.2898 75.0043 83.7937 75.0043Z" fill="#EF4335"></path><path d="M40.0037 70.7244C40.0037 75.3444 43.3237 78.8944 47.7037 78.8944C48.7611 78.9077 49.8102 78.7053 50.7868 78.2995C51.7634 77.8937 52.647 77.2931 53.3837 76.5344L53.7437 76.1744L51.9637 74.3944L51.6037 74.7544C50.555 75.7579 49.155 76.3107 47.7037 76.2944C44.7037 76.2944 42.6137 73.9244 42.6137 70.7244" fill="white"></path><path d="M42.5936 70.7243C42.5936 67.5343 44.7136 65.1643 47.7936 65.1643C48.5225 65.1702 49.2431 65.3198 49.9141 65.6047C50.585 65.8895 51.1932 66.304 51.7036 66.8243L52.0636 67.1843L53.8436 65.4043L53.4836 65.0043C52.7391 64.2527 51.8528 63.6561 50.8761 63.2493C49.8994 62.8425 48.8517 62.6335 47.7936 62.6343C43.2936 62.5243 39.9836 66.0643 39.9836 70.6343" fill="white"></path><path d="M65.8237 26.0043H64.0037V31.0943H63.2637V26.0043H61.4137V25.3843H65.8237V26.0043Z" fill="#223B44"></path><path d="M71.4337 28.3944C71.4463 28.8955 71.3508 29.3934 71.1537 29.8544C70.9927 30.2437 70.7172 30.575 70.3637 30.8044C69.9987 31.0199 69.5826 31.1335 69.1587 31.1335C68.7348 31.1335 68.3187 31.0199 67.9537 30.8044C67.5997 30.5773 67.3212 30.2501 67.1537 29.8644C66.954 29.4181 66.8549 28.9332 66.8637 28.4444V28.0044C66.8541 27.5067 66.9495 27.0126 67.1437 26.5544C67.309 26.1484 67.5909 25.8004 67.9537 25.5544C68.3107 25.333 68.7237 25.2185 69.1437 25.2244C69.5735 25.2155 69.9969 25.33 70.3637 25.5544C70.718 25.7854 70.9963 26.1159 71.1637 26.5044C71.365 26.9781 71.4605 27.4899 71.4437 28.0044V28.3744L71.4337 28.3944ZM70.6837 28.0044C70.7209 27.4549 70.5807 26.9081 70.2837 26.4444C70.1478 26.2754 69.9758 26.139 69.7802 26.0453C69.5846 25.9516 69.3705 25.903 69.1537 25.903C68.9369 25.903 68.7228 25.9516 68.5272 26.0453C68.3316 26.139 68.1596 26.2754 68.0237 26.4444C67.7091 26.9009 67.5609 27.4516 67.6037 28.0044V28.4244C67.5783 28.96 67.718 29.4906 68.0037 29.9444C68.131 30.1239 68.3009 30.2691 68.4981 30.3668C68.6953 30.4645 68.9137 30.5118 69.1337 30.5044C69.3503 30.5221 69.5679 30.4857 69.7669 30.3984C69.9659 30.3111 70.1401 30.1757 70.2737 30.0044C70.5732 29.5563 70.7172 29.0223 70.6837 28.4844V28.0044Z" fill="#223B44"></path><path d="M73.8037 28.8243V31.0643H73.0537V25.3643H75.1537C75.6819 25.3342 76.2023 25.5018 76.6137 25.8343C76.7815 26.0015 76.9147 26.2002 77.0055 26.419C77.0964 26.6378 77.1431 26.8724 77.1431 27.1093C77.1431 27.3462 77.0964 27.5808 77.0055 27.7996C76.9147 28.0184 76.7815 28.2171 76.6137 28.3843C76.188 28.71 75.6585 28.8699 75.1237 28.8343H73.8037V28.8243ZM73.8037 28.2143H75.1537C75.4859 28.2362 75.8141 28.1327 76.0737 27.9243C76.1879 27.822 76.277 27.6949 76.3342 27.5527C76.3914 27.4105 76.4152 27.2571 76.4037 27.1043C76.4096 26.9521 76.3833 26.8003 76.3264 26.659C76.2696 26.5177 76.1834 26.39 76.0737 26.2843C75.8319 26.0703 75.5162 25.9591 75.1937 25.9743H73.8037V28.2143Z" fill="#223B44"></path><path d="M63.8037 106.545H60.0637V106.005L62.0637 103.815C62.2964 103.57 62.4979 103.298 62.6637 103.005C62.7722 102.808 62.8306 102.589 62.8337 102.365C62.8398 102.231 62.819 102.098 62.7726 101.972C62.7262 101.847 62.6552 101.732 62.5637 101.634C62.4679 101.539 62.3538 101.465 62.2283 101.415C62.1029 101.365 61.9686 101.341 61.8337 101.344C61.6799 101.336 61.5261 101.359 61.3817 101.413C61.2372 101.466 61.1052 101.548 60.9937 101.655C60.8895 101.769 60.8093 101.903 60.7577 102.049C60.7062 102.195 60.6844 102.35 60.6937 102.505H60.0037C59.9942 102.269 60.0347 102.034 60.1226 101.815C60.2105 101.596 60.3438 101.398 60.5137 101.235C60.8793 100.931 61.3364 100.759 61.8116 100.746C62.2867 100.733 62.7523 100.881 63.1337 101.165C63.286 101.307 63.4059 101.481 63.4853 101.675C63.5646 101.868 63.6016 102.076 63.5937 102.285C63.4879 103.058 63.1082 103.767 62.5237 104.285L60.9437 106.005H63.8037V106.545Z" fill="#223B44"></path><path d="M68.6337 104.114C68.6828 104.773 68.533 105.432 68.2037 106.004C68.0348 106.197 67.8265 106.352 67.5928 106.458C67.3591 106.565 67.1054 106.619 66.8487 106.619C66.5921 106.619 66.3384 106.565 66.1047 106.458C65.871 106.352 65.6627 106.197 65.4937 106.004C65.1653 105.464 65.0084 104.836 65.0437 104.204V103.204C64.9956 102.552 65.1455 101.9 65.4737 101.334C65.6462 101.145 65.8562 100.994 66.0904 100.89C66.3245 100.787 66.5777 100.734 66.8337 100.734C67.0897 100.734 67.3429 100.787 67.5771 100.89C67.8113 100.994 68.0213 101.145 68.1937 101.334C68.5256 101.881 68.6826 102.516 68.6437 103.154V104.094L68.6337 104.114ZM67.9137 103.114C67.9488 102.649 67.859 102.183 67.6537 101.764C67.5684 101.626 67.4468 101.514 67.3023 101.44C67.1578 101.366 66.9957 101.333 66.8337 101.344C66.6732 101.334 66.5128 101.367 66.37 101.441C66.2272 101.515 66.1075 101.627 66.0237 101.764C65.8252 102.164 65.7356 102.609 65.7637 103.054V104.214C65.7325 104.687 65.8256 105.159 66.0337 105.584C66.1157 105.725 66.2345 105.84 66.3773 105.917C66.5201 105.995 66.6814 106.032 66.8437 106.024C67.0026 106.033 67.1609 105.999 67.3017 105.925C67.4426 105.851 67.5608 105.74 67.6437 105.604C67.8469 105.202 67.9401 104.754 67.9137 104.304V103.114Z" fill="#223B44"></path><path d="M73.7937 106.544H70.0537V106.004L72.0537 103.814C72.2864 103.57 72.4879 103.298 72.6537 103.004C72.7622 102.808 72.8206 102.588 72.8237 102.364C72.8298 102.231 72.809 102.097 72.7626 101.972C72.7162 101.847 72.6452 101.732 72.5537 101.634C72.4591 101.54 72.3466 101.466 72.223 101.417C72.0993 101.367 71.967 101.342 71.8337 101.344C71.6798 101.334 71.5254 101.357 71.3807 101.41C71.236 101.463 71.1041 101.547 70.9937 101.654C70.8875 101.767 70.806 101.901 70.7544 102.048C70.7028 102.194 70.6821 102.35 70.6937 102.504H69.9737C69.9629 102.269 70.0018 102.035 70.088 101.816C70.1742 101.597 70.3056 101.399 70.4737 101.234C70.6559 101.066 70.8702 100.935 71.1038 100.851C71.3375 100.767 71.5857 100.731 71.8337 100.744C72.2917 100.72 72.7421 100.87 73.0937 101.164C73.2476 101.306 73.3686 101.48 73.4481 101.673C73.5276 101.867 73.5636 102.075 73.5537 102.284C73.4479 103.058 73.0683 103.767 72.4837 104.284L70.9237 106.004H73.7937V106.544Z" fill="#223B44"></path><path d="M78.7836 106.544H75.0036V106.004L77.0036 103.814C77.2396 103.573 77.4414 103.3 77.6036 103.004C77.7168 102.81 77.7755 102.589 77.7736 102.364C77.7797 102.231 77.759 102.097 77.7126 101.972C77.6662 101.847 77.5952 101.732 77.5036 101.634C77.409 101.54 77.2966 101.466 77.1729 101.417C77.0493 101.367 76.9169 101.342 76.7836 101.344C76.6297 101.334 76.4754 101.357 76.3307 101.41C76.186 101.463 76.0541 101.547 75.9436 101.654C75.8375 101.768 75.756 101.902 75.7044 102.048C75.6527 102.194 75.632 102.35 75.6436 102.504H74.9236C74.9128 102.269 74.9518 102.035 75.038 101.816C75.1241 101.597 75.2556 101.399 75.4236 101.234C75.6061 101.066 75.8205 100.936 76.0541 100.852C76.2877 100.768 76.5357 100.731 76.7836 100.744C77.2417 100.72 77.692 100.87 78.0436 101.164C78.1976 101.306 78.3185 101.48 78.398 101.673C78.4775 101.867 78.5136 102.075 78.5036 102.284C78.3979 103.058 78.0182 103.767 77.4336 104.284L75.9136 106.004H78.7836V106.544Z" fill="#223B44"></path><path d="M41.8536 44.8044V39.1044H43.7136C44.2102 39.065 44.7051 39.1993 45.1136 39.4844C45.2732 39.6264 45.3984 39.8028 45.4799 40.0003C45.5613 40.1978 45.5968 40.4112 45.5836 40.6244C45.5858 40.8766 45.505 41.1226 45.3536 41.3244C45.1996 41.5387 44.9882 41.7051 44.7436 41.8044C45.0339 41.8777 45.2889 42.0513 45.4636 42.2944C45.6488 42.542 45.744 42.8454 45.7336 43.1544C45.7443 43.3804 45.705 43.606 45.6186 43.8152C45.5322 44.0243 45.4008 44.2118 45.2336 44.3644C44.8396 44.6831 44.3392 44.8404 43.8336 44.8044H41.8536ZM42.6036 41.5344H43.7436C44.0267 41.547 44.3055 41.4623 44.5336 41.2944C44.6282 41.2108 44.7031 41.1075 44.7533 40.9917C44.8034 40.8759 44.8274 40.7505 44.8236 40.6244C44.8352 40.4963 44.8168 40.3673 44.7699 40.2476C44.7231 40.1278 44.649 40.0206 44.5536 39.9344C44.3052 39.7712 44.0102 39.694 43.7136 39.7144H42.6036V41.5344ZM42.6036 42.1444V44.1444H43.8436C44.146 44.161 44.4431 44.0607 44.6736 43.8644C44.7718 43.7683 44.8491 43.6529 44.9007 43.5256C44.9523 43.3983 44.9771 43.2617 44.9736 43.1244C44.9736 42.4344 44.6036 42.1244 43.8536 42.1244L42.6036 42.1444Z" fill="#223B44"></path><path d="M50.8836 44.8045H47.1436V44.2845L49.1436 42.0945C49.3796 41.853 49.5814 41.5805 49.7436 41.2845C49.8568 41.0903 49.9155 40.8692 49.9136 40.6445C49.9231 40.3721 49.8263 40.1068 49.6436 39.9045C49.5503 39.8095 49.4379 39.7354 49.3137 39.6871C49.1896 39.6388 49.0566 39.6175 48.9236 39.6245C48.7665 39.5998 48.6058 39.613 48.4548 39.6629C48.3039 39.7129 48.167 39.7981 48.0555 39.9115C47.944 40.0249 47.8612 40.1633 47.8139 40.3151C47.7667 40.4669 47.7563 40.6278 47.7836 40.7845H47.0036C46.9927 40.548 47.0315 40.3119 47.1177 40.0914C47.2038 39.8709 47.3353 39.6709 47.5036 39.5045C47.6902 39.3326 47.9093 39.1997 48.1481 39.1139C48.3868 39.028 48.6403 38.9908 48.8936 39.0045C49.3517 38.9798 49.802 39.1299 50.1536 39.4245C50.3068 39.5646 50.4274 39.7366 50.5068 39.9284C50.5863 40.1202 50.6228 40.3271 50.6136 40.5345C50.5062 41.3072 50.1268 42.0163 49.5436 42.5345L48.0036 44.2145H50.8636V44.8045H50.8836Z" fill="#223B44"></path><path d="M52.3236 44.8044V39.1044H54.1936C54.687 39.0657 55.1785 39.2001 55.5836 39.4844C55.7432 39.6264 55.8684 39.8028 55.9498 40.0003C56.0313 40.1978 56.0667 40.4112 56.0536 40.6244C56.0558 40.8767 55.975 41.1226 55.8236 41.3244C55.6696 41.5387 55.4581 41.7051 55.2136 41.8044C55.5068 41.8772 55.7652 42.0506 55.9436 42.2944C56.1217 42.5451 56.213 42.8471 56.2036 43.1544C56.2135 43.3795 56.1749 43.604 56.0903 43.8128C56.0058 44.0215 55.8773 44.2097 55.7136 44.3644C55.3137 44.6795 54.8117 44.8361 54.3036 44.8044H52.3236ZM53.0736 41.5344H54.2136C54.4968 41.5487 54.7762 41.4638 55.0036 41.2944C55.0981 41.2108 55.1731 41.1075 55.2232 40.9917C55.2733 40.8759 55.2974 40.7505 55.2936 40.6244C55.3051 40.4963 55.2867 40.3674 55.2399 40.2476C55.193 40.1279 55.119 40.0207 55.0236 39.9344C54.7783 39.7727 54.4868 39.6955 54.1936 39.7144H53.0736V41.5344ZM53.0736 42.1444V44.1444H54.3136C54.6162 44.1631 54.9142 44.0626 55.1436 43.8644C55.2418 43.7683 55.3191 43.653 55.3707 43.5257C55.4223 43.3983 55.4471 43.2618 55.4436 43.1244C55.4436 42.4344 55.0736 42.1244 54.3236 42.1244L53.0736 42.1444Z" fill="#223B44"></path><path d="M64.4337 39.9345C64.4154 39.9681 64.3918 39.9985 64.3637 40.0245C64.3279 40.036 64.2895 40.036 64.2537 40.0245C64.1941 40.0195 64.1378 39.9949 64.0937 39.9545L63.8637 39.8045L63.5337 39.6545C63.3813 39.608 63.223 39.5844 63.0637 39.5845C62.9045 39.5852 62.7462 39.6087 62.5937 39.6545C62.4731 39.6974 62.3613 39.7618 62.2637 39.8445C62.174 39.9231 62.1053 40.0228 62.0637 40.1345C62.0146 40.2445 61.9907 40.3641 61.9937 40.4845C61.9886 40.6274 62.0308 40.768 62.1137 40.8845C62.1924 40.9993 62.2991 41.0923 62.4237 41.1545C62.5637 41.2349 62.711 41.3019 62.8637 41.3545L63.3737 41.5245C63.547 41.5824 63.7172 41.6492 63.8837 41.7245C64.0449 41.7926 64.1937 41.8873 64.3237 42.0045C64.4539 42.1186 64.5594 42.2581 64.6337 42.4145C64.7186 42.6064 64.7596 42.8148 64.7537 43.0245C64.7561 43.2673 64.712 43.5083 64.6237 43.7345C64.5437 43.9494 64.4174 44.144 64.2537 44.3045C64.0811 44.4773 63.873 44.6104 63.6437 44.6945C63.3811 44.7904 63.1032 44.8378 62.8237 44.8345C62.4805 44.8342 62.1406 44.7663 61.8237 44.6345C61.5271 44.5043 61.2587 44.3175 61.0337 44.0845L61.2637 43.7145C61.285 43.683 61.3122 43.6558 61.3437 43.6345C61.3763 43.6245 61.4111 43.6245 61.4437 43.6345C61.5158 43.6406 61.5833 43.6726 61.6337 43.7245L61.9037 43.9245C62.0274 44.0089 62.1619 44.0762 62.3037 44.1245C62.4831 44.1891 62.673 44.2196 62.8637 44.2145C63.0331 44.2186 63.202 44.195 63.3637 44.1445C63.4999 44.0953 63.6254 44.0206 63.7337 43.9245C63.8354 43.8342 63.9142 43.7211 63.9637 43.5945C64.0169 43.4574 64.0441 43.3116 64.0437 43.1645C64.051 43.012 64.0089 42.8612 63.9237 42.7345C63.8402 42.6213 63.7347 42.5261 63.6137 42.4545C63.4752 42.3737 63.3274 42.31 63.1737 42.2645L62.6637 42.1045L62.1537 41.9145C61.9964 41.8389 61.8487 41.7449 61.7137 41.6345C61.5806 41.5112 61.4749 41.3613 61.4037 41.1945C61.317 40.9926 61.276 40.7741 61.2837 40.5545C61.284 40.3518 61.3248 40.1512 61.4037 39.9645C61.4861 39.7733 61.605 39.6001 61.7537 39.4545C61.9114 39.3018 62.0985 39.1827 62.3037 39.1045C62.5493 39.011 62.811 38.9668 63.0737 38.9745C63.3736 38.9713 63.6717 39.0221 63.9537 39.1245C64.2106 39.224 64.4451 39.3736 64.6437 39.5645L64.4337 39.9345Z" fill="#223B44"></path><path d="M69.3037 39.0044V39.6444H66.5337V41.5544H68.7737V42.1644H66.5337V44.1644H69.3037V44.8044H65.7537V39.0044H69.3037Z" fill="#223B44"></path><path d="M71.2837 42.3944V44.8044H70.5037V39.0044H72.1337C72.4537 39.0005 72.773 39.0375 73.0837 39.1144C73.3228 39.176 73.5472 39.2848 73.7437 39.4344C73.9115 39.5695 74.0423 39.745 74.1237 39.9444C74.2074 40.1542 74.2482 40.3786 74.2437 40.6044C74.2508 40.891 74.1779 41.1738 74.033 41.4212C73.8881 41.6685 73.6771 41.8705 73.4237 42.0044C73.2359 42.1075 73.0336 42.1817 72.8237 42.2244C72.9289 42.286 73.018 42.3717 73.0837 42.4744L74.7637 44.7644H74.0737C74.0112 44.7684 73.9489 44.7546 73.894 44.7244C73.8391 44.6943 73.7939 44.6493 73.7637 44.5944L72.2637 42.5344C72.2215 42.48 72.1709 42.4327 72.1137 42.3944C72.0349 42.3745 71.9524 42.3745 71.8737 42.3944H71.2837ZM71.2837 41.8244H72.0937C72.2997 41.8258 72.505 41.7989 72.7037 41.7444C72.8597 41.6943 73.0054 41.6164 73.1337 41.5144C73.2514 41.4203 73.3413 41.2958 73.3937 41.1544C73.4552 41.0055 73.4858 40.8456 73.4837 40.6844C73.494 40.5381 73.4685 40.3914 73.4092 40.2572C73.35 40.123 73.2588 40.0053 73.1437 39.9144C72.8489 39.7181 72.4967 39.6266 72.1437 39.6544H71.2937L71.2837 41.8244Z" fill="#223B44"></path><path d="M74.9436 39.0043H75.5636C75.619 38.9874 75.6782 38.9874 75.7336 39.0043C75.7724 39.0432 75.806 39.0869 75.8336 39.1343L77.4636 43.2043C77.4636 43.2943 77.5336 43.3943 77.5636 43.5043L77.6536 43.8343C77.6536 43.7243 77.6536 43.6143 77.7336 43.5043C77.7594 43.402 77.7928 43.3017 77.8336 43.2043L79.4536 39.1343C79.477 39.0898 79.5074 39.0493 79.5436 39.0143C79.5917 38.9755 79.6517 38.9543 79.7136 38.9543H80.3436L78.0036 44.8043H77.3036L74.9436 39.0043Z" fill="#223B44"></path><path d="M82.0036 44.8044H81.2236V39.0044H82.0036V44.8044Z" fill="#223B44"></path><path d="M87.6136 43.6043C87.637 43.6034 87.6603 43.6085 87.6813 43.619C87.7022 43.6294 87.7202 43.645 87.7336 43.6643L88.0036 44.0043C87.7649 44.2755 87.4719 44.4935 87.1436 44.6443C86.7574 44.8052 86.3419 44.8835 85.9236 44.8743C85.5368 44.8798 85.1527 44.8084 84.7936 44.6643C84.4886 44.4996 84.2199 44.2751 84.0036 44.0043C83.7595 43.7345 83.5724 43.4182 83.4536 43.0743C83.3176 42.689 83.2499 42.2829 83.2536 41.8743C83.2491 41.468 83.3203 41.0645 83.4636 40.6843C83.5962 40.3356 83.8006 40.0188 84.0636 39.7543C84.3202 39.4886 84.6304 39.2807 84.9736 39.1443C85.3422 39.0297 85.7283 38.9822 86.1136 39.0043C86.4861 38.9934 86.8568 39.058 87.2036 39.1943C87.5095 39.3192 87.788 39.5027 88.0236 39.7343L87.7736 40.0943L87.7136 40.1543C87.6779 40.1658 87.6394 40.1658 87.6036 40.1543C87.5678 40.1651 87.5295 40.1651 87.4936 40.1543L87.3536 40.0043L87.1636 39.8743L86.9136 39.7543C86.7993 39.716 86.6823 39.6859 86.5636 39.6643C86.4108 39.6472 86.2565 39.6472 86.1036 39.6643C85.8238 39.6591 85.5459 39.7105 85.2864 39.8153C85.027 39.9202 84.7913 40.0763 84.5936 40.2743C84.4081 40.4864 84.2624 40.7303 84.1636 40.9943C84.0605 41.2968 84.0098 41.6147 84.0136 41.9343C84.0067 42.2737 84.0574 42.6118 84.1636 42.9343C84.2605 43.1939 84.4027 43.4343 84.5836 43.6443C84.7616 43.8391 84.98 43.9927 85.2236 44.0943C85.4745 44.1957 85.743 44.2467 86.0136 44.2443C86.1668 44.2552 86.3205 44.2552 86.4736 44.2443C86.6041 44.2276 86.7318 44.194 86.8536 44.1443C86.9708 44.1073 87.082 44.0534 87.1836 43.9843C87.2907 43.9173 87.3911 43.8402 87.4836 43.7543C87.4933 43.7214 87.51 43.6911 87.5324 43.6652C87.5548 43.6393 87.5825 43.6186 87.6136 43.6043Z" fill="#223B44"></path><path d="M92.6237 39.0044V39.6444H89.8537V41.5544H92.0937V42.1644H89.8537V44.1644H92.6237V44.8044H89.0637V39.0044H92.6237Z" fill="#223B44"></path><path d="M96.6937 39.9343C96.6751 39.9706 96.6476 40.0016 96.6137 40.0243C96.5813 40.0358 96.5461 40.0358 96.5137 40.0243C96.4537 40.021 96.3969 39.9961 96.3537 39.9543L96.1237 39.8043L95.7937 39.6543C95.6381 39.607 95.4763 39.5834 95.3137 39.5843C95.1578 39.5857 95.0029 39.6092 94.8537 39.6543C94.7331 39.6972 94.6213 39.7616 94.5237 39.8443C94.4341 39.9252 94.3626 40.024 94.3137 40.1343C94.2696 40.2458 94.2459 40.3644 94.2437 40.4843C94.2386 40.6272 94.2808 40.7678 94.3637 40.8843C94.4487 40.9972 94.5581 41.0895 94.6837 41.1543C94.8227 41.2367 94.9703 41.3037 95.1237 41.3543L95.6337 41.5243C95.8043 41.5806 95.9713 41.6474 96.1337 41.7243C96.2993 41.7898 96.4518 41.8847 96.5837 42.0043C96.7139 42.1184 96.8194 42.258 96.8937 42.4143C96.9786 42.6062 97.0196 42.8146 97.0137 43.0243C97.0161 43.2671 96.972 43.5081 96.8837 43.7343C96.8 43.9497 96.6703 44.1442 96.5037 44.3043C96.3366 44.4791 96.1312 44.6126 95.9037 44.6943C95.6409 44.7894 95.3632 44.8368 95.0837 44.8343C94.7403 44.8359 94.4001 44.7679 94.0837 44.6343C93.7871 44.5041 93.5188 44.3173 93.2937 44.0843L93.5237 43.7143C93.5415 43.6833 93.5653 43.6561 93.5937 43.6343C93.6298 43.6254 93.6676 43.6254 93.7037 43.6343C93.7754 43.6421 93.8423 43.6738 93.8937 43.7243C93.9789 43.7973 94.0691 43.8641 94.1637 43.9243C94.2874 44.0087 94.422 44.076 94.5637 44.1243C94.7431 44.189 94.9331 44.2195 95.1237 44.2143C95.2931 44.2185 95.462 44.1948 95.6237 44.1443C95.7569 44.0951 95.8792 44.0204 95.9837 43.9243C96.0885 43.8346 96.1707 43.7216 96.2237 43.5943C96.2769 43.4572 96.3041 43.3114 96.3037 43.1643C96.311 43.0118 96.2689 42.861 96.1837 42.7343C96.0977 42.6234 95.9927 42.5286 95.8737 42.4543C95.7352 42.3736 95.5875 42.3098 95.4337 42.2643L94.9237 42.1043L94.4137 41.9143C94.2565 41.8388 94.1087 41.7448 93.9737 41.6343C93.8406 41.5111 93.7349 41.3612 93.6637 41.1943C93.577 40.9924 93.536 40.7739 93.5437 40.5543C93.544 40.3516 93.5848 40.151 93.6637 39.9643C93.7424 39.7736 93.858 39.6003 94.0037 39.4543C94.1652 39.3015 94.3556 39.1825 94.5637 39.1043C94.8019 39.0248 95.0529 38.9909 95.3037 39.0043C95.6037 39.0002 95.902 39.0511 96.1837 39.1543C96.4451 39.2506 96.6836 39.4005 96.8837 39.5943L96.6937 39.9343Z" fill="#223B44"></path></svg>