<svg xmlns="http://www.w3.org/2000/svg" width="140" height="140" viewBox="0 0 140 140" fill="none"><path d="M70.4693 50.2939C70.3307 50.2939 70.3307 50.2246 70.4693 50.2939L69.9152 49.9476L69.7767 49.8091L57.1724 40.1827C57.1356 40.1827 57.1004 40.1681 57.0744 40.1421C57.0484 40.1162 57.0339 40.0809 57.0339 40.0442L56.8261 39.8364L56.6876 39.6979H56.4798L52.8093 36.9277L60.0118 38.1743C60.3581 38.1743 60.4273 38.3128 60.7736 38.3821C60.8978 38.4021 61.0161 38.4494 61.1199 38.5206C61.3432 38.6056 61.5531 38.7222 61.7432 38.8669C61.9509 39.0054 62.0894 39.0746 62.2972 39.2131C62.505 39.3516 62.6435 39.4209 62.6435 39.5594C62.7421 39.6534 62.8604 39.7244 62.9898 39.7672C63.1975 39.9057 63.336 39.9749 63.336 40.1134C63.5969 40.4281 63.8743 40.7286 64.1671 41.0138L69.846 49.6013L69.9845 49.7398L70.4693 50.2939Z" fill="#18AAD1"></path><path d="M70.4693 63.6601L69.9152 62.7598L69.7767 62.6213L52.9478 36.9971L56.6183 39.7673L57.2416 40.252L69.9152 49.8784H70.0537L70.4693 50.2247C70.506 50.2247 70.5412 50.2393 70.5672 50.2653C70.5932 50.2913 70.6078 50.3265 70.6078 50.3632L71.1618 49.8784L88.1984 36.9971L71.0233 62.7598L70.8848 62.8983L70.4693 63.6601Z" fill="#2AD2FF"></path><path d="M70.4693 45.931L69.9152 45.0307L69.7767 44.8922L65.6214 38.6593L69.7767 39.5596H69.9152L70.4693 39.6981L71.0233 39.5596L75.1093 38.5208L71.0233 44.9614V45.0999L70.4693 45.931Z" fill="#18AAD1"></path><path d="M88.2677 36.8586L82.8658 37.6897L80.8575 38.036C80.0294 38.1619 79.2373 38.4614 78.5331 38.9149C77.8289 39.3685 77.2285 39.9658 76.7714 40.6676L71.0925 49.3937L70.954 49.5322L70.4 50.3633L71.0233 49.6708L71.1618 49.5322L70.4 50.3633L84.9435 39.2826L88.2677 36.8586Z" fill="#18AAD1"></path><path d="M73.1702 18.714C73.1702 23.7695 64.9981 26.4012 64.9981 31.8031C64.9098 33.0734 65.1734 34.3434 65.7599 35.4736C65.7599 35.4736 62.6435 32.2879 62.6435 28.8251C62.6435 25.3624 65.6214 20.2376 65.6214 20.2376C65.6214 22.523 66.4525 23.2155 67.3528 23.354H67.4913C68.4609 23.354 69.0149 22.523 69.0149 21.4149C69.0149 20.3068 67.8376 19.1295 67.8376 16.8441C67.8376 14.5587 70.4 11.0959 70.4 11.0959C72.1794 13.2369 73.1588 15.9301 73.1702 18.714V18.714Z" fill="#18AAD1"></path><path d="M70.8848 37.1358C70.2702 37.1153 69.6657 36.9733 69.1062 36.7182C68.5467 36.463 68.0432 36.0996 67.6248 35.649C67.2063 35.1984 66.8812 34.6694 66.6681 34.0925C66.455 33.5157 66.3582 32.9024 66.3832 32.2879V32.1494C66.3832 26.2628 74.0012 25.7088 74.0012 17.8137C74.209 18.16 76.2866 21.1379 76.2866 24.3929C76.2866 28.4097 72.7547 29.4485 72.7547 31.3876C72.7251 31.5763 72.7405 31.7692 72.7996 31.9508C72.8588 32.1324 72.96 32.2974 73.095 32.4324C73.23 32.5674 73.395 32.6686 73.5766 32.7278C73.7581 32.7869 73.9511 32.8023 74.1398 32.7727C74.2045 32.7813 74.2704 32.773 74.331 32.7488C74.3916 32.7245 74.445 32.6851 74.486 32.6342C75.5204 32.1534 76.3995 31.3926 77.0237 30.4379C77.648 29.4832 77.9924 28.3727 78.018 27.2324C77.9488 27.3709 79.0568 37.1358 70.8848 37.1358Z" fill="#18AAD1"></path><path d="M74.209 32.7726C74.2738 32.7811 74.3396 32.7728 74.4003 32.7486C74.4609 32.7243 74.5143 32.6849 74.5553 32.6341C73.4472 32.9803 69.4997 34.0191 69.4997 31.0412C69.4997 27.3707 75.3863 26.5396 75.3863 23.4924C75.4134 21.5347 74.9365 19.6029 74.0012 17.8828C74.209 18.2291 76.2866 21.207 76.2866 24.462C76.2866 28.4788 72.7547 29.5176 72.7547 31.4567C72.7635 31.6387 72.8082 31.8171 72.8861 31.9818C72.9641 32.1465 73.0737 32.2942 73.2088 32.4164C73.3439 32.5386 73.5018 32.633 73.6734 32.6941C73.8451 32.7552 74.0271 32.7819 74.209 32.7726Z" fill="#18AAD1"></path><path d="M71.0233 20.7915C71.0233 23.631 67.5606 23.4232 67.3528 23.2847H67.6298C68.5994 23.2847 69.1534 22.4536 69.1534 21.3456C69.1534 20.2375 67.9761 19.0602 67.9761 16.7747C67.9761 14.4893 70.5385 11.0266 70.5385 11.0266C69.7227 12.4698 69.2489 14.0809 69.1534 15.7359C69.1534 18.3676 71.0233 18.6446 71.0233 20.7915Z" fill="#18AAD1"></path><path d="M68.8764 71.0011L66.5217 69.2698H69.4304L70.4 66.1533L71.2311 69.2698H74.1398L71.7851 71.0011L72.6161 73.9791L70.2615 72.1092L67.7683 73.9791L68.8764 71.0011Z" fill="#18AAD1"></path><path d="M81.2037 71.0011L78.8491 69.2698H81.7578L82.7273 66.1533L83.5584 69.2698H86.4671L84.1124 71.0011L84.9435 73.9791L82.5888 72.1092L80.0957 73.9791L81.2037 71.0011Z" fill="#18AAD1"></path><path d="M93.5311 71.0011L91.1764 69.2698H94.0851L95.0547 66.1533L95.8857 69.2698H98.7944L96.4398 71.0011L97.2708 73.9791L94.9162 72.1092L92.423 73.9791L93.5311 71.0011Z" fill="#18AAD1"></path><path d="M56.6183 71.0011L54.2637 69.2698H57.1724L58.1419 66.1533L58.973 69.2698H61.8817L59.527 71.0011L60.3581 73.9791L58.0034 72.1092L55.6488 73.9791L56.6183 71.0011Z" fill="#18AAD1"></path><path d="M44.3603 71.0011L42.0056 69.2698H44.9143L45.8839 66.1533L46.7149 69.2698H49.6236L47.2689 71.0011L48.1 73.9791L45.7453 72.1092L43.3907 73.9791L44.3603 71.0011Z" fill="#18AAD1"></path><path d="M46.3686 86.722V82.2205H44.7758V81.1816H49.2081V82.2205H47.546V86.722H46.3686Z" fill="black"></path><path d="M48.8618 84.7137C48.848 84.2864 48.9621 83.8647 49.1895 83.5027C49.4168 83.1406 49.7471 82.8547 50.138 82.6816C50.5289 82.5084 50.9626 82.4559 51.3835 82.5307C51.8044 82.6056 52.1934 82.8044 52.5006 83.1017C52.8078 83.399 53.0193 83.7813 53.1079 84.1995C53.1965 84.6177 53.1582 85.0529 52.9979 85.4492C52.8377 85.8456 52.5627 86.185 52.2083 86.4242C51.8539 86.6633 51.4362 86.7911 51.0087 86.7913C50.7279 86.8099 50.4463 86.7694 50.182 86.6725C49.9178 86.5755 49.6768 86.4243 49.4745 86.2286C49.2723 86.0329 49.1133 85.797 49.0077 85.536C48.9022 85.2751 48.8525 84.995 48.8618 84.7137V84.7137ZM51.9783 84.7137C51.9947 84.5667 51.9802 84.4179 51.9357 84.2769C51.8912 84.1359 51.8176 84.0057 51.7198 83.8948C51.6219 83.7839 51.5019 83.6947 51.3675 83.633C51.2332 83.5713 51.0873 83.5384 50.9394 83.5364C50.7935 83.5443 50.6506 83.5812 50.5191 83.6449C50.3876 83.7086 50.27 83.7978 50.1733 83.9074C50.0767 84.017 50.0027 84.1447 49.9559 84.2831C49.9091 84.4216 49.8903 84.5679 49.9006 84.7137C49.8837 84.8602 49.8979 85.0086 49.9424 85.1492C49.9869 85.2898 50.0606 85.4194 50.1587 85.5295C50.2568 85.6396 50.377 85.7278 50.5116 85.7881C50.6462 85.8484 50.792 85.8796 50.9394 85.8796C51.0869 85.8796 51.2327 85.8484 51.3673 85.7881C51.5018 85.7278 51.6221 85.6396 51.7202 85.5295C51.8183 85.4194 51.892 85.2898 51.9365 85.1492C51.981 85.0086 51.9952 84.8602 51.9783 84.7137V84.7137Z" fill="black"></path><path d="M54.9562 86.1681V88.2458H53.9174V82.7054H54.9562V83.1902C55.097 82.992 55.2843 82.8316 55.5017 82.7229C55.7191 82.6142 55.9598 82.5606 56.2028 82.5669C57.2416 82.5669 58.0034 83.3287 58.0034 84.6445C58.0034 85.9604 57.2416 86.7222 56.2028 86.7222C55.9644 86.7503 55.7229 86.7137 55.5035 86.6162C55.2842 86.5187 55.0951 86.3639 54.9562 86.1681V86.1681ZM56.8953 84.7138C56.9118 84.5668 56.8973 84.418 56.8528 84.277C56.8082 84.136 56.7347 84.0058 56.6368 83.8949C56.539 83.784 56.419 83.6948 56.2846 83.6331C56.1502 83.5714 56.0044 83.5384 55.8565 83.5365C55.6798 83.5449 55.5072 83.5928 55.3513 83.6767C55.1955 83.7606 55.0605 83.8783 54.9562 84.0212V85.4063C55.0605 85.5493 55.1955 85.667 55.3513 85.7509C55.5072 85.8348 55.6798 85.8827 55.8565 85.8911C56.0044 85.8891 56.1502 85.8562 56.2846 85.7945C56.419 85.7328 56.539 85.6436 56.6368 85.5327C56.7347 85.4218 56.8082 85.2916 56.8528 85.1506C56.8973 85.0096 56.9118 84.8608 56.8953 84.7138Z" fill="black"></path><path d="M60.6351 83.9518C60.6213 83.3738 60.7801 82.8048 61.0913 82.3174C61.4024 81.8301 61.8517 81.4465 62.3819 81.2157C62.912 80.9849 63.4989 80.9173 64.0676 81.0216C64.6363 81.1259 65.1611 81.3973 65.5748 81.8012C65.9885 82.2051 66.2725 82.7231 66.3905 83.2892C66.5084 83.8552 66.455 84.4436 66.2371 84.9791C66.0191 85.5146 65.6465 85.9731 65.1667 86.2958C64.687 86.6186 64.122 86.7911 63.5438 86.7913C63.1626 86.8105 62.7816 86.7507 62.4246 86.6157C62.0676 86.4808 61.7424 86.2735 61.4693 86.0069C61.1961 85.7403 60.9811 85.4201 60.8375 85.0665C60.694 84.7128 60.6251 84.3334 60.6351 83.9518ZM65.2059 83.9518C65.1803 83.6283 65.0609 83.3192 64.8624 83.0624C64.6638 82.8057 64.3947 82.6124 64.088 82.5062C63.7813 82.4 63.4503 82.3856 63.1355 82.4647C62.8207 82.5437 62.5358 82.7128 62.3156 82.9513C62.0955 83.1898 61.9497 83.4873 61.896 83.8074C61.8423 84.1276 61.8832 84.4564 62.0135 84.7536C62.1438 85.0509 62.358 85.3037 62.6298 85.4811C62.9016 85.6585 63.2192 85.7528 63.5438 85.7524C63.7736 85.7512 64.0007 85.7027 64.211 85.6099C64.4213 85.5172 64.6102 85.3822 64.7661 85.2133C64.922 85.0444 65.0415 84.8453 65.1171 84.6283C65.1928 84.4113 65.223 84.181 65.2059 83.9518V83.9518Z" fill="black"></path><path d="M67.4913 86.7221V83.6056H66.7988V82.7053H67.4913V82.5668C67.4812 82.2898 67.5544 82.0161 67.7015 81.7812C67.8486 81.5462 68.0628 81.3608 68.3164 81.249C68.57 81.1371 68.8513 81.1038 69.124 81.1536C69.3967 81.2033 69.6482 81.3337 69.846 81.528L69.4304 82.1512C69.3041 82.0744 69.1621 82.0271 69.0149 82.0127C68.9453 82.0132 68.8766 82.0283 68.8133 82.0573C68.7501 82.0862 68.6936 82.1283 68.6478 82.1806C68.602 82.233 68.5678 82.2945 68.5475 82.3611C68.5272 82.4276 68.5213 82.4977 68.5301 82.5668V82.7053H69.3612V83.6056H68.5301V86.7221H67.4913ZM70.1922 86.7221V83.6056H69.4997V82.7053H70.1922V82.5668C70.1821 82.2898 70.2553 82.0161 70.4024 81.7812C70.5495 81.5462 70.7637 81.3608 71.0173 81.249C71.2709 81.1371 71.5523 81.1038 71.825 81.1536C72.0976 81.2033 72.3491 81.3337 72.5469 81.528L72.1314 82.1512C72.005 82.0744 71.863 82.0271 71.7158 82.0127C71.6463 82.0132 71.5775 82.0283 71.5143 82.0573C71.451 82.0862 71.3946 82.1283 71.3488 82.1806C71.3029 82.233 71.2687 82.2945 71.2484 82.3611C71.2282 82.4276 71.2222 82.4977 71.2311 82.5668V82.7053H72.0621V83.6056H71.2311V86.7221H70.1922Z" fill="black"></path><path d="M72.3391 86.168L72.8239 85.4062C73.2104 85.7411 73.6982 85.9362 74.209 85.9602C74.6938 85.9602 74.9016 85.7525 74.9016 85.5447C74.9016 84.9214 72.5469 85.4062 72.5469 83.8826C72.5469 83.19 73.1009 82.636 74.209 82.636C74.7922 82.6035 75.3647 82.8026 75.8019 83.19L75.3863 83.9518C75.2356 83.7923 75.0526 83.6667 74.8497 83.5831C74.6467 83.4995 74.4284 83.46 74.209 83.467C73.7935 83.467 73.5857 83.6056 73.5857 83.8826C73.5857 84.5059 75.9404 83.9518 75.9404 85.6139C75.9404 86.3757 75.3171 86.8605 74.209 86.8605C73.5233 86.859 72.8604 86.6135 72.3391 86.168V86.168Z" fill="black"></path><path d="M79.3339 86.722V84.2981C79.3448 84.1954 79.3326 84.0915 79.2981 83.9941C79.2637 83.8968 79.2079 83.8083 79.1349 83.7353C79.0618 83.6622 78.9734 83.6065 78.876 83.572C78.7786 83.5376 78.6748 83.5254 78.572 83.5363C78.3921 83.5276 78.2131 83.5681 78.0545 83.6535C77.8958 83.7389 77.7635 83.866 77.6717 84.0211V86.722H76.6329V81.1816H77.6717V83.2593C78.0336 82.8776 78.5312 82.6537 79.0568 82.636C79.2296 82.6099 79.4061 82.6236 79.5728 82.676C79.7395 82.7283 79.8921 82.818 80.019 82.9382C80.1458 83.0584 80.2436 83.2059 80.3049 83.3695C80.3662 83.5332 80.3894 83.7086 80.3727 83.8826V86.722H79.3339Z" fill="black"></path><path d="M81.2037 84.7137C81.1899 84.2864 81.304 83.8647 81.5314 83.5027C81.7588 83.1406 82.089 82.8547 82.4799 82.6816C82.8708 82.5084 83.3045 82.4559 83.7254 82.5307C84.1463 82.6056 84.5353 82.8044 84.8425 83.1017C85.1497 83.399 85.3612 83.7813 85.4498 84.1995C85.5384 84.6177 85.5001 85.0529 85.3398 85.4492C85.1796 85.8456 84.9047 86.185 84.5503 86.4242C84.1959 86.6633 83.7781 86.7911 83.3506 86.7913C83.0698 86.8099 82.7882 86.7694 82.5239 86.6725C82.2597 86.5755 82.0187 86.4243 81.8164 86.2286C81.6142 86.0329 81.4552 85.797 81.3496 85.536C81.2441 85.2751 81.1944 84.995 81.2037 84.7137V84.7137ZM84.3202 84.7137C84.3366 84.5667 84.3221 84.4179 84.2776 84.2769C84.2331 84.1359 84.1595 84.0057 84.0617 83.8948C83.9638 83.7839 83.8439 83.6947 83.7095 83.633C83.5751 83.5713 83.4292 83.5384 83.2814 83.5364C83.1354 83.5443 82.9925 83.5812 82.861 83.6449C82.7295 83.7086 82.6119 83.7978 82.5153 83.9074C82.4186 84.017 82.3447 84.1447 82.2978 84.2831C82.251 84.4216 82.2322 84.5679 82.2425 84.7137C82.2256 84.8602 82.2398 85.0086 82.2843 85.1492C82.3288 85.2898 82.4025 85.4194 82.5006 85.5295C82.5987 85.6396 82.719 85.7278 82.8535 85.7881C82.9881 85.8484 83.1339 85.8796 83.2814 85.8796C83.4288 85.8796 83.5746 85.8484 83.7092 85.7881C83.8438 85.7278 83.964 85.6396 84.0621 85.5295C84.1602 85.4194 84.234 85.2898 84.2784 85.1492C84.3229 85.0086 84.3371 84.8602 84.3202 84.7137V84.7137Z" fill="black"></path><path d="M86.2593 86.722V82.7052H87.2981V83.2593C87.4493 83.0724 87.6388 82.92 87.8539 82.8125C88.0689 82.705 88.3045 82.6448 88.5447 82.636V83.6748H88.2677C88.0795 83.6748 87.894 83.7186 87.7257 83.8028C87.5574 83.8869 87.411 84.0091 87.2981 84.1596V86.7913H86.2593V86.722Z" fill="black"></path><path d="M88.9602 84.7137C88.9495 84.438 88.996 84.163 89.0966 83.9061C89.1972 83.6492 89.3499 83.4158 89.545 83.2207C89.7401 83.0256 89.9734 82.873 90.2303 82.7724C90.4872 82.6717 90.7622 82.6253 91.0379 82.636C91.3194 82.6367 91.5977 82.6961 91.855 82.8105C92.1122 82.9248 92.3428 83.0917 92.5318 83.3003C92.7209 83.5089 92.8643 83.7547 92.9529 84.0219C93.0415 84.2892 93.0733 84.5719 93.0463 84.8522V85.1292H90.0683C90.1158 85.3996 90.2633 85.6423 90.4813 85.809C90.6994 85.9758 90.9722 86.0545 91.2457 86.0295C91.4382 86.0363 91.63 86.0028 91.8089 85.9313C91.9878 85.8598 92.1497 85.7517 92.2845 85.614L92.7693 86.3065C92.2934 86.6732 91.7078 86.8684 91.1071 86.8606C90.8239 86.8652 90.5426 86.8129 90.2801 86.7067C90.0175 86.6004 89.7789 86.4425 89.5786 86.2422C89.3783 86.0419 89.2204 85.8033 89.1141 85.5408C89.0079 85.2782 88.9556 84.9969 88.9602 84.7137V84.7137ZM91.0379 83.4671C90.8006 83.4552 90.5678 83.5347 90.3874 83.6893C90.2071 83.8439 90.0928 84.0618 90.0683 84.2981H92.0767C92.0348 84.0567 91.906 83.839 91.7147 83.6859C91.5233 83.5328 91.2826 83.455 91.0379 83.4671V83.4671Z" fill="black"></path><path d="M26.2848 95.9329L26.9081 95.0326C27.1294 95.271 27.3971 95.4616 27.6949 95.5927C27.9927 95.7237 28.3141 95.7923 28.6394 95.7944C29.2627 95.7944 29.609 95.5173 29.609 95.1711C29.609 94.2015 26.4233 94.8941 26.4233 92.8164C26.4233 91.9161 27.2544 91.1543 28.5009 91.1543C29.2871 91.1282 30.054 91.4003 30.6478 91.9161L30.0245 92.8164C29.5927 92.4128 29.0228 92.1897 28.4317 92.1931C27.9469 92.1931 27.6699 92.4009 27.6699 92.7472C27.6699 93.6475 30.8556 93.0242 30.8556 95.1018C30.8556 96.1406 30.0938 96.9024 28.6394 96.9024C27.7753 96.8218 26.9551 96.4841 26.2848 95.9329V95.9329Z" fill="black"></path><path d="M31.4096 94.6865C31.4095 94.4077 31.4654 94.1317 31.5741 93.8751C31.6829 93.6184 31.8421 93.3862 32.0424 93.1923C32.2428 92.9984 32.48 92.8469 32.7402 92.7466C33.0003 92.6464 33.2779 92.5995 33.5565 92.6088C34.1075 92.6088 34.636 92.8277 35.0256 93.2173C35.4153 93.607 35.6342 94.1354 35.6342 94.6865C35.6342 95.2375 35.4153 95.7659 35.0256 96.1556C34.636 96.5452 34.1075 96.7641 33.5565 96.7641C33.2757 96.7826 32.9941 96.7421 32.7298 96.6452C32.4656 96.5483 32.2246 96.3971 32.0223 96.2014C31.8201 96.0056 31.6611 95.7697 31.5556 95.5088C31.45 95.2479 31.4003 94.9678 31.4096 94.6865V94.6865ZM34.5261 94.6865C34.5425 94.5395 34.528 94.3907 34.4835 94.2497C34.439 94.1086 34.3654 93.9785 34.2676 93.8676C34.1697 93.7567 34.0498 93.6675 33.9154 93.6058C33.781 93.544 33.6352 93.5111 33.4873 93.5091C33.3413 93.517 33.1985 93.5539 33.0669 93.6176C32.9354 93.6813 32.8179 93.7705 32.7212 93.8801C32.6245 93.9897 32.5506 94.1174 32.5037 94.2559C32.4569 94.3943 32.4381 94.5407 32.4485 94.6865C32.4315 94.833 32.4457 94.9814 32.4902 95.122C32.5347 95.2626 32.6084 95.3922 32.7065 95.5023C32.8046 95.6124 32.9249 95.7005 33.0594 95.7608C33.194 95.8212 33.3398 95.8524 33.4873 95.8524C33.6347 95.8524 33.7805 95.8212 33.9151 95.7608C34.0497 95.7005 34.1699 95.6124 34.268 95.5023C34.3662 95.3922 34.4399 95.2626 34.4843 95.122C34.5288 94.9814 34.543 94.833 34.5261 94.6865Z" fill="black"></path><path d="M36.673 96.6947V93.5782H35.9804V92.6779H36.673V92.5394C36.6629 92.2624 36.7361 91.9888 36.8832 91.7538C37.0303 91.5189 37.2445 91.3335 37.4981 91.2216C37.7517 91.1097 38.033 91.0765 38.3057 91.1262C38.5784 91.176 38.8299 91.3064 39.0276 91.5006L38.6121 92.1239C38.4858 92.0471 38.3437 91.9997 38.1966 91.9854C38.127 91.9858 38.0583 92.001 37.995 92.0299C37.9317 92.0589 37.8753 92.1009 37.8295 92.1533C37.7837 92.2057 37.7495 92.2672 37.7292 92.3337C37.7089 92.4003 37.703 92.4704 37.7118 92.5394V92.6779H38.5429V93.5782H37.7118V96.6947H36.673Z" fill="black"></path><path d="M39.3739 95.6558V93.5782H38.6814V92.6779H39.3739V91.5698H40.4127V92.6779H41.2438V93.5782H40.4127V95.3788C40.4127 95.6558 40.5512 95.7944 40.759 95.7944C40.8875 95.792 41.0106 95.7427 41.1053 95.6558L41.313 96.4869C41.0607 96.6934 40.7375 96.7929 40.4127 96.7639C39.7202 96.7639 39.3739 96.4176 39.3739 95.6558Z" fill="black"></path><path d="M45.4683 96.6947L44.6373 93.9938L43.8062 96.6947H42.6981L41.4516 92.678H42.5596L43.3214 95.3789L44.2217 92.678H45.1913L46.0916 95.3789L46.8534 92.678H47.9615L46.7149 96.6947H45.4683Z" fill="black"></path><path d="M50.7317 96.6947V96.2791C50.5767 96.4566 50.3848 96.598 50.1695 96.6937C49.9542 96.7894 49.7207 96.837 49.4851 96.8332C49.3068 96.8416 49.1286 96.8138 48.9614 96.7516C48.7941 96.6893 48.6411 96.5938 48.5117 96.4709C48.3823 96.3479 48.2791 96.2001 48.2083 96.0362C48.1376 95.8723 48.1007 95.6958 48.1 95.5173C48.0945 95.3371 48.1272 95.1577 48.1958 94.9909C48.2644 94.8242 48.3674 94.6738 48.4982 94.5496C48.6289 94.4254 48.7844 94.3302 48.9545 94.2702C49.1245 94.2102 49.3054 94.1868 49.4851 94.2015C49.7155 94.188 49.9461 94.2244 50.1612 94.308C50.3763 94.3917 50.5709 94.5207 50.7317 94.6863V94.1322C50.7317 93.7167 50.3854 93.4397 49.8314 93.4397C49.6126 93.4368 49.3954 93.4783 49.1931 93.5616C48.9908 93.6449 48.8074 93.7684 48.654 93.9245L48.2385 93.1627C48.7231 92.7555 49.337 92.5345 49.9699 92.5394C50.8702 92.5394 51.7012 92.8857 51.7012 94.063V96.6254H50.7317V96.6947ZM50.7317 95.7251V95.2403C50.6236 95.1297 50.4943 95.0419 50.3515 94.9824C50.2087 94.9229 50.0553 94.8929 49.9006 94.894C49.4851 94.894 49.1388 95.1018 49.1388 95.5173C49.1388 95.9329 49.4851 96.1406 49.9006 96.1406C50.2172 96.1019 50.5108 95.9552 50.7317 95.7251Z" fill="black"></path><path d="M52.8786 96.6947V92.6779H53.9174V93.2319C54.0686 93.045 54.2581 92.8927 54.4731 92.7852C54.6882 92.6777 54.9237 92.6175 55.164 92.6086V93.6475H54.887C54.6988 93.6475 54.5132 93.6913 54.345 93.7754C54.1767 93.8596 54.0303 93.9817 53.9174 94.1322V96.7639H52.8786V96.6947Z" fill="black"></path><path d="M55.5795 94.6863C55.5688 94.4106 55.6152 94.1357 55.7158 93.8787C55.8165 93.6218 55.9691 93.3885 56.1642 93.1934C56.3593 92.9983 56.5927 92.8456 56.8496 92.745C57.1065 92.6444 57.3814 92.598 57.6571 92.6087C57.9387 92.6093 58.217 92.6687 58.4742 92.7831C58.7315 92.8975 58.962 93.0643 59.1511 93.2729C59.3401 93.4816 59.4835 93.7273 59.5721 93.9946C59.6607 94.2618 59.6925 94.5446 59.6655 94.8248V95.1019H56.6876C56.7351 95.3723 56.8825 95.6149 57.1006 95.7817C57.3187 95.9485 57.5915 96.0272 57.8649 96.0022C58.0574 96.009 58.2493 95.9755 58.4281 95.904C58.607 95.8324 58.769 95.7243 58.9037 95.5866L59.3885 96.2792C58.9127 96.6458 58.327 96.841 57.7264 96.8332C57.1581 96.8296 56.6142 96.6022 56.2123 96.2004C55.8105 95.7986 55.5831 95.2546 55.5795 94.6863V94.6863ZM57.6571 93.4397C57.4199 93.4278 57.1871 93.5074 57.0067 93.662C56.8263 93.8166 56.7121 94.0345 56.6876 94.2708H58.696C58.654 94.0294 58.5252 93.8116 58.3339 93.6586C58.1426 93.5055 57.9019 93.4277 57.6571 93.4397V93.4397Z" fill="black"></path><path d="M62.6435 96.6947V91.1543H64.8596C65.5943 91.1543 66.2989 91.4462 66.8184 91.9657C67.338 92.4852 67.6298 93.1898 67.6298 93.9245C67.6298 94.6592 67.338 95.3638 66.8184 95.8833C66.2989 96.4028 65.5943 96.6947 64.8596 96.6947H62.6435ZM66.5217 93.9245C66.5359 93.6934 66.5008 93.462 66.4188 93.2455C66.3368 93.029 66.2098 92.8324 66.0461 92.6688C65.8824 92.5051 65.6858 92.378 65.4693 92.296C65.2529 92.214 65.0214 92.179 64.7904 92.1931H63.7516V95.6558H64.7904C65.0201 95.6646 65.2491 95.6258 65.4632 95.5419C65.6772 95.458 65.8715 95.3308 66.0341 95.1682C66.1966 95.0057 66.3239 94.8113 66.4078 94.5973C66.4917 94.3832 66.5305 94.1542 66.5217 93.9245V93.9245Z" fill="black"></path><path d="M68.3224 94.6863C68.3117 94.4106 68.3581 94.1357 68.4587 93.8787C68.5593 93.6218 68.712 93.3885 68.9071 93.1934C69.1022 92.9983 69.3355 92.8456 69.5924 92.745C69.8493 92.6444 70.1243 92.598 70.4 92.6087C70.6815 92.6093 70.9598 92.6687 71.2171 92.7831C71.4743 92.8975 71.7049 93.0643 71.8939 93.2729C72.083 93.4816 72.2264 93.7273 72.315 93.9946C72.4036 94.2618 72.4354 94.5446 72.4084 94.8248V95.1019H69.4304C69.4779 95.3723 69.6254 95.6149 69.8435 95.7817C70.0616 95.9485 70.3344 96.0272 70.6078 96.0022C70.8003 96.009 70.9921 95.9755 71.171 95.904C71.3499 95.8324 71.5118 95.7243 71.6466 95.5866L72.1314 96.2792C71.6556 96.6458 71.0699 96.841 70.4693 96.8332C70.186 96.8379 69.9048 96.7856 69.6422 96.6793C69.3796 96.5731 69.141 96.4151 68.9407 96.2148C68.7404 96.0145 68.5825 95.776 68.4762 95.5134C68.37 95.2508 68.3177 94.9696 68.3224 94.6863V94.6863ZM70.4 93.4397C70.1627 93.4278 69.9299 93.5074 69.7495 93.662C69.5692 93.8166 69.455 94.0345 69.4304 94.2708H71.4388C71.3969 94.0294 71.2681 93.8116 71.0768 93.6586C70.8854 93.5055 70.6447 93.4277 70.4 93.4397V93.4397Z" fill="black"></path><path d="M74.209 96.6947L72.6161 92.678H73.7242L74.763 95.4482L75.8019 92.678H76.9099L75.3171 96.6947H74.209Z" fill="black"></path><path d="M77.187 94.6863C77.1762 94.4106 77.2227 94.1357 77.3233 93.8787C77.4239 93.6218 77.5766 93.3885 77.7717 93.1934C77.9668 92.9983 78.2001 92.8456 78.457 92.745C78.7139 92.6444 78.9889 92.598 79.2646 92.6087C79.5461 92.6093 79.8244 92.6687 80.0817 92.7831C80.3389 92.8975 80.5695 93.0643 80.7585 93.2729C80.9476 93.4816 81.091 93.7273 81.1796 93.9946C81.2682 94.2618 81.3 94.5446 81.273 94.8248V95.1019H78.295C78.3426 95.3723 78.49 95.6149 78.7081 95.7817C78.9261 95.9485 79.199 96.0272 79.4724 96.0022C79.6649 96.009 79.8567 95.9755 80.0356 95.904C80.2145 95.8324 80.3764 95.7243 80.5112 95.5866L80.996 96.2792C80.5202 96.6458 79.9345 96.841 79.3339 96.8332C79.0506 96.8379 78.7694 96.7856 78.5068 96.6793C78.2442 96.5731 78.0056 96.4151 77.8053 96.2148C77.605 96.0145 77.4471 95.776 77.3408 95.5134C77.2346 95.2508 77.1823 94.9696 77.187 94.6863V94.6863ZM79.2646 93.4397C79.0273 93.4278 78.7945 93.5074 78.6141 93.662C78.4338 93.8166 78.3196 94.0345 78.295 94.2708H80.3034C80.2512 94.0345 80.1197 93.8231 79.9307 93.6719C79.7417 93.5207 79.5066 93.4388 79.2646 93.4397V93.4397Z" fill="black"></path><path d="M82.0348 96.6947V91.1543H83.0736V96.6947H82.0348Z" fill="black"></path><path d="M83.8354 94.6864C83.8216 94.2591 83.9357 93.8374 84.1631 93.4753C84.3904 93.1133 84.7207 92.8274 85.1116 92.6542C85.5025 92.481 85.9361 92.4285 86.3571 92.5034C86.778 92.5782 87.167 92.777 87.4742 93.0744C87.7814 93.3717 87.9929 93.7539 88.0815 94.1721C88.1701 94.5904 88.1318 95.0255 87.9715 95.4219C87.8113 95.8182 87.5363 96.1577 87.1819 96.3968C86.8275 96.6359 86.4098 96.7638 85.9823 96.764C85.7037 96.7733 85.4261 96.7264 85.1659 96.6262C84.9058 96.5259 84.6685 96.3744 84.4682 96.1805C84.2679 95.9867 84.1086 95.7545 83.9999 95.4978C83.8912 95.2411 83.8353 94.9651 83.8354 94.6864V94.6864ZM87.0211 94.6864C87.0376 94.5394 87.0231 94.3906 86.9785 94.2496C86.934 94.1085 86.8605 93.9784 86.7626 93.8675C86.6648 93.7566 86.5448 93.6674 86.4104 93.6057C86.276 93.5439 86.1302 93.511 85.9823 93.509C85.8364 93.5169 85.6935 93.5538 85.5619 93.6175C85.4304 93.6812 85.3129 93.7705 85.2162 93.88C85.1195 93.9896 85.0456 94.1173 84.9988 94.2558C84.952 94.3942 84.9332 94.5406 84.9435 94.6864C84.927 94.8333 84.9415 94.9821 84.9861 95.1232C85.0306 95.2642 85.1041 95.3944 85.202 95.5052C85.2998 95.6161 85.4198 95.7053 85.5542 95.7671C85.6886 95.8288 85.8344 95.8617 85.9823 95.8637C86.1282 95.8558 86.2711 95.8189 86.4027 95.7552C86.5342 95.6915 86.6517 95.6023 86.7484 95.4927C86.8451 95.3831 86.919 95.2554 86.9658 95.117C87.0126 94.9785 87.0314 94.8321 87.0211 94.6864V94.6864Z" fill="black"></path><path d="M89.9298 96.1406V98.2182H88.891V92.6778H89.9298V93.1626C90.0706 92.9645 90.2579 92.804 90.4753 92.6953C90.6927 92.5866 90.9334 92.533 91.1764 92.5393C92.2152 92.5393 92.977 93.3011 92.977 94.617C92.977 95.9328 92.2152 96.6946 91.1764 96.6946C90.938 96.7227 90.6965 96.6861 90.4771 96.5886C90.2578 96.4911 90.0687 96.3363 89.9298 96.1406V96.1406ZM91.8689 94.6862C91.8854 94.5392 91.8709 94.3904 91.8264 94.2494C91.7818 94.1084 91.7083 93.9782 91.6104 93.8673C91.5126 93.7564 91.3926 93.6672 91.2582 93.6055C91.1238 93.5438 90.978 93.5109 90.8301 93.5089C90.6534 93.5173 90.4808 93.5652 90.325 93.6491C90.1692 93.733 90.0341 93.8507 89.9298 93.9937V95.3788C90.0341 95.5217 90.1692 95.6394 90.325 95.7233C90.4808 95.8072 90.6534 95.8551 90.8301 95.8635C90.978 95.8616 91.1238 95.8286 91.2582 95.7669C91.3926 95.7052 91.5126 95.616 91.6104 95.5051C91.7083 95.3942 91.7818 95.264 91.8264 95.123C91.8709 94.982 91.8854 94.8332 91.8689 94.6862V94.6862Z" fill="black"></path><path d="M98.7252 96.6947V94.1323C98.7381 94.0474 98.7309 93.9608 98.7041 93.8793C98.6774 93.7977 98.6318 93.7236 98.5712 93.663C98.5105 93.6023 98.4364 93.5568 98.3549 93.53C98.2734 93.5033 98.1867 93.496 98.1019 93.509C97.9363 93.524 97.7761 93.5753 97.6325 93.659C97.4889 93.7428 97.3654 93.8571 97.2708 93.9938V96.6947H96.232V94.1323C96.2449 94.0474 96.2377 93.9608 96.211 93.8793C96.1842 93.7977 96.1387 93.7236 96.078 93.663C96.0173 93.6023 95.9432 93.5568 95.8617 93.53C95.7802 93.5033 95.6935 93.496 95.6087 93.509C95.4431 93.524 95.2829 93.5753 95.1393 93.659C94.9957 93.7428 94.8722 93.8571 94.7776 93.9938V96.6947H93.7388V92.6779H94.7776V93.1627C95.1199 92.7937 95.5911 92.5705 96.0935 92.5394C96.3295 92.5106 96.5684 92.5636 96.77 92.6896C96.9717 92.8157 97.124 93.0071 97.2016 93.232C97.3605 93.0145 97.5692 92.8382 97.8101 92.7177C98.051 92.5972 98.3173 92.5361 98.5866 92.5394C99.3484 92.5394 99.764 92.9549 99.764 93.786V96.6947H98.7252Z" fill="black"></path><path d="M100.595 94.6863C100.584 94.4106 100.631 94.1357 100.731 93.8787C100.832 93.6218 100.985 93.3885 101.18 93.1934C101.375 92.9983 101.608 92.8456 101.865 92.745C102.122 92.6444 102.397 92.598 102.673 92.6087C102.954 92.6093 103.233 92.6687 103.49 92.7831C103.747 92.8975 103.978 93.0643 104.167 93.2729C104.356 93.4816 104.499 93.7273 104.588 93.9946C104.676 94.2618 104.708 94.5446 104.681 94.8248V95.1019H101.703C101.751 95.3723 101.898 95.6149 102.116 95.7817C102.334 95.9485 102.607 96.0272 102.88 96.0022C103.073 96.009 103.265 95.9755 103.444 95.904C103.623 95.8324 103.785 95.7243 103.919 95.5866L104.404 96.2792C103.928 96.6458 103.343 96.841 102.742 96.8332C102.459 96.8379 102.177 96.7856 101.915 96.6793C101.652 96.5731 101.414 96.4151 101.213 96.2148C101.013 96.0145 100.855 95.776 100.749 95.5134C100.643 95.2508 100.59 94.9696 100.595 94.6863V94.6863ZM102.673 93.4397C102.435 93.4278 102.203 93.5074 102.022 93.662C101.842 93.8166 101.728 94.0345 101.703 94.2708H103.711C103.659 94.0345 103.528 93.8231 103.339 93.6719C103.15 93.5207 102.915 93.4388 102.673 93.4397V93.4397Z" fill="black"></path><path d="M108.144 96.6947V94.2708C108.155 94.1681 108.142 94.0643 108.108 93.9669C108.074 93.8695 108.018 93.781 107.945 93.708C107.872 93.635 107.783 93.5792 107.686 93.5448C107.589 93.5103 107.485 93.4981 107.382 93.509C107.202 93.5003 107.023 93.5408 106.864 93.6262C106.706 93.7117 106.573 93.8388 106.482 93.9938V96.6947H105.443V92.678H106.482V93.1628C106.844 92.7811 107.341 92.5572 107.867 92.5395C108.04 92.5134 108.216 92.5271 108.383 92.5794C108.549 92.6318 108.702 92.7215 108.829 92.8417C108.956 92.9618 109.054 93.1094 109.115 93.273C109.176 93.4367 109.199 93.6121 109.183 93.7861V96.6255H108.144V96.6947Z" fill="black"></path><path d="M110.429 95.6558V93.5782H109.737V92.6779H110.429V91.5698H111.468V92.6779H112.299V93.5782H111.468V95.3788C111.468 95.6558 111.607 95.7944 111.814 95.7944C111.943 95.792 112.066 95.7427 112.161 95.6558L112.368 96.4869C112.116 96.6934 111.793 96.7929 111.468 96.7639C111.322 96.7759 111.176 96.7549 111.04 96.7024C110.904 96.6499 110.781 96.5673 110.681 96.4608C110.581 96.3542 110.507 96.2265 110.463 96.0871C110.419 95.9477 110.408 95.8003 110.429 95.6558V95.6558Z" fill="black"></path><path d="M106.205 112.554H34.9416V123.773H106.205V112.554Z" fill="#0061BB"></path><path d="M100.803 106.252H115L112.091 112.277L115 118.094L107.036 118.025V112.277L100.803 106.252Z" fill="#0061BB"></path><path d="M39.9972 106.321H25.8L28.7087 112.346L25.8 118.164L33.7643 118.094V112.346L39.9972 106.321Z" fill="#0061BB"></path><path d="M42.4904 120.726V116.294H44.2217C44.5275 116.27 44.835 116.309 45.1248 116.409C45.4146 116.51 45.6805 116.669 45.9058 116.877C46.131 117.085 46.3108 117.338 46.4337 117.619C46.5567 117.9 46.6202 118.203 46.6202 118.51C46.6202 118.817 46.5567 119.12 46.4337 119.401C46.3108 119.682 46.131 119.935 45.9058 120.143C45.6805 120.351 45.4146 120.51 45.1248 120.611C44.835 120.711 44.5275 120.75 44.2217 120.726H42.4904ZM45.6068 118.441C45.6179 118.256 45.5897 118.071 45.524 117.898C45.4584 117.725 45.3567 117.568 45.2258 117.437C45.0949 117.306 44.9377 117.204 44.7647 117.138C44.5916 117.073 44.4065 117.044 44.2217 117.056H43.3907V119.826H44.2217C44.4065 119.837 44.5916 119.809 44.7647 119.743C44.9377 119.677 45.0949 119.576 45.2258 119.445C45.3567 119.314 45.4584 119.157 45.524 118.984C45.5897 118.811 45.6179 118.625 45.6068 118.441V118.441Z" fill="white"></path><path d="M47.2689 120.726V116.294H50.3854V117.125H48.1693V118.025H50.3162V118.856H48.1693V119.895H50.3854V120.726H47.2689Z" fill="white"></path><path d="M50.8009 120.033L51.355 119.272C51.7164 119.654 52.2142 119.878 52.7401 119.895C53.2941 119.895 53.5019 119.687 53.5019 119.41C53.5019 118.648 50.9394 119.202 50.9394 117.471C50.9502 117.268 51.0027 117.07 51.0936 116.888C51.1846 116.707 51.3121 116.546 51.4682 116.416C51.6242 116.286 51.8054 116.189 52.0004 116.132C52.1955 116.076 52.4001 116.06 52.6016 116.086C53.2383 116.057 53.8606 116.281 54.3329 116.709L53.7789 117.402C53.6022 117.238 53.3951 117.111 53.1693 117.028C52.9435 116.945 52.7035 116.907 52.463 116.917C52.0475 116.917 51.8397 117.125 51.8397 117.332C51.8397 118.025 54.4022 117.54 54.4022 119.202C54.4022 120.033 53.8481 120.657 52.6016 120.657C52.2731 120.726 51.932 120.705 51.6148 120.595C51.2976 120.485 51.0162 120.291 50.8009 120.033Z" fill="white"></path><path d="M55.164 120.726V116.294H56.1335V120.726H55.164Z" fill="white"></path><path d="M56.7568 118.441C56.7497 118.133 56.8063 117.827 56.923 117.541C57.0398 117.256 57.2141 116.998 57.4352 116.784C57.6563 116.569 57.9193 116.403 58.2077 116.295C58.4962 116.186 58.8039 116.139 59.1115 116.155C59.4698 116.148 59.8238 116.233 60.1394 116.403C60.4549 116.573 60.7211 116.822 60.9121 117.125L60.1503 117.54C60.0437 117.362 59.8907 117.217 59.7077 117.119C59.5247 117.022 59.3186 116.976 59.1115 116.986C58.8785 116.991 58.6501 117.051 58.4453 117.162C58.2406 117.274 58.0655 117.432 57.9349 117.625C57.8044 117.818 57.722 118.04 57.6949 118.271C57.6678 118.503 57.6967 118.737 57.7792 118.955C57.8616 119.173 57.9952 119.368 58.1687 119.523C58.3423 119.679 58.5506 119.79 58.7762 119.849C59.0018 119.907 59.2381 119.91 59.4652 119.858C59.6923 119.806 59.9035 119.7 60.0811 119.549V119.064H58.9037V118.233H61.0506V119.964C60.8107 120.221 60.5215 120.427 60.2002 120.57C59.879 120.713 59.5323 120.789 59.1807 120.795C58.8628 120.817 58.5438 120.771 58.2445 120.662C57.9453 120.552 57.6725 120.38 57.4439 120.158C57.2153 119.936 57.0359 119.669 56.9176 119.373C56.7992 119.077 56.7444 118.759 56.7568 118.441Z" fill="white"></path><path d="M64.7904 120.726L62.6435 117.817V120.726H61.6739V116.294H62.6435L64.7211 119.064V116.294H65.6907V120.726H64.7904Z" fill="white"></path><path d="M69.1534 120.726L68.2531 119.133H67.5606V120.726H66.591V116.294H68.6686C68.8659 116.282 69.0633 116.312 69.2487 116.38C69.4341 116.448 69.6036 116.554 69.7465 116.69C69.8894 116.826 70.0027 116.991 70.0794 117.173C70.156 117.355 70.1945 117.551 70.1922 117.748C70.2052 118.045 70.116 118.338 69.9397 118.577C69.7633 118.817 69.5102 118.988 69.2227 119.064L70.2615 120.726H69.1534ZM69.2227 117.679C69.2211 117.592 69.2016 117.506 69.1653 117.426C69.129 117.347 69.0768 117.275 69.0119 117.217C68.9469 117.158 68.8706 117.114 68.7877 117.086C68.7049 117.058 68.6172 117.048 68.5301 117.056H67.5606V118.233H68.5301C68.6133 118.253 68.7 118.254 68.7836 118.235C68.8672 118.217 68.9454 118.179 69.0122 118.126C69.0791 118.072 69.1328 118.004 69.1693 117.927C69.2057 117.849 69.224 117.765 69.2227 117.679V117.679Z" fill="white"></path><path d="M70.8848 118.925V116.224H71.8543V118.856C71.8543 119.132 71.9638 119.396 72.1586 119.591C72.3534 119.785 72.6177 119.895 72.8932 119.895C73.1687 119.895 73.4329 119.785 73.6277 119.591C73.8225 119.396 73.932 119.132 73.932 118.856V116.224H74.9016V118.925C74.9016 120.033 74.2783 120.795 72.8932 120.795C72.6335 120.828 72.3697 120.803 72.1206 120.723C71.8714 120.643 71.643 120.509 71.4514 120.33C71.2598 120.152 71.1097 119.934 71.0118 119.691C70.9139 119.448 70.8705 119.187 70.8848 118.925V118.925Z" fill="white"></path><path d="M75.4556 120.033L76.0096 119.272C76.3711 119.654 76.8689 119.878 77.3947 119.895C77.9488 119.895 78.1565 119.687 78.1565 119.41C78.1565 118.648 75.5941 119.202 75.5941 117.471C75.6048 117.268 75.6573 117.07 75.7483 116.888C75.8393 116.707 75.9668 116.546 76.1228 116.416C76.2789 116.286 76.4601 116.189 76.6551 116.132C76.8501 116.076 77.0548 116.06 77.2562 116.086C77.8929 116.057 78.5152 116.281 78.9876 116.709L78.4335 117.402C78.2569 117.238 78.0497 117.111 77.8239 117.028C77.5981 116.945 77.3581 116.907 77.1177 116.917C76.7022 116.917 76.4944 117.125 76.4944 117.332C76.4944 118.025 79.0568 117.54 79.0568 119.202C79.0568 120.033 78.5028 120.657 77.2562 120.657C76.9278 120.72 76.5884 120.696 76.2723 120.586C75.9563 120.477 75.6746 120.286 75.4556 120.033Z" fill="white"></path><path d="M82.8658 120.726V118.856H80.7882V120.726H79.8186V116.294H80.7882V118.025H82.8658V116.294H83.8354V120.726H82.8658Z" fill="white"></path><path d="M84.528 120.241C84.528 120.132 84.5604 120.025 84.6213 119.933C84.6822 119.842 84.7687 119.771 84.87 119.729C84.9712 119.687 85.0826 119.677 85.1901 119.698C85.2975 119.719 85.3963 119.772 85.4738 119.85C85.5512 119.927 85.604 120.026 85.6254 120.133C85.6468 120.241 85.6358 120.352 85.5939 120.453C85.5519 120.555 85.4809 120.641 85.3898 120.702C85.2987 120.763 85.1916 120.795 85.082 120.795C84.9382 120.786 84.8029 120.724 84.701 120.622C84.5992 120.52 84.5377 120.385 84.528 120.241V120.241Z" fill="white"></path><path d="M86.1208 119.064C86.1145 118.838 86.1555 118.613 86.2412 118.404C86.3269 118.195 86.4554 118.006 86.6184 117.85C86.7815 117.693 86.9755 117.572 87.188 117.495C87.4004 117.418 87.6267 117.386 87.8522 117.402C88.0898 117.382 88.3285 117.423 88.5464 117.519C88.7642 117.616 88.9542 117.766 89.0988 117.956L88.5447 118.51C88.4648 118.402 88.3604 118.314 88.2401 118.254C88.1197 118.193 87.9868 118.163 87.8522 118.164C87.7329 118.16 87.6141 118.18 87.5031 118.224C87.3922 118.268 87.2914 118.334 87.207 118.419C87.1226 118.503 87.0564 118.604 87.0125 118.715C86.9687 118.826 86.948 118.945 86.9519 119.064C86.9412 119.188 86.9567 119.313 86.9972 119.431C87.0378 119.549 87.1025 119.657 87.1873 119.748C87.2721 119.839 87.3751 119.912 87.4896 119.961C87.6041 120.01 87.7276 120.035 87.8522 120.034C87.9868 120.035 88.1197 120.004 88.2401 119.944C88.3604 119.883 88.4648 119.796 88.5447 119.687L89.0988 120.241C88.9483 120.424 88.7573 120.569 88.5409 120.666C88.3245 120.762 88.0887 120.806 87.8522 120.795C87.6211 120.809 87.3897 120.774 87.1732 120.692C86.9567 120.61 86.7601 120.483 86.5965 120.32C86.4328 120.156 86.3057 119.959 86.2237 119.743C86.1417 119.526 86.1066 119.295 86.1208 119.064V119.064Z" fill="white"></path><path d="M89.445 119.064C89.4387 118.838 89.4797 118.613 89.5654 118.404C89.6511 118.195 89.7796 118.006 89.9427 117.849C90.1057 117.693 90.2997 117.572 90.5122 117.495C90.7247 117.418 90.9509 117.386 91.1764 117.402C91.4007 117.391 91.6247 117.427 91.8349 117.506C92.045 117.585 92.2369 117.706 92.3989 117.861C92.5608 118.017 92.6895 118.203 92.7769 118.41C92.8644 118.617 92.9089 118.839 92.9078 119.064C92.9141 119.29 92.8731 119.515 92.7874 119.724C92.7017 119.933 92.5732 120.122 92.4101 120.278C92.2471 120.435 92.0531 120.556 91.8406 120.633C91.6281 120.71 91.4019 120.742 91.1764 120.726C90.9497 120.747 90.721 120.719 90.506 120.644C90.2911 120.569 90.0947 120.449 89.9305 120.291C89.7662 120.133 89.6378 119.942 89.5541 119.73C89.4703 119.519 89.4331 119.291 89.445 119.064ZM92.0075 119.064C92.0075 118.843 91.9199 118.632 91.764 118.476C91.6082 118.32 91.3968 118.233 91.1764 118.233C90.956 118.233 90.7446 118.32 90.5888 118.476C90.4329 118.632 90.3453 118.843 90.3453 119.064C90.3301 119.182 90.3401 119.302 90.3749 119.416C90.4097 119.53 90.4683 119.635 90.547 119.725C90.6256 119.814 90.7225 119.886 90.831 119.935C90.9395 119.984 91.0573 120.009 91.1764 120.009C91.2955 120.009 91.4133 119.984 91.5218 119.935C91.6303 119.886 91.7272 119.814 91.8058 119.725C91.8844 119.635 91.9431 119.53 91.9779 119.416C92.0127 119.302 92.0227 119.182 92.0075 119.064Z" fill="white"></path><path d="M97.4786 120.726V118.718C97.4864 118.652 97.4792 118.586 97.4576 118.523C97.436 118.461 97.4005 118.404 97.3538 118.358C97.3072 118.311 97.2505 118.276 97.1881 118.254C97.1258 118.232 97.0593 118.225 96.9938 118.233C96.7288 118.261 96.4829 118.384 96.3012 118.579V120.726H95.4702V118.718C95.478 118.652 95.4708 118.586 95.4492 118.523C95.4276 118.461 95.3921 118.404 95.3454 118.358C95.2988 118.311 95.2421 118.276 95.1798 118.254C95.1174 118.232 95.0509 118.225 94.9854 118.233C94.7204 118.261 94.4746 118.384 94.2929 118.579V120.726H93.4618V117.471H94.2929V117.887C94.4195 117.734 94.5784 117.612 94.758 117.528C94.9376 117.444 95.1335 117.401 95.3317 117.402C95.5219 117.382 95.7133 117.425 95.8762 117.526C96.0391 117.626 96.1642 117.777 96.232 117.956C96.3638 117.787 96.5317 117.65 96.7234 117.554C96.9151 117.458 97.1258 117.406 97.3401 117.402C97.4709 117.388 97.6032 117.403 97.7273 117.447C97.8514 117.49 97.9641 117.561 98.0572 117.654C98.1502 117.747 98.2212 117.86 98.2649 117.984C98.3086 118.108 98.3239 118.241 98.3096 118.371V120.726H97.4786Z" fill="white"></path><path d="M49.4643 103.911C49.4581 103.526 49.5312 103.143 49.6789 102.787C49.8267 102.432 50.046 102.11 50.3234 101.842C50.6007 101.575 50.93 101.367 51.2909 101.232C51.6519 101.097 52.0367 101.038 52.4215 101.058C52.8976 101.046 53.3672 101.171 53.7754 101.416C54.1837 101.661 54.5139 102.017 54.7277 102.443L53.7166 102.941C53.5908 102.705 53.4047 102.506 53.1773 102.365C52.9498 102.224 52.689 102.146 52.4215 102.138C51.9587 102.167 51.5243 102.371 51.2067 102.708C50.8892 103.046 50.7124 103.492 50.7124 103.956C50.7124 104.42 50.8892 104.866 51.2067 105.204C51.5243 105.541 51.9587 105.745 52.4215 105.774C52.6894 105.768 52.9507 105.69 53.1784 105.549C53.4061 105.407 53.5919 105.208 53.7166 104.971L54.7277 105.462C54.512 105.886 54.1813 106.241 53.7735 106.486C53.3657 106.731 52.8971 106.856 52.4215 106.847C52.0295 106.868 51.6375 106.807 51.2707 106.667C50.9039 106.527 50.5705 106.311 50.2919 106.035C50.0134 105.758 49.7958 105.426 49.6533 105.061C49.5107 104.695 49.4464 104.303 49.4643 103.911V103.911Z" fill="black"></path><path d="M55.1571 104.666C55.1474 104.243 55.264 103.827 55.492 103.471C55.72 103.115 56.049 102.835 56.437 102.667C56.8249 102.498 57.2542 102.45 57.67 102.527C58.0858 102.604 58.4691 102.803 58.7711 103.099C59.073 103.395 59.2798 103.774 59.3651 104.189C59.4503 104.603 59.4102 105.033 59.2497 105.424C59.0892 105.815 58.8158 106.15 58.4642 106.385C58.1127 106.62 57.6991 106.745 57.2762 106.743C56.9982 106.756 56.7205 106.711 56.4605 106.611C56.2005 106.512 55.9638 106.36 55.765 106.165C55.5663 105.97 55.4097 105.737 55.3051 105.479C55.2005 105.221 55.1501 104.944 55.1571 104.666ZM58.3012 104.666C58.2746 104.47 58.1921 104.285 58.0635 104.134C57.9349 103.984 57.7657 103.873 57.576 103.816C57.3863 103.759 57.1842 103.758 56.9939 103.812C56.8035 103.867 56.6329 103.975 56.5024 104.124C56.3719 104.273 56.287 104.457 56.2579 104.653C56.2289 104.849 56.2568 105.049 56.3384 105.229C56.42 105.41 56.5518 105.563 56.7181 105.671C56.8844 105.778 57.0782 105.836 57.2762 105.836C57.4226 105.833 57.5668 105.8 57.6995 105.738C57.8323 105.676 57.9506 105.587 58.0471 105.477C58.1436 105.367 58.216 105.238 58.2597 105.098C58.3035 104.959 58.3176 104.811 58.3012 104.666V104.666Z" fill="black"></path><path d="M65.1643 106.674V104.14C65.1643 103.766 64.9981 103.502 64.5688 103.502C64.4039 103.511 64.2431 103.557 64.099 103.637C63.9549 103.718 63.8312 103.83 63.7377 103.966V106.674H62.6712V104.14C62.6712 103.766 62.505 103.502 62.0756 103.502C61.9111 103.512 61.7509 103.559 61.607 103.639C61.4631 103.72 61.3392 103.831 61.2445 103.966V106.674H60.1919V102.664H61.2445V103.177C61.4096 102.989 61.6116 102.837 61.8381 102.731C62.0645 102.625 62.3104 102.567 62.5604 102.561C62.8004 102.536 63.0415 102.595 63.2432 102.728C63.4449 102.86 63.5951 103.058 63.6684 103.288C63.8257 103.066 64.0331 102.884 64.2738 102.758C64.5145 102.632 64.7817 102.564 65.0535 102.561C65.2159 102.542 65.3804 102.561 65.5344 102.616C65.6884 102.671 65.8278 102.76 65.942 102.877C66.0562 102.994 66.1422 103.135 66.1935 103.29C66.2448 103.446 66.2599 103.611 66.2378 103.772V106.674H65.1643Z" fill="black"></path><path d="M68.3362 106.162V108.205H67.2835V102.664H68.3362V103.17C68.481 102.98 68.6676 102.827 68.8814 102.721C69.0952 102.616 69.3304 102.561 69.5689 102.561C70.6008 102.561 71.3488 103.329 71.3488 104.638C71.3488 105.947 70.6008 106.716 69.5689 106.716C69.3348 106.724 69.1018 106.678 68.8881 106.582C68.6744 106.486 68.4856 106.342 68.3362 106.162ZM70.2615 104.666C70.2779 104.521 70.264 104.375 70.2206 104.236C70.1772 104.097 70.1052 103.969 70.0094 103.859C69.9136 103.75 69.796 103.662 69.6641 103.6C69.5322 103.539 69.3889 103.505 69.2434 103.502C69.0673 103.504 68.8939 103.546 68.7366 103.625C68.5793 103.705 68.4423 103.819 68.3362 103.959V105.345C68.4434 105.485 68.5804 105.599 68.7374 105.679C68.8943 105.759 69.0672 105.804 69.2434 105.809C69.387 105.805 69.5283 105.773 69.6587 105.713C69.789 105.652 69.9056 105.566 70.0011 105.459C70.0966 105.352 70.169 105.226 70.2138 105.089C70.2586 104.953 70.2748 104.809 70.2615 104.666V104.666Z" fill="black"></path><path d="M74.5345 106.674V106.252C74.3724 106.425 74.1744 106.562 73.9544 106.652C73.7344 106.741 73.4976 106.782 73.2602 106.771C73.081 106.779 72.9021 106.75 72.7343 106.686C72.5666 106.623 72.4134 106.526 72.284 106.402C72.1546 106.278 72.0516 106.129 71.9814 105.964C71.9111 105.798 71.875 105.621 71.8751 105.442C71.8715 105.263 71.9056 105.085 71.9752 104.92C72.0447 104.756 72.1482 104.607 72.2789 104.485C72.4095 104.363 72.5644 104.27 72.7335 104.211C72.9026 104.153 73.082 104.131 73.2602 104.147C73.4953 104.134 73.7303 104.171 73.95 104.256C74.1696 104.341 74.3688 104.471 74.5345 104.638V104.133C74.5345 103.724 74.1813 103.44 73.655 103.44C73.2237 103.445 72.8104 103.613 72.4984 103.911L72.0829 103.17C72.5696 102.752 73.1934 102.527 73.835 102.54C74.7561 102.54 75.5941 102.907 75.5941 104.063V106.654L74.5345 106.674ZM74.5345 105.712V105.213C74.4304 105.093 74.3001 104.998 74.1537 104.935C74.0073 104.873 73.8486 104.845 73.6896 104.853C73.2741 104.853 72.9278 105.081 72.9278 105.462C72.9278 105.843 73.2741 106.058 73.6896 106.058C73.8473 106.067 74.0051 106.04 74.1513 105.98C74.2975 105.921 74.4284 105.829 74.5345 105.712V105.712Z" fill="black"></path><path d="M79.3477 106.674V104.25C79.3477 103.689 79.0568 103.502 78.6067 103.502C78.429 103.505 78.2542 103.548 78.0957 103.628C77.9373 103.709 77.7993 103.824 77.6925 103.966V106.674H76.6398V102.664H77.6925V103.177C77.8678 102.983 78.0816 102.829 78.3201 102.723C78.5586 102.616 78.8166 102.561 79.0776 102.56C79.2526 102.536 79.431 102.551 79.5993 102.605C79.7676 102.659 79.9215 102.75 80.0494 102.872C80.1774 102.994 80.2761 103.143 80.338 103.309C80.4 103.474 80.4237 103.652 80.4073 103.828V106.66L79.3477 106.674Z" fill="black"></path><path d="M81.3492 101.598C81.3492 101.473 81.3863 101.351 81.4559 101.247C81.5254 101.143 81.6243 101.063 81.7398 101.015C81.8554 100.968 81.9825 100.956 82.1049 100.98C82.2273 101.005 82.3396 101.066 82.4275 101.155C82.5153 101.244 82.5748 101.357 82.5983 101.479C82.6219 101.602 82.6084 101.729 82.5596 101.844C82.5109 101.959 82.429 102.057 82.3245 102.125C82.2199 102.194 82.0974 102.23 81.9725 102.228C81.89 102.228 81.8084 102.212 81.7323 102.18C81.6562 102.148 81.5872 102.102 81.5293 102.043C81.4713 101.985 81.4255 101.915 81.3946 101.839C81.3637 101.762 81.3482 101.68 81.3492 101.598V101.598ZM81.4461 106.674V102.664H82.5057V106.674H81.4461Z" fill="black"></path><path d="M83.2814 104.666C83.2814 104.115 83.5003 103.586 83.8899 103.197C84.2795 102.807 84.808 102.588 85.359 102.588C85.6399 102.587 85.9179 102.644 86.1752 102.757C86.4324 102.87 86.6631 103.036 86.8524 103.243C87.0416 103.451 87.1853 103.696 87.274 103.962C87.3627 104.229 87.3945 104.511 87.3674 104.79V105.04H84.3964C84.4407 105.308 84.5843 105.549 84.7986 105.716C85.013 105.883 85.2823 105.963 85.5529 105.94C85.9431 105.935 86.3196 105.795 86.6194 105.545L87.0904 106.238C86.6231 106.615 86.0356 106.812 85.4352 106.792C85.1501 106.81 84.8644 106.767 84.5968 106.667C84.3292 106.567 84.0858 106.412 83.8825 106.211C83.6792 106.01 83.5205 105.769 83.4169 105.503C83.3134 105.236 83.2672 104.951 83.2814 104.666V104.666ZM85.359 103.426C85.115 103.411 84.8749 103.493 84.6907 103.653C84.5066 103.814 84.3934 104.041 84.3756 104.285H86.3563C86.3484 104.163 86.3162 104.043 86.2616 103.933C86.207 103.824 86.131 103.726 86.0381 103.646C85.9452 103.566 85.8373 103.505 85.7207 103.468C85.6041 103.43 85.4811 103.416 85.359 103.426V103.426Z" fill="black"></path><path d="M87.7968 106.148L88.2539 105.386C88.64 105.722 89.128 105.917 89.6389 105.94C90.103 105.94 90.3315 105.767 90.3315 105.518C90.3315 104.867 87.9561 105.407 87.9561 103.828C87.9561 103.135 88.5378 102.561 89.5974 102.561C90.1815 102.556 90.75 102.749 91.211 103.108L90.7747 103.828C90.451 103.528 90.0251 103.362 89.5835 103.364C89.2026 103.364 88.9533 103.53 88.9533 103.759C88.9533 104.347 91.3357 103.849 91.3357 105.469C91.3357 106.203 90.7055 106.744 89.5905 106.744C88.9402 106.769 88.3028 106.557 87.7968 106.148V106.148Z" fill="black"></path></svg>