<svg xmlns="http://www.w3.org/2000/svg" width="140" height="140" viewBox="0 0 140 140" fill="none"><path d="M70 122.733C98.8661 122.733 122.267 99.3327 122.267 70.4666C122.267 41.6005 98.8661 18.2 70 18.2C41.1339 18.2 17.7333 41.6005 17.7333 70.4666C17.7333 99.3327 41.1339 122.733 70 122.733Z" fill="#4284F4"></path><path d="M70 118.65C96.6109 118.65 118.183 97.0775 118.183 70.4665C118.183 43.8556 96.6109 22.2832 70 22.2832C43.3891 22.2832 21.8167 43.8556 21.8167 70.4665C21.8167 97.0775 43.3891 118.65 70 118.65Z" fill="#154AA1"></path><path d="M70 116.433C95.3867 116.433 115.967 95.8534 115.967 70.4667C115.967 45.08 95.3867 24.5 70 24.5C44.6133 24.5 24.0333 45.08 24.0333 70.4667C24.0333 95.8534 44.6133 116.433 70 116.433Z" fill="white"></path><path d="M135.333 100.567H4.66666L15.5167 89.4833L4.66666 78.5166H135.333L124.483 89.4833L135.333 100.567Z" fill="#4284F4"></path><path d="M77.2333 36.8667C77.2333 38.6167 77.2333 40.25 77.2333 42C77.2333 42.2334 77.2333 42.2334 77 42.2334H64.8667C64.1667 42.2334 63.7 42.8167 63.7 43.4C63.7 47.6 63.7 51.9167 63.7 56.1167H58.3333C58.3333 56 58.3333 56 58.3333 55.8834V41.8834C58.45 40.8334 58.9167 39.7834 59.6167 38.9667C60.3167 38.15 61.25 37.45 62.3 37.1C62.65 36.9834 63 36.8667 63.35 36.8667H77C77.1167 36.8667 77.1167 36.8667 77.2333 36.8667Z" fill="#4284F4"></path><path d="M65.6833 56.1166V51.0999C65.6833 50.8666 65.6834 50.8666 65.9167 50.8666H71.8667C72.2167 50.8666 72.45 50.6333 72.5667 50.3999V50.2833C72.5667 49.9333 72.5667 49.6999 72.5667 49.3499C72.5667 49.2333 72.5667 49.1166 72.3334 49.1166H65.9167C65.6834 49.1166 65.6833 49.1166 65.6833 48.8833C65.6833 47.5999 65.6833 46.3166 65.6833 45.1499C65.6833 44.6833 65.9167 44.3333 66.3834 44.3333H66.5C67.0834 44.3333 67.6667 44.3333 68.3667 44.3333H77.35C77.5834 44.3333 77.5834 44.3333 77.5834 44.5666C77.5834 46.8999 77.5834 49.1166 77.5834 51.3333C77.5834 52.3833 77.2333 53.3166 76.65 54.1333C75.8333 55.1833 74.6667 55.8833 73.3834 56.2333L65.6833 56.1166Z" fill="#4284F4"></path><path d="M104.3 69.7667C104.183 70.0001 104.183 70.1167 104.067 70.3501C103.833 71.0501 103.133 71.6334 102.433 71.7501C101.733 71.9834 100.917 71.8667 100.333 71.5167C99.8667 71.2834 99.5167 71.0501 99.2834 70.5834C99.2834 70.4667 99.1667 70.4667 99.2834 70.3501C99.5167 70.1167 99.8667 69.8834 100.1 69.5334C100.217 69.4167 100.217 69.4167 100.333 69.5334C100.683 70.1167 101.267 70.3501 101.967 70.3501C102.317 70.3501 102.667 70.1167 102.783 69.7667C103.017 69.5334 103.017 69.0667 102.783 68.8334C102.667 68.7167 102.433 68.6001 102.2 68.4834C101.733 68.3667 101.15 68.1334 100.683 68.0167C99.8667 67.7834 99.4 66.9667 99.4 66.1501C99.4 65.6834 99.5167 65.1001 99.75 64.7501C100.1 64.1667 100.683 63.8167 101.267 63.7001C101.85 63.5834 102.55 63.7001 103.133 63.9334C103.483 64.0501 103.833 64.4001 104.067 64.6334C104.067 64.6334 104.183 64.7501 104.067 64.7501L103.367 65.5667C103.25 65.6834 103.25 65.6834 103.133 65.5667C102.783 65.2167 102.433 64.9834 101.967 64.9834C101.617 64.9834 101.15 65.1001 100.917 65.4501C100.683 65.8001 100.8 66.2667 101.033 66.5001C101.15 66.6167 101.267 66.7334 101.5 66.7334L102.433 66.9667C103.133 67.0834 103.717 67.5501 104.067 68.2501C104.183 68.4834 104.183 68.7167 104.3 68.9501V69.7667Z" fill="#4284F4"></path><path d="M44.5667 68.3667C44.5667 69.0667 44.5667 69.7667 44.5667 70.4667C44.5667 70.5834 44.5667 70.7 44.45 70.7C43.75 71.1667 42.9333 71.6334 42 71.8667C41.4167 71.9834 40.95 71.9834 40.3667 71.8667C39.6667 71.75 39.0833 71.6334 38.3833 71.2834C38.0333 71.05 37.6833 70.8167 37.3333 70.5834C36.8667 70.2334 36.5167 69.7667 36.1667 69.1834C35.9333 68.7167 35.7 68.25 35.7 67.6667C35.4667 66.6167 35.5833 65.45 36.05 64.4C36.2833 63.8167 36.6333 63.2334 37.1 62.7667C37.8 61.95 38.85 61.3667 40.0167 61.25C40.8333 61.1334 41.65 61.25 42.35 61.6C43.05 61.8334 43.6333 62.1834 44.1 62.65C44.2167 62.7667 44.2167 62.7667 44.1 62.8834C43.9833 63.0001 43.6333 63.4667 43.2833 63.8167H43.1667C42.7 63.35 42 63 41.4167 63C40.6 62.7667 39.7833 62.8834 39.0833 63.2334C38.5 63.5834 38.0333 64.0501 37.6833 64.6334C37.2167 65.4501 36.9833 66.3834 37.1 67.3167C37.1 68.0167 37.45 68.8334 37.9167 69.4167C38.5 70.1167 39.3167 70.5834 40.25 70.7C40.95 70.8167 41.65 70.7 42.2333 70.35C42.4667 70.2334 42.7 70.0001 42.8167 69.8834C42.9333 69.8834 42.9333 69.7667 42.9333 69.65C42.9333 69.0667 42.9333 68.3667 42.9333 67.7834C42.9333 67.6667 42.9333 67.5501 42.7 67.5501H40.0167C39.7833 67.5501 39.7833 67.55 39.9 67.3167C40.0167 66.9667 40.1333 66.6167 40.25 66.15C40.25 66.0334 40.3667 65.9167 40.4833 66.0334H44.3333C44.45 66.0334 44.5667 66.0334 44.5667 66.2667C44.5667 66.9667 44.5667 67.6667 44.5667 68.3667Z" fill="#4284F4"></path><path d="M89.8334 64.9835C90.0667 64.6335 90.3 64.4001 90.65 64.1668C91 63.9335 91.4667 63.8168 91.9334 63.9335C92.1667 63.9335 92.4 63.9335 92.5167 64.0501C92.9834 64.1668 93.2167 64.5168 93.45 64.8668C93.5667 65.1001 93.5667 65.1001 93.6834 64.8668C94.0334 64.4001 94.5 64.0501 95.0834 63.9335C95.9 63.8168 96.7167 63.9335 97.3 64.5168C97.65 64.8668 97.8834 65.3335 97.8834 65.8001C97.8834 66.1501 98 66.3835 98 66.7335C98 68.3668 98 70.0001 98 71.6335C98 71.7501 98 71.8668 97.7667 71.8668L96.6 72.1001V67.2001C96.6 66.9668 96.6 66.6168 96.4834 66.3835C96.3667 65.9168 96.0167 65.5668 95.55 65.4501C94.85 65.3335 94.15 65.9168 94.0334 66.6168V66.7335C93.9167 67.6668 94.0334 68.4835 94.0334 69.4168C94.0334 70.3501 94.0334 70.9335 94.0334 71.7501C94.0334 71.8668 94.0334 71.9835 93.9167 71.9835L92.75 72.2168C92.6334 72.2168 92.6334 72.2168 92.6334 72.1001V66.5001C92.6334 65.9168 92.2834 65.4501 91.7 65.3335C91.1167 65.1001 90.4167 65.5668 90.3 66.1501C90.3 66.1501 90.3 66.1501 90.3 66.2668C90.1834 66.5001 90.1834 66.8501 90.1834 67.2001C90.1834 68.7168 90.1834 70.2335 90.1834 71.6335C90.1834 71.7501 90.1834 71.8668 89.95 71.8668L88.7834 72.1001C88.6667 72.1001 88.6667 72.1001 88.6667 71.9835V71.8668C88.6667 69.4168 88.6667 66.9668 88.6667 64.5168C88.6667 64.2835 88.7834 64.2835 88.9 64.2835L89.8334 64.1668C89.95 64.1668 89.95 64.1668 89.95 64.2835L89.8334 64.9835Z" fill="#4284F4"></path><path d="M73.0334 66.7334C73.0334 65.1001 73.0334 63.3501 73.0334 61.7167C73.0334 61.6001 73.0334 61.4834 73.2667 61.4834H77.9334C78.05 61.4834 78.1667 61.4834 78.1667 61.7167C78.1667 62.0667 78.2833 62.4167 78.4 62.7667C78.5167 63.1167 78.4 63.0001 78.2834 63.0001H74.7834C74.6667 63.0001 74.6667 63.0001 74.6667 63.1167V65.5667C74.6667 65.6834 74.7834 65.6834 74.9 65.6834H77.4667C77.7 65.6834 77.7 65.6834 77.7 65.9167C77.7 66.1501 77.7 66.6167 77.7 66.8501C77.7 67.0834 77.7 67.0834 77.4667 67.0834H74.7834C74.55 67.0834 74.55 67.0834 74.55 67.3167V71.5167C74.55 71.6334 74.55 71.7501 74.3167 71.7501C73.85 71.7501 73.5 71.8667 73.0334 71.9834C73.0334 71.9834 72.9167 71.9834 72.9167 71.8667C73.0334 71.8667 73.0334 66.7334 73.0334 66.7334Z" fill="#4284F4"></path><path d="M84.5833 65.45C84.7 65.2166 84.8167 64.9833 84.9334 64.75C85.1667 64.2833 85.75 64.05 86.2167 63.9333C86.5667 63.9333 86.9167 63.8167 87.2667 63.8167C87.5 63.8167 87.5 63.8167 87.3833 64.05C87.15 64.5167 87.0333 64.8666 86.9167 65.3333C86.9167 65.45 86.8 65.5667 86.5667 65.5667C85.75 65.45 85.05 66.0333 84.8167 66.7333C84.5833 67.3167 84.4667 67.7833 84.4667 68.3666C84.4667 69.4166 84.4667 70.4666 84.4667 71.5166C84.4667 71.6333 84.4667 71.75 84.2333 71.75L83.0667 71.9833C82.95 71.9833 82.95 71.9833 82.95 71.8666V64.4C82.95 64.2833 82.95 64.1666 83.1834 64.1666C83.5334 64.1666 83.8833 64.05 84.1167 63.9333C84.35 63.9333 84.35 63.9333 84.35 64.05L84.5833 65.45Z" fill="#4284F4"></path><path d="M79.9167 68.0167V64.4C79.9167 64.2834 79.9167 64.1667 80.15 64.1667L81.2 63.9333C81.3167 63.9333 81.4334 63.9334 81.4334 64.05V71.4C81.4334 71.5167 81.4334 71.6334 81.3167 71.6334L80.15 71.8667C80.0334 71.8667 80.0334 71.75 80.0334 71.6334L79.9167 68.0167Z" fill="#4284F4"></path><path d="M81.55 62.1833C81.4334 62.3 81.3167 62.4167 81.3167 62.5333C81.3167 62.65 80.9667 63 80.7333 63.2333C80.5 63.4667 80.6167 63.35 80.5 63.2333L79.8 62.1833C79.6834 62.0667 79.8 62.0667 79.8 61.95L80.6167 60.9C80.7334 60.7833 80.7334 60.7833 80.85 60.9C81.0834 61.25 81.3167 61.6 81.55 61.95C81.55 62.0667 81.55 62.1833 81.55 62.1833Z" fill="#4284F4"></path><path d="M71.1667 61.6V61.4834C71.1667 61.3667 71.1667 61.3667 71.05 61.3667L70 61.4834C69.7667 61.4834 69.7667 61.4834 69.7667 61.7167V64.8667C69.65 64.6334 69.4167 64.5167 69.3 64.2834C68.95 64.05 68.4833 63.8167 67.9 63.7C67.4333 63.5834 66.9667 63.5834 66.5 63.7C65.6833 63.9334 64.9833 64.4 64.5167 64.9834C63.7 66.0334 63.4667 67.4334 63.8167 68.7167C63.9333 69.4167 64.2833 70 64.75 70.4667C65.1 70.9334 65.6833 71.2834 66.15 71.5167C66.7333 71.75 67.3167 71.75 67.9 71.6334C68.3667 71.5167 68.8333 71.4 69.1833 71.05C69.4167 70.8167 69.65 70.5834 69.8833 70.35V71.6334L71.05 71.4C71.1667 71.4 71.1667 71.4 71.1667 71.2834C71.1667 71.1667 71.1667 70.9334 71.1667 70.8167V61.6ZM69.8833 68.25C69.8833 68.8334 69.65 69.3 69.3 69.65C68.95 70 68.4833 70.35 67.9 70.4667C67.2 70.5834 66.5 70.4667 66.0333 70C65.45 69.5334 65.1 68.8334 65.1 68.0167C65.1 67.55 65.1 67.0834 65.3333 66.6167C65.6833 65.9167 66.2667 65.45 67.0833 65.3334C67.2 65.3334 67.3167 65.3334 67.4333 65.3334C68.25 65.3334 68.95 65.8 69.4167 66.3834C69.65 66.9667 69.8833 67.55 69.8833 68.25Z" fill="#4284F4"></path><path d="M53.6667 66.9666C53.55 66.1499 53.0833 65.3333 52.3833 64.8666C51.45 64.0499 50.2833 63.6999 49.1167 63.9333C48.3 64.0499 47.4833 64.5166 46.9 65.2166C45.9667 66.2666 45.7333 67.5499 45.9667 68.9499C46.2 70.2333 47.0167 71.1666 48.0667 71.7499C48.8833 72.2166 49.8167 72.2166 50.75 71.9833C51.5667 71.7499 52.2667 71.2833 52.7333 70.6999C53.3167 69.9999 53.6667 68.9499 53.6667 68.0166C53.7833 67.5499 53.7833 67.1999 53.6667 66.9666ZM52.2667 68.2499C52.2667 68.8333 52.0333 69.2999 51.5667 69.6499C51.3333 69.9999 50.8667 70.2333 50.5167 70.3499C49.8167 70.5833 49 70.4666 48.4167 69.9999C47.7167 69.4166 47.25 68.5999 47.3667 67.6666C47.3667 66.7333 47.95 65.9166 48.7667 65.4499C49.5833 64.9833 50.6333 65.2166 51.3333 65.7999C52.0333 66.4999 52.3833 67.3166 52.2667 68.2499Z" fill="#4284F4"></path><path d="M62.65 67.0833C62.5333 66.3833 62.3 65.6833 61.8333 65.1C61.3667 64.5166 60.6667 64.1666 59.9667 63.9333C59.3833 63.8166 58.8 63.7 58.2167 63.8166C57.2833 63.9333 56.4667 64.4 56 65.1C55.4167 65.8 55.0667 66.85 55.0667 67.7833C55.0667 68.0166 55.0667 68.25 55.0667 68.3666C55.0667 68.8333 55.3 69.3 55.4167 69.65C55.65 70.1166 56 70.4666 56.35 70.8166C57.05 71.4 57.8667 71.75 58.8 71.75C59.15 71.75 59.6167 71.6333 59.9667 71.5166C60.6667 71.2833 61.25 70.8166 61.7167 70.2333C62.3 69.5333 62.65 68.6 62.65 67.6666C62.7667 67.6666 62.7667 67.4333 62.65 67.0833ZM60.55 69.7666C60.2 70.1166 59.7333 70.35 59.2667 70.4666C59.15 70.4666 59.0333 70.4666 58.8 70.4666C57.9833 70.4666 57.2833 70 56.8167 69.3C56.5833 68.8333 56.4667 68.3666 56.4667 67.9C56.4667 67.3166 56.7 66.7333 57.05 66.2666C57.75 65.2166 59.15 65.1 60.2 65.8C61.3667 66.7333 61.6 68.3666 60.6667 69.5333C60.6667 69.65 60.6667 69.65 60.55 69.7666Z" fill="#4284F4"></path><path d="M24.85 90.8831H26.1333C27.4167 90.7664 28.5833 91.6998 28.5833 93.0998C28.5833 93.2165 28.5833 93.4498 28.5833 93.5664C28.8167 94.8498 27.8833 96.0164 26.6 96.2498C26.4833 96.2498 26.25 96.2498 26.1333 96.2498H24.7333V90.8831H24.85ZM26.0167 95.5498C27.1833 95.5498 27.8833 94.7331 27.8833 93.4498C27.8833 92.1664 27.3 91.3498 26.0167 91.3498H25.4333V95.5498H26.0167Z" fill="white" stroke="white" stroke-width="0.1" stroke-miterlimit="10"></path><path d="M29.6333 90.8831H32.6667V91.4664H30.3333V93.0997H32.3167V93.6831H30.3333V95.5497H32.7833V96.1331H29.6333V90.8831V90.8831Z" fill="white" stroke="white" stroke-width="0.1" stroke-miterlimit="10"></path><path d="M33.0167 90.8831H33.7167L34.5333 93.6831C34.7667 94.2664 34.8833 94.8497 35 95.4331C35.2333 94.8497 35.35 94.2664 35.4667 93.6831L36.4 90.8831H37.1L35.4667 96.1331H34.65L33.0167 90.8831Z" fill="white" stroke="white" stroke-width="0.1" stroke-miterlimit="10"></path><path d="M37.6833 90.8831H40.7167V91.4664H38.3834V93.0997H40.3667V93.6831H38.3834V95.5497H40.8334V96.1331H37.6833V90.8831Z" fill="white" stroke="white" stroke-width="0.1" stroke-miterlimit="10"></path><path d="M41.8833 90.8831H42.5833V95.5497H44.9167V96.1331H41.8833V90.8831Z" fill="white" stroke="white" stroke-width="0.1" stroke-miterlimit="10"></path><path d="M45.15 93.5664C45.15 91.9331 46.0833 90.8831 47.3667 90.8831C48.65 90.8831 49.5833 91.9331 49.5833 93.5664C49.5833 95.1997 48.65 96.2497 47.3667 96.2497C46.0833 96.2497 45.15 95.3164 45.15 93.5664ZM49 93.5664C49 92.2831 48.4167 91.4664 47.4833 91.4664C46.55 91.4664 45.85 92.2831 45.85 93.5664C45.85 94.8497 46.4333 95.6664 47.3667 95.6664C48.3 95.6664 49 94.9664 49 93.5664Z" fill="white" stroke="white" stroke-width="0.1" stroke-miterlimit="10"></path><path d="M50.75 90.8831H52.2667C53.4333 90.8831 54.25 91.2331 54.25 92.3997C54.25 93.5664 53.4333 94.0331 52.2667 94.0331H51.3333V96.1331H50.6333V90.8831H50.75ZM52.15 93.5664C53.0833 93.5664 53.55 93.2164 53.55 92.5164C53.55 91.8164 53.0833 91.4664 52.15 91.4664H51.3333V93.5664H52.15V93.5664Z" fill="white" stroke="white" stroke-width="0.1" stroke-miterlimit="10"></path><path d="M55.1833 90.8831H56L57.05 93.6831C57.1667 94.0331 57.2834 94.3831 57.4 94.7331C57.5167 94.3831 57.6334 94.0331 57.75 93.6831L58.6833 90.8831H59.5V96.1331H58.9167V93.2164C58.9167 92.7497 58.9167 92.1664 59.0333 91.6997L58.5667 92.8664L57.6334 95.5497H57.1667L56.2334 92.8664L55.7667 91.6997C55.7667 92.1664 55.8834 92.7497 55.8834 93.2164V96.1331H55.3V90.8831H55.1833Z" fill="white" stroke="white" stroke-width="0.1" stroke-miterlimit="10"></path><path d="M60.9 90.8831H63.9333V91.4664H61.6V93.0997H63.5833V93.6831H61.6V95.5497H64.05V96.1331H60.9V90.8831Z" fill="white" stroke="white" stroke-width="0.1" stroke-miterlimit="10"></path><path d="M64.9833 90.8831H65.6833L67.55 94.1497L68.1333 95.1997C68.1333 94.7331 68.0167 94.0331 68.0167 93.5664V90.8831H68.6V96.1331H67.9L66.0333 92.8664L65.5667 91.8164C65.5667 92.3997 65.6833 92.8664 65.6833 93.4497V96.2497H65.1L64.9833 90.8831Z" fill="white" stroke="white" stroke-width="0.1" stroke-miterlimit="10"></path><path d="M71.1667 91.4664H69.5333V90.8831H73.5V91.4664H71.8667V96.1331H71.1667V91.4664Z" fill="white" stroke="white" stroke-width="0.1" stroke-miterlimit="10"></path><path d="M76.8833 93.6831C76.7667 92.3998 77.5833 91.1164 78.9833 90.9998C79.1 90.9998 79.1 90.9998 79.2167 90.9998C79.8 90.9998 80.2667 91.2331 80.6167 91.6998L80.2667 92.1664C80.0333 91.8164 79.5667 91.6998 79.2167 91.6998C78.2833 91.6998 77.5833 92.5164 77.5833 93.7998C77.5833 95.0831 78.1667 95.8998 79.2167 95.8998C79.6833 95.8998 80.15 95.6664 80.3833 95.3164L80.7333 95.7831C80.3833 96.2498 79.8 96.5998 79.1 96.5998C77.9333 96.3664 76.8833 95.3164 76.8833 93.6831Z" fill="white" stroke="white" stroke-width="0.1" stroke-miterlimit="10"></path><path d="M81.2 93.5664C81.2 91.9331 82.1333 90.8831 83.4167 90.8831C84.7 90.8831 85.6333 91.9331 85.6333 93.5664C85.6333 95.1997 84.7 96.2497 83.4167 96.2497C82.1333 96.3664 81.2 95.3164 81.2 93.5664ZM84.9334 93.5664C84.9334 92.2831 84.2333 91.4664 83.4167 91.4664C82.4833 91.4664 81.9 92.2831 81.9 93.5664C81.9 94.8497 82.4833 95.6664 83.4167 95.6664C84.35 95.6664 84.9334 94.9664 84.9334 93.5664Z" fill="white" stroke="white" stroke-width="0.1" stroke-miterlimit="10"></path><path d="M86.6833 90.8831H87.5L88.55 93.6831C88.6667 94.0331 88.7833 94.3831 88.9 94.7331C89.0167 94.3831 89.1333 94.0331 89.25 93.6831L90.3 90.8831H91V96.1331H90.4167V93.2164C90.4167 92.7497 90.4167 92.1664 90.5333 91.6997L90.0667 92.8664L89.1333 95.5497H88.6667L87.7333 92.8664L87.3833 91.6997C87.3833 92.1664 87.5 92.7497 87.5 93.2164V96.1331H86.9167L86.6833 90.8831Z" fill="white" stroke="white" stroke-width="0.1" stroke-miterlimit="10"></path><path d="M92.5167 90.8831H94.0333C95.2 90.8831 96.0167 91.2331 96.0167 92.3997C96.0167 93.5664 95.2 94.0331 94.0333 94.0331H93.2167V96.1331H92.5167V90.8831ZM93.9167 93.5664C94.85 93.5664 95.3167 93.2164 95.3167 92.5164C95.3167 91.8164 94.85 91.4664 93.9167 91.4664H93.2167V93.5664H93.9167V93.5664Z" fill="white" stroke="white" stroke-width="0.1" stroke-miterlimit="10"></path><path d="M97.5333 90.8831H98.2333L99.9833 96.1331H99.2833L98.35 93.2164C98.1167 92.6331 98 92.0497 97.8833 91.4664C97.7667 92.0497 97.5333 92.6331 97.4167 93.2164L96.4833 96.1331H95.7833L97.5333 90.8831ZM96.7167 94.0331H99.1667V94.4997H96.7167V94.0331Z" fill="white" stroke="white" stroke-width="0.1" stroke-miterlimit="10"></path><path d="M100.683 90.8831H101.383L103.25 94.1497L103.833 95.1997C103.833 94.7331 103.717 94.0331 103.717 93.5664V90.8831H104.3V96.1331H103.6L101.733 92.8664L101.15 91.8164C101.15 92.2831 101.267 92.8664 101.267 93.4497V96.1331H100.683V90.8831Z" fill="white" stroke="white" stroke-width="0.1" stroke-miterlimit="10"></path><path d="M105.817 90.8831H106.517V96.1331H105.817V90.8831Z" fill="white" stroke="white" stroke-width="0.1" stroke-miterlimit="10"></path><path d="M107.8 90.8831H110.833V91.4664H108.5V93.0997H110.483V93.6831H108.5V95.5497H110.95V96.1331H107.8V90.8831V90.8831Z" fill="white" stroke="white" stroke-width="0.1" stroke-miterlimit="10"></path><path d="M111.533 95.5497L111.883 95.0831C112.233 95.4331 112.817 95.6664 113.283 95.7831C113.983 95.7831 114.333 95.4331 114.333 94.9664C114.333 94.4997 113.983 94.2664 113.4 94.0331L112.583 93.6831C112 93.4497 111.533 92.9831 111.533 92.2831C111.533 91.4664 112.233 90.8831 113.167 90.8831C113.75 90.8831 114.333 91.1164 114.683 91.5831L114.333 92.0497C113.983 91.6997 113.633 91.5831 113.167 91.5831C112.583 91.5831 112.233 91.8164 112.233 92.3997C112.233 92.9831 112.7 93.0997 113.05 93.3331L113.75 93.6831C114.333 93.7997 114.8 94.3831 114.8 95.0831C114.8 96.0164 113.983 96.5997 113.167 96.5997C112.817 96.3664 112.117 96.1331 111.533 95.5497Z" fill="white" stroke="white" stroke-width="0.1" stroke-miterlimit="10"></path><path d="M30.1 83.4166H28.4667V82.8333H32.3167V83.4166H30.6833V88.0833H29.9833V83.4166H30.1Z" fill="white" stroke="white" stroke-width="0.1" stroke-miterlimit="10"></path><path d="M32.6667 85.3999C32.6667 83.7665 33.6 82.7166 34.8834 82.7166C36.1667 82.7166 37.1 83.7665 37.1 85.3999C37.1 87.0332 36.1667 88.0832 34.8834 88.0832C33.6 88.0832 32.6667 87.1499 32.6667 85.3999ZM36.5167 85.3999C36.5167 84.1165 35.9334 83.2999 35 83.2999C34.0667 83.2999 33.4834 84.1165 33.4834 85.3999C33.4834 86.6832 34.0667 87.4999 35 87.4999C35.9334 87.4999 36.5167 86.7999 36.5167 85.3999Z" fill="white" stroke="white" stroke-width="0.1" stroke-miterlimit="10"></path><path d="M38.2667 82.8333H39.6667C40.8334 82.8333 41.65 83.1833 41.65 84.3499C41.65 85.5166 40.8334 85.9832 39.6667 85.9832H38.85V88.0833H38.15L38.2667 82.8333ZM39.6667 85.5166C40.6 85.5166 41.0667 85.1666 41.0667 84.4666C41.0667 83.7666 40.6 83.4166 39.6667 83.4166H38.9667V85.5166H39.6667V85.5166Z" fill="white" stroke="white" stroke-width="0.1" stroke-miterlimit="10"></path><path d="M44.3333 85.5166C44.3333 83.7666 45.2667 82.7166 46.6667 82.7166C47.8333 82.7166 48.65 83.4166 48.7667 84.5832H47.95C47.8333 83.8832 47.25 83.4166 46.55 83.4166C45.6167 83.4166 45.0333 84.2332 45.0333 85.5166C45.0333 86.7999 45.6167 87.6165 46.55 87.6165C47.25 87.6165 47.7167 87.2665 47.95 86.5665H48.7667C48.5333 87.7332 47.8333 88.3165 46.6667 88.3165C45.15 88.3165 44.3333 87.1499 44.3333 85.5166Z" fill="white"></path><path d="M50.1667 86.2166C50.1667 87.0333 50.6333 87.4999 51.45 87.4999C52.2667 87.4999 52.7333 86.9166 52.7333 86.2166V82.8333H53.55V86.3333C53.55 87.4999 52.7333 88.3166 51.5667 88.3166C50.2833 88.3166 49.5833 87.4999 49.5833 86.3333V82.8333H50.1667V86.2166Z" fill="white"></path><path d="M54.95 86.6833C54.95 87.2666 55.5333 87.6166 56.1167 87.6166C56.7 87.6166 57.1667 87.2666 57.1667 86.8C57.1667 86.3333 56.9333 86.0999 56.2333 85.9833L55.5333 85.8666C54.6 85.6333 54.25 85.1666 54.25 84.4666C54.25 83.5333 54.95 82.95 56.1167 82.95C57.1667 82.95 57.8667 83.5333 57.8667 84.4666H57.1667C57.1667 83.8833 56.7 83.6499 56.1167 83.6499C55.5333 83.6499 55.0667 84 55.0667 84.4666C55.0667 84.8166 55.3 85.05 56 85.2833L56.5833 85.3999C57.6333 85.6333 57.9833 86.1 57.9833 86.9166C57.9833 87.9666 57.2833 88.55 56.1167 88.55C55.0667 88.55 54.25 87.9666 54.25 86.9166H54.95V86.6833Z" fill="white"></path><path d="M59.9667 88.1999V83.5333H58.3333V82.8333H62.1833V83.5333H60.6667V88.1999H59.9667Z" fill="white"></path><path d="M67.0834 85.5166C67.0834 87.2666 66.15 88.3165 64.75 88.3165C63.35 88.3165 62.4167 87.2666 62.4167 85.5166C62.4167 83.7666 63.35 82.7166 64.75 82.7166C66.15 82.7166 67.0834 83.7666 67.0834 85.5166ZM63.2334 85.5166C63.2334 86.7999 63.8167 87.6165 64.75 87.6165C65.6834 87.6165 66.2667 86.7999 66.2667 85.5166C66.2667 84.2332 65.6834 83.4166 64.75 83.4166C63.8167 83.4166 63.2334 84.2332 63.2334 85.5166Z" fill="white"></path><path d="M72.8 88.1999H72.1V84.2332L70.5834 88.1999H70L68.4834 84.2332V88.1999H67.7834V82.8333H68.7167L70.35 87.0333L71.9834 82.8333H72.9167V88.1999H72.8Z" fill="white"></path><path d="M75.95 86.6833C75.95 87.2666 76.5333 87.6166 77.1167 87.6166C77.7 87.6166 78.1667 87.2666 78.1667 86.8C78.1667 86.3333 77.9333 86.0999 77.2333 85.9833L76.5333 85.8666C75.6 85.6333 75.25 85.1666 75.25 84.4666C75.25 83.5333 75.95 82.95 77.1167 82.95C78.1667 82.95 78.8667 83.5333 78.8667 84.4666H78.1667C78.1667 83.8833 77.7 83.6499 77.1167 83.6499C76.5333 83.6499 76.0667 84 76.0667 84.4666C76.0667 84.8166 76.3 85.05 77 85.2833L77.5833 85.3999C78.6333 85.6333 78.9833 86.1 78.9833 86.9166C78.9833 87.9666 78.2833 88.55 77.1167 88.55C76.0667 88.55 75.25 87.9666 75.25 86.9166H75.95V86.6833Z" fill="white"></path><path d="M84.1167 85.5166C84.1167 87.2666 83.1833 88.3165 81.7833 88.3165C80.3833 88.3165 79.45 87.2666 79.45 85.5166C79.45 83.7666 80.3833 82.7166 81.7833 82.7166C83.3 82.7166 84.1167 83.7666 84.1167 85.5166ZM80.2667 85.5166C80.2667 86.7999 80.85 87.6165 81.7833 87.6165C82.7167 87.6165 83.3 86.7999 83.3 85.5166C83.3 84.2332 82.7167 83.4166 81.7833 83.4166C80.85 83.4166 80.2667 84.2332 80.2667 85.5166Z" fill="white"></path><path d="M84.9333 88.1999V82.8333H88.0833V83.5333H85.75V85.1666H87.85V85.8666H85.75V88.0833H84.9333V88.1999Z" fill="white"></path><path d="M89.95 88.1999V83.5333H88.4333V82.8333H92.2833V83.5333H90.7667V88.1999H89.95Z" fill="white"></path><path d="M94.6167 88.1999H93.9167L92.5167 82.8333H93.3334L94.2667 87.0333L95.3167 82.8333H96.0167L97.0667 87.0333L98 82.8333H98.8167L97.4167 88.1999H96.8334L95.7834 84.1166L94.6167 88.1999Z" fill="white"></path><path d="M101.85 86.6832H99.9833L99.5167 88.0832H98.7L100.45 82.7166H101.267L103.017 88.0832H102.2L101.85 86.6832ZM100.1 86.0999H101.617L100.917 83.7666L100.1 86.0999Z" fill="white"></path><path d="M104.417 88.1999H103.6V82.8333H105.583C106.633 82.8333 107.217 83.5333 107.217 84.4666C107.217 85.1666 106.867 85.7499 106.283 85.9832L107.45 88.1999H106.517L105.467 86.0999H104.417V88.1999ZM104.417 85.3999H105.583C106.167 85.3999 106.517 85.0499 106.517 84.4666C106.517 83.8833 106.167 83.5333 105.583 83.5333H104.533V85.3999H104.417Z" fill="white"></path><path d="M111.183 88.1999H108.033V82.8333H111.183V83.5333H108.85V85.1666H111.067V85.8666H108.85V87.4999H111.183V88.1999Z" fill="white"></path></svg>