<svg xmlns="http://www.w3.org/2000/svg" width="140" height="140" viewBox="0 0 140 140" fill="none"><path d="M113.284 106.965V6.53345H27.0667V106.965L70.2816 132.533L113.284 106.965Z" fill="#930043"></path><path d="M111.203 105.958V19.51H29.1479V105.958L70.1755 129.71L111.203 105.958Z" fill="white"></path><path d="M59.0113 106.961C59.0073 106.97 59.006 109.237 59.0073 111.998L59.0113 117.017L59.7046 117.024L60.3979 117.031L60.4045 117.643L60.4111 118.255H65.418H70.4248V116.405V114.555L70.2922 114.551L70.1583 114.547L70.1557 116.265L70.1517 117.982H65.4166H60.6842V117.506V117.031L64.8546 117.024L69.0249 117.017V115.786V114.555L68.8924 114.551L68.7585 114.547V115.642C68.7585 116.626 68.7558 116.735 68.7373 116.743C68.7095 116.754 60.7266 116.754 60.6988 116.743C60.6789 116.735 60.6776 116.359 60.6776 112.601V108.467H64.718H68.7585V110.181V111.896L68.8924 111.892L69.0249 111.888L69.0289 110.177L69.0316 108.467H69.5963H70.161V110.181V111.896L70.2949 111.892L70.4274 111.888V110.037V108.187L69.7342 108.18L69.0409 108.174L69.0342 107.561L69.0276 106.949L64.0234 106.945C60.024 106.945 59.0153 106.948 59.0113 106.961ZM68.7519 107.246C68.7558 107.263 68.7572 107.479 68.7558 107.726L68.7519 108.175L64.5815 108.182C62.2882 108.186 60.4098 108.19 60.4085 108.192C60.4058 108.194 60.4045 110.117 60.4045 112.467V116.739H59.8398H59.2751V111.987C59.2751 109.372 59.2791 107.23 59.2844 107.226C59.2883 107.221 61.4186 107.217 64.0181 107.217H68.7439L68.7519 107.246Z" fill="#930043"></path><path d="M78.9764 112.374C78.7894 112.422 78.6781 112.504 78.6065 112.645C78.5787 112.698 78.5747 112.727 78.5747 112.855C78.5747 113.028 78.5919 113.077 78.6834 113.168C78.7722 113.257 78.8769 113.299 79.2455 113.392C79.325 113.412 79.4377 113.474 79.4655 113.514C79.5026 113.566 79.5039 113.678 79.4655 113.731C79.4178 113.798 79.3276 113.83 79.1845 113.828C79.0135 113.828 78.9286 113.798 78.7616 113.682C78.7139 113.649 78.6728 113.623 78.6701 113.623C78.6556 113.623 78.5137 113.806 78.5137 113.824C78.515 113.872 78.7179 113.991 78.8809 114.043C79.1063 114.112 79.329 114.108 79.5 114.031C79.8102 113.892 79.8924 113.494 79.6537 113.27C79.5729 113.195 79.4761 113.155 79.1938 113.081C79.0267 113.037 78.9419 112.998 78.8915 112.945C78.8663 112.918 78.8597 112.896 78.8597 112.826C78.8597 112.753 78.865 112.735 78.8942 112.704C78.9525 112.642 79.0108 112.622 79.1421 112.623C79.2733 112.625 79.3528 112.651 79.4986 112.735L79.5795 112.782L79.6034 112.749C79.618 112.732 79.6524 112.684 79.6789 112.643L79.7306 112.572L79.6842 112.532C79.5278 112.402 79.1739 112.322 78.9764 112.374Z" fill="black"></path><path d="M71.4389 112.443C71.4216 112.483 71.3898 112.553 71.3686 112.601C71.3487 112.647 71.3302 112.69 71.3302 112.692C71.3302 112.695 71.3156 112.732 71.2957 112.774C71.2771 112.816 71.2466 112.883 71.2281 112.924C71.2095 112.967 71.1936 113.004 71.1936 113.006C71.1936 113.009 71.179 113.046 71.1592 113.089C71.1406 113.13 71.1101 113.197 71.0915 113.238C71.073 113.281 71.0571 113.318 71.0571 113.321C71.0571 113.323 71.0412 113.362 71.0213 113.405C71.0014 113.449 70.9709 113.517 70.9537 113.556C70.9364 113.596 70.9205 113.631 70.9205 113.635C70.9205 113.637 70.906 113.673 70.8874 113.712C70.8118 113.88 70.7973 113.912 70.7707 113.981C70.7548 114.023 70.7482 114.059 70.7548 114.065C70.7615 114.072 70.8238 114.075 70.8954 114.073L71.0226 114.069L71.0531 114.008C71.0836 113.944 71.1088 113.887 71.1446 113.798C71.1565 113.767 71.1751 113.727 71.1843 113.705L71.2002 113.668H71.6019H72.0036L72.0221 113.712C72.0314 113.735 72.0486 113.774 72.0579 113.798C72.0672 113.819 72.0937 113.881 72.1136 113.934C72.1693 114.077 72.1693 114.077 72.3244 114.077C72.4039 114.077 72.4609 114.072 72.4662 114.063C72.4715 114.056 72.4662 114.03 72.4556 114.006C72.445 113.982 72.4211 113.932 72.4052 113.894C72.3893 113.856 72.3602 113.794 72.3429 113.754C72.3257 113.714 72.3098 113.68 72.3098 113.676C72.3098 113.672 72.2952 113.637 72.2766 113.598C72.2594 113.558 72.2302 113.494 72.2143 113.457C72.1984 113.419 72.1693 113.356 72.152 113.317C72.1348 113.277 72.1189 113.242 72.1189 113.238C72.1189 113.234 72.1043 113.199 72.0844 113.156C72.0659 113.115 72.0354 113.047 72.0168 113.006C71.9983 112.964 71.9824 112.927 71.9824 112.924C71.9824 112.922 71.9678 112.886 71.9492 112.847C71.9147 112.773 71.879 112.688 71.8273 112.572C71.81 112.533 71.7875 112.482 71.7782 112.456C71.7464 112.375 71.7437 112.374 71.6032 112.374H71.4707L71.4389 112.443ZM71.6297 112.782C71.6297 112.789 71.6483 112.834 71.6708 112.883C71.6934 112.932 71.7119 112.976 71.7119 112.979C71.7119 112.981 71.7265 113.017 71.7451 113.055C71.8511 113.291 71.8763 113.351 71.8763 113.374C71.8763 113.388 71.8259 113.392 71.6059 113.392C71.4561 113.392 71.3315 113.387 71.3275 113.382C71.3235 113.375 71.3288 113.356 71.3381 113.336C71.3461 113.319 71.3659 113.277 71.3792 113.242C71.4044 113.177 71.4229 113.136 71.468 113.036C71.4826 113 71.4972 112.968 71.4972 112.964C71.4972 112.96 71.5104 112.927 71.5263 112.892C71.5423 112.857 71.5648 112.808 71.5754 112.784C71.5913 112.747 71.5979 112.741 71.6152 112.755C71.6218 112.763 71.6297 112.774 71.6297 112.782Z" fill="black"></path><path d="M62.9789 112.517L62.9829 112.651L63.2453 112.655L63.5065 112.658V113.359V114.06H63.6496H63.7928V113.359V112.658H64.0367C64.1719 112.658 64.2899 112.654 64.3018 112.65C64.3191 112.643 64.323 112.617 64.323 112.513V112.386H63.6496H62.9749L62.9789 112.517Z" fill="black"></path><path d="M64.6505 113.223V114.06L64.791 114.056L64.9302 114.052L64.9341 113.701L64.9368 113.351L65.3424 113.354L65.7467 113.358L65.7507 113.708L65.7534 114.059H65.8899H66.0264V113.223V112.386H65.8899H65.7534V112.727C65.7534 113.05 65.752 113.068 65.7255 113.081C65.7096 113.09 65.5665 113.093 65.3212 113.091L64.9434 113.087L64.9368 112.74L64.9302 112.393L64.791 112.389L64.6505 112.385V113.223Z" fill="black"></path><path d="M66.4732 113.222V114.059H67.0922H67.7126L67.7087 113.933L67.7047 113.808L67.2328 113.804L66.7595 113.802V113.571V113.34L67.1784 113.338L67.596 113.334V113.218V113.103L67.1811 113.097L66.7661 113.09L66.7622 112.869L66.7595 112.649H67.2288H67.6981L67.7047 112.617C67.7087 112.601 67.7113 112.544 67.7087 112.492L67.7047 112.397L67.0896 112.393L66.4732 112.39V113.222V113.222Z" fill="black"></path><path d="M68.8022 113.225L68.8062 114.066L68.9255 114.07C69.0037 114.072 69.0528 114.068 69.066 114.058C69.0819 114.046 69.0846 113.944 69.0846 113.466C69.0846 113.01 69.0886 112.892 69.1018 112.898C69.1098 112.9 69.2264 113.069 69.3603 113.27C69.4942 113.473 69.6082 113.637 69.6135 113.637C69.6188 113.637 69.7302 113.477 69.8614 113.281C70.1146 112.902 70.1292 112.881 70.1477 112.899C70.1544 112.906 70.161 113.171 70.1623 113.488L70.1663 114.066H70.2962H70.4261L70.4301 113.225L70.4327 112.386H70.2776H70.1225L70.0907 112.437C70.0576 112.494 69.9065 112.729 69.7368 112.992C69.6758 113.086 69.6215 113.162 69.6162 113.162C69.6109 113.162 69.5737 113.111 69.534 113.049C69.4942 112.988 69.4094 112.854 69.3431 112.753C69.2781 112.653 69.1986 112.529 69.1668 112.478L69.1098 112.386H68.9547H68.7996L68.8022 113.225Z" fill="black"></path><path d="M72.7751 113.225L72.7791 114.066L72.8878 114.07C72.9474 114.072 73.0097 114.07 73.027 114.066L73.0588 114.059V113.481C73.0588 113.005 73.0614 112.903 73.076 112.903C73.0866 112.903 73.145 112.968 73.2059 113.049C73.3067 113.181 73.4154 113.323 73.6659 113.647C73.711 113.706 73.7866 113.806 73.8356 113.868C73.988 114.07 73.9933 114.073 74.0967 114.073C74.1458 114.073 74.1948 114.07 74.2068 114.066C74.2253 114.058 74.228 113.971 74.228 113.223V112.387H74.0848H73.9417V112.959C73.9417 113.273 73.9377 113.53 73.9324 113.53C73.9257 113.529 73.8926 113.49 73.8581 113.444C73.8237 113.397 73.7335 113.282 73.6606 113.187C73.5877 113.091 73.4631 112.931 73.3849 112.829C73.3054 112.725 73.198 112.586 73.1463 112.517L73.0495 112.394L72.9103 112.39L72.7711 112.386L72.7751 113.225Z" fill="black"></path><path d="M74.6866 112.394C74.6813 112.399 74.6774 112.772 74.6774 113.222C74.6774 113.84 74.6813 114.044 74.6933 114.056C74.7118 114.075 74.9319 114.079 74.9597 114.062C74.973 114.052 74.9756 113.875 74.973 113.221L74.969 112.393L74.8311 112.389C74.7569 112.387 74.6919 112.389 74.6866 112.394Z" fill="black"></path><path d="M75.4342 112.395C75.4289 112.399 75.4249 112.772 75.4249 113.223C75.4249 113.909 75.4276 114.044 75.4435 114.058C75.4554 114.068 75.5058 114.072 75.584 114.07L75.7033 114.066L75.7099 113.725L75.7166 113.384L76.1315 113.378L76.5464 113.371L76.5504 113.245L76.5544 113.12H76.1474C75.8173 113.12 75.7365 113.116 75.7245 113.102C75.7139 113.09 75.71 113.014 75.7126 112.867L75.7166 112.651L76.1898 112.647L76.6617 112.645V112.515V112.385H76.052C75.7179 112.386 75.4395 112.39 75.4342 112.395Z" fill="black"></path><path d="M77.0039 113.222V114.059L77.0357 114.065C77.0516 114.069 77.33 114.071 77.6508 114.069L78.2354 114.065L78.2393 113.931L78.2433 113.799H77.7661H77.2902L77.2928 113.571L77.2968 113.344L77.7157 113.34L78.1346 113.338L78.1306 113.212L78.1266 113.087L77.7078 113.083L77.2889 113.081L77.2928 112.866L77.2968 112.652L77.7661 112.646L78.2354 112.639V112.517V112.395L77.6203 112.391L77.0039 112.389V113.222Z" fill="black"></path><path d="M79.9851 112.517L79.9891 112.651L80.2542 112.658L80.5193 112.664L80.5259 113.366L80.5326 114.067L80.6519 114.071C80.7301 114.073 80.7791 114.069 80.7924 114.059C80.8083 114.046 80.811 113.928 80.811 113.351V112.659L81.0734 112.656L81.3346 112.652L81.3385 112.519L81.3425 112.386H80.6612H79.9798L79.9851 112.517Z" fill="black"></path><path d="M44.6841 28.8018H45.201L46.2748 33.5337L47.375 28.8018H47.892L48.0246 34.2627H47.6004L47.4944 29.9152L46.4471 34.2627H46.1157L45.0817 29.9284L44.9757 34.2627H44.5515L44.6841 28.8018Z" fill="black"></path><path d="M50.0793 33.8782C49.8672 33.5866 49.7612 33.1757 49.7612 32.6323V30.3789C49.7612 29.8488 49.8672 29.4379 50.0793 29.1595C50.2914 28.8812 50.6626 28.7354 51.1663 28.7354C51.6701 28.7354 52.028 28.8812 52.2401 29.1595C52.4522 29.4379 52.5582 29.8488 52.5582 30.3789V32.6455C52.5582 33.1757 52.4522 33.5866 52.2401 33.8782C52.028 34.1698 51.6701 34.3156 51.1663 34.3156C50.6626 34.3156 50.2914 34.1698 50.0793 33.8782ZM51.8556 33.6131C51.9749 33.4143 52.0412 33.1359 52.0412 32.7515V30.2729C52.0412 29.9018 51.9749 29.6102 51.8556 29.4246C51.7363 29.239 51.4977 29.1462 51.1663 29.1462C50.8217 29.1462 50.5963 29.239 50.4637 29.4246C50.3444 29.6102 50.2782 29.9018 50.2782 30.2729V32.7648C50.2782 33.1492 50.3444 33.4408 50.4637 33.6264C50.583 33.8252 50.8217 33.918 51.1663 33.918C51.511 33.9047 51.7363 33.8119 51.8556 33.6131Z" fill="black"></path><path d="M54.5466 33.9313C54.3212 33.6662 54.1887 33.3084 54.1622 32.8444L54.6129 32.7119C54.6526 33.0963 54.7454 33.4011 54.878 33.6C55.0106 33.812 55.2359 33.9048 55.5408 33.9048C56.0578 33.9048 56.3097 33.6397 56.3097 33.1228C56.3097 32.8975 56.2566 32.6986 56.1506 32.5263C56.0445 32.354 55.8722 32.1552 55.6469 31.9431L54.6792 31.0153C54.5068 30.8562 54.3743 30.6839 54.2947 30.5116C54.2152 30.3393 54.1754 30.1405 54.1754 29.9284C54.1754 29.5573 54.2815 29.2656 54.5068 29.0668C54.7322 28.868 55.0238 28.762 55.4082 28.762C55.8192 28.762 56.1241 28.868 56.3362 29.0801C56.5483 29.2922 56.6808 29.65 56.7073 30.1405L56.2699 30.2598C56.2434 29.8886 56.1638 29.6235 56.0313 29.438C55.8987 29.2524 55.6866 29.1729 55.395 29.1729C55.1564 29.1729 54.9708 29.2391 54.8382 29.3584C54.6924 29.4777 54.6261 29.6633 54.6261 29.9019C54.6261 30.0609 54.6526 30.1935 54.7189 30.3128C54.7719 30.4321 54.878 30.5646 55.0106 30.6972L55.9783 31.6117C56.2301 31.8503 56.4157 32.0889 56.5615 32.3275C56.7073 32.5661 56.7736 32.8312 56.7736 33.1228C56.7736 33.5204 56.6543 33.8253 56.429 34.0374C56.2036 34.2494 55.8987 34.3555 55.5143 34.3555C55.1034 34.3157 54.772 34.1964 54.5466 33.9313Z" fill="black"></path><path d="M59.0935 29.1994H58.0595V28.8018H60.6047V29.1994H59.5972V34.2627H59.0802V29.1994H59.0935Z" fill="black"></path><path d="M64.4887 28.8018H65.7215C66.212 28.8018 66.5567 28.9211 66.7688 29.1596C66.9809 29.3982 67.0737 29.7428 67.0737 30.1935C67.0737 30.5381 67.0206 30.8297 66.9013 31.0551C66.7953 31.2804 66.5964 31.4262 66.3181 31.4792L67.1532 34.276H66.6495L65.8408 31.5985H64.9792V34.276H64.4622V28.8018H64.4887ZM65.695 31.2009C66.0264 31.2009 66.2518 31.1213 66.3843 30.9623C66.5169 30.8032 66.5832 30.5381 66.5832 30.1935C66.5832 29.8356 66.5169 29.5838 66.3976 29.4247C66.2783 29.2657 66.0397 29.1861 65.7083 29.1861H65.0057V31.2009H65.695V31.2009Z" fill="black"></path><path d="M68.8765 28.8018H70.8516V29.1994H69.3935V31.2539H70.5733V31.625H69.3935V33.8783H70.8649V34.2627H68.8765V28.8018Z" fill="black"></path><path d="M72.2038 28.8018H72.6943L73.7282 33.3216L74.6959 28.8018H75.1864L73.9536 34.2627H73.4896L72.2038 28.8018Z" fill="black"></path><path d="M76.7771 28.8018H77.2941V34.2627H76.7771V28.8018Z" fill="black"></path><path d="M79.2029 28.8018H81.1781V29.1994H79.7199V31.2539H80.913V31.625H79.7199V33.8783H81.1914V34.2627H79.2029V28.8018Z" fill="black"></path><path d="M82.6097 28.8018H83.0472L83.763 33.2421L84.5849 28.8813H85.0091L85.8575 33.2421L86.5203 28.8018H86.9577L86.0696 34.2627H85.6719L84.797 29.7561L83.9354 34.2627H83.5112L82.6097 28.8018Z" fill="black"></path><path d="M88.6148 28.8018H90.59V29.1994H89.1318V31.2539H90.3248V31.625H89.1318V33.8783H90.6032V34.2627H88.6148V28.8018Z" fill="black"></path><path d="M92.2469 28.8018H93.44C93.9835 28.8018 94.3547 28.9343 94.58 29.2127C94.8054 29.491 94.9114 29.8886 94.9114 30.4056V32.5794C94.9114 33.1228 94.8054 33.5337 94.58 33.8253C94.3679 34.1169 93.9967 34.2627 93.4665 34.2627H92.2337V28.8018H92.2469ZM93.4532 33.8651C93.7316 33.8651 93.9305 33.8121 94.0763 33.6928C94.2088 33.5735 94.3016 33.4277 94.3414 33.2289C94.3812 33.0433 94.4077 32.7914 94.4077 32.4733V30.4321C94.4077 30.1405 94.3812 29.9019 94.3282 29.7163C94.2751 29.544 94.1823 29.3982 94.0498 29.3054C93.904 29.2127 93.7051 29.1596 93.44 29.1596H92.7772V33.8386H93.4532V33.8651Z" fill="black"></path><path d="M66.9278 101.04C66.7423 100.801 66.6627 100.457 66.6627 100.006V96.4539H67.1134V100.019C67.1134 100.338 67.1665 100.589 67.2858 100.762C67.4051 100.934 67.6039 101.027 67.9088 101.027C68.2004 101.027 68.4125 100.934 68.5318 100.762C68.6511 100.589 68.7174 100.338 68.7174 100.019V96.4539H69.1549V100.006C69.1549 100.444 69.0621 100.788 68.8765 101.04C68.6909 101.279 68.3728 101.398 67.9221 101.398C67.4316 101.398 67.1134 101.279 66.9278 101.04Z" fill="black"></path><path d="M70.7854 96.4539H71.2494V99.0385L72.5485 96.4539H72.9859L71.9917 98.5481L73.2113 101.332H72.7606L71.6868 98.8927L71.2494 99.688V101.332H70.7854V96.4539V96.4539Z" fill="black"></path><path d="M34.9806 50.2478L36.1339 44.7869H36.863L38.0295 50.2478H37.3137L37.0618 48.8693H35.9483L35.6832 50.2478H34.9806ZM36.0544 48.3259H36.9691L36.5051 45.8605L36.0544 48.3259Z" fill="#7D1740"></path><path d="M39.5408 50.2478V44.7869H40.8929C41.2243 44.7869 41.4762 44.8399 41.675 44.9592C41.8738 45.0785 42.0197 45.2508 42.0992 45.4761C42.192 45.7014 42.2318 45.9665 42.2318 46.2979C42.2318 46.5895 42.1787 46.8414 42.0859 47.0402C41.9799 47.2523 41.8341 47.4113 41.6352 47.5306C41.4364 47.6499 41.1845 47.7029 40.8929 47.7029H40.2964V50.2478H39.5408ZM40.2964 47.1595H40.641C40.8664 47.1595 41.0387 47.133 41.158 47.0799C41.2773 47.0269 41.3701 46.9474 41.4231 46.8148C41.4762 46.6956 41.5027 46.5232 41.5027 46.2979C41.5027 46.0328 41.4894 45.834 41.4497 45.7014C41.4099 45.5556 41.3303 45.4629 41.211 45.4098C41.0917 45.3568 40.9062 45.3303 40.641 45.3303H40.2831V47.1595H40.2964Z" fill="#7D1740"></path><path d="M43.7297 50.2478V44.7869H45.0818C45.4132 44.7869 45.6651 44.8399 45.8639 44.9592C46.0628 45.0785 46.2086 45.2508 46.2881 45.4761C46.3809 45.7014 46.4207 45.9665 46.4207 46.2979C46.4207 46.5895 46.3677 46.8414 46.2749 47.0402C46.1688 47.2523 46.023 47.4113 45.8242 47.5306C45.6253 47.6499 45.3735 47.7029 45.0818 47.7029H44.4853V50.2478H43.7297ZM44.4853 47.1595H44.8299C45.0553 47.1595 45.2276 47.133 45.3469 47.0799C45.4662 47.0269 45.559 46.9474 45.6121 46.8148C45.6651 46.6956 45.6916 46.5232 45.6916 46.2979C45.6916 46.0328 45.6783 45.834 45.6386 45.7014C45.5988 45.5556 45.5193 45.4629 45.4 45.4098C45.2807 45.3568 45.0951 45.3303 44.8299 45.3303H44.472V47.1595H44.4853Z" fill="#7D1740"></path><path d="M50.3974 50.2478L50.5035 44.7869H51.2458L52.2135 49.214L53.1812 44.7869H53.9236L54.0296 50.2478H53.4198L53.3403 46.2847L52.4124 50.2478H51.9749L51.0603 46.2847L50.994 50.2478H50.3974Z" fill="#7D1740"></path><path d="M57.1979 50.3139C56.8268 50.3139 56.5351 50.2476 56.3098 50.1018C56.0844 49.956 55.9386 49.7572 55.8326 49.4789C55.7398 49.2138 55.6867 48.8956 55.6867 48.5378V46.47C55.6867 46.1121 55.7398 45.8073 55.8326 45.5422C55.9253 45.2903 56.0844 45.0915 56.3098 44.9457C56.5219 44.8132 56.8268 44.7336 57.1847 44.7336C57.5558 44.7336 57.8475 44.7999 58.0596 44.9457C58.2717 45.0915 58.4308 45.2771 58.5235 45.5422C58.6163 45.794 58.6694 46.1121 58.6694 46.47V48.551C58.6694 48.9089 58.6163 49.2138 58.5235 49.4789C58.4308 49.744 58.2717 49.956 58.0596 50.1018C57.8607 50.2344 57.5691 50.3139 57.1979 50.3139ZM57.1979 49.7174C57.3968 49.7174 57.5558 49.6777 57.6619 49.5982C57.7679 49.5186 57.8342 49.3993 57.874 49.2535C57.9138 49.1077 57.927 48.9222 57.927 48.7233V46.3242C57.927 46.1254 57.9138 45.9531 57.874 45.8073C57.8342 45.6615 57.7679 45.5554 57.6619 45.4759C57.5558 45.3964 57.41 45.3566 57.1979 45.3566C56.9991 45.3566 56.84 45.3964 56.734 45.4759C56.6279 45.5554 56.5616 45.6615 56.5219 45.8073C56.4821 45.9531 56.4688 46.1254 56.4688 46.3242V48.7233C56.4688 48.9222 56.4821 49.1077 56.5219 49.2535C56.5616 49.3993 56.6279 49.5186 56.734 49.5982C56.84 49.6644 56.9991 49.7174 57.1979 49.7174Z" fill="#7D1740"></path><path d="M60.3926 50.2478V44.7869H61.5857C61.9966 44.7869 62.3147 44.8531 62.5401 44.9724C62.7655 45.0917 62.951 45.2773 63.0438 45.5291C63.1366 45.781 63.1896 46.0858 63.1896 46.457V48.4717C63.1896 48.8561 63.1366 49.1875 63.0438 49.4525C62.9378 49.7176 62.7787 49.9165 62.5534 50.0623C62.328 50.2081 62.0231 50.2743 61.6387 50.2743H60.3926V50.2478ZM61.1482 49.7044H61.5857C61.864 49.7044 62.0629 49.6514 62.1822 49.5453C62.3015 49.4393 62.3678 49.2802 62.3943 49.0682C62.4208 48.8561 62.434 48.6175 62.434 48.3259V46.5498C62.434 46.2714 62.4208 46.0328 62.381 45.8605C62.3413 45.6882 62.2617 45.5556 62.1424 45.4761C62.0231 45.3966 61.8243 45.3568 61.5724 45.3568H61.1615V49.7044H61.1482Z" fill="#7D1740"></path><path d="M64.8997 50.2478V44.7869H67.0206V45.3568H65.6685V47.1595H66.7688V47.7029H65.6685V49.7044H67.0339V50.2478H64.8997V50.2478Z" fill="#7D1740"></path><path d="M68.5849 50.2478V44.7869H69.6852C70.0431 44.7869 70.348 44.8399 70.5866 44.9327C70.8252 45.0254 70.9975 45.1845 71.1168 45.3966C71.2361 45.6087 71.2891 45.887 71.2891 46.2316C71.2891 46.4437 71.2626 46.6293 71.2229 46.8016C71.1831 46.9739 71.1036 47.1197 71.0108 47.239C70.918 47.3583 70.7854 47.4511 70.6131 47.5041L71.3819 50.2346H70.6529L69.937 47.6764H69.3405V50.2346H68.5849V50.2478ZM69.3538 47.1462H69.6454C69.8575 47.1462 70.0298 47.1197 70.1756 47.0667C70.3082 47.0137 70.4142 46.9209 70.4673 46.7883C70.5336 46.6558 70.5601 46.4702 70.5601 46.2449C70.5601 45.9268 70.507 45.7014 70.3877 45.5556C70.2684 45.4098 70.0431 45.3436 69.6984 45.3436H69.367V47.1462H69.3538Z" fill="#7D1740"></path><path d="M73.0389 50.2478V44.7869H73.5559L75.1068 48.4187V44.7869H75.7431V50.2478H75.2527L73.6884 46.5232V50.2478H73.0389Z" fill="#7D1740"></path><path d="M77.5858 50.2478V44.7869H78.3281V50.2478H77.5858Z" fill="#7D1740"></path><path d="M79.9983 50.2478V49.7044L81.6023 45.3303H80.1044V44.7869H82.411V45.1182L80.7142 49.7044H82.411V50.2478H79.9983Z" fill="#7D1740"></path><path d="M83.6306 50.2478L84.7839 44.7869H85.513L86.6795 50.2478H85.9637L85.7118 48.8693H84.5983L84.3332 50.2478H83.6306ZM84.7176 48.3259H85.6323L85.1683 45.8605L84.7176 48.3259Z" fill="#7D1740"></path><path d="M88.5883 50.2478V45.3568H87.6604V44.7869H90.2454V45.3568H89.3439V50.2478H88.5883Z" fill="#7D1740"></path><path d="M91.7566 50.2478V44.7869H92.4989V50.2478H91.7566Z" fill="#7D1740"></path><path d="M95.7334 50.3139C95.3622 50.3139 95.0706 50.2476 94.8453 50.1018C94.6199 49.956 94.4741 49.7572 94.368 49.4789C94.2753 49.2138 94.2222 48.8956 94.2222 48.5378V46.47C94.2222 46.1121 94.2753 45.8073 94.368 45.5422C94.4608 45.2903 94.6199 45.0915 94.8453 44.9457C95.0574 44.8132 95.3623 44.7336 95.7202 44.7336C96.0913 44.7336 96.383 44.7999 96.5951 44.9457C96.8072 45.0915 96.9662 45.2771 97.059 45.5422C97.1518 45.794 97.2049 46.1121 97.2049 46.47V48.551C97.2049 48.9089 97.1518 49.2138 97.059 49.4789C96.9662 49.744 96.8072 49.956 96.5951 50.1018C96.3962 50.2344 96.1046 50.3139 95.7334 50.3139ZM95.7334 49.7174C95.9323 49.7174 96.0913 49.6777 96.1974 49.5982C96.3034 49.5186 96.3697 49.3993 96.4095 49.2535C96.4493 49.1077 96.4625 48.9222 96.4625 48.7233V46.3242C96.4625 46.1254 96.4493 45.9531 96.4095 45.8073C96.3697 45.6615 96.3034 45.5554 96.1974 45.4759C96.0913 45.3964 95.9455 45.3566 95.7334 45.3566C95.5213 45.3566 95.3755 45.3964 95.2695 45.4759C95.1634 45.5554 95.0971 45.6615 95.0574 45.8073C95.0176 45.9531 95.0043 46.1254 95.0043 46.3242V48.7233C95.0043 48.9222 95.0176 49.1077 95.0574 49.2535C95.0971 49.3993 95.1634 49.5186 95.2695 49.5982C95.3755 49.6644 95.5346 49.7174 95.7334 49.7174Z" fill="#7D1740"></path><path d="M98.9281 50.2478V44.7869H99.4451L100.996 48.4187V44.7869H101.632V50.2478H101.142L99.5777 46.5232V50.2478H98.9281Z" fill="#7D1740"></path><path d="M53.1813 61.448C52.7969 61.448 52.492 61.3685 52.2799 61.2095C52.0678 61.0504 51.922 60.8251 51.8292 60.56C51.7497 60.2816 51.7099 59.9768 51.7099 59.6454V57.7234C51.7099 57.3523 51.7497 57.0342 51.8292 56.7558C51.9087 56.4775 52.0546 56.2654 52.2799 56.1196C52.492 55.9738 52.7969 55.8943 53.1813 55.8943C53.526 55.8943 53.7911 55.9606 53.9899 56.0799C54.1888 56.2124 54.3346 56.3847 54.4274 56.6233C54.5202 56.8619 54.56 57.1402 54.56 57.4716V57.909H53.8441V57.5246C53.8441 57.3258 53.8309 57.1402 53.8176 56.9944C53.7911 56.8354 53.7381 56.7161 53.6585 56.6366C53.5658 56.557 53.4199 56.504 53.2078 56.504C52.9957 56.504 52.8367 56.5438 52.7306 56.6366C52.6378 56.7293 52.5715 56.8619 52.545 57.0209C52.5185 57.1933 52.5053 57.3921 52.5053 57.6174V59.7779C52.5053 60.0563 52.5318 60.2684 52.5715 60.4274C52.6113 60.5865 52.6908 60.7058 52.7969 60.772C52.9029 60.8383 53.0355 60.8781 53.2211 60.8781C53.4332 60.8781 53.579 60.8383 53.6718 60.7455C53.7646 60.6528 53.8176 60.5202 53.8441 60.3612C53.8706 60.2021 53.8839 60.0165 53.8839 59.7912V59.3803H54.5997V59.7912C54.5997 60.1226 54.56 60.4142 54.4804 60.666C54.4009 60.9179 54.2551 61.1167 54.0562 61.2625C53.8176 61.3685 53.5392 61.448 53.1813 61.448Z" fill="#7D1740"></path><path d="M57.6354 61.4479C57.2642 61.4479 56.9726 61.3817 56.7472 61.2359C56.5219 61.0901 56.376 60.8912 56.27 60.6129C56.1772 60.3478 56.1242 60.0297 56.1242 59.6718V57.6041C56.1242 57.2462 56.1772 56.9413 56.27 56.6762C56.3628 56.4244 56.5219 56.2256 56.7472 56.0798C56.9593 55.9472 57.2642 55.8677 57.6221 55.8677C57.9933 55.8677 58.2849 55.934 58.497 56.0798C58.7091 56.2256 58.8682 56.4111 58.961 56.6762C59.0538 56.9281 59.1068 57.2462 59.1068 57.6041V59.6851C59.1068 60.0429 59.0538 60.3478 58.961 60.6129C58.8682 60.878 58.7091 61.0901 58.497 61.2359C58.2982 61.3684 58.0065 61.4479 57.6354 61.4479ZM57.6354 60.8515C57.8342 60.8515 57.9933 60.8117 58.0993 60.7322C58.2054 60.6527 58.2717 60.5334 58.3114 60.3876C58.3512 60.2418 58.3645 60.0562 58.3645 59.8574V57.4583C58.3645 57.2594 58.3512 57.0871 58.3114 56.9413C58.2717 56.7955 58.2054 56.6895 58.0993 56.6099C57.9933 56.5304 57.8475 56.4907 57.6354 56.4907C57.4365 56.4907 57.2775 56.5304 57.1714 56.6099C57.0654 56.6895 56.9991 56.7955 56.9593 56.9413C56.9195 57.0871 56.9063 57.2594 56.9063 57.4583V59.8574C56.9063 60.0562 56.9195 60.2418 56.9593 60.3876C56.9991 60.5334 57.0654 60.6527 57.1714 60.7322C57.2775 60.7985 57.4365 60.8515 57.6354 60.8515Z" fill="#7D1740"></path><path d="M60.8035 61.3816L60.9096 55.9207H61.6519L62.6196 60.3478L63.5873 55.9207H64.3296L64.4357 61.3816H63.8259L63.7596 57.4184L62.8317 61.3816H62.3942L61.4796 57.4184L61.4133 61.3816H60.8035Z" fill="#7D1740"></path><path d="M66.2253 61.3816V55.9207H67.5774C67.9088 55.9207 68.1607 55.9737 68.3595 56.093C68.5584 56.2123 68.7042 56.3846 68.7837 56.6099C68.8765 56.8352 68.9163 57.1003 68.9163 57.4317C68.9163 57.7233 68.8632 57.9751 68.7705 58.174C68.6644 58.386 68.5186 58.5451 68.3197 58.6644C68.1209 58.7837 67.869 58.8367 67.5774 58.8367H66.9809V61.3816H66.2253ZM66.9809 58.2933H67.3255C67.5509 58.2933 67.7232 58.2667 67.8425 58.2137C67.9618 58.1607 68.0546 58.0812 68.1076 57.9486C68.1607 57.8293 68.1872 57.657 68.1872 57.4317C68.1872 57.1666 68.1739 56.9678 68.1342 56.8352C68.0944 56.6894 68.0149 56.5966 67.8955 56.5436C67.7762 56.4906 67.5907 56.4641 67.3255 56.4641H66.9676V58.2933H66.9809Z" fill="#7D1740"></path><path d="M69.8574 61.3816L71.0107 55.9207H71.7398L72.9063 61.3816H72.1905L71.9386 60.0031H70.8384L70.5733 61.3816H69.8574ZM70.9312 59.4597H71.8458L71.3819 56.9943L70.9312 59.4597Z" fill="#7D1740"></path><path d="M74.4176 61.3816V55.9207H74.9346L76.4855 59.5525V55.9207H77.1218V61.3816H76.6313L75.0671 57.657V61.3816H74.4176Z" fill="#7D1740"></path><path d="M78.9644 61.3816V55.9207H79.7068V61.3816H78.9644Z" fill="#7D1740"></path><path d="M81.5493 61.3816V55.9207H83.6703V56.4906H82.3182V58.2933H83.4184V58.8367H82.3182V60.8382H83.6836V61.3816H81.5493V61.3816Z" fill="#7D1740"></path><path d="M86.5336 61.4481C86.2155 61.4481 85.9636 61.3818 85.7515 61.2493C85.5394 61.1167 85.3803 60.9312 85.2743 60.6926C85.1682 60.454 85.102 60.1757 85.0887 59.8575L85.7648 59.672C85.778 59.8708 85.8045 60.0564 85.8576 60.2287C85.9106 60.4142 85.9769 60.56 86.0962 60.6661C86.2022 60.7854 86.348 60.8384 86.5469 60.8384C86.7457 60.8384 86.8915 60.7854 86.9976 60.6793C87.1036 60.5733 87.1434 60.4142 87.1434 60.2022C87.1434 59.9503 87.0904 59.7515 86.9711 59.6057C86.865 59.4599 86.7192 59.3008 86.5469 59.155L85.6322 58.3465C85.4466 58.1874 85.3141 58.0151 85.2345 57.8296C85.155 57.644 85.102 57.4187 85.102 57.1403C85.102 56.7427 85.2213 56.4245 85.4466 56.2125C85.672 55.9871 85.9901 55.8811 86.3878 55.8811C86.5999 55.8811 86.7987 55.9076 86.9578 55.9606C87.1169 56.0137 87.2627 56.1064 87.3688 56.2257C87.4748 56.345 87.5676 56.4908 87.6339 56.6631C87.7002 56.8354 87.7399 57.0475 87.7664 57.2861L87.1169 57.4584C87.1036 57.2729 87.0771 57.1138 87.0373 56.968C86.9976 56.8222 86.9313 56.6896 86.8252 56.6101C86.7192 56.5173 86.5734 56.4776 86.3878 56.4776C86.2022 56.4776 86.0564 56.5306 85.9503 56.6234C85.8443 56.7294 85.7913 56.8752 85.7913 57.074C85.7913 57.2463 85.8178 57.3789 85.8708 57.4849C85.9238 57.591 86.0166 57.697 86.1492 57.8163L87.0771 58.6248C87.2892 58.8104 87.4615 59.0225 87.6206 59.2743C87.7797 59.5262 87.8592 59.8178 87.8592 60.1624C87.8592 60.4275 87.8062 60.6661 87.6869 60.8649C87.5808 61.0637 87.4218 61.2095 87.2229 61.3156C87.0241 61.4216 86.7855 61.4481 86.5336 61.4481Z" fill="#7D1740"></path><path d="M70.1756 89.0711C75.6664 89.0711 80.1176 84.6204 80.1176 79.1301C80.1176 73.6397 75.6664 69.189 70.1756 69.189C64.6847 69.189 60.2335 73.6397 60.2335 79.1301C60.2335 84.6204 64.6847 89.0711 70.1756 89.0711Z" fill="#930043"></path><path d="M70.1756 73.1387L71.647 77.6851H76.4192L72.5617 80.4951L74.0331 85.0282L70.1756 82.2315L66.3181 85.0282L67.7895 80.4951L63.932 77.6851H68.7042L70.1756 73.1387Z" fill="white"></path><path d="M111.203 75.4714H83.7498L87.8725 80.2564L83.7498 85.0281H111.203V80.2564V75.4714Z" fill="#930043"></path><path d="M93.8112 77.4065L94.4608 79.3947H96.5553L94.8585 80.6274L95.508 82.6156L93.8112 81.3829L92.1277 82.6156L92.7773 80.6274L91.0805 79.3947H93.175L93.8112 77.4065Z" fill="white"></path><path d="M103.846 77.4065L104.496 79.3947H106.577L104.893 80.6274L105.543 82.6156L103.846 81.3829L102.163 82.6156L102.799 80.6274L101.115 79.3947H103.197L103.846 77.4065Z" fill="white"></path><path d="M29.1479 75.4714H56.6013L52.4786 80.2564L56.6013 85.0281H29.1479V80.2564V75.4714Z" fill="#930043"></path><path d="M46.5398 77.4065L47.1761 79.3947H49.2706L47.5738 80.6274L48.2234 82.6156L46.5398 81.3829L44.8431 82.6156L45.4926 80.6274L43.7958 79.3947H45.8903L46.5398 77.4065Z" fill="white"></path><path d="M36.505 77.4065L37.1545 79.3947H39.2358L37.5522 80.6274L38.1885 82.6156L36.505 81.3829L34.8082 82.6156L35.4578 80.6274L33.7742 79.3947H35.8554L36.505 77.4065Z" fill="white"></path></svg>