<svg xmlns="http://www.w3.org/2000/svg" width="140" height="140" viewBox="0 0 140 140" fill="none"><path d="M70 133C82.4602 133 94.6406 129.305 105.001 122.383C115.361 115.46 123.436 105.621 128.204 94.1091C132.973 82.5973 134.22 69.9301 131.789 57.7093C129.359 45.4885 123.358 34.263 114.548 25.4523C105.737 16.6416 94.5115 10.6414 82.2907 8.21056C70.0699 5.77969 57.4027 7.0273 45.8909 11.7956C34.3792 16.5639 24.5399 24.6388 17.6174 34.9991C10.6949 45.3594 7 57.5398 7 70C7 86.7087 13.6375 102.733 25.4523 114.548C37.2671 126.363 53.2914 133 70 133V133Z" fill="#013674"></path><path d="M70.0001 129.82C81.8313 129.82 93.3969 126.312 103.234 119.738C113.072 113.165 120.739 103.823 125.267 92.8921C129.794 81.9614 130.979 69.9336 128.671 58.3297C126.362 46.7257 120.665 36.0668 112.299 27.7008C103.933 19.3349 93.2743 13.6376 81.6704 11.3294C70.0664 9.02122 58.0386 10.2059 47.1079 14.7335C36.1773 19.2611 26.8346 26.9284 20.2615 36.7657C13.6884 46.6031 10.1801 58.1687 10.1801 70C10.1801 85.8652 16.4825 101.081 27.7009 112.299C38.9194 123.518 54.1348 129.82 70.0001 129.82V129.82Z" fill="#013674"></path><path d="M70 11.38C81.594 11.38 92.9275 14.818 102.568 21.2593C112.208 27.7005 119.721 36.8557 124.158 47.5671C128.595 58.2785 129.756 70.065 127.494 81.4362C125.232 92.8074 119.649 103.252 111.451 111.451C103.252 119.649 92.8074 125.232 81.4362 127.494C70.0651 129.755 58.2785 128.595 47.5671 124.158C36.8557 119.721 27.7005 112.208 21.2593 102.568C14.818 92.9275 11.38 81.5939 11.38 70C11.3774 62.3012 12.8919 54.6773 15.8369 47.564C18.7819 40.4507 23.0997 33.9874 28.5436 28.5435C33.9875 23.0996 40.4507 18.7818 47.564 15.8368C54.6773 12.8918 62.3012 11.3774 70 11.38V11.38ZM70 9C57.9354 9 46.1416 12.5776 36.1102 19.2804C26.0788 25.9831 18.2603 35.51 13.6434 46.6563C9.02643 57.8026 7.81843 70.0677 10.1721 81.9005C12.5258 93.7334 18.3355 104.603 26.8665 113.134C35.3975 121.665 46.2667 127.474 58.0995 129.828C69.9324 132.182 82.1974 130.974 93.3437 126.357C104.49 121.74 114.017 113.921 120.72 103.89C127.422 93.8584 131 82.0647 131 70C130.968 53.8315 124.531 38.3344 113.099 26.9015C101.666 15.4687 86.1685 9.03171 70 9V9Z" fill="white"></path><path d="M70 122.73C59.571 122.73 49.3762 119.637 40.7048 113.843C32.0334 108.049 25.2749 99.8141 21.2839 90.1789C17.2929 80.5438 16.2486 69.9415 18.2832 59.7129C20.3178 49.4843 25.3399 40.0887 32.7143 32.7143C40.0887 25.3399 49.4843 20.3178 59.7129 18.2832C69.9415 16.2486 80.5438 17.2929 90.1789 21.2839C99.8141 25.2749 108.049 32.0334 113.843 40.7048C119.637 49.3762 122.73 59.571 122.73 70C122.731 76.925 121.368 83.7824 118.719 90.1805C116.069 96.5786 112.185 102.392 107.289 107.289C102.392 112.185 96.5786 116.069 90.1805 118.719C83.7824 121.368 76.925 122.731 70 122.73V122.73Z" fill="#013674"></path><path d="M70 18.2999C80.2253 18.2999 90.221 21.332 98.723 27.0129C107.225 32.6938 113.852 40.7682 117.765 50.2152C121.678 59.6621 122.701 70.0572 120.707 80.0861C118.712 90.1149 113.788 99.3269 106.557 106.557C99.3271 113.788 90.115 118.712 80.0862 120.706C70.0574 122.701 59.6622 121.678 50.2153 117.764C40.7684 113.851 32.6939 107.225 27.0131 98.7229C21.3322 90.2209 18.3 80.2252 18.3 69.9999C18.2987 63.2102 19.6351 56.4867 22.2328 50.2136C24.8305 43.9405 28.6386 38.2406 33.4397 33.4395C38.2407 28.6385 43.9406 24.8303 50.2137 22.2326C56.4869 19.6349 63.2103 18.2986 70 18.2999V18.2999ZM70 16.1399C59.3475 16.1399 48.9343 19.2987 40.077 25.2169C31.2198 31.1352 24.3164 39.5469 20.2399 49.3886C16.1634 59.2302 15.0967 70.0596 17.1749 80.5075C19.2531 90.9553 24.3828 100.552 31.9153 108.085C39.4477 115.617 49.0447 120.747 59.4925 122.825C69.9403 124.903 80.7697 123.837 90.6114 119.76C100.453 115.684 108.865 108.78 114.783 99.9229C120.701 91.0657 123.86 80.6524 123.86 69.9999C123.839 55.7218 118.158 42.0346 108.061 31.9385C97.9653 21.8424 84.2781 16.1611 70 16.1399V16.1399Z" fill="white"></path><path d="M128.9 102.29V101.92H10L17.08 112L10.82 120.87H128.52L121.15 111.81L128.9 102.29Z" fill="#013674"></path><path d="M128.62 120.87H10.82L8.30005 124.5H128.71V121.15L128.62 120.87Z" fill="#47B5FB"></path><path d="M9.99997 101.92H128.9V98.5601H7.83997V98.9401L9.99997 101.92Z" fill="#47B5FB"></path><path d="M123.11 66.26H16.24V68.87H123.11V66.26Z" fill="white"></path><path d="M38 40.87C37.91 40.79 37.81 40.68 37.81 40.59L38 38.59C37.9995 38.5351 37.9849 38.4811 37.9576 38.4335C37.9302 38.3858 37.891 38.3459 37.8438 38.3178C37.7966 38.2897 37.7429 38.2742 37.6879 38.2728C37.6329 38.2714 37.5786 38.2843 37.53 38.31L35.84 39.43C35.8231 39.4492 35.8023 39.4645 35.7791 39.475C35.7558 39.4856 35.7305 39.491 35.705 39.491C35.6795 39.491 35.6542 39.4856 35.6309 39.475C35.6077 39.4645 35.5869 39.4492 35.57 39.43L33.7 38.68C33.43 38.59 33.24 38.77 33.34 39.05L33.88 41C33.8855 41.0481 33.8812 41.0968 33.8675 41.1432C33.8537 41.1896 33.8308 41.2327 33.8 41.27L32.49 42.77C32.4538 42.809 32.4295 42.8575 32.4199 42.9098C32.4103 42.9621 32.4158 43.0161 32.4357 43.0654C32.4556 43.1147 32.4892 43.1573 32.5325 43.1882C32.5757 43.2192 32.6269 43.2371 32.68 43.24L34.68 43.33C34.7945 43.3545 34.8949 43.4227 34.96 43.52L35.96 45.2C35.995 45.2469 36.0421 45.2833 36.0962 45.3052C36.1504 45.3272 36.2095 45.3339 36.2673 45.3246C36.325 45.3154 36.379 45.2905 36.4236 45.2526C36.4681 45.2148 36.5015 45.1655 36.52 45.11L37.26 43.25C37.2648 43.1996 37.2877 43.1525 37.3244 43.1176C37.3612 43.0827 37.4093 43.0622 37.46 43.06L39.46 42.59C39.74 42.51 39.74 42.23 39.55 42.04L38 40.87Z" fill="#47B5FB"></path><path d="M53.58 30.9C53.5591 30.8831 53.5423 30.8617 53.5307 30.8375C53.5191 30.8133 53.5131 30.7868 53.5131 30.76C53.5131 30.7331 53.5191 30.7066 53.5307 30.6824C53.5423 30.6582 53.5591 30.6368 53.58 30.62L54.32 28.76C54.41 28.48 54.24 28.29 53.96 28.39L52.1 29C52.0496 29.0062 51.9984 29.0013 51.9501 28.9858C51.9017 28.9702 51.8573 28.9444 51.82 28.91L50.32 27.69C50.281 27.6538 50.2325 27.6295 50.1802 27.6199C50.1279 27.6102 50.0739 27.6157 50.0246 27.6356C49.9753 27.6556 49.9327 27.6891 49.9018 27.7324C49.8709 27.7757 49.8529 27.8268 49.85 27.88L49.77 29.88C49.7411 29.9925 49.6739 30.0915 49.58 30.16L47.89 31.16C47.8431 31.1949 47.8068 31.242 47.7848 31.2962C47.7628 31.3504 47.7561 31.4095 47.7654 31.4672C47.7747 31.5249 47.7996 31.579 47.8374 31.6235C47.8752 31.6681 47.9246 31.7014 47.98 31.72L49.84 32.38C49.8896 32.3824 49.9365 32.4032 49.9717 32.4383C50.0068 32.4734 50.0276 32.5203 50.03 32.57L50.5 34.43C50.59 34.71 50.87 34.71 51.06 34.52L52.27 32.93C52.3091 32.8989 52.354 32.8758 52.402 32.8621C52.4501 32.8483 52.5004 32.8442 52.55 32.85L54.55 32.93C54.605 32.9295 54.6589 32.9149 54.7066 32.8875C54.7543 32.8602 54.7941 32.821 54.8222 32.7737C54.8504 32.7265 54.8659 32.6728 54.8672 32.6179C54.8686 32.5629 54.8558 32.5085 54.83 32.46L53.58 30.9Z" fill="#47B5FB"></path><path d="M44.71 33.5C44.62 33.42 44.62 33.31 44.62 33.14L45.18 30.71C45.27 30.43 44.99 30.15 44.62 30.24L42.47 31.24C42.38 31.33 42.19 31.24 42.1 31.24L40.05 30C39.77 29.81 39.39 30 39.5 30.36L39.69 32.8C39.69 32.88 39.69 33.08 39.6 33.16L37.74 34.75C37.46 34.94 37.55 35.3 37.93 35.4L40.36 35.96C40.45 35.96 40.55 36.05 40.64 36.15L41.58 38.48C41.6087 38.5393 41.6517 38.5906 41.7051 38.6293C41.7584 38.668 41.8205 38.6929 41.8858 38.7018C41.9512 38.7107 42.0177 38.7033 42.0794 38.6803C42.1412 38.6573 42.1964 38.6194 42.24 38.57L43.54 36.42C43.63 36.33 43.73 36.23 43.82 36.23L46.25 36.03C46.321 36.0212 46.3885 35.994 46.4457 35.9511C46.503 35.9082 46.548 35.851 46.5763 35.7853C46.6047 35.7195 46.6153 35.6475 46.6071 35.5764C46.599 35.5053 46.5724 35.4376 46.53 35.38L44.71 33.5Z" fill="#47B5FB"></path><path d="M91.1 29.4C91.0656 29.3627 91.0397 29.3183 91.0242 29.2699C91.0086 29.2216 91.0038 29.1704 91.01 29.12L91.2 27.12C91.2 26.84 90.92 26.65 90.73 26.84L89.05 27.84C89.0331 27.8609 89.0118 27.8777 88.9876 27.8893C88.9634 27.9009 88.9369 27.9069 88.91 27.9069C88.8832 27.9069 88.8567 27.9009 88.8324 27.8893C88.8082 27.8777 88.7869 27.8609 88.77 27.84L87 27.07C86.9482 27.0468 86.8906 27.0399 86.8348 27.0502C86.779 27.0605 86.7277 27.0874 86.6875 27.1276C86.6474 27.1677 86.6204 27.219 86.6102 27.2748C86.5999 27.3306 86.6068 27.3882 86.63 27.44L87.1 29.44C87.1062 29.4904 87.1014 29.5416 87.0858 29.5899C87.0703 29.6383 87.0444 29.6827 87.01 29.72L85.68 31.21C85.6317 31.2437 85.5962 31.2928 85.5794 31.3492C85.5627 31.4057 85.5655 31.4662 85.5876 31.5208C85.6097 31.5754 85.6496 31.6209 85.7009 31.6498C85.7522 31.6787 85.8119 31.6894 85.87 31.68L87.87 31.87C87.96 31.87 88.06 31.96 88.15 32.06L89.15 33.75C89.1826 33.7935 89.2249 33.8288 89.2735 33.8531C89.3221 33.8774 89.3757 33.89 89.43 33.89C89.4843 33.89 89.5379 33.8774 89.5865 33.8531C89.6351 33.8288 89.6774 33.7935 89.71 33.75L90.46 31.89C90.4624 31.8404 90.4832 31.7935 90.5183 31.7584C90.5535 31.7232 90.6004 31.7024 90.65 31.7L92.65 31.33C92.93 31.24 92.93 30.97 92.74 30.78L91.1 29.4Z" fill="#47B5FB"></path><path d="M106.86 43.58L105.86 41.9C105.839 41.8831 105.822 41.8618 105.811 41.8376C105.799 41.8134 105.793 41.7869 105.793 41.76C105.793 41.7332 105.799 41.7067 105.811 41.6824C105.822 41.6582 105.839 41.6369 105.86 41.62L106.6 39.76C106.622 39.7093 106.628 39.6533 106.617 39.5991C106.607 39.5449 106.581 39.4949 106.543 39.4554C106.504 39.4159 106.455 39.3886 106.401 39.377C106.347 39.3654 106.291 39.3699 106.24 39.39L104.38 39.86C104.33 39.8662 104.278 39.8614 104.23 39.8459C104.182 39.8303 104.137 39.8044 104.1 39.77L102.6 38.47C102.562 38.4326 102.514 38.4072 102.462 38.3969C102.41 38.3867 102.356 38.392 102.307 38.4123C102.258 38.4326 102.216 38.4669 102.186 38.511C102.156 38.555 102.14 38.6069 102.14 38.66L102.05 40.66C102.05 40.75 101.96 40.85 101.86 40.94L100.17 41.94C100.127 41.9726 100.091 42.0149 100.067 42.0635C100.043 42.1121 100.03 42.1657 100.03 42.22C100.03 42.2744 100.043 42.3279 100.067 42.3765C100.091 42.4251 100.127 42.4674 100.17 42.5L102.03 43.24C102.08 43.2424 102.127 43.2632 102.162 43.2984C102.197 43.3335 102.218 43.3804 102.22 43.43L102.69 45.43C102.78 45.7 103.06 45.7 103.25 45.51L104.45 44C104.485 43.9658 104.528 43.94 104.575 43.9244C104.622 43.9088 104.671 43.9039 104.72 43.91L106.72 44.1C106.767 44.0786 106.808 44.0471 106.841 44.0079C106.875 43.9686 106.899 43.9225 106.912 43.8729C106.925 43.8232 106.928 43.7713 106.919 43.7206C106.91 43.67 106.89 43.622 106.86 43.58V43.58Z" fill="#47B5FB"></path><path d="M102.39 35.28L100.81 33.42C100.72 33.33 100.72 33.23 100.72 33.05L101.38 30.62C101.399 30.5548 101.4 30.4858 101.383 30.4201C101.366 30.3545 101.331 30.2945 101.283 30.2466C101.235 30.1986 101.176 30.1644 101.11 30.1474C101.044 30.1304 100.975 30.1313 100.91 30.15L98.58 31.09C98.5 31.17 98.31 31.09 98.22 31.09L96.22 29.68C96.1622 29.6314 96.0903 29.6028 96.0149 29.5985C95.9396 29.5941 95.8648 29.6143 95.8018 29.6559C95.7389 29.6975 95.691 29.7584 95.6655 29.8294C95.6399 29.9004 95.638 29.9778 95.66 30.05L95.85 32.48C95.85 32.57 95.85 32.76 95.66 32.76L93.66 34.25C93.38 34.44 93.47 34.81 93.85 34.91L96.28 35.47C96.37 35.47 96.47 35.56 96.56 35.75L97.39 38.08C97.4127 38.1454 97.4533 38.2032 97.5073 38.2467C97.5612 38.2902 97.6263 38.3177 97.695 38.326C97.7638 38.3343 97.8335 38.3232 97.8963 38.2938C97.9591 38.2645 98.0123 38.2181 98.05 38.16L99.36 36.11C99.44 36.02 99.55 35.92 99.63 35.92L102.07 35.83C102.39 35.94 102.57 35.56 102.39 35.28Z" fill="#47B5FB"></path><path d="M62.44 33.6899C61.97 33.4199 61.22 26.1299 61.44 26.0499C62.1893 26.0047 62.9406 26.0047 63.69 26.0499C63.734 25.6736 63.7974 25.2997 63.88 24.9299C63.8676 24.599 63.9623 24.2728 64.15 23.9999H60.58C60.4077 23.9944 60.2362 24.0242 60.076 24.0876C59.9157 24.1509 59.7702 24.2465 59.6483 24.3683C59.5265 24.4902 59.4309 24.6357 59.3676 24.7959C59.3042 24.9562 59.2744 25.1277 59.28 25.2999C59.28 25.3899 60.39 34.4399 60.39 34.5399C60.395 34.8841 60.5333 35.2128 60.7758 35.4571C61.0182 35.7014 61.3459 35.8422 61.69 35.8499H66.69C66.1486 35.2002 65.6509 34.5154 65.2 33.7999C65.24 33.6899 62.91 33.9999 62.44 33.6899Z" fill="white"></path><path d="M80.74 24.0001H77.28C77.4659 24.3003 77.563 24.647 77.56 25.0001C77.56 25.0001 77.65 25.4701 77.75 26.2101H79.61C79.61 26.2101 78.78 33.5801 78.67 33.7701C77.8306 33.8153 76.9894 33.8153 76.15 33.7701C75.6865 34.4609 75.1892 35.1283 74.66 35.7701L79.42 35.8601C79.5919 35.8642 79.7628 35.8334 79.9223 35.7695C80.0819 35.7057 80.2269 35.6101 80.3484 35.4885C80.47 35.367 80.5656 35.222 80.6294 35.0624C80.6933 34.9029 80.7241 34.732 80.72 34.5601C80.72 34.3701 82.03 25.7801 82.03 25.4201C82.0499 25.2398 82.0312 25.0573 81.9752 24.8848C81.9192 24.7122 81.8271 24.5536 81.7051 24.4193C81.5832 24.285 81.434 24.1782 81.2677 24.106C81.1013 24.0337 80.9214 23.9976 80.74 24.0001Z" fill="white"></path><path d="M73.93 42.2799H67.39C67.8188 41.6475 68.1555 40.9572 68.39 40.2299C68.5231 39.3026 68.5866 38.3667 68.58 37.4299H72.68C72.6813 38.3426 72.7886 39.2521 73 40.1399C73.2515 40.8773 73.5626 41.593 73.93 42.2799V42.2799Z" fill="white"></path><path d="M78.3099 46C78.3099 43.2 74.9499 41 70.7499 41C66.5499 41 63.1899 43.24 63.1899 46H78.3099Z" fill="#47B5FB"></path><path d="M76.1501 33.6901C76.3401 33.4201 76.4301 33.2301 76.6201 32.9501C76.6201 32.8601 76.71 32.8601 76.71 32.7601C76.783 32.5922 76.8771 32.4342 76.99 32.2901C77.0005 32.2192 77.0318 32.1531 77.0801 32.1001C77.1601 31.9101 77.27 31.8201 77.27 31.6301C77.27 31.4401 77.35 31.5401 77.35 31.4401C77.456 31.2699 77.5243 31.0789 77.5501 30.8801C77.6163 30.7013 77.6435 30.5103 77.63 30.3201V30.1301C77.6174 30.0033 77.6493 29.8761 77.7201 29.7701V26.7101C77.734 26.5481 77.7029 26.3855 77.63 26.2401C77.5902 25.8235 77.5268 25.4095 77.4401 25.0001C77.4458 24.6467 77.3485 24.2992 77.1601 24.0001L76.89 23.7201H76.8001C76.7101 23.6301 76.61 23.6301 76.52 23.5301H76.45C76.36 23.5301 76.26 23.4401 76.17 23.4401H76.0801C75.9901 23.4401 75.8 23.3501 75.71 23.3501H65.6301C65.5032 23.3375 65.376 23.3693 65.2701 23.4401H65.18C65.09 23.4401 64.9901 23.5301 64.9001 23.5301C64.8101 23.5301 64.8101 23.5301 64.8101 23.6101C64.7612 23.6146 64.7154 23.636 64.6807 23.6707C64.646 23.7055 64.6245 23.7512 64.62 23.8001C64.6086 23.8 64.5974 23.8024 64.5869 23.807C64.5765 23.8116 64.5672 23.8184 64.5596 23.827C64.5521 23.8355 64.5464 23.8455 64.543 23.8564C64.5396 23.8673 64.5386 23.8788 64.5401 23.8901L64.26 24.1701C64.0681 24.4452 63.9699 24.7748 63.98 25.1101C63.98 25.1101 63.8901 25.5801 63.7901 26.2201C63.7956 26.3815 63.7648 26.5421 63.7001 26.6901V29.8601C63.6863 30.0189 63.7175 30.1782 63.7901 30.3201V30.5201C63.8198 30.7452 63.8838 30.9644 63.98 31.1701C64.07 31.3601 64.07 31.5401 64.17 31.8301C64.17 31.9201 64.26 31.9201 64.26 32.0201C64.3587 32.1929 64.4232 32.383 64.4501 32.5801C64.4501 32.6701 64.5401 32.6701 64.5401 32.7701C64.5401 32.8701 64.7301 33.1401 64.8101 33.3301C64.8101 33.354 64.8195 33.3769 64.8364 33.3938C64.8533 33.4106 64.8762 33.4201 64.9001 33.4201C65.0226 33.6869 65.1807 33.9358 65.37 34.1601C65.8137 34.8805 66.3118 35.5658 66.8601 36.2101C67.169 36.6046 67.503 36.9787 67.8601 37.3301C68.0501 37.5201 68.2301 37.6101 68.3301 37.8001H68.42C68.61 37.8801 68.7 38.0801 68.89 38.1601L68.9701 38.2501C69.0601 38.3401 69.25 38.4401 69.34 38.5301C69.43 38.6201 69.43 38.6201 69.53 38.6201C69.63 38.6201 69.7201 38.7001 69.8101 38.8101C69.9001 38.9201 70 38.9001 70.09 38.9001C70.18 38.9001 70.18 38.9801 70.28 38.9801C70.38 38.9801 70.56 39.0701 70.75 39.0701C70.912 39.0831 71.0744 39.052 71.2201 38.9801C71.3001 38.9801 71.3001 38.9001 71.4101 38.9001C71.5201 38.9001 71.6 38.8101 71.68 38.8101C71.76 38.8101 71.87 38.7201 71.96 38.6201C72.0309 38.6097 72.0971 38.5783 72.1501 38.5301C72.2401 38.4401 72.43 38.3401 72.52 38.2501C72.61 38.1601 72.61 38.1601 72.71 38.1601C72.8549 38.0645 72.9805 37.9423 73.0801 37.8001L73.1601 37.7101C73.3501 37.6201 73.44 37.4301 73.63 37.2401H73.7201L74.1901 36.7701C74.3724 36.6066 74.5307 36.4181 74.6601 36.2101C75.2301 35.0901 75.7901 34.3501 76.1501 33.6901Z" fill="#47B5FB"></path><path d="M34.06 53.0001H30.71V51.3301H39.38V53.0001H36V62.2401H34V53.0001H34.06Z" fill="white"></path><path d="M40.42 56.6501C40.3995 55.8573 40.525 55.0675 40.79 54.3201C40.9836 53.6758 41.2993 53.0749 41.72 52.5501C42.0999 52.078 42.582 51.6985 43.13 51.4401C43.6899 51.1959 44.2942 51.0698 44.905 51.0698C45.5159 51.0698 46.1201 51.1959 46.68 51.4401C47.2162 51.7128 47.6923 52.0902 48.08 52.5501C48.509 53.0679 48.8227 53.6714 49 54.3201C49.2288 55.0763 49.3533 55.8602 49.37 56.6501C49.399 57.414 49.2731 58.176 49 58.8901C48.8033 59.538 48.4842 60.1422 48.06 60.6701C47.6866 61.1445 47.2071 61.5246 46.66 61.7801C46.1054 62.0456 45.4946 62.1726 44.88 62.1501C44.2687 62.173 43.661 62.0459 43.11 61.7801C42.5692 61.5101 42.0894 61.1324 41.7 60.6701C40.8524 59.5089 40.397 58.1077 40.4 56.6701L40.42 56.6501ZM42 56.6501C42.0079 57.1819 42.0716 57.7115 42.19 58.2301C42.2972 58.6687 42.4873 59.0828 42.75 59.4501C42.9891 59.8035 43.3121 60.0921 43.69 60.2901C44.0365 60.4582 44.415 60.5503 44.8 60.5601C45.216 60.5681 45.6277 60.4755 46 60.2901C46.371 60.086 46.6894 59.7984 46.93 59.4501C47.2115 59.094 47.4035 58.6756 47.49 58.2301C47.6036 57.7107 47.6672 57.1816 47.68 56.6501C47.6712 56.148 47.6075 55.6483 47.49 55.1601C47.3847 54.7324 47.2197 54.3218 47 53.9401C46.7668 53.5878 46.4464 53.3019 46.07 53.1101C45.693 52.9168 45.2737 52.8206 44.85 52.8301C44.4266 52.8218 44.0076 52.918 43.63 53.1101C43.2618 53.3136 42.944 53.5973 42.7 53.9401C42.4186 54.2961 42.2265 54.7145 42.14 55.1601C42.09 55.6301 42 56.1001 42 56.6501Z" fill="white"></path><path d="M51.06 51.25H54.79C55.3849 51.2529 55.978 51.3165 56.56 51.44C57.0374 51.505 57.4893 51.6947 57.87 51.99C58.2423 52.2307 58.532 52.5797 58.7 52.99C58.912 53.468 59.0145 53.9873 59 54.51C59.0439 55.0357 58.9177 55.5615 58.64 56.01C58.3763 56.3867 58.0597 56.7235 57.7 57.01C57.2836 57.3106 56.7991 57.503 56.29 57.57C55.7361 57.6788 55.1742 57.7423 54.61 57.76H53V62.33H51V51.25H51.06ZM54.51 56.1C54.8261 56.1198 55.1434 56.0894 55.45 56.01C55.752 56.0046 56.0451 55.9069 56.29 55.73C56.4089 55.6934 56.5191 55.6328 56.6137 55.552C56.7083 55.4712 56.7853 55.3718 56.84 55.26C56.9647 55.001 57.0296 54.7174 57.03 54.43C57.0302 54.1681 56.9649 53.9102 56.84 53.68C56.7839 53.5692 56.7064 53.4706 56.612 53.39C56.5176 53.3093 56.4082 53.2481 56.29 53.21C56.0563 53.0942 55.8006 53.0295 55.54 53.02C55.26 53.02 54.98 52.93 54.6 52.93H53.11V56.11L54.51 56.1Z" fill="white"></path><path d="M64.12 51.3301H68C68.5017 51.3441 69.0008 51.4077 69.49 51.5201C69.9632 51.6059 70.411 51.7973 70.8 52.0801C71.156 52.3443 71.4696 52.6613 71.73 53.0201C71.9674 53.4813 72.094 53.9914 72.1 54.5101C72.1345 55.2354 71.8994 55.9478 71.44 56.5101C70.9335 57.0214 70.2858 57.3696 69.58 57.5101L72.47 62.3601H70.09L67.57 57.7901H66.16V62.3601H64.16V51.3601L64.12 51.3301ZM67.67 56.1001C67.953 56.1147 68.2365 56.0843 68.51 56.0101C68.768 56.0044 69.0212 55.9394 69.25 55.8201C69.4602 55.6939 69.6492 55.5352 69.81 55.3501C70 55.1601 70 54.8801 70 54.5101C69.9943 54.2521 69.9293 53.9989 69.81 53.7701C69.7045 53.5695 69.5406 53.4056 69.34 53.3001C69.1063 53.1843 68.8506 53.1195 68.59 53.1101C68.32 53.1101 68.04 53.0201 67.85 53.0201H66.07V56.1001H67.67Z" fill="white"></path><path d="M77.19 51.1399H78.78L83.16 62.2499H81.16L80.22 59.7299H75.79L74.85 62.2499H72.85L77.19 51.1399ZM79.52 58.0599L77.94 53.4899L76.36 57.9999H79.54V58.0899L79.52 58.0599Z" fill="white"></path><path d="M85.59 52.92H82.23V51.25H91V52.93H87.65V62.26H85.65V52.93H85.56L85.59 52.92Z" fill="white"></path><path d="M92.21 51.52H99.3V53.21H94.07V55.92H99.07V57.5H94.07V60.58H99.58V62.26H92.21V51.52Z" fill="white"></path><path d="M100.33 51.1401H104C104.677 51.1352 105.351 51.2296 106 51.4201C106.663 51.5798 107.275 51.903 107.78 52.3601C108.28 52.8305 108.693 53.3857 109 54.0001C109.358 54.8216 109.519 55.7153 109.47 56.6101C109.468 57.4717 109.309 58.3257 109 59.1301C108.712 59.8428 108.268 60.4818 107.7 61.0001C107.16 61.4205 106.56 61.7575 105.92 62.0001C105.271 62.1906 104.597 62.2849 103.92 62.2801H100.33V51.1401ZM103.7 60.4801C104.172 60.4667 104.641 60.403 105.1 60.2901C105.594 60.2109 106.052 59.9803 106.41 59.6301C106.813 59.3007 107.134 58.8833 107.35 58.4101C107.626 57.8305 107.749 57.1905 107.71 56.5501C107.764 55.8635 107.64 55.1746 107.35 54.5501C107.117 54.0874 106.798 53.6734 106.41 53.3301C106.02 53.0491 105.573 52.8579 105.1 52.7701C104.64 52.6669 104.171 52.6034 103.7 52.5801H102.2V60.3301H103.7V60.4801Z" fill="white"></path><path d="M23.23 109C23.0534 108.79 22.8263 108.628 22.57 108.53C22.3051 108.423 22.025 108.359 21.74 108.34C21.5789 108.319 21.4151 108.347 21.27 108.42C21.08 108.42 20.99 108.51 20.8 108.62C20.6562 108.714 20.5336 108.836 20.44 108.98C20.3573 109.122 20.3255 109.288 20.35 109.45C20.3271 109.612 20.3588 109.778 20.44 109.92C20.52 110.01 20.63 110.2 20.71 110.2C20.8526 110.315 21.0108 110.409 21.18 110.48C21.37 110.56 21.55 110.56 21.84 110.67C22.095 110.745 22.3454 110.836 22.59 110.94C22.8485 111.045 23.0992 111.169 23.34 111.31C23.5474 111.509 23.7319 111.73 23.89 111.97C24.0531 112.255 24.1198 112.584 24.08 112.91C24.1021 113.294 24.0043 113.675 23.8 114C23.6363 114.291 23.4152 114.547 23.15 114.75C22.8649 114.958 22.5472 115.117 22.21 115.22C21.8463 115.331 21.4699 115.395 21.09 115.41C20.5797 115.417 20.0731 115.321 19.6 115.13C19.1275 114.96 18.7071 114.671 18.38 114.29L19.38 113.36C19.5857 113.626 19.8403 113.85 20.13 114.02C20.4089 114.195 20.7309 114.288 21.06 114.29C21.2211 114.311 21.3849 114.283 21.53 114.21C21.7049 114.208 21.8726 114.14 22 114.02C22.09 113.93 22.28 113.83 22.37 113.65C22.4436 113.473 22.4744 113.281 22.46 113.09C22.4424 112.894 22.3771 112.705 22.27 112.54C22.18 112.45 22.08 112.26 21.9 112.17L21.34 111.89C21.0986 111.783 20.8515 111.69 20.6 111.61C20.32 111.53 20.13 111.42 19.85 111.33C19.6181 111.233 19.3969 111.113 19.19 110.97C18.9821 110.791 18.8208 110.565 18.72 110.31C18.604 110.01 18.5398 109.692 18.53 109.37C18.5254 109.017 18.6226 108.669 18.81 108.37C18.9742 108.076 19.1992 107.82 19.47 107.62C19.7532 107.409 20.0715 107.25 20.41 107.15C20.7358 107.052 21.0709 106.988 21.41 106.96C21.8227 106.975 22.2322 107.039 22.63 107.15C23.0199 107.335 23.3915 107.556 23.74 107.81L23.23 109Z" fill="white"></path><path d="M25.58 111.35C25.5643 110.774 25.6594 110.2 25.86 109.66C26.0479 109.196 26.2968 108.759 26.6 108.36C26.9415 107.996 27.3577 107.709 27.82 107.52C28.7847 107.144 29.8554 107.144 30.82 107.52C31.276 107.715 31.6876 108.001 32.03 108.36C32.3862 108.723 32.6442 109.17 32.78 109.66C32.9807 110.2 33.0758 110.774 33.06 111.35C33.0663 111.922 32.9715 112.491 32.78 113.03C32.5888 113.495 32.3365 113.932 32.03 114.33C31.7113 114.716 31.2927 115.006 30.82 115.17C29.8554 115.546 28.7847 115.546 27.82 115.17C27.3611 114.975 26.9461 114.689 26.6 114.33C26.2651 113.953 26.013 113.51 25.86 113.03C25.6601 112.493 25.5651 111.923 25.58 111.35ZM26.97 111.35C26.9778 111.727 27.0418 112.102 27.16 112.46C27.2573 112.8 27.4167 113.118 27.63 113.4C27.8118 113.662 28.0757 113.855 28.38 113.95C28.6647 114.103 28.9881 114.169 29.31 114.14C29.6328 114.139 29.9522 114.074 30.25 113.95C30.5154 113.789 30.7663 113.605 31 113.4C31.2078 113.115 31.3666 112.797 31.47 112.46C31.5761 112.099 31.6399 111.726 31.66 111.35C31.6456 110.97 31.5817 110.594 31.47 110.23C31.3699 109.892 31.2108 109.573 31 109.29C30.8151 109.031 30.5523 108.839 30.25 108.74C29.9618 108.587 29.6352 108.521 29.31 108.55C28.9905 108.551 28.6743 108.615 28.38 108.74C28.1147 108.902 27.8638 109.086 27.63 109.29C27.4193 109.573 27.2602 109.892 27.16 110.23C27.0155 110.585 26.9606 110.969 27 111.35H26.97Z" fill="white"></path><path d="M34.0601 107.52H39.0601V108.74H35.4701V110.89H38.9201V112.11H35.4701V115.37H34.0601V107.52Z" fill="white"></path><path d="M46.66 107.71H48.07L49.47 113.41L51.06 107.71H52.36L53.85 113.41L55.26 107.71H56.56L54.51 115.55H53.3L51.61 109.68L49.93 115.55H48.71L46.66 107.71Z" fill="white"></path><path d="M60.11 107.43H61.11L64.11 115.27H62.71L62.05 113.5H59.05L58.41 115.27H57L60.11 107.43ZM61.69 112.28L60.69 109.1L59.57 112.28H61.69Z" fill="white"></path><path d="M65.71 107.33H68.42C68.7559 107.313 69.0924 107.344 69.42 107.42C69.7524 107.488 70.0704 107.613 70.36 107.79C70.6246 107.956 70.8498 108.178 71.02 108.44C71.2058 108.74 71.3029 109.087 71.3 109.44C71.3007 109.949 71.1357 110.444 70.83 110.85C70.4753 111.215 70.0245 111.471 69.53 111.59L71.53 115.05H69.91L68.14 111.78H67.14V115.05H65.74L65.71 107.33ZM68.23 110.69H68.78C68.9791 110.672 69.1712 110.607 69.34 110.5C69.5065 110.429 69.6391 110.297 69.71 110.13C69.8086 109.957 69.8732 109.767 69.9 109.57C69.8823 109.374 69.8171 109.185 69.71 109.02C69.6 108.83 69.52 108.74 69.34 108.74C69.16 108.74 69.06 108.65 68.87 108.55H67.1V110.7L68.23 110.69Z" fill="white"></path><path d="M73.18 107.52H78.31V108.74H74.57V110.74H78.12V111.96H74.57V114.2H78.57V115.41H73.27V107.58H73.18V107.52Z" fill="white"></path><path d="M79.71 107.52H81.12L82.53 113.22L84.11 107.52H85.41L86.91 113.22L88.31 107.52H89.62L87.57 115.36H86.35L84.65 109.48L83 115.36H81.75L79.71 107.52Z" fill="white"></path><path d="M90 111.35C89.9842 110.774 90.0793 110.2 90.28 109.66C90.4713 109.195 90.7235 108.758 91.03 108.36C91.3487 107.974 91.7673 107.684 92.24 107.52C93.2046 107.144 94.2753 107.144 95.24 107.52C95.699 107.715 96.1139 108.001 96.46 108.36C96.8104 108.726 97.0646 109.172 97.2 109.66C97.4007 110.2 97.4957 110.774 97.48 111.35C97.4863 111.922 97.3915 112.491 97.2 113.03C97.0085 113.493 96.7599 113.929 96.46 114.33C96.1354 114.714 95.7142 115.004 95.24 115.17C94.7657 115.358 94.2599 115.453 93.75 115.45C93.2363 115.458 92.7263 115.363 92.25 115.17C91.794 114.975 91.3824 114.689 91.04 114.33C90.7014 113.954 90.4459 113.511 90.29 113.03C90.0867 112.494 89.9882 111.923 90 111.35ZM91.41 111.35C91.4126 111.728 91.4768 112.103 91.6 112.46C91.6888 112.803 91.849 113.123 92.07 113.4C92.248 113.661 92.5086 113.855 92.81 113.95C93.0982 114.103 93.4248 114.169 93.75 114.14C94.0727 114.139 94.3921 114.074 94.69 113.95C94.9536 113.786 95.2044 113.602 95.44 113.4C95.6483 113.117 95.8041 112.798 95.9 112.46C96.006 112.099 96.0698 111.726 96.09 111.35C96.0802 110.97 96.0163 110.592 95.9 110.23C95.8082 109.89 95.6521 109.571 95.44 109.29C95.2531 109.033 94.991 108.841 94.69 108.74C94.3811 108.584 94.0345 108.518 93.69 108.55C93.3673 108.552 93.0481 108.617 92.75 108.74C92.4894 108.904 92.242 109.088 92.01 109.29C91.7992 109.573 91.6401 109.892 91.54 110.23C91.4374 110.595 91.3836 110.971 91.38 111.35H91.41Z" fill="white"></path><path d="M99 107.52H101.8C102.176 107.505 102.552 107.535 102.92 107.61C103.249 107.678 103.564 107.803 103.85 107.98C104.115 108.146 104.34 108.368 104.51 108.63C104.696 108.93 104.793 109.277 104.79 109.63C104.791 110.139 104.626 110.634 104.32 111.04C103.931 111.411 103.446 111.668 102.92 111.78L105.07 115.24H103.32L101.46 112H100.46V115.27H99V107.52ZM101.63 110.88H102.29C102.486 110.862 102.675 110.797 102.84 110.69C103.007 110.619 103.139 110.487 103.21 110.32C103.313 110.149 103.378 109.958 103.4 109.76C103.382 109.564 103.317 109.375 103.21 109.21C103.12 109.12 103.02 108.93 102.84 108.93C102.66 108.93 102.56 108.84 102.29 108.74H100.45V110.89L101.65 110.88H101.63Z" fill="white"></path><path d="M106.69 107.43H108.09V114H111.45V115.22H106.77V107.47H106.69V107.43Z" fill="white"></path><path d="M113 107.43H115.8C116.302 107.444 116.801 107.508 117.29 107.62C117.801 107.738 118.282 107.963 118.7 108.28C119.103 108.624 119.442 109.037 119.7 109.5C119.976 110.079 120.099 110.719 120.06 111.36C120.091 111.971 119.967 112.58 119.7 113.13C119.473 113.613 119.129 114.032 118.7 114.35C118.289 114.679 117.806 114.906 117.29 115.01C116.809 115.161 116.304 115.226 115.8 115.2H113V107.43ZM115.61 113.95C115.982 113.963 116.354 113.936 116.72 113.87C117.072 113.806 117.398 113.643 117.66 113.4C117.976 113.187 118.234 112.898 118.41 112.56C118.613 112.158 118.709 111.71 118.69 111.26C118.707 110.775 118.611 110.292 118.41 109.85C118.239 109.511 117.98 109.224 117.66 109.02C117.383 108.818 117.06 108.691 116.72 108.65C116.355 108.575 115.982 108.545 115.61 108.56H114.5V114L115.61 113.95Z" fill="white"></path><path d="M42.75 108.74H40.42V107.52H46.48V108.74H44.16V115.27H42.75V108.74Z" fill="white"></path><path d="M26.45 80.4199C26.4563 80.2939 26.4324 80.1683 26.3802 80.0535C26.328 79.9386 26.2491 79.838 26.15 79.7599C25.8167 79.5479 25.4523 79.3893 25.07 79.2899C24.6312 79.1709 24.2106 78.9926 23.82 78.7599C23.5532 78.6227 23.3292 78.415 23.1723 78.1593C23.0153 77.9037 22.9316 77.6099 22.93 77.3099C22.9261 77.058 22.982 76.8088 23.0933 76.5827C23.2046 76.3567 23.368 76.1604 23.57 76.0099C24.0513 75.6611 24.6362 75.4849 25.23 75.5099C25.647 75.5007 26.0607 75.5862 26.44 75.7599C26.7809 75.9134 27.0719 76.1594 27.28 76.4699C27.4745 76.7673 27.5786 77.1146 27.58 77.4699H26.45C26.4582 77.3228 26.4337 77.1757 26.3784 77.0391C26.3231 76.9025 26.2382 76.7799 26.13 76.6799C25.8765 76.4676 25.5496 76.3634 25.22 76.3899C24.9162 76.3738 24.6152 76.4543 24.36 76.6199C24.2616 76.6985 24.1831 76.7993 24.1309 76.914C24.0788 77.0286 24.0545 77.154 24.06 77.2799C24.0609 77.3994 24.0915 77.5169 24.1491 77.6216C24.2067 77.7264 24.2895 77.8151 24.39 77.8799C24.7266 78.0901 25.0946 78.2454 25.48 78.3399C25.9055 78.4652 26.3149 78.6398 26.7 78.8599C26.9746 79.0209 27.2048 79.2477 27.37 79.5199C27.5142 79.7868 27.5866 80.0866 27.58 80.3899C27.5976 80.639 27.5539 80.8886 27.4528 81.117C27.3517 81.3453 27.1962 81.5455 27 81.6999C26.5083 82.0489 25.9117 82.2183 25.31 82.1799C24.863 82.1877 24.4196 82.099 24.01 81.9199C23.6428 81.7694 23.3243 81.5202 23.09 81.1999C22.8744 80.8853 22.7626 80.5112 22.77 80.1299H23.9C23.8905 80.2912 23.918 80.4525 23.9804 80.6016C24.0428 80.7507 24.1384 80.8835 24.26 80.9899C24.5655 81.2069 24.936 81.3128 25.31 81.2899C25.6252 81.3119 25.9386 81.2274 26.2 81.0499C26.2876 80.9714 26.3557 80.8736 26.3991 80.7643C26.4425 80.655 26.4599 80.5371 26.45 80.4199V80.4199Z" fill="white"></path><path d="M28.27 79.6401C28.2608 79.1973 28.3568 78.7586 28.55 78.3601C28.7241 77.9975 28.9982 77.6921 29.34 77.4801C29.6956 77.2758 30.1 77.1721 30.51 77.1801C30.8028 77.1685 31.0948 77.2186 31.367 77.3271C31.6392 77.4356 31.8855 77.6002 32.09 77.8101C32.5145 78.2585 32.7508 78.8527 32.75 79.4701V79.7301C32.7608 80.1688 32.6683 80.6038 32.48 81.0001C32.3094 81.3593 32.0385 81.6615 31.7 81.8701C31.3408 82.0743 30.9332 82.1779 30.52 82.1701C30.2135 82.1841 29.9077 82.1304 29.6242 82.0129C29.3408 81.8954 29.0867 81.7169 28.88 81.4901C28.4526 80.987 28.2343 80.3393 28.27 79.6801V79.6401ZM29.35 79.7301C29.3252 80.1433 29.4339 80.5534 29.66 80.9001C29.7568 81.0364 29.8863 81.1463 30.0365 81.2197C30.1867 81.2931 30.353 81.3276 30.52 81.3201C30.6863 81.3248 30.8511 81.2879 30.9995 81.2128C31.1479 81.1377 31.2753 81.0268 31.37 80.8901C31.6017 80.5162 31.7102 80.079 31.68 79.6401C31.697 79.2264 31.5852 78.8176 31.36 78.4701C31.2601 78.3395 31.1315 78.2336 30.9841 78.1608C30.8367 78.0879 30.6744 78.05 30.51 78.05C30.3456 78.05 30.1834 78.0879 30.0359 78.1608C29.8885 78.2336 29.7599 78.3395 29.66 78.4701C29.43 78.8484 29.3218 79.2883 29.35 79.7301V79.7301Z" fill="white"></path><path d="M34.0599 82.1001V78.1001H33.3199V77.2901H34.0599V76.8501C34.0467 76.6244 34.0787 76.3985 34.1543 76.1855C34.2299 75.9725 34.3474 75.7768 34.4999 75.6101C34.6692 75.4582 34.8667 75.3411 35.0811 75.2656C35.2956 75.1901 35.5229 75.1577 35.7499 75.1701C35.9557 75.1733 36.1603 75.2002 36.3599 75.2501V76.1001C36.2235 76.0882 36.0864 76.0882 35.9499 76.1001C35.8425 76.0864 35.7334 76.0979 35.6311 76.1336C35.5289 76.1694 35.4363 76.2283 35.3607 76.3058C35.2851 76.3834 35.2286 76.4774 35.1955 76.5805C35.1623 76.6836 35.1536 76.793 35.1699 76.9001V77.3201H36.1699V78.1301H35.1699V82.1301L34.0599 82.1001Z" fill="white"></path><path d="M38.28 76.0901V77.2601H39.13V78.0701H38.28V80.7701C38.2647 80.9094 38.3041 81.0493 38.39 81.1601C38.4409 81.2099 38.5025 81.2475 38.5701 81.27C38.6376 81.2925 38.7094 81.2994 38.78 81.2901C38.9082 81.2876 39.0356 81.2708 39.16 81.2401V82.0801C38.9257 82.1462 38.6835 82.1799 38.44 82.1801C37.61 82.1801 37.19 81.7301 37.19 80.8101V78.0701H36.4V77.2601H37.19V76.0901H38.28Z" fill="white"></path><path d="M44.2 80.6L45 77.26H46L44.71 82.1H43.82L42.82 78.78L41.82 82.1H40.93L39.61 77.26H40.67L41.45 80.56L42.45 77.26H43.27L44.2 80.6Z" fill="white"></path><path d="M49.64 82.1C49.5773 81.9528 49.5336 81.7983 49.51 81.64C49.1903 81.9612 48.7627 82.1524 48.31 82.1764C47.8574 82.2004 47.412 82.0556 47.06 81.77C46.9164 81.6458 46.8011 81.4923 46.7217 81.3198C46.6424 81.1474 46.6009 80.9599 46.6 80.77C46.588 80.5412 46.6339 80.3131 46.7335 80.1068C46.8332 79.9005 46.9833 79.7228 47.17 79.59C47.6587 79.2804 48.2327 79.1334 48.81 79.17H49.48V78.86C49.4913 78.6402 49.4159 78.4248 49.27 78.26C49.1856 78.1787 49.085 78.1161 48.9747 78.0765C48.8644 78.0368 48.7469 78.021 48.63 78.03C48.4106 78.0193 48.1946 78.0866 48.02 78.22C47.9476 78.2749 47.889 78.346 47.849 78.4276C47.8091 78.5092 47.7889 78.5991 47.79 78.69H46.7C46.7027 78.4167 46.7979 78.1523 46.97 77.94C47.1544 77.7 47.3995 77.5136 47.68 77.4C47.9971 77.2696 48.3373 77.2049 48.68 77.21C49.1688 77.1849 49.6506 77.3337 50.04 77.63C50.2066 77.7814 50.3384 77.967 50.4264 78.1742C50.5145 78.3813 50.5566 78.605 50.55 78.83V81C50.5399 81.3432 50.6047 81.6845 50.74 82V82.08L49.64 82.1ZM48.45 81.31C48.6593 81.3102 48.8654 81.2587 49.05 81.16C49.2278 81.0602 49.3761 80.9154 49.48 80.74V79.83H48.89C48.5831 79.798 48.2735 79.8571 48 80C47.9007 80.062 47.8196 80.1493 47.7651 80.253C47.7106 80.3567 47.6847 80.473 47.69 80.59C47.6856 80.6837 47.7021 80.7773 47.7385 80.8638C47.7748 80.9503 47.83 81.0276 47.9 81.09C48.0506 81.2277 48.2461 81.3059 48.45 81.31V81.31Z" fill="white"></path><path d="M54.2299 78.2599C54.0837 78.2446 53.9362 78.2446 53.79 78.2599C53.5849 78.2403 53.3787 78.2846 53.1997 78.3866C53.0207 78.4886 52.8776 78.6434 52.79 78.8299V82.0999H51.7V77.2599H52.7V77.8099C52.8063 77.615 52.9643 77.4531 53.1566 77.342C53.3488 77.2308 53.5679 77.1748 53.79 77.1799C53.9193 77.1751 54.0484 77.1955 54.1699 77.2399L54.2299 78.2599Z" fill="white"></path><path d="M57.0001 82.1799C56.6903 82.1937 56.381 82.1431 56.0918 82.0312C55.8026 81.9193 55.5398 81.7486 55.3201 81.5299C55.1039 81.3005 54.9359 81.0301 54.826 80.7347C54.7161 80.4392 54.6665 80.1248 54.6801 79.8099V79.6699C54.6765 79.2244 54.7721 78.7838 54.96 78.3799C55.1339 78.0145 55.4079 77.7059 55.7501 77.4899C56.0857 77.2807 56.4746 77.173 56.87 77.1799C57.156 77.1635 57.442 77.2116 57.7068 77.3206C57.9717 77.4297 58.2086 77.5969 58.4001 77.8099C58.7873 78.319 58.9757 78.9519 58.9301 79.5899V79.9999H55.7401C55.7358 80.373 55.8796 80.7326 56.14 80.9999C56.2557 81.1144 56.3932 81.2044 56.5444 81.2646C56.6956 81.3247 56.8574 81.3537 57.0201 81.3499C57.2551 81.3547 57.4879 81.3027 57.6986 81.1982C57.9093 81.0938 58.0916 80.94 58.2301 80.7499L58.8201 81.2999C58.6196 81.6071 58.3349 81.8502 58.0001 81.9999C57.6836 82.1312 57.3425 82.1926 57.0001 82.1799ZM56.87 78.0499C56.7344 78.0439 56.5992 78.0687 56.4745 78.1224C56.3498 78.1761 56.2389 78.2573 56.1501 78.3599C55.9475 78.6075 55.8254 78.911 55.8 79.2299H57.8601V79.1499C57.8603 78.8484 57.758 78.5557 57.5701 78.3199C57.4748 78.2223 57.3589 78.1474 57.2308 78.1007C57.1027 78.054 56.9657 78.0366 56.8301 78.0499H56.87Z" fill="white"></path><path d="M62.12 82.1V75.59H64C64.5357 75.5811 65.064 75.7157 65.53 75.98C65.9604 76.2406 66.3073 76.6188 66.53 77.07C66.8148 77.5607 66.9761 78.1132 67 78.68V79C67.0089 79.5651 66.882 80.1241 66.63 80.63C66.3882 81.0814 66.0244 81.4556 65.58 81.71C65.0954 81.9732 64.5514 82.1075 64 82.1H62.12ZM63.25 76.51V81.19H64C64.255 81.2072 64.5106 81.1667 64.7478 81.0715C64.985 80.9763 65.1977 80.8288 65.37 80.64C65.7189 80.1826 65.8895 79.6139 65.85 79.04V78.68C65.8903 78.1029 65.7276 77.5298 65.39 77.06C65.2195 76.8635 65.0042 76.7108 64.7622 76.6151C64.5203 76.5194 64.2588 76.4833 64 76.51H63.25Z" fill="white"></path><path d="M70.1099 82.1799C69.8018 82.193 69.4942 82.1419 69.2068 82.0301C68.9193 81.9182 68.6582 81.7479 68.4399 81.5299C68.2219 81.3018 68.0527 81.0316 67.9426 80.7359C67.8326 80.4402 67.784 80.1251 67.7999 79.8099V79.6699C67.7907 79.2239 67.8866 78.782 68.0799 78.3799C68.2533 78.0173 68.5232 77.7094 68.8599 77.4899C69.2027 77.2802 69.5982 77.1726 69.9999 77.1799C70.2846 77.1621 70.5695 77.2096 70.833 77.3188C71.0964 77.428 71.3314 77.596 71.5199 77.8099C71.9108 78.3177 72.1028 78.9506 72.0599 79.5899V79.9999H68.8899C68.8958 80.3711 69.0382 80.7271 69.2899 80.9999C69.4074 81.1147 69.5467 81.2049 69.6995 81.265C69.8524 81.3251 70.0157 81.354 70.1799 81.3499C70.4149 81.3539 70.6474 81.3015 70.8579 81.1971C71.0685 81.0927 71.2509 80.9394 71.3899 80.7499L71.9799 81.2999C71.7824 81.5896 71.5138 81.8237 71.1999 81.9799C70.8573 82.1311 70.4839 82.1996 70.1099 82.1799V82.1799ZM69.9999 78.0499C69.8645 78.0454 69.7297 78.0708 69.6053 78.1244C69.4808 78.178 69.3697 78.2584 69.2799 78.3599C69.0816 78.61 68.96 78.9122 68.9299 79.2299H70.9999V79.1499C71.0002 78.8484 70.8979 78.5557 70.7099 78.3199C70.6176 78.227 70.5066 78.1548 70.3841 78.1082C70.2617 78.0617 70.1307 78.0418 69.9999 78.0499Z" fill="white"></path><path d="M74.54 80.72L75.54 77.26H76.66L75 82.1H74.06L72.37 77.26H73.5L74.54 80.72Z" fill="white"></path><path d="M79.43 82.1799C79.1216 82.1948 78.8136 82.1446 78.5258 82.0326C78.2381 81.9207 77.9772 81.7494 77.76 81.5299C77.5402 81.3026 77.3691 81.0328 77.2573 80.737C77.1456 80.4413 77.0954 80.1258 77.11 79.8099V79.6699C77.1064 79.2244 77.2021 78.7838 77.39 78.3799C77.5639 78.0145 77.8378 77.7059 78.18 77.4899C78.5156 77.2807 78.9046 77.173 79.3 77.1799C79.586 77.1635 79.8719 77.2116 80.1368 77.3206C80.4016 77.4297 80.6385 77.5969 80.83 77.8099C81.2208 78.3176 81.4129 78.9506 81.37 79.5899V79.9999H78.21C78.2058 80.373 78.3496 80.7326 78.61 80.9999C78.7256 81.1144 78.8631 81.2044 79.0143 81.2646C79.1656 81.3247 79.3273 81.3537 79.49 81.3499C79.7251 81.3547 79.9579 81.3027 80.1686 81.1982C80.3792 81.0938 80.5615 80.94 80.7 80.7499L81.29 81.2999C81.0975 81.594 80.8276 81.8293 80.51 81.9799C80.1705 82.1299 79.8007 82.1984 79.43 82.1799ZM79.3 78.0499C79.1644 78.0439 79.0292 78.0687 78.9045 78.1224C78.7798 78.1761 78.6689 78.2573 78.58 78.3599C78.3774 78.6075 78.2553 78.911 78.23 79.2299H80.29V79.1499C80.2902 78.8484 80.188 78.5557 80 78.3199C79.9092 78.2277 79.7998 78.156 79.6791 78.1094C79.5584 78.0628 79.4292 78.0426 79.3 78.0499V78.0499Z" fill="white"></path><path d="M83.36 82.1H82.28V75.24H83.36V82.1Z" fill="white"></path><path d="M84.34 79.64C84.3308 79.1972 84.4268 78.7585 84.62 78.36C84.7941 77.9974 85.0682 77.692 85.41 77.48C85.7656 77.2757 86.17 77.172 86.58 77.18C86.8743 77.1688 87.1676 77.2191 87.4414 77.3275C87.7151 77.436 87.9633 77.6003 88.17 77.81C88.587 78.2632 88.822 78.8543 88.83 79.47V79.73C88.8377 80.1694 88.7417 80.6045 88.55 81C88.3794 81.3592 88.1085 81.6614 87.77 81.87C87.4112 82.0751 87.0033 82.1788 86.59 82.17C86.2926 82.1779 85.9969 82.1223 85.7227 82.0067C85.4485 81.8912 85.2021 81.7184 85 81.5C84.5726 80.9969 84.3543 80.3491 84.39 79.69L84.34 79.64ZM85.42 79.73C85.4 80.1427 85.5083 80.5514 85.73 80.9C85.8268 81.0363 85.9563 81.1462 86.1065 81.2196C86.2568 81.2929 86.423 81.3275 86.59 81.32C86.7563 81.3247 86.9211 81.2878 87.0695 81.2127C87.2179 81.1376 87.3453 81.0267 87.44 80.89C87.6717 80.5161 87.7802 80.0788 87.75 79.64C87.767 79.2263 87.6552 78.8175 87.43 78.47C87.3342 78.3351 87.2063 78.2262 87.058 78.1529C86.9096 78.0796 86.7454 78.0442 86.58 78.05C86.4163 78.0459 86.2541 78.082 86.1077 78.1553C85.9612 78.2285 85.8349 78.3366 85.74 78.47C85.5021 78.8453 85.39 79.2867 85.42 79.73V79.73Z" fill="white"></path><path d="M94 79.73C94.0328 80.3667 93.8534 80.9962 93.49 81.52C93.3313 81.7318 93.124 81.9024 92.8856 82.0173C92.6471 82.1321 92.3846 82.1879 92.12 82.18C91.8832 82.1909 91.647 82.15 91.4276 82.0602C91.2083 81.9704 91.0112 81.8338 90.85 81.66V84H89.75V77.26H90.75V77.76C90.9062 77.5684 91.1052 77.4161 91.331 77.3153C91.5568 77.2146 91.803 77.1682 92.05 77.18C92.3167 77.1702 92.5818 77.224 92.8235 77.337C93.0653 77.4501 93.2766 77.6191 93.44 77.83C93.8002 78.3699 93.9757 79.012 93.94 79.66L94 79.73ZM92.92 79.64C92.9418 79.2362 92.8407 78.8352 92.63 78.49C92.5428 78.353 92.4212 78.2412 92.2773 78.1657C92.1334 78.0903 91.9723 78.0538 91.81 78.06C91.6071 78.0387 91.4026 78.08 91.2238 78.1784C91.0451 78.2767 90.9007 78.4273 90.81 78.61V80.76C90.8992 80.9446 91.0429 81.0973 91.2218 81.1975C91.4007 81.2977 91.606 81.3404 91.81 81.32C91.9699 81.3265 92.1287 81.2912 92.2707 81.2175C92.4128 81.1439 92.5332 81.0344 92.62 80.9C92.839 80.5181 92.9366 80.0787 92.9 79.64H92.92Z" fill="white"></path><path d="M95.92 77.2599V77.7699C96.0916 77.5723 96.3059 77.4165 96.5468 77.3142C96.7877 77.212 97.0487 77.1661 97.31 77.1799C97.5808 77.1524 97.8535 77.2086 98.0913 77.3409C98.3292 77.4732 98.5207 77.6753 98.64 77.9199C98.8026 77.68 99.0241 77.486 99.2833 77.3564C99.5424 77.2268 99.8306 77.166 100.12 77.1799C100.339 77.1612 100.558 77.1909 100.764 77.2669C100.97 77.343 101.156 77.4635 101.31 77.6199C101.591 77.9932 101.733 78.4532 101.71 78.9199V82.0999H100.65V78.9999C100.673 78.7591 100.601 78.5187 100.45 78.3299C100.361 78.2498 100.257 78.1889 100.143 78.1511C100.029 78.1132 99.9092 78.0992 99.79 78.1099C99.5694 78.1021 99.3532 78.173 99.18 78.3099C99.0244 78.4497 98.9102 78.6296 98.85 78.8299V82.0999H97.77V78.9199C97.785 78.8026 97.7727 78.6833 97.7341 78.5715C97.6955 78.4596 97.6317 78.3581 97.5475 78.275C97.4634 78.1918 97.3612 78.1291 97.2489 78.0918C97.1366 78.0545 97.0172 78.0436 96.9 78.0599C96.7113 78.0539 96.5248 78.1014 96.362 78.197C96.1992 78.2926 96.0668 78.4323 95.98 78.5999V82.0999H94.89V77.2599H95.92Z" fill="white"></path><path d="M105 82.1799C104.692 82.1948 104.384 82.1446 104.096 82.0326C103.808 81.9207 103.547 81.7494 103.33 81.5299C103.112 81.3018 102.943 81.0316 102.833 80.7359C102.723 80.4401 102.674 80.125 102.69 79.8099V79.6699C102.683 79.2252 102.776 78.7846 102.96 78.3799C103.134 78.0145 103.408 77.7059 103.75 77.4899C104.086 77.2807 104.475 77.173 104.87 77.1799C105.156 77.1635 105.442 77.2116 105.707 77.3206C105.972 77.4297 106.209 77.5969 106.4 77.8099C106.791 78.3176 106.983 78.9506 106.94 79.5899V79.9999H103.76C103.756 80.373 103.9 80.7326 104.16 80.9999C104.276 81.1144 104.413 81.2044 104.564 81.2646C104.716 81.3247 104.877 81.3537 105.04 81.3499C105.276 81.3538 105.51 81.3015 105.722 81.1972C105.935 81.0928 106.119 80.9395 106.26 80.7499L106.84 81.2999C106.647 81.5897 106.382 81.8241 106.07 81.9799C105.733 82.126 105.367 82.1943 105 82.1799V82.1799ZM104.87 78.0499C104.734 78.0439 104.599 78.0687 104.474 78.1224C104.35 78.1761 104.239 78.2573 104.15 78.3599C103.947 78.6075 103.825 78.911 103.8 79.2299H105.86V79.1499C105.86 78.8484 105.758 78.5557 105.57 78.3199C105.477 78.2251 105.364 78.1518 105.24 78.1051C105.116 78.0585 104.982 78.0396 104.85 78.0499H104.87Z" fill="white"></path><path d="M108.76 77.26V77.82C108.927 77.6113 109.141 77.4447 109.384 77.3335C109.627 77.2224 109.893 77.1698 110.16 77.18C111.16 77.18 111.68 77.75 111.7 78.9V82.1H110.61V79C110.634 78.7544 110.566 78.5086 110.42 78.3099C110.33 78.2308 110.226 78.1706 110.112 78.1328C109.999 78.095 109.879 78.0804 109.76 78.0899C109.551 78.0728 109.343 78.1215 109.163 78.2291C108.984 78.3367 108.843 78.4979 108.76 78.69V82.1H107.67V77.26H108.76Z" fill="white"></path><path d="M114.2 76.0901V77.2601H115.06V78.0701H114.2V80.7701C114.189 80.909 114.228 81.0472 114.31 81.1601C114.361 81.2099 114.422 81.2475 114.49 81.27C114.558 81.2925 114.629 81.2994 114.7 81.2901C114.828 81.2882 114.956 81.2715 115.08 81.2401V82.0801C114.849 82.147 114.61 82.1806 114.37 82.1801C113.53 82.1801 113.12 81.7301 113.12 80.8101V78.0701H112.32V77.2601H113.12V76.0901H114.2Z" fill="white"></path><path d="M52.4901 89.7699C52.4524 90.3892 52.1765 90.9698 51.7201 91.3899C51.2189 91.7967 50.5847 92.0034 49.9401 91.97C49.4572 91.9821 48.9812 91.8536 48.5701 91.5999C48.1735 91.3622 47.854 91.0149 47.6501 90.5999C47.4283 90.0959 47.3159 89.5506 47.3201 89V88.3899C47.3092 87.8322 47.4219 87.279 47.6501 86.7699C47.8462 86.3257 48.1699 85.9498 48.5801 85.69C49.0062 85.4254 49.4985 85.2867 50.0001 85.29C50.6305 85.2612 51.2485 85.472 51.7301 85.8799C52.1909 86.3094 52.4669 86.9009 52.5001 87.5299H51.3601C51.3427 87.1593 51.1979 86.8061 50.9501 86.5299C50.6704 86.2993 50.3112 86.1879 49.9501 86.22C49.7316 86.2084 49.5137 86.2518 49.3163 86.3462C49.119 86.4405 48.9483 86.5827 48.8201 86.76C48.5224 87.2312 48.3791 87.7835 48.4101 88.3399V88.9199C48.3766 89.4822 48.5087 90.042 48.7901 90.5299C48.9113 90.7102 49.0775 90.8557 49.2721 90.9521C49.4668 91.0486 49.6832 91.0926 49.9001 91.08C50.2588 91.1047 50.6142 90.9981 50.9001 90.7799C51.1544 90.5071 51.3033 90.1526 51.3201 89.7799L52.4901 89.7699Z" fill="white"></path><path d="M53.19 89.42C53.1819 88.9773 53.2778 88.5389 53.47 88.14C53.6402 87.7775 53.9155 87.4744 54.26 87.27C54.617 87.0723 55.0224 86.9787 55.43 87C55.7228 86.9884 56.0148 87.0385 56.287 87.147C56.5592 87.2556 56.8055 87.4201 57.01 87.63C57.4334 88.0831 57.6693 88.6799 57.67 89.3V89.56C57.6791 89.9996 57.5831 90.4351 57.39 90.83C57.2224 91.1912 56.9508 91.4941 56.61 91.7C56.2535 91.912 55.8446 92.0195 55.43 92.01C55.1237 92.022 54.8185 91.9674 54.5354 91.85C54.2522 91.7326 53.9979 91.5552 53.79 91.33C53.3635 90.8265 53.1453 90.1791 53.18 89.52L53.19 89.42ZM54.27 89.52C54.2452 89.93 54.354 90.337 54.58 90.68C54.6797 90.8126 54.8088 90.9201 54.9572 90.9941C55.1056 91.0682 55.2691 91.1067 55.435 91.1067C55.6008 91.1067 55.7644 91.0682 55.9127 90.9941C56.0611 90.9201 56.1903 90.8126 56.29 90.68C56.5218 90.3025 56.6302 89.8621 56.6 89.42C56.6204 89.0091 56.5082 88.6024 56.28 88.26C56.1813 88.1276 56.0531 88.0201 55.9055 87.946C55.7579 87.8719 55.5951 87.8334 55.43 87.8334C55.2648 87.8334 55.102 87.8719 54.9544 87.946C54.8069 88.0201 54.6786 88.1276 54.58 88.26C54.3535 88.6398 54.2455 89.0785 54.27 89.52Z" fill="white"></path><path d="M59.62 87.05V87.56C59.7933 87.3692 60.0073 87.2198 60.2462 87.1229C60.4851 87.026 60.7427 86.984 61 87C61.2704 86.9753 61.5419 87.0327 61.7792 87.1647C62.0165 87.2967 62.2084 87.4972 62.33 87.74C62.4975 87.4955 62.7257 87.2987 62.9921 87.169C63.2586 87.0393 63.5542 86.981 63.85 87C64.0588 86.9844 64.2687 87.0119 64.4665 87.0807C64.6643 87.1495 64.8459 87.2582 65 87.4C65.2833 87.776 65.425 88.2399 65.4 88.71V91.88H64.35V88.74C64.3624 88.6206 64.3512 88.5 64.3169 88.385C64.2826 88.27 64.2258 88.163 64.15 88.07C64.0624 87.9877 63.9581 87.9255 63.8441 87.8875C63.7302 87.8495 63.6093 87.8367 63.49 87.85C63.2693 87.8421 63.0531 87.913 62.88 88.05C62.7223 88.188 62.6077 88.3685 62.55 88.57V91.88H61.47V88.7C61.4833 88.5834 61.4697 88.4653 61.4304 88.3547C61.391 88.2442 61.327 88.144 61.243 88.062C61.1591 87.98 61.0575 87.9183 60.9461 87.8815C60.8346 87.8448 60.7162 87.834 60.6 87.85C60.4123 87.843 60.2265 87.8891 60.0638 87.9828C59.9011 88.0765 59.7681 88.2142 59.68 88.38V91.88H58.59V87.05H59.62Z" fill="white"></path><path d="M70.78 89.52C70.8129 90.1535 70.6334 90.7799 70.2701 91.3C70.1158 91.5148 69.911 91.6882 69.6738 91.8051C69.4367 91.9219 69.1743 91.9786 68.91 91.97C68.6718 91.981 68.434 91.9402 68.213 91.8504C67.992 91.7606 67.7931 91.624 67.6301 91.45V93.74H66.55V87.05H67.55V87.54C67.7078 87.3501 67.9071 87.1991 68.1325 87.0985C68.3579 86.9979 68.6034 86.9505 68.85 86.96C69.1178 86.9496 69.3841 87.0043 69.6261 87.1192C69.8682 87.2341 70.0788 87.406 70.2401 87.62C70.6003 88.1598 70.7757 88.802 70.7401 89.45L70.78 89.52ZM69.7001 89.42C69.7198 89.0195 69.6188 88.6223 69.41 88.28C69.3244 88.1415 69.2031 88.0285 69.0588 87.9529C68.9146 87.8773 68.7527 87.8417 68.59 87.85C68.3872 87.8287 68.1826 87.87 68.0039 87.9683C67.8251 88.0666 67.6807 88.2172 67.59 88.4V90.54C67.6777 90.7264 67.8208 90.8813 67.9998 90.9833C68.1788 91.0853 68.385 91.1296 68.59 91.11C68.7487 91.1092 68.9049 91.0708 69.0457 90.9977C69.1866 90.9247 69.308 90.8192 69.4001 90.69C69.6222 90.3051 69.7265 89.8635 69.7001 89.42V89.42Z" fill="white"></path><path d="M74.59 91.8799C74.5256 91.7368 74.4818 91.5853 74.46 91.4299C74.2978 91.6037 74.101 91.7416 73.8822 91.8346C73.6635 91.9276 73.4276 91.9737 73.19 91.9699C72.7563 91.9846 72.3325 91.8386 72 91.5599C71.8578 91.4345 71.7435 91.2808 71.6643 91.1086C71.5851 90.9364 71.5427 90.7495 71.54 90.5599C71.5301 90.329 71.5779 90.0992 71.6792 89.8915C71.7805 89.6837 71.932 89.5044 72.12 89.37C72.6118 89.0688 73.1842 88.9257 73.76 88.9599H74.42V88.6399C74.4313 88.4202 74.3559 88.2047 74.21 88.0399C74.1262 87.9612 74.0269 87.9009 73.9184 87.863C73.8098 87.8251 73.6945 87.8104 73.58 87.8199C73.3727 87.8184 73.17 87.8813 73 87.9999C72.9243 88.0547 72.8629 88.1269 72.8211 88.2105C72.7793 88.2941 72.7584 88.3865 72.76 88.48H71.65C71.6474 88.2074 71.7393 87.9424 71.91 87.73C72.1004 87.4919 72.3481 87.3061 72.63 87.19C72.9463 87.0561 73.2865 86.988 73.63 86.9899C74.1174 86.9637 74.5975 87.1167 74.98 87.4199C75.1516 87.5677 75.2876 87.7525 75.3776 87.9603C75.4677 88.1681 75.5095 88.3936 75.5 88.62V90.8C75.4914 91.142 75.5527 91.4823 75.68 91.8V91.87L74.59 91.8799ZM73.39 91.0999C73.5984 91.1169 73.8079 91.0826 74 90.9999C74.1771 90.9028 74.3229 90.7571 74.42 90.58V89.66H73.84C73.5226 89.6397 73.2063 89.7127 72.93 89.87C72.8331 89.9362 72.7546 90.026 72.7021 90.131C72.6497 90.236 72.6248 90.3527 72.63 90.4699C72.6262 90.5636 72.6431 90.6569 72.6794 90.7433C72.7157 90.8297 72.7705 90.9071 72.84 90.9699C73.0017 91.0779 73.197 91.1241 73.39 91.0999V91.0999Z" fill="white"></path><path d="M77.65 87.05V87.61C77.8268 87.4042 78.0487 87.2421 78.2985 87.1362C78.5483 87.0304 78.8192 86.9838 79.09 87C80.09 87 80.61 87.58 80.63 88.73V91.92H79.54V88.75C79.5586 88.5065 79.4875 88.2646 79.34 88.07C79.254 87.9885 79.1513 87.9267 79.0391 87.8887C78.9269 87.8507 78.8078 87.8375 78.69 87.85C78.4815 87.8328 78.2729 87.8815 78.0935 87.9891C77.9141 88.0967 77.773 88.2579 77.69 88.45V91.88H76.63V87.05H77.65Z" fill="white"></path><path d="M81.73 85.7999C81.7251 85.7199 81.7378 85.6398 81.7672 85.5651C81.7966 85.4905 81.8419 85.4232 81.9 85.368C81.9581 85.3127 82.0276 85.2708 82.1036 85.2453C82.1796 85.2197 82.2603 85.2111 82.34 85.2199C82.4236 85.2136 82.5075 85.2245 82.5867 85.252C82.6658 85.2796 82.7384 85.3231 82.8 85.3799C82.8538 85.4355 82.8957 85.5013 82.9232 85.5735C82.9507 85.6457 82.9632 85.7228 82.96 85.7999C82.9624 85.8756 82.9495 85.9509 82.922 86.0213C82.8945 86.0918 82.853 86.156 82.8 86.2099C82.6727 86.32 82.5081 86.3772 82.34 86.3699C82.1751 86.3757 82.0143 86.3185 81.89 86.2099C81.7867 86.0985 81.7295 85.9519 81.73 85.7999V85.7999ZM82.88 91.8799H81.8V87.0499H82.88V91.8799Z" fill="white"></path><path d="M86.19 92C85.8818 92.013 85.5743 91.962 85.2868 91.8501C84.9994 91.7382 84.7382 91.5679 84.52 91.35C84.3016 91.12 84.1323 90.8481 84.0223 90.5507C83.9123 90.2533 83.8639 89.9366 83.88 89.62V89.49C83.8707 89.0439 83.9666 88.602 84.16 88.2C84.3334 87.8373 84.6032 87.5294 84.94 87.31C85.2796 87.1015 85.6715 86.994 86.07 87C86.3545 86.9829 86.6392 87.0307 86.9026 87.1399C87.1659 87.249 87.401 87.4166 87.59 87.63C87.9775 88.1394 88.1692 88.7711 88.13 89.41V89.85H85C85.0059 90.2211 85.1483 90.5771 85.4 90.85C85.5174 90.9648 85.6567 91.0549 85.8096 91.115C85.9624 91.1751 86.1258 91.204 86.29 91.2C86.5261 91.2045 86.7597 91.1513 86.9706 91.045C87.1815 90.9387 87.3632 90.7825 87.5 90.59L88.08 91.15C87.8881 91.4384 87.6221 91.6698 87.31 91.82C86.9562 91.9679 86.5723 92.0295 86.19 92V92ZM86.06 87.86C85.9239 87.8574 85.7888 87.8847 85.6644 87.94C85.54 87.9952 85.4292 88.0772 85.34 88.18C85.1506 88.4152 85.0326 88.6998 85 89H87.07V88.92C87.0718 88.6182 86.9694 88.325 86.78 88.09C86.6849 87.9985 86.5717 87.9281 86.4476 87.8834C86.3236 87.8386 86.1915 87.8204 86.06 87.83V87.86Z" fill="white"></path><path d="M91.68 90.57C91.6833 90.4819 91.6628 90.3944 91.6205 90.317C91.5783 90.2396 91.5159 90.175 91.44 90.13C91.1929 89.9982 90.9261 89.907 90.65 89.86C90.3339 89.7961 90.0256 89.6989 89.73 89.57C89.4949 89.484 89.291 89.3293 89.1448 89.126C88.9986 88.9228 88.9168 88.6803 88.91 88.43C88.9096 88.2257 88.9574 88.0241 89.0495 87.8416C89.1415 87.6592 89.2753 87.5011 89.44 87.38C89.8297 87.1031 90.3029 86.9689 90.78 87C91.282 86.9801 91.7758 87.1317 92.18 87.43C92.3482 87.5614 92.4835 87.7301 92.5755 87.9227C92.6675 88.1153 92.7135 88.3266 92.71 88.54H91.63C91.6316 88.4409 91.6109 88.3426 91.5693 88.2526C91.5278 88.1626 91.4665 88.0831 91.39 88.02C91.2206 87.8762 91.0017 87.8044 90.78 87.82C90.5748 87.8125 90.3723 87.8684 90.2 87.98C90.1286 88.029 90.0704 88.0947 90.0303 88.1714C89.9902 88.2481 89.9695 88.3335 89.97 88.42C89.9674 88.4978 89.9855 88.5748 90.0223 88.6434C90.0592 88.7119 90.1136 88.7694 90.18 88.81C90.4465 88.9483 90.7335 89.0428 91.03 89.09C91.3756 89.1587 91.7114 89.2695 92.03 89.42C92.2457 89.5301 92.4312 89.6915 92.57 89.89C92.695 90.0869 92.7577 90.3169 92.75 90.55C92.7542 90.7575 92.7072 90.9628 92.613 91.1478C92.5188 91.3327 92.3803 91.4915 92.21 91.61C91.7934 91.8956 91.2944 92.0362 90.79 92.01C90.4258 92.0159 90.0645 91.9443 89.73 91.8C89.4417 91.6711 89.1931 91.4674 89.01 91.21C88.8426 90.9729 88.7519 90.6902 88.75 90.4H89.81C89.8096 90.5141 89.8356 90.6266 89.8859 90.729C89.9362 90.8313 90.0095 90.9207 90.1 90.99C90.3064 91.1104 90.5411 91.1738 90.78 91.1738C91.0189 91.1738 91.2536 91.1104 91.46 90.99C91.5286 90.9437 91.5846 90.881 91.6229 90.8077C91.6613 90.7344 91.6809 90.6528 91.68 90.57V90.57Z" fill="white"></path></svg>