<svg xmlns="http://www.w3.org/2000/svg" width="140" height="140" viewBox="0 0 140 140" fill="none"><path d="M139.195 75.7246C139.132 75.7246 139.047 75.767 139.026 75.8306C138.962 76.0002 138.899 76.1275 138.814 76.1911C138.814 76.1911 138.793 76.2123 138.771 76.2123C138.644 76.2971 138.496 76.3395 138.348 76.3395H2.30142C2.15316 76.3395 2.00489 76.2971 1.8778 76.2123C1.85662 76.2123 1.85662 76.1911 1.83544 76.1911C1.75071 76.1275 1.68717 76.0002 1.62363 75.8306C1.60245 75.767 1.5389 75.7246 1.45418 75.7246C1.34827 75.7246 1.28473 75.8094 1.28473 75.8942V78.9263C1.28473 79.0323 1.36945 79.0959 1.45418 79.0959C1.5389 79.0959 1.60245 79.0535 1.62363 78.9899C1.68717 78.8202 1.75071 78.693 1.83544 78.6294C1.85662 78.6082 1.8778 78.587 1.92016 78.587C2.04725 78.5234 2.17434 78.481 2.30142 78.481H29.2438C29.6674 78.481 30.0275 78.8414 30.0275 79.2655V94.4044C30.0275 94.68 30.1758 94.9345 30.4088 95.0829L69.9328 118.003C70.1658 118.152 70.4835 118.152 70.7165 118.003L110.24 95.0617C110.473 94.9133 110.622 94.6588 110.622 94.3832V79.2443C110.622 78.8202 110.982 78.4598 111.405 78.4598H138.348C138.475 78.4598 138.623 78.5022 138.729 78.5658C138.75 78.587 138.793 78.6082 138.814 78.6082C138.899 78.6718 138.962 78.799 139.026 78.9687C139.047 79.0323 139.11 79.0747 139.195 79.0747C139.301 79.0747 139.365 78.9899 139.365 78.9051V75.9154C139.365 75.8094 139.301 75.7246 139.195 75.7246Z" fill="#122C50"></path><path d="M139.195 44.832C139.132 44.832 139.047 44.8744 139.026 44.938C138.962 45.1077 138.899 45.2349 138.814 45.2985C138.75 45.3621 138.623 45.4045 138.56 45.4469C138.538 45.4469 138.517 45.4681 138.496 45.4681H110.812C110.706 45.4681 110.643 45.3833 110.643 45.2985V21.954C110.643 21.848 110.558 21.7844 110.473 21.7844H30.2393C30.1334 21.7844 30.0699 21.8692 30.0699 21.954V45.2985C30.0699 45.4045 29.9852 45.4681 29.9004 45.4681H2.15316C2.13197 45.4681 2.11079 45.4681 2.08961 45.4469C2.02607 45.4257 1.89898 45.3621 1.83544 45.2985C1.75071 45.2349 1.68717 45.1077 1.62363 44.938C1.60245 44.8744 1.5389 44.832 1.45418 44.832C1.34827 44.832 1.28473 44.9168 1.28473 45.0016V48.0337C1.28473 48.1397 1.36945 48.2033 1.45418 48.2033C1.5389 48.2033 1.60245 48.1609 1.62363 48.0973C1.68717 47.9277 1.75071 47.8004 1.83544 47.7368C1.89898 47.6732 2.02607 47.6308 2.08961 47.5884C2.11079 47.5884 2.13197 47.5672 2.15316 47.5672H138.496C138.517 47.5672 138.538 47.5672 138.56 47.5884C138.623 47.6096 138.75 47.6732 138.814 47.7368C138.899 47.8004 138.962 47.9277 139.026 48.0973C139.047 48.1609 139.11 48.2033 139.195 48.2033C139.301 48.2033 139.365 48.1185 139.365 48.0337V45.0016C139.365 44.9168 139.301 44.832 139.195 44.832Z" fill="#122C50"></path><path fill-rule="evenodd" clip-rule="evenodd" d="M44.473 29.0996L46.2734 32.6405L50.2767 33.213L47.3749 35.9694L48.0738 39.8707L44.473 38.026L40.8934 39.8707L41.5712 35.9694L38.6694 33.213L42.6938 32.6405L44.473 29.0996Z" fill="#25F0F9"></path><path fill-rule="evenodd" clip-rule="evenodd" d="M96.155 29.0996L97.9554 32.6405L101.959 33.213L99.0568 35.9694L99.7558 39.8707L96.155 38.026L92.5754 39.8707L93.2532 35.9694L90.3514 33.213L94.3758 32.6405L96.155 29.0996Z" fill="#25F0F9"></path><path d="M65.3153 31.1351C65.2729 31.1775 65.1882 31.1987 65.0823 31.1987H59.4057C59.2998 31.1987 59.2363 31.1775 59.1728 31.1351C59.1304 31.0926 59.0669 31.0078 59.0457 30.8806H58.8762V32.6405H59.0457C59.088 32.5132 59.1304 32.4284 59.1728 32.386C59.2151 32.3436 59.2998 32.3224 59.4057 32.3224H61.5027V37.4747C61.5027 37.5807 61.4815 37.6656 61.4391 37.708C61.3968 37.7504 61.312 37.814 61.185 37.8352V37.9836H63.3031V37.8352C63.176 37.7928 63.0913 37.7504 63.0489 37.708C63.0065 37.6444 62.9854 37.5807 62.9854 37.4747V32.3224H65.0823C65.1882 32.3224 65.2729 32.3436 65.3153 32.386C65.3576 32.4284 65.4212 32.5132 65.4424 32.6405H65.6118V30.8806H65.4424C65.4 31.0078 65.3576 31.0714 65.3153 31.1351Z" fill="white"></path><path d="M69.9116 31.0715C68.3442 31.0927 67.2216 31.644 66.5438 32.7254C66.2049 33.2978 66.0143 33.9127 66.0143 34.5912C66.0143 35.0577 66.099 35.5029 66.2685 35.927C66.4591 36.4147 66.7344 36.8175 67.1157 37.1568C67.8147 37.7929 68.7466 38.1109 69.9116 38.1109C71.479 38.1109 72.6016 37.5596 73.2794 36.4571C73.6395 35.8846 73.8089 35.2909 73.8089 34.6336C73.8089 33.5735 73.4489 32.7042 72.7075 32.0469C72.0297 31.3896 71.0978 31.0715 69.9116 31.0715ZM72.1356 35.5242C72.0085 35.8634 71.7967 36.139 71.5426 36.3723C71.1189 36.7539 70.5682 36.9447 69.9328 36.9447C69.2762 36.9447 68.7466 36.7539 68.3018 36.3723C67.7935 35.927 67.5393 35.3333 67.5393 34.5912C67.5393 33.8491 67.7935 33.2554 68.3018 32.8102C68.7255 32.4285 69.2762 32.2377 69.9116 32.2377C70.5682 32.2377 71.0978 32.4285 71.5426 32.8102C72.0509 33.2554 72.3051 33.8491 72.3051 34.6124C72.3263 34.9305 72.2627 35.2273 72.1356 35.5242Z" fill="white"></path><path d="M81.5824 32.3013C81.4553 32.0256 81.2647 31.8136 81.0529 31.644C80.8411 31.4744 80.5657 31.3684 80.2903 31.3047C79.9938 31.2411 79.6126 31.1987 79.1254 31.1987H74.8892V31.3684C75.0162 31.4108 75.101 31.4532 75.1433 31.4956C75.1857 31.5592 75.2069 31.6228 75.2069 31.7288V37.4748C75.2069 37.5808 75.1857 37.6444 75.1433 37.708C75.101 37.7504 75.0162 37.814 74.8892 37.8353V37.9837H77.0073V37.8353C76.9014 37.814 76.8166 37.7716 76.7531 37.708C76.7107 37.6444 76.6896 37.5808 76.6896 37.4748V35.2273H79.1254C79.7608 35.2273 80.248 35.1637 80.5869 35.0365C80.9258 34.9092 81.2223 34.6972 81.4341 34.4004C81.6883 34.0611 81.7942 33.6583 81.7942 33.1918C81.773 32.895 81.7095 32.5981 81.5824 32.3013ZM80.1633 33.6583C80.0997 33.7855 79.9938 33.8915 79.8879 33.9551C79.6973 34.0611 79.3796 34.1035 78.9348 34.1035H76.6684V32.3013H78.9348C79.3796 32.3013 79.6973 32.3437 79.8879 32.4497C79.9938 32.5133 80.0997 32.6193 80.1633 32.7465C80.2268 32.8738 80.2692 33.0434 80.2692 33.1918C80.2692 33.3826 80.2268 33.5311 80.1633 33.6583Z" fill="white"></path><path fill-rule="evenodd" clip-rule="evenodd" d="M70.1234 96.334L71.9238 99.8749L75.927 100.447L73.0252 103.204L73.703 107.084L70.1234 105.26L66.5438 107.084L67.2216 103.204L64.3198 100.447L68.323 99.8749L70.1234 96.334Z" fill="#25F0F9"></path><path d="M42.8845 85.4357L43.8377 84.0151L43.7106 83.9302C43.6259 84.0151 43.5411 84.0575 43.4776 84.0575C43.4141 84.0575 43.2446 83.9726 42.9693 83.8242C42.3974 83.485 41.9102 83.273 41.5289 83.1669C41.1477 83.0609 40.6817 82.9973 40.1522 82.9973C38.6907 82.9973 37.6104 83.4426 36.8903 84.3543C36.4031 84.9692 36.1701 85.6689 36.1701 86.4958C36.1701 87.0895 36.2972 87.6408 36.5725 88.1496C36.8055 88.5949 37.1233 88.9553 37.5257 89.2522C38.2035 89.7611 39.0931 90.0155 40.1522 90.0155C40.6817 90.0155 41.1477 89.9519 41.5289 89.8459C41.9102 89.7399 42.3974 89.5066 42.9693 89.1886C43.2446 89.019 43.4141 88.9553 43.4776 88.9553C43.5411 88.9553 43.6047 88.9977 43.7106 89.0826L43.8377 88.9978L42.8845 87.5772L42.7574 87.662C42.7574 87.7044 42.7574 87.7468 42.7574 87.7892C42.7574 87.8952 42.7151 87.98 42.6304 88.0648C42.5456 88.1496 42.3974 88.2556 42.1855 88.3617C41.5925 88.7009 40.9782 88.8493 40.3216 88.8493C39.5379 88.8493 38.9237 88.6585 38.4789 88.2768C37.9281 87.8316 37.674 87.2379 37.674 86.4958C37.674 85.7537 37.9493 85.1812 38.4789 84.7148C38.9448 84.3331 39.5591 84.1423 40.3216 84.1423C40.9782 84.1423 41.5925 84.3119 42.1855 84.6299C42.3974 84.7572 42.5456 84.842 42.6304 84.9268C42.7151 85.0116 42.7574 85.0964 42.7574 85.2024C42.7574 85.2448 42.7574 85.2872 42.7574 85.3296L42.8845 85.4357Z" fill="white"></path><path d="M48.3069 82.9973C46.7395 83.0185 45.6169 83.5698 44.9391 84.6511C44.6002 85.2236 44.4096 85.8385 44.4096 86.517C44.4096 86.9835 44.4943 87.4287 44.6637 87.8528C44.8544 88.3405 45.1297 88.7433 45.511 89.0826C46.21 89.7186 47.1419 90.0367 48.3069 90.0367C49.8743 90.0367 50.9969 89.4854 51.6747 88.3829C52.0348 87.8104 52.2042 87.2167 52.2042 86.5594C52.2042 85.4993 51.8442 84.6299 51.1028 83.9727C50.425 83.3154 49.493 82.9973 48.3069 82.9973ZM50.5309 87.4499C50.4038 87.7892 50.192 88.0648 49.9379 88.298C49.5142 88.6797 48.9635 88.8705 48.3281 88.8705C47.6715 88.8705 47.1419 88.6797 46.6971 88.298C46.1888 87.8528 45.9346 87.2591 45.9346 86.517C45.9346 85.7749 46.1888 85.1812 46.6971 84.736C47.1208 84.3543 47.6715 84.1635 48.3069 84.1635C48.9635 84.1635 49.493 84.3543 49.9379 84.736C50.4462 85.1812 50.7004 85.7749 50.7004 86.5382C50.7216 86.835 50.658 87.1531 50.5309 87.4499Z" fill="white"></path><path d="M59.3211 83.2731C59.4905 83.2943 59.5753 83.3579 59.5753 83.5064C59.5753 83.57 59.5329 83.6972 59.4482 83.8456L57.5842 87.3017L55.7203 83.7608C55.6779 83.676 55.6567 83.5912 55.6567 83.5276C55.6567 83.3792 55.7415 83.2943 55.8897 83.2519V83.1035H53.2845V83.2519C53.4115 83.2943 53.4963 83.3368 53.5386 83.3792C53.581 83.4428 53.6022 83.5064 53.6022 83.6124V89.3584C53.6022 89.4644 53.581 89.5492 53.5386 89.5916C53.4963 89.634 53.4115 89.6976 53.2845 89.7188V89.8885H55.2755V89.7188C55.1484 89.6764 55.0637 89.634 55.0213 89.5916C54.9789 89.5492 54.9578 89.4644 54.9578 89.3584V85.2026L57.4571 89.8885L60.1048 85.2026V89.3584C60.1048 89.4644 60.0836 89.5492 60.0412 89.5916C59.9989 89.6552 59.9142 89.6976 59.7871 89.7188V89.8885H61.9052V89.7188C61.7781 89.6764 61.6934 89.634 61.651 89.5916C61.6086 89.5492 61.5875 89.4644 61.5875 89.3584V83.6124C61.5875 83.5064 61.6086 83.4428 61.651 83.3792C61.6934 83.3368 61.7781 83.2731 61.9052 83.2519V83.1035H59.3211V83.2731Z" fill="white"></path><path d="M69.9116 85.1178C69.9116 84.7998 69.8481 84.5029 69.721 84.2061C69.5939 83.9304 69.4033 83.7184 69.1915 83.5488C68.9797 83.3792 68.7043 83.2731 68.429 83.2095C68.1324 83.1459 67.7512 83.1035 67.264 83.1035H63.0278V83.2519C63.1549 83.2943 63.2396 83.3368 63.2819 83.3792C63.3243 83.4428 63.3455 83.5064 63.3455 83.6124V89.3584C63.3455 89.4644 63.3243 89.528 63.2819 89.5916C63.2396 89.6552 63.1549 89.6976 63.0278 89.7188V89.8885H65.1459V89.7188C65.04 89.6976 64.9553 89.6552 64.8917 89.5916C64.8493 89.528 64.8282 89.4644 64.8282 89.3584V87.1321H67.264C67.8994 87.1321 68.3866 87.0685 68.7255 86.9412C69.0644 86.814 69.3609 86.602 69.5727 86.3052C69.7846 85.9871 69.9116 85.5843 69.9116 85.1178ZM68.3019 85.5631C68.2383 85.6903 68.1324 85.7963 68.0265 85.8599C67.8359 85.9659 67.5182 86.0083 67.0734 86.0083H64.807V84.2061H67.0734C67.5182 84.2061 67.8359 84.2485 68.0265 84.3545C68.1324 84.4181 68.2383 84.5241 68.3019 84.6513C68.3654 84.7786 68.4078 84.9482 68.4078 85.0966C68.4078 85.2874 68.3654 85.4358 68.3019 85.5631Z" fill="white"></path><path d="M77.0709 89.104L74.4868 83.8668C74.4232 83.7396 74.4021 83.6336 74.4021 83.5488C74.4021 83.4004 74.508 83.3155 74.6986 83.2519V83.1035H72.3051V83.2519C72.4958 83.3155 72.6017 83.4216 72.6017 83.57C72.6017 83.676 72.5593 83.8032 72.4746 83.9728L69.9752 89.1888C69.8905 89.3796 69.8058 89.5068 69.7422 89.5704C69.6787 89.634 69.5728 89.6764 69.4457 89.7188V89.8885H71.6909V89.7188C71.4791 89.6552 71.352 89.5704 71.352 89.422C71.352 89.3372 71.3732 89.2312 71.4367 89.104L71.9027 88.1498H74.974L75.4399 89.104C75.5035 89.2312 75.5458 89.3372 75.5458 89.422C75.5458 89.5916 75.4399 89.6976 75.2069 89.74V89.9097H77.7063V89.74C77.5581 89.7188 77.4522 89.6552 77.3674 89.5704C77.2827 89.4856 77.198 89.3372 77.0709 89.104ZM72.3263 87.2381L73.4489 84.821L74.5503 87.2381H72.3263Z" fill="white"></path><path d="M83.9124 83.2731C84.0395 83.3155 84.1242 83.3579 84.1666 83.4004C84.2089 83.464 84.2301 83.5276 84.2301 83.6336V87.6621L80.5022 83.7608C80.4175 83.6548 80.354 83.57 80.354 83.5064C80.354 83.4004 80.4175 83.3155 80.5658 83.2731V83.1247H78.257V83.2731C78.3841 83.3155 78.4688 83.3579 78.5112 83.4004C78.5536 83.464 78.5747 83.5276 78.5747 83.6336V89.3796C78.5747 89.4856 78.5536 89.5704 78.5112 89.6128C78.4688 89.6552 78.3841 89.7188 78.257 89.74V89.9097H80.248V89.74C80.121 89.6976 80.0362 89.6552 79.9939 89.6128C79.9515 89.5704 79.9303 89.4856 79.9303 89.3796V85.245L83.7218 89.1676C83.8912 89.3372 83.9547 89.4432 83.9547 89.5068C83.9547 89.6128 83.8912 89.6976 83.7429 89.7188V89.8885H85.8822V89.7188C85.7551 89.6764 85.6704 89.634 85.6281 89.5916C85.5857 89.5492 85.5645 89.4644 85.5645 89.3584V83.6124C85.5645 83.5064 85.5857 83.4428 85.6281 83.3792C85.6704 83.3368 85.7551 83.2731 85.8822 83.2519V83.1035H83.8912V83.2731H83.9124Z" fill="white"></path><path d="M87.1531 83.2729C87.2802 83.3153 87.3649 83.3577 87.4073 83.4001C87.4496 83.4638 87.4708 83.5274 87.4708 83.6334V89.3794C87.4708 89.4854 87.4496 89.5702 87.4073 89.6126C87.3649 89.655 87.2802 89.7186 87.1531 89.7398V89.9095H89.2712V89.7398C89.1653 89.7186 89.0806 89.6762 89.017 89.6126C88.9747 89.549 88.9535 89.4854 88.9535 89.3794V83.6334C88.9535 83.5274 88.9747 83.4638 89.017 83.4001C89.0594 83.3365 89.1441 83.2941 89.2712 83.2729V83.1245H87.1531V83.2729Z" fill="white"></path><path d="M96.9388 88.701C96.8965 88.7434 96.8117 88.7646 96.7058 88.7646H92.3425V86.8987H95.0961C95.202 86.8987 95.2655 86.9199 95.3291 86.9623C95.3714 87.0048 95.435 87.0896 95.4561 87.2168H95.6044V85.4993H95.4561C95.4138 85.6266 95.3714 85.7114 95.3291 85.7538C95.2655 85.7962 95.202 85.8174 95.0961 85.8174H92.3425V84.206H96.5787C96.6846 84.206 96.7482 84.2272 96.8117 84.2696C96.8753 84.312 96.9176 84.3968 96.9388 84.524H97.0871V82.7642H96.9388C96.8965 82.8914 96.8541 82.955 96.8117 83.0186C96.7694 83.061 96.6846 83.0822 96.5787 83.0822H90.5421V83.2306C90.6692 83.273 90.7539 83.3154 90.7963 83.3578C90.8387 83.4215 90.8598 83.4851 90.8598 83.5911V89.3371C90.8598 89.4431 90.8387 89.5279 90.7963 89.5703C90.7539 89.6127 90.6692 89.6763 90.5421 89.6975V89.8671H96.7058C96.8117 89.8671 96.8753 89.8884 96.9388 89.9308C97.0024 89.9732 97.0447 90.058 97.0659 90.1852H97.2142V88.4253H97.0659C97.0235 88.5738 96.9812 88.6586 96.9388 88.701Z" fill="white"></path><path d="M103.738 86.3049C103.526 86.1565 103.272 86.0293 102.975 85.9445C102.679 85.8597 102.319 85.7961 101.853 85.7325L101.069 85.6476C100.54 85.584 100.201 85.5416 100.052 85.4992C99.7347 85.4144 99.5864 85.2236 99.5864 84.9692C99.5864 84.8207 99.65 84.6723 99.7771 84.5451C99.9042 84.4179 100.052 84.3119 100.243 84.2483C100.518 84.1634 100.815 84.121 101.175 84.121C101.959 84.121 102.658 84.3331 103.251 84.7359C103.441 84.8631 103.547 84.9904 103.547 85.0964C103.547 85.1176 103.547 85.1388 103.547 85.1812L103.696 85.266L104.5 83.6758L104.352 83.591C104.267 83.6758 104.183 83.697 104.119 83.697C104.077 83.697 103.95 83.6546 103.759 83.591C103.208 83.3577 102.742 83.1881 102.361 83.1033C101.98 83.0185 101.577 82.9761 101.154 82.9761C100.116 82.9761 99.3535 83.2305 98.8239 83.7182C98.4215 84.0998 98.2309 84.5663 98.2309 85.1388C98.2309 85.478 98.3156 85.7961 98.4638 86.0717C98.6333 86.3685 98.8663 86.6018 99.184 86.7502C99.3958 86.8562 99.6076 86.941 99.8194 86.9834C100.031 87.0258 100.391 87.0894 100.9 87.1319L101.662 87.2167C102.171 87.2803 102.509 87.3439 102.679 87.4075C102.912 87.5135 103.039 87.6619 103.039 87.8952C103.039 88.0436 102.997 88.192 102.891 88.3192C102.785 88.4464 102.658 88.5737 102.488 88.6585C102.171 88.8069 101.81 88.8917 101.366 88.8917C100.963 88.8917 100.54 88.8281 100.095 88.6797C99.65 88.5313 99.3111 88.3828 99.0993 88.192C98.951 88.0648 98.8875 87.9376 98.8875 87.7891C98.8875 87.7679 98.8875 87.7467 98.8875 87.7255L98.7392 87.6619L97.9979 89.337L98.1461 89.4218C98.2309 89.3582 98.3156 89.3158 98.3579 89.3158C98.4003 89.3158 98.5062 89.3582 98.6968 89.443C99.5653 89.867 100.455 90.0791 101.344 90.0791C101.853 90.0791 102.319 90.0155 102.742 89.8882C103.336 89.7186 103.759 89.4854 104.034 89.1461C104.352 88.7857 104.5 88.3616 104.5 87.874C104.5 87.5771 104.437 87.2803 104.31 87.0258C104.14 86.6866 103.971 86.4746 103.738 86.3049Z" fill="white"></path><path d="M14.2476 59.9072L15.7726 56.9176L15.5184 56.7692C15.349 56.9176 15.2007 56.9812 15.0524 56.9812C14.9677 56.9812 14.7559 56.9176 14.3958 56.7692C13.3368 56.3239 12.4683 56.0271 11.7694 55.8575C11.0704 55.6878 10.3079 55.603 9.50298 55.603C7.5755 55.603 6.114 56.0695 5.13967 57.0024C4.39833 57.7021 4.03825 58.5926 4.03825 59.674C4.03825 60.3313 4.18652 60.9038 4.48305 61.4126C4.80077 61.9639 5.24557 62.388 5.81746 62.6636C6.21991 62.8544 6.60117 63.0029 7.00361 63.0877C7.40605 63.1725 8.08384 63.2785 9.037 63.3633L10.4773 63.5117C11.4305 63.6177 12.0871 63.7238 12.4048 63.851C12.8496 64.0206 13.0826 64.3386 13.0826 64.7627C13.0826 65.0383 12.9767 65.314 12.7861 65.5684C12.5954 65.8228 12.3413 66.0349 12.0235 66.1833C11.4305 66.4589 10.7315 66.6074 9.90542 66.6074C9.1429 66.6074 8.33802 66.4801 7.51195 66.2257C6.66471 65.9713 6.05046 65.6532 5.64801 65.2928C5.37266 65.0595 5.24557 64.8051 5.24557 64.5295C5.24557 64.5083 5.24557 64.4659 5.24557 64.4022L4.97022 64.275L3.59344 67.3919L3.8688 67.5403C4.03825 67.4131 4.16534 67.3283 4.25006 67.3283C4.3136 67.3283 4.52541 67.4131 4.86431 67.5615C6.49526 68.3672 8.16857 68.7701 9.84188 68.7701C10.7738 68.7701 11.6635 68.664 12.4683 68.4308C13.5698 68.134 14.3746 67.6675 14.9042 67.0314C15.4761 66.3317 15.7726 65.5472 15.7726 64.6567C15.7726 64.0842 15.6455 63.5541 15.4125 63.0665C15.1583 62.5788 14.8406 62.1759 14.417 61.8579C13.9934 61.5611 13.5274 61.349 12.9979 61.1794C12.4683 61.0098 11.7482 60.8826 10.8798 60.7977L9.41826 60.6493C8.44392 60.5433 7.80849 60.4585 7.49077 60.3737C6.91888 60.2041 6.62235 59.8648 6.62235 59.3984C6.62235 59.1015 6.72825 58.8471 6.96124 58.5926C7.19424 58.3382 7.49077 58.1686 7.85085 58.0414C8.3592 57.8717 8.93109 57.8081 9.58771 57.8081C11.0704 57.8081 12.3836 58.1898 13.485 58.9743C13.8451 59.2075 14.0146 59.4408 14.0146 59.6528C14.0146 59.6952 14.0146 59.7376 14.0146 59.8012L14.2476 59.9072Z" fill="#122C50"></path><path d="M32.2303 57.4265C30.9383 56.2179 29.1803 55.6243 26.9562 55.6243C23.9909 55.6667 21.8939 56.6844 20.6443 58.6987C19.9876 59.7588 19.6699 60.925 19.6699 62.1972C19.6699 63.0665 19.8182 63.8934 20.1359 64.6779C20.496 65.5684 21.0255 66.3318 21.7245 66.989C23.0165 68.1976 24.7746 68.7913 26.9774 68.7913C29.9004 68.7913 32.0185 67.7523 33.3106 65.6957C33.9672 64.6355 34.3061 63.5118 34.3061 62.282C34.2849 60.2889 33.6071 58.6775 32.2303 57.4265ZM31.1289 63.9782C30.8747 64.5931 30.5147 65.1232 30.0275 65.5472C29.2226 66.2681 28.2059 66.6286 26.9986 66.6286C25.7701 66.6286 24.7534 66.2681 23.9485 65.5472C22.9954 64.6991 22.5082 63.5754 22.5082 62.1972C22.5082 60.819 22.9954 59.7164 23.9485 58.8471C24.7534 58.1262 25.7701 57.7658 26.9774 57.7658C28.2059 57.787 29.2226 58.1474 30.0275 58.8471C30.9806 59.674 31.4678 60.7978 31.4678 62.2396C31.4678 62.8545 31.3619 63.4269 31.1289 63.9782Z" fill="#122C50"></path><path d="M49.7895 55.7091C49.6836 55.794 49.5565 55.8364 49.3659 55.8364H38.1187V56.1332C38.3517 56.1968 38.4999 56.2816 38.5847 56.3664C38.6694 56.4724 38.7118 56.6209 38.7118 56.8117V67.5828C38.7118 67.7736 38.6694 67.922 38.5847 68.028C38.4999 68.1341 38.3517 68.1977 38.1187 68.2613V68.5581H42.0796V68.2613C41.8677 68.1977 41.6983 68.1341 41.6136 68.028C41.5288 67.922 41.4865 67.7736 41.4865 67.5828V63.003H46.6335C46.8241 63.003 46.9724 63.0454 47.0783 63.1302C47.1842 63.215 47.2478 63.3634 47.3113 63.5966H47.6078V60.3738H47.3113C47.2478 60.5858 47.163 60.7554 47.0783 60.8403C46.9724 60.9251 46.8241 60.9675 46.6335 60.9675H41.4865V57.9354H49.3659C49.5565 57.9354 49.7048 57.9779 49.7895 58.0627C49.8954 58.1475 49.9589 58.2959 50.0225 58.5291H50.319V55.2427H50.0225C49.9589 55.4759 49.8742 55.6243 49.7895 55.7091Z" fill="#122C50"></path><path d="M65.1882 55.7091C65.0823 55.794 64.934 55.8364 64.7434 55.8364H54.0893C53.8986 55.8364 53.7715 55.794 53.6656 55.7091C53.5597 55.6243 53.4962 55.4759 53.4115 55.2427H53.1149V58.5291H53.4115C53.475 58.2959 53.5597 58.1475 53.6445 58.0627C53.7504 57.9779 53.8775 57.9354 54.0681 57.9354H58.0501V67.5828C58.0501 67.7736 58.0078 67.922 57.923 68.028C57.8383 68.1341 57.6901 68.1977 57.4571 68.2613V68.5581H61.4179V68.2613C61.1849 68.1977 61.0367 68.1129 60.952 68.028C60.8672 67.922 60.8249 67.7736 60.8249 67.5828V57.9354H64.7646C64.9552 57.9354 65.1034 57.9779 65.2094 58.0627C65.3153 58.1475 65.3788 58.2959 65.4423 58.5291H65.7389V55.2427H65.4423C65.3788 55.4759 65.2941 55.6243 65.1882 55.7091Z" fill="#122C50"></path><path d="M86.3693 56.1333C86.8141 56.2181 87.0471 56.4089 87.0471 56.6634C87.0471 56.833 86.9836 57.0662 86.8565 57.4055L84.3571 64.042L81.773 57.3207C81.6671 57.045 81.6248 56.8542 81.6248 56.7694C81.6248 56.4726 81.8366 56.2817 82.2602 56.1545V55.8577H77.6427V56.1545C78.0663 56.2393 78.257 56.4089 78.257 56.7058C78.257 56.7906 78.1934 56.9814 78.0875 57.2783L75.334 64.042L72.8134 57.3207C72.7075 57.045 72.6651 56.8542 72.6651 56.7058C72.6651 56.4301 72.8558 56.2393 73.2582 56.1545V55.8577H68.8525V56.1545C69.1279 56.2181 69.3397 56.3241 69.488 56.4938C69.6362 56.6634 69.8057 56.9814 69.9751 57.4479L73.6183 66.8408C73.7877 67.3073 73.8725 67.5829 73.8725 67.6677C73.8725 68.007 73.6607 68.219 73.2582 68.3038V68.6006H77.3462V68.3038C76.8802 68.1766 76.6472 67.9857 76.6472 67.6889C76.6472 67.5829 76.7319 67.3497 76.9014 66.9892L79.8032 59.6318L82.5991 66.8408C82.7897 67.2861 82.8956 67.5617 82.8956 67.6889C82.8956 68.0282 82.6838 68.2402 82.239 68.3038V68.6006H86.3905V68.3038C85.9457 68.219 85.7339 68.0494 85.7339 67.7313C85.7339 67.5829 85.8186 67.2861 85.9881 66.8408L89.6312 57.4479C89.8219 56.9602 89.9701 56.6422 90.0972 56.515C90.2243 56.3877 90.4361 56.2605 90.7326 56.1757V55.8789H86.3693V56.1333V56.1333Z" fill="#122C50"></path><path d="M105.771 67.1164L100.921 57.3207C100.794 57.0874 100.751 56.8754 100.751 56.7058C100.751 56.4513 100.942 56.2605 101.302 56.1545V55.8577H96.7904V56.1545C97.1505 56.2817 97.3199 56.4938 97.3199 56.7694C97.3199 56.9602 97.2352 57.2147 97.0869 57.5115L92.4059 67.2861C92.2365 67.6465 92.0882 67.8797 91.9611 68.007C91.834 68.1342 91.6434 68.219 91.3892 68.2614V68.5582H95.5831V68.2614C95.1595 68.1554 94.9688 67.9645 94.9688 67.6889C94.9688 67.5405 95.0324 67.3497 95.1383 67.0952L95.9855 65.3142H101.768L102.636 67.0952C102.763 67.3497 102.827 67.5405 102.827 67.6677C102.827 67.9858 102.615 68.1766 102.213 68.2402V68.537H106.894V68.2402C106.64 68.1978 106.428 68.0918 106.28 67.9433C106.152 67.8161 105.983 67.5193 105.771 67.1164ZM96.854 63.5755L98.9509 59.0381L101.005 63.5755H96.854Z" fill="#122C50"></path><path d="M120.725 66.7771L118.268 63.2574C120.577 62.897 121.721 61.6884 121.721 59.6105C121.721 58.9956 121.615 58.4231 121.382 57.8931C121.149 57.3418 120.767 56.8965 120.28 56.5785C119.857 56.3029 119.37 56.112 118.798 55.9848C118.226 55.8788 117.463 55.8152 116.489 55.8152H108.546V56.112C108.779 56.1756 108.927 56.2604 109.012 56.3453C109.097 56.4513 109.139 56.5997 109.139 56.7905V67.5616C109.139 67.7524 109.097 67.9009 109.012 67.9857C108.927 68.0917 108.779 68.1553 108.546 68.2189V68.5158H112.507V68.2189C112.295 68.1553 112.126 68.0917 112.041 67.9857C111.956 67.8797 111.914 67.7312 111.914 67.5616V63.3422H115.303L117.866 67.0952C118.162 67.5192 118.31 67.7948 118.31 67.9009C118.31 68.0705 118.162 68.1765 117.844 68.2401V68.537H122.441V68.2401C122.144 68.2189 121.911 68.1129 121.699 67.9433C121.488 67.7948 121.17 67.392 120.725 66.7771ZM117.527 61.2219C117.273 61.2643 116.828 61.2855 116.192 61.2855H111.914V57.9567H116.192C116.828 57.9567 117.294 57.9779 117.548 57.9991C117.802 58.0415 118.035 58.1051 118.268 58.2323C118.734 58.4868 118.967 58.9532 118.967 59.6105C118.967 60.2678 118.734 60.7343 118.268 60.9887C118.035 61.0947 117.802 61.1795 117.527 61.2219Z" fill="#122C50"></path><path d="M136.78 65.8654C136.717 66.0986 136.632 66.247 136.547 66.3318C136.442 66.4166 136.314 66.459 136.124 66.459H127.948V62.9817H133.095C133.286 62.9817 133.434 63.0242 133.519 63.109C133.624 63.1938 133.688 63.3422 133.752 63.5754H134.048V60.3526H133.752C133.688 60.5858 133.603 60.7342 133.519 60.819C133.413 60.9039 133.286 60.9463 133.095 60.9463H127.948V57.9354H135.891C136.081 57.9354 136.23 57.9779 136.314 58.0627C136.42 58.1475 136.484 58.2959 136.547 58.5291H136.844V55.2427H136.547C136.484 55.4547 136.399 55.6243 136.314 55.7091C136.209 55.794 136.081 55.8364 135.891 55.8364H124.58V56.1332C124.813 56.1968 124.961 56.2816 125.046 56.3664C125.131 56.4724 125.173 56.6209 125.173 56.8117V67.5828C125.173 67.7736 125.131 67.922 125.046 68.028C124.961 68.1341 124.813 68.1977 124.58 68.2613V68.5581H136.124C136.314 68.5581 136.463 68.6005 136.547 68.6853C136.653 68.7702 136.717 68.9186 136.78 69.1518H137.077V65.8654H136.78V65.8654Z" fill="#122C50"></path></svg>