<svg xmlns="http://www.w3.org/2000/svg" width="3280" height="1099" viewBox="0 0 3280 1099" fill="none"><path d="M1040.78 194H1154.54V905H1040.78V194ZM1552.7 678.191C1552.7 787.002 1461.21 795.677 1433.99 795.677C1365.99 795.677 1353.62 732.028 1353.62 693.634V421.52H1239.86V693.065C1239.86 760.468 1261.02 816.097 1298.11 853.182C1330.87 885.974 1379.96 903.891 1433.14 903.891C1470.85 903.891 1524.26 892.145 1552.7 866.179V905H1666.46V421.52H1552.7V678.191ZM1893.98 250.88H1780.22V421.52H1694.9V535.28H1780.22V905H1893.98V535.28H1979.3V421.52H1893.98V250.88ZM2337.56 760.439C2312.79 782.708 2280.08 795.051 2244.19 795.051C2165.07 795.051 2106.97 736.948 2106.97 657.174C2106.97 577.4 2163.22 521.743 2244.19 521.743C2279.46 521.743 2312.79 533.488 2338.19 555.757L2355.45 570.602L2432.15 493.928L2412.96 476.608C2367.82 435.854 2307.9 412.988 2244.17 412.988C2101.97 412.988 1998.7 515.6 1998.7 656.577C1998.7 796.956 2104.44 903.237 2244.17 903.237C2309.09 903.237 2369.64 880.371 2414.21 838.962L2432.75 821.642L2354.85 745.025L2337.56 760.439ZM2838.19 463.668C2805.43 430.905 2767.03 412.988 2713.85 412.988C2676.14 412.988 2633.42 424.734 2604.98 450.671V194H2491.22V905H2604.98V638.659C2604.98 529.848 2682.28 521.202 2709.5 521.202C2777.5 521.202 2775.62 584.879 2775.62 623.216V905H2889.38V623.814C2889.38 556.411 2875.31 500.782 2838.19 463.668Z" fill="#17313B"></path><path d="M2240.44 576.176C2262.25 576.176 2283.17 584.841 2298.6 600.266C2314.02 615.69 2322.69 636.611 2322.69 658.424C2322.69 680.238 2314.02 701.158 2298.6 716.583C2283.17 732.007 2262.25 740.673 2240.44 740.673C2218.63 740.673 2197.71 732.007 2182.28 716.583C2166.86 701.158 2158.19 680.238 2158.19 658.424C2158.19 636.611 2166.86 615.69 2182.28 600.266C2197.71 584.841 2218.63 576.176 2240.44 576.176Z" fill="#FF3D2E"></path><path d="M881.52 726.425C838.262 770.934 779.505 795.051 717.677 795.051C590.948 795.051 498.802 695.511 498.802 558.885C498.802 421.634 590.948 322.094 717.677 322.094C778.908 322.094 837.011 346.183 880.922 390.094L898.214 407.414L974.262 331.365L957.568 314.045C894.517 249.117 809.197 213.908 717.677 213.908C530.968 213.908 390.617 362.28 390.617 559.483C390.617 756.088 531.594 903.863 717.677 903.863C809.822 903.863 895.142 868.028 958.194 803.1L974.888 785.78L899.465 708.508L881.52 726.425Z" fill="#17313B"></path></svg>