<svg xmlns="http://www.w3.org/2000/svg" width="100" height="60" viewBox="0 0 100 60" fill="none"><path fill-rule="evenodd" clip-rule="evenodd" d="M76.5527 39.0314C75.4967 40.1194 74.9688 41.4154 74.9688 42.9194C74.9688 44.4234 75.4967 45.7194 76.5527 46.8074C77.6087 47.8954 78.9687 48.4394 80.6327 48.4394C82.3287 48.4394 83.6887 47.8954 84.7127 46.8074C85.7687 45.7194 86.2967 44.4234 86.2967 42.9194C86.2967 41.4154 85.7687 40.1194 84.7127 39.0314C83.6887 37.9434 82.3287 37.3994 80.6327 37.3994C78.9687 37.3994 77.6087 37.9434 76.5527 39.0314ZM86.1583 37.6491C84.7049 36.1115 82.7929 35.3994 80.6327 35.3994C78.4862 35.3994 76.5889 36.1225 75.1176 37.6385C73.7026 39.0963 72.9688 40.8906 72.9688 42.9194C72.9688 44.9482 73.7026 46.7425 75.1176 48.2004C76.5889 49.7163 78.4862 50.4394 80.6327 50.4394C82.7929 50.4394 84.7049 49.7273 86.1583 48.1897C87.5664 46.7338 88.2967 44.9433 88.2967 42.9194C88.2967 40.8956 87.5664 39.105 86.1583 37.6491Z" fill="#1B5AB8"></path><path fill-rule="evenodd" clip-rule="evenodd" d="M51.2067 26.1517H40.7427V24.1517C40.7427 21.6503 41.3831 19.3415 42.6823 17.2781C43.978 15.2201 45.7947 13.6104 48.0654 12.4384L48.077 12.4325C50.425 11.2398 53.1152 10.6797 56.0867 10.6797C59.1474 10.6797 61.8595 11.1202 64.1562 12.0833C66.4089 13.028 68.2419 14.3727 69.5246 16.1766C70.7975 17.9667 71.4307 20.0066 71.4307 22.2317C71.4307 24.8901 70.4904 27.1767 68.5351 28.8769L68.5257 28.8851L68.5161 28.8932C68.3618 29.024 68.2037 29.1512 68.0419 29.2748C69.1575 30.0608 70.0913 31.0052 70.8103 32.1192C71.8953 33.7169 72.3907 35.5907 72.3907 37.6397C72.3907 40.0394 71.6848 42.231 70.2768 44.1487C68.8887 46.0511 66.8901 47.467 64.4269 48.4672C61.9404 49.49 58.9773 49.9597 55.6067 49.9597C53.1287 49.9597 50.8423 49.5756 48.7794 48.7652L48.7679 48.7607C46.7823 47.9664 45.0588 46.8642 43.6325 45.4379C42.245 44.0503 41.1679 42.4787 40.4224 40.7268L40.4195 40.7199L40.4166 40.7129C39.6792 38.9431 39.3027 37.1143 39.3027 35.2397V33.2397H51.2067V26.1517ZM53.6707 34.8451V35.2397C53.6707 36.1059 53.8294 36.5922 53.9799 36.8495C54.2256 37.2078 54.483 37.4066 54.749 37.5235C55.2257 37.7162 55.6677 37.7997 56.0867 37.7997C56.6624 37.7997 57.1217 37.7388 57.4833 37.6425C57.7058 37.5677 57.8229 37.4778 57.8964 37.3949C57.9364 37.3275 58.0227 37.1312 58.0227 36.6797C58.0227 36.5238 57.9892 36.3649 57.8979 36.1821L57.8858 36.1579L57.8744 36.1335C57.8255 36.0288 57.7191 35.873 57.4497 35.6878L57.4157 35.6644L57.3827 35.6397C57.1798 35.4875 56.778 35.2869 56.0517 35.1313L56.01 35.1224L55.9688 35.1117C55.4106 34.967 54.6548 34.8685 53.6707 34.8451ZM59.4947 38.5997C59.1427 39.0477 58.6627 39.3677 58.0547 39.5597C57.4787 39.7197 56.8227 39.7997 56.0867 39.7997C55.3827 39.7997 54.6787 39.6557 53.9747 39.3677C53.3027 39.0797 52.7427 38.5997 52.2947 37.9277C51.8787 37.2557 51.6707 36.3597 51.6707 35.2397H41.3027C41.3027 35.912 41.3592 36.5787 41.4722 37.2397C41.6282 38.1518 41.8917 39.0531 42.2627 39.9437C42.9027 41.4477 43.8307 42.8077 45.0467 44.0237C46.2627 45.2397 47.7507 46.1997 49.5107 46.9037C51.3027 47.6077 53.3347 47.9597 55.6067 47.9597C58.8067 47.9597 61.4947 47.5117 63.6707 46.6157C65.8787 45.7197 67.5427 44.5037 68.6627 42.9677C69.8147 41.3997 70.3907 39.6237 70.3907 37.6397C70.3907 35.9117 69.9747 34.4397 69.1427 33.2237C68.4405 32.1282 67.4548 31.2054 66.1855 30.4551C66.0087 30.3506 65.8265 30.2495 65.6387 30.1517C65.0719 29.8502 64.4618 29.5805 63.8086 29.3426C64.6708 29.0064 65.4496 28.6137 66.1452 28.1647C66.5298 27.9163 66.889 27.6506 67.2227 27.3677C68.6947 26.0877 69.4307 24.3757 69.4307 22.2317C69.4307 20.4077 68.9187 18.7757 67.8947 17.3357C66.8707 15.8957 65.3667 14.7597 63.3827 13.9277C61.3987 13.0957 58.9667 12.6797 56.0867 12.6797C53.3667 12.6797 50.9987 13.1917 48.9827 14.2157C46.9987 15.2397 45.4627 16.6157 44.3747 18.3437C43.6359 19.5171 43.1479 20.7864 42.9108 22.1517C42.7988 22.7969 42.7427 23.4636 42.7427 24.1517H52.3907C52.3907 23.1597 52.7267 22.3597 53.3987 21.7517C54.0707 21.1437 54.9507 20.8397 56.0387 20.8397C56.7427 20.8397 57.3027 20.9357 57.7187 21.1277C58.1667 21.2877 58.5027 21.5277 58.7267 21.8477C58.9507 22.1677 59.0627 22.5357 59.0627 22.9517C59.0627 23.4317 58.9187 23.8957 58.6307 24.3437C58.3427 24.7917 57.9267 25.1917 57.3827 25.5437C57.1554 25.7 56.9061 25.8405 56.6346 25.9652C56.2946 26.1214 55.92 26.2529 55.5107 26.3597C54.8067 26.5517 54.0387 26.6477 53.2067 26.6477V32.8397C53.7471 32.8397 54.2495 32.8587 54.7139 32.8967C55.377 32.9509 55.9626 33.0439 56.4707 33.1757C57.3667 33.3677 58.0707 33.6557 58.5827 34.0397C59.0947 34.3917 59.4627 34.8077 59.6867 35.2877C59.9107 35.7357 60.0227 36.1997 60.0227 36.6797C60.0227 37.4797 59.8467 38.1197 59.4947 38.5997ZM54.3907 24.5579C54.5996 24.5241 54.7973 24.4812 54.9845 24.4302L54.9952 24.4272L55.0059 24.4245C55.566 24.2783 55.9663 24.0904 56.2497 23.8956L56.2727 23.8798L56.2962 23.8645C56.652 23.6343 56.8438 23.4248 56.9484 23.2622C57.0201 23.1506 57.0473 23.0716 57.0572 23.0152C57.0536 23.0139 57.0499 23.0125 57.0461 23.0112L56.9618 22.9811L56.8806 22.9436C56.8303 22.9204 56.5934 22.8397 56.0387 22.8397C55.3418 22.8397 54.9739 23.0237 54.7406 23.2348C54.53 23.4252 54.3907 23.665 54.3907 24.1517V24.5579Z" fill="#1B5AB8"></path><path fill-rule="evenodd" clip-rule="evenodd" d="M12.1865 27.4596V14.5196L35.1465 10.2764V48.9999H21.0665V25.4916L12.1865 27.4596ZM23.0665 22.9999V46.9999H33.1465V12.6799L14.1865 16.1839V24.9679L23.0665 22.9999Z" fill="#1B5AB8"></path></svg>