<svg xmlns="http://www.w3.org/2000/svg" width="100" height="60" viewBox="0 0 100 60" fill="none"><path fill-rule="evenodd" clip-rule="evenodd" d="M79.8418 39.0314C78.7858 40.1194 78.2578 41.4154 78.2578 42.9194C78.2578 44.4234 78.7858 45.7194 79.8418 46.8074C80.8978 47.8954 82.2578 48.4394 83.9218 48.4394C85.6178 48.4394 86.9778 47.8954 88.0018 46.8074C89.0578 45.7194 89.5858 44.4234 89.5858 42.9194C89.5858 41.4154 89.0578 40.1194 88.0018 39.0314C86.9778 37.9434 85.6178 37.3994 83.9218 37.3994C82.2578 37.3994 80.8978 37.9434 79.8418 39.0314ZM89.4476 37.6495C87.9943 36.1117 86.0821 35.3994 83.9218 35.3994C81.7753 35.3994 79.878 36.1225 78.4066 37.6385C76.9917 39.0963 76.2578 40.8906 76.2578 42.9194C76.2578 44.9482 76.9917 46.7425 78.4066 48.2004C79.878 49.7163 81.7753 50.4394 83.9218 50.4394C86.0821 50.4394 87.9943 49.7272 89.4476 48.1893C90.8556 46.7335 91.5858 44.9431 91.5858 42.9194C91.5858 40.8957 90.8556 39.1053 89.4476 37.6495Z" fill="#1B5AB8"></path><path fill-rule="evenodd" clip-rule="evenodd" d="M33.6865 43.4794L56.6086 11.3994H68.2777V30.5994H73.5577V43.4794H68.2777V48.9994H53.2377V43.4794H33.6865ZM55.2377 41.4794V46.9994H66.2777V41.4794H71.5577V32.5994H66.2777V13.3994H57.6377L37.5737 41.4794H55.2377ZM56.6777 34.2794V26.7914L50.7737 34.2794H56.6777Z" fill="#1B5AB8"></path><path fill-rule="evenodd" clip-rule="evenodd" d="M9.89746 27.4596V14.5196L32.8575 10.2764V48.9999H18.7775V25.4916L9.89746 27.4596ZM20.7775 22.9999V46.9999H30.8575V12.6799L11.8975 16.1839V24.9679L20.7775 22.9999Z" fill="#1B5AB8"></path></svg>