<svg xmlns="http://www.w3.org/2000/svg" width="100" height="60" viewBox="0 0 100 60" fill="none"><path fill-rule="evenodd" clip-rule="evenodd" d="M75.749 39.0314C74.693 40.1194 74.165 41.4154 74.165 42.9194C74.165 44.4234 74.693 45.7194 75.749 46.8074C76.805 47.8954 78.165 48.4394 79.829 48.4394C81.525 48.4394 82.885 47.8954 83.909 46.8074C84.965 45.7194 85.493 44.4234 85.493 42.9194C85.493 41.4154 84.965 40.1194 83.909 39.0314C82.885 37.9434 81.525 37.3994 79.829 37.3994C78.165 37.3994 76.805 37.9434 75.749 39.0314ZM85.3549 37.6495C83.9015 36.1117 81.9893 35.3994 79.829 35.3994C77.6825 35.3994 75.7852 36.1225 74.3139 37.6385C72.8989 39.0963 72.165 40.8906 72.165 42.9194C72.165 44.9482 72.8989 46.7425 74.3139 48.2004C75.7852 49.7163 77.6825 50.4394 79.829 50.4394C81.9893 50.4394 83.9015 49.7272 85.3549 48.1893C86.7628 46.7335 87.493 44.9431 87.493 42.9194C87.493 40.8957 86.7628 39.1053 85.3549 37.6495Z" fill="#1B5AB8"></path><path fill-rule="evenodd" clip-rule="evenodd" d="M56.6298 35.5877L56.6366 35.5759C56.9571 35.0266 57.2268 34.3233 57.4157 33.4327L57.4203 33.4111L57.4253 33.3896C57.6398 32.4783 57.7562 31.4194 57.7562 30.1997C57.7562 28.9787 57.6395 27.9413 57.4285 27.0709L57.4203 27.0371L57.4133 27.003C57.2229 26.0782 56.9554 25.3959 56.6558 24.9036L56.6296 24.8605L56.6056 24.8163C56.3051 24.2614 56.0098 23.9618 55.7668 23.7998C55.5252 23.6387 55.2724 23.5597 54.9562 23.5597C54.6399 23.5597 54.3872 23.6387 54.1456 23.7998C53.8862 23.9727 53.5689 24.2897 53.2346 24.8596C52.9409 25.3826 52.6672 26.0947 52.4441 27.036C52.258 27.9227 52.1562 28.9727 52.1562 30.1997C52.1562 31.4204 52.2569 32.4871 52.4441 33.4104C52.6618 34.2984 52.9317 35.016 53.2348 35.5864C53.558 36.1067 53.8716 36.417 54.1456 36.5996C54.3872 36.7606 54.6399 36.8397 54.9562 36.8397C55.2724 36.8397 55.5252 36.7606 55.7668 36.5996C56.0303 36.4239 56.3277 36.122 56.623 35.5996L56.6298 35.5877ZM50.4922 33.8477C50.2682 32.7597 50.1562 31.5437 50.1562 30.1997C50.1562 28.8557 50.2682 27.6557 50.4922 26.5997C50.7482 25.5117 51.0842 24.5997 51.5002 23.8637C51.9482 23.0957 52.4602 22.5197 53.0362 22.1357C53.6122 21.7517 54.2522 21.5597 54.9562 21.5597C55.6602 21.5597 56.3002 21.7517 56.8762 22.1357C57.4522 22.5197 57.9482 23.0957 58.3642 23.8637C58.8122 24.5997 59.1482 25.5117 59.3722 26.5997C59.6282 27.6557 59.7562 28.8557 59.7562 30.1997C59.7562 31.5437 59.6282 32.7597 59.3722 33.8477C59.1482 34.9037 58.8122 35.8157 58.3642 36.5837C57.9482 37.3197 57.4522 37.8797 56.8762 38.2637C56.3002 38.6477 55.6602 38.8397 54.9562 38.8397C54.2522 38.8397 53.6122 38.6477 53.0362 38.2637C52.4602 37.8797 51.9482 37.3197 51.5002 36.5837C51.0842 35.8157 50.7482 34.9037 50.4922 33.8477ZM63.9532 47.4667L63.9458 47.4711C61.37 49.0016 58.3447 49.7197 54.9562 49.7197C51.7054 49.7197 48.7553 48.9921 46.1694 47.4775L46.1602 47.4721L46.1512 47.4667C43.5427 45.9016 41.5457 43.6221 40.1462 40.7153C38.7318 37.7778 38.0762 34.2442 38.0762 30.1997C38.0762 26.1552 38.7318 22.6216 40.1462 19.6841C41.5457 16.7774 43.5448 14.5097 46.1602 12.9753C48.7469 11.4256 51.7006 10.6797 54.9562 10.6797C58.3466 10.6797 61.3737 11.4147 63.9496 12.9785C66.5721 14.5187 68.5444 16.7982 69.8794 19.7207C71.2163 22.6475 71.8362 26.1673 71.8362 30.1997C71.8362 34.2321 71.2163 37.7518 69.8794 40.6787C68.5434 43.6034 66.5715 45.8957 63.9532 47.4667ZM62.9242 14.6957C60.7162 13.3517 58.0602 12.6797 54.9562 12.6797C52.0122 12.6797 49.4202 13.3517 47.1802 14.6957C44.9402 16.0077 43.1962 17.9597 41.9482 20.5517C40.7002 23.1437 40.0762 26.3597 40.0762 30.1997C40.0762 34.0397 40.7002 37.2557 41.9482 39.8477C43.1962 42.4397 44.9402 44.4077 47.1802 45.7517C49.4202 47.0637 52.0122 47.7197 54.9562 47.7197C58.0602 47.7197 60.7162 47.0637 62.9242 45.7517C65.1642 44.4077 66.8762 42.4397 68.0602 39.8477C69.2442 37.2557 69.8362 34.0397 69.8362 30.1997C69.8362 26.3597 69.2442 23.1437 68.0602 20.5517C66.8762 17.9597 65.1642 16.0077 62.9242 14.6957Z" fill="#1B5AB8"></path><path fill-rule="evenodd" clip-rule="evenodd" d="M12.8799 27.4596V14.5196L35.8399 10.2764V48.9999H21.7599V25.4916L12.8799 27.4596ZM23.7599 22.9999V46.9999H33.8399V12.6799L14.8799 16.1839V24.9679L23.7599 22.9999Z" fill="#1B5AB8"></path></svg>