<svg xmlns="http://www.w3.org/2000/svg" width="100" height="60" viewBox="0 0 100 60" fill="none"><path fill-rule="evenodd" clip-rule="evenodd" d="M72.5772 39.0314C71.5212 40.1194 70.9932 41.4154 70.9932 42.9194C70.9932 44.4234 71.5212 45.7194 72.5772 46.8074C73.6332 47.8954 74.9932 48.4394 76.6572 48.4394C78.3532 48.4394 79.7132 47.8954 80.7372 46.8074C81.7932 45.7194 82.3212 44.4234 82.3212 42.9194C82.3212 41.4154 81.7932 40.1194 80.7372 39.0314C79.7132 37.9434 78.3532 37.3994 76.6572 37.3994C74.9932 37.3994 73.6332 37.9434 72.5772 39.0314ZM82.183 37.6495C80.7296 36.1117 78.8175 35.3994 76.6572 35.3994C74.5106 35.3994 72.6134 36.1225 71.142 37.6385C69.7271 39.0963 68.9932 40.8906 68.9932 42.9194C68.9932 44.9482 69.7271 46.7425 71.142 48.2004C72.6134 49.7163 74.5106 50.4394 76.6572 50.4394C78.8175 50.4394 80.7296 49.7272 82.183 48.1893C83.591 46.7335 84.3212 44.9431 84.3212 42.9194C84.3212 40.8957 83.591 39.1053 82.183 37.6495Z" fill="#1B5AB8"></path><path fill-rule="evenodd" clip-rule="evenodd" d="M43.3174 27.4596V14.5196L66.2774 10.2764V48.9999H52.1974V25.4916L43.3174 27.4596ZM54.1974 22.9999V46.9999H64.2774V12.6799L45.3174 16.1839V24.9679L54.1974 22.9999Z" fill="#1B5AB8"></path><path fill-rule="evenodd" clip-rule="evenodd" d="M17.1611 27.4596V14.5196L40.1211 10.2764V48.9999H26.0411V25.4916L17.1611 27.4596ZM28.0411 22.9999V46.9999H38.1211V12.6799L19.1611 16.1839V24.9679L28.0411 22.9999Z" fill="#1B5AB8"></path></svg>