<svg xmlns="http://www.w3.org/2000/svg" width="100" height="60" viewBox="0 0 100 60" fill="none"><path fill-rule="evenodd" clip-rule="evenodd" d="M78.4356 39.0314C77.3796 40.1194 76.8516 41.4154 76.8516 42.9194C76.8516 44.4234 77.3796 45.7194 78.4356 46.8074C79.4916 47.8954 80.8516 48.4394 82.5156 48.4394C84.2116 48.4394 85.5716 47.8954 86.5956 46.8074C87.6516 45.7194 88.1796 44.4234 88.1796 42.9194C88.1796 41.4154 87.6516 40.1194 86.5956 39.0314C85.5716 37.9434 84.2116 37.3994 82.5156 37.3994C80.8516 37.3994 79.4916 37.9434 78.4356 39.0314ZM88.0414 37.6495C86.588 36.1117 84.6759 35.3994 82.5156 35.3994C80.369 35.3994 78.4718 36.1225 77.0004 37.6385C75.5855 39.0963 74.8516 40.8906 74.8516 42.9194C74.8516 44.9482 75.5855 46.7425 77.0004 48.2004C78.4718 49.7163 80.369 50.4394 82.5156 50.4394C84.6759 50.4394 86.588 49.7272 88.0414 48.1893C89.4494 46.7335 90.1796 44.9431 90.1796 42.9194C90.1796 40.8957 89.4494 39.1053 88.0414 37.6495Z" fill="#1B5AB8"></path><path fill-rule="evenodd" clip-rule="evenodd" d="M34.6758 48.9998L52.4562 30.9831C53.4315 29.9132 54.2624 28.9881 54.9501 28.2066L54.9535 28.2027C55.606 27.465 56.0553 26.808 56.3426 26.2334C56.5869 25.7449 56.7075 25.2354 56.7075 24.6798C56.7075 24.4728 56.6763 24.2867 56.6181 24.1123C56.5889 24.0248 56.5472 23.9559 56.4773 23.886C56.431 23.8398 56.3305 23.7604 56.1148 23.6833L56.0306 23.6532L55.9494 23.6158C55.8672 23.5778 55.6602 23.5118 55.2515 23.5118C54.8515 23.5118 54.5691 23.6147 54.3259 23.7939L54.2977 23.8147L54.2689 23.8345C53.9885 24.0263 53.7333 24.3073 53.5195 24.7423C53.3296 25.1919 53.2195 25.7219 53.2195 26.3598V28.3598H38.8995V26.3598C38.8995 23.6445 39.5182 21.0855 40.7593 18.7128C42.033 16.2777 43.9386 14.3326 46.4096 12.8782C48.9992 11.3406 52.1096 10.6318 55.6355 10.6318C58.0264 10.6318 60.2291 10.977 62.2133 11.7086C64.1738 12.3886 65.8811 13.3572 67.2879 14.6441C68.6861 15.8629 69.7719 17.279 70.5056 18.8936C71.2635 20.4916 71.6515 22.1706 71.6515 23.9118C71.6515 26.1187 71.0942 28.1493 69.9406 29.9392L69.9351 29.9479L69.9294 29.9565C68.8628 31.5748 67.47 33.0286 65.7845 34.3279L65.7835 34.3286L64.392 35.3998H72.8515V48.9998H34.6758ZM58.5155 37.3998L64.5635 32.7438C66.0995 31.5598 67.3315 30.2638 68.2595 28.8558C69.1875 27.4158 69.6515 25.7678 69.6515 23.9118C69.6515 22.4718 69.3315 21.0798 68.6915 19.7358C68.0835 18.3918 67.1715 17.1918 65.9555 16.1358C64.7715 15.0478 63.2995 14.1998 61.5395 13.5918C59.8115 12.9518 57.8435 12.6318 55.6355 12.6318C52.3715 12.6318 49.6355 13.2878 47.4275 14.5998C45.2515 15.8798 43.6195 17.5598 42.5315 19.6398C41.7515 21.1309 41.2511 22.7043 41.0303 24.3598C40.9431 25.0137 40.8995 25.6803 40.8995 26.3598H51.2195C51.2195 25.4638 51.3795 24.6478 51.6995 23.9118C52.0515 23.1758 52.5315 22.5998 53.1395 22.1838C53.7475 21.7358 54.4515 21.5118 55.2515 21.5118C55.8595 21.5118 56.3715 21.6078 56.7875 21.7998C57.2355 21.9598 57.6035 22.1838 57.8915 22.4718C58.1795 22.7598 58.3875 23.0958 58.5155 23.4798C58.6435 23.8638 58.7075 24.2638 58.7075 24.6798C58.7075 25.5438 58.5155 26.3598 58.1315 27.1278C57.7475 27.8958 57.1875 28.6958 56.4515 29.5278C55.7475 30.3278 54.8995 31.2718 53.9075 32.3598L39.4595 46.9998H70.8515V37.3998H58.5155Z" fill="#1B5AB8"></path><path fill-rule="evenodd" clip-rule="evenodd" d="M11.3037 27.4596V14.5196L34.2637 10.2764V48.9999H20.1837V25.4916L11.3037 27.4596ZM22.1837 22.9999V46.9999H32.2637V12.6799L13.3037 16.1839V24.9679L22.1837 22.9999Z" fill="#1B5AB8"></path></svg>