<svg xmlns="http://www.w3.org/2000/svg" width="80" height="50" viewBox="0 0 80 50" fill="none"><path d="M26.32 25C26.32 17.4452 32.4451 11.32 40 11.32C43.042 11.32 45.85 12.31 48.1219 13.9904C48.4189 13.2921 48.8664 12.668 49.4325 12.1626C49.9986 11.6572 50.6692 11.283 51.3966 11.0667C48.1836 8.43175 44.1553 6.9943 40 7.00002C30.0589 7.00002 22 15.0589 22 25C22 34.9412 30.0589 43 40 43C49.9411 43 58 34.9412 58 25C58 22.9197 57.6464 20.9179 56.9946 19.0549C56.5438 19.6659 55.9631 20.1694 55.2944 20.5292C54.6256 20.8889 53.8855 21.0958 53.1271 21.1352C53.4871 22.3592 53.68 23.6552 53.68 25C53.68 32.5549 47.5549 38.68 40 38.68C32.4451 38.68 26.32 32.5549 26.32 25Z" fill="black"></path><path d="M57.6297 21.3537C57.4694 20.5741 57.2572 19.8062 56.9946 19.0549C56.5438 19.6659 55.9631 20.1694 55.2944 20.5291C54.6256 20.8889 53.8855 21.0958 53.1271 21.1351C53.3855 22.015 53.5543 22.9188 53.6311 23.8326C54.4371 23.7326 55.2118 23.4593 55.9021 23.0314C56.5923 22.6035 57.1817 22.0311 57.6297 21.3537ZM40 32.875C42.0878 32.8726 44.0895 32.0422 45.5658 30.5658C47.0422 29.0895 47.8726 27.0878 47.875 25C47.8726 22.9122 47.0422 20.9105 45.5658 19.4342C44.0895 17.9578 42.0878 17.1274 40 17.125C37.9122 17.1274 35.9105 17.9578 34.4342 19.4342C32.9578 20.9105 32.1274 22.9122 32.125 25C32.1284 27.0875 32.9592 29.0886 34.4353 30.5647C35.9114 32.0408 37.9125 32.8716 40 32.875ZM51.8131 18.25C52.3302 18.25 52.8422 18.1482 53.32 17.9503C53.7977 17.7524 54.2317 17.4624 54.5974 17.0967C54.963 16.7311 55.253 16.297 55.4509 15.8193C55.6488 15.3416 55.7506 14.8296 55.7506 14.3125C55.7506 13.7954 55.6488 13.2834 55.4509 12.8057C55.253 12.328 54.963 11.8939 54.5974 11.5283C54.2317 11.1626 53.7977 10.8726 53.32 10.6747C52.8422 10.4768 52.3302 10.375 51.8131 10.375C50.7689 10.375 49.7673 10.7898 49.0289 11.5283C48.2905 12.2667 47.8756 13.2682 47.8756 14.3125C47.8756 15.3568 48.2905 16.3583 49.0289 17.0967C49.7673 17.8352 50.7689 18.25 51.8131 18.25Z" fill="black"></path></svg>